<?xml version="1.0" encoding="utf-8"?>
<!-- Generator: Adobe Illustrator 19.2.0, SVG Export Plug-In . SVG Version: 6.00 Build 0)  -->
<svg version="1.1" id="Capa_1" xmlns="http://www.w3.org/2000/svg" xmlns:xlink="http://www.w3.org/1999/xlink" x="0px" y="0px"
	 viewBox="0 0 438 438" style="enable-background:new 0 0 438 438;" xml:space="preserve">
<style type="text/css">
	.st0{fill:#FFFFFF;}
	.st1{fill:#7B52DA;stroke:#9C7BFF;stroke-width:3.7531;}
	.st2{fill:#FF6C45;stroke:#E68B57;stroke-width:3.7531;}
	.st3{fill:#FFFFFF;stroke:#E6E6E6;stroke-width:3.7531;}
	.st4{fill:url(#clipboard4_2_);}
</style>
<g>
	<path id="path-7_3_" class="st0" d="M382.5,197.7c28.5-22.2,28.5-58.2,0-80.3l-116.9-91c-28.5-22.2-74.7-22.2-103.2,0l-116.9,91
		c-28.5,22.2-28.5,58.2,0,80.3l116.9,91c28.5,22.2,74.7,22.2,103.2,0L382.5,197.7z"/>
</g>
<g>
	<path id="path-4_3_" class="st0" d="M382.5,261c28.5-22.2,28.5-58.2,0-80.3l-116.9-91c-28.5-22.2-74.7-22.2-103.2,0l-116.9,91
		C17,202.9,17,238.9,45.5,261l116.9,91c28.5,22.2,74.7,22.2,103.2,0L382.5,261z"/>
</g>
<g>
	<path id="path-1_3_" class="st0" d="M382.5,324.4c28.5-22.2,28.5-58.2,0-80.3l-116.9-91c-28.5-22.2-74.7-22.2-103.2,0L45.5,244
		c-28.5,22.2-28.5,58.2,0,80.3l116.9,91c28.5,22.2,74.7,22.2,103.2,0L382.5,324.4z"/>
</g>
<title>Group</title>
<desc>Created with Sketch.</desc>
<g id="Page-1">
	<g id="Symbols">
		<g id="MawKit_1_">
			<g id="Bottom_1_">
				<g>
					<path id="path-1_1_" d="M382.5,324.4c28.5-22.2,28.5-58.2,0-80.3l-116.9-91c-28.5-22.2-74.7-22.2-103.2,0L45.5,244
						c-28.5,22.2-28.5,58.2,0,80.3l116.9,91c28.5,22.2,74.7,22.2,103.2,0L382.5,324.4z"/>
				</g>
				<g>
					<path id="path-1_5_" class="st1" d="M382.5,324.4c28.5-22.2,28.5-58.2,0-80.3l-116.9-91c-28.5-22.2-74.7-22.2-103.2,0L45.5,244
						c-28.5,22.2-28.5,58.2,0,80.3l116.9,91c28.5,22.2,74.7,22.2,103.2,0L382.5,324.4z"/>
				</g>
			</g>
			<g id="Middle_1_">
				<g>
					<path id="path-4_1_" d="M382.5,261c28.5-22.2,28.5-58.2,0-80.3l-116.9-91c-28.5-22.2-74.7-22.2-103.2,0l-116.9,91
						C17,202.9,17,238.9,45.5,261l116.9,91c28.5,22.2,74.7,22.2,103.2,0L382.5,261z"/>
				</g>
				<g>
					<path id="path-4_5_" class="st2" d="M382.5,261c28.5-22.2,28.5-58.2,0-80.3l-116.9-91c-28.5-22.2-74.7-22.2-103.2,0l-116.9,91
						C17,202.9,17,238.9,45.5,261l116.9,91c28.5,22.2,74.7,22.2,103.2,0L382.5,261z"/>
				</g>
			</g>
			<g id="Top_1_">
				<g>
					<path id="path-7_1_" d="M382.5,197.7c28.5-22.2,28.5-58.2,0-80.3l-116.9-91c-28.5-22.2-74.7-22.2-103.2,0l-116.9,91
						c-28.5,22.2-28.5,58.2,0,80.3l116.9,91c28.5,22.2,74.7,22.2,103.2,0L382.5,197.7z"/>
				</g>
				<g>
					<path id="path-7_5_" class="st3" d="M382.5,197.7c28.5-22.2,28.5-58.2,0-80.3l-116.9-91c-28.5-22.2-74.7-22.2-103.2,0
						l-116.9,91c-28.5,22.2-28.5,58.2,0,80.3l116.9,91c28.5,22.2,74.7,22.2,103.2,0L382.5,197.7z"/>
				</g>
			</g>
			
				<linearGradient id="clipboard4_2_" gradientUnits="userSpaceOnUse" x1="267.0485" y1="4.8994" x2="267.7556" y2="5.6065" gradientTransform="matrix(222.1607 0 0 172.0511 -59203.0664 -756.9982)">
				<stop  offset="0" style="stop-color:#7B52DA"/>
				<stop  offset="1" style="stop-color:#FF2314"/>
			</linearGradient>
			<path id="clipboard4_1_" class="st4" d="M150.4,145.9c14.2,26.1,28.5,52.1,42.7,78.2c-33.7-11-67.3-22.1-101-33.1 M260,60.9
				l0.3-0.2c14.2,26.1,28.4,52.1,42.7,78.2c-33.7-11-67.3-22.1-101-33.1 M248.6,139.6c21.1,6.9,42.3,13.9,63.4,20.8
				c0.8,0.3,1.7,0.4,2.2,1l-40.5,31.3c-1.5-2.2-2.5-4.5-3.8-6.8c-8.5-15.5-16.9-31-25.4-46.5c-0.3-0.6-0.5-1.2-1.1-1.7 M191.8,178.1
				c15.8,5.2,31.6,10.3,47.3,15.5c7.8,2.6,15.7,5.1,23.4,7.7L222,232.7c-0.4-0.1-0.7-0.3-0.8-0.6"/>
		</g>
	</g>
</g>
</svg>
