<?xml version="1.0" encoding="UTF-8" standalone="no"?>
<!DOCTYPE svg PUBLIC "-//W3C//DTD SVG 1.1//EN"
 "http://www.w3.org/Graphics/SVG/1.1/DTD/svg11.dtd">
<!-- Generated by graphviz version 2.38.0 (20140413.2041)
 -->
<!-- Title: _Analytics.hpp Pages: 1 -->
<svg width="248pt" height="82pt"
 viewBox="0.00 0.00 248.03 82.00" xmlns="http://www.w3.org/2000/svg" xmlns:xlink="http://www.w3.org/1999/xlink">
<g id="graph0" class="graph" transform="scale(1 1) rotate(0) translate(4 78)">
<title>_Analytics.hpp</title>
<polygon fill="white" stroke="none" points="-4,4 -4,-78 244.034,-78 244.034,4 -4,4"/>
<!-- Node1 -->
<g id="node1" class="node"><title>Node1</title>
<polygon fill="#bfbfbf" stroke="black" points="60.9385,-55.5 60.9385,-73.5 141.978,-73.5 141.978,-55.5 60.9385,-55.5"/>
<text text-anchor="middle" x="101.458" y="-61.5" font-family="Helvetica,sans-Serif" font-size="10.00">_Analytics.hpp</text>
</g>
<!-- Node2 -->
<g id="node2" class="node"><title>Node2</title>
<g id="a_node2"><a xlink:href="_analytics_8cpp.html" target="_top" xlink:title="Analytics.cpp">
<polygon fill="white" stroke="black" points="0,-0.5 0,-18.5 74.916,-18.5 74.916,-0.5 0,-0.5"/>
<text text-anchor="middle" x="37.458" y="-6.5" font-family="Helvetica,sans-Serif" font-size="10.00">Analytics.cpp</text>
</a>
</g>
</g>
<!-- Node1&#45;&gt;Node2 -->
<g id="edge1" class="edge"><title>Node1&#45;&gt;Node2</title>
<path fill="none" stroke="midnightblue" d="M83.8591,-48.9259C72.069,-39.1622 56.9833,-26.6693 47.2697,-18.6253"/>
<polygon fill="midnightblue" stroke="midnightblue" points="81.8035,-51.7679 91.7378,-55.4504 86.2682,-46.3766 81.8035,-51.7679"/>
</g>
<!-- Node3 -->
<g id="node3" class="node"><title>Node3</title>
<g id="a_node3"><a xlink:href="_analytics_8mm.html" target="_top" xlink:title="Apple/Common/Analytics.mm">
<polygon fill="white" stroke="black" points="92.8818,-0.5 92.8818,-18.5 240.034,-18.5 240.034,-0.5 92.8818,-0.5"/>
<text text-anchor="middle" x="166.458" y="-6.5" font-family="Helvetica,sans-Serif" font-size="10.00">Apple/Common/Analytics.mm</text>
</a>
</g>
</g>
<!-- Node1&#45;&gt;Node3 -->
<g id="edge2" class="edge"><title>Node1&#45;&gt;Node3</title>
<path fill="none" stroke="midnightblue" d="M119.332,-48.9259C131.306,-39.1622 146.628,-26.6693 156.493,-18.6253"/>
<polygon fill="midnightblue" stroke="midnightblue" points="116.869,-46.4184 111.33,-55.4504 121.292,-51.8436 116.869,-46.4184"/>
</g>
</g>
</svg>
