<?xml version="1.0" encoding="UTF-8" standalone="no"?>
<!DOCTYPE svg PUBLIC "-//W3C//DTD SVG 1.1//EN"
 "http://www.w3.org/Graphics/SVG/1.1/DTD/svg11.dtd">
<!-- Generated by graphviz version 2.38.0 (20140413.2041)
 -->
<!-- Title: _AdKit.hpp Pages: 1 -->
<svg width="325pt" height="82pt"
 viewBox="0.00 0.00 324.59 82.00" xmlns="http://www.w3.org/2000/svg" xmlns:xlink="http://www.w3.org/1999/xlink">
<g id="graph0" class="graph" transform="scale(1 1) rotate(0) translate(4 78)">
<title>_AdKit.hpp</title>
<polygon fill="white" stroke="none" points="-4,4 -4,-78 320.586,-78 320.586,4 -4,4"/>
<!-- Node1 -->
<g id="node1" class="node"><title>Node1</title>
<polygon fill="#bfbfbf" stroke="black" points="97.9385,-55.5 97.9385,-73.5 162.864,-73.5 162.864,-55.5 97.9385,-55.5"/>
<text text-anchor="middle" x="130.401" y="-61.5" font-family="Helvetica,sans-Serif" font-size="10.00">_AdKit.hpp</text>
</g>
<!-- Node2 -->
<g id="node2" class="node"><title>Node2</title>
<g id="a_node2"><a xlink:href="_ad_kit_8cpp.html" target="_top" xlink:title="AdKit.cpp">
<polygon fill="white" stroke="black" points="0,-0.5 0,-18.5 58.8027,-18.5 58.8027,-0.5 0,-0.5"/>
<text text-anchor="middle" x="29.4014" y="-6.5" font-family="Helvetica,sans-Serif" font-size="10.00">AdKit.cpp</text>
</a>
</g>
</g>
<!-- Node1&#45;&gt;Node2 -->
<g id="edge1" class="edge"><title>Node1&#45;&gt;Node2</title>
<path fill="none" stroke="midnightblue" d="M106.085,-50.74C87.0604,-40.7567 61.182,-27.177 44.8855,-18.6253"/>
<polygon fill="midnightblue" stroke="midnightblue" points="104.58,-53.903 115.062,-55.4504 107.833,-47.7046 104.58,-53.903"/>
</g>
<!-- Node3 -->
<g id="node3" class="node"><title>Node3</title>
<g id="a_node3"><a xlink:href="i_o_s_2_ad_kit_8mm.html" target="_top" xlink:title="Apple/iOS/AdKit.mm">
<polygon fill="white" stroke="black" points="76.8301,-0.5 76.8301,-18.5 183.973,-18.5 183.973,-0.5 76.8301,-0.5"/>
<text text-anchor="middle" x="130.401" y="-6.5" font-family="Helvetica,sans-Serif" font-size="10.00">Apple/iOS/AdKit.mm</text>
</a>
</g>
</g>
<!-- Node1&#45;&gt;Node3 -->
<g id="edge2" class="edge"><title>Node1&#45;&gt;Node3</title>
<path fill="none" stroke="midnightblue" d="M130.401,-45.1746C130.401,-36.0945 130.401,-25.5949 130.401,-18.5496"/>
<polygon fill="midnightblue" stroke="midnightblue" points="126.901,-45.2187 130.401,-55.2188 133.901,-45.2188 126.901,-45.2187"/>
</g>
<!-- Node4 -->
<g id="node4" class="node"><title>Node4</title>
<g id="a_node4"><a xlink:href="_o_s_01_x_2_ad_kit_8mm.html" target="_top" xlink:title="Apple/OS X/AdKit.mm">
<polygon fill="white" stroke="black" points="202.217,-0.5 202.217,-18.5 316.586,-18.5 316.586,-0.5 202.217,-0.5"/>
<text text-anchor="middle" x="259.401" y="-6.5" font-family="Helvetica,sans-Serif" font-size="10.00">Apple/OS X/AdKit.mm</text>
</a>
</g>
</g>
<!-- Node1&#45;&gt;Node4 -->
<g id="edge3" class="edge"><title>Node1&#45;&gt;Node4</title>
<path fill="none" stroke="midnightblue" d="M159.482,-51.5523C183.937,-41.5046 218.24,-27.4113 239.625,-18.6253"/>
<polygon fill="midnightblue" stroke="midnightblue" points="157.913,-48.4127 149.994,-55.4504 160.574,-54.8875 157.913,-48.4127"/>
</g>
</g>
</svg>
