<?xml version="1.0" encoding="UTF-8" standalone="no"?>
<!DOCTYPE svg PUBLIC "-//W3C//DTD SVG 1.1//EN"
 "http://www.w3.org/Graphics/SVG/1.1/DTD/svg11.dtd">
<!-- Generated by graphviz version 2.38.0 (20140413.2041)
 -->
<!-- Title: _Analytics.hpp Pages: 1 -->
<svg width="102pt" height="137pt"
 viewBox="0.00 0.00 101.95 137.00" xmlns="http://www.w3.org/2000/svg" xmlns:xlink="http://www.w3.org/1999/xlink">
<g id="graph0" class="graph" transform="scale(1 1) rotate(0) translate(4 133)">
<title>_Analytics.hpp</title>
<polygon fill="white" stroke="none" points="-4,4 -4,-133 97.9531,-133 97.9531,4 -4,4"/>
<!-- Node1 -->
<g id="node1" class="node"><title>Node1</title>
<polygon fill="#bfbfbf" stroke="black" points="5.20703,-110.5 5.20703,-128.5 86.2461,-128.5 86.2461,-110.5 5.20703,-110.5"/>
<text text-anchor="middle" x="45.7266" y="-116.5" font-family="Helvetica,sans-Serif" font-size="10.00">_Analytics.hpp</text>
</g>
<!-- Node2 -->
<g id="node2" class="node"><title>Node2</title>
<g id="a_node2"><a xlink:href="_analytics_8hpp.html" target="_top" xlink:title="Analytics.hpp">
<polygon fill="white" stroke="black" points="7.98779,-55.5 7.98779,-73.5 83.4653,-73.5 83.4653,-55.5 7.98779,-55.5"/>
<text text-anchor="middle" x="45.7266" y="-61.5" font-family="Helvetica,sans-Serif" font-size="10.00">Analytics.hpp</text>
</a>
</g>
</g>
<!-- Node1&#45;&gt;Node2 -->
<g id="edge1" class="edge"><title>Node1&#45;&gt;Node2</title>
<path fill="none" stroke="midnightblue" d="M45.7266,-110.219C45.7266,-103.177 45.7266,-92.8083 45.7266,-83.8277"/>
<polygon fill="midnightblue" stroke="midnightblue" points="49.2267,-83.5495 45.7266,-73.5496 42.2267,-83.5496 49.2267,-83.5495"/>
</g>
<!-- Node3 -->
<g id="node3" class="node"><title>Node3</title>
<polygon fill="white" stroke="#bfbfbf" points="0,-0.5 0,-18.5 35.4531,-18.5 35.4531,-0.5 0,-0.5"/>
<text text-anchor="middle" x="17.7266" y="-6.5" font-family="Helvetica,sans-Serif" font-size="10.00">map</text>
</g>
<!-- Node2&#45;&gt;Node3 -->
<g id="edge2" class="edge"><title>Node2&#45;&gt;Node3</title>
<path fill="none" stroke="midnightblue" d="M41.3516,-55.2188C37.466,-47.8639 31.6632,-36.8801 26.7811,-27.639"/>
<polygon fill="midnightblue" stroke="midnightblue" points="29.7451,-25.7566 21.9792,-18.5496 23.5557,-29.0264 29.7451,-25.7566"/>
</g>
<!-- Node4 -->
<g id="node4" class="node"><title>Node4</title>
<polygon fill="white" stroke="#bfbfbf" points="53.5,-0.5 53.5,-18.5 93.9531,-18.5 93.9531,-0.5 53.5,-0.5"/>
<text text-anchor="middle" x="73.7266" y="-6.5" font-family="Helvetica,sans-Serif" font-size="10.00">string</text>
</g>
<!-- Node2&#45;&gt;Node4 -->
<g id="edge3" class="edge"><title>Node2&#45;&gt;Node4</title>
<path fill="none" stroke="midnightblue" d="M50.1016,-55.2188C53.9872,-47.8639 59.7899,-36.8801 64.672,-27.639"/>
<polygon fill="midnightblue" stroke="midnightblue" points="67.8974,-29.0264 69.474,-18.5496 61.708,-25.7566 67.8974,-29.0264"/>
</g>
</g>
</svg>
