<?xml version="1.0" encoding="UTF-8" standalone="no"?>
<!DOCTYPE svg PUBLIC "-//W3C//DTD SVG 1.1//EN"
 "http://www.w3.org/Graphics/SVG/1.1/DTD/svg11.dtd">
<!-- Generated by graphviz version 2.38.0 (20140413.2041)
 -->
<!-- Title: Android/_Device.cpp Pages: 1 -->
<svg width="219pt" height="137pt"
 viewBox="0.00 0.00 219.34 137.00" xmlns="http://www.w3.org/2000/svg" xmlns:xlink="http://www.w3.org/1999/xlink">
<g id="graph0" class="graph" transform="scale(1 1) rotate(0) translate(4 133)">
<title>Android/_Device.cpp</title>
<polygon fill="white" stroke="none" points="-4,4 -4,-133 215.342,-133 215.342,4 -4,4"/>
<!-- Node1 -->
<g id="node1" class="node"><title>Node1</title>
<polygon fill="#bfbfbf" stroke="black" points="48.0889,-110.5 48.0889,-128.5 156.364,-128.5 156.364,-110.5 48.0889,-110.5"/>
<text text-anchor="middle" x="102.227" y="-116.5" font-family="Helvetica,sans-Serif" font-size="10.00">Android/_Device.cpp</text>
</g>
<!-- Node2 -->
<g id="node2" class="node"><title>Node2</title>
<g id="a_node2"><a xlink:href="_device_8hpp.html" target="_top" xlink:title="../Device.hpp">
<polygon fill="white" stroke="black" points="33.0444,-55.5 33.0444,-73.5 107.409,-73.5 107.409,-55.5 33.0444,-55.5"/>
<text text-anchor="middle" x="70.2266" y="-61.5" font-family="Helvetica,sans-Serif" font-size="10.00">../Device.hpp</text>
</a>
</g>
</g>
<!-- Node1&#45;&gt;Node2 -->
<g id="edge1" class="edge"><title>Node1&#45;&gt;Node2</title>
<path fill="none" stroke="midnightblue" d="M97.2266,-110.219C92.7386,-102.786 86.0128,-91.646 80.3969,-82.3446"/>
<polygon fill="midnightblue" stroke="midnightblue" points="83.2516,-80.3012 75.0867,-73.5496 77.2592,-83.9193 83.2516,-80.3012"/>
</g>
<!-- Node3 -->
<g id="node3" class="node"><title>Node3</title>
<polygon fill="white" stroke="#bfbfbf" points="0,-0.5 0,-18.5 40.4531,-18.5 40.4531,-0.5 0,-0.5"/>
<text text-anchor="middle" x="20.2266" y="-6.5" font-family="Helvetica,sans-Serif" font-size="10.00">string</text>
</g>
<!-- Node1&#45;&gt;Node3 -->
<g id="edge6" class="edge"><title>Node1&#45;&gt;Node3</title>
<path fill="none" stroke="midnightblue" d="M75.0443,-110.488C57.3881,-103.761 35.6116,-92.2557 24.2266,-74 15.8239,-60.5266 15.5966,-42.1623 17.0128,-28.6482"/>
<polygon fill="midnightblue" stroke="midnightblue" points="20.4914,-29.0463 18.4455,-18.6509 13.5622,-28.0532 20.4914,-29.0463"/>
</g>
<!-- Node4 -->
<g id="node4" class="node"><title>Node4</title>
<polygon fill="white" stroke="#bfbfbf" points="88.4336,-0.5 88.4336,-18.5 150.02,-18.5 150.02,-0.5 88.4336,-0.5"/>
<text text-anchor="middle" x="119.227" y="-6.5" font-family="Helvetica,sans-Serif" font-size="10.00">cocos2d.h</text>
</g>
<!-- Node1&#45;&gt;Node4 -->
<g id="edge4" class="edge"><title>Node1&#45;&gt;Node4</title>
<path fill="none" stroke="midnightblue" d="M105.45,-110.456C108.809,-101.662 113.901,-87.0772 116.227,-74 118.89,-59.0252 119.555,-41.7709 119.602,-29.031"/>
<polygon fill="midnightblue" stroke="midnightblue" points="123.099,-28.7635 119.51,-18.7952 116.1,-28.8262 123.099,-28.7635"/>
</g>
<!-- Node5 -->
<g id="node5" class="node"><title>Node5</title>
<polygon fill="white" stroke="#bfbfbf" points="163.111,-55.5 163.111,-73.5 211.342,-73.5 211.342,-55.5 163.111,-55.5"/>
<text text-anchor="middle" x="187.227" y="-61.5" font-family="Helvetica,sans-Serif" font-size="10.00">cassert</text>
</g>
<!-- Node1&#45;&gt;Node5 -->
<g id="edge5" class="edge"><title>Node1&#45;&gt;Node5</title>
<path fill="none" stroke="midnightblue" d="M115.136,-110.45C128.491,-102.123 149.585,-88.9704 165.512,-79.0394"/>
<polygon fill="midnightblue" stroke="midnightblue" points="167.562,-81.8863 174.195,-73.6253 163.858,-75.9464 167.562,-81.8863"/>
</g>
<!-- Node2&#45;&gt;Node3 -->
<g id="edge2" class="edge"><title>Node2&#45;&gt;Node3</title>
<path fill="none" stroke="midnightblue" d="M62.4141,-55.2188C55.0326,-47.3944 43.7766,-35.4631 34.7474,-25.8921"/>
<polygon fill="midnightblue" stroke="midnightblue" points="37.2286,-23.4217 27.8205,-18.5496 32.1368,-28.2253 37.2286,-23.4217"/>
</g>
<!-- Node2&#45;&gt;Node4 -->
<g id="edge3" class="edge"><title>Node2&#45;&gt;Node4</title>
<path fill="none" stroke="midnightblue" d="M77.8828,-55.2188C85.0443,-47.4727 95.9272,-35.7013 104.73,-26.1799"/>
<polygon fill="midnightblue" stroke="midnightblue" points="107.566,-28.2683 111.785,-18.5496 102.426,-23.5163 107.566,-28.2683"/>
</g>
</g>
</svg>
