<?xml version="1.0" encoding="UTF-8" standalone="no"?>
<!DOCTYPE svg PUBLIC "-//W3C//DTD SVG 1.1//EN"
 "http://www.w3.org/Graphics/SVG/1.1/DTD/svg11.dtd">
<!-- Generated by graphviz version 2.38.0 (20140413.2041)
 -->
<!-- Title: Android/_GameKit.cpp Pages: 1 -->
<svg width="577pt" height="202pt"
 viewBox="0.00 0.00 576.97 202.00" xmlns="http://www.w3.org/2000/svg" xmlns:xlink="http://www.w3.org/1999/xlink">
<g id="graph0" class="graph" transform="scale(1 1) rotate(0) translate(4 198)">
<title>Android/_GameKit.cpp</title>
<polygon fill="white" stroke="none" points="-4,4 -4,-198 572.968,-198 572.968,4 -4,4"/>
<!-- Node1 -->
<g id="node1" class="node"><title>Node1</title>
<polygon fill="#bfbfbf" stroke="black" points="230.421,-175.5 230.421,-193.5 347.032,-193.5 347.032,-175.5 230.421,-175.5"/>
<text text-anchor="middle" x="288.727" y="-181.5" font-family="Helvetica,sans-Serif" font-size="10.00">Android/_GameKit.cpp</text>
</g>
<!-- Node2 -->
<g id="node2" class="node"><title>Node2</title>
<g id="a_node2"><a xlink:href="___game_kit_8hpp.html" target="_top" xlink:title="../_GameKit.hpp">
<polygon fill="white" stroke="black" points="26.5962,-115.5 26.5962,-133.5 114.857,-133.5 114.857,-115.5 26.5962,-115.5"/>
<text text-anchor="middle" x="70.7266" y="-121.5" font-family="Helvetica,sans-Serif" font-size="10.00">../_GameKit.hpp</text>
</a>
</g>
</g>
<!-- Node1&#45;&gt;Node2 -->
<g id="edge1" class="edge"><title>Node1&#45;&gt;Node2</title>
<path fill="none" stroke="midnightblue" d="M258.415,-175.435C219.965,-165.206 153.543,-147.534 110.902,-136.189"/>
<polygon fill="midnightblue" stroke="midnightblue" points="111.695,-132.778 101.132,-133.589 109.896,-139.543 111.695,-132.778"/>
</g>
<!-- Node6 -->
<g id="node6" class="node"><title>Node6</title>
<polygon fill="white" stroke="#bfbfbf" points="113.323,-0.5 113.323,-18.5 172.13,-18.5 172.13,-0.5 113.323,-0.5"/>
<text text-anchor="middle" x="142.727" y="-6.5" font-family="Helvetica,sans-Serif" font-size="10.00">functional</text>
</g>
<!-- Node1&#45;&gt;Node6 -->
<g id="edge10" class="edge"><title>Node1&#45;&gt;Node6</title>
<path fill="none" stroke="midnightblue" d="M230.178,-176.491C205.488,-170.51 178.611,-159.446 161.727,-139 135.592,-107.352 137.014,-55.7558 140.02,-28.5708"/>
<polygon fill="midnightblue" stroke="midnightblue" points="143.505,-28.9131 141.33,-18.544 136.564,-28.0065 143.505,-28.9131"/>
</g>
<!-- Node7 -->
<g id="node7" class="node"><title>Node7</title>
<g id="a_node7"><a xlink:href="_constants_8h.html" target="_top" xlink:title="Constants.h">
<polygon fill="white" stroke="black" points="171.044,-115.5 171.044,-133.5 240.409,-133.5 240.409,-115.5 171.044,-115.5"/>
<text text-anchor="middle" x="205.727" y="-121.5" font-family="Helvetica,sans-Serif" font-size="10.00">Constants.h</text>
</a>
</g>
</g>
<!-- Node1&#45;&gt;Node7 -->
<g id="edge6" class="edge"><title>Node1&#45;&gt;Node7</title>
<path fill="none" stroke="midnightblue" d="M277.186,-175.435C263.881,-166.138 241.78,-150.694 225.674,-139.439"/>
<polygon fill="midnightblue" stroke="midnightblue" points="227.639,-136.542 217.437,-133.683 223.629,-142.28 227.639,-136.542"/>
</g>
<!-- Node8 -->
<g id="node8" class="node"><title>Node8</title>
<polygon fill="white" stroke="#bfbfbf" points="257.934,-115.5 257.934,-133.5 319.52,-133.5 319.52,-115.5 257.934,-115.5"/>
<text text-anchor="middle" x="288.727" y="-121.5" font-family="Helvetica,sans-Serif" font-size="10.00">cocos2d.h</text>
</g>
<!-- Node1&#45;&gt;Node8 -->
<g id="edge7" class="edge"><title>Node1&#45;&gt;Node8</title>
<path fill="none" stroke="midnightblue" d="M288.727,-175.435C288.727,-167.389 288.727,-154.739 288.727,-144.185"/>
<polygon fill="midnightblue" stroke="midnightblue" points="292.227,-143.872 288.727,-133.872 285.227,-143.872 292.227,-143.872"/>
</g>
<!-- Node9 -->
<g id="node9" class="node"><title>Node9</title>
<polygon fill="white" stroke="#bfbfbf" points="337.205,-110.5 337.205,-138.5 438.249,-138.5 438.249,-110.5 337.205,-110.5"/>
<text text-anchor="start" x="345.205" y="-126.5" font-family="Helvetica,sans-Serif" font-size="10.00">platform/android/jni</text>
<text text-anchor="middle" x="387.727" y="-116.5" font-family="Helvetica,sans-Serif" font-size="10.00">/JniHelper.h</text>
</g>
<!-- Node1&#45;&gt;Node9 -->
<g id="edge8" class="edge"><title>Node1&#45;&gt;Node9</title>
<path fill="none" stroke="midnightblue" d="M302.492,-175.435C316.337,-167.324 338.167,-154.535 356.268,-143.93"/>
<polygon fill="midnightblue" stroke="midnightblue" points="358.472,-146.695 365.332,-138.62 354.934,-140.655 358.472,-146.695"/>
</g>
<!-- Node10 -->
<g id="node10" class="node"><title>Node10</title>
<polygon fill="white" stroke="#bfbfbf" points="456.554,-115.5 456.554,-133.5 490.899,-133.5 490.899,-115.5 456.554,-115.5"/>
<text text-anchor="middle" x="473.727" y="-121.5" font-family="Helvetica,sans-Serif" font-size="10.00">jni.h</text>
</g>
<!-- Node1&#45;&gt;Node10 -->
<g id="edge9" class="edge"><title>Node1&#45;&gt;Node10</title>
<path fill="none" stroke="midnightblue" d="M325.741,-175.43C358.425,-167.768 407.065,-155.048 447.727,-139 448.575,-138.665 449.433,-138.311 450.293,-137.942"/>
<polygon fill="midnightblue" stroke="midnightblue" points="451.871,-141.067 459.397,-133.61 448.863,-134.746 451.871,-141.067"/>
</g>
<!-- Node11 -->
<g id="node11" class="node"><title>Node11</title>
<g id="a_node11"><a xlink:href="_log_8hpp.html" target="_top" xlink:title="../Log.hpp">
<polygon fill="white" stroke="black" points="508.485,-115.5 508.485,-133.5 568.968,-133.5 568.968,-115.5 508.485,-115.5"/>
<text text-anchor="middle" x="538.727" y="-121.5" font-family="Helvetica,sans-Serif" font-size="10.00">../Log.hpp</text>
</a>
</g>
</g>
<!-- Node1&#45;&gt;Node11 -->
<g id="edge11" class="edge"><title>Node1&#45;&gt;Node11</title>
<path fill="none" stroke="midnightblue" d="M335.229,-175.428C378.253,-167.551 443.809,-154.509 499.727,-139 502.204,-138.313 504.752,-137.553 507.304,-136.755"/>
<polygon fill="midnightblue" stroke="midnightblue" points="508.611,-140.009 517.014,-133.556 506.421,-133.361 508.611,-140.009"/>
</g>
<!-- Node3 -->
<g id="node3" class="node"><title>Node3</title>
<g id="a_node3"><a xlink:href="_game_kit_8hpp.html" target="_top" xlink:title="GameKit.hpp">
<polygon fill="white" stroke="black" points="35.5444,-55.5 35.5444,-73.5 109.909,-73.5 109.909,-55.5 35.5444,-55.5"/>
<text text-anchor="middle" x="72.7266" y="-61.5" font-family="Helvetica,sans-Serif" font-size="10.00">GameKit.hpp</text>
</a>
</g>
</g>
<!-- Node2&#45;&gt;Node3 -->
<g id="edge2" class="edge"><title>Node2&#45;&gt;Node3</title>
<path fill="none" stroke="midnightblue" d="M71.0047,-115.435C71.2821,-107.389 71.7183,-94.7388 72.0823,-84.1846"/>
<polygon fill="midnightblue" stroke="midnightblue" points="75.5911,-83.9865 72.4379,-73.8718 68.5952,-83.7452 75.5911,-83.9865"/>
</g>
<!-- Node4 -->
<g id="node4" class="node"><title>Node4</title>
<polygon fill="white" stroke="#bfbfbf" points="0,-0.5 0,-18.5 35.4531,-18.5 35.4531,-0.5 0,-0.5"/>
<text text-anchor="middle" x="17.7266" y="-6.5" font-family="Helvetica,sans-Serif" font-size="10.00">map</text>
</g>
<!-- Node3&#45;&gt;Node4 -->
<g id="edge3" class="edge"><title>Node3&#45;&gt;Node4</title>
<path fill="none" stroke="midnightblue" d="M64.1328,-55.2188C55.932,-47.3162 43.3836,-35.2241 33.4023,-25.6057"/>
<polygon fill="midnightblue" stroke="midnightblue" points="35.7093,-22.9682 26.0799,-18.5496 30.852,-28.0088 35.7093,-22.9682"/>
</g>
<!-- Node5 -->
<g id="node5" class="node"><title>Node5</title>
<polygon fill="white" stroke="#bfbfbf" points="53.5,-0.5 53.5,-18.5 93.9531,-18.5 93.9531,-0.5 53.5,-0.5"/>
<text text-anchor="middle" x="73.7266" y="-6.5" font-family="Helvetica,sans-Serif" font-size="10.00">string</text>
</g>
<!-- Node3&#45;&gt;Node5 -->
<g id="edge4" class="edge"><title>Node3&#45;&gt;Node5</title>
<path fill="none" stroke="midnightblue" d="M72.8828,-55.2188C73.0157,-48.1769 73.2113,-37.8083 73.3808,-28.8277"/>
<polygon fill="midnightblue" stroke="midnightblue" points="76.8853,-28.6138 73.5747,-18.5496 69.8866,-28.4817 76.8853,-28.6138"/>
</g>
<!-- Node3&#45;&gt;Node6 -->
<g id="edge5" class="edge"><title>Node3&#45;&gt;Node6</title>
<path fill="none" stroke="midnightblue" d="M83.3581,-55.4504C94.048,-47.3566 110.759,-34.7042 123.731,-24.8822"/>
<polygon fill="midnightblue" stroke="midnightblue" points="126.135,-27.4521 131.995,-18.6253 121.91,-21.8713 126.135,-27.4521"/>
</g>
</g>
</svg>
