<?xml version="1.0" encoding="UTF-8" standalone="no"?>
<!DOCTYPE svg PUBLIC "-//W3C//DTD SVG 1.1//EN"
 "http://www.w3.org/Graphics/SVG/1.1/DTD/svg11.dtd">
<!-- Generated by graphviz version 2.38.0 (20140413.2041)
 -->
<!-- Title: _GameKit.hpp Pages: 1 -->
<svg width="179pt" height="137pt"
 viewBox="0.00 0.00 179.13 137.00" xmlns="http://www.w3.org/2000/svg" xmlns:xlink="http://www.w3.org/1999/xlink">
<g id="graph0" class="graph" transform="scale(1 1) rotate(0) translate(4 133)">
<title>_GameKit.hpp</title>
<polygon fill="white" stroke="none" points="-4,4 -4,-133 175.13,-133 175.13,4 -4,4"/>
<!-- Node1 -->
<g id="node1" class="node"><title>Node1</title>
<polygon fill="#bfbfbf" stroke="black" points="33.7637,-110.5 33.7637,-128.5 113.689,-128.5 113.689,-110.5 33.7637,-110.5"/>
<text text-anchor="middle" x="73.7266" y="-116.5" font-family="Helvetica,sans-Serif" font-size="10.00">_GameKit.hpp</text>
</g>
<!-- Node2 -->
<g id="node2" class="node"><title>Node2</title>
<g id="a_node2"><a xlink:href="_game_kit_8hpp.html" target="_top" xlink:title="GameKit.hpp">
<polygon fill="white" stroke="black" points="36.5444,-55.5 36.5444,-73.5 110.909,-73.5 110.909,-55.5 36.5444,-55.5"/>
<text text-anchor="middle" x="73.7266" y="-61.5" font-family="Helvetica,sans-Serif" font-size="10.00">GameKit.hpp</text>
</a>
</g>
</g>
<!-- Node1&#45;&gt;Node2 -->
<g id="edge1" class="edge"><title>Node1&#45;&gt;Node2</title>
<path fill="none" stroke="midnightblue" d="M73.7266,-110.219C73.7266,-103.177 73.7266,-92.8083 73.7266,-83.8277"/>
<polygon fill="midnightblue" stroke="midnightblue" points="77.2267,-83.5495 73.7266,-73.5496 70.2267,-83.5496 77.2267,-83.5495"/>
</g>
<!-- Node3 -->
<g id="node3" class="node"><title>Node3</title>
<polygon fill="white" stroke="#bfbfbf" points="0,-0.5 0,-18.5 35.4531,-18.5 35.4531,-0.5 0,-0.5"/>
<text text-anchor="middle" x="17.7266" y="-6.5" font-family="Helvetica,sans-Serif" font-size="10.00">map</text>
</g>
<!-- Node2&#45;&gt;Node3 -->
<g id="edge2" class="edge"><title>Node2&#45;&gt;Node3</title>
<path fill="none" stroke="midnightblue" d="M64.9766,-55.2188C56.6267,-47.3162 43.8501,-35.2241 33.6873,-25.6057"/>
<polygon fill="midnightblue" stroke="midnightblue" points="35.9006,-22.8814 26.2318,-18.5496 31.0889,-27.9655 35.9006,-22.8814"/>
</g>
<!-- Node4 -->
<g id="node4" class="node"><title>Node4</title>
<polygon fill="white" stroke="#bfbfbf" points="53.5,-0.5 53.5,-18.5 93.9531,-18.5 93.9531,-0.5 53.5,-0.5"/>
<text text-anchor="middle" x="73.7266" y="-6.5" font-family="Helvetica,sans-Serif" font-size="10.00">string</text>
</g>
<!-- Node2&#45;&gt;Node4 -->
<g id="edge3" class="edge"><title>Node2&#45;&gt;Node4</title>
<path fill="none" stroke="midnightblue" d="M73.7266,-55.2188C73.7266,-48.1769 73.7266,-37.8083 73.7266,-28.8277"/>
<polygon fill="midnightblue" stroke="midnightblue" points="77.2267,-28.5495 73.7266,-18.5496 70.2267,-28.5496 77.2267,-28.5495"/>
</g>
<!-- Node5 -->
<g id="node5" class="node"><title>Node5</title>
<polygon fill="white" stroke="#bfbfbf" points="112.323,-0.5 112.323,-18.5 171.13,-18.5 171.13,-0.5 112.323,-0.5"/>
<text text-anchor="middle" x="141.727" y="-6.5" font-family="Helvetica,sans-Serif" font-size="10.00">functional</text>
</g>
<!-- Node2&#45;&gt;Node5 -->
<g id="edge4" class="edge"><title>Node2&#45;&gt;Node5</title>
<path fill="none" stroke="midnightblue" d="M84.0543,-55.4504C94.4388,-47.3566 110.672,-34.7042 123.274,-24.8822"/>
<polygon fill="midnightblue" stroke="midnightblue" points="125.566,-27.5333 131.302,-18.6253 121.263,-22.0122 125.566,-27.5333"/>
</g>
</g>
</svg>
