<?xml version="1.0" encoding="UTF-8" standalone="no"?>
<!DOCTYPE svg PUBLIC "-//W3C//DTD SVG 1.1//EN"
 "http://www.w3.org/Graphics/SVG/1.1/DTD/svg11.dtd">
<!-- Generated by graphviz version 2.38.0 (20140413.2041)
 -->
<!-- Title: Android/_IAPKit.cpp Pages: 1 -->
<svg width="776pt" height="202pt"
 viewBox="0.00 0.00 775.58 202.00" xmlns="http://www.w3.org/2000/svg" xmlns:xlink="http://www.w3.org/1999/xlink">
<g id="graph0" class="graph" transform="scale(1 1) rotate(0) translate(4 198)">
<title>Android/_IAPKit.cpp</title>
<polygon fill="white" stroke="none" points="-4,4 -4,-198 771.576,-198 771.576,4 -4,4"/>
<!-- Node1 -->
<g id="node1" class="node"><title>Node1</title>
<polygon fill="#bfbfbf" stroke="black" points="357.655,-175.5 357.655,-193.5 463.152,-193.5 463.152,-175.5 357.655,-175.5"/>
<text text-anchor="middle" x="410.404" y="-181.5" font-family="Helvetica,sans-Serif" font-size="10.00">Android/_IAPKit.cpp</text>
</g>
<!-- Node2 -->
<g id="node2" class="node"><title>Node2</title>
<g id="a_node2"><a xlink:href="___i_a_p_kit_8hpp.html" target="_top" xlink:title="../_IAPKit.hpp">
<polygon fill="white" stroke="black" points="73.8301,-115.5 73.8301,-133.5 150.978,-133.5 150.978,-115.5 73.8301,-115.5"/>
<text text-anchor="middle" x="112.404" y="-121.5" font-family="Helvetica,sans-Serif" font-size="10.00">../_IAPKit.hpp</text>
</a>
</g>
</g>
<!-- Node1&#45;&gt;Node2 -->
<g id="edge1" class="edge"><title>Node1&#45;&gt;Node2</title>
<path fill="none" stroke="midnightblue" d="M369.031,-175.477C323.166,-166.579 246.995,-151.789 181.404,-139 174.803,-137.713 167.848,-136.355 160.996,-135.015"/>
<polygon fill="midnightblue" stroke="midnightblue" points="161.571,-131.562 151.085,-133.077 160.228,-138.431 161.571,-131.562"/>
</g>
<!-- Node4 -->
<g id="node4" class="node"><title>Node4</title>
<polygon fill="white" stroke="#bfbfbf" points="0,-0.5 0,-18.5 58.8076,-18.5 58.8076,-0.5 0,-0.5"/>
<text text-anchor="middle" x="29.4038" y="-6.5" font-family="Helvetica,sans-Serif" font-size="10.00">functional</text>
</g>
<!-- Node1&#45;&gt;Node4 -->
<g id="edge11" class="edge"><title>Node1&#45;&gt;Node4</title>
<path fill="none" stroke="midnightblue" d="M357.407,-183.353C271.763,-182.046 108.098,-174.782 64.4038,-139 31.5437,-112.09 27.8203,-57.6375 28.3386,-29.0235"/>
<polygon fill="midnightblue" stroke="midnightblue" points="31.8445,-28.9339 28.7292,-18.8075 24.8496,-28.6664 31.8445,-28.9339"/>
</g>
<!-- Node6 -->
<g id="node6" class="node"><title>Node6</title>
<polygon fill="white" stroke="#bfbfbf" points="135.788,-0.5 135.788,-18.5 179.02,-18.5 179.02,-0.5 135.788,-0.5"/>
<text text-anchor="middle" x="157.404" y="-6.5" font-family="Helvetica,sans-Serif" font-size="10.00">vector</text>
</g>
<!-- Node1&#45;&gt;Node6 -->
<g id="edge12" class="edge"><title>Node1&#45;&gt;Node6</title>
<path fill="none" stroke="midnightblue" d="M357.484,-176.901C307.136,-169.682 235.964,-156.732 214.404,-139 179.779,-110.523 165.496,-56.7524 160.19,-28.6485"/>
<polygon fill="midnightblue" stroke="midnightblue" points="163.612,-27.8951 158.479,-18.6272 156.712,-29.0738 163.612,-27.8951"/>
</g>
<!-- Node7 -->
<g id="node7" class="node"><title>Node7</title>
<polygon fill="white" stroke="#bfbfbf" points="223.426,-115.5 223.426,-133.5 373.381,-133.5 373.381,-115.5 223.426,-115.5"/>
<text text-anchor="middle" x="298.404" y="-121.5" font-family="Helvetica,sans-Serif" font-size="10.00">../../Constants/IAPConstants.h</text>
</g>
<!-- Node1&#45;&gt;Node7 -->
<g id="edge8" class="edge"><title>Node1&#45;&gt;Node7</title>
<path fill="none" stroke="midnightblue" d="M394.831,-175.435C376.296,-165.837 345.109,-149.687 323.234,-138.359"/>
<polygon fill="midnightblue" stroke="midnightblue" points="324.695,-135.174 314.206,-133.683 321.476,-141.39 324.695,-135.174"/>
</g>
<!-- Node8 -->
<g id="node8" class="node"><title>Node8</title>
<polygon fill="white" stroke="#bfbfbf" points="391.017,-115.5 391.017,-133.5 429.791,-133.5 429.791,-115.5 391.017,-115.5"/>
<text text-anchor="middle" x="410.404" y="-121.5" font-family="Helvetica,sans-Serif" font-size="10.00">limits</text>
</g>
<!-- Node1&#45;&gt;Node8 -->
<g id="edge9" class="edge"><title>Node1&#45;&gt;Node8</title>
<path fill="none" stroke="midnightblue" d="M410.404,-175.435C410.404,-167.389 410.404,-154.739 410.404,-144.185"/>
<polygon fill="midnightblue" stroke="midnightblue" points="413.904,-143.872 410.404,-133.872 406.904,-143.872 413.904,-143.872"/>
</g>
<!-- Node9 -->
<g id="node9" class="node"><title>Node9</title>
<g id="a_node9"><a xlink:href="_constants_8h.html" target="_top" xlink:title="Constants.h">
<polygon fill="white" stroke="black" points="447.722,-115.5 447.722,-133.5 517.086,-133.5 517.086,-115.5 447.722,-115.5"/>
<text text-anchor="middle" x="482.404" y="-121.5" font-family="Helvetica,sans-Serif" font-size="10.00">Constants.h</text>
</a>
</g>
</g>
<!-- Node1&#45;&gt;Node9 -->
<g id="edge10" class="edge"><title>Node1&#45;&gt;Node9</title>
<path fill="none" stroke="midnightblue" d="M420.415,-175.435C431.679,-166.362 450.21,-151.434 464.082,-140.259"/>
<polygon fill="midnightblue" stroke="midnightblue" points="466.419,-142.871 472.011,-133.872 462.028,-137.419 466.419,-142.871"/>
</g>
<!-- Node10 -->
<g id="node10" class="node"><title>Node10</title>
<polygon fill="white" stroke="#bfbfbf" points="534.611,-115.5 534.611,-133.5 596.197,-133.5 596.197,-115.5 534.611,-115.5"/>
<text text-anchor="middle" x="565.404" y="-121.5" font-family="Helvetica,sans-Serif" font-size="10.00">cocos2d.h</text>
</g>
<!-- Node1&#45;&gt;Node10 -->
<g id="edge13" class="edge"><title>Node1&#45;&gt;Node10</title>
<path fill="none" stroke="midnightblue" d="M431.956,-175.435C458.412,-165.536 503.494,-148.666 533.852,-137.306"/>
<polygon fill="midnightblue" stroke="midnightblue" points="535.396,-140.466 543.535,-133.683 532.943,-133.91 535.396,-140.466"/>
</g>
<!-- Node11 -->
<g id="node11" class="node"><title>Node11</title>
<polygon fill="white" stroke="#bfbfbf" points="613.882,-110.5 613.882,-138.5 714.926,-138.5 714.926,-110.5 613.882,-110.5"/>
<text text-anchor="start" x="621.882" y="-126.5" font-family="Helvetica,sans-Serif" font-size="10.00">platform/android/jni</text>
<text text-anchor="middle" x="664.404" y="-116.5" font-family="Helvetica,sans-Serif" font-size="10.00">/JniHelper.h</text>
</g>
<!-- Node1&#45;&gt;Node11 -->
<g id="edge14" class="edge"><title>Node1&#45;&gt;Node11</title>
<path fill="none" stroke="midnightblue" d="M445.632,-175.467C482.704,-167.013 543.027,-153.251 604.073,-139.303"/>
<polygon fill="midnightblue" stroke="midnightblue" points="604.905,-142.704 613.874,-137.064 603.345,-135.88 604.905,-142.704"/>
</g>
<!-- Node12 -->
<g id="node12" class="node"><title>Node12</title>
<polygon fill="white" stroke="#bfbfbf" points="733.231,-115.5 733.231,-133.5 767.576,-133.5 767.576,-115.5 733.231,-115.5"/>
<text text-anchor="middle" x="750.404" y="-121.5" font-family="Helvetica,sans-Serif" font-size="10.00">jni.h</text>
</g>
<!-- Node1&#45;&gt;Node12 -->
<g id="edge15" class="edge"><title>Node1&#45;&gt;Node12</title>
<path fill="none" stroke="midnightblue" d="M463.283,-181.438C526.686,-177.738 635.524,-167.456 724.404,-139 725.469,-138.659 726.544,-138.277 727.618,-137.863"/>
<polygon fill="midnightblue" stroke="midnightblue" points="729.388,-140.901 737.016,-133.548 726.467,-134.54 729.388,-140.901"/>
</g>
<!-- Node3 -->
<g id="node3" class="node"><title>Node3</title>
<g id="a_node3"><a xlink:href="_i_a_p_kit_8hpp.html" target="_top" xlink:title="IAPKit.hpp">
<polygon fill="white" stroke="black" points="65.7783,-55.5 65.7783,-73.5 129.029,-73.5 129.029,-55.5 65.7783,-55.5"/>
<text text-anchor="middle" x="97.4038" y="-61.5" font-family="Helvetica,sans-Serif" font-size="10.00">IAPKit.hpp</text>
</a>
</g>
</g>
<!-- Node2&#45;&gt;Node3 -->
<g id="edge2" class="edge"><title>Node2&#45;&gt;Node3</title>
<path fill="none" stroke="midnightblue" d="M110.318,-115.435C108.215,-107.304 104.896,-94.4692 102.149,-83.8485"/>
<polygon fill="midnightblue" stroke="midnightblue" points="105.461,-82.6769 99.5689,-73.8718 98.6843,-84.4296 105.461,-82.6769"/>
</g>
<!-- Node2&#45;&gt;Node4 -->
<g id="edge6" class="edge"><title>Node2&#45;&gt;Node4</title>
<path fill="none" stroke="midnightblue" d="M100.269,-115.277C87.855,-106.346 68.6943,-91.0536 56.4038,-74 46.4448,-60.1815 39.2194,-42.1239 34.7632,-28.7991"/>
<polygon fill="midnightblue" stroke="midnightblue" points="37.9978,-27.4156 31.6722,-18.9164 31.317,-29.5052 37.9978,-27.4156"/>
</g>
<!-- Node2&#45;&gt;Node6 -->
<g id="edge7" class="edge"><title>Node2&#45;&gt;Node6</title>
<path fill="none" stroke="midnightblue" d="M117.326,-115.327C122.973,-105.7 132.246,-89.1007 138.404,-74 144.453,-59.1657 149.542,-41.6862 152.926,-28.8256"/>
<polygon fill="midnightblue" stroke="midnightblue" points="156.379,-29.4489 155.442,-18.8955 149.593,-27.7293 156.379,-29.4489"/>
</g>
<!-- Node3&#45;&gt;Node4 -->
<g id="edge3" class="edge"><title>Node3&#45;&gt;Node4</title>
<path fill="none" stroke="midnightblue" d="M87.0761,-55.4504C76.6916,-47.3566 60.4582,-34.7042 47.8564,-24.8822"/>
<polygon fill="midnightblue" stroke="midnightblue" points="49.8676,-22.0122 39.8287,-18.6253 45.5644,-27.5333 49.8676,-22.0122"/>
</g>
<!-- Node5 -->
<g id="node5" class="node"><title>Node5</title>
<polygon fill="white" stroke="#bfbfbf" points="77.1772,-0.5 77.1772,-18.5 117.63,-18.5 117.63,-0.5 77.1772,-0.5"/>
<text text-anchor="middle" x="97.4038" y="-6.5" font-family="Helvetica,sans-Serif" font-size="10.00">string</text>
</g>
<!-- Node3&#45;&gt;Node5 -->
<g id="edge4" class="edge"><title>Node3&#45;&gt;Node5</title>
<path fill="none" stroke="midnightblue" d="M97.4038,-55.2188C97.4038,-48.1769 97.4038,-37.8083 97.4038,-28.8277"/>
<polygon fill="midnightblue" stroke="midnightblue" points="100.904,-28.5495 97.4038,-18.5496 93.9039,-28.5496 100.904,-28.5495"/>
</g>
<!-- Node3&#45;&gt;Node6 -->
<g id="edge5" class="edge"><title>Node3&#45;&gt;Node6</title>
<path fill="none" stroke="midnightblue" d="M106.517,-55.4504C115.503,-47.5123 129.454,-35.1891 140.477,-25.4519"/>
<polygon fill="midnightblue" stroke="midnightblue" points="143.028,-27.8689 148.205,-18.6253 138.393,-22.6225 143.028,-27.8689"/>
</g>
</g>
</svg>
