<?xml version="1.0" encoding="UTF-8" standalone="no"?>
<!DOCTYPE svg PUBLIC "-//W3C//DTD SVG 1.1//EN"
 "http://www.w3.org/Graphics/SVG/1.1/DTD/svg11.dtd">
<!-- Generated by graphviz version 2.38.0 (20140413.2041)
 -->
<!-- Title: _IAPKit.hpp Pages: 1 -->
<svg width="347pt" height="82pt"
 viewBox="0.00 0.00 347.09 82.00" xmlns="http://www.w3.org/2000/svg" xmlns:xlink="http://www.w3.org/1999/xlink">
<g id="graph0" class="graph" transform="scale(1 1) rotate(0) translate(4 78)">
<title>_IAPKit.hpp</title>
<polygon fill="white" stroke="none" points="-4,4 -4,-78 343.093,-78 343.093,4 -4,4"/>
<!-- Node1 -->
<g id="node1" class="node"><title>Node1</title>
<polygon fill="#bfbfbf" stroke="black" points="156.342,-55.5 156.342,-73.5 225.155,-73.5 225.155,-55.5 156.342,-55.5"/>
<text text-anchor="middle" x="190.749" y="-61.5" font-family="Helvetica,sans-Serif" font-size="10.00">_IAPKit.hpp</text>
</g>
<!-- Node2 -->
<g id="node2" class="node"><title>Node2</title>
<g id="a_node2"><a xlink:href="___i_a_p_kit_8cpp.html" target="_top" xlink:title="Android/_IAPKit.cpp">
<polygon fill="white" stroke="black" points="0,-0.5 0,-18.5 105.497,-18.5 105.497,-0.5 0,-0.5"/>
<text text-anchor="middle" x="52.7485" y="-6.5" font-family="Helvetica,sans-Serif" font-size="10.00">Android/_IAPKit.cpp</text>
</a>
</g>
</g>
<!-- Node1&#45;&gt;Node2 -->
<g id="edge1" class="edge"><title>Node1&#45;&gt;Node2</title>
<path fill="none" stroke="midnightblue" d="M160.334,-51.8192C134.131,-41.7556 96.985,-27.4894 73.905,-18.6253"/>
<polygon fill="midnightblue" stroke="midnightblue" points="159.199,-55.1324 169.789,-55.4504 161.709,-48.5978 159.199,-55.1324"/>
</g>
<!-- Node3 -->
<g id="node3" class="node"><title>Node3</title>
<g id="a_node3"><a xlink:href="_i_a_p_kit_8mm.html" target="_top" xlink:title="Apple/Common/IAPKit.mm">
<polygon fill="white" stroke="black" points="123.286,-0.5 123.286,-18.5 258.211,-18.5 258.211,-0.5 123.286,-0.5"/>
<text text-anchor="middle" x="190.749" y="-6.5" font-family="Helvetica,sans-Serif" font-size="10.00">Apple/Common/IAPKit.mm</text>
</a>
</g>
</g>
<!-- Node1&#45;&gt;Node3 -->
<g id="edge2" class="edge"><title>Node1&#45;&gt;Node3</title>
<path fill="none" stroke="midnightblue" d="M190.749,-45.1746C190.749,-36.0945 190.749,-25.5949 190.749,-18.5496"/>
<polygon fill="midnightblue" stroke="midnightblue" points="187.249,-45.2187 190.749,-55.2188 194.249,-45.2188 187.249,-45.2187"/>
</g>
<!-- Node4 -->
<g id="node4" class="node"><title>Node4</title>
<g id="a_node4"><a xlink:href="_i_a_p_kit_8cpp.html" target="_top" xlink:title="IAPKit.cpp">
<polygon fill="white" stroke="black" points="276.404,-0.5 276.404,-18.5 339.093,-18.5 339.093,-0.5 276.404,-0.5"/>
<text text-anchor="middle" x="307.749" y="-6.5" font-family="Helvetica,sans-Serif" font-size="10.00">IAPKit.cpp</text>
</a>
</g>
</g>
<!-- Node1&#45;&gt;Node4 -->
<g id="edge3" class="edge"><title>Node1&#45;&gt;Node4</title>
<path fill="none" stroke="midnightblue" d="M217.717,-51.2834C239.857,-41.2545 270.589,-27.3332 289.812,-18.6253"/>
<polygon fill="midnightblue" stroke="midnightblue" points="216.183,-48.1359 208.518,-55.4504 219.072,-54.5122 216.183,-48.1359"/>
</g>
</g>
</svg>
