<?xml version="1.0" encoding="UTF-8" standalone="no"?>
<!DOCTYPE svg PUBLIC "-//W3C//DTD SVG 1.1//EN"
 "http://www.w3.org/Graphics/SVG/1.1/DTD/svg11.dtd">
<!-- Generated by graphviz version 2.38.0 (20140413.2041)
 -->
<!-- Title: Java_org_cocos2dx_cpp_AppActivity_callCppPurchasesCallback Pages: 1 -->
<svg width="478pt" height="326pt"
 viewBox="0.00 0.00 477.62 326.00" xmlns="http://www.w3.org/2000/svg" xmlns:xlink="http://www.w3.org/1999/xlink">
<g id="graph0" class="graph" transform="scale(1 1) rotate(0) translate(4 322)">
<title>Java_org_cocos2dx_cpp_AppActivity_callCppPurchasesCallback</title>
<polygon fill="white" stroke="none" points="-4,4 -4,-322 473.619,-322 473.619,4 -4,4"/>
<!-- Node1 -->
<g id="node1" class="node"><title>Node1</title>
<polygon fill="#bfbfbf" stroke="black" points="0,-147.5 0,-185.5 157.182,-185.5 157.182,-147.5 0,-147.5"/>
<text text-anchor="start" x="8" y="-173.5" font-family="Helvetica,sans-Serif" font-size="10.00">Java_org_cocos2dx_cpp</text>
<text text-anchor="start" x="8" y="-163.5" font-family="Helvetica,sans-Serif" font-size="10.00">_AppActivity_callCppPurchases</text>
<text text-anchor="middle" x="78.5908" y="-153.5" font-family="Helvetica,sans-Serif" font-size="10.00">Callback</text>
</g>
<!-- Node2 -->
<g id="node2" class="node"><title>Node2</title>
<g id="a_node2"><a xlink:href="namespace_m_k_1_1_i_a_p_kit.html#a773f26204d8a695ed1c9c2221db6823c" target="_top" xlink:title="Returns title of buy button for product with given identifier. ">
<polygon fill="white" stroke="black" points="200.586,-289.5 200.586,-317.5 339.609,-317.5 339.609,-289.5 200.586,-289.5"/>
<text text-anchor="start" x="208.586" y="-305.5" font-family="Helvetica,sans-Serif" font-size="10.00">MK::IAPKit::_buyButtonTitle</text>
<text text-anchor="middle" x="270.098" y="-295.5" font-family="Helvetica,sans-Serif" font-size="10.00">ForProduct</text>
</a>
</g>
</g>
<!-- Node1&#45;&gt;Node2 -->
<g id="edge1" class="edge"><title>Node1&#45;&gt;Node2</title>
<path fill="none" stroke="midnightblue" d="M93.585,-185.525C113.143,-210.798 151.023,-255.189 193.182,-280.5 196.015,-282.201 198.985,-283.786 202.04,-285.26"/>
<polygon fill="midnightblue" stroke="midnightblue" points="200.847,-288.559 211.412,-289.361 203.653,-282.146 200.847,-288.559"/>
</g>
<!-- Node3 -->
<g id="node3" class="node"><title>Node3</title>
<g id="a_node3"><a xlink:href="namespace_m_k_1_1_i_a_p_kit.html#ad4cf30908b63ff36cf48fb6b44c45007" target="_top" xlink:title="Tries to buy given item, calling callback on finished. ">
<polygon fill="white" stroke="black" points="202.627,-252.5 202.627,-270.5 337.568,-270.5 337.568,-252.5 202.627,-252.5"/>
<text text-anchor="middle" x="270.098" y="-258.5" font-family="Helvetica,sans-Serif" font-size="10.00">MK::IAPKit::_buyIfPossible</text>
</a>
</g>
</g>
<!-- Node1&#45;&gt;Node3 -->
<g id="edge2" class="edge"><title>Node1&#45;&gt;Node3</title>
<path fill="none" stroke="midnightblue" d="M102.473,-185.721C124.421,-203.22 159.159,-228.54 193.182,-243.5 198.296,-245.749 203.734,-247.741 209.257,-249.499"/>
<polygon fill="midnightblue" stroke="midnightblue" points="208.661,-252.971 219.241,-252.419 210.626,-246.253 208.661,-252.971"/>
</g>
<!-- Node5 -->
<g id="node5" class="node"><title>Node5</title>
<g id="a_node5"><a xlink:href="namespace_m_k_1_1_i_a_p_kit.html#a41b7f768a3e8c9154647f7fe6e07028f" target="_top" xlink:title="Inits In&#45;App Purchase system, calling given callback on end. ">
<polygon fill="white" stroke="black" points="225.975,-215.5 225.975,-233.5 314.221,-233.5 314.221,-215.5 225.975,-215.5"/>
<text text-anchor="middle" x="270.098" y="-221.5" font-family="Helvetica,sans-Serif" font-size="10.00">MK::IAPKit::_init</text>
</a>
</g>
</g>
<!-- Node1&#45;&gt;Node5 -->
<g id="edge4" class="edge"><title>Node1&#45;&gt;Node5</title>
<path fill="none" stroke="midnightblue" d="M130.108,-185.578C149.66,-192.622 172.319,-200.372 193.182,-206.5 201.035,-208.807 209.411,-211.028 217.625,-213.074"/>
<polygon fill="midnightblue" stroke="midnightblue" points="216.975,-216.518 227.519,-215.479 218.628,-209.716 216.975,-216.518"/>
</g>
<!-- Node6 -->
<g id="node6" class="node"><title>Node6</title>
<g id="a_node6"><a xlink:href="namespace_m_k_1_1_i_a_p_kit.html#a0e3cf8ba54a5272086984dd30d13a4ac" target="_top" xlink:title="Restores any previously purchased item, calling given callback on end. ">
<polygon fill="white" stroke="black" points="193.182,-178.5 193.182,-196.5 347.014,-196.5 347.014,-178.5 193.182,-178.5"/>
<text text-anchor="middle" x="270.098" y="-184.5" font-family="Helvetica,sans-Serif" font-size="10.00">MK::IAPKit::_restorePurchases</text>
</a>
</g>
</g>
<!-- Node1&#45;&gt;Node6 -->
<g id="edge5" class="edge"><title>Node1&#45;&gt;Node6</title>
<path fill="none" stroke="midnightblue" d="M157.217,-175.102C165.74,-176.046 174.453,-177.012 183.07,-177.967"/>
<polygon fill="midnightblue" stroke="midnightblue" points="182.798,-181.458 193.123,-179.081 183.569,-174.501 182.798,-181.458"/>
</g>
<!-- Node7 -->
<g id="node7" class="node"><title>Node7</title>
<g id="a_node7"><a xlink:href="namespace_m_k_1_1_i_a_p_kit.html#ab11c5800bf0812d1afe75bb65caf2817" target="_top" xlink:title="Returns string identifier (global ID) of given in&#45;app purchase. ">
<polygon fill="white" stroke="black" points="204.017,-131.5 204.017,-159.5 336.179,-159.5 336.179,-131.5 204.017,-131.5"/>
<text text-anchor="start" x="212.017" y="-147.5" font-family="Helvetica,sans-Serif" font-size="10.00">MK::IAPKit::productGlobal</text>
<text text-anchor="middle" x="270.098" y="-137.5" font-family="Helvetica,sans-Serif" font-size="10.00">IDForProductLocalID</text>
</a>
</g>
</g>
<!-- Node1&#45;&gt;Node7 -->
<g id="edge6" class="edge"><title>Node1&#45;&gt;Node7</title>
<path fill="none" stroke="midnightblue" d="M157.217,-157.898C169.356,-156.553 181.882,-155.165 193.963,-153.826"/>
<polygon fill="midnightblue" stroke="midnightblue" points="194.434,-157.295 203.988,-152.715 193.663,-150.338 194.434,-157.295"/>
</g>
<!-- Node8 -->
<g id="node8" class="node"><title>Node8</title>
<g id="a_node8"><a xlink:href="namespace_m_k_1_1_i_a_p_kit.html#a9d7e0aebe4a7c86838b52deb38aa3d9d" target="_top" xlink:title="Returns enum class item (local ID) of in&#45;app purchase with given string identifier (global ID)...">
<polygon fill="white" stroke="black" points="206.517,-84.5 206.517,-112.5 333.679,-112.5 333.679,-84.5 206.517,-84.5"/>
<text text-anchor="start" x="214.517" y="-100.5" font-family="Helvetica,sans-Serif" font-size="10.00">MK::IAPKit::productLocal</text>
<text text-anchor="middle" x="270.098" y="-90.5" font-family="Helvetica,sans-Serif" font-size="10.00">IDForProductGlobalID</text>
</a>
</g>
</g>
<!-- Node1&#45;&gt;Node8 -->
<g id="edge7" class="edge"><title>Node1&#45;&gt;Node8</title>
<path fill="none" stroke="midnightblue" d="M126.871,-147.415C147.175,-139.42 171.234,-130.211 193.182,-122.5 199.666,-120.222 206.494,-117.923 213.29,-115.698"/>
<polygon fill="midnightblue" stroke="midnightblue" points="214.739,-118.908 223.177,-112.502 212.586,-112.248 214.739,-118.908"/>
</g>
<!-- Node9 -->
<g id="node9" class="node"><title>Node9</title>
<g id="a_node9"><a xlink:href="namespace_m_k_1_1_i_a_p_kit.html#a99962d8cc37e6db5b77b955653c661ce" target="_top" xlink:title="Returns whether given product has been found on store and can be bought or not. ">
<polygon fill="white" stroke="black" points="196.514,-37.5 196.514,-65.5 343.681,-65.5 343.681,-37.5 196.514,-37.5"/>
<text text-anchor="start" x="204.514" y="-53.5" font-family="Helvetica,sans-Serif" font-size="10.00">MK::IAPKit::productMetadata</text>
<text text-anchor="middle" x="270.098" y="-43.5" font-family="Helvetica,sans-Serif" font-size="10.00">HasBeenRetrievedFromStore</text>
</a>
</g>
</g>
<!-- Node1&#45;&gt;Node9 -->
<g id="edge8" class="edge"><title>Node1&#45;&gt;Node9</title>
<path fill="none" stroke="midnightblue" d="M98.8967,-147.257C120.295,-126.885 156.633,-95.0326 193.182,-75.5 197.38,-73.2563 201.822,-71.182 206.368,-69.272"/>
<polygon fill="midnightblue" stroke="midnightblue" points="207.76,-72.4857 215.796,-65.5808 205.208,-65.9674 207.76,-72.4857"/>
</g>
<!-- Node10 -->
<g id="node10" class="node"><title>Node10</title>
<g id="a_node10"><a xlink:href="namespace_m_k_1_1_i_a_p_kit.html#a46680ce03df4993f7c6fa87861333de4" target="_top" xlink:title="MK::IAPKit::unlockProduct">
<polygon fill="white" stroke="black" points="203.462,-0.5 203.462,-18.5 336.733,-18.5 336.733,-0.5 203.462,-0.5"/>
<text text-anchor="middle" x="270.098" y="-6.5" font-family="Helvetica,sans-Serif" font-size="10.00">MK::IAPKit::unlockProduct</text>
</a>
</g>
</g>
<!-- Node1&#45;&gt;Node10 -->
<g id="edge9" class="edge"><title>Node1&#45;&gt;Node10</title>
<path fill="none" stroke="midnightblue" d="M90.0391,-147.132C107.352,-116.951 144.918,-59.0065 193.182,-28.5 196.966,-26.1079 201.034,-24.0168 205.25,-22.1888"/>
<polygon fill="midnightblue" stroke="midnightblue" points="206.571,-25.4311 214.663,-18.5928 204.073,-18.892 206.571,-25.4311"/>
</g>
<!-- Node4 -->
<g id="node4" class="node"><title>Node4</title>
<g id="a_node4"><a xlink:href="namespace_m_k_1_1_log.html#a3e84a309c158873fecff57e1db770c9a" target="_top" xlink:title="Logs a debug message that will not appear also in release builds. ">
<polygon fill="white" stroke="black" points="383.014,-252.5 383.014,-270.5 469.619,-270.5 469.619,-252.5 383.014,-252.5"/>
<text text-anchor="middle" x="426.316" y="-258.5" font-family="Helvetica,sans-Serif" font-size="10.00">MK::Log::debug</text>
</a>
</g>
</g>
<!-- Node3&#45;&gt;Node4 -->
<g id="edge3" class="edge"><title>Node3&#45;&gt;Node4</title>
<path fill="none" stroke="midnightblue" d="M337.843,-261.5C349.561,-261.5 361.603,-261.5 372.862,-261.5"/>
<polygon fill="midnightblue" stroke="midnightblue" points="372.949,-265 382.949,-261.5 372.949,-258 372.949,-265"/>
</g>
</g>
</svg>
