<?xml version="1.0" encoding="UTF-8" standalone="no"?>
<!DOCTYPE svg PUBLIC "-//W3C//DTD SVG 1.1//EN"
 "http://www.w3.org/Graphics/SVG/1.1/DTD/svg11.dtd">
<!-- Generated by graphviz version 2.38.0 (20140413.2041)
 -->
<!-- Title: _IAPKit.hpp Pages: 1 -->
<svg width="187pt" height="137pt"
 viewBox="0.00 0.00 187.02 137.00" xmlns="http://www.w3.org/2000/svg" xmlns:xlink="http://www.w3.org/1999/xlink">
<g id="graph0" class="graph" transform="scale(1 1) rotate(0) translate(4 133)">
<title>_IAPKit.hpp</title>
<polygon fill="white" stroke="none" points="-4,4 -4,-133 183.02,-133 183.02,4 -4,4"/>
<!-- Node1 -->
<g id="node1" class="node"><title>Node1</title>
<polygon fill="#bfbfbf" stroke="black" points="62.9976,-110.5 62.9976,-128.5 131.81,-128.5 131.81,-110.5 62.9976,-110.5"/>
<text text-anchor="middle" x="97.4038" y="-116.5" font-family="Helvetica,sans-Serif" font-size="10.00">_IAPKit.hpp</text>
</g>
<!-- Node2 -->
<g id="node2" class="node"><title>Node2</title>
<g id="a_node2"><a xlink:href="_i_a_p_kit_8hpp.html" target="_top" xlink:title="IAPKit.hpp">
<polygon fill="white" stroke="black" points="65.7783,-55.5 65.7783,-73.5 129.029,-73.5 129.029,-55.5 65.7783,-55.5"/>
<text text-anchor="middle" x="97.4038" y="-61.5" font-family="Helvetica,sans-Serif" font-size="10.00">IAPKit.hpp</text>
</a>
</g>
</g>
<!-- Node1&#45;&gt;Node2 -->
<g id="edge1" class="edge"><title>Node1&#45;&gt;Node2</title>
<path fill="none" stroke="midnightblue" d="M97.4038,-110.219C97.4038,-103.177 97.4038,-92.8083 97.4038,-83.8277"/>
<polygon fill="midnightblue" stroke="midnightblue" points="100.904,-83.5495 97.4038,-73.5496 93.9039,-83.5496 100.904,-83.5495"/>
</g>
<!-- Node3 -->
<g id="node3" class="node"><title>Node3</title>
<polygon fill="white" stroke="#bfbfbf" points="0,-0.5 0,-18.5 58.8076,-18.5 58.8076,-0.5 0,-0.5"/>
<text text-anchor="middle" x="29.4038" y="-6.5" font-family="Helvetica,sans-Serif" font-size="10.00">functional</text>
</g>
<!-- Node1&#45;&gt;Node3 -->
<g id="edge5" class="edge"><title>Node1&#45;&gt;Node3</title>
<path fill="none" stroke="midnightblue" d="M88.277,-110.377C79.2566,-101.973 65.52,-88.1209 56.4038,-74 47.1654,-59.6897 39.8601,-41.6866 35.1905,-28.5075"/>
<polygon fill="midnightblue" stroke="midnightblue" points="38.4151,-27.1162 31.9034,-18.7586 31.782,-29.3527 38.4151,-27.1162"/>
</g>
<!-- Node5 -->
<g id="node5" class="node"><title>Node5</title>
<polygon fill="white" stroke="#bfbfbf" points="135.788,-0.5 135.788,-18.5 179.02,-18.5 179.02,-0.5 135.788,-0.5"/>
<text text-anchor="middle" x="157.404" y="-6.5" font-family="Helvetica,sans-Serif" font-size="10.00">vector</text>
</g>
<!-- Node1&#45;&gt;Node5 -->
<g id="edge6" class="edge"><title>Node1&#45;&gt;Node5</title>
<path fill="none" stroke="midnightblue" d="M107.218,-110.27C116.498,-101.994 130.191,-88.4235 138.404,-74 146.419,-59.9237 151.364,-42.1282 154.192,-28.9596"/>
<polygon fill="midnightblue" stroke="midnightblue" points="157.697,-29.2703 156.157,-18.788 150.824,-27.943 157.697,-29.2703"/>
</g>
<!-- Node2&#45;&gt;Node3 -->
<g id="edge2" class="edge"><title>Node2&#45;&gt;Node3</title>
<path fill="none" stroke="midnightblue" d="M87.0761,-55.4504C76.6916,-47.3566 60.4582,-34.7042 47.8564,-24.8822"/>
<polygon fill="midnightblue" stroke="midnightblue" points="49.8676,-22.0122 39.8287,-18.6253 45.5644,-27.5333 49.8676,-22.0122"/>
</g>
<!-- Node4 -->
<g id="node4" class="node"><title>Node4</title>
<polygon fill="white" stroke="#bfbfbf" points="77.1772,-0.5 77.1772,-18.5 117.63,-18.5 117.63,-0.5 77.1772,-0.5"/>
<text text-anchor="middle" x="97.4038" y="-6.5" font-family="Helvetica,sans-Serif" font-size="10.00">string</text>
</g>
<!-- Node2&#45;&gt;Node4 -->
<g id="edge3" class="edge"><title>Node2&#45;&gt;Node4</title>
<path fill="none" stroke="midnightblue" d="M97.4038,-55.2188C97.4038,-48.1769 97.4038,-37.8083 97.4038,-28.8277"/>
<polygon fill="midnightblue" stroke="midnightblue" points="100.904,-28.5495 97.4038,-18.5496 93.9039,-28.5496 100.904,-28.5495"/>
</g>
<!-- Node2&#45;&gt;Node5 -->
<g id="edge4" class="edge"><title>Node2&#45;&gt;Node5</title>
<path fill="none" stroke="midnightblue" d="M106.517,-55.4504C115.503,-47.5123 129.454,-35.1891 140.477,-25.4519"/>
<polygon fill="midnightblue" stroke="midnightblue" points="143.028,-27.8689 148.205,-18.6253 138.393,-22.6225 143.028,-27.8689"/>
</g>
</g>
</svg>
