<?xml version="1.0" encoding="UTF-8" standalone="no"?>
<!DOCTYPE svg PUBLIC "-//W3C//DTD SVG 1.1//EN"
 "http://www.w3.org/Graphics/SVG/1.1/DTD/svg11.dtd">
<!-- Generated by graphviz version 2.38.0 (20140413.2041)
 -->
<!-- Title: Android/_Log.cpp Pages: 1 -->
<svg width="140pt" height="137pt"
 viewBox="0.00 0.00 140.14 137.00" xmlns="http://www.w3.org/2000/svg" xmlns:xlink="http://www.w3.org/1999/xlink">
<g id="graph0" class="graph" transform="scale(1 1) rotate(0) translate(4 133)">
<title>Android/_Log.cpp</title>
<polygon fill="white" stroke="none" points="-4,4 -4,-133 136.138,-133 136.138,4 -4,4"/>
<!-- Node1 -->
<g id="node1" class="node"><title>Node1</title>
<polygon fill="#bfbfbf" stroke="black" points="22.8252,-110.5 22.8252,-128.5 117.219,-128.5 117.219,-110.5 22.8252,-110.5"/>
<text text-anchor="middle" x="70.022" y="-116.5" font-family="Helvetica,sans-Serif" font-size="10.00">Android/_Log.cpp</text>
</g>
<!-- Node2 -->
<g id="node2" class="node"><title>Node2</title>
<g id="a_node2"><a xlink:href="___log_8hpp.html" target="_top" xlink:title="../_Log.hpp">
<polygon fill="white" stroke="black" points="0,-55.5 0,-73.5 66.0439,-73.5 66.0439,-55.5 0,-55.5"/>
<text text-anchor="middle" x="33.022" y="-61.5" font-family="Helvetica,sans-Serif" font-size="10.00">../_Log.hpp</text>
</a>
</g>
</g>
<!-- Node1&#45;&gt;Node2 -->
<g id="edge1" class="edge"><title>Node1&#45;&gt;Node2</title>
<path fill="none" stroke="midnightblue" d="M64.2407,-110.219C58.9423,-102.629 50.9462,-91.1753 44.3731,-81.7597"/>
<polygon fill="midnightblue" stroke="midnightblue" points="47.2356,-79.7457 38.6415,-73.5496 41.4959,-83.7527 47.2356,-79.7457"/>
</g>
<!-- Node4 -->
<g id="node4" class="node"><title>Node4</title>
<polygon fill="white" stroke="#bfbfbf" points="83.9062,-55.5 83.9062,-73.5 132.138,-73.5 132.138,-55.5 83.9062,-55.5"/>
<text text-anchor="middle" x="108.022" y="-61.5" font-family="Helvetica,sans-Serif" font-size="10.00">cassert</text>
</g>
<!-- Node1&#45;&gt;Node4 -->
<g id="edge3" class="edge"><title>Node1&#45;&gt;Node4</title>
<path fill="none" stroke="midnightblue" d="M75.9595,-110.219C81.4011,-102.629 89.6133,-91.1753 96.3641,-81.7597"/>
<polygon fill="midnightblue" stroke="midnightblue" points="99.2681,-83.716 102.251,-73.5496 93.5792,-79.6371 99.2681,-83.716"/>
</g>
<!-- Node3 -->
<g id="node3" class="node"><title>Node3</title>
<polygon fill="white" stroke="#bfbfbf" points="8.62549,-0.5 8.62549,-18.5 57.4185,-18.5 57.4185,-0.5 8.62549,-0.5"/>
<text text-anchor="middle" x="33.022" y="-6.5" font-family="Helvetica,sans-Serif" font-size="10.00">cstdarg</text>
</g>
<!-- Node2&#45;&gt;Node3 -->
<g id="edge2" class="edge"><title>Node2&#45;&gt;Node3</title>
<path fill="none" stroke="midnightblue" d="M33.022,-55.2188C33.022,-48.1769 33.022,-37.8083 33.022,-28.8277"/>
<polygon fill="midnightblue" stroke="midnightblue" points="36.5221,-28.5495 33.022,-18.5496 29.5221,-28.5496 36.5221,-28.5495"/>
</g>
</g>
</svg>
