<?xml version="1.0" encoding="UTF-8" standalone="no"?>
<!DOCTYPE svg PUBLIC "-//W3C//DTD SVG 1.1//EN"
 "http://www.w3.org/Graphics/SVG/1.1/DTD/svg11.dtd">
<!-- Generated by graphviz version 2.38.0 (20140413.2041)
 -->
<!-- Title: _Log.hpp Pages: 1 -->
<svg width="314pt" height="82pt"
 viewBox="0.00 0.00 313.99 82.00" xmlns="http://www.w3.org/2000/svg" xmlns:xlink="http://www.w3.org/1999/xlink">
<g id="graph0" class="graph" transform="scale(1 1) rotate(0) translate(4 78)">
<title>_Log.hpp</title>
<polygon fill="white" stroke="none" points="-4,4 -4,-78 309.99,-78 309.99,4 -4,4"/>
<!-- Node1 -->
<g id="node1" class="node"><title>Node1</title>
<polygon fill="#bfbfbf" stroke="black" points="145.342,-55.5 145.342,-73.5 203.051,-73.5 203.051,-55.5 145.342,-55.5"/>
<text text-anchor="middle" x="174.197" y="-61.5" font-family="Helvetica,sans-Serif" font-size="10.00">_Log.hpp</text>
</g>
<!-- Node2 -->
<g id="node2" class="node"><title>Node2</title>
<g id="a_node2"><a xlink:href="___log_8cpp.html" target="_top" xlink:title="Android/_Log.cpp">
<polygon fill="white" stroke="black" points="0,-0.5 0,-18.5 94.3936,-18.5 94.3936,-0.5 0,-0.5"/>
<text text-anchor="middle" x="47.1968" y="-6.5" font-family="Helvetica,sans-Serif" font-size="10.00">Android/_Log.cpp</text>
</a>
</g>
</g>
<!-- Node1&#45;&gt;Node2 -->
<g id="edge1" class="edge"><title>Node1&#45;&gt;Node2</title>
<path fill="none" stroke="midnightblue" d="M145.567,-51.5523C121.491,-41.5046 87.72,-27.4113 66.6669,-18.6253"/>
<polygon fill="midnightblue" stroke="midnightblue" points="144.332,-54.8291 154.908,-55.4504 147.028,-48.369 144.332,-54.8291"/>
</g>
<!-- Node3 -->
<g id="node3" class="node"><title>Node3</title>
<g id="a_node3"><a xlink:href="_log_8mm.html" target="_top" xlink:title="Apple/Common/Log.mm">
<polygon fill="white" stroke="black" points="112.286,-0.5 112.286,-18.5 236.108,-18.5 236.108,-0.5 112.286,-0.5"/>
<text text-anchor="middle" x="174.197" y="-6.5" font-family="Helvetica,sans-Serif" font-size="10.00">Apple/Common/Log.mm</text>
</a>
</g>
</g>
<!-- Node1&#45;&gt;Node3 -->
<g id="edge2" class="edge"><title>Node1&#45;&gt;Node3</title>
<path fill="none" stroke="midnightblue" d="M174.197,-45.1746C174.197,-36.0945 174.197,-25.5949 174.197,-18.5496"/>
<polygon fill="midnightblue" stroke="midnightblue" points="170.697,-45.2187 174.197,-55.2188 177.697,-45.2188 170.697,-45.2187"/>
</g>
<!-- Node4 -->
<g id="node4" class="node"><title>Node4</title>
<g id="a_node4"><a xlink:href="_log_8cpp.html" target="_top" xlink:title="Log.cpp">
<polygon fill="white" stroke="black" points="254.404,-0.5 254.404,-18.5 305.99,-18.5 305.99,-0.5 254.404,-0.5"/>
<text text-anchor="middle" x="280.197" y="-6.5" font-family="Helvetica,sans-Serif" font-size="10.00">Log.cpp</text>
</a>
</g>
</g>
<!-- Node1&#45;&gt;Node4 -->
<g id="edge3" class="edge"><title>Node1&#45;&gt;Node4</title>
<path fill="none" stroke="midnightblue" d="M199.444,-50.8765C219.435,-40.8808 246.765,-27.216 263.946,-18.6253"/>
<polygon fill="midnightblue" stroke="midnightblue" points="197.675,-47.8478 190.296,-55.4504 200.805,-54.1087 197.675,-47.8478"/>
</g>
</g>
</svg>
