<?xml version="1.0" encoding="UTF-8" standalone="no"?>
<!DOCTYPE svg PUBLIC "-//W3C//DTD SVG 1.1//EN"
 "http://www.w3.org/Graphics/SVG/1.1/DTD/svg11.dtd">
<!-- Generated by graphviz version 2.38.0 (20140413.2041)
 -->
<!-- Title: ABDatabase.hpp Pages: 1 -->
<svg width="534pt" height="82pt"
 viewBox="0.00 0.00 533.71 82.00" xmlns="http://www.w3.org/2000/svg" xmlns:xlink="http://www.w3.org/1999/xlink">
<g id="graph0" class="graph" transform="scale(1 1) rotate(0) translate(4 78)">
<title>ABDatabase.hpp</title>
<polygon fill="white" stroke="none" points="-4,4 -4,-78 529.709,-78 529.709,4 -4,4"/>
<!-- Node1 -->
<g id="node1" class="node"><title>Node1</title>
<polygon fill="#bfbfbf" stroke="black" points="250.342,-55.5 250.342,-73.5 341.953,-73.5 341.953,-55.5 250.342,-55.5"/>
<text text-anchor="middle" x="296.147" y="-61.5" font-family="Helvetica,sans-Serif" font-size="10.00">ABDatabase.hpp</text>
</g>
<!-- Node2 -->
<g id="node2" class="node"><title>Node2</title>
<g id="a_node2"><a xlink:href="_a_b_database_8cpp.html" target="_top" xlink:title="Android/ABDatabase.cpp">
<polygon fill="white" stroke="black" points="0,-0.5 0,-18.5 128.295,-18.5 128.295,-0.5 0,-0.5"/>
<text text-anchor="middle" x="64.1475" y="-6.5" font-family="Helvetica,sans-Serif" font-size="10.00">Android/ABDatabase.cpp</text>
</a>
</g>
</g>
<!-- Node1&#45;&gt;Node2 -->
<g id="edge1" class="edge"><title>Node1&#45;&gt;Node2</title>
<path fill="none" stroke="midnightblue" d="M250.977,-53.1809C206.623,-43.0484 139.885,-27.8021 99.334,-18.5383"/>
<polygon fill="midnightblue" stroke="midnightblue" points="250.383,-56.6354 260.912,-55.4504 251.942,-49.8112 250.383,-56.6354"/>
</g>
<!-- Node3 -->
<g id="node3" class="node"><title>Node3</title>
<g id="a_node3"><a xlink:href="i_o_s_2_a_b_database_8mm.html" target="_top" xlink:title="Apple/iOS/ABDatabase.mm">
<polygon fill="white" stroke="black" points="146.453,-0.5 146.453,-18.5 285.842,-18.5 285.842,-0.5 146.453,-0.5"/>
<text text-anchor="middle" x="216.147" y="-6.5" font-family="Helvetica,sans-Serif" font-size="10.00">Apple/iOS/ABDatabase.mm</text>
</a>
</g>
</g>
<!-- Node1&#45;&gt;Node3 -->
<g id="edge2" class="edge"><title>Node1&#45;&gt;Node3</title>
<path fill="none" stroke="midnightblue" d="M275.426,-49.7719C260.515,-39.8937 240.908,-26.9036 228.412,-18.6253"/>
<polygon fill="midnightblue" stroke="midnightblue" points="273.728,-52.8452 283.997,-55.4504 277.594,-47.0097 273.728,-52.8452"/>
</g>
<!-- Node4 -->
<g id="node4" class="node"><title>Node4</title>
<g id="a_node4"><a xlink:href="_o_s_01_x_2_a_b_database_8mm.html" target="_top" xlink:title="Apple/OS X/ABDatabase.mm">
<polygon fill="white" stroke="black" points="303.84,-0.5 303.84,-18.5 450.455,-18.5 450.455,-0.5 303.84,-0.5"/>
<text text-anchor="middle" x="377.147" y="-6.5" font-family="Helvetica,sans-Serif" font-size="10.00">Apple/OS X/ABDatabase.mm</text>
</a>
</g>
</g>
<!-- Node1&#45;&gt;Node4 -->
<g id="edge3" class="edge"><title>Node1&#45;&gt;Node4</title>
<path fill="none" stroke="midnightblue" d="M317.128,-49.7719C332.225,-39.8937 352.078,-26.9036 364.73,-18.6253"/>
<polygon fill="midnightblue" stroke="midnightblue" points="314.901,-47.0464 308.45,-55.4504 318.734,-52.9039 314.901,-47.0464"/>
</g>
<!-- Node5 -->
<g id="node5" class="node"><title>Node5</title>
<g id="a_node5"><a xlink:href="_maw_kit_8h.html" target="_top" xlink:title="MawKit.h">
<polygon fill="white" stroke="black" points="468.586,-0.5 468.586,-18.5 525.709,-18.5 525.709,-0.5 468.586,-0.5"/>
<text text-anchor="middle" x="497.147" y="-6.5" font-family="Helvetica,sans-Serif" font-size="10.00">MawKit.h</text>
</a>
</g>
</g>
<!-- Node1&#45;&gt;Node5 -->
<g id="edge4" class="edge"><title>Node1&#45;&gt;Node5</title>
<path fill="none" stroke="midnightblue" d="M336.651,-52.8199C375.679,-42.529 433.748,-27.2173 468.292,-18.1086"/>
<polygon fill="midnightblue" stroke="midnightblue" points="335.452,-49.5164 326.675,-55.4504 337.237,-56.285 335.452,-49.5164"/>
</g>
</g>
</svg>
