<?xml version="1.0" encoding="UTF-8" standalone="no"?>
<!DOCTYPE svg PUBLIC "-//W3C//DTD SVG 1.1//EN"
 "http://www.w3.org/Graphics/SVG/1.1/DTD/svg11.dtd">
<!-- Generated by graphviz version 2.38.0 (20140413.2041)
 -->
<!-- Title: Android/ABDatabase.cpp Pages: 1 -->
<svg width="136pt" height="137pt"
 viewBox="0.00 0.00 136.29 137.00" xmlns="http://www.w3.org/2000/svg" xmlns:xlink="http://www.w3.org/1999/xlink">
<g id="graph0" class="graph" transform="scale(1 1) rotate(0) translate(4 133)">
<title>Android/ABDatabase.cpp</title>
<polygon fill="white" stroke="none" points="-4,4 -4,-133 132.295,-133 132.295,4 -4,4"/>
<!-- Node1 -->
<g id="node1" class="node"><title>Node1</title>
<polygon fill="#bfbfbf" stroke="black" points="0,-110.5 0,-128.5 128.295,-128.5 128.295,-110.5 0,-110.5"/>
<text text-anchor="middle" x="64.1475" y="-116.5" font-family="Helvetica,sans-Serif" font-size="10.00">Android/ABDatabase.cpp</text>
</g>
<!-- Node2 -->
<g id="node2" class="node"><title>Node2</title>
<g id="a_node2"><a xlink:href="_a_b_database_8hpp.html" target="_top" xlink:title="../ABDatabase.hpp">
<polygon fill="white" stroke="black" points="14.1748,-55.5 14.1748,-73.5 114.12,-73.5 114.12,-55.5 14.1748,-55.5"/>
<text text-anchor="middle" x="64.1475" y="-61.5" font-family="Helvetica,sans-Serif" font-size="10.00">../ABDatabase.hpp</text>
</a>
</g>
</g>
<!-- Node1&#45;&gt;Node2 -->
<g id="edge1" class="edge"><title>Node1&#45;&gt;Node2</title>
<path fill="none" stroke="midnightblue" d="M64.1475,-110.219C64.1475,-103.177 64.1475,-92.8083 64.1475,-83.8277"/>
<polygon fill="midnightblue" stroke="midnightblue" points="67.6476,-83.5495 64.1475,-73.5496 60.6476,-83.5496 67.6476,-83.5495"/>
</g>
<!-- Node3 -->
<g id="node3" class="node"><title>Node3</title>
<polygon fill="white" stroke="#bfbfbf" points="0.743652,-0.5 0.743652,-18.5 59.5513,-18.5 59.5513,-0.5 0.743652,-0.5"/>
<text text-anchor="middle" x="30.1475" y="-6.5" font-family="Helvetica,sans-Serif" font-size="10.00">functional</text>
</g>
<!-- Node2&#45;&gt;Node3 -->
<g id="edge2" class="edge"><title>Node2&#45;&gt;Node3</title>
<path fill="none" stroke="midnightblue" d="M58.835,-55.2188C54.0164,-47.7074 46.7696,-36.411 40.7654,-27.0515"/>
<polygon fill="midnightblue" stroke="midnightblue" points="43.6569,-25.0767 35.3113,-18.5496 37.765,-28.8564 43.6569,-25.0767"/>
</g>
<!-- Node4 -->
<g id="node4" class="node"><title>Node4</title>
<polygon fill="white" stroke="#bfbfbf" points="77.9209,-0.5 77.9209,-18.5 118.374,-18.5 118.374,-0.5 77.9209,-0.5"/>
<text text-anchor="middle" x="98.1475" y="-6.5" font-family="Helvetica,sans-Serif" font-size="10.00">string</text>
</g>
<!-- Node2&#45;&gt;Node4 -->
<g id="edge3" class="edge"><title>Node2&#45;&gt;Node4</title>
<path fill="none" stroke="midnightblue" d="M69.46,-55.2188C74.2786,-47.7074 81.5253,-36.411 87.5295,-27.0515"/>
<polygon fill="midnightblue" stroke="midnightblue" points="90.5299,-28.8564 92.9836,-18.5496 84.6381,-25.0767 90.5299,-28.8564"/>
</g>
</g>
</svg>
