<?xml version="1.0" encoding="UTF-8" standalone="no"?>
<!DOCTYPE svg PUBLIC "-//W3C//DTD SVG 1.1//EN"
 "http://www.w3.org/Graphics/SVG/1.1/DTD/svg11.dtd">
<!-- Generated by graphviz version 2.38.0 (20140413.2041)
 -->
<!-- Title: ABDatabase.hpp Pages: 1 -->
<svg width="126pt" height="82pt"
 viewBox="0.00 0.00 125.63 82.00" xmlns="http://www.w3.org/2000/svg" xmlns:xlink="http://www.w3.org/1999/xlink">
<g id="graph0" class="graph" transform="scale(1 1) rotate(0) translate(4 78)">
<title>ABDatabase.hpp</title>
<polygon fill="white" stroke="none" points="-4,4 -4,-78 121.63,-78 121.63,4 -4,4"/>
<!-- Node1 -->
<g id="node1" class="node"><title>Node1</title>
<polygon fill="#bfbfbf" stroke="black" points="17.5986,-55.5 17.5986,-73.5 109.209,-73.5 109.209,-55.5 17.5986,-55.5"/>
<text text-anchor="middle" x="63.4038" y="-61.5" font-family="Helvetica,sans-Serif" font-size="10.00">ABDatabase.hpp</text>
</g>
<!-- Node2 -->
<g id="node2" class="node"><title>Node2</title>
<polygon fill="white" stroke="#bfbfbf" points="0,-0.5 0,-18.5 58.8076,-18.5 58.8076,-0.5 0,-0.5"/>
<text text-anchor="middle" x="29.4038" y="-6.5" font-family="Helvetica,sans-Serif" font-size="10.00">functional</text>
</g>
<!-- Node1&#45;&gt;Node2 -->
<g id="edge1" class="edge"><title>Node1&#45;&gt;Node2</title>
<path fill="none" stroke="midnightblue" d="M58.0913,-55.2188C53.2727,-47.7074 46.026,-36.411 40.0218,-27.0515"/>
<polygon fill="midnightblue" stroke="midnightblue" points="42.9132,-25.0767 34.5677,-18.5496 37.0213,-28.8564 42.9132,-25.0767"/>
</g>
<!-- Node3 -->
<g id="node3" class="node"><title>Node3</title>
<polygon fill="white" stroke="#bfbfbf" points="77.1772,-0.5 77.1772,-18.5 117.63,-18.5 117.63,-0.5 77.1772,-0.5"/>
<text text-anchor="middle" x="97.4038" y="-6.5" font-family="Helvetica,sans-Serif" font-size="10.00">string</text>
</g>
<!-- Node1&#45;&gt;Node3 -->
<g id="edge2" class="edge"><title>Node1&#45;&gt;Node3</title>
<path fill="none" stroke="midnightblue" d="M68.7163,-55.2188C73.5349,-47.7074 80.7816,-36.411 86.7859,-27.0515"/>
<polygon fill="midnightblue" stroke="midnightblue" points="89.7863,-28.8564 92.2399,-18.5496 83.8944,-25.0767 89.7863,-28.8564"/>
</g>
</g>
</svg>
