<?xml version="1.0" encoding="UTF-8" standalone="no"?>
<!DOCTYPE svg PUBLIC "-//W3C//DTD SVG 1.1//EN"
 "http://www.w3.org/Graphics/SVG/1.1/DTD/svg11.dtd">
<!-- Generated by graphviz version 2.38.0 (20140413.2041)
 -->
<!-- Title: AdKit.hpp Pages: 1 -->
<svg width="514pt" height="82pt"
 viewBox="0.00 0.00 513.96 82.00" xmlns="http://www.w3.org/2000/svg" xmlns:xlink="http://www.w3.org/1999/xlink">
<g id="graph0" class="graph" transform="scale(1 1) rotate(0) translate(4 78)">
<title>AdKit.hpp</title>
<polygon fill="white" stroke="none" points="-4,4 -4,-78 509.963,-78 509.963,4 -4,4"/>
<!-- Node1 -->
<g id="node1" class="node"><title>Node1</title>
<polygon fill="#bfbfbf" stroke="black" points="214.719,-55.5 214.719,-73.5 274.083,-73.5 274.083,-55.5 214.719,-55.5"/>
<text text-anchor="middle" x="244.401" y="-61.5" font-family="Helvetica,sans-Serif" font-size="10.00">AdKit.hpp</text>
</g>
<!-- Node2 -->
<g id="node2" class="node"><title>Node2</title>
<g id="a_node2"><a xlink:href="_ad_kit_8cpp.html" target="_top" xlink:title="AdKit.cpp">
<polygon fill="white" stroke="black" points="0,-0.5 0,-18.5 58.8027,-18.5 58.8027,-0.5 0,-0.5"/>
<text text-anchor="middle" x="29.4014" y="-6.5" font-family="Helvetica,sans-Serif" font-size="10.00">AdKit.cpp</text>
</a>
</g>
</g>
<!-- Node1&#45;&gt;Node2 -->
<g id="edge1" class="edge"><title>Node1&#45;&gt;Node2</title>
<path fill="none" stroke="midnightblue" d="M204.585,-53.6848C162.43,-43.2931 96.8661,-27.1308 59.0423,-17.8068"/>
<polygon fill="midnightblue" stroke="midnightblue" points="203.959,-57.1353 214.507,-56.1306 205.635,-50.3388 203.959,-57.1353"/>
</g>
<!-- Node3 -->
<g id="node3" class="node"><title>Node3</title>
<g id="a_node3"><a xlink:href="_android_2_ad_kit_8cpp.html" target="_top" xlink:title="Android/AdKit.cpp">
<polygon fill="white" stroke="black" points="76.377,-0.5 76.377,-18.5 172.426,-18.5 172.426,-0.5 76.377,-0.5"/>
<text text-anchor="middle" x="124.401" y="-6.5" font-family="Helvetica,sans-Serif" font-size="10.00">Android/AdKit.cpp</text>
</a>
</g>
</g>
<!-- Node1&#45;&gt;Node3 -->
<g id="edge2" class="edge"><title>Node1&#45;&gt;Node3</title>
<path fill="none" stroke="midnightblue" d="M216.741,-51.2834C194.034,-41.2545 162.514,-27.3332 142.798,-18.6253"/>
<polygon fill="midnightblue" stroke="midnightblue" points="215.614,-54.6119 226.176,-55.4504 218.442,-48.2086 215.614,-54.6119"/>
</g>
<!-- Node4 -->
<g id="node4" class="node"><title>Node4</title>
<g id="a_node4"><a xlink:href="i_o_s_2_ad_kit_8mm.html" target="_top" xlink:title="Apple/iOS/AdKit.mm">
<polygon fill="white" stroke="black" points="190.83,-0.5 190.83,-18.5 297.973,-18.5 297.973,-0.5 190.83,-0.5"/>
<text text-anchor="middle" x="244.401" y="-6.5" font-family="Helvetica,sans-Serif" font-size="10.00">Apple/iOS/AdKit.mm</text>
</a>
</g>
</g>
<!-- Node1&#45;&gt;Node4 -->
<g id="edge3" class="edge"><title>Node1&#45;&gt;Node4</title>
<path fill="none" stroke="midnightblue" d="M244.401,-45.1746C244.401,-36.0945 244.401,-25.5949 244.401,-18.5496"/>
<polygon fill="midnightblue" stroke="midnightblue" points="240.901,-45.2187 244.401,-55.2188 247.901,-45.2188 240.901,-45.2187"/>
</g>
<!-- Node5 -->
<g id="node5" class="node"><title>Node5</title>
<g id="a_node5"><a xlink:href="_o_s_01_x_2_ad_kit_8mm.html" target="_top" xlink:title="Apple/OS X/AdKit.mm">
<polygon fill="white" stroke="black" points="316.217,-0.5 316.217,-18.5 430.586,-18.5 430.586,-0.5 316.217,-0.5"/>
<text text-anchor="middle" x="373.401" y="-6.5" font-family="Helvetica,sans-Serif" font-size="10.00">Apple/OS X/AdKit.mm</text>
</a>
</g>
</g>
<!-- Node1&#45;&gt;Node5 -->
<g id="edge4" class="edge"><title>Node1&#45;&gt;Node5</title>
<path fill="none" stroke="midnightblue" d="M273.482,-51.5523C297.937,-41.5046 332.24,-27.4113 353.625,-18.6253"/>
<polygon fill="midnightblue" stroke="midnightblue" points="271.913,-48.4127 263.994,-55.4504 274.574,-54.8875 271.913,-48.4127"/>
</g>
<!-- Node6 -->
<g id="node6" class="node"><title>Node6</title>
<g id="a_node6"><a xlink:href="_maw_kit_8h.html" target="_top" xlink:title="MawKit.h">
<polygon fill="white" stroke="black" points="448.84,-0.5 448.84,-18.5 505.963,-18.5 505.963,-0.5 448.84,-0.5"/>
<text text-anchor="middle" x="477.401" y="-6.5" font-family="Helvetica,sans-Serif" font-size="10.00">MawKit.h</text>
</a>
</g>
</g>
<!-- Node1&#45;&gt;Node6 -->
<g id="edge5" class="edge"><title>Node1&#45;&gt;Node6</title>
<path fill="none" stroke="midnightblue" d="M284.166,-54.4549C330.891,-43.8264 407.278,-26.4508 448.629,-17.0447"/>
<polygon fill="midnightblue" stroke="midnightblue" points="283.36,-51.0488 274.385,-56.6797 284.912,-57.8744 283.36,-51.0488"/>
</g>
</g>
</svg>
