<?xml version="1.0" encoding="UTF-8" standalone="no"?>
<!DOCTYPE svg PUBLIC "-//W3C//DTD SVG 1.1//EN"
 "http://www.w3.org/Graphics/SVG/1.1/DTD/svg11.dtd">
<!-- Generated by graphviz version 2.38.0 (20140413.2041)
 -->
<!-- Title: AdKit.cpp Pages: 1 -->
<svg width="719pt" height="247pt"
 viewBox="0.00 0.00 718.93 247.00" xmlns="http://www.w3.org/2000/svg" xmlns:xlink="http://www.w3.org/1999/xlink">
<g id="graph0" class="graph" transform="scale(1 1) rotate(0) translate(4 243)">
<title>AdKit.cpp</title>
<polygon fill="white" stroke="none" points="-4,4 -4,-243 714.93,-243 714.93,4 -4,4"/>
<!-- Node1 -->
<g id="node1" class="node"><title>Node1</title>
<polygon fill="#bfbfbf" stroke="black" points="219.681,-220.5 219.681,-238.5 278.484,-238.5 278.484,-220.5 219.681,-220.5"/>
<text text-anchor="middle" x="249.083" y="-226.5" font-family="Helvetica,sans-Serif" font-size="10.00">AdKit.cpp</text>
</g>
<!-- Node2 -->
<g id="node2" class="node"><title>Node2</title>
<g id="a_node2"><a xlink:href="_ad_kit_8hpp.html" target="_top" xlink:title="AdKit.hpp">
<polygon fill="white" stroke="black" points="16.4006,-110.5 16.4006,-128.5 75.7649,-128.5 75.7649,-110.5 16.4006,-110.5"/>
<text text-anchor="middle" x="46.0828" y="-116.5" font-family="Helvetica,sans-Serif" font-size="10.00">AdKit.hpp</text>
</a>
</g>
</g>
<!-- Node1&#45;&gt;Node2 -->
<g id="edge1" class="edge"><title>Node1&#45;&gt;Node2</title>
<path fill="none" stroke="midnightblue" d="M238.409,-220.333C221.276,-207.468 186.29,-182.18 154.083,-165 129.722,-152.005 100.726,-140.246 78.9149,-132.084"/>
<polygon fill="midnightblue" stroke="midnightblue" points="80.0352,-128.766 69.4417,-128.595 77.616,-135.335 80.0352,-128.766"/>
</g>
<!-- Node6 -->
<g id="node6" class="node"><title>Node6</title>
<g id="a_node6"><a xlink:href="___ad_kit_8hpp.html" target="_top" xlink:title="_AdKit.hpp">
<polygon fill="white" stroke="black" points="389.62,-165.5 389.62,-183.5 454.546,-183.5 454.546,-165.5 389.62,-165.5"/>
<text text-anchor="middle" x="422.083" y="-171.5" font-family="Helvetica,sans-Serif" font-size="10.00">_AdKit.hpp</text>
</a>
</g>
</g>
<!-- Node1&#45;&gt;Node6 -->
<g id="edge5" class="edge"><title>Node1&#45;&gt;Node6</title>
<path fill="none" stroke="midnightblue" d="M275.358,-220.45C304.911,-211.396 353.085,-196.638 386.117,-186.519"/>
<polygon fill="midnightblue" stroke="midnightblue" points="387.308,-189.814 395.845,-183.538 385.258,-183.121 387.308,-189.814"/>
</g>
<!-- Node7 -->
<g id="node7" class="node"><title>Node7</title>
<polygon fill="white" stroke="#bfbfbf" points="203.29,-110.5 203.29,-128.5 264.876,-128.5 264.876,-110.5 203.29,-110.5"/>
<text text-anchor="middle" x="234.083" y="-116.5" font-family="Helvetica,sans-Serif" font-size="10.00">cocos2d.h</text>
</g>
<!-- Node1&#45;&gt;Node7 -->
<g id="edge6" class="edge"><title>Node1&#45;&gt;Node7</title>
<path fill="none" stroke="midnightblue" d="M247.955,-220.382C245.566,-203.182 239.944,-162.698 236.636,-138.887"/>
<polygon fill="midnightblue" stroke="midnightblue" points="240.066,-138.135 235.223,-128.712 233.132,-139.098 240.066,-138.135"/>
</g>
<!-- Node8 -->
<g id="node8" class="node"><title>Node8</title>
<g id="a_node8"><a xlink:href="_device_8hpp.html" target="_top" xlink:title="Device.hpp">
<polygon fill="white" stroke="black" points="79.0681,-165.5 79.0681,-183.5 145.097,-183.5 145.097,-165.5 79.0681,-165.5"/>
<text text-anchor="middle" x="112.083" y="-171.5" font-family="Helvetica,sans-Serif" font-size="10.00">Device.hpp</text>
</a>
</g>
</g>
<!-- Node1&#45;&gt;Node8 -->
<g id="edge7" class="edge"><title>Node1&#45;&gt;Node8</title>
<path fill="none" stroke="midnightblue" d="M228.275,-220.45C205.443,-211.617 168.575,-197.355 142.499,-187.267"/>
<polygon fill="midnightblue" stroke="midnightblue" points="143.675,-183.969 133.086,-183.625 141.15,-190.498 143.675,-183.969"/>
</g>
<!-- Node9 -->
<g id="node9" class="node"><title>Node9</title>
<g id="a_node9"><a xlink:href="_features_8hpp.html" target="_top" xlink:title="Features.hpp">
<polygon fill="white" stroke="black" points="472.62,-165.5 472.62,-183.5 547.546,-183.5 547.546,-165.5 472.62,-165.5"/>
<text text-anchor="middle" x="510.083" y="-171.5" font-family="Helvetica,sans-Serif" font-size="10.00">Features.hpp</text>
</a>
</g>
</g>
<!-- Node1&#45;&gt;Node9 -->
<g id="edge10" class="edge"><title>Node1&#45;&gt;Node9</title>
<path fill="none" stroke="midnightblue" d="M278.515,-222.523C323.228,-213.444 408.726,-196.082 462.39,-185.185"/>
<polygon fill="midnightblue" stroke="midnightblue" points="463.247,-188.582 472.35,-183.162 461.854,-181.722 463.247,-188.582"/>
</g>
<!-- Node10 -->
<g id="node10" class="node"><title>Node10</title>
<g id="a_node10"><a xlink:href="_k_v_database_8hpp.html" target="_top" xlink:title="KVDatabase.hpp">
<polygon fill="white" stroke="black" points="93.2776,-110.5 93.2776,-128.5 184.888,-128.5 184.888,-110.5 93.2776,-110.5"/>
<text text-anchor="middle" x="139.083" y="-116.5" font-family="Helvetica,sans-Serif" font-size="10.00">KVDatabase.hpp</text>
</a>
</g>
</g>
<!-- Node1&#45;&gt;Node10 -->
<g id="edge11" class="edge"><title>Node1&#45;&gt;Node10</title>
<path fill="none" stroke="midnightblue" d="M241.186,-220.151C229.528,-207.886 206.946,-184.355 187.083,-165 176.76,-154.94 164.882,-143.925 155.525,-135.37"/>
<polygon fill="midnightblue" stroke="midnightblue" points="157.805,-132.713 148.053,-128.571 153.094,-137.89 157.805,-132.713"/>
</g>
<!-- Node11 -->
<g id="node11" class="node"><title>Node11</title>
<g id="a_node11"><a xlink:href="_range_8hpp.html" target="_top" xlink:title="Range.hpp">
<polygon fill="white" stroke="black" points="306.617,-165.5 306.617,-183.5 371.548,-183.5 371.548,-165.5 306.617,-165.5"/>
<text text-anchor="middle" x="339.083" y="-171.5" font-family="Helvetica,sans-Serif" font-size="10.00">Range.hpp</text>
</a>
</g>
</g>
<!-- Node1&#45;&gt;Node11 -->
<g id="edge15" class="edge"><title>Node1&#45;&gt;Node11</title>
<path fill="none" stroke="midnightblue" d="M262.752,-220.45C277.025,-212.045 299.646,-198.724 316.563,-188.762"/>
<polygon fill="midnightblue" stroke="midnightblue" points="318.444,-191.716 325.285,-183.625 314.892,-185.684 318.444,-191.716"/>
</g>
<!-- Node3 -->
<g id="node3" class="node"><title>Node3</title>
<polygon fill="white" stroke="#bfbfbf" points="53.679,-55.5 53.679,-73.5 112.487,-73.5 112.487,-55.5 53.679,-55.5"/>
<text text-anchor="middle" x="83.0828" y="-61.5" font-family="Helvetica,sans-Serif" font-size="10.00">functional</text>
</g>
<!-- Node2&#45;&gt;Node3 -->
<g id="edge2" class="edge"><title>Node2&#45;&gt;Node3</title>
<path fill="none" stroke="midnightblue" d="M51.864,-110.219C57.1624,-102.629 65.1585,-91.1753 71.7317,-81.7597"/>
<polygon fill="midnightblue" stroke="midnightblue" points="74.6088,-83.7527 77.4633,-73.5496 68.8691,-79.7457 74.6088,-83.7527"/>
</g>
<!-- Node4 -->
<g id="node4" class="node"><title>Node4</title>
<polygon fill="white" stroke="#bfbfbf" points="93.8562,-0.5 93.8562,-18.5 134.309,-18.5 134.309,-0.5 93.8562,-0.5"/>
<text text-anchor="middle" x="114.083" y="-6.5" font-family="Helvetica,sans-Serif" font-size="10.00">string</text>
</g>
<!-- Node2&#45;&gt;Node4 -->
<g id="edge3" class="edge"><title>Node2&#45;&gt;Node4</title>
<path fill="none" stroke="midnightblue" d="M43.5861,-110.484C40.1384,-97.8243 35.3744,-72.8135 45.0828,-55 53.4762,-39.5992 69.7418,-28.7226 84.373,-21.579"/>
<polygon fill="midnightblue" stroke="midnightblue" points="85.9627,-24.7019 93.6525,-17.4137 83.0961,-18.3157 85.9627,-24.7019"/>
</g>
<!-- Node5 -->
<g id="node5" class="node"><title>Node5</title>
<polygon fill="white" stroke="#bfbfbf" points="130.467,-55.5 130.467,-73.5 173.698,-73.5 173.698,-55.5 130.467,-55.5"/>
<text text-anchor="middle" x="152.083" y="-61.5" font-family="Helvetica,sans-Serif" font-size="10.00">vector</text>
</g>
<!-- Node2&#45;&gt;Node5 -->
<g id="edge4" class="edge"><title>Node2&#45;&gt;Node5</title>
<path fill="none" stroke="midnightblue" d="M62.1819,-110.45C79.3034,-101.89 106.625,-88.2291 126.659,-78.2119"/>
<polygon fill="midnightblue" stroke="midnightblue" points="128.453,-81.228 135.832,-73.6253 125.323,-74.967 128.453,-81.228"/>
</g>
<!-- Node8&#45;&gt;Node4 -->
<g id="edge8" class="edge"><title>Node8&#45;&gt;Node4</title>
<path fill="none" stroke="midnightblue" d="M78.9209,-169.156C54.515,-164.032 22.9346,-152.935 7.08277,-129 -21.1855,-86.3175 47.0287,-43.5428 87.2229,-23.0252"/>
<polygon fill="midnightblue" stroke="midnightblue" points="88.8814,-26.1096 96.2855,-18.5313 85.7716,-19.8383 88.8814,-26.1096"/>
</g>
<!-- Node8&#45;&gt;Node7 -->
<g id="edge9" class="edge"><title>Node8&#45;&gt;Node7</title>
<path fill="none" stroke="midnightblue" d="M130.612,-165.45C150.676,-156.734 182.91,-142.731 206.071,-132.669"/>
<polygon fill="midnightblue" stroke="midnightblue" points="207.602,-135.82 215.379,-128.625 204.813,-129.4 207.602,-135.82"/>
</g>
<!-- Node10&#45;&gt;Node3 -->
<g id="edge12" class="edge"><title>Node10&#45;&gt;Node3</title>
<path fill="none" stroke="midnightblue" d="M130.333,-110.219C121.983,-102.316 109.206,-90.2241 99.0435,-80.6057"/>
<polygon fill="midnightblue" stroke="midnightblue" points="101.257,-77.8814 91.588,-73.5496 96.4451,-82.9655 101.257,-77.8814"/>
</g>
<!-- Node10&#45;&gt;Node4 -->
<g id="edge13" class="edge"><title>Node10&#45;&gt;Node4</title>
<path fill="none" stroke="midnightblue" d="M151.748,-110.443C168.482,-98.7268 194.572,-76.0804 183.083,-55 174.689,-39.5992 158.424,-28.7226 143.793,-21.579"/>
<polygon fill="midnightblue" stroke="midnightblue" points="145.069,-18.3157 134.513,-17.4137 142.203,-24.7019 145.069,-18.3157"/>
</g>
<!-- Node10&#45;&gt;Node5 -->
<g id="edge14" class="edge"><title>Node10&#45;&gt;Node5</title>
<path fill="none" stroke="midnightblue" d="M141.114,-110.219C142.86,-103.099 145.441,-92.5775 147.661,-83.5289"/>
<polygon fill="midnightblue" stroke="midnightblue" points="151.125,-84.0955 150.108,-73.5496 144.327,-82.4279 151.125,-84.0955"/>
</g>
<!-- Node11&#45;&gt;Node7 -->
<g id="edge17" class="edge"><title>Node11&#45;&gt;Node7</title>
<path fill="none" stroke="midnightblue" d="M323.136,-165.45C306.176,-156.89 279.112,-143.229 259.267,-133.212"/>
<polygon fill="midnightblue" stroke="midnightblue" points="260.684,-130.007 250.18,-128.625 257.53,-136.256 260.684,-130.007"/>
</g>
<!-- Node12 -->
<g id="node12" class="node"><title>Node12</title>
<polygon fill="white" stroke="#bfbfbf" points="474.016,-0.5 474.016,-18.5 536.149,-18.5 536.149,-0.5 474.016,-0.5"/>
<text text-anchor="middle" x="505.083" y="-6.5" font-family="Helvetica,sans-Serif" font-size="10.00">type_traits</text>
</g>
<!-- Node11&#45;&gt;Node12 -->
<g id="edge16" class="edge"><title>Node11&#45;&gt;Node12</title>
<path fill="none" stroke="midnightblue" d="M368.18,-165.42C388.656,-158.515 415.597,-146.826 434.083,-129 460.696,-103.336 452.562,-86.3981 472.083,-55 478.124,-45.2824 485.678,-34.9863 492.033,-26.748"/>
<polygon fill="midnightblue" stroke="midnightblue" points="494.899,-28.7649 498.33,-18.741 489.397,-24.4375 494.899,-28.7649"/>
</g>
<!-- Node13 -->
<g id="node13" class="node"><title>Node13</title>
<g id="a_node13"><a xlink:href="_compiler_enhancements_8hpp.html" target="_top" xlink:title="CompilerEnhancements.hpp">
<polygon fill="white" stroke="black" points="282.992,-110.5 282.992,-128.5 425.174,-128.5 425.174,-110.5 282.992,-110.5"/>
<text text-anchor="middle" x="354.083" y="-116.5" font-family="Helvetica,sans-Serif" font-size="10.00">CompilerEnhancements.hpp</text>
</a>
</g>
</g>
<!-- Node11&#45;&gt;Node13 -->
<g id="edge18" class="edge"><title>Node11&#45;&gt;Node13</title>
<path fill="none" stroke="midnightblue" d="M341.427,-165.219C343.464,-158.02 346.485,-147.346 349.065,-138.231"/>
<polygon fill="midnightblue" stroke="midnightblue" points="352.449,-139.125 351.805,-128.55 345.714,-137.218 352.449,-139.125"/>
</g>
<!-- Node16 -->
<g id="node16" class="node"><title>Node16</title>
<g id="a_node16"><a xlink:href="_math_8hpp.html" target="_top" xlink:title="Math.hpp">
<polygon fill="white" stroke="black" points="653.236,-55.5 653.236,-73.5 710.93,-73.5 710.93,-55.5 653.236,-55.5"/>
<text text-anchor="middle" x="682.083" y="-61.5" font-family="Helvetica,sans-Serif" font-size="10.00">Math.hpp</text>
</a>
</g>
</g>
<!-- Node11&#45;&gt;Node16 -->
<g id="edge23" class="edge"><title>Node11&#45;&gt;Node16</title>
<path fill="none" stroke="midnightblue" d="M371.639,-166.893C374.829,-166.251 378.019,-165.611 381.083,-165 462.372,-148.779 486.046,-156.953 564.083,-129 600.079,-116.106 638.492,-93.5948 661.382,-79.1297"/>
<polygon fill="midnightblue" stroke="midnightblue" points="663.387,-82.002 669.913,-73.6552 659.606,-76.1108 663.387,-82.002"/>
</g>
<!-- Node17 -->
<g id="node17" class="node"><title>Node17</title>
<g id="a_node17"><a xlink:href="_random_8hpp.html" target="_top" xlink:title="Random.hpp">
<polygon fill="white" stroke="black" points="481.452,-110.5 481.452,-128.5 554.713,-128.5 554.713,-110.5 481.452,-110.5"/>
<text text-anchor="middle" x="518.083" y="-116.5" font-family="Helvetica,sans-Serif" font-size="10.00">Random.hpp</text>
</a>
</g>
</g>
<!-- Node11&#45;&gt;Node17 -->
<g id="edge25" class="edge"><title>Node11&#45;&gt;Node17</title>
<path fill="none" stroke="midnightblue" d="M366.269,-165.45C396.979,-156.357 447.122,-141.511 481.31,-131.388"/>
<polygon fill="midnightblue" stroke="midnightblue" points="482.34,-134.733 490.935,-128.538 480.352,-128.021 482.34,-134.733"/>
</g>
<!-- Node14 -->
<g id="node14" class="node"><title>Node14</title>
<g id="a_node14"><a xlink:href="_android_2_compiler_enhancements_8hpp.html" target="_top" xlink:title="Android/CompilerEnhancements.hpp">
<polygon fill="white" stroke="black" points="245.369,-55.5 245.369,-73.5 424.797,-73.5 424.797,-55.5 245.369,-55.5"/>
<text text-anchor="middle" x="335.083" y="-61.5" font-family="Helvetica,sans-Serif" font-size="10.00">Android/CompilerEnhancements.hpp</text>
</a>
</g>
</g>
<!-- Node13&#45;&gt;Node14 -->
<g id="edge19" class="edge"><title>Node13&#45;&gt;Node14</title>
<path fill="none" stroke="midnightblue" d="M351.114,-110.219C348.533,-103.02 344.707,-92.3458 341.439,-83.2311"/>
<polygon fill="midnightblue" stroke="midnightblue" points="344.638,-81.7818 337.968,-73.5496 338.048,-84.1441 344.638,-81.7818"/>
</g>
<!-- Node14&#45;&gt;Node4 -->
<g id="edge21" class="edge"><title>Node14&#45;&gt;Node4</title>
<path fill="none" stroke="midnightblue" d="M301.518,-55.4504C258.752,-45.1943 185.463,-27.6184 144.343,-17.7571"/>
<polygon fill="midnightblue" stroke="midnightblue" points="144.918,-14.2958 134.378,-15.3671 143.286,-21.1027 144.918,-14.2958"/>
</g>
<!-- Node14&#45;&gt;Node12 -->
<g id="edge22" class="edge"><title>Node14&#45;&gt;Node12</title>
<path fill="none" stroke="midnightblue" d="M360.902,-55.4504C389.943,-46.3965 437.281,-31.6382 469.74,-21.5185"/>
<polygon fill="midnightblue" stroke="midnightblue" points="470.794,-24.8561 479.3,-18.5383 468.711,-18.1734 470.794,-24.8561"/>
</g>
<!-- Node15 -->
<g id="node15" class="node"><title>Node15</title>
<polygon fill="white" stroke="#bfbfbf" points="309.302,-0.5 309.302,-18.5 360.864,-18.5 360.864,-0.5 309.302,-0.5"/>
<text text-anchor="middle" x="335.083" y="-6.5" font-family="Helvetica,sans-Serif" font-size="10.00">sstream</text>
</g>
<!-- Node14&#45;&gt;Node15 -->
<g id="edge20" class="edge"><title>Node14&#45;&gt;Node15</title>
<path fill="none" stroke="midnightblue" d="M335.083,-55.2188C335.083,-48.1769 335.083,-37.8083 335.083,-28.8277"/>
<polygon fill="midnightblue" stroke="midnightblue" points="338.583,-28.5495 335.083,-18.5496 331.583,-28.5496 338.583,-28.5495"/>
</g>
<!-- Node16&#45;&gt;Node12 -->
<g id="edge24" class="edge"><title>Node16&#45;&gt;Node12</title>
<path fill="none" stroke="midnightblue" d="M655.2,-55.4504C624.963,-46.3965 575.676,-31.6382 541.88,-21.5185"/>
<polygon fill="midnightblue" stroke="midnightblue" points="542.511,-18.054 531.928,-18.5383 540.503,-24.7598 542.511,-18.054"/>
</g>
<!-- Node17&#45;&gt;Node5 -->
<g id="edge29" class="edge"><title>Node17&#45;&gt;Node5</title>
<path fill="none" stroke="midnightblue" d="M481.314,-113.175C409.561,-102.785 251.978,-79.9658 184.16,-70.1451"/>
<polygon fill="midnightblue" stroke="midnightblue" points="184.472,-66.6538 174.073,-68.6844 183.468,-73.5815 184.472,-66.6538"/>
</g>
<!-- Node17&#45;&gt;Node12 -->
<g id="edge28" class="edge"><title>Node17&#45;&gt;Node12</title>
<path fill="none" stroke="midnightblue" d="M524.05,-110.257C532.07,-98.1229 544.608,-74.7548 538.083,-55 534.582,-44.4031 527.476,-34.2704 520.751,-26.3582"/>
<polygon fill="midnightblue" stroke="midnightblue" points="523.117,-23.7581 513.793,-18.7271 517.944,-28.4746 523.117,-23.7581"/>
</g>
<!-- Node18 -->
<g id="node18" class="node"><title>Node18</title>
<polygon fill="white" stroke="#bfbfbf" points="481.521,-55.5 481.521,-73.5 528.644,-73.5 528.644,-55.5 481.521,-55.5"/>
<text text-anchor="middle" x="505.083" y="-61.5" font-family="Helvetica,sans-Serif" font-size="10.00">iterator</text>
</g>
<!-- Node17&#45;&gt;Node18 -->
<g id="edge26" class="edge"><title>Node17&#45;&gt;Node18</title>
<path fill="none" stroke="midnightblue" d="M516.052,-110.219C514.305,-103.099 511.724,-92.5775 509.505,-83.5289"/>
<polygon fill="midnightblue" stroke="midnightblue" points="512.839,-82.4279 507.057,-73.5496 506.04,-84.0955 512.839,-82.4279"/>
</g>
<!-- Node19 -->
<g id="node19" class="node"><title>Node19</title>
<polygon fill="white" stroke="#bfbfbf" points="585.13,-55.5 585.13,-73.5 635.036,-73.5 635.036,-55.5 585.13,-55.5"/>
<text text-anchor="middle" x="610.083" y="-61.5" font-family="Helvetica,sans-Serif" font-size="10.00">random</text>
</g>
<!-- Node17&#45;&gt;Node19 -->
<g id="edge27" class="edge"><title>Node17&#45;&gt;Node19</title>
<path fill="none" stroke="midnightblue" d="M532.056,-110.45C546.646,-102.045 569.769,-88.7241 587.062,-78.7618"/>
<polygon fill="midnightblue" stroke="midnightblue" points="589.061,-81.6499 595.978,-73.6253 585.566,-75.5844 589.061,-81.6499"/>
</g>
</g>
</svg>
