<?xml version="1.0" encoding="UTF-8" standalone="no"?>
<!DOCTYPE svg PUBLIC "-//W3C//DTD SVG 1.1//EN"
 "http://www.w3.org/Graphics/SVG/1.1/DTD/svg11.dtd">
<!-- Generated by graphviz version 2.38.0 (20140413.2041)
 -->
<!-- Title: Analytics.hpp Pages: 1 -->
<svg width="522pt" height="137pt"
 viewBox="0.00 0.00 522.02 137.00" xmlns="http://www.w3.org/2000/svg" xmlns:xlink="http://www.w3.org/1999/xlink">
<g id="graph0" class="graph" transform="scale(1 1) rotate(0) translate(4 133)">
<title>Analytics.hpp</title>
<polygon fill="white" stroke="none" points="-4,4 -4,-133 518.02,-133 518.02,4 -4,4"/>
<!-- Node1 -->
<g id="node1" class="node"><title>Node1</title>
<polygon fill="#bfbfbf" stroke="black" points="177.719,-110.5 177.719,-128.5 253.197,-128.5 253.197,-110.5 177.719,-110.5"/>
<text text-anchor="middle" x="215.458" y="-116.5" font-family="Helvetica,sans-Serif" font-size="10.00">Analytics.hpp</text>
</g>
<!-- Node2 -->
<g id="node2" class="node"><title>Node2</title>
<g id="a_node2"><a xlink:href="___analytics_8hpp.html" target="_top" xlink:title="_Analytics.hpp">
<polygon fill="white" stroke="black" points="63.9385,-55.5 63.9385,-73.5 144.978,-73.5 144.978,-55.5 63.9385,-55.5"/>
<text text-anchor="middle" x="104.458" y="-61.5" font-family="Helvetica,sans-Serif" font-size="10.00">_Analytics.hpp</text>
</a>
</g>
</g>
<!-- Node1&#45;&gt;Node2 -->
<g id="edge1" class="edge"><title>Node1&#45;&gt;Node2</title>
<path fill="none" stroke="midnightblue" d="M189.305,-106.013C168.346,-96.0052 139.549,-82.2551 121.475,-73.6253"/>
<polygon fill="midnightblue" stroke="midnightblue" points="188.067,-109.3 198.599,-110.45 191.083,-102.983 188.067,-109.3"/>
</g>
<!-- Node3 -->
<g id="node3" class="node"><title>Node3</title>
<g id="a_node3"><a xlink:href="_analytics_8cpp.html" target="_top" xlink:title="Analytics.cpp">
<polygon fill="white" stroke="black" points="0,-0.5 0,-18.5 74.916,-18.5 74.916,-0.5 0,-0.5"/>
<text text-anchor="middle" x="37.458" y="-6.5" font-family="Helvetica,sans-Serif" font-size="10.00">Analytics.cpp</text>
</a>
</g>
</g>
<!-- Node1&#45;&gt;Node3 -->
<g id="edge4" class="edge"><title>Node1&#45;&gt;Node3</title>
<path fill="none" stroke="midnightblue" d="M167.391,-117.474C131.602,-114.124 84.0126,-103.794 54.458,-74 39.5088,-58.9295 37.3085,-32.2371 37.2229,-18.7665"/>
<polygon fill="midnightblue" stroke="midnightblue" points="167.374,-120.984 177.616,-118.274 167.92,-114.005 167.374,-120.984"/>
</g>
<!-- Node4 -->
<g id="node4" class="node"><title>Node4</title>
<g id="a_node4"><a xlink:href="_analytics_8mm.html" target="_top" xlink:title="Apple/Common/Analytics.mm">
<polygon fill="white" stroke="black" points="96.8818,-0.5 96.8818,-18.5 244.034,-18.5 244.034,-0.5 96.8818,-0.5"/>
<text text-anchor="middle" x="170.458" y="-6.5" font-family="Helvetica,sans-Serif" font-size="10.00">Apple/Common/Analytics.mm</text>
</a>
</g>
</g>
<!-- Node1&#45;&gt;Node4 -->
<g id="edge6" class="edge"><title>Node1&#45;&gt;Node4</title>
<path fill="none" stroke="midnightblue" d="M205.981,-101.574C201.583,-93.3793 196.456,-83.3183 192.458,-74 184.178,-54.7003 176.665,-31.1474 172.934,-18.8638"/>
<polygon fill="midnightblue" stroke="midnightblue" points="202.982,-103.383 210.86,-110.468 209.119,-100.017 202.982,-103.383"/>
</g>
<!-- Node5 -->
<g id="node5" class="node"><title>Node5</title>
<g id="a_node5"><a xlink:href="_android_2_analytics_8cpp.html" target="_top" xlink:title="Android/Analytics.cpp">
<polygon fill="white" stroke="black" points="201.377,-55.5 201.377,-73.5 313.539,-73.5 313.539,-55.5 201.377,-55.5"/>
<text text-anchor="middle" x="257.458" y="-61.5" font-family="Helvetica,sans-Serif" font-size="10.00">Android/Analytics.cpp</text>
</a>
</g>
</g>
<!-- Node1&#45;&gt;Node5 -->
<g id="edge5" class="edge"><title>Node1&#45;&gt;Node5</title>
<path fill="none" stroke="midnightblue" d="M228.341,-102.243C235.879,-92.7302 245.067,-81.1369 251.079,-73.5496"/>
<polygon fill="midnightblue" stroke="midnightblue" points="225.488,-100.207 222.021,-110.219 230.974,-104.555 225.488,-100.207"/>
</g>
<!-- Node6 -->
<g id="node6" class="node"><title>Node6</title>
<g id="a_node6"><a xlink:href="i_o_s_2_ad_kit_8mm.html" target="_top" xlink:title="Apple/iOS/AdKit.mm">
<polygon fill="white" stroke="black" points="331.887,-55.5 331.887,-73.5 439.029,-73.5 439.029,-55.5 331.887,-55.5"/>
<text text-anchor="middle" x="385.458" y="-61.5" font-family="Helvetica,sans-Serif" font-size="10.00">Apple/iOS/AdKit.mm</text>
</a>
</g>
</g>
<!-- Node1&#45;&gt;Node6 -->
<g id="edge7" class="edge"><title>Node1&#45;&gt;Node6</title>
<path fill="none" stroke="midnightblue" d="M250.841,-107.469C283.312,-97.3454 330.649,-82.5875 359.675,-73.5383"/>
<polygon fill="midnightblue" stroke="midnightblue" points="249.782,-104.133 241.277,-110.45 251.866,-110.815 249.782,-104.133"/>
</g>
<!-- Node7 -->
<g id="node7" class="node"><title>Node7</title>
<g id="a_node7"><a xlink:href="_maw_kit_8h.html" target="_top" xlink:title="MawKit.h">
<polygon fill="white" stroke="black" points="456.896,-55.5 456.896,-73.5 514.02,-73.5 514.02,-55.5 456.896,-55.5"/>
<text text-anchor="middle" x="485.458" y="-61.5" font-family="Helvetica,sans-Serif" font-size="10.00">MawKit.h</text>
</a>
</g>
</g>
<!-- Node1&#45;&gt;Node7 -->
<g id="edge8" class="edge"><title>Node1&#45;&gt;Node7</title>
<path fill="none" stroke="midnightblue" d="M263.418,-109.878C310.598,-101.269 384.63,-87.422 448.458,-74 451.167,-73.4304 453.983,-72.8188 456.798,-72.1945"/>
<polygon fill="midnightblue" stroke="midnightblue" points="262.692,-106.452 253.48,-111.686 263.946,-113.339 262.692,-106.452"/>
</g>
<!-- Node2&#45;&gt;Node3 -->
<g id="edge2" class="edge"><title>Node2&#45;&gt;Node3</title>
<path fill="none" stroke="midnightblue" d="M86.3927,-49.2095C73.9986,-39.4052 57.9972,-26.7474 47.7296,-18.6253"/>
<polygon fill="midnightblue" stroke="midnightblue" points="84.2679,-51.9914 94.2821,-55.4504 88.6107,-46.5014 84.2679,-51.9914"/>
</g>
<!-- Node2&#45;&gt;Node4 -->
<g id="edge3" class="edge"><title>Node2&#45;&gt;Node4</title>
<path fill="none" stroke="midnightblue" d="M122.607,-48.9259C134.765,-39.1622 150.323,-26.6693 160.34,-18.6253"/>
<polygon fill="midnightblue" stroke="midnightblue" points="120.088,-46.46 114.482,-55.4504 124.471,-51.9181 120.088,-46.46"/>
</g>
</g>
</svg>
