<?xml version="1.0" encoding="UTF-8" standalone="no"?>
<!DOCTYPE svg PUBLIC "-//W3C//DTD SVG 1.1//EN"
 "http://www.w3.org/Graphics/SVG/1.1/DTD/svg11.dtd">
<!-- Generated by graphviz version 2.38.0 (20140413.2041)
 -->
<!-- Title: Apple/Common/Analytics.mm Pages: 1 -->
<!--zoomable 192 -->
<svg id="main" version="1.1" xmlns="http://www.w3.org/2000/svg" xmlns:xlink="http://www.w3.org/1999/xlink" xml:space="preserve" onload="init(evt)">
<style type="text/css"><![CDATA[
.edge:hover path { stroke: red; }
.edge:hover polygon { stroke: red; fill: red; }
]]></style>
<script type="text/javascript"><![CDATA[
var edges = document.getElementsByTagName('g');
if (edges && edges.length) {
  for (var i=0;i<edges.length;i++) {
    if (edges[i].id.substr(0,4)=='edge') {
      edges[i].setAttribute('class','edge');
    }
  }
}
]]></script>
        <defs>
                <circle id="rim" cx="0" cy="0" r="7"/>
                <circle id="rim2" cx="0" cy="0" r="3.5"/>
                <g id="zoomPlus">
                        <use xlink:href="#rim" fill="#404040">
                                <set attributeName="fill" to="#808080" begin="zoomplus.mouseover" end="zoomplus.mouseout"/>
                        </use>
                        <path d="M-4,0h8M0,-4v8" fill="none" stroke="white" stroke-width="1.5" pointer-events="none"/>
                </g>
                <g id="zoomMin">
                        <use xlink:href="#rim" fill="#404040">
                                <set attributeName="fill" to="#808080" begin="zoomminus.mouseover" end="zoomminus.mouseout"/>
                        </use>
                        <path d="M-4,0h8" fill="none" stroke="white" stroke-width="1.5" pointer-events="none"/>
                </g>
                <g id="dirArrow">
                        <path fill="none" stroke="white" stroke-width="1.5" d="M0,-3.0v7 M-2.5,-0.5L0,-3.0L2.5,-0.5"/>
                </g>
               <g id="resetDef">
                       <use xlink:href="#rim2" fill="#404040">
                               <set attributeName="fill" to="#808080" begin="reset.mouseover" end="reset.mouseout"/>
                       </use>
               </g>
        </defs>

<script type="text/javascript">
var viewWidth = 527;
var viewHeight = 192;
var sectionId = 'dynsection-0';
</script>
<script xlink:href="svgpan.js"/>
<svg id="graph" class="graph">
<g id="viewport">
<title>Apple/Common/Analytics.mm</title>
<polygon fill="white" stroke="none" points="-4,4 -4,-188 523.108,-188 523.108,4 -4,4"/>
<!-- Node1 -->
<g id="node1" class="node"><title>Node1</title>
<polygon fill="#bfbfbf" stroke="black" points="126.933,-165.5 126.933,-183.5 274.086,-183.5 274.086,-165.5 126.933,-165.5"/>
<text text-anchor="middle" x="200.509" y="-171.5" font-family="Helvetica,sans-Serif" font-size="10.00">Apple/Common/Analytics.mm</text>
</g>
<!-- Node2 -->
<g id="node2" class="node"><title>Node2</title>
<g id="a_node2"><a xlink:href="_analytics_8hpp.html" target="_top" xlink:title="../../Analytics.hpp">
<polygon fill="white" stroke="black" points="16.4356,-55.5 16.4356,-73.5 108.583,-73.5 108.583,-55.5 16.4356,-55.5"/>
<text text-anchor="middle" x="62.5094" y="-61.5" font-family="Helvetica,sans-Serif" font-size="10.00">../../Analytics.hpp</text>
</a>
</g>
</g>
<!-- Node1&#45;&gt;Node2 -->
<g id="edge1" class="edge"><title>Node1&#45;&gt;Node2</title>
<path fill="none" stroke="midnightblue" d="M126.68,-166.266C77.758,-159.771 19.8583,-148.224 4.50936,-129 -10.0816,-110.725 14.8919,-91.0425 36.4792,-78.5156"/>
<polygon fill="midnightblue" stroke="midnightblue" points="38.323,-81.496 45.3984,-73.61 34.9495,-75.3625 38.323,-81.496"/>
</g>
<!-- Node5 -->
<g id="node5" class="node"><title>Node5</title>
<g id="a_node5"><a xlink:href="___analytics_8hpp.html" target="_top" xlink:title="../../_Analytics.hpp">
<polygon fill="white" stroke="black" points="13.6549,-110.5 13.6549,-128.5 111.364,-128.5 111.364,-110.5 13.6549,-110.5"/>
<text text-anchor="middle" x="62.5094" y="-116.5" font-family="Helvetica,sans-Serif" font-size="10.00">../../_Analytics.hpp</text>
</a>
</g>
</g>
<!-- Node1&#45;&gt;Node5 -->
<g id="edge4" class="edge"><title>Node1&#45;&gt;Node5</title>
<path fill="none" stroke="midnightblue" d="M179.55,-165.45C156.551,-156.617 119.414,-142.355 93.148,-132.267"/>
<polygon fill="midnightblue" stroke="midnightblue" points="94.2559,-128.943 83.6658,-128.625 91.7462,-135.478 94.2559,-128.943"/>
</g>
<!-- Node6 -->
<g id="node6" class="node"><title>Node6</title>
<polygon fill="white" stroke="#bfbfbf" points="129.716,-110.5 129.716,-128.5 191.302,-128.5 191.302,-110.5 129.716,-110.5"/>
<text text-anchor="middle" x="160.509" y="-116.5" font-family="Helvetica,sans-Serif" font-size="10.00">cocos2d.h</text>
</g>
<!-- Node1&#45;&gt;Node6 -->
<g id="edge6" class="edge"><title>Node1&#45;&gt;Node6</title>
<path fill="none" stroke="midnightblue" d="M194.259,-165.219C188.531,-157.629 179.887,-146.175 172.781,-136.76"/>
<polygon fill="midnightblue" stroke="midnightblue" points="175.402,-134.423 166.584,-128.55 169.815,-138.64 175.402,-134.423"/>
</g>
<!-- Node7 -->
<g id="node7" class="node"><title>Node7</title>
<polygon fill="white" stroke="#bfbfbf" points="209.33,-110.5 209.33,-128.5 273.689,-128.5 273.689,-110.5 209.33,-110.5"/>
<text text-anchor="middle" x="241.509" y="-116.5" font-family="Helvetica,sans-Serif" font-size="10.00">Mixpanel.h</text>
</g>
<!-- Node1&#45;&gt;Node7 -->
<g id="edge7" class="edge"><title>Node1&#45;&gt;Node7</title>
<path fill="none" stroke="midnightblue" d="M206.916,-165.219C212.847,-157.551 221.83,-145.939 229.156,-136.469"/>
<polygon fill="midnightblue" stroke="midnightblue" points="231.932,-138.601 235.282,-128.55 226.395,-134.318 231.932,-138.601"/>
</g>
<!-- Node8 -->
<g id="node8" class="node"><title>Node8</title>
<polygon fill="white" stroke="#bfbfbf" points="291.33,-110.5 291.33,-128.5 405.689,-128.5 405.689,-110.5 291.33,-110.5"/>
<text text-anchor="middle" x="348.509" y="-116.5" font-family="Helvetica,sans-Serif" font-size="10.00">Crashlytics/Answers.h</text>
</g>
<!-- Node1&#45;&gt;Node8 -->
<g id="edge8" class="edge"><title>Node1&#45;&gt;Node8</title>
<path fill="none" stroke="midnightblue" d="M222.987,-165.45C247.871,-156.539 288.184,-142.103 316.392,-132.001"/>
<polygon fill="midnightblue" stroke="midnightblue" points="317.585,-135.292 325.82,-128.625 315.225,-128.702 317.585,-135.292"/>
</g>
<!-- Node9 -->
<g id="node9" class="node"><title>Node9</title>
<g id="a_node9"><a xlink:href="_c_p_p_utils_8h.html" target="_top" xlink:title="CPPUtils.h">
<polygon fill="white" stroke="black" points="423.337,-110.5 423.337,-128.5 487.682,-128.5 487.682,-110.5 423.337,-110.5"/>
<text text-anchor="middle" x="455.509" y="-116.5" font-family="Helvetica,sans-Serif" font-size="10.00">CPPUtils.h</text>
</a>
</g>
</g>
<!-- Node1&#45;&gt;Node9 -->
<g id="edge9" class="edge"><title>Node1&#45;&gt;Node9</title>
<path fill="none" stroke="midnightblue" d="M239.238,-165.45C286.195,-155.691 365.043,-139.303 413.451,-129.242"/>
<polygon fill="midnightblue" stroke="midnightblue" points="414.218,-132.657 423.296,-127.195 412.793,-125.804 414.218,-132.657"/>
</g>
<!-- Node3 -->
<g id="node3" class="node"><title>Node3</title>
<polygon fill="white" stroke="#bfbfbf" points="44.7828,-0.5 44.7828,-18.5 80.2359,-18.5 80.2359,-0.5 44.7828,-0.5"/>
<text text-anchor="middle" x="62.5094" y="-6.5" font-family="Helvetica,sans-Serif" font-size="10.00">map</text>
</g>
<!-- Node2&#45;&gt;Node3 -->
<g id="edge2" class="edge"><title>Node2&#45;&gt;Node3</title>
<path fill="none" stroke="midnightblue" d="M62.5094,-55.2188C62.5094,-48.1769 62.5094,-37.8083 62.5094,-28.8277"/>
<polygon fill="midnightblue" stroke="midnightblue" points="66.0095,-28.5495 62.5094,-18.5496 59.0095,-28.5496 66.0095,-28.5495"/>
</g>
<!-- Node4 -->
<g id="node4" class="node"><title>Node4</title>
<polygon fill="white" stroke="#bfbfbf" points="164.283,-0.5 164.283,-18.5 204.736,-18.5 204.736,-0.5 164.283,-0.5"/>
<text text-anchor="middle" x="184.509" y="-6.5" font-family="Helvetica,sans-Serif" font-size="10.00">string</text>
</g>
<!-- Node2&#45;&gt;Node4 -->
<g id="edge3" class="edge"><title>Node2&#45;&gt;Node4</title>
<path fill="none" stroke="midnightblue" d="M81.0385,-55.4504C101.103,-46.734 133.337,-32.7306 156.497,-22.6691"/>
<polygon fill="midnightblue" stroke="midnightblue" points="158.029,-25.8201 165.806,-18.6253 155.239,-19.3997 158.029,-25.8201"/>
</g>
<!-- Node5&#45;&gt;Node2 -->
<g id="edge5" class="edge"><title>Node5&#45;&gt;Node2</title>
<path fill="none" stroke="midnightblue" d="M62.5094,-110.219C62.5094,-103.177 62.5094,-92.8083 62.5094,-83.8277"/>
<polygon fill="midnightblue" stroke="midnightblue" points="66.0095,-83.5495 62.5094,-73.5496 59.0095,-83.5496 66.0095,-83.5495"/>
</g>
<!-- Node9&#45;&gt;Node4 -->
<g id="edge11" class="edge"><title>Node9&#45;&gt;Node4</title>
<path fill="none" stroke="midnightblue" d="M435.14,-110.382C387.745,-91.4942 269.893,-44.5275 214.358,-22.3956"/>
<polygon fill="midnightblue" stroke="midnightblue" points="215.33,-19.0152 204.745,-18.5644 212.739,-25.5179 215.33,-19.0152"/>
</g>
<!-- Node10 -->
<g id="node10" class="node"><title>Node10</title>
<polygon fill="white" stroke="#bfbfbf" points="391.911,-55.5 391.911,-73.5 519.108,-73.5 519.108,-55.5 391.911,-55.5"/>
<text text-anchor="middle" x="455.509" y="-61.5" font-family="Helvetica,sans-Serif" font-size="10.00">Foundation/Foundation.h</text>
</g>
<!-- Node9&#45;&gt;Node10 -->
<g id="edge10" class="edge"><title>Node9&#45;&gt;Node10</title>
<path fill="none" stroke="midnightblue" d="M455.509,-110.219C455.509,-103.177 455.509,-92.8083 455.509,-83.8277"/>
<polygon fill="midnightblue" stroke="midnightblue" points="459.009,-83.5495 455.509,-73.5496 452.009,-83.5496 459.009,-83.5495"/>
</g>
</g>
</svg>
        <g id="navigator" transform="translate(0 0)" fill="#404254">
                <rect fill="#f2f5e9" fill-opacity="0.5" stroke="#606060" stroke-width=".5" x="0" y="0" width="60" height="60"/>
                <use id="zoomplus" xlink:href="#zoomPlus" x="17" y="9" onmousedown="handleZoom(evt,'in')"/>
                <use id="zoomminus" xlink:href="#zoomMin" x="42" y="9" onmousedown="handleZoom(evt,'out')"/>
                <use id="reset" xlink:href="#resetDef" x="30" y="36" onmousedown="handleReset()"/>
                <g id="arrowUp" xlink:href="#dirArrow" transform="translate(30 24)" onmousedown="handlePan(0,-1)">
                  <use xlink:href="#rim" fill="#404040">
                        <set attributeName="fill" to="#808080" begin="arrowUp.mouseover" end="arrowUp.mouseout"/>
                  </use>
                  <path fill="none" stroke="white" stroke-width="1.5" d="M0,-3.0v7 M-2.5,-0.5L0,-3.0L2.5,-0.5"/>
                </g>
                <g id="arrowRight" xlink:href="#dirArrow" transform="rotate(90) translate(36 -43)" onmousedown="handlePan(1,0)">
                  <use xlink:href="#rim" fill="#404040">
                        <set attributeName="fill" to="#808080" begin="arrowRight.mouseover" end="arrowRight.mouseout"/>
                  </use>
                  <path fill="none" stroke="white" stroke-width="1.5" d="M0,-3.0v7 M-2.5,-0.5L0,-3.0L2.5,-0.5"/>
                </g>
                <g id="arrowDown" xlink:href="#dirArrow" transform="rotate(180) translate(-30 -48)" onmousedown="handlePan(0,1)">
                  <use xlink:href="#rim" fill="#404040">
                        <set attributeName="fill" to="#808080" begin="arrowDown.mouseover" end="arrowDown.mouseout"/>
                  </use>
                  <path fill="none" stroke="white" stroke-width="1.5" d="M0,-3.0v7 M-2.5,-0.5L0,-3.0L2.5,-0.5"/>
                </g>
                <g id="arrowLeft" xlink:href="#dirArrow" transform="rotate(270) translate(-36 17)" onmousedown="handlePan(-1,0)">
                  <use xlink:href="#rim" fill="#404040">
                        <set attributeName="fill" to="#808080" begin="arrowLeft.mouseover" end="arrowLeft.mouseout"/>
                  </use>
                  <path fill="none" stroke="white" stroke-width="1.5" d="M0,-3.0v7 M-2.5,-0.5L0,-3.0L2.5,-0.5"/>
                </g>
        </g>
        <svg viewBox="0 0 15 15" width="100%" height="30px" preserveAspectRatio="xMaxYMin meet">
         <g id="arrow_out" transform="scale(0.3 0.3)">
          <a xlink:href="_analytics_8mm__incl_org.svg" target="_base">
           <rect id="button" ry="5" rx="5" y="6" x="6" height="38" width="38"
                fill="#f2f5e9" fill-opacity="0.5" stroke="#606060" stroke-width="1.0"/>
           <path id="arrow"
             d="M 11.500037,31.436501 C 11.940474,20.09759 22.043105,11.32322 32.158766,21.979434 L 37.068811,17.246167 C 37.068811,17.246167 37.088388,32 37.088388,32 L 22.160133,31.978069 C 22.160133,31.978069 26.997745,27.140456 26.997745,27.140456 C 18.528582,18.264221 13.291696,25.230495 11.500037,31.436501 z"
             style="fill:#404040;"/>
          </a>
         </g>
        </svg>
</svg>
