<?xml version="1.0" encoding="UTF-8" standalone="no"?>
<!DOCTYPE svg PUBLIC "-//W3C//DTD SVG 1.1//EN"
 "http://www.w3.org/Graphics/SVG/1.1/DTD/svg11.dtd">
<!-- Generated by graphviz version 2.38.0 (20140413.2041)
 -->
<!-- Title: Analytics.cpp Pages: 1 -->
<svg width="485pt" height="192pt"
 viewBox="0.00 0.00 485.34 192.00" xmlns="http://www.w3.org/2000/svg" xmlns:xlink="http://www.w3.org/1999/xlink">
<g id="graph0" class="graph" transform="scale(1 1) rotate(0) translate(4 188)">
<title>Analytics.cpp</title>
<polygon fill="white" stroke="none" points="-4,4 -4,-188 481.342,-188 481.342,4 -4,4"/>
<!-- Node1 -->
<g id="node1" class="node"><title>Node1</title>
<polygon fill="#bfbfbf" stroke="black" points="132.269,-165.5 132.269,-183.5 207.185,-183.5 207.185,-165.5 132.269,-165.5"/>
<text text-anchor="middle" x="169.727" y="-171.5" font-family="Helvetica,sans-Serif" font-size="10.00">Analytics.cpp</text>
</g>
<!-- Node2 -->
<g id="node2" class="node"><title>Node2</title>
<g id="a_node2"><a xlink:href="_analytics_8hpp.html" target="_top" xlink:title="Analytics.hpp">
<polygon fill="white" stroke="black" points="7.98779,-55.5 7.98779,-73.5 83.4653,-73.5 83.4653,-55.5 7.98779,-55.5"/>
<text text-anchor="middle" x="45.7266" y="-61.5" font-family="Helvetica,sans-Serif" font-size="10.00">Analytics.hpp</text>
</a>
</g>
</g>
<!-- Node1&#45;&gt;Node2 -->
<g id="edge1" class="edge"><title>Node1&#45;&gt;Node2</title>
<path fill="none" stroke="midnightblue" d="M132.067,-172.947C99.3591,-170.22 53.7309,-160.519 30.7266,-129 20.8389,-115.452 27.4063,-96.3344 34.7021,-82.6213"/>
<polygon fill="midnightblue" stroke="midnightblue" points="37.8677,-84.1427 39.9185,-73.7482 31.8333,-80.5951 37.8677,-84.1427"/>
</g>
<!-- Node5 -->
<g id="node5" class="node"><title>Node5</title>
<g id="a_node5"><a xlink:href="___analytics_8hpp.html" target="_top" xlink:title="_Analytics.hpp">
<polygon fill="white" stroke="black" points="40.207,-110.5 40.207,-128.5 121.246,-128.5 121.246,-110.5 40.207,-110.5"/>
<text text-anchor="middle" x="80.7266" y="-116.5" font-family="Helvetica,sans-Serif" font-size="10.00">_Analytics.hpp</text>
</a>
</g>
</g>
<!-- Node1&#45;&gt;Node5 -->
<g id="edge4" class="edge"><title>Node1&#45;&gt;Node5</title>
<path fill="none" stroke="midnightblue" d="M156.209,-165.45C142.095,-157.045 119.726,-143.724 102.996,-133.762"/>
<polygon fill="midnightblue" stroke="midnightblue" points="104.754,-130.735 94.371,-128.625 101.172,-136.749 104.754,-130.735"/>
</g>
<!-- Node6 -->
<g id="node6" class="node"><title>Node6</title>
<polygon fill="white" stroke="#bfbfbf" points="138.934,-110.5 138.934,-128.5 200.52,-128.5 200.52,-110.5 138.934,-110.5"/>
<text text-anchor="middle" x="169.727" y="-116.5" font-family="Helvetica,sans-Serif" font-size="10.00">cocos2d.h</text>
</g>
<!-- Node1&#45;&gt;Node6 -->
<g id="edge6" class="edge"><title>Node1&#45;&gt;Node6</title>
<path fill="none" stroke="midnightblue" d="M169.727,-165.219C169.727,-158.177 169.727,-147.808 169.727,-138.828"/>
<polygon fill="midnightblue" stroke="midnightblue" points="173.227,-138.55 169.727,-128.55 166.227,-138.55 173.227,-138.55"/>
</g>
<!-- Node7 -->
<g id="node7" class="node"><title>Node7</title>
<g id="a_node7"><a xlink:href="_features_8hpp.html" target="_top" xlink:title="Features.hpp">
<polygon fill="white" stroke="black" points="218.264,-110.5 218.264,-128.5 293.189,-128.5 293.189,-110.5 218.264,-110.5"/>
<text text-anchor="middle" x="255.727" y="-116.5" font-family="Helvetica,sans-Serif" font-size="10.00">Features.hpp</text>
</a>
</g>
</g>
<!-- Node1&#45;&gt;Node7 -->
<g id="edge7" class="edge"><title>Node1&#45;&gt;Node7</title>
<path fill="none" stroke="midnightblue" d="M182.788,-165.45C196.3,-157.123 217.642,-143.97 233.757,-134.039"/>
<polygon fill="midnightblue" stroke="midnightblue" points="235.865,-136.851 242.542,-128.625 232.193,-130.892 235.865,-136.851"/>
</g>
<!-- Node8 -->
<g id="node8" class="node"><title>Node8</title>
<g id="a_node8"><a xlink:href="_random_8hpp.html" target="_top" xlink:title="Random.hpp">
<polygon fill="white" stroke="black" points="311.096,-110.5 311.096,-128.5 384.357,-128.5 384.357,-110.5 311.096,-110.5"/>
<text text-anchor="middle" x="347.727" y="-116.5" font-family="Helvetica,sans-Serif" font-size="10.00">Random.hpp</text>
</a>
</g>
</g>
<!-- Node1&#45;&gt;Node8 -->
<g id="edge8" class="edge"><title>Node1&#45;&gt;Node8</title>
<path fill="none" stroke="midnightblue" d="M196.761,-165.45C227.169,-156.396 276.734,-141.638 310.721,-131.519"/>
<polygon fill="midnightblue" stroke="midnightblue" points="312.145,-134.747 320.73,-128.538 310.147,-128.038 312.145,-134.747"/>
</g>
<!-- Node3 -->
<g id="node3" class="node"><title>Node3</title>
<polygon fill="white" stroke="#bfbfbf" points="0,-0.5 0,-18.5 35.4531,-18.5 35.4531,-0.5 0,-0.5"/>
<text text-anchor="middle" x="17.7266" y="-6.5" font-family="Helvetica,sans-Serif" font-size="10.00">map</text>
</g>
<!-- Node2&#45;&gt;Node3 -->
<g id="edge2" class="edge"><title>Node2&#45;&gt;Node3</title>
<path fill="none" stroke="midnightblue" d="M41.3516,-55.2188C37.466,-47.8639 31.6632,-36.8801 26.7811,-27.639"/>
<polygon fill="midnightblue" stroke="midnightblue" points="29.7451,-25.7566 21.9792,-18.5496 23.5557,-29.0264 29.7451,-25.7566"/>
</g>
<!-- Node4 -->
<g id="node4" class="node"><title>Node4</title>
<polygon fill="white" stroke="#bfbfbf" points="53.5,-0.5 53.5,-18.5 93.9531,-18.5 93.9531,-0.5 53.5,-0.5"/>
<text text-anchor="middle" x="73.7266" y="-6.5" font-family="Helvetica,sans-Serif" font-size="10.00">string</text>
</g>
<!-- Node2&#45;&gt;Node4 -->
<g id="edge3" class="edge"><title>Node2&#45;&gt;Node4</title>
<path fill="none" stroke="midnightblue" d="M50.1016,-55.2188C53.9872,-47.8639 59.7899,-36.8801 64.672,-27.639"/>
<polygon fill="midnightblue" stroke="midnightblue" points="67.8974,-29.0264 69.474,-18.5496 61.708,-25.7566 67.8974,-29.0264"/>
</g>
<!-- Node5&#45;&gt;Node2 -->
<g id="edge5" class="edge"><title>Node5&#45;&gt;Node2</title>
<path fill="none" stroke="midnightblue" d="M75.2578,-110.219C70.2975,-102.707 62.8376,-91.411 56.6568,-82.0515"/>
<polygon fill="midnightblue" stroke="midnightblue" points="59.4736,-79.9655 51.0423,-73.5496 53.6323,-83.823 59.4736,-79.9655"/>
</g>
<!-- Node9 -->
<g id="node9" class="node"><title>Node9</title>
<polygon fill="white" stroke="#bfbfbf" points="220.165,-55.5 220.165,-73.5 267.288,-73.5 267.288,-55.5 220.165,-55.5"/>
<text text-anchor="middle" x="243.727" y="-61.5" font-family="Helvetica,sans-Serif" font-size="10.00">iterator</text>
</g>
<!-- Node8&#45;&gt;Node9 -->
<g id="edge9" class="edge"><title>Node8&#45;&gt;Node9</title>
<path fill="none" stroke="midnightblue" d="M331.931,-110.45C315.133,-101.89 288.327,-88.2291 268.671,-78.2119"/>
<polygon fill="midnightblue" stroke="midnightblue" points="270.17,-75.0475 259.671,-73.6253 266.991,-81.2843 270.17,-75.0475"/>
</g>
<!-- Node10 -->
<g id="node10" class="node"><title>Node10</title>
<polygon fill="white" stroke="#bfbfbf" points="285.773,-55.5 285.773,-73.5 335.68,-73.5 335.68,-55.5 285.773,-55.5"/>
<text text-anchor="middle" x="310.727" y="-61.5" font-family="Helvetica,sans-Serif" font-size="10.00">random</text>
</g>
<!-- Node8&#45;&gt;Node10 -->
<g id="edge10" class="edge"><title>Node8&#45;&gt;Node10</title>
<path fill="none" stroke="midnightblue" d="M341.945,-110.219C336.647,-102.629 328.651,-91.1753 322.078,-81.7597"/>
<polygon fill="midnightblue" stroke="midnightblue" points="324.94,-79.7457 316.346,-73.5496 319.2,-83.7527 324.94,-79.7457"/>
</g>
<!-- Node11 -->
<g id="node11" class="node"><title>Node11</title>
<polygon fill="white" stroke="#bfbfbf" points="353.66,-55.5 353.66,-73.5 415.793,-73.5 415.793,-55.5 353.66,-55.5"/>
<text text-anchor="middle" x="384.727" y="-61.5" font-family="Helvetica,sans-Serif" font-size="10.00">type_traits</text>
</g>
<!-- Node8&#45;&gt;Node11 -->
<g id="edge11" class="edge"><title>Node8&#45;&gt;Node11</title>
<path fill="none" stroke="midnightblue" d="M353.508,-110.219C358.806,-102.629 366.802,-91.1753 373.375,-81.7597"/>
<polygon fill="midnightblue" stroke="midnightblue" points="376.253,-83.7527 379.107,-73.5496 370.513,-79.7457 376.253,-83.7527"/>
</g>
<!-- Node12 -->
<g id="node12" class="node"><title>Node12</title>
<polygon fill="white" stroke="#bfbfbf" points="434.111,-55.5 434.111,-73.5 477.342,-73.5 477.342,-55.5 434.111,-55.5"/>
<text text-anchor="middle" x="455.727" y="-61.5" font-family="Helvetica,sans-Serif" font-size="10.00">vector</text>
</g>
<!-- Node8&#45;&gt;Node12 -->
<g id="edge12" class="edge"><title>Node8&#45;&gt;Node12</title>
<path fill="none" stroke="midnightblue" d="M364.129,-110.45C381.653,-101.851 409.664,-88.1048 430.101,-78.0755"/>
<polygon fill="midnightblue" stroke="midnightblue" points="431.734,-81.1729 439.169,-73.6253 428.65,-74.8888 431.734,-81.1729"/>
</g>
</g>
</svg>
