<?xml version="1.0" encoding="UTF-8" standalone="no"?>
<!DOCTYPE svg PUBLIC "-//W3C//DTD SVG 1.1//EN"
 "http://www.w3.org/Graphics/SVG/1.1/DTD/svg11.dtd">
<!-- Generated by graphviz version 2.38.0 (20140413.2041)
 -->
<!-- Title: Android/KVDatabase.cpp Pages: 1 -->
<svg width="235pt" height="137pt"
 viewBox="0.00 0.00 235.20 137.00" xmlns="http://www.w3.org/2000/svg" xmlns:xlink="http://www.w3.org/1999/xlink">
<g id="graph0" class="graph" transform="scale(1 1) rotate(0) translate(4 133)">
<title>Android/KVDatabase.cpp</title>
<polygon fill="white" stroke="none" points="-4,4 -4,-133 231.197,-133 231.197,4 -4,4"/>
<!-- Node1 -->
<g id="node1" class="node"><title>Node1</title>
<polygon fill="#bfbfbf" stroke="black" points="82.2563,-110.5 82.2563,-128.5 210.551,-128.5 210.551,-110.5 82.2563,-110.5"/>
<text text-anchor="middle" x="146.404" y="-116.5" font-family="Helvetica,sans-Serif" font-size="10.00">Android/KVDatabase.cpp</text>
</g>
<!-- Node2 -->
<g id="node2" class="node"><title>Node2</title>
<g id="a_node2"><a xlink:href="_k_v_database_8hpp.html" target="_top" xlink:title="../KVDatabase.hpp">
<polygon fill="white" stroke="black" points="47.4312,-55.5 47.4312,-73.5 147.376,-73.5 147.376,-55.5 47.4312,-55.5"/>
<text text-anchor="middle" x="97.4038" y="-61.5" font-family="Helvetica,sans-Serif" font-size="10.00">../KVDatabase.hpp</text>
</a>
</g>
</g>
<!-- Node1&#45;&gt;Node2 -->
<g id="edge1" class="edge"><title>Node1&#45;&gt;Node2</title>
<path fill="none" stroke="midnightblue" d="M138.748,-110.219C131.586,-102.473 120.703,-90.7013 111.9,-81.1799"/>
<polygon fill="midnightblue" stroke="midnightblue" points="114.204,-78.5163 104.846,-73.5496 109.064,-83.2683 114.204,-78.5163"/>
</g>
<!-- Node6 -->
<g id="node6" class="node"><title>Node6</title>
<polygon fill="white" stroke="#bfbfbf" points="165.611,-55.5 165.611,-73.5 227.197,-73.5 227.197,-55.5 165.611,-55.5"/>
<text text-anchor="middle" x="196.404" y="-61.5" font-family="Helvetica,sans-Serif" font-size="10.00">cocos2d.h</text>
</g>
<!-- Node1&#45;&gt;Node6 -->
<g id="edge5" class="edge"><title>Node1&#45;&gt;Node6</title>
<path fill="none" stroke="midnightblue" d="M154.216,-110.219C161.598,-102.394 172.854,-90.4631 181.883,-80.8921"/>
<polygon fill="midnightblue" stroke="midnightblue" points="184.494,-83.2253 188.81,-73.5496 179.402,-78.4217 184.494,-83.2253"/>
</g>
<!-- Node3 -->
<g id="node3" class="node"><title>Node3</title>
<polygon fill="white" stroke="#bfbfbf" points="0,-0.5 0,-18.5 58.8076,-18.5 58.8076,-0.5 0,-0.5"/>
<text text-anchor="middle" x="29.4038" y="-6.5" font-family="Helvetica,sans-Serif" font-size="10.00">functional</text>
</g>
<!-- Node2&#45;&gt;Node3 -->
<g id="edge2" class="edge"><title>Node2&#45;&gt;Node3</title>
<path fill="none" stroke="midnightblue" d="M87.0761,-55.4504C76.6916,-47.3566 60.4582,-34.7042 47.8564,-24.8822"/>
<polygon fill="midnightblue" stroke="midnightblue" points="49.8676,-22.0122 39.8287,-18.6253 45.5644,-27.5333 49.8676,-22.0122"/>
</g>
<!-- Node4 -->
<g id="node4" class="node"><title>Node4</title>
<polygon fill="white" stroke="#bfbfbf" points="77.1772,-0.5 77.1772,-18.5 117.63,-18.5 117.63,-0.5 77.1772,-0.5"/>
<text text-anchor="middle" x="97.4038" y="-6.5" font-family="Helvetica,sans-Serif" font-size="10.00">string</text>
</g>
<!-- Node2&#45;&gt;Node4 -->
<g id="edge3" class="edge"><title>Node2&#45;&gt;Node4</title>
<path fill="none" stroke="midnightblue" d="M97.4038,-55.2188C97.4038,-48.1769 97.4038,-37.8083 97.4038,-28.8277"/>
<polygon fill="midnightblue" stroke="midnightblue" points="100.904,-28.5495 97.4038,-18.5496 93.9039,-28.5496 100.904,-28.5495"/>
</g>
<!-- Node5 -->
<g id="node5" class="node"><title>Node5</title>
<polygon fill="white" stroke="#bfbfbf" points="135.788,-0.5 135.788,-18.5 179.02,-18.5 179.02,-0.5 135.788,-0.5"/>
<text text-anchor="middle" x="157.404" y="-6.5" font-family="Helvetica,sans-Serif" font-size="10.00">vector</text>
</g>
<!-- Node2&#45;&gt;Node5 -->
<g id="edge4" class="edge"><title>Node2&#45;&gt;Node5</title>
<path fill="none" stroke="midnightblue" d="M106.517,-55.4504C115.503,-47.5123 129.454,-35.1891 140.477,-25.4519"/>
<polygon fill="midnightblue" stroke="midnightblue" points="143.028,-27.8689 148.205,-18.6253 138.393,-22.6225 143.028,-27.8689"/>
</g>
</g>
</svg>
