<?xml version="1.0" encoding="UTF-8" standalone="no"?>
<!DOCTYPE svg PUBLIC "-//W3C//DTD SVG 1.1//EN"
 "http://www.w3.org/Graphics/SVG/1.1/DTD/svg11.dtd">
<!-- Generated by graphviz version 2.38.0 (20140413.2041)
 -->
<!-- Title: Android/AdKit.cpp Pages: 1 -->
<svg width="515pt" height="147pt"
 viewBox="0.00 0.00 514.58 147.00" xmlns="http://www.w3.org/2000/svg" xmlns:xlink="http://www.w3.org/1999/xlink">
<g id="graph0" class="graph" transform="scale(1 1) rotate(0) translate(4 143)">
<title>Android/AdKit.cpp</title>
<polygon fill="white" stroke="none" points="-4,4 -4,-143 510.576,-143 510.576,4 -4,4"/>
<!-- Node1 -->
<g id="node1" class="node"><title>Node1</title>
<polygon fill="#bfbfbf" stroke="black" points="214.379,-120.5 214.379,-138.5 310.428,-138.5 310.428,-120.5 214.379,-120.5"/>
<text text-anchor="middle" x="262.404" y="-126.5" font-family="Helvetica,sans-Serif" font-size="10.00">Android/AdKit.cpp</text>
</g>
<!-- Node2 -->
<g id="node2" class="node"><title>Node2</title>
<g id="a_node2"><a xlink:href="_ad_kit_8hpp.html" target="_top" xlink:title="../AdKit.hpp">
<polygon fill="white" stroke="black" points="62.5542,-60.5 62.5542,-78.5 130.253,-78.5 130.253,-60.5 62.5542,-60.5"/>
<text text-anchor="middle" x="96.4038" y="-66.5" font-family="Helvetica,sans-Serif" font-size="10.00">../AdKit.hpp</text>
</a>
</g>
</g>
<!-- Node1&#45;&gt;Node2 -->
<g id="edge1" class="edge"><title>Node1&#45;&gt;Node2</title>
<path fill="none" stroke="midnightblue" d="M239.322,-120.435C210.661,-110.421 161.59,-93.276 129.075,-81.9152"/>
<polygon fill="midnightblue" stroke="midnightblue" points="130.151,-78.5838 119.556,-78.5894 127.842,-85.1921 130.151,-78.5838"/>
</g>
<!-- Node5 -->
<g id="node5" class="node"><title>Node5</title>
<polygon fill="white" stroke="#bfbfbf" points="135.788,-0.5 135.788,-18.5 179.02,-18.5 179.02,-0.5 135.788,-0.5"/>
<text text-anchor="middle" x="157.404" y="-6.5" font-family="Helvetica,sans-Serif" font-size="10.00">vector</text>
</g>
<!-- Node1&#45;&gt;Node5 -->
<g id="edge9" class="edge"><title>Node1&#45;&gt;Node5</title>
<path fill="none" stroke="midnightblue" d="M234.459,-120.419C215.723,-113.614 191.91,-102.046 177.404,-84 164.736,-68.2414 160.066,-45.0897 158.359,-28.9963"/>
<polygon fill="midnightblue" stroke="midnightblue" points="161.826,-28.4334 157.567,-18.7321 154.846,-28.9715 161.826,-28.4334"/>
</g>
<!-- Node6 -->
<g id="node6" class="node"><title>Node6</title>
<g id="a_node6"><a xlink:href="_constants_8h.html" target="_top" xlink:title="Constants.h">
<polygon fill="white" stroke="black" points="186.722,-60.5 186.722,-78.5 256.086,-78.5 256.086,-60.5 186.722,-60.5"/>
<text text-anchor="middle" x="221.404" y="-66.5" font-family="Helvetica,sans-Serif" font-size="10.00">Constants.h</text>
</a>
</g>
</g>
<!-- Node1&#45;&gt;Node6 -->
<g id="edge5" class="edge"><title>Node1&#45;&gt;Node6</title>
<path fill="none" stroke="midnightblue" d="M256.703,-120.435C250.652,-111.876 240.918,-98.1052 233.203,-87.1909"/>
<polygon fill="midnightblue" stroke="midnightblue" points="235.952,-85.0172 227.322,-78.8718 230.236,-89.0579 235.952,-85.0172"/>
</g>
<!-- Node7 -->
<g id="node7" class="node"><title>Node7</title>
<polygon fill="white" stroke="#bfbfbf" points="273.611,-60.5 273.611,-78.5 335.197,-78.5 335.197,-60.5 273.611,-60.5"/>
<text text-anchor="middle" x="304.404" y="-66.5" font-family="Helvetica,sans-Serif" font-size="10.00">cocos2d.h</text>
</g>
<!-- Node1&#45;&gt;Node7 -->
<g id="edge6" class="edge"><title>Node1&#45;&gt;Node7</title>
<path fill="none" stroke="midnightblue" d="M268.244,-120.435C274.442,-111.876 284.414,-98.1052 292.317,-87.1909"/>
<polygon fill="midnightblue" stroke="midnightblue" points="295.311,-89.024 298.342,-78.8718 289.642,-84.9184 295.311,-89.024"/>
</g>
<!-- Node8 -->
<g id="node8" class="node"><title>Node8</title>
<polygon fill="white" stroke="#bfbfbf" points="352.882,-55.5 352.882,-83.5 453.926,-83.5 453.926,-55.5 352.882,-55.5"/>
<text text-anchor="start" x="360.882" y="-71.5" font-family="Helvetica,sans-Serif" font-size="10.00">platform/android/jni</text>
<text text-anchor="middle" x="403.404" y="-61.5" font-family="Helvetica,sans-Serif" font-size="10.00">/JniHelper.h</text>
</g>
<!-- Node1&#45;&gt;Node8 -->
<g id="edge7" class="edge"><title>Node1&#45;&gt;Node8</title>
<path fill="none" stroke="midnightblue" d="M282.009,-120.435C302.699,-111.925 335.911,-98.263 362.37,-87.3791"/>
<polygon fill="midnightblue" stroke="midnightblue" points="363.86,-90.5507 371.777,-83.5096 361.197,-84.077 363.86,-90.5507"/>
</g>
<!-- Node9 -->
<g id="node9" class="node"><title>Node9</title>
<polygon fill="white" stroke="#bfbfbf" points="472.231,-60.5 472.231,-78.5 506.576,-78.5 506.576,-60.5 472.231,-60.5"/>
<text text-anchor="middle" x="489.404" y="-66.5" font-family="Helvetica,sans-Serif" font-size="10.00">jni.h</text>
</g>
<!-- Node1&#45;&gt;Node9 -->
<g id="edge8" class="edge"><title>Node1&#45;&gt;Node9</title>
<path fill="none" stroke="midnightblue" d="M310.507,-121.481C351.861,-114.596 412.678,-102.424 463.404,-84 464.282,-83.6809 465.169,-83.3381 466.057,-82.9766"/>
<polygon fill="midnightblue" stroke="midnightblue" points="467.819,-86.0168 475.403,-78.6182 464.861,-79.6727 467.819,-86.0168"/>
</g>
<!-- Node3 -->
<g id="node3" class="node"><title>Node3</title>
<polygon fill="white" stroke="#bfbfbf" points="0,-0.5 0,-18.5 58.8076,-18.5 58.8076,-0.5 0,-0.5"/>
<text text-anchor="middle" x="29.4038" y="-6.5" font-family="Helvetica,sans-Serif" font-size="10.00">functional</text>
</g>
<!-- Node2&#45;&gt;Node3 -->
<g id="edge2" class="edge"><title>Node2&#45;&gt;Node3</title>
<path fill="none" stroke="midnightblue" d="M87.0877,-60.4353C76.7053,-51.4475 59.6868,-36.7151 46.8194,-25.5762"/>
<polygon fill="midnightblue" stroke="midnightblue" points="48.926,-22.7706 39.0746,-18.8718 44.3445,-28.063 48.926,-22.7706"/>
</g>
<!-- Node4 -->
<g id="node4" class="node"><title>Node4</title>
<polygon fill="white" stroke="#bfbfbf" points="77.1772,-0.5 77.1772,-18.5 117.63,-18.5 117.63,-0.5 77.1772,-0.5"/>
<text text-anchor="middle" x="97.4038" y="-6.5" font-family="Helvetica,sans-Serif" font-size="10.00">string</text>
</g>
<!-- Node2&#45;&gt;Node4 -->
<g id="edge3" class="edge"><title>Node2&#45;&gt;Node4</title>
<path fill="none" stroke="midnightblue" d="M96.5429,-60.4353C96.6816,-52.3891 96.8997,-39.7388 97.0817,-29.1846"/>
<polygon fill="midnightblue" stroke="midnightblue" points="100.586,-28.9306 97.2595,-18.8718 93.5875,-28.8099 100.586,-28.9306"/>
</g>
<!-- Node2&#45;&gt;Node5 -->
<g id="edge4" class="edge"><title>Node2&#45;&gt;Node5</title>
<path fill="none" stroke="midnightblue" d="M104.886,-60.4353C114.248,-51.5331 129.538,-36.9952 141.212,-25.8954"/>
<polygon fill="midnightblue" stroke="midnightblue" points="143.764,-28.2989 148.599,-18.8718 138.94,-23.2259 143.764,-28.2989"/>
</g>
</g>
</svg>
