<?xml version="1.0" encoding="UTF-8" standalone="no"?>
<!DOCTYPE svg PUBLIC "-//W3C//DTD SVG 1.1//EN"
 "http://www.w3.org/Graphics/SVG/1.1/DTD/svg11.dtd">
<!-- Generated by graphviz version 2.38.0 (20140413.2041)
 -->
<!-- Title: Android/Analytics.cpp Pages: 1 -->
<svg width="507pt" height="147pt"
 viewBox="0.00 0.00 506.90 147.00" xmlns="http://www.w3.org/2000/svg" xmlns:xlink="http://www.w3.org/1999/xlink">
<g id="graph0" class="graph" transform="scale(1 1) rotate(0) translate(4 143)">
<title>Android/Analytics.cpp</title>
<polygon fill="white" stroke="none" points="-4,4 -4,-143 502.899,-143 502.899,4 -4,4"/>
<!-- Node1 -->
<g id="node1" class="node"><title>Node1</title>
<polygon fill="#bfbfbf" stroke="black" points="157.646,-120.5 157.646,-138.5 269.808,-138.5 269.808,-120.5 157.646,-120.5"/>
<text text-anchor="middle" x="213.727" y="-126.5" font-family="Helvetica,sans-Serif" font-size="10.00">Android/Analytics.cpp</text>
</g>
<!-- Node2 -->
<g id="node2" class="node"><title>Node2</title>
<g id="a_node2"><a xlink:href="_analytics_8hpp.html" target="_top" xlink:title="../Analytics.hpp">
<polygon fill="white" stroke="black" points="38.8203,-60.5 38.8203,-78.5 122.633,-78.5 122.633,-60.5 38.8203,-60.5"/>
<text text-anchor="middle" x="80.7266" y="-66.5" font-family="Helvetica,sans-Serif" font-size="10.00">../Analytics.hpp</text>
</a>
</g>
</g>
<!-- Node1&#45;&gt;Node2 -->
<g id="edge1" class="edge"><title>Node1&#45;&gt;Node2</title>
<path fill="none" stroke="midnightblue" d="M195.233,-120.435C172.829,-110.665 134.856,-94.1053 108.826,-82.7537"/>
<polygon fill="midnightblue" stroke="midnightblue" points="110.057,-79.4723 99.4913,-78.6831 107.259,-85.8887 110.057,-79.4723"/>
</g>
<!-- Node3 -->
<g id="node3" class="node"><title>Node3</title>
<polygon fill="white" stroke="#bfbfbf" points="0,-0.5 0,-18.5 35.4531,-18.5 35.4531,-0.5 0,-0.5"/>
<text text-anchor="middle" x="17.7266" y="-6.5" font-family="Helvetica,sans-Serif" font-size="10.00">map</text>
</g>
<!-- Node1&#45;&gt;Node3 -->
<g id="edge5" class="edge"><title>Node1&#45;&gt;Node3</title>
<path fill="none" stroke="midnightblue" d="M157.567,-121.774C110.024,-114.891 46.9332,-102.556 29.7266,-84 16.0124,-69.21 14.5564,-45.152 15.5114,-28.6134"/>
<polygon fill="midnightblue" stroke="midnightblue" points="19.0043,-28.8503 16.4368,-18.5713 12.0338,-28.2079 19.0043,-28.8503"/>
</g>
<!-- Node4 -->
<g id="node4" class="node"><title>Node4</title>
<polygon fill="white" stroke="#bfbfbf" points="95.5,-0.5 95.5,-18.5 135.953,-18.5 135.953,-0.5 95.5,-0.5"/>
<text text-anchor="middle" x="115.727" y="-6.5" font-family="Helvetica,sans-Serif" font-size="10.00">string</text>
</g>
<!-- Node1&#45;&gt;Node4 -->
<g id="edge6" class="edge"><title>Node1&#45;&gt;Node4</title>
<path fill="none" stroke="midnightblue" d="M204.909,-120.321C195.739,-111.65 181.155,-97.3855 169.727,-84 153.72,-65.252 137.21,-42.1233 126.729,-26.8761"/>
<polygon fill="midnightblue" stroke="midnightblue" points="129.559,-24.8121 121.041,-18.5107 123.77,-28.7481 129.559,-24.8121"/>
</g>
<!-- Node5 -->
<g id="node5" class="node"><title>Node5</title>
<g id="a_node5"><a xlink:href="_constants_8h.html" target="_top" xlink:title="Constants.h">
<polygon fill="white" stroke="black" points="179.044,-60.5 179.044,-78.5 248.409,-78.5 248.409,-60.5 179.044,-60.5"/>
<text text-anchor="middle" x="213.727" y="-66.5" font-family="Helvetica,sans-Serif" font-size="10.00">Constants.h</text>
</a>
</g>
</g>
<!-- Node1&#45;&gt;Node5 -->
<g id="edge4" class="edge"><title>Node1&#45;&gt;Node5</title>
<path fill="none" stroke="midnightblue" d="M213.727,-120.435C213.727,-112.389 213.727,-99.7388 213.727,-89.1846"/>
<polygon fill="midnightblue" stroke="midnightblue" points="217.227,-88.8717 213.727,-78.8718 210.227,-88.8718 217.227,-88.8717"/>
</g>
<!-- Node6 -->
<g id="node6" class="node"><title>Node6</title>
<polygon fill="white" stroke="#bfbfbf" points="265.934,-60.5 265.934,-78.5 327.52,-78.5 327.52,-60.5 265.934,-60.5"/>
<text text-anchor="middle" x="296.727" y="-66.5" font-family="Helvetica,sans-Serif" font-size="10.00">cocos2d.h</text>
</g>
<!-- Node1&#45;&gt;Node6 -->
<g id="edge7" class="edge"><title>Node1&#45;&gt;Node6</title>
<path fill="none" stroke="midnightblue" d="M225.267,-120.435C238.572,-111.138 260.673,-95.6942 276.779,-84.4393"/>
<polygon fill="midnightblue" stroke="midnightblue" points="278.824,-87.2801 285.016,-78.6831 274.814,-81.5422 278.824,-87.2801"/>
</g>
<!-- Node7 -->
<g id="node7" class="node"><title>Node7</title>
<polygon fill="white" stroke="#bfbfbf" points="345.205,-55.5 345.205,-83.5 446.249,-83.5 446.249,-55.5 345.205,-55.5"/>
<text text-anchor="start" x="353.205" y="-71.5" font-family="Helvetica,sans-Serif" font-size="10.00">platform/android/jni</text>
<text text-anchor="middle" x="395.727" y="-61.5" font-family="Helvetica,sans-Serif" font-size="10.00">/JniHelper.h</text>
</g>
<!-- Node1&#45;&gt;Node7 -->
<g id="edge8" class="edge"><title>Node1&#45;&gt;Node7</title>
<path fill="none" stroke="midnightblue" d="M239.033,-120.435C266.324,-111.738 310.496,-97.6614 344.995,-86.6671"/>
<polygon fill="midnightblue" stroke="midnightblue" points="346.438,-89.8807 354.903,-83.5096 344.313,-83.2112 346.438,-89.8807"/>
</g>
<!-- Node8 -->
<g id="node8" class="node"><title>Node8</title>
<polygon fill="white" stroke="#bfbfbf" points="464.554,-60.5 464.554,-78.5 498.899,-78.5 498.899,-60.5 464.554,-60.5"/>
<text text-anchor="middle" x="481.727" y="-66.5" font-family="Helvetica,sans-Serif" font-size="10.00">jni.h</text>
</g>
<!-- Node1&#45;&gt;Node8 -->
<g id="edge9" class="edge"><title>Node1&#45;&gt;Node8</title>
<path fill="none" stroke="midnightblue" d="M270.193,-122.923C320.023,-116.88 394.104,-105.134 455.727,-84 456.761,-83.6453 457.805,-83.2549 458.85,-82.8374"/>
<polygon fill="midnightblue" stroke="midnightblue" points="460.434,-85.9606 468.031,-78.5758 457.487,-79.6111 460.434,-85.9606"/>
</g>
<!-- Node2&#45;&gt;Node3 -->
<g id="edge2" class="edge"><title>Node2&#45;&gt;Node3</title>
<path fill="none" stroke="midnightblue" d="M71.9667,-60.4353C62.297,-51.5331 46.5058,-36.9952 34.4492,-25.8954"/>
<polygon fill="midnightblue" stroke="midnightblue" points="36.5476,-23.0699 26.82,-18.8718 31.8064,-28.2198 36.5476,-23.0699"/>
</g>
<!-- Node2&#45;&gt;Node4 -->
<g id="edge3" class="edge"><title>Node2&#45;&gt;Node4</title>
<path fill="none" stroke="midnightblue" d="M85.5932,-60.4353C90.7069,-51.9611 98.9024,-38.38 105.456,-27.5192"/>
<polygon fill="midnightblue" stroke="midnightblue" points="108.505,-29.242 110.675,-18.8718 102.511,-25.6253 108.505,-29.242"/>
</g>
</g>
</svg>
