<?xml version="1.0" encoding="UTF-8" standalone="no"?>
<!DOCTYPE svg PUBLIC "-//W3C//DTD SVG 1.1//EN"
 "http://www.w3.org/Graphics/SVG/1.1/DTD/svg11.dtd">
<!-- Generated by graphviz version 2.38.0 (20140413.2041)
 -->
<!-- Title: to_nsstring Pages: 1 -->
<svg width="637pt" height="160pt"
 viewBox="0.00 0.00 636.53 160.00" xmlns="http://www.w3.org/2000/svg" xmlns:xlink="http://www.w3.org/1999/xlink">
<g id="graph0" class="graph" transform="scale(1 1) rotate(0) translate(4 156)">
<title>to_nsstring</title>
<polygon fill="white" stroke="none" points="-4,4 -4,-156 632.528,-156 632.528,4 -4,4"/>
<!-- Node1 -->
<g id="node1" class="node"><title>Node1</title>
<polygon fill="#bfbfbf" stroke="black" points="0,-62.5 0,-80.5 64.916,-80.5 64.916,-62.5 0,-62.5"/>
<text text-anchor="middle" x="32.458" y="-68.5" font-family="Helvetica,sans-Serif" font-size="10.00">to_nsstring</text>
</g>
<!-- Node2 -->
<g id="node2" class="node"><title>Node2</title>
<g id="a_node2"><a xlink:href="namespace_m_k_1_1_k_v_database.html#ac2a23838089c49a655dc2c50b56bc470" target="_top" xlink:title="Return whether given key is in database or not. ">
<polygon fill="white" stroke="black" points="113.05,-133.5 113.05,-151.5 244.665,-151.5 244.665,-133.5 113.05,-133.5"/>
<text text-anchor="middle" x="178.857" y="-139.5" font-family="Helvetica,sans-Serif" font-size="10.00">MK::KVDatabase::hasKey</text>
</a>
</g>
</g>
<!-- Node1&#45;&gt;Node2 -->
<g id="edge1" class="edge"><title>Node1&#45;&gt;Node2</title>
<path fill="none" stroke="midnightblue" d="M50.1357,-88.038C62.9894,-99.8776 81.7543,-115.294 100.916,-124.5 108.459,-128.124 116.776,-131.043 125.069,-133.387"/>
<polygon fill="midnightblue" stroke="midnightblue" points="52.258,-85.2265 42.5978,-80.8755 47.4362,-90.301 52.258,-85.2265"/>
</g>
<!-- Node3 -->
<g id="node3" class="node"><title>Node3</title>
<g id="a_node3"><a xlink:href="interface_receipt_validator.html#ab2df585c981dfc992ad4fe8fa09de347" target="_top" xlink:title="+[ReceiptValidator\l receiptAtURL:isValidForBundle\lID:andVersion:]">
<polygon fill="white" stroke="black" points="100.916,-76.5 100.916,-114.5 256.799,-114.5 256.799,-76.5 100.916,-76.5"/>
<text text-anchor="start" x="108.916" y="-102.5" font-family="Helvetica,sans-Serif" font-size="10.00">+[ReceiptValidator</text>
<text text-anchor="start" x="108.916" y="-92.5" font-family="Helvetica,sans-Serif" font-size="10.00"> receiptAtURL:isValidForBundle</text>
<text text-anchor="middle" x="178.857" y="-82.5" font-family="Helvetica,sans-Serif" font-size="10.00">ID:andVersion:]</text>
</a>
</g>
</g>
<!-- Node1&#45;&gt;Node3 -->
<g id="edge2" class="edge"><title>Node1&#45;&gt;Node3</title>
<path fill="none" stroke="midnightblue" d="M75.0291,-78.4093C83.1288,-79.7556 91.8598,-81.2067 100.69,-82.6744"/>
<polygon fill="midnightblue" stroke="midnightblue" points="75.5856,-74.9539 65.1471,-76.7669 74.4379,-81.8592 75.5856,-74.9539"/>
</g>
<!-- Node5 -->
<g id="node5" class="node"><title>Node5</title>
<g id="a_node5"><a xlink:href="interface_reward_video_delegate.html#a0bfa3f23795d0ad8cedcb3c7601b9305" target="_top" xlink:title="&#45;[RewardVideoDelegate\l requestNewRewardVideo]">
<polygon fill="white" stroke="black" points="297.804,-3.5 297.804,-31.5 432.578,-31.5 432.578,-3.5 297.804,-3.5"/>
<text text-anchor="start" x="305.804" y="-19.5" font-family="Helvetica,sans-Serif" font-size="10.00">&#45;[RewardVideoDelegate</text>
<text text-anchor="middle" x="365.191" y="-9.5" font-family="Helvetica,sans-Serif" font-size="10.00"> requestNewRewardVideo]</text>
</a>
</g>
</g>
<!-- Node1&#45;&gt;Node5 -->
<g id="edge4" class="edge"><title>Node1&#45;&gt;Node5</title>
<path fill="none" stroke="midnightblue" d="M75.0851,-64.7034C131.034,-55.5685 231.129,-39.2255 297.606,-28.3716"/>
<polygon fill="midnightblue" stroke="midnightblue" points="74.4754,-61.2565 65.1701,-66.3223 75.6034,-68.165 74.4754,-61.2565"/>
</g>
<!-- Node7 -->
<g id="node7" class="node"><title>Node7</title>
<g id="a_node7"><a xlink:href="_c_p_p_utils_8mm.html#a86a3c923fc6c24186808cb0ace126710" target="_top" xlink:title="Returns a NSArray equivalent to given std::vector of strings. ">
<polygon fill="white" stroke="black" points="147.234,-0.5 147.234,-18.5 210.48,-18.5 210.48,-0.5 147.234,-0.5"/>
<text text-anchor="middle" x="178.857" y="-6.5" font-family="Helvetica,sans-Serif" font-size="10.00">to_nsarray</text>
</a>
</g>
</g>
<!-- Node1&#45;&gt;Node7 -->
<g id="edge7" class="edge"><title>Node1&#45;&gt;Node7</title>
<path fill="none" stroke="midnightblue" d="M56.0922,-57.1634C68.9063,-49.4563 85.4253,-40.1901 100.916,-33.5 115.689,-27.12 132.716,-21.6288 146.99,-17.5155"/>
<polygon fill="midnightblue" stroke="midnightblue" points="54.1801,-54.2302 47.484,-62.4408 57.8387,-60.198 54.1801,-54.2302"/>
</g>
<!-- Node4 -->
<g id="node4" class="node"><title>Node4</title>
<g id="a_node4"><a xlink:href="interface_receipt_validator.html#a820c68148ab2fedccc43588f8d79dea6" target="_top" xlink:title="+[ReceiptValidator\l appReceiptIsValidForBundle\lID:andVersion:]">
<polygon fill="white" stroke="black" points="292.799,-76.5 292.799,-114.5 437.583,-114.5 437.583,-76.5 292.799,-76.5"/>
<text text-anchor="start" x="300.799" y="-102.5" font-family="Helvetica,sans-Serif" font-size="10.00">+[ReceiptValidator</text>
<text text-anchor="start" x="300.799" y="-92.5" font-family="Helvetica,sans-Serif" font-size="10.00"> appReceiptIsValidForBundle</text>
<text text-anchor="middle" x="365.191" y="-82.5" font-family="Helvetica,sans-Serif" font-size="10.00">ID:andVersion:]</text>
</a>
</g>
</g>
<!-- Node3&#45;&gt;Node4 -->
<g id="edge3" class="edge"><title>Node3&#45;&gt;Node4</title>
<path fill="none" stroke="midnightblue" d="M267.015,-95.5C275.616,-95.5 284.275,-95.5 292.692,-95.5"/>
<polygon fill="midnightblue" stroke="midnightblue" points="266.963,-92.0001 256.963,-95.5 266.963,-99.0001 266.963,-92.0001"/>
</g>
<!-- Node5&#45;&gt;Node5 -->
<g id="edge6" class="edge"><title>Node5&#45;&gt;Node5</title>
<path fill="none" stroke="midnightblue" d="M331.929,-41.4873C335.461,-46.4413 346.548,-50 365.191,-50 395.019,-50 405.505,-40.8898 396.65,-31.5305"/>
<polygon fill="midnightblue" stroke="midnightblue" points="335.394,-41.994 333.732,-31.5305 328.506,-40.7471 335.394,-41.994"/>
</g>
<!-- Node6 -->
<g id="node6" class="node"><title>Node6</title>
<g id="a_node6"><a xlink:href="interface_reward_video_delegate.html#a5d8713e80adf05ec03e68072d573ad06" target="_top" xlink:title="&#45;[RewardVideoDelegate\l initWithAdUnitID:andCallback:]">
<polygon fill="white" stroke="black" points="473.583,-3.5 473.583,-31.5 628.528,-31.5 628.528,-3.5 473.583,-3.5"/>
<text text-anchor="start" x="481.583" y="-19.5" font-family="Helvetica,sans-Serif" font-size="10.00">&#45;[RewardVideoDelegate</text>
<text text-anchor="middle" x="551.056" y="-9.5" font-family="Helvetica,sans-Serif" font-size="10.00"> initWithAdUnitID:andCallback:]</text>
</a>
</g>
</g>
<!-- Node5&#45;&gt;Node6 -->
<g id="edge5" class="edge"><title>Node5&#45;&gt;Node6</title>
<path fill="none" stroke="midnightblue" d="M443.134,-17.5C453.124,-17.5 463.358,-17.5 473.345,-17.5"/>
<polygon fill="midnightblue" stroke="midnightblue" points="442.83,-14.0001 432.83,-17.5 442.83,-21.0001 442.83,-14.0001"/>
</g>
<!-- Node7&#45;&gt;Node5 -->
<g id="edge8" class="edge"><title>Node7&#45;&gt;Node5</title>
<path fill="none" stroke="midnightblue" d="M220.94,-11.283C243.489,-12.2616 272,-13.499 297.639,-14.6117"/>
<polygon fill="midnightblue" stroke="midnightblue" points="220.853,-7.77599 210.711,-10.839 220.55,-14.7694 220.853,-7.77599"/>
</g>
</g>
</svg>
