<?xml version="1.0" encoding="UTF-8" standalone="no"?>
<!DOCTYPE svg PUBLIC "-//W3C//DTD SVG 1.1//EN"
 "http://www.w3.org/Graphics/SVG/1.1/DTD/svg11.dtd">
<!-- Generated by graphviz version 2.38.0 (20140413.2041)
 -->
<!-- Title: Apple/Common/CPPUtils.h Pages: 1 -->
<svg width="194pt" height="82pt"
 viewBox="0.00 0.00 193.82 82.00" xmlns="http://www.w3.org/2000/svg" xmlns:xlink="http://www.w3.org/1999/xlink">
<g id="graph0" class="graph" transform="scale(1 1) rotate(0) translate(4 78)">
<title>Apple/Common/CPPUtils.h</title>
<polygon fill="white" stroke="none" points="-4,4 -4,-78 189.825,-78 189.825,4 -4,4"/>
<!-- Node1 -->
<g id="node1" class="node"><title>Node1</title>
<polygon fill="#bfbfbf" stroke="black" points="46.5762,-55.5 46.5762,-73.5 182.62,-73.5 182.62,-55.5 46.5762,-55.5"/>
<text text-anchor="middle" x="114.598" y="-61.5" font-family="Helvetica,sans-Serif" font-size="10.00">Apple/Common/CPPUtils.h</text>
</g>
<!-- Node2 -->
<g id="node2" class="node"><title>Node2</title>
<polygon fill="white" stroke="#bfbfbf" points="0,-0.5 0,-18.5 127.196,-18.5 127.196,-0.5 0,-0.5"/>
<text text-anchor="middle" x="63.5981" y="-6.5" font-family="Helvetica,sans-Serif" font-size="10.00">Foundation/Foundation.h</text>
</g>
<!-- Node1&#45;&gt;Node2 -->
<g id="edge1" class="edge"><title>Node1&#45;&gt;Node2</title>
<path fill="none" stroke="midnightblue" d="M106.629,-55.2188C99.1003,-47.3944 87.6192,-35.4631 78.4094,-25.8921"/>
<polygon fill="midnightblue" stroke="midnightblue" points="80.7998,-23.3285 71.3439,-18.5496 75.7558,-28.1821 80.7998,-23.3285"/>
</g>
<!-- Node3 -->
<g id="node3" class="node"><title>Node3</title>
<polygon fill="white" stroke="#bfbfbf" points="145.372,-0.5 145.372,-18.5 185.825,-18.5 185.825,-0.5 145.372,-0.5"/>
<text text-anchor="middle" x="165.598" y="-6.5" font-family="Helvetica,sans-Serif" font-size="10.00">string</text>
</g>
<!-- Node1&#45;&gt;Node3 -->
<g id="edge2" class="edge"><title>Node1&#45;&gt;Node3</title>
<path fill="none" stroke="midnightblue" d="M122.567,-55.2188C130.096,-47.3944 141.577,-35.4631 150.787,-25.8921"/>
<polygon fill="midnightblue" stroke="midnightblue" points="153.441,-28.1821 157.852,-18.5496 148.396,-23.3285 153.441,-28.1821"/>
</g>
</g>
</svg>
