<?xml version="1.0" encoding="UTF-8" standalone="no"?>
<!DOCTYPE svg PUBLIC "-//W3C//DTD SVG 1.1//EN"
 "http://www.w3.org/Graphics/SVG/1.1/DTD/svg11.dtd">
<!-- Generated by graphviz version 2.38.0 (20140413.2041)
 -->
<!-- Title: Apple/Common/CPPUtils.mm Pages: 1 -->
<svg width="236pt" height="137pt"
 viewBox="0.00 0.00 235.77 137.00" xmlns="http://www.w3.org/2000/svg" xmlns:xlink="http://www.w3.org/1999/xlink">
<g id="graph0" class="graph" transform="scale(1 1) rotate(0) translate(4 133)">
<title>Apple/Common/CPPUtils.mm</title>
<polygon fill="white" stroke="none" points="-4,4 -4,-133 231.771,-133 231.771,4 -4,4"/>
<!-- Node1 -->
<g id="node1" class="node"><title>Node1</title>
<polygon fill="#bfbfbf" stroke="black" points="50.0269,-110.5 50.0269,-128.5 197.169,-128.5 197.169,-110.5 50.0269,-110.5"/>
<text text-anchor="middle" x="123.598" y="-116.5" font-family="Helvetica,sans-Serif" font-size="10.00">Apple/Common/CPPUtils.mm</text>
</g>
<!-- Node2 -->
<g id="node2" class="node"><title>Node2</title>
<g id="a_node2"><a xlink:href="_c_p_p_utils_8h.html" target="_top" xlink:title="CPPUtils.h">
<polygon fill="white" stroke="black" points="91.4258,-55.5 91.4258,-73.5 155.771,-73.5 155.771,-55.5 91.4258,-55.5"/>
<text text-anchor="middle" x="123.598" y="-61.5" font-family="Helvetica,sans-Serif" font-size="10.00">CPPUtils.h</text>
</a>
</g>
</g>
<!-- Node1&#45;&gt;Node2 -->
<g id="edge1" class="edge"><title>Node1&#45;&gt;Node2</title>
<path fill="none" stroke="midnightblue" d="M123.598,-110.219C123.598,-103.177 123.598,-92.8083 123.598,-83.8277"/>
<polygon fill="midnightblue" stroke="midnightblue" points="127.098,-83.5495 123.598,-73.5496 120.098,-83.5496 127.098,-83.5495"/>
</g>
<!-- Node3 -->
<g id="node3" class="node"><title>Node3</title>
<polygon fill="white" stroke="#bfbfbf" points="0,-0.5 0,-18.5 127.196,-18.5 127.196,-0.5 0,-0.5"/>
<text text-anchor="middle" x="63.5981" y="-6.5" font-family="Helvetica,sans-Serif" font-size="10.00">Foundation/Foundation.h</text>
</g>
<!-- Node1&#45;&gt;Node3 -->
<g id="edge4" class="edge"><title>Node1&#45;&gt;Node3</title>
<path fill="none" stroke="midnightblue" d="M113.784,-110.27C104.504,-101.994 90.8108,-88.4235 82.5981,-74 74.5832,-59.9237 69.6378,-42.1282 66.8097,-28.9596"/>
<polygon fill="midnightblue" stroke="midnightblue" points="70.1781,-27.943 64.8454,-18.788 63.3051,-29.2703 70.1781,-27.943"/>
</g>
<!-- Node5 -->
<g id="node5" class="node"><title>Node5</title>
<polygon fill="white" stroke="#bfbfbf" points="173.426,-55.5 173.426,-73.5 227.771,-73.5 227.771,-55.5 173.426,-55.5"/>
<text text-anchor="middle" x="200.598" y="-61.5" font-family="Helvetica,sans-Serif" font-size="10.00">iostream</text>
</g>
<!-- Node1&#45;&gt;Node5 -->
<g id="edge5" class="edge"><title>Node1&#45;&gt;Node5</title>
<path fill="none" stroke="midnightblue" d="M135.293,-110.45C147.278,-102.201 166.143,-89.2158 180.522,-79.3187"/>
<polygon fill="midnightblue" stroke="midnightblue" points="182.541,-82.1782 188.793,-73.6253 178.572,-76.4121 182.541,-82.1782"/>
</g>
<!-- Node2&#45;&gt;Node3 -->
<g id="edge2" class="edge"><title>Node2&#45;&gt;Node3</title>
<path fill="none" stroke="midnightblue" d="M114.485,-55.4504C105.499,-47.5123 91.5481,-35.1891 80.5248,-25.4519"/>
<polygon fill="midnightblue" stroke="midnightblue" points="82.6085,-22.6225 72.7966,-18.6253 77.9742,-27.8689 82.6085,-22.6225"/>
</g>
<!-- Node4 -->
<g id="node4" class="node"><title>Node4</title>
<polygon fill="white" stroke="#bfbfbf" points="145.372,-0.5 145.372,-18.5 185.825,-18.5 185.825,-0.5 145.372,-0.5"/>
<text text-anchor="middle" x="165.598" y="-6.5" font-family="Helvetica,sans-Serif" font-size="10.00">string</text>
</g>
<!-- Node2&#45;&gt;Node4 -->
<g id="edge3" class="edge"><title>Node2&#45;&gt;Node4</title>
<path fill="none" stroke="midnightblue" d="M130.161,-55.2188C136.237,-47.5509 145.439,-35.9387 152.943,-26.4691"/>
<polygon fill="midnightblue" stroke="midnightblue" points="155.752,-28.5608 159.219,-18.5496 150.265,-24.2132 155.752,-28.5608"/>
</g>
</g>
</svg>
