<?xml version="1.0" encoding="UTF-8" standalone="no"?>
<!DOCTYPE svg PUBLIC "-//W3C//DTD SVG 1.1//EN"
 "http://www.w3.org/Graphics/SVG/1.1/DTD/svg11.dtd">
<!-- Generated by graphviz version 2.38.0 (20140413.2041)
 -->
<!-- Title: Apple/Common/CPPUtils.h Pages: 1 -->
<svg width="2000pt" height="82pt"
 viewBox="0.00 0.00 2000.26 82.00" xmlns="http://www.w3.org/2000/svg" xmlns:xlink="http://www.w3.org/1999/xlink">
<g id="graph0" class="graph" transform="scale(1 1) rotate(0) translate(4 78)">
<title>Apple/Common/CPPUtils.h</title>
<polygon fill="white" stroke="none" points="-4,4 -4,-78 1996.26,-78 1996.26,4 -4,4"/>
<!-- Node1 -->
<g id="node1" class="node"><title>Node1</title>
<polygon fill="#bfbfbf" stroke="black" points="1026.55,-55.5 1026.55,-73.5 1162.6,-73.5 1162.6,-55.5 1026.55,-55.5"/>
<text text-anchor="middle" x="1094.58" y="-61.5" font-family="Helvetica,sans-Serif" font-size="10.00">Apple/Common/CPPUtils.h</text>
</g>
<!-- Node2 -->
<g id="node2" class="node"><title>Node2</title>
<g id="a_node2"><a xlink:href="_analytics_8mm.html" target="_top" xlink:title="Apple/Common/Analytics.mm">
<polygon fill="white" stroke="black" points="0,-0.5 0,-18.5 147.152,-18.5 147.152,-0.5 0,-0.5"/>
<text text-anchor="middle" x="73.5762" y="-6.5" font-family="Helvetica,sans-Serif" font-size="10.00">Apple/Common/Analytics.mm</text>
</a>
</g>
</g>
<!-- Node1&#45;&gt;Node2 -->
<g id="edge1" class="edge"><title>Node1&#45;&gt;Node2</title>
<path fill="none" stroke="midnightblue" d="M1016.15,-61.2662C854.841,-56.3448 474.265,-43.0499 155.576,-19 152.865,-18.7954 150.104,-18.5743 147.316,-18.3403"/>
<polygon fill="midnightblue" stroke="midnightblue" points="1016.35,-64.7738 1026.45,-61.5782 1016.56,-57.777 1016.35,-64.7738"/>
</g>
<!-- Node3 -->
<g id="node3" class="node"><title>Node3</title>
<g id="a_node3"><a xlink:href="_c_p_p_utils_8mm.html" target="_top" xlink:title="Apple/Common/CPPUtils.mm">
<polygon fill="white" stroke="black" points="165.005,-0.5 165.005,-18.5 312.147,-18.5 312.147,-0.5 165.005,-0.5"/>
<text text-anchor="middle" x="238.576" y="-6.5" font-family="Helvetica,sans-Serif" font-size="10.00">Apple/Common/CPPUtils.mm</text>
</a>
</g>
</g>
<!-- Node1&#45;&gt;Node3 -->
<g id="edge2" class="edge"><title>Node1&#45;&gt;Node3</title>
<path fill="none" stroke="midnightblue" d="M1016.34,-60.15C876.696,-53.9129 575.345,-39.2886 321.576,-19 318.544,-18.7576 315.451,-18.4977 312.327,-18.225"/>
<polygon fill="midnightblue" stroke="midnightblue" points="1016.37,-63.6548 1026.52,-60.6024 1016.69,-56.6617 1016.37,-63.6548"/>
</g>
<!-- Node4 -->
<g id="node4" class="node"><title>Node4</title>
<g id="a_node4"><a xlink:href="_common_2_game_kit_8mm.html" target="_top" xlink:title="Apple/Common/GameKit.mm">
<polygon fill="white" stroke="black" points="330.557,-0.5 330.557,-18.5 476.596,-18.5 476.596,-0.5 330.557,-0.5"/>
<text text-anchor="middle" x="403.576" y="-6.5" font-family="Helvetica,sans-Serif" font-size="10.00">Apple/Common/GameKit.mm</text>
</a>
</g>
</g>
<!-- Node1&#45;&gt;Node4 -->
<g id="edge3" class="edge"><title>Node1&#45;&gt;Node4</title>
<path fill="none" stroke="midnightblue" d="M1016.28,-58.5413C900.283,-51.0226 675.981,-35.8211 485.576,-19 482.725,-18.7481 479.818,-18.4837 476.883,-18.2102"/>
<polygon fill="midnightblue" stroke="midnightblue" points="1016.27,-62.0483 1026.48,-59.2009 1016.73,-55.0629 1016.27,-62.0483"/>
</g>
<!-- Node5 -->
<g id="node5" class="node"><title>Node5</title>
<g id="a_node5"><a xlink:href="_i_a_p_kit_8mm.html" target="_top" xlink:title="Apple/Common/IAPKit.mm">
<polygon fill="white" stroke="black" points="494.113,-0.5 494.113,-18.5 629.039,-18.5 629.039,-0.5 494.113,-0.5"/>
<text text-anchor="middle" x="561.576" y="-6.5" font-family="Helvetica,sans-Serif" font-size="10.00">Apple/Common/IAPKit.mm</text>
</a>
</g>
</g>
<!-- Node1&#45;&gt;Node5 -->
<g id="edge4" class="edge"><title>Node1&#45;&gt;Node5</title>
<path fill="none" stroke="midnightblue" d="M1016.45,-56.2354C925.431,-47.6926 770.544,-32.9088 637.576,-19 634.803,-18.7099 631.974,-18.4103 629.116,-18.1045"/>
<polygon fill="midnightblue" stroke="midnightblue" points="1016.13,-59.7205 1026.41,-57.1694 1016.78,-52.7511 1016.13,-59.7205"/>
</g>
<!-- Node6 -->
<g id="node6" class="node"><title>Node6</title>
<g id="a_node6"><a xlink:href="_k_v_database_8mm.html" target="_top" xlink:title="Apple/Common/KVDatabase.mm">
<polygon fill="white" stroke="black" points="646.934,-0.5 646.934,-18.5 810.219,-18.5 810.219,-0.5 646.934,-0.5"/>
<text text-anchor="middle" x="728.576" y="-6.5" font-family="Helvetica,sans-Serif" font-size="10.00">Apple/Common/KVDatabase.mm</text>
</a>
</g>
</g>
<!-- Node1&#45;&gt;Node6 -->
<g id="edge5" class="edge"><title>Node1&#45;&gt;Node6</title>
<path fill="none" stroke="midnightblue" d="M1028.98,-54.0012C959.138,-43.8874 849.809,-28.0556 784.086,-18.5383"/>
<polygon fill="midnightblue" stroke="midnightblue" points="1028.59,-57.4811 1038.99,-55.4504 1029.59,-50.5533 1028.59,-57.4811"/>
</g>
<!-- Node7 -->
<g id="node7" class="node"><title>Node7</title>
<g id="a_node7"><a xlink:href="_receipt_validator_8mm.html" target="_top" xlink:title="Apple/Common/ReceiptValidator.mm">
<polygon fill="white" stroke="black" points="827.962,-0.5 827.962,-18.5 1007.19,-18.5 1007.19,-0.5 827.962,-0.5"/>
<text text-anchor="middle" x="917.576" y="-6.5" font-family="Helvetica,sans-Serif" font-size="10.00">Apple/Common/ReceiptValidator.mm</text>
</a>
</g>
</g>
<!-- Node1&#45;&gt;Node7 -->
<g id="edge6" class="edge"><title>Node1&#45;&gt;Node7</title>
<path fill="none" stroke="midnightblue" d="M1057.74,-52.4689C1023.93,-42.3454 974.642,-27.5875 944.421,-18.5383"/>
<polygon fill="midnightblue" stroke="midnightblue" points="1057.11,-55.9348 1067.69,-55.4504 1059.12,-49.2289 1057.11,-55.9348"/>
</g>
<!-- Node8 -->
<g id="node8" class="node"><title>Node8</title>
<g id="a_node8"><a xlink:href="i_o_s_2_a_b_database_8mm.html" target="_top" xlink:title="Apple/iOS/ABDatabase.mm">
<polygon fill="white" stroke="black" points="1024.88,-0.5 1024.88,-18.5 1164.27,-18.5 1164.27,-0.5 1024.88,-0.5"/>
<text text-anchor="middle" x="1094.58" y="-6.5" font-family="Helvetica,sans-Serif" font-size="10.00">Apple/iOS/ABDatabase.mm</text>
</a>
</g>
</g>
<!-- Node1&#45;&gt;Node8 -->
<g id="edge7" class="edge"><title>Node1&#45;&gt;Node8</title>
<path fill="none" stroke="midnightblue" d="M1094.58,-45.1746C1094.58,-36.0945 1094.58,-25.5949 1094.58,-18.5496"/>
<polygon fill="midnightblue" stroke="midnightblue" points="1091.08,-45.2187 1094.58,-55.2188 1098.08,-45.2188 1091.08,-45.2187"/>
</g>
<!-- Node9 -->
<g id="node9" class="node"><title>Node9</title>
<g id="a_node9"><a xlink:href="i_o_s_2_ad_kit_8mm.html" target="_top" xlink:title="Apple/iOS/AdKit.mm">
<polygon fill="white" stroke="black" points="1182,-0.5 1182,-18.5 1289.15,-18.5 1289.15,-0.5 1182,-0.5"/>
<text text-anchor="middle" x="1235.58" y="-6.5" font-family="Helvetica,sans-Serif" font-size="10.00">Apple/iOS/AdKit.mm</text>
</a>
</g>
</g>
<!-- Node1&#45;&gt;Node9 -->
<g id="edge8" class="edge"><title>Node1&#45;&gt;Node9</title>
<path fill="none" stroke="midnightblue" d="M1125.65,-51.8192C1152.42,-41.7556 1190.38,-27.4894 1213.96,-18.6253"/>
<polygon fill="midnightblue" stroke="midnightblue" points="1124.12,-48.6557 1115.99,-55.4504 1126.58,-55.2081 1124.12,-48.6557"/>
</g>
<!-- Node10 -->
<g id="node10" class="node"><title>Node10</title>
<g id="a_node10"><a xlink:href="i_o_s_2_device_8mm.html" target="_top" xlink:title="Apple/iOS/Device.mm">
<polygon fill="white" stroke="black" points="1306.67,-0.5 1306.67,-18.5 1420.48,-18.5 1420.48,-0.5 1306.67,-0.5"/>
<text text-anchor="middle" x="1363.58" y="-6.5" font-family="Helvetica,sans-Serif" font-size="10.00">Apple/iOS/Device.mm</text>
</a>
</g>
</g>
<!-- Node1&#45;&gt;Node10 -->
<g id="edge9" class="edge"><title>Node1&#45;&gt;Node10</title>
<path fill="none" stroke="midnightblue" d="M1145.33,-53.4992C1196.75,-43.37 1275.27,-27.8996 1322.78,-18.5383"/>
<polygon fill="midnightblue" stroke="midnightblue" points="1144.57,-50.0833 1135.43,-55.4504 1145.92,-56.9512 1144.57,-50.0833"/>
</g>
<!-- Node11 -->
<g id="node11" class="node"><title>Node11</title>
<g id="a_node11"><a xlink:href="i_o_s_2_facebook_8mm.html" target="_top" xlink:title="Apple/iOS/Facebook.mm">
<polygon fill="white" stroke="black" points="1438,-0.5 1438,-18.5 1565.15,-18.5 1565.15,-0.5 1438,-0.5"/>
<text text-anchor="middle" x="1501.58" y="-6.5" font-family="Helvetica,sans-Serif" font-size="10.00">Apple/iOS/Facebook.mm</text>
</a>
</g>
</g>
<!-- Node1&#45;&gt;Node11 -->
<g id="edge10" class="edge"><title>Node1&#45;&gt;Node11</title>
<path fill="none" stroke="midnightblue" d="M1166.57,-54.1252C1244.19,-44.0172 1366.46,-28.0946 1439.85,-18.5383"/>
<polygon fill="midnightblue" stroke="midnightblue" points="1165.86,-50.6884 1156.39,-55.4504 1166.76,-57.6297 1165.86,-50.6884"/>
</g>
<!-- Node12 -->
<g id="node12" class="node"><title>Node12</title>
<g id="a_node12"><a xlink:href="i_o_s_2_game_kit_8mm.html" target="_top" xlink:title="Apple/iOS/GameKit.mm">
<polygon fill="white" stroke="black" points="1583.5,-0.5 1583.5,-18.5 1705.65,-18.5 1705.65,-0.5 1583.5,-0.5"/>
<text text-anchor="middle" x="1644.58" y="-6.5" font-family="Helvetica,sans-Serif" font-size="10.00">Apple/iOS/GameKit.mm</text>
</a>
</g>
</g>
<!-- Node1&#45;&gt;Node12 -->
<g id="edge11" class="edge"><title>Node1&#45;&gt;Node12</title>
<path fill="none" stroke="midnightblue" d="M1172.71,-56.9429C1267.75,-48.8073 1433.07,-34.1482 1574.58,-19 1577.5,-18.6873 1580.49,-18.3585 1583.5,-18.0194"/>
<polygon fill="midnightblue" stroke="midnightblue" points="1172.27,-53.4676 1162.6,-57.8059 1172.86,-60.4422 1172.27,-53.4676"/>
</g>
<!-- Node13 -->
<g id="node13" class="node"><title>Node13</title>
<g id="a_node13"><a xlink:href="_o_s_01_x_2_device_8mm.html" target="_top" xlink:title="Apple/OS X/Device.mm">
<polygon fill="white" stroke="black" points="1724.06,-0.5 1724.06,-18.5 1845.09,-18.5 1845.09,-0.5 1724.06,-0.5"/>
<text text-anchor="middle" x="1784.58" y="-6.5" font-family="Helvetica,sans-Serif" font-size="10.00">Apple/OS X/Device.mm</text>
</a>
</g>
</g>
<!-- Node1&#45;&gt;Node13 -->
<g id="edge12" class="edge"><title>Node1&#45;&gt;Node13</title>
<path fill="none" stroke="midnightblue" d="M1173.03,-59.1099C1290.78,-52.2394 1520.18,-37.7676 1714.58,-19 1717.62,-18.7059 1720.74,-18.3882 1723.89,-18.0543"/>
<polygon fill="midnightblue" stroke="midnightblue" points="1172.8,-55.6172 1163.02,-59.6912 1173.2,-62.6054 1172.8,-55.6172"/>
</g>
<!-- Node14 -->
<g id="node14" class="node"><title>Node14</title>
<g id="a_node14"><a xlink:href="_o_s_01_x_2_game_kit_8mm.html" target="_top" xlink:title="Apple/OS X/GameKit.mm">
<polygon fill="white" stroke="black" points="1862.89,-0.5 1862.89,-18.5 1992.26,-18.5 1992.26,-0.5 1862.89,-0.5"/>
<text text-anchor="middle" x="1927.58" y="-6.5" font-family="Helvetica,sans-Serif" font-size="10.00">Apple/OS X/GameKit.mm</text>
</a>
</g>
</g>
<!-- Node1&#45;&gt;Node14 -->
<g id="edge13" class="edge"><title>Node1&#45;&gt;Node14</title>
<path fill="none" stroke="midnightblue" d="M1172.85,-60.4011C1310.77,-54.6098 1606.02,-40.7296 1854.58,-19 1857.25,-18.7666 1859.97,-18.5144 1862.72,-18.2479"/>
<polygon fill="midnightblue" stroke="midnightblue" points="1172.64,-56.9067 1162.8,-60.8207 1172.94,-63.9007 1172.64,-56.9067"/>
</g>
</g>
</svg>
