<?xml version="1.0" encoding="UTF-8" standalone="no"?>
<!DOCTYPE svg PUBLIC "-//W3C//DTD SVG 1.1//EN"
 "http://www.w3.org/Graphics/SVG/1.1/DTD/svg11.dtd">
<!-- Generated by graphviz version 2.38.0 (20140413.2041)
 -->
<!-- Title: itoh Pages: 1 -->
<svg width="294pt" height="27pt"
 viewBox="0.00 0.00 294.20 27.00" xmlns="http://www.w3.org/2000/svg" xmlns:xlink="http://www.w3.org/1999/xlink">
<g id="graph0" class="graph" transform="scale(1 1) rotate(0) translate(4 23)">
<title>itoh</title>
<polygon fill="white" stroke="none" points="-4,4 -4,-23 290.196,-23 290.196,4 -4,4"/>
<!-- Node1 -->
<g id="node1" class="node"><title>Node1</title>
<polygon fill="#bfbfbf" stroke="black" points="0,-0.5 0,-18.5 32.123,-18.5 32.123,-0.5 0,-0.5"/>
<text text-anchor="middle" x="16.0615" y="-6.5" font-family="Helvetica,sans-Serif" font-size="10.00">itoh</text>
</g>
<!-- Node2 -->
<g id="node2" class="node"><title>Node2</title>
<g id="a_node2"><a xlink:href="_c_p_p_utils_8mm.html#afdab0150d60cda7674034a9e4e4dd484" target="_top" xlink:title="Returns NSString with hexadecimal representation of given NSData. ">
<polygon fill="white" stroke="black" points="68.123,-0.5 68.123,-18.5 147.482,-18.5 147.482,-0.5 68.123,-0.5"/>
<text text-anchor="middle" x="107.803" y="-6.5" font-family="Helvetica,sans-Serif" font-size="10.00">NSDataToHex</text>
</a>
</g>
</g>
<!-- Node1&#45;&gt;Node2 -->
<g id="edge1" class="edge"><title>Node1&#45;&gt;Node2</title>
<path fill="none" stroke="midnightblue" d="M42.3508,-9.5C50.2851,-9.5 59.2355,-9.5 67.8854,-9.5"/>
<polygon fill="midnightblue" stroke="midnightblue" points="42.2849,-6.0001 32.2849,-9.5 42.2849,-13.0001 42.2849,-6.0001"/>
</g>
<!-- Node3 -->
<g id="node3" class="node"><title>Node3</title>
<g id="a_node3"><a xlink:href="_o_s_01_x_2_device_8mm.html#ae92bd57965d1e7252665aad1916433fd" target="_top" xlink:title="copy_mac_address">
<polygon fill="white" stroke="black" points="183.482,-0.5 183.482,-18.5 286.196,-18.5 286.196,-0.5 183.482,-0.5"/>
<text text-anchor="middle" x="234.839" y="-6.5" font-family="Helvetica,sans-Serif" font-size="10.00">copy_mac_address</text>
</a>
</g>
</g>
<!-- Node2&#45;&gt;Node3 -->
<g id="edge2" class="edge"><title>Node2&#45;&gt;Node3</title>
<path fill="none" stroke="midnightblue" d="M157.762,-9.5C166.206,-9.5 174.995,-9.5 183.475,-9.5"/>
<polygon fill="midnightblue" stroke="midnightblue" points="157.68,-6.0001 147.68,-9.5 157.68,-13.0001 157.68,-6.0001"/>
</g>
</g>
</svg>
