<?xml version="1.0" encoding="UTF-8" standalone="no"?>
<!DOCTYPE svg PUBLIC "-//W3C//DTD SVG 1.1//EN"
 "http://www.w3.org/Graphics/SVG/1.1/DTD/svg11.dtd">
<!-- Generated by graphviz version 2.38.0 (20140413.2041)
 -->
<!-- Title: HexToNSData Pages: 1 -->
<svg width="460pt" height="47pt"
 viewBox="0.00 0.00 460.03 47.00" xmlns="http://www.w3.org/2000/svg" xmlns:xlink="http://www.w3.org/1999/xlink">
<g id="graph0" class="graph" transform="scale(1 1) rotate(0) translate(4 43)">
<title>HexToNSData</title>
<polygon fill="white" stroke="none" points="-4,4 -4,-43 456.026,-43 456.026,4 -4,4"/>
<!-- Node1 -->
<g id="node1" class="node"><title>Node1</title>
<polygon fill="#bfbfbf" stroke="black" points="0,-10.5 0,-28.5 79.3594,-28.5 79.3594,-10.5 0,-10.5"/>
<text text-anchor="middle" x="39.6797" y="-16.5" font-family="Helvetica,sans-Serif" font-size="10.00">HexToNSData</text>
</g>
<!-- Node2 -->
<g id="node2" class="node"><title>Node2</title>
<g id="a_node2"><a xlink:href="interface_receipt_validator.html#ab2df585c981dfc992ad4fe8fa09de347" target="_top" xlink:title="+[ReceiptValidator\l receiptAtURL:isValidForBundle\lID:andVersion:]">
<polygon fill="white" stroke="black" points="115.359,-0.5 115.359,-38.5 271.242,-38.5 271.242,-0.5 115.359,-0.5"/>
<text text-anchor="start" x="123.359" y="-26.5" font-family="Helvetica,sans-Serif" font-size="10.00">+[ReceiptValidator</text>
<text text-anchor="start" x="123.359" y="-16.5" font-family="Helvetica,sans-Serif" font-size="10.00"> receiptAtURL:isValidForBundle</text>
<text text-anchor="middle" x="193.301" y="-6.5" font-family="Helvetica,sans-Serif" font-size="10.00">ID:andVersion:]</text>
</a>
</g>
</g>
<!-- Node1&#45;&gt;Node2 -->
<g id="edge1" class="edge"><title>Node1&#45;&gt;Node2</title>
<path fill="none" stroke="midnightblue" d="M89.7348,-19.5C97.8618,-19.5 106.459,-19.5 115.081,-19.5"/>
<polygon fill="midnightblue" stroke="midnightblue" points="89.7259,-16.0001 79.7259,-19.5 89.7259,-23.0001 89.7259,-16.0001"/>
</g>
<!-- Node3 -->
<g id="node3" class="node"><title>Node3</title>
<g id="a_node3"><a xlink:href="interface_receipt_validator.html#a820c68148ab2fedccc43588f8d79dea6" target="_top" xlink:title="+[ReceiptValidator\l appReceiptIsValidForBundle\lID:andVersion:]">
<polygon fill="white" stroke="black" points="307.242,-0.5 307.242,-38.5 452.026,-38.5 452.026,-0.5 307.242,-0.5"/>
<text text-anchor="start" x="315.242" y="-26.5" font-family="Helvetica,sans-Serif" font-size="10.00">+[ReceiptValidator</text>
<text text-anchor="start" x="315.242" y="-16.5" font-family="Helvetica,sans-Serif" font-size="10.00"> appReceiptIsValidForBundle</text>
<text text-anchor="middle" x="379.634" y="-6.5" font-family="Helvetica,sans-Serif" font-size="10.00">ID:andVersion:]</text>
</a>
</g>
</g>
<!-- Node2&#45;&gt;Node3 -->
<g id="edge2" class="edge"><title>Node2&#45;&gt;Node3</title>
<path fill="none" stroke="midnightblue" d="M281.459,-19.5C290.059,-19.5 298.719,-19.5 307.135,-19.5"/>
<polygon fill="midnightblue" stroke="midnightblue" points="281.407,-16.0001 271.407,-19.5 281.407,-23.0001 281.407,-16.0001"/>
</g>
</g>
</svg>
