<?xml version="1.0" encoding="UTF-8" standalone="no"?>
<!DOCTYPE svg PUBLIC "-//W3C//DTD SVG 1.1//EN"
 "http://www.w3.org/Graphics/SVG/1.1/DTD/svg11.dtd">
<!-- Generated by graphviz version 2.38.0 (20140413.2041)
 -->
<!-- Title: to_nsarray Pages: 1 -->
<svg width="433pt" height="55pt"
 viewBox="0.00 0.00 432.97 55.00" xmlns="http://www.w3.org/2000/svg" xmlns:xlink="http://www.w3.org/1999/xlink">
<g id="graph0" class="graph" transform="scale(1 1) rotate(0) translate(4 51)">
<title>to_nsarray</title>
<polygon fill="white" stroke="none" points="-4,4 -4,-51 428.966,-51 428.966,4 -4,4"/>
<!-- Node1 -->
<g id="node1" class="node"><title>Node1</title>
<polygon fill="#bfbfbf" stroke="black" points="0,-5.5 0,-23.5 63.2461,-23.5 63.2461,-5.5 0,-5.5"/>
<text text-anchor="middle" x="31.623" y="-11.5" font-family="Helvetica,sans-Serif" font-size="10.00">to_nsarray</text>
</g>
<!-- Node2 -->
<g id="node2" class="node"><title>Node2</title>
<g id="a_node2"><a xlink:href="interface_reward_video_delegate.html#a0bfa3f23795d0ad8cedcb3c7601b9305" target="_top" xlink:title="&#45;[RewardVideoDelegate\l requestNewRewardVideo]">
<polygon fill="white" stroke="black" points="99.2461,-0.5 99.2461,-28.5 234.021,-28.5 234.021,-0.5 99.2461,-0.5"/>
<text text-anchor="start" x="107.246" y="-16.5" font-family="Helvetica,sans-Serif" font-size="10.00">&#45;[RewardVideoDelegate</text>
<text text-anchor="middle" x="166.633" y="-6.5" font-family="Helvetica,sans-Serif" font-size="10.00"> requestNewRewardVideo]</text>
</a>
</g>
</g>
<!-- Node1&#45;&gt;Node2 -->
<g id="edge1" class="edge"><title>Node1&#45;&gt;Node2</title>
<path fill="none" stroke="midnightblue" d="M73.7343,-14.5C81.8375,-14.5 90.5327,-14.5 99.2256,-14.5"/>
<polygon fill="midnightblue" stroke="midnightblue" points="73.4726,-11.0001 63.4726,-14.5 73.4726,-18.0001 73.4726,-11.0001"/>
</g>
<!-- Node2&#45;&gt;Node2 -->
<g id="edge3" class="edge"><title>Node2&#45;&gt;Node2</title>
<path fill="none" stroke="midnightblue" d="M142.41,-38.4873C144.982,-43.4413 153.057,-47 166.633,-47 188.356,-47 195.993,-37.8898 189.544,-28.5305"/>
<polygon fill="midnightblue" stroke="midnightblue" points="145.886,-38.9022 143.723,-28.5305 138.946,-37.9872 145.886,-38.9022"/>
</g>
<!-- Node3 -->
<g id="node3" class="node"><title>Node3</title>
<g id="a_node3"><a xlink:href="interface_reward_video_delegate.html#a5d8713e80adf05ec03e68072d573ad06" target="_top" xlink:title="&#45;[RewardVideoDelegate\l initWithAdUnitID:andCallback:]">
<polygon fill="white" stroke="black" points="270.021,-0.5 270.021,-28.5 424.966,-28.5 424.966,-0.5 270.021,-0.5"/>
<text text-anchor="start" x="278.021" y="-16.5" font-family="Helvetica,sans-Serif" font-size="10.00">&#45;[RewardVideoDelegate</text>
<text text-anchor="middle" x="347.493" y="-6.5" font-family="Helvetica,sans-Serif" font-size="10.00"> initWithAdUnitID:andCallback:]</text>
</a>
</g>
</g>
<!-- Node2&#45;&gt;Node3 -->
<g id="edge2" class="edge"><title>Node2&#45;&gt;Node3</title>
<path fill="none" stroke="midnightblue" d="M244.429,-14.5C252.866,-14.5 261.456,-14.5 269.891,-14.5"/>
<polygon fill="midnightblue" stroke="midnightblue" points="244.234,-11.0001 234.234,-14.5 244.234,-18.0001 244.234,-11.0001"/>
</g>
</g>
</svg>
