<?xml version="1.0" encoding="UTF-8" standalone="no"?>
<!DOCTYPE svg PUBLIC "-//W3C//DTD SVG 1.1//EN"
 "http://www.w3.org/Graphics/SVG/1.1/DTD/svg11.dtd">
<!-- Generated by graphviz version 2.38.0 (20140413.2041)
 -->
<!-- Title: CompilerEnhancements.hpp Pages: 1 -->
<svg width="150pt" height="137pt"
 viewBox="0.00 0.00 150.18 137.00" xmlns="http://www.w3.org/2000/svg" xmlns:xlink="http://www.w3.org/1999/xlink">
<g id="graph0" class="graph" transform="scale(1 1) rotate(0) translate(4 133)">
<title>CompilerEnhancements.hpp</title>
<polygon fill="white" stroke="none" points="-4,4 -4,-133 146.182,-133 146.182,4 -4,4"/>
<!-- Node1 -->
<g id="node1" class="node"><title>Node1</title>
<polygon fill="#bfbfbf" stroke="black" points="0,-110.5 0,-128.5 142.182,-128.5 142.182,-110.5 0,-110.5"/>
<text text-anchor="middle" x="71.0908" y="-116.5" font-family="Helvetica,sans-Serif" font-size="10.00">CompilerEnhancements.hpp</text>
</g>
<!-- Node2 -->
<g id="node2" class="node"><title>Node2</title>
<g id="a_node2"><a xlink:href="_range_8hpp.html" target="_top" xlink:title="Range.hpp">
<polygon fill="white" stroke="black" points="38.6255,-55.5 38.6255,-73.5 103.556,-73.5 103.556,-55.5 38.6255,-55.5"/>
<text text-anchor="middle" x="71.0908" y="-61.5" font-family="Helvetica,sans-Serif" font-size="10.00">Range.hpp</text>
</a>
</g>
</g>
<!-- Node1&#45;&gt;Node2 -->
<g id="edge1" class="edge"><title>Node1&#45;&gt;Node2</title>
<path fill="none" stroke="midnightblue" d="M71.0908,-100.175C71.0908,-91.0945 71.0908,-80.5949 71.0908,-73.5496"/>
<polygon fill="midnightblue" stroke="midnightblue" points="67.5909,-100.219 71.0908,-110.219 74.5909,-100.219 67.5909,-100.219"/>
</g>
<!-- Node3 -->
<g id="node3" class="node"><title>Node3</title>
<g id="a_node3"><a xlink:href="_ad_kit_8cpp.html" target="_top" xlink:title="AdKit.cpp">
<polygon fill="white" stroke="black" points="3.68945,-0.5 3.68945,-18.5 62.4922,-18.5 62.4922,-0.5 3.68945,-0.5"/>
<text text-anchor="middle" x="33.0908" y="-6.5" font-family="Helvetica,sans-Serif" font-size="10.00">AdKit.cpp</text>
</a>
</g>
</g>
<!-- Node2&#45;&gt;Node3 -->
<g id="edge2" class="edge"><title>Node2&#45;&gt;Node3</title>
<path fill="none" stroke="midnightblue" d="M59.2253,-46.9507C52.4451,-37.4941 44.2467,-26.0595 38.8622,-18.5496"/>
<polygon fill="midnightblue" stroke="midnightblue" points="56.482,-49.1312 65.1533,-55.2188 62.1708,-45.0523 56.482,-49.1312"/>
</g>
<!-- Node4 -->
<g id="node4" class="node"><title>Node4</title>
<g id="a_node4"><a xlink:href="_maw_kit_8h.html" target="_top" xlink:title="MawKit.h">
<polygon fill="white" stroke="black" points="80.5293,-0.5 80.5293,-18.5 137.652,-18.5 137.652,-0.5 80.5293,-0.5"/>
<text text-anchor="middle" x="109.091" y="-6.5" font-family="Helvetica,sans-Serif" font-size="10.00">MawKit.h</text>
</a>
</g>
</g>
<!-- Node2&#45;&gt;Node4 -->
<g id="edge3" class="edge"><title>Node2&#45;&gt;Node4</title>
<path fill="none" stroke="midnightblue" d="M82.9563,-46.9507C89.7366,-37.4941 97.935,-26.0595 103.319,-18.5496"/>
<polygon fill="midnightblue" stroke="midnightblue" points="80.0108,-45.0523 77.0283,-55.2188 85.6997,-49.1312 80.0108,-45.0523"/>
</g>
</g>
</svg>
