<?xml version="1.0" encoding="UTF-8" standalone="no"?>
<!DOCTYPE svg PUBLIC "-//W3C//DTD SVG 1.1//EN"
 "http://www.w3.org/Graphics/SVG/1.1/DTD/svg11.dtd">
<!-- Generated by graphviz version 2.38.0 (20140413.2041)
 -->
<!-- Title: Apple/Common/Device.mm Pages: 1 -->
<svg width="402pt" height="137pt"
 viewBox="0.00 0.00 401.89 137.00" xmlns="http://www.w3.org/2000/svg" xmlns:xlink="http://www.w3.org/1999/xlink">
<g id="graph0" class="graph" transform="scale(1 1) rotate(0) translate(4 133)">
<title>Apple/Common/Device.mm</title>
<polygon fill="white" stroke="none" points="-4,4 -4,-133 397.89,-133 397.89,4 -4,4"/>
<!-- Node1 -->
<g id="node1" class="node"><title>Node1</title>
<polygon fill="#bfbfbf" stroke="black" points="108.375,-110.5 108.375,-128.5 246.079,-128.5 246.079,-110.5 108.375,-110.5"/>
<text text-anchor="middle" x="177.227" y="-116.5" font-family="Helvetica,sans-Serif" font-size="10.00">Apple/Common/Device.mm</text>
</g>
<!-- Node2 -->
<g id="node2" class="node"><title>Node2</title>
<g id="a_node2"><a xlink:href="_device_8hpp.html" target="_top" xlink:title="../../Device.hpp">
<polygon fill="white" stroke="black" points="12.877,-55.5 12.877,-73.5 95.5762,-73.5 95.5762,-55.5 12.877,-55.5"/>
<text text-anchor="middle" x="54.2266" y="-61.5" font-family="Helvetica,sans-Serif" font-size="10.00">../../Device.hpp</text>
</a>
</g>
</g>
<!-- Node1&#45;&gt;Node2 -->
<g id="edge1" class="edge"><title>Node1&#45;&gt;Node2</title>
<path fill="none" stroke="midnightblue" d="M158.546,-110.45C138.317,-101.734 105.818,-87.7306 82.4682,-77.6691"/>
<polygon fill="midnightblue" stroke="midnightblue" points="83.6522,-74.3683 73.0834,-73.6253 80.8821,-80.7969 83.6522,-74.3683"/>
</g>
<!-- Node5 -->
<g id="node5" class="node"><title>Node5</title>
<polygon fill="white" stroke="#bfbfbf" points="113.628,-55.5 113.628,-73.5 240.825,-73.5 240.825,-55.5 113.628,-55.5"/>
<text text-anchor="middle" x="177.227" y="-61.5" font-family="Helvetica,sans-Serif" font-size="10.00">Foundation/Foundation.h</text>
</g>
<!-- Node1&#45;&gt;Node5 -->
<g id="edge4" class="edge"><title>Node1&#45;&gt;Node5</title>
<path fill="none" stroke="midnightblue" d="M177.227,-110.219C177.227,-103.177 177.227,-92.8083 177.227,-83.8277"/>
<polygon fill="midnightblue" stroke="midnightblue" points="180.727,-83.5495 177.227,-73.5496 173.727,-83.5496 180.727,-83.5495"/>
</g>
<!-- Node6 -->
<g id="node6" class="node"><title>Node6</title>
<polygon fill="white" stroke="#bfbfbf" points="258.563,-55.5 258.563,-73.5 393.89,-73.5 393.89,-55.5 258.563,-55.5"/>
<text text-anchor="middle" x="326.227" y="-61.5" font-family="Helvetica,sans-Serif" font-size="10.00">Reachability/Reachability.h</text>
</g>
<!-- Node1&#45;&gt;Node6 -->
<g id="edge5" class="edge"><title>Node1&#45;&gt;Node6</title>
<path fill="none" stroke="midnightblue" d="M199.856,-110.45C224.908,-101.539 265.494,-87.1029 293.893,-77.0014"/>
<polygon fill="midnightblue" stroke="midnightblue" points="295.135,-80.2743 303.384,-73.6253 292.789,-73.6791 295.135,-80.2743"/>
</g>
<!-- Node3 -->
<g id="node3" class="node"><title>Node3</title>
<polygon fill="white" stroke="#bfbfbf" points="0,-0.5 0,-18.5 40.4531,-18.5 40.4531,-0.5 0,-0.5"/>
<text text-anchor="middle" x="20.2266" y="-6.5" font-family="Helvetica,sans-Serif" font-size="10.00">string</text>
</g>
<!-- Node2&#45;&gt;Node3 -->
<g id="edge2" class="edge"><title>Node2&#45;&gt;Node3</title>
<path fill="none" stroke="midnightblue" d="M48.9141,-55.2188C44.0955,-47.7074 36.8487,-36.411 30.8445,-27.0515"/>
<polygon fill="midnightblue" stroke="midnightblue" points="33.736,-25.0767 25.3904,-18.5496 27.8441,-28.8564 33.736,-25.0767"/>
</g>
<!-- Node4 -->
<g id="node4" class="node"><title>Node4</title>
<polygon fill="white" stroke="#bfbfbf" points="58.4336,-0.5 58.4336,-18.5 120.02,-18.5 120.02,-0.5 58.4336,-0.5"/>
<text text-anchor="middle" x="89.2266" y="-6.5" font-family="Helvetica,sans-Serif" font-size="10.00">cocos2d.h</text>
</g>
<!-- Node2&#45;&gt;Node4 -->
<g id="edge3" class="edge"><title>Node2&#45;&gt;Node4</title>
<path fill="none" stroke="midnightblue" d="M59.6953,-55.2188C64.6556,-47.7074 72.1155,-36.411 78.2963,-27.0515"/>
<polygon fill="midnightblue" stroke="midnightblue" points="81.3208,-28.823 83.9108,-18.5496 75.4795,-24.9655 81.3208,-28.823"/>
</g>
</g>
</svg>
