<?xml version="1.0" encoding="UTF-8" standalone="no"?>
<!DOCTYPE svg PUBLIC "-//W3C//DTD SVG 1.1//EN"
 "http://www.w3.org/Graphics/SVG/1.1/DTD/svg11.dtd">
<!-- Generated by graphviz version 2.38.0 (20140413.2041)
 -->
<!-- Title: Apple/Common/GameKit.mm Pages: 1 -->
<!--zoomable 247 -->
<svg id="main" version="1.1" xmlns="http://www.w3.org/2000/svg" xmlns:xlink="http://www.w3.org/1999/xlink" xml:space="preserve" onload="init(evt)">
<style type="text/css"><![CDATA[
.edge:hover path { stroke: red; }
.edge:hover polygon { stroke: red; fill: red; }
]]></style>
<script type="text/javascript"><![CDATA[
var edges = document.getElementsByTagName('g');
if (edges && edges.length) {
  for (var i=0;i<edges.length;i++) {
    if (edges[i].id.substr(0,4)=='edge') {
      edges[i].setAttribute('class','edge');
    }
  }
}
]]></script>
        <defs>
                <circle id="rim" cx="0" cy="0" r="7"/>
                <circle id="rim2" cx="0" cy="0" r="3.5"/>
                <g id="zoomPlus">
                        <use xlink:href="#rim" fill="#404040">
                                <set attributeName="fill" to="#808080" begin="zoomplus.mouseover" end="zoomplus.mouseout"/>
                        </use>
                        <path d="M-4,0h8M0,-4v8" fill="none" stroke="white" stroke-width="1.5" pointer-events="none"/>
                </g>
                <g id="zoomMin">
                        <use xlink:href="#rim" fill="#404040">
                                <set attributeName="fill" to="#808080" begin="zoomminus.mouseover" end="zoomminus.mouseout"/>
                        </use>
                        <path d="M-4,0h8" fill="none" stroke="white" stroke-width="1.5" pointer-events="none"/>
                </g>
                <g id="dirArrow">
                        <path fill="none" stroke="white" stroke-width="1.5" d="M0,-3.0v7 M-2.5,-0.5L0,-3.0L2.5,-0.5"/>
                </g>
               <g id="resetDef">
                       <use xlink:href="#rim2" fill="#404040">
                               <set attributeName="fill" to="#808080" begin="reset.mouseover" end="reset.mouseout"/>
                       </use>
               </g>
        </defs>

<script type="text/javascript">
var viewWidth = 705;
var viewHeight = 247;
var sectionId = 'dynsection-0';
</script>
<script xlink:href="svgpan.js"/>
<svg id="graph" class="graph">
<g id="viewport">
<title>Apple/Common/GameKit.mm</title>
<polygon fill="white" stroke="none" points="-4,4 -4,-243 700.707,-243 700.707,4 -4,4"/>
<!-- Node1 -->
<g id="node1" class="node"><title>Node1</title>
<polygon fill="#bfbfbf" stroke="black" points="449.278,-220.5 449.278,-238.5 595.317,-238.5 595.317,-220.5 449.278,-220.5"/>
<text text-anchor="middle" x="522.298" y="-226.5" font-family="Helvetica,sans-Serif" font-size="10.00">Apple/Common/GameKit.mm</text>
</g>
<!-- Node2 -->
<g id="node2" class="node"><title>Node2</title>
<g id="a_node2"><a xlink:href="_game_kit_8h.html" target="_top" xlink:title="GameKit.h">
<polygon fill="white" stroke="black" points="234.677,-165.5 234.677,-183.5 297.918,-183.5 297.918,-165.5 234.677,-165.5"/>
<text text-anchor="middle" x="266.298" y="-171.5" font-family="Helvetica,sans-Serif" font-size="10.00">GameKit.h</text>
</a>
</g>
</g>
<!-- Node1&#45;&gt;Node2 -->
<g id="edge1" class="edge"><title>Node1&#45;&gt;Node2</title>
<path fill="none" stroke="midnightblue" d="M483.417,-220.45C436.145,-210.664 356.68,-194.212 308.118,-184.158"/>
<polygon fill="midnightblue" stroke="midnightblue" points="308.749,-180.715 298.247,-182.115 307.33,-187.569 308.749,-180.715"/>
</g>
<!-- Node11 -->
<g id="node11" class="node"><title>Node11</title>
<g id="a_node11"><a xlink:href="_device_8hpp.html" target="_top" xlink:title="../../Device.hpp">
<polygon fill="white" stroke="black" points="526.948,-165.5 526.948,-183.5 609.647,-183.5 609.647,-165.5 526.948,-165.5"/>
<text text-anchor="middle" x="568.298" y="-171.5" font-family="Helvetica,sans-Serif" font-size="10.00">../../Device.hpp</text>
</a>
</g>
</g>
<!-- Node1&#45;&gt;Node11 -->
<g id="edge12" class="edge"><title>Node1&#45;&gt;Node11</title>
<path fill="none" stroke="midnightblue" d="M529.485,-220.219C536.208,-212.473 546.425,-200.701 554.689,-191.18"/>
<polygon fill="midnightblue" stroke="midnightblue" points="557.4,-193.396 561.311,-183.55 552.113,-188.808 557.4,-193.396"/>
</g>
<!-- Node13 -->
<g id="node13" class="node"><title>Node13</title>
<g id="a_node13"><a xlink:href="_log_8hpp.html" target="_top" xlink:title="../../Log.hpp">
<polygon fill="white" stroke="black" points="627.889,-165.5 627.889,-183.5 696.707,-183.5 696.707,-165.5 627.889,-165.5"/>
<text text-anchor="middle" x="662.298" y="-171.5" font-family="Helvetica,sans-Serif" font-size="10.00">../../Log.hpp</text>
</a>
</g>
</g>
<!-- Node1&#45;&gt;Node13 -->
<g id="edge15" class="edge"><title>Node1&#45;&gt;Node13</title>
<path fill="none" stroke="midnightblue" d="M543.561,-220.45C566.894,-211.617 604.569,-197.355 631.215,-187.267"/>
<polygon fill="midnightblue" stroke="midnightblue" points="632.722,-190.439 640.835,-183.625 630.243,-183.893 632.722,-190.439"/>
</g>
<!-- Node14 -->
<g id="node14" class="node"><title>Node14</title>
<g id="a_node14"><a xlink:href="_c_p_p_utils_8h.html" target="_top" xlink:title="CPPUtils.h">
<polygon fill="white" stroke="black" points="444.125,-165.5 444.125,-183.5 508.47,-183.5 508.47,-165.5 444.125,-165.5"/>
<text text-anchor="middle" x="476.298" y="-171.5" font-family="Helvetica,sans-Serif" font-size="10.00">CPPUtils.h</text>
</a>
</g>
</g>
<!-- Node1&#45;&gt;Node14 -->
<g id="edge16" class="edge"><title>Node1&#45;&gt;Node14</title>
<path fill="none" stroke="midnightblue" d="M515.11,-220.219C508.387,-212.473 498.171,-200.701 489.907,-191.18"/>
<polygon fill="midnightblue" stroke="midnightblue" points="492.482,-188.808 483.284,-183.55 487.196,-193.396 492.482,-188.808"/>
</g>
<!-- Node3 -->
<g id="node3" class="node"><title>Node3</title>
<g id="a_node3"><a xlink:href="_game_kit_8hpp.html" target="_top" xlink:title="../../GameKit.hpp">
<polygon fill="white" stroke="black" points="140.781,-55.5 140.781,-73.5 231.815,-73.5 231.815,-55.5 140.781,-55.5"/>
<text text-anchor="middle" x="186.298" y="-61.5" font-family="Helvetica,sans-Serif" font-size="10.00">../../GameKit.hpp</text>
</a>
</g>
</g>
<!-- Node2&#45;&gt;Node3 -->
<g id="edge2" class="edge"><title>Node2&#45;&gt;Node3</title>
<path fill="none" stroke="midnightblue" d="M249.973,-165.489C236.152,-157.905 216.804,-145.267 205.298,-129 195.745,-115.495 190.93,-97.1349 188.544,-83.6302"/>
<polygon fill="midnightblue" stroke="midnightblue" points="191.991,-83.0185 187.06,-73.6414 185.067,-84.0472 191.991,-83.0185"/>
</g>
<!-- Node5 -->
<g id="node5" class="node"><title>Node5</title>
<polygon fill="white" stroke="#bfbfbf" points="418.071,-0.5 418.071,-18.5 458.524,-18.5 458.524,-0.5 418.071,-0.5"/>
<text text-anchor="middle" x="438.298" y="-6.5" font-family="Helvetica,sans-Serif" font-size="10.00">string</text>
</g>
<!-- Node2&#45;&gt;Node5 -->
<g id="edge10" class="edge"><title>Node2&#45;&gt;Node5</title>
<path fill="none" stroke="midnightblue" d="M278.971,-165.282C291.687,-156.804 311.587,-142.895 327.298,-129 365.473,-95.2356 405.09,-50.0581 425.072,-26.429"/>
<polygon fill="midnightblue" stroke="midnightblue" points="427.761,-28.6701 431.506,-18.7595 422.398,-24.1711 427.761,-28.6701"/>
</g>
<!-- Node7 -->
<g id="node7" class="node"><title>Node7</title>
<g id="a_node7"><a xlink:href="___game_kit_8hpp.html" target="_top" xlink:title="../../_GameKit.hpp">
<polygon fill="white" stroke="black" points="0,-110.5 0,-128.5 96.5957,-128.5 96.5957,-110.5 0,-110.5"/>
<text text-anchor="middle" x="48.2979" y="-116.5" font-family="Helvetica,sans-Serif" font-size="10.00">../../_GameKit.hpp</text>
</a>
</g>
</g>
<!-- Node2&#45;&gt;Node7 -->
<g id="edge6" class="edge"><title>Node2&#45;&gt;Node7</title>
<path fill="none" stroke="midnightblue" d="M234.599,-165.793C196.852,-156.616 133.624,-141.244 91.4432,-130.989"/>
<polygon fill="midnightblue" stroke="midnightblue" points="92.0086,-127.525 81.4648,-128.564 90.3549,-134.327 92.0086,-127.525"/>
</g>
<!-- Node8 -->
<g id="node8" class="node"><title>Node8</title>
<polygon fill="white" stroke="#bfbfbf" points="374.7,-110.5 374.7,-128.5 501.896,-128.5 501.896,-110.5 374.7,-110.5"/>
<text text-anchor="middle" x="438.298" y="-116.5" font-family="Helvetica,sans-Serif" font-size="10.00">Foundation/Foundation.h</text>
</g>
<!-- Node2&#45;&gt;Node8 -->
<g id="edge8" class="edge"><title>Node2&#45;&gt;Node8</title>
<path fill="none" stroke="midnightblue" d="M292.421,-165.45C321.804,-156.396 369.699,-141.638 402.54,-131.519"/>
<polygon fill="midnightblue" stroke="midnightblue" points="403.685,-134.828 412.211,-128.538 401.624,-128.138 403.685,-134.828"/>
</g>
<!-- Node9 -->
<g id="node9" class="node"><title>Node9</title>
<polygon fill="white" stroke="#bfbfbf" points="213.837,-110.5 213.837,-128.5 318.758,-128.5 318.758,-110.5 213.837,-110.5"/>
<text text-anchor="middle" x="266.298" y="-116.5" font-family="Helvetica,sans-Serif" font-size="10.00">GameKit/GameKit.h</text>
</g>
<!-- Node2&#45;&gt;Node9 -->
<g id="edge9" class="edge"><title>Node2&#45;&gt;Node9</title>
<path fill="none" stroke="midnightblue" d="M266.298,-165.219C266.298,-158.177 266.298,-147.808 266.298,-138.828"/>
<polygon fill="midnightblue" stroke="midnightblue" points="269.798,-138.55 266.298,-128.55 262.798,-138.55 269.798,-138.55"/>
</g>
<!-- Node10 -->
<g id="node10" class="node"><title>Node10</title>
<polygon fill="white" stroke="#bfbfbf" points="114.682,-110.5 114.682,-128.5 157.914,-128.5 157.914,-110.5 114.682,-110.5"/>
<text text-anchor="middle" x="136.298" y="-116.5" font-family="Helvetica,sans-Serif" font-size="10.00">vector</text>
</g>
<!-- Node2&#45;&gt;Node10 -->
<g id="edge11" class="edge"><title>Node2&#45;&gt;Node10</title>
<path fill="none" stroke="midnightblue" d="M246.554,-165.45C224.983,-156.656 190.211,-142.48 165.488,-132.401"/>
<polygon fill="midnightblue" stroke="midnightblue" points="166.809,-129.16 156.228,-128.625 164.167,-135.642 166.809,-129.16"/>
</g>
<!-- Node4 -->
<g id="node4" class="node"><title>Node4</title>
<polygon fill="white" stroke="#bfbfbf" points="136.571,-0.5 136.571,-18.5 172.024,-18.5 172.024,-0.5 136.571,-0.5"/>
<text text-anchor="middle" x="154.298" y="-6.5" font-family="Helvetica,sans-Serif" font-size="10.00">map</text>
</g>
<!-- Node3&#45;&gt;Node4 -->
<g id="edge3" class="edge"><title>Node3&#45;&gt;Node4</title>
<path fill="none" stroke="midnightblue" d="M181.298,-55.2188C176.81,-47.7856 170.084,-36.646 164.468,-27.3446"/>
<polygon fill="midnightblue" stroke="midnightblue" points="167.323,-25.3012 159.158,-18.5496 161.33,-28.9193 167.323,-25.3012"/>
</g>
<!-- Node3&#45;&gt;Node5 -->
<g id="edge4" class="edge"><title>Node3&#45;&gt;Node5</title>
<path fill="none" stroke="midnightblue" d="M224.571,-55.4504C274.772,-44.8923 361.857,-26.5769 407.838,-16.9063"/>
<polygon fill="midnightblue" stroke="midnightblue" points="408.732,-20.2949 417.797,-14.8116 407.291,-13.4447 408.732,-20.2949"/>
</g>
<!-- Node6 -->
<g id="node6" class="node"><title>Node6</title>
<polygon fill="white" stroke="#bfbfbf" points="189.894,-0.5 189.894,-18.5 248.702,-18.5 248.702,-0.5 189.894,-0.5"/>
<text text-anchor="middle" x="219.298" y="-6.5" font-family="Helvetica,sans-Serif" font-size="10.00">functional</text>
</g>
<!-- Node3&#45;&gt;Node6 -->
<g id="edge5" class="edge"><title>Node3&#45;&gt;Node6</title>
<path fill="none" stroke="midnightblue" d="M191.454,-55.2188C196.131,-47.7074 203.165,-36.411 208.992,-27.0515"/>
<polygon fill="midnightblue" stroke="midnightblue" points="211.971,-28.8885 214.286,-18.5496 206.029,-25.1886 211.971,-28.8885"/>
</g>
<!-- Node7&#45;&gt;Node3 -->
<g id="edge7" class="edge"><title>Node7&#45;&gt;Node3</title>
<path fill="none" stroke="midnightblue" d="M69.2571,-110.45C92.2566,-101.617 129.393,-87.3546 155.659,-77.267"/>
<polygon fill="midnightblue" stroke="midnightblue" points="157.061,-80.478 165.141,-73.6253 154.551,-73.9433 157.061,-80.478"/>
</g>
<!-- Node11&#45;&gt;Node5 -->
<g id="edge13" class="edge"><title>Node11&#45;&gt;Node5</title>
<path fill="none" stroke="midnightblue" d="M565.035,-165.263C556.655,-144.836 532.732,-90.9082 500.298,-55 489.149,-42.6574 474.026,-31.7194 461.508,-23.7762"/>
<polygon fill="midnightblue" stroke="midnightblue" points="463.304,-20.7723 452.946,-18.5443 459.654,-26.7453 463.304,-20.7723"/>
</g>
<!-- Node12 -->
<g id="node12" class="node"><title>Node12</title>
<polygon fill="white" stroke="#bfbfbf" points="596.505,-110.5 596.505,-128.5 658.091,-128.5 658.091,-110.5 596.505,-110.5"/>
<text text-anchor="middle" x="627.298" y="-116.5" font-family="Helvetica,sans-Serif" font-size="10.00">cocos2d.h</text>
</g>
<!-- Node11&#45;&gt;Node12 -->
<g id="edge14" class="edge"><title>Node11&#45;&gt;Node12</title>
<path fill="none" stroke="midnightblue" d="M577.259,-165.45C586.096,-157.512 599.814,-145.189 610.653,-135.452"/>
<polygon fill="midnightblue" stroke="midnightblue" points="613.152,-137.912 618.253,-128.625 608.475,-132.704 613.152,-137.912"/>
</g>
<!-- Node14&#45;&gt;Node5 -->
<g id="edge18" class="edge"><title>Node14&#45;&gt;Node5</title>
<path fill="none" stroke="midnightblue" d="M486.008,-165.338C498.626,-153.676 518.271,-131.294 511.298,-110 500.196,-76.0993 472.655,-44.2067 454.756,-26.0504"/>
<polygon fill="midnightblue" stroke="midnightblue" points="456.886,-23.2364 447.304,-18.717 451.976,-28.2258 456.886,-23.2364"/>
</g>
<!-- Node14&#45;&gt;Node8 -->
<g id="edge17" class="edge"><title>Node14&#45;&gt;Node8</title>
<path fill="none" stroke="midnightblue" d="M470.36,-165.219C464.919,-157.629 456.707,-146.175 449.956,-136.76"/>
<polygon fill="midnightblue" stroke="midnightblue" points="452.741,-134.637 444.069,-128.55 447.052,-138.716 452.741,-134.637"/>
</g>
</g>
</svg>
        <g id="navigator" transform="translate(0 0)" fill="#404254">
                <rect fill="#f2f5e9" fill-opacity="0.5" stroke="#606060" stroke-width=".5" x="0" y="0" width="60" height="60"/>
                <use id="zoomplus" xlink:href="#zoomPlus" x="17" y="9" onmousedown="handleZoom(evt,'in')"/>
                <use id="zoomminus" xlink:href="#zoomMin" x="42" y="9" onmousedown="handleZoom(evt,'out')"/>
                <use id="reset" xlink:href="#resetDef" x="30" y="36" onmousedown="handleReset()"/>
                <g id="arrowUp" xlink:href="#dirArrow" transform="translate(30 24)" onmousedown="handlePan(0,-1)">
                  <use xlink:href="#rim" fill="#404040">
                        <set attributeName="fill" to="#808080" begin="arrowUp.mouseover" end="arrowUp.mouseout"/>
                  </use>
                  <path fill="none" stroke="white" stroke-width="1.5" d="M0,-3.0v7 M-2.5,-0.5L0,-3.0L2.5,-0.5"/>
                </g>
                <g id="arrowRight" xlink:href="#dirArrow" transform="rotate(90) translate(36 -43)" onmousedown="handlePan(1,0)">
                  <use xlink:href="#rim" fill="#404040">
                        <set attributeName="fill" to="#808080" begin="arrowRight.mouseover" end="arrowRight.mouseout"/>
                  </use>
                  <path fill="none" stroke="white" stroke-width="1.5" d="M0,-3.0v7 M-2.5,-0.5L0,-3.0L2.5,-0.5"/>
                </g>
                <g id="arrowDown" xlink:href="#dirArrow" transform="rotate(180) translate(-30 -48)" onmousedown="handlePan(0,1)">
                  <use xlink:href="#rim" fill="#404040">
                        <set attributeName="fill" to="#808080" begin="arrowDown.mouseover" end="arrowDown.mouseout"/>
                  </use>
                  <path fill="none" stroke="white" stroke-width="1.5" d="M0,-3.0v7 M-2.5,-0.5L0,-3.0L2.5,-0.5"/>
                </g>
                <g id="arrowLeft" xlink:href="#dirArrow" transform="rotate(270) translate(-36 17)" onmousedown="handlePan(-1,0)">
                  <use xlink:href="#rim" fill="#404040">
                        <set attributeName="fill" to="#808080" begin="arrowLeft.mouseover" end="arrowLeft.mouseout"/>
                  </use>
                  <path fill="none" stroke="white" stroke-width="1.5" d="M0,-3.0v7 M-2.5,-0.5L0,-3.0L2.5,-0.5"/>
                </g>
        </g>
        <svg viewBox="0 0 15 15" width="100%" height="30px" preserveAspectRatio="xMaxYMin meet">
         <g id="arrow_out" transform="scale(0.3 0.3)">
          <a xlink:href="_common_2_game_kit_8mm__incl_org.svg" target="_base">
           <rect id="button" ry="5" rx="5" y="6" x="6" height="38" width="38"
                fill="#f2f5e9" fill-opacity="0.5" stroke="#606060" stroke-width="1.0"/>
           <path id="arrow"
             d="M 11.500037,31.436501 C 11.940474,20.09759 22.043105,11.32322 32.158766,21.979434 L 37.068811,17.246167 C 37.068811,17.246167 37.088388,32 37.088388,32 L 22.160133,31.978069 C 22.160133,31.978069 26.997745,27.140456 26.997745,27.140456 C 18.528582,18.264221 13.291696,25.230495 11.500037,31.436501 z"
             style="fill:#404040;"/>
          </a>
         </g>
        </svg>
</svg>
