<?xml version="1.0" encoding="UTF-8" standalone="no"?>
<!DOCTYPE svg PUBLIC "-//W3C//DTD SVG 1.1//EN"
 "http://www.w3.org/Graphics/SVG/1.1/DTD/svg11.dtd">
<!-- Generated by graphviz version 2.38.0 (20140413.2041)
 -->
<!-- Title: CompilerEnhancements.hpp Pages: 1 -->
<svg width="198pt" height="137pt"
 viewBox="0.00 0.00 197.85 137.00" xmlns="http://www.w3.org/2000/svg" xmlns:xlink="http://www.w3.org/1999/xlink">
<g id="graph0" class="graph" transform="scale(1 1) rotate(0) translate(4 133)">
<title>CompilerEnhancements.hpp</title>
<polygon fill="white" stroke="none" points="-4,4 -4,-133 193.847,-133 193.847,4 -4,4"/>
<!-- Node1 -->
<g id="node1" class="node"><title>Node1</title>
<polygon fill="#bfbfbf" stroke="black" points="18.6899,-110.5 18.6899,-128.5 160.872,-128.5 160.872,-110.5 18.6899,-110.5"/>
<text text-anchor="middle" x="89.7808" y="-116.5" font-family="Helvetica,sans-Serif" font-size="10.00">CompilerEnhancements.hpp</text>
</g>
<!-- Node2 -->
<g id="node2" class="node"><title>Node2</title>
<g id="a_node2"><a xlink:href="_android_2_compiler_enhancements_8hpp.html" target="_top" xlink:title="Android/CompilerEnhancements.hpp">
<polygon fill="white" stroke="black" points="0.0668945,-55.5 0.0668945,-73.5 179.495,-73.5 179.495,-55.5 0.0668945,-55.5"/>
<text text-anchor="middle" x="89.7808" y="-61.5" font-family="Helvetica,sans-Serif" font-size="10.00">Android/CompilerEnhancements.hpp</text>
</a>
</g>
</g>
<!-- Node1&#45;&gt;Node2 -->
<g id="edge1" class="edge"><title>Node1&#45;&gt;Node2</title>
<path fill="none" stroke="midnightblue" d="M89.7808,-110.219C89.7808,-103.177 89.7808,-92.8083 89.7808,-83.8277"/>
<polygon fill="midnightblue" stroke="midnightblue" points="93.2809,-83.5495 89.7808,-73.5496 86.2809,-83.5496 93.2809,-83.5495"/>
</g>
<!-- Node3 -->
<g id="node3" class="node"><title>Node3</title>
<polygon fill="white" stroke="#bfbfbf" points="0,-0.5 0,-18.5 51.5615,-18.5 51.5615,-0.5 0,-0.5"/>
<text text-anchor="middle" x="25.7808" y="-6.5" font-family="Helvetica,sans-Serif" font-size="10.00">sstream</text>
</g>
<!-- Node2&#45;&gt;Node3 -->
<g id="edge2" class="edge"><title>Node2&#45;&gt;Node3</title>
<path fill="none" stroke="midnightblue" d="M80.0605,-55.4504C70.3809,-47.4345 55.3017,-34.9471 43.491,-25.1663"/>
<polygon fill="midnightblue" stroke="midnightblue" points="45.5267,-22.3078 35.5925,-18.6253 41.062,-27.6992 45.5267,-22.3078"/>
</g>
<!-- Node4 -->
<g id="node4" class="node"><title>Node4</title>
<polygon fill="white" stroke="#bfbfbf" points="69.5542,-0.5 69.5542,-18.5 110.007,-18.5 110.007,-0.5 69.5542,-0.5"/>
<text text-anchor="middle" x="89.7808" y="-6.5" font-family="Helvetica,sans-Serif" font-size="10.00">string</text>
</g>
<!-- Node2&#45;&gt;Node4 -->
<g id="edge3" class="edge"><title>Node2&#45;&gt;Node4</title>
<path fill="none" stroke="midnightblue" d="M89.7808,-55.2188C89.7808,-48.1769 89.7808,-37.8083 89.7808,-28.8277"/>
<polygon fill="midnightblue" stroke="midnightblue" points="93.2809,-28.5495 89.7808,-18.5496 86.2809,-28.5496 93.2809,-28.5495"/>
</g>
<!-- Node5 -->
<g id="node5" class="node"><title>Node5</title>
<polygon fill="white" stroke="#bfbfbf" points="127.714,-0.5 127.714,-18.5 189.847,-18.5 189.847,-0.5 127.714,-0.5"/>
<text text-anchor="middle" x="158.781" y="-6.5" font-family="Helvetica,sans-Serif" font-size="10.00">type_traits</text>
</g>
<!-- Node2&#45;&gt;Node5 -->
<g id="edge4" class="edge"><title>Node2&#45;&gt;Node5</title>
<path fill="none" stroke="midnightblue" d="M100.26,-55.4504C110.798,-47.3566 127.27,-34.7042 140.057,-24.8822"/>
<polygon fill="midnightblue" stroke="midnightblue" points="142.404,-27.4926 148.203,-18.6253 138.14,-21.9412 142.404,-27.4926"/>
</g>
</g>
</svg>
