<?xml version="1.0" encoding="UTF-8" standalone="no"?>
<!DOCTYPE svg PUBLIC "-//W3C//DTD SVG 1.1//EN"
 "http://www.w3.org/Graphics/SVG/1.1/DTD/svg11.dtd">
<!-- Generated by graphviz version 2.38.0 (20140413.2041)
 -->
<!-- Title: Android/Constants.h Pages: 1 -->
<svg width="492pt" height="82pt"
 viewBox="0.00 0.00 492.39 82.00" xmlns="http://www.w3.org/2000/svg" xmlns:xlink="http://www.w3.org/1999/xlink">
<g id="graph0" class="graph" transform="scale(1 1) rotate(0) translate(4 78)">
<title>Android/Constants.h</title>
<polygon fill="white" stroke="none" points="-4,4 -4,-78 488.386,-78 488.386,4 -4,4"/>
<!-- Node1 -->
<g id="node1" class="node"><title>Node1</title>
<polygon fill="#bfbfbf" stroke="black" points="193,-55.5 193,-73.5 299.61,-73.5 299.61,-55.5 193,-55.5"/>
<text text-anchor="middle" x="246.305" y="-61.5" font-family="Helvetica,sans-Serif" font-size="10.00">Android/Constants.h</text>
</g>
<!-- Node2 -->
<g id="node2" class="node"><title>Node2</title>
<g id="a_node2"><a xlink:href="___game_kit_8cpp.html" target="_top" xlink:title="Android/_GameKit.cpp">
<polygon fill="white" stroke="black" points="0,-0.5 0,-18.5 116.61,-18.5 116.61,-0.5 0,-0.5"/>
<text text-anchor="middle" x="58.3052" y="-6.5" font-family="Helvetica,sans-Serif" font-size="10.00">Android/_GameKit.cpp</text>
</a>
</g>
</g>
<!-- Node1&#45;&gt;Node2 -->
<g id="edge1" class="edge"><title>Node1&#45;&gt;Node2</title>
<path fill="none" stroke="midnightblue" d="M208.101,-52.7297C172.17,-42.6003 119.194,-27.6655 86.8184,-18.5383"/>
<polygon fill="midnightblue" stroke="midnightblue" points="207.177,-56.1057 217.752,-55.4504 209.077,-49.3683 207.177,-56.1057"/>
</g>
<!-- Node3 -->
<g id="node3" class="node"><title>Node3</title>
<g id="a_node3"><a xlink:href="___i_a_p_kit_8cpp.html" target="_top" xlink:title="Android/_IAPKit.cpp">
<polygon fill="white" stroke="black" points="134.557,-0.5 134.557,-18.5 240.054,-18.5 240.054,-0.5 134.557,-0.5"/>
<text text-anchor="middle" x="187.305" y="-6.5" font-family="Helvetica,sans-Serif" font-size="10.00">Android/_IAPKit.cpp</text>
</a>
</g>
</g>
<!-- Node1&#45;&gt;Node3 -->
<g id="edge2" class="edge"><title>Node1&#45;&gt;Node3</title>
<path fill="none" stroke="midnightblue" d="M229.764,-48.6408C218.943,-38.9201 205.218,-26.5913 196.35,-18.6253"/>
<polygon fill="midnightblue" stroke="midnightblue" points="227.566,-51.3715 237.344,-55.4504 232.244,-46.164 227.566,-51.3715"/>
</g>
<!-- Node4 -->
<g id="node4" class="node"><title>Node4</title>
<g id="a_node4"><a xlink:href="_android_2_ad_kit_8cpp.html" target="_top" xlink:title="Android/AdKit.cpp">
<polygon fill="white" stroke="black" points="258.281,-0.5 258.281,-18.5 354.33,-18.5 354.33,-0.5 258.281,-0.5"/>
<text text-anchor="middle" x="306.305" y="-6.5" font-family="Helvetica,sans-Serif" font-size="10.00">Android/AdKit.cpp</text>
</a>
</g>
</g>
<!-- Node1&#45;&gt;Node4 -->
<g id="edge3" class="edge"><title>Node1&#45;&gt;Node4</title>
<path fill="none" stroke="midnightblue" d="M263.127,-48.6408C274.132,-38.9201 288.089,-26.5913 297.107,-18.6253"/>
<polygon fill="midnightblue" stroke="midnightblue" points="260.596,-46.2069 255.418,-55.4504 265.23,-51.4532 260.596,-46.2069"/>
</g>
<!-- Node5 -->
<g id="node5" class="node"><title>Node5</title>
<g id="a_node5"><a xlink:href="_android_2_analytics_8cpp.html" target="_top" xlink:title="Android/Analytics.cpp">
<polygon fill="white" stroke="black" points="372.224,-0.5 372.224,-18.5 484.386,-18.5 484.386,-0.5 372.224,-0.5"/>
<text text-anchor="middle" x="428.305" y="-6.5" font-family="Helvetica,sans-Serif" font-size="10.00">Android/Analytics.cpp</text>
</a>
</g>
</g>
<!-- Node1&#45;&gt;Node5 -->
<g id="edge4" class="edge"><title>Node1&#45;&gt;Node5</title>
<path fill="none" stroke="midnightblue" d="M283.737,-52.5996C318.512,-42.4728 369.493,-27.6265 400.702,-18.5383"/>
<polygon fill="midnightblue" stroke="midnightblue" points="282.57,-49.294 273.947,-55.4504 284.527,-56.0148 282.57,-49.294"/>
</g>
</g>
</svg>
