<?xml version="1.0" encoding="UTF-8" standalone="no"?>
<!DOCTYPE svg PUBLIC "-//W3C//DTD SVG 1.1//EN"
 "http://www.w3.org/Graphics/SVG/1.1/DTD/svg11.dtd">
<!-- Generated by graphviz version 2.38.0 (20140413.2041)
 -->
<!-- Title: CryptoKit.cpp Pages: 1 -->
<svg width="168pt" height="137pt"
 viewBox="0.00 0.00 168.31 137.00" xmlns="http://www.w3.org/2000/svg" xmlns:xlink="http://www.w3.org/1999/xlink">
<g id="graph0" class="graph" transform="scale(1 1) rotate(0) translate(4 133)">
<title>CryptoKit.cpp</title>
<polygon fill="white" stroke="none" points="-4,4 -4,-133 164.308,-133 164.308,4 -4,4"/>
<!-- Node1 -->
<g id="node1" class="node"><title>Node1</title>
<polygon fill="#bfbfbf" stroke="black" points="44.2808,-110.5 44.2808,-128.5 120.305,-128.5 120.305,-110.5 44.2808,-110.5"/>
<text text-anchor="middle" x="82.293" y="-116.5" font-family="Helvetica,sans-Serif" font-size="10.00">CryptoKit.cpp</text>
</g>
<!-- Node2 -->
<g id="node2" class="node"><title>Node2</title>
<g id="a_node2"><a xlink:href="_crypto_kit_8hpp.html" target="_top" xlink:title="CryptoKit.hpp">
<polygon fill="white" stroke="black" points="0,-55.5 0,-73.5 76.5859,-73.5 76.5859,-55.5 0,-55.5"/>
<text text-anchor="middle" x="38.293" y="-61.5" font-family="Helvetica,sans-Serif" font-size="10.00">CryptoKit.hpp</text>
</a>
</g>
</g>
<!-- Node1&#45;&gt;Node2 -->
<g id="edge1" class="edge"><title>Node1&#45;&gt;Node2</title>
<path fill="none" stroke="midnightblue" d="M75.418,-110.219C69.0522,-102.551 59.4119,-90.9387 51.5504,-81.4691"/>
<polygon fill="midnightblue" stroke="midnightblue" points="54.0562,-79.008 44.9756,-73.5496 48.6703,-83.4793 54.0562,-79.008"/>
</g>
<!-- Node4 -->
<g id="node4" class="node"><title>Node4</title>
<g id="a_node4"><a xlink:href="_device_8hpp.html" target="_top" xlink:title="Device.hpp">
<polygon fill="white" stroke="black" points="94.2783,-55.5 94.2783,-73.5 160.308,-73.5 160.308,-55.5 94.2783,-55.5"/>
<text text-anchor="middle" x="127.293" y="-61.5" font-family="Helvetica,sans-Serif" font-size="10.00">Device.hpp</text>
</a>
</g>
</g>
<!-- Node1&#45;&gt;Node4 -->
<g id="edge3" class="edge"><title>Node1&#45;&gt;Node4</title>
<path fill="none" stroke="midnightblue" d="M89.3242,-110.219C95.9011,-102.473 105.896,-90.7013 113.98,-81.1799"/>
<polygon fill="midnightblue" stroke="midnightblue" points="116.654,-83.4378 120.458,-73.5496 111.318,-78.9072 116.654,-83.4378"/>
</g>
<!-- Node3 -->
<g id="node3" class="node"><title>Node3</title>
<polygon fill="white" stroke="#bfbfbf" points="28.0664,-0.5 28.0664,-18.5 68.5195,-18.5 68.5195,-0.5 28.0664,-0.5"/>
<text text-anchor="middle" x="48.293" y="-6.5" font-family="Helvetica,sans-Serif" font-size="10.00">string</text>
</g>
<!-- Node2&#45;&gt;Node3 -->
<g id="edge2" class="edge"><title>Node2&#45;&gt;Node3</title>
<path fill="none" stroke="midnightblue" d="M39.8555,-55.2188C41.1989,-48.0986 43.184,-37.5775 44.8913,-28.5289"/>
<polygon fill="midnightblue" stroke="midnightblue" points="48.3593,-29.0251 46.7742,-18.5496 41.4807,-27.7272 48.3593,-29.0251"/>
</g>
<!-- Node4&#45;&gt;Node3 -->
<g id="edge4" class="edge"><title>Node4&#45;&gt;Node3</title>
<path fill="none" stroke="midnightblue" d="M115.295,-55.4504C102.998,-47.201 83.643,-34.2158 68.8906,-24.3187"/>
<polygon fill="midnightblue" stroke="midnightblue" points="70.6585,-21.2901 60.4043,-18.6253 66.7586,-27.1031 70.6585,-21.2901"/>
</g>
<!-- Node5 -->
<g id="node5" class="node"><title>Node5</title>
<polygon fill="white" stroke="#bfbfbf" points="96.5,-0.5 96.5,-18.5 158.086,-18.5 158.086,-0.5 96.5,-0.5"/>
<text text-anchor="middle" x="127.293" y="-6.5" font-family="Helvetica,sans-Serif" font-size="10.00">cocos2d.h</text>
</g>
<!-- Node4&#45;&gt;Node5 -->
<g id="edge5" class="edge"><title>Node4&#45;&gt;Node5</title>
<path fill="none" stroke="midnightblue" d="M127.293,-55.2188C127.293,-48.1769 127.293,-37.8083 127.293,-28.8277"/>
<polygon fill="midnightblue" stroke="midnightblue" points="130.793,-28.5495 127.293,-18.5496 123.793,-28.5496 130.793,-28.5495"/>
</g>
</g>
</svg>
