<?xml version="1.0" encoding="UTF-8" standalone="no"?>
<!DOCTYPE svg PUBLIC "-//W3C//DTD SVG 1.1//EN"
 "http://www.w3.org/Graphics/SVG/1.1/DTD/svg11.dtd">
<!-- Generated by graphviz version 2.38.0 (20140413.2041)
 -->
<!-- Title: CryptoKit.hpp Pages: 1 -->
<svg width="160pt" height="82pt"
 viewBox="0.00 0.00 159.57 82.00" xmlns="http://www.w3.org/2000/svg" xmlns:xlink="http://www.w3.org/1999/xlink">
<g id="graph0" class="graph" transform="scale(1 1) rotate(0) translate(4 78)">
<title>CryptoKit.hpp</title>
<polygon fill="white" stroke="none" points="-4,4 -4,-78 155.574,-78 155.574,4 -4,4"/>
<!-- Node1 -->
<g id="node1" class="node"><title>Node1</title>
<polygon fill="#bfbfbf" stroke="black" points="41.7192,-55.5 41.7192,-73.5 118.305,-73.5 118.305,-55.5 41.7192,-55.5"/>
<text text-anchor="middle" x="80.0122" y="-61.5" font-family="Helvetica,sans-Serif" font-size="10.00">CryptoKit.hpp</text>
</g>
<!-- Node2 -->
<g id="node2" class="node"><title>Node2</title>
<g id="a_node2"><a xlink:href="_crypto_kit_8cpp.html" target="_top" xlink:title="CryptoKit.cpp">
<polygon fill="white" stroke="black" points="0,-0.5 0,-18.5 76.0244,-18.5 76.0244,-0.5 0,-0.5"/>
<text text-anchor="middle" x="38.0122" y="-6.5" font-family="Helvetica,sans-Serif" font-size="10.00">CryptoKit.cpp</text>
</a>
</g>
</g>
<!-- Node1&#45;&gt;Node2 -->
<g id="edge1" class="edge"><title>Node1&#45;&gt;Node2</title>
<path fill="none" stroke="midnightblue" d="M67.129,-47.2426C59.5909,-37.7302 50.4037,-26.1369 44.3911,-18.5496"/>
<polygon fill="midnightblue" stroke="midnightblue" points="64.4957,-49.5551 73.4497,-55.2188 69.982,-45.2075 64.4957,-49.5551"/>
</g>
<!-- Node3 -->
<g id="node3" class="node"><title>Node3</title>
<g id="a_node3"><a xlink:href="_maw_kit_8h.html" target="_top" xlink:title="MawKit.h">
<polygon fill="white" stroke="black" points="94.4507,-0.5 94.4507,-18.5 151.574,-18.5 151.574,-0.5 94.4507,-0.5"/>
<text text-anchor="middle" x="123.012" y="-6.5" font-family="Helvetica,sans-Serif" font-size="10.00">MawKit.h</text>
</a>
</g>
</g>
<!-- Node1&#45;&gt;Node3 -->
<g id="edge2" class="edge"><title>Node1&#45;&gt;Node3</title>
<path fill="none" stroke="midnightblue" d="M93.2022,-47.2426C100.92,-37.7302 110.326,-26.1369 116.481,-18.5496"/>
<polygon fill="midnightblue" stroke="midnightblue" points="90.3134,-45.248 86.731,-55.2188 95.7494,-49.6583 90.3134,-45.248"/>
</g>
</g>
</svg>
