<?xml version="1.0" encoding="UTF-8" standalone="no"?>
<!DOCTYPE svg PUBLIC "-//W3C//DTD SVG 1.1//EN"
 "http://www.w3.org/Graphics/SVG/1.1/DTD/svg11.dtd">
<!-- Generated by graphviz version 2.38.0 (20140413.2041)
 -->
<!-- Title: Date.cpp Pages: 1 -->
<svg width="65pt" height="137pt"
 viewBox="0.00 0.00 64.59 137.00" xmlns="http://www.w3.org/2000/svg" xmlns:xlink="http://www.w3.org/1999/xlink">
<g id="graph0" class="graph" transform="scale(1 1) rotate(0) translate(4 133)">
<title>Date.cpp</title>
<polygon fill="white" stroke="none" points="-4,4 -4,-133 60.5859,-133 60.5859,4 -4,4"/>
<!-- Node1 -->
<g id="node1" class="node"><title>Node1</title>
<polygon fill="#bfbfbf" stroke="black" points="0.280762,-110.5 0.280762,-128.5 56.3052,-128.5 56.3052,-110.5 0.280762,-110.5"/>
<text text-anchor="middle" x="28.293" y="-116.5" font-family="Helvetica,sans-Serif" font-size="10.00">Date.cpp</text>
</g>
<!-- Node2 -->
<g id="node2" class="node"><title>Node2</title>
<g id="a_node2"><a xlink:href="_date_8hpp.html" target="_top" xlink:title="Date.hpp">
<polygon fill="white" stroke="black" points="0,-55.5 0,-73.5 56.5859,-73.5 56.5859,-55.5 0,-55.5"/>
<text text-anchor="middle" x="28.293" y="-61.5" font-family="Helvetica,sans-Serif" font-size="10.00">Date.hpp</text>
</a>
</g>
</g>
<!-- Node1&#45;&gt;Node2 -->
<g id="edge1" class="edge"><title>Node1&#45;&gt;Node2</title>
<path fill="none" stroke="midnightblue" d="M28.293,-110.219C28.293,-103.177 28.293,-92.8083 28.293,-83.8277"/>
<polygon fill="midnightblue" stroke="midnightblue" points="31.7931,-83.5495 28.293,-73.5496 24.7931,-83.5496 31.7931,-83.5495"/>
</g>
<!-- Node3 -->
<g id="node3" class="node"><title>Node3</title>
<polygon fill="white" stroke="#bfbfbf" points="8.34717,-0.5 8.34717,-18.5 48.2388,-18.5 48.2388,-0.5 8.34717,-0.5"/>
<text text-anchor="middle" x="28.293" y="-6.5" font-family="Helvetica,sans-Serif" font-size="10.00">ctime</text>
</g>
<!-- Node2&#45;&gt;Node3 -->
<g id="edge2" class="edge"><title>Node2&#45;&gt;Node3</title>
<path fill="none" stroke="midnightblue" d="M28.293,-55.2188C28.293,-48.1769 28.293,-37.8083 28.293,-28.8277"/>
<polygon fill="midnightblue" stroke="midnightblue" points="31.7931,-28.5495 28.293,-18.5496 24.7931,-28.5496 31.7931,-28.5495"/>
</g>
</g>
</svg>
