<?xml version="1.0" encoding="UTF-8" standalone="no"?>
<!DOCTYPE svg PUBLIC "-//W3C//DTD SVG 1.1//EN"
 "http://www.w3.org/Graphics/SVG/1.1/DTD/svg11.dtd">
<!-- Generated by graphviz version 2.38.0 (20140413.2041)
 -->
<!-- Title: Device.hpp Pages: 1 -->
<!--zoomable 82 -->
<svg id="main" version="1.1" xmlns="http://www.w3.org/2000/svg" xmlns:xlink="http://www.w3.org/1999/xlink" xml:space="preserve" onload="init(evt)">
<style type="text/css"><![CDATA[
.edge:hover path { stroke: red; }
.edge:hover polygon { stroke: red; fill: red; }
]]></style>
<script type="text/javascript"><![CDATA[
var edges = document.getElementsByTagName('g');
if (edges && edges.length) {
  for (var i=0;i<edges.length;i++) {
    if (edges[i].id.substr(0,4)=='edge') {
      edges[i].setAttribute('class','edge');
    }
  }
}
]]></script>
        <defs>
                <circle id="rim" cx="0" cy="0" r="7"/>
                <circle id="rim2" cx="0" cy="0" r="3.5"/>
                <g id="zoomPlus">
                        <use xlink:href="#rim" fill="#404040">
                                <set attributeName="fill" to="#808080" begin="zoomplus.mouseover" end="zoomplus.mouseout"/>
                        </use>
                        <path d="M-4,0h8M0,-4v8" fill="none" stroke="white" stroke-width="1.5" pointer-events="none"/>
                </g>
                <g id="zoomMin">
                        <use xlink:href="#rim" fill="#404040">
                                <set attributeName="fill" to="#808080" begin="zoomminus.mouseover" end="zoomminus.mouseout"/>
                        </use>
                        <path d="M-4,0h8" fill="none" stroke="white" stroke-width="1.5" pointer-events="none"/>
                </g>
                <g id="dirArrow">
                        <path fill="none" stroke="white" stroke-width="1.5" d="M0,-3.0v7 M-2.5,-0.5L0,-3.0L2.5,-0.5"/>
                </g>
               <g id="resetDef">
                       <use xlink:href="#rim2" fill="#404040">
                               <set attributeName="fill" to="#808080" begin="reset.mouseover" end="reset.mouseout"/>
                       </use>
               </g>
        </defs>

<script type="text/javascript">
var viewWidth = 1827;
var viewHeight = 82;
var sectionId = 'dynsection-1';
</script>
<script xlink:href="svgpan.js"/>
<svg id="graph" class="graph">
<g id="viewport">
<title>Device.hpp</title>
<polygon fill="white" stroke="none" points="-4,4 -4,-78 1822.96,-78 1822.96,4 -4,4"/>
<!-- Node1 -->
<g id="node1" class="node"><title>Node1</title>
<polygon fill="#bfbfbf" stroke="black" points="993.387,-55.5 993.387,-73.5 1059.42,-73.5 1059.42,-55.5 993.387,-55.5"/>
<text text-anchor="middle" x="1026.4" y="-61.5" font-family="Helvetica,sans-Serif" font-size="10.00">Device.hpp</text>
</g>
<!-- Node2 -->
<g id="node2" class="node"><title>Node2</title>
<g id="a_node2"><a xlink:href="_ad_kit_8cpp.html" target="_top" xlink:title="AdKit.cpp">
<polygon fill="white" stroke="black" points="0,-0.5 0,-18.5 58.8027,-18.5 58.8027,-0.5 0,-0.5"/>
<text text-anchor="middle" x="29.4014" y="-6.5" font-family="Helvetica,sans-Serif" font-size="10.00">AdKit.cpp</text>
</a>
</g>
</g>
<!-- Node1&#45;&gt;Node2 -->
<g id="edge1" class="edge"><title>Node1&#45;&gt;Node2</title>
<path fill="none" stroke="midnightblue" d="M982.73,-64.0746C846.709,-65.3086 418.793,-64.9893 68.4014,-19 65.3782,-18.6032 62.2421,-18.0917 59.1213,-17.5167"/>
<polygon fill="midnightblue" stroke="midnightblue" points="983.167,-67.5706 993.132,-63.9719 983.097,-60.5709 983.167,-67.5706"/>
</g>
<!-- Node3 -->
<g id="node3" class="node"><title>Node3</title>
<g id="a_node3"><a xlink:href="___device_8cpp.html" target="_top" xlink:title="Android/_Device.cpp">
<polygon fill="white" stroke="black" points="77.2637,-0.5 77.2637,-18.5 185.539,-18.5 185.539,-0.5 77.2637,-0.5"/>
<text text-anchor="middle" x="131.401" y="-6.5" font-family="Helvetica,sans-Serif" font-size="10.00">Android/_Device.cpp</text>
</a>
</g>
</g>
<!-- Node1&#45;&gt;Node3 -->
<g id="edge2" class="edge"><title>Node1&#45;&gt;Node3</title>
<path fill="none" stroke="midnightblue" d="M982.846,-62.4091C859.156,-59.0444 495.266,-47.2958 194.401,-19 191.544,-18.7313 188.618,-18.4295 185.666,-18.1041"/>
<polygon fill="midnightblue" stroke="midnightblue" points="982.951,-65.9131 993.041,-62.6822 983.138,-58.9156 982.951,-65.9131"/>
</g>
<!-- Node4 -->
<g id="node4" class="node"><title>Node4</title>
<g id="a_node4"><a xlink:href="_common_2_device_8mm.html" target="_top" xlink:title="Apple/Common/Device.mm">
<polygon fill="white" stroke="black" points="203.549,-0.5 203.549,-18.5 341.253,-18.5 341.253,-0.5 203.549,-0.5"/>
<text text-anchor="middle" x="272.401" y="-6.5" font-family="Helvetica,sans-Serif" font-size="10.00">Apple/Common/Device.mm</text>
</a>
</g>
</g>
<!-- Node1&#45;&gt;Node4 -->
<g id="edge3" class="edge"><title>Node1&#45;&gt;Node4</title>
<path fill="none" stroke="midnightblue" d="M983.197,-61.2991C875.973,-55.6969 589.093,-39.8524 350.401,-19 347.416,-18.7392 344.368,-18.4604 341.289,-18.1687"/>
<polygon fill="midnightblue" stroke="midnightblue" points="983.134,-64.8004 993.302,-61.8244 983.498,-57.8099 983.134,-64.8004"/>
</g>
<!-- Node5 -->
<g id="node5" class="node"><title>Node5</title>
<g id="a_node5"><a xlink:href="_common_2_game_kit_8mm.html" target="_top" xlink:title="Apple/Common/GameKit.mm">
<polygon fill="white" stroke="black" points="359.382,-0.5 359.382,-18.5 505.421,-18.5 505.421,-0.5 359.382,-0.5"/>
<text text-anchor="middle" x="432.401" y="-6.5" font-family="Helvetica,sans-Serif" font-size="10.00">Apple/Common/GameKit.mm</text>
</a>
</g>
</g>
<!-- Node1&#45;&gt;Node5 -->
<g id="edge4" class="edge"><title>Node1&#45;&gt;Node5</title>
<path fill="none" stroke="midnightblue" d="M982.969,-59.9698C894.671,-52.7389 687.88,-35.5289 514.401,-19 511.552,-18.7285 508.647,-18.4475 505.713,-18.1602"/>
<polygon fill="midnightblue" stroke="midnightblue" points="982.887,-63.4747 993.139,-60.8014 983.457,-56.498 982.887,-63.4747"/>
</g>
<!-- Node6 -->
<g id="node6" class="node"><title>Node6</title>
<g id="a_node6"><a xlink:href="_i_a_p_kit_8mm.html" target="_top" xlink:title="Apple/Common/IAPKit.mm">
<polygon fill="white" stroke="black" points="522.938,-0.5 522.938,-18.5 657.864,-18.5 657.864,-0.5 522.938,-0.5"/>
<text text-anchor="middle" x="590.401" y="-6.5" font-family="Helvetica,sans-Serif" font-size="10.00">Apple/Common/IAPKit.mm</text>
</a>
</g>
</g>
<!-- Node1&#45;&gt;Node6 -->
<g id="edge5" class="edge"><title>Node1&#45;&gt;Node6</title>
<path fill="none" stroke="midnightblue" d="M983.035,-58.2285C906.469,-48.921 746.899,-29.5238 656.53,-18.5386"/>
<polygon fill="midnightblue" stroke="midnightblue" points="982.923,-61.7405 993.273,-59.4729 983.768,-54.7917 982.923,-61.7405"/>
</g>
<!-- Node7 -->
<g id="node7" class="node"><title>Node7</title>
<g id="a_node7"><a xlink:href="_k_v_database_8mm.html" target="_top" xlink:title="Apple/Common/KVDatabase.mm">
<polygon fill="white" stroke="black" points="675.759,-0.5 675.759,-18.5 839.044,-18.5 839.044,-0.5 675.759,-0.5"/>
<text text-anchor="middle" x="757.401" y="-6.5" font-family="Helvetica,sans-Serif" font-size="10.00">Apple/Common/KVDatabase.mm</text>
</a>
</g>
</g>
<!-- Node1&#45;&gt;Node7 -->
<g id="edge6" class="edge"><title>Node1&#45;&gt;Node7</title>
<path fill="none" stroke="midnightblue" d="M983.091,-54.9667C932.048,-44.91 847.888,-28.3282 798.037,-18.5063"/>
<polygon fill="midnightblue" stroke="midnightblue" points="982.659,-58.4488 993.147,-56.948 984.012,-51.5808 982.659,-58.4488"/>
</g>
<!-- Node8 -->
<g id="node8" class="node"><title>Node8</title>
<g id="a_node8"><a xlink:href="_receipt_validator_8mm.html" target="_top" xlink:title="Apple/Common/ReceiptValidator.mm">
<polygon fill="white" stroke="black" points="856.788,-0.5 856.788,-18.5 1036.02,-18.5 1036.02,-0.5 856.788,-0.5"/>
<text text-anchor="middle" x="946.401" y="-6.5" font-family="Helvetica,sans-Serif" font-size="10.00">Apple/Common/ReceiptValidator.mm</text>
</a>
</g>
</g>
<!-- Node1&#45;&gt;Node8 -->
<g id="edge7" class="edge"><title>Node1&#45;&gt;Node8</title>
<path fill="none" stroke="midnightblue" d="M1005.68,-49.7719C990.769,-39.8937 971.162,-26.9036 958.666,-18.6253"/>
<polygon fill="midnightblue" stroke="midnightblue" points="1003.98,-52.8452 1014.25,-55.4504 1007.85,-47.0097 1003.98,-52.8452"/>
</g>
<!-- Node9 -->
<g id="node9" class="node"><title>Node9</title>
<g id="a_node9"><a xlink:href="i_o_s_2_ad_kit_8mm.html" target="_top" xlink:title="Apple/iOS/AdKit.mm">
<polygon fill="white" stroke="black" points="1053.83,-0.5 1053.83,-18.5 1160.97,-18.5 1160.97,-0.5 1053.83,-0.5"/>
<text text-anchor="middle" x="1107.4" y="-6.5" font-family="Helvetica,sans-Serif" font-size="10.00">Apple/iOS/AdKit.mm</text>
</a>
</g>
</g>
<!-- Node1&#45;&gt;Node9 -->
<g id="edge8" class="edge"><title>Node1&#45;&gt;Node9</title>
<path fill="none" stroke="midnightblue" d="M1047.38,-49.7719C1062.48,-39.8937 1082.33,-26.9036 1094.98,-18.6253"/>
<polygon fill="midnightblue" stroke="midnightblue" points="1045.16,-47.0464 1038.7,-55.4504 1048.99,-52.9039 1045.16,-47.0464"/>
</g>
<!-- Node10 -->
<g id="node10" class="node"><title>Node10</title>
<g id="a_node10"><a xlink:href="i_o_s_2_device_8mm.html" target="_top" xlink:title="Apple/iOS/Device.mm">
<polygon fill="white" stroke="black" points="1178.5,-0.5 1178.5,-18.5 1292.31,-18.5 1292.31,-0.5 1178.5,-0.5"/>
<text text-anchor="middle" x="1235.4" y="-6.5" font-family="Helvetica,sans-Serif" font-size="10.00">Apple/iOS/Device.mm</text>
</a>
</g>
</g>
<!-- Node1&#45;&gt;Node10 -->
<g id="edge9" class="edge"><title>Node1&#45;&gt;Node10</title>
<path fill="none" stroke="midnightblue" d="M1067.85,-52.9883C1107.81,-42.856 1167.4,-27.7436 1203.7,-18.5383"/>
<polygon fill="midnightblue" stroke="midnightblue" points="1066.98,-49.5997 1058.14,-55.4504 1068.7,-56.3849 1066.98,-49.5997"/>
</g>
<!-- Node11 -->
<g id="node11" class="node"><title>Node11</title>
<g id="a_node11"><a xlink:href="_o_s_01_x_2_device_8mm.html" target="_top" xlink:title="Apple/OS X/Device.mm">
<polygon fill="white" stroke="black" points="1309.88,-0.5 1309.88,-18.5 1430.92,-18.5 1430.92,-0.5 1309.88,-0.5"/>
<text text-anchor="middle" x="1370.4" y="-6.5" font-family="Helvetica,sans-Serif" font-size="10.00">Apple/OS X/Device.mm</text>
</a>
</g>
</g>
<!-- Node1&#45;&gt;Node11 -->
<g id="edge10" class="edge"><title>Node1&#45;&gt;Node11</title>
<path fill="none" stroke="midnightblue" d="M1069.75,-56.8216C1133.05,-47.0681 1250.62,-28.9543 1318.47,-18.5017"/>
<polygon fill="midnightblue" stroke="midnightblue" points="1069.05,-53.388 1059.7,-58.37 1070.11,-60.3064 1069.05,-53.388"/>
</g>
<!-- Node12 -->
<g id="node12" class="node"><title>Node12</title>
<g id="a_node12"><a xlink:href="_crypto_kit_8cpp.html" target="_top" xlink:title="CryptoKit.cpp">
<polygon fill="white" stroke="black" points="1449.39,-0.5 1449.39,-18.5 1525.41,-18.5 1525.41,-0.5 1449.39,-0.5"/>
<text text-anchor="middle" x="1487.4" y="-6.5" font-family="Helvetica,sans-Serif" font-size="10.00">CryptoKit.cpp</text>
</a>
</g>
</g>
<!-- Node1&#45;&gt;Node12 -->
<g id="edge11" class="edge"><title>Node1&#45;&gt;Node12</title>
<path fill="none" stroke="midnightblue" d="M1069.57,-59.8889C1145,-53.3499 1305.61,-38.4077 1440.4,-19 1443.27,-18.5864 1446.24,-18.127 1449.22,-17.6421"/>
<polygon fill="midnightblue" stroke="midnightblue" points="1069.17,-56.4106 1059.51,-60.7554 1069.77,-63.3848 1069.17,-56.4106"/>
</g>
<!-- Node13 -->
<g id="node13" class="node"><title>Node13</title>
<g id="a_node13"><a xlink:href="_device_8cpp.html" target="_top" xlink:title="Device.cpp">
<polygon fill="white" stroke="black" points="1543.67,-0.5 1543.67,-18.5 1609.14,-18.5 1609.14,-0.5 1543.67,-0.5"/>
<text text-anchor="middle" x="1576.4" y="-6.5" font-family="Helvetica,sans-Serif" font-size="10.00">Device.cpp</text>
</a>
</g>
</g>
<!-- Node1&#45;&gt;Node13 -->
<g id="edge12" class="edge"><title>Node1&#45;&gt;Node13</title>
<path fill="none" stroke="midnightblue" d="M1069.66,-61.353C1157.57,-56.6287 1363.27,-43.733 1534.4,-19 1537.35,-18.5743 1540.4,-18.0742 1543.45,-17.5332"/>
<polygon fill="midnightblue" stroke="midnightblue" points="1069.34,-57.8652 1059.53,-61.8889 1069.71,-64.8554 1069.34,-57.8652"/>
</g>
<!-- Node14 -->
<g id="node14" class="node"><title>Node14</title>
<g id="a_node14"><a xlink:href="_m_k_utils_8cpp.html" target="_top" xlink:title="Examples/MKUtils.cpp">
<polygon fill="white" stroke="black" points="1627.39,-0.5 1627.39,-18.5 1743.42,-18.5 1743.42,-0.5 1627.39,-0.5"/>
<text text-anchor="middle" x="1685.4" y="-6.5" font-family="Helvetica,sans-Serif" font-size="10.00">Examples/MKUtils.cpp</text>
</a>
</g>
</g>
<!-- Node1&#45;&gt;Node14 -->
<g id="edge13" class="edge"><title>Node1&#45;&gt;Node14</title>
<path fill="none" stroke="midnightblue" d="M1069.6,-61.0125C1167.43,-55.2131 1413.35,-39.7005 1618.4,-19 1621.32,-18.7056 1624.3,-18.3876 1627.32,-18.0535"/>
<polygon fill="midnightblue" stroke="midnightblue" points="1069.28,-57.5251 1059.51,-61.6075 1069.7,-64.5129 1069.28,-57.5251"/>
</g>
<!-- Node15 -->
<g id="node15" class="node"><title>Node15</title>
<g id="a_node15"><a xlink:href="_maw_kit_8h.html" target="_top" xlink:title="MawKit.h">
<polygon fill="white" stroke="black" points="1761.84,-0.5 1761.84,-18.5 1818.96,-18.5 1818.96,-0.5 1761.84,-0.5"/>
<text text-anchor="middle" x="1790.4" y="-6.5" font-family="Helvetica,sans-Serif" font-size="10.00">MawKit.h</text>
</a>
</g>
</g>
<!-- Node1&#45;&gt;Node15 -->
<g id="edge14" class="edge"><title>Node1&#45;&gt;Node15</title>
<path fill="none" stroke="midnightblue" d="M1069.82,-63.2369C1182.85,-62.0341 1495.32,-55.3969 1752.4,-19 1755.35,-18.583 1758.4,-18.0583 1761.44,-17.4752"/>
<polygon fill="midnightblue" stroke="midnightblue" points="1069.48,-59.7399 1059.51,-63.3371 1069.55,-66.7396 1069.48,-59.7399"/>
</g>
</g>
</svg>
        <g id="navigator" transform="translate(0 0)" fill="#404254">
                <rect fill="#f2f5e9" fill-opacity="0.5" stroke="#606060" stroke-width=".5" x="0" y="0" width="60" height="60"/>
                <use id="zoomplus" xlink:href="#zoomPlus" x="17" y="9" onmousedown="handleZoom(evt,'in')"/>
                <use id="zoomminus" xlink:href="#zoomMin" x="42" y="9" onmousedown="handleZoom(evt,'out')"/>
                <use id="reset" xlink:href="#resetDef" x="30" y="36" onmousedown="handleReset()"/>
                <g id="arrowUp" xlink:href="#dirArrow" transform="translate(30 24)" onmousedown="handlePan(0,-1)">
                  <use xlink:href="#rim" fill="#404040">
                        <set attributeName="fill" to="#808080" begin="arrowUp.mouseover" end="arrowUp.mouseout"/>
                  </use>
                  <path fill="none" stroke="white" stroke-width="1.5" d="M0,-3.0v7 M-2.5,-0.5L0,-3.0L2.5,-0.5"/>
                </g>
                <g id="arrowRight" xlink:href="#dirArrow" transform="rotate(90) translate(36 -43)" onmousedown="handlePan(1,0)">
                  <use xlink:href="#rim" fill="#404040">
                        <set attributeName="fill" to="#808080" begin="arrowRight.mouseover" end="arrowRight.mouseout"/>
                  </use>
                  <path fill="none" stroke="white" stroke-width="1.5" d="M0,-3.0v7 M-2.5,-0.5L0,-3.0L2.5,-0.5"/>
                </g>
                <g id="arrowDown" xlink:href="#dirArrow" transform="rotate(180) translate(-30 -48)" onmousedown="handlePan(0,1)">
                  <use xlink:href="#rim" fill="#404040">
                        <set attributeName="fill" to="#808080" begin="arrowDown.mouseover" end="arrowDown.mouseout"/>
                  </use>
                  <path fill="none" stroke="white" stroke-width="1.5" d="M0,-3.0v7 M-2.5,-0.5L0,-3.0L2.5,-0.5"/>
                </g>
                <g id="arrowLeft" xlink:href="#dirArrow" transform="rotate(270) translate(-36 17)" onmousedown="handlePan(-1,0)">
                  <use xlink:href="#rim" fill="#404040">
                        <set attributeName="fill" to="#808080" begin="arrowLeft.mouseover" end="arrowLeft.mouseout"/>
                  </use>
                  <path fill="none" stroke="white" stroke-width="1.5" d="M0,-3.0v7 M-2.5,-0.5L0,-3.0L2.5,-0.5"/>
                </g>
        </g>
        <svg viewBox="0 0 15 15" width="100%" height="30px" preserveAspectRatio="xMaxYMin meet">
         <g id="arrow_out" transform="scale(0.3 0.3)">
          <a xlink:href="_device_8hpp__dep__incl_org.svg" target="_base">
           <rect id="button" ry="5" rx="5" y="6" x="6" height="38" width="38"
                fill="#f2f5e9" fill-opacity="0.5" stroke="#606060" stroke-width="1.0"/>
           <path id="arrow"
             d="M 11.500037,31.436501 C 11.940474,20.09759 22.043105,11.32322 32.158766,21.979434 L 37.068811,17.246167 C 37.068811,17.246167 37.088388,32 37.088388,32 L 22.160133,31.978069 C 22.160133,31.978069 26.997745,27.140456 26.997745,27.140456 C 18.528582,18.264221 13.291696,25.230495 11.500037,31.436501 z"
             style="fill:#404040;"/>
          </a>
         </g>
        </svg>
</svg>
