<?xml version="1.0" encoding="UTF-8" standalone="no"?>
<!DOCTYPE svg PUBLIC "-//W3C//DTD SVG 1.1//EN"
 "http://www.w3.org/Graphics/SVG/1.1/DTD/svg11.dtd">
<!-- Generated by graphviz version 2.38.0 (20140413.2041)
 -->
<!-- Title: Device.cpp Pages: 1 -->
<svg width="128pt" height="137pt"
 viewBox="0.00 0.00 128.02 137.00" xmlns="http://www.w3.org/2000/svg" xmlns:xlink="http://www.w3.org/1999/xlink">
<g id="graph0" class="graph" transform="scale(1 1) rotate(0) translate(4 133)">
<title>Device.cpp</title>
<polygon fill="white" stroke="none" points="-4,4 -4,-133 124.02,-133 124.02,4 -4,4"/>
<!-- Node1 -->
<g id="node1" class="node"><title>Node1</title>
<polygon fill="#bfbfbf" stroke="black" points="21.4927,-110.5 21.4927,-128.5 86.9604,-128.5 86.9604,-110.5 21.4927,-110.5"/>
<text text-anchor="middle" x="54.2266" y="-116.5" font-family="Helvetica,sans-Serif" font-size="10.00">Device.cpp</text>
</g>
<!-- Node2 -->
<g id="node2" class="node"><title>Node2</title>
<g id="a_node2"><a xlink:href="_device_8hpp.html" target="_top" xlink:title="Device.hpp">
<polygon fill="white" stroke="black" points="21.2119,-55.5 21.2119,-73.5 87.2412,-73.5 87.2412,-55.5 21.2119,-55.5"/>
<text text-anchor="middle" x="54.2266" y="-61.5" font-family="Helvetica,sans-Serif" font-size="10.00">Device.hpp</text>
</a>
</g>
</g>
<!-- Node1&#45;&gt;Node2 -->
<g id="edge1" class="edge"><title>Node1&#45;&gt;Node2</title>
<path fill="none" stroke="midnightblue" d="M54.2266,-110.219C54.2266,-103.177 54.2266,-92.8083 54.2266,-83.8277"/>
<polygon fill="midnightblue" stroke="midnightblue" points="57.7267,-83.5495 54.2266,-73.5496 50.7267,-83.5496 57.7267,-83.5495"/>
</g>
<!-- Node3 -->
<g id="node3" class="node"><title>Node3</title>
<polygon fill="white" stroke="#bfbfbf" points="0,-0.5 0,-18.5 40.4531,-18.5 40.4531,-0.5 0,-0.5"/>
<text text-anchor="middle" x="20.2266" y="-6.5" font-family="Helvetica,sans-Serif" font-size="10.00">string</text>
</g>
<!-- Node2&#45;&gt;Node3 -->
<g id="edge2" class="edge"><title>Node2&#45;&gt;Node3</title>
<path fill="none" stroke="midnightblue" d="M48.9141,-55.2188C44.0955,-47.7074 36.8487,-36.411 30.8445,-27.0515"/>
<polygon fill="midnightblue" stroke="midnightblue" points="33.736,-25.0767 25.3904,-18.5496 27.8441,-28.8564 33.736,-25.0767"/>
</g>
<!-- Node4 -->
<g id="node4" class="node"><title>Node4</title>
<polygon fill="white" stroke="#bfbfbf" points="58.4336,-0.5 58.4336,-18.5 120.02,-18.5 120.02,-0.5 58.4336,-0.5"/>
<text text-anchor="middle" x="89.2266" y="-6.5" font-family="Helvetica,sans-Serif" font-size="10.00">cocos2d.h</text>
</g>
<!-- Node2&#45;&gt;Node4 -->
<g id="edge3" class="edge"><title>Node2&#45;&gt;Node4</title>
<path fill="none" stroke="midnightblue" d="M59.6953,-55.2188C64.6556,-47.7074 72.1155,-36.411 78.2963,-27.0515"/>
<polygon fill="midnightblue" stroke="midnightblue" points="81.3208,-28.823 83.9108,-18.5496 75.4795,-24.9655 81.3208,-28.823"/>
</g>
</g>
</svg>
