<?xml version="1.0" encoding="UTF-8" standalone="no"?>
<!DOCTYPE svg PUBLIC "-//W3C//DTD SVG 1.1//EN"
 "http://www.w3.org/Graphics/SVG/1.1/DTD/svg11.dtd">
<!-- Generated by graphviz version 2.38.0 (20140413.2041)
 -->
<!-- Title: Android/Facebook.cpp Pages: 1 -->
<svg width="176pt" height="137pt"
 viewBox="0.00 0.00 175.65 137.00" xmlns="http://www.w3.org/2000/svg" xmlns:xlink="http://www.w3.org/1999/xlink">
<g id="graph0" class="graph" transform="scale(1 1) rotate(0) translate(4 133)">
<title>Android/Facebook.cpp</title>
<polygon fill="white" stroke="none" points="-4,4 -4,-133 171.65,-133 171.65,4 -4,4"/>
<!-- Node1 -->
<g id="node1" class="node"><title>Node1</title>
<polygon fill="#bfbfbf" stroke="black" points="31.8252,-110.5 31.8252,-128.5 147.889,-128.5 147.889,-110.5 31.8252,-110.5"/>
<text text-anchor="middle" x="89.8569" y="-116.5" font-family="Helvetica,sans-Serif" font-size="10.00">Android/Facebook.cpp</text>
</g>
<!-- Node2 -->
<g id="node2" class="node"><title>Node2</title>
<g id="a_node2"><a xlink:href="_facebook_8hpp.html" target="_top" xlink:title="../Facebook.hpp">
<polygon fill="white" stroke="black" points="0,-55.5 0,-73.5 87.7139,-73.5 87.7139,-55.5 0,-55.5"/>
<text text-anchor="middle" x="43.8569" y="-61.5" font-family="Helvetica,sans-Serif" font-size="10.00">../Facebook.hpp</text>
</a>
</g>
</g>
<!-- Node1&#45;&gt;Node2 -->
<g id="edge1" class="edge"><title>Node1&#45;&gt;Node2</title>
<path fill="none" stroke="midnightblue" d="M82.6694,-110.219C75.9464,-102.473 65.7298,-90.7013 57.4659,-81.1799"/>
<polygon fill="midnightblue" stroke="midnightblue" points="60.0414,-78.8076 50.8433,-73.5496 54.7548,-83.3959 60.0414,-78.8076"/>
</g>
<!-- Node4 -->
<g id="node4" class="node"><title>Node4</title>
<polygon fill="white" stroke="#bfbfbf" points="106.064,-55.5 106.064,-73.5 167.65,-73.5 167.65,-55.5 106.064,-55.5"/>
<text text-anchor="middle" x="136.857" y="-61.5" font-family="Helvetica,sans-Serif" font-size="10.00">cocos2d.h</text>
</g>
<!-- Node1&#45;&gt;Node4 -->
<g id="edge3" class="edge"><title>Node1&#45;&gt;Node4</title>
<path fill="none" stroke="midnightblue" d="M97.2007,-110.219C104.07,-102.473 114.509,-90.7013 122.952,-81.1799"/>
<polygon fill="midnightblue" stroke="midnightblue" points="125.702,-83.3537 129.719,-73.5496 120.465,-78.7092 125.702,-83.3537"/>
</g>
<!-- Node3 -->
<g id="node3" class="node"><title>Node3</title>
<polygon fill="white" stroke="#bfbfbf" points="23.6304,-0.5 23.6304,-18.5 64.0835,-18.5 64.0835,-0.5 23.6304,-0.5"/>
<text text-anchor="middle" x="43.8569" y="-6.5" font-family="Helvetica,sans-Serif" font-size="10.00">string</text>
</g>
<!-- Node2&#45;&gt;Node3 -->
<g id="edge2" class="edge"><title>Node2&#45;&gt;Node3</title>
<path fill="none" stroke="midnightblue" d="M43.8569,-55.2188C43.8569,-48.1769 43.8569,-37.8083 43.8569,-28.8277"/>
<polygon fill="midnightblue" stroke="midnightblue" points="47.357,-28.5495 43.8569,-18.5496 40.357,-28.5496 47.357,-28.5495"/>
</g>
</g>
</svg>
