<?xml version="1.0" encoding="UTF-8" standalone="no"?>
<!DOCTYPE svg PUBLIC "-//W3C//DTD SVG 1.1//EN"
 "http://www.w3.org/Graphics/SVG/1.1/DTD/svg11.dtd">
<!-- Generated by graphviz version 2.38.0 (20140413.2041)
 -->
<!-- Title: Facebook.hpp Pages: 1 -->
<svg width="498pt" height="82pt"
 viewBox="0.00 0.00 497.59 82.00" xmlns="http://www.w3.org/2000/svg" xmlns:xlink="http://www.w3.org/1999/xlink">
<g id="graph0" class="graph" transform="scale(1 1) rotate(0) translate(4 78)">
<title>Facebook.hpp</title>
<polygon fill="white" stroke="none" points="-4,4 -4,-78 493.593,-78 493.593,4 -4,4"/>
<!-- Node1 -->
<g id="node1" class="node"><title>Node1</title>
<polygon fill="#bfbfbf" stroke="black" points="232.342,-55.5 232.342,-73.5 311.721,-73.5 311.721,-55.5 232.342,-55.5"/>
<text text-anchor="middle" x="272.032" y="-61.5" font-family="Helvetica,sans-Serif" font-size="10.00">Facebook.hpp</text>
</g>
<!-- Node2 -->
<g id="node2" class="node"><title>Node2</title>
<g id="a_node2"><a xlink:href="_facebook_8cpp.html" target="_top" xlink:title="Android/Facebook.cpp">
<polygon fill="white" stroke="black" points="0,-0.5 0,-18.5 116.063,-18.5 116.063,-0.5 0,-0.5"/>
<text text-anchor="middle" x="58.0317" y="-6.5" font-family="Helvetica,sans-Serif" font-size="10.00">Android/Facebook.cpp</text>
</a>
</g>
</g>
<!-- Node1&#45;&gt;Node2 -->
<g id="edge1" class="edge"><title>Node1&#45;&gt;Node2</title>
<path fill="none" stroke="midnightblue" d="M229.588,-52.9883C188.677,-42.856 127.657,-27.7436 90.4883,-18.5383"/>
<polygon fill="midnightblue" stroke="midnightblue" points="228.982,-56.4437 239.53,-55.4504 230.664,-49.649 228.982,-56.4437"/>
</g>
<!-- Node3 -->
<g id="node3" class="node"><title>Node3</title>
<g id="a_node3"><a xlink:href="i_o_s_2_facebook_8mm.html" target="_top" xlink:title="Apple/iOS/Facebook.mm">
<polygon fill="white" stroke="black" points="134.453,-0.5 134.453,-18.5 261.61,-18.5 261.61,-0.5 134.453,-0.5"/>
<text text-anchor="middle" x="198.032" y="-6.5" font-family="Helvetica,sans-Serif" font-size="10.00">Apple/iOS/Facebook.mm</text>
</a>
</g>
</g>
<!-- Node1&#45;&gt;Node3 -->
<g id="edge2" class="edge"><title>Node1&#45;&gt;Node3</title>
<path fill="none" stroke="midnightblue" d="M252.473,-49.4916C238.73,-39.6491 220.826,-26.8255 209.377,-18.6253"/>
<polygon fill="midnightblue" stroke="midnightblue" points="250.625,-52.4731 260.793,-55.4504 254.701,-46.7822 250.625,-52.4731"/>
</g>
<!-- Node4 -->
<g id="node4" class="node"><title>Node4</title>
<g id="a_node4"><a xlink:href="_o_s_01_x_2_facebook_8mm.html" target="_top" xlink:title="Apple/OS X/Facebook.mm">
<polygon fill="white" stroke="black" points="279.84,-0.5 279.84,-18.5 414.224,-18.5 414.224,-0.5 279.84,-0.5"/>
<text text-anchor="middle" x="347.032" y="-6.5" font-family="Helvetica,sans-Serif" font-size="10.00">Apple/OS X/Facebook.mm</text>
</a>
</g>
</g>
<!-- Node1&#45;&gt;Node4 -->
<g id="edge3" class="edge"><title>Node1&#45;&gt;Node4</title>
<path fill="none" stroke="midnightblue" d="M291.855,-49.4916C305.783,-39.6491 323.93,-26.8255 335.534,-18.6253"/>
<polygon fill="midnightblue" stroke="midnightblue" points="289.569,-46.821 283.423,-55.4504 293.609,-52.5376 289.569,-46.821"/>
</g>
<!-- Node5 -->
<g id="node5" class="node"><title>Node5</title>
<g id="a_node5"><a xlink:href="_maw_kit_8h.html" target="_top" xlink:title="MawKit.h">
<polygon fill="white" stroke="black" points="432.47,-0.5 432.47,-18.5 489.593,-18.5 489.593,-0.5 432.47,-0.5"/>
<text text-anchor="middle" x="461.032" y="-6.5" font-family="Helvetica,sans-Serif" font-size="10.00">MawKit.h</text>
</a>
</g>
</g>
<!-- Node1&#45;&gt;Node5 -->
<g id="edge4" class="edge"><title>Node1&#45;&gt;Node5</title>
<path fill="none" stroke="midnightblue" d="M310.439,-52.7297C346.561,-42.6003 399.819,-27.6655 432.367,-18.5383"/>
<polygon fill="midnightblue" stroke="midnightblue" points="309.42,-49.3803 300.737,-55.4504 311.31,-56.1203 309.42,-49.3803"/>
</g>
</g>
</svg>
