<?xml version="1.0" encoding="UTF-8" standalone="no"?>
<!DOCTYPE svg PUBLIC "-//W3C//DTD SVG 1.1//EN"
 "http://www.w3.org/Graphics/SVG/1.1/DTD/svg11.dtd">
<!-- Generated by graphviz version 2.38.0 (20140413.2041)
 -->
<!-- Title: Features.hpp Pages: 1 -->
<!--zoomable 82 -->
<svg id="main" version="1.1" xmlns="http://www.w3.org/2000/svg" xmlns:xlink="http://www.w3.org/1999/xlink" xml:space="preserve" onload="init(evt)">
<style type="text/css"><![CDATA[
.edge:hover path { stroke: red; }
.edge:hover polygon { stroke: red; fill: red; }
]]></style>
<script type="text/javascript"><![CDATA[
var edges = document.getElementsByTagName('g');
if (edges && edges.length) {
  for (var i=0;i<edges.length;i++) {
    if (edges[i].id.substr(0,4)=='edge') {
      edges[i].setAttribute('class','edge');
    }
  }
}
]]></script>
        <defs>
                <circle id="rim" cx="0" cy="0" r="7"/>
                <circle id="rim2" cx="0" cy="0" r="3.5"/>
                <g id="zoomPlus">
                        <use xlink:href="#rim" fill="#404040">
                                <set attributeName="fill" to="#808080" begin="zoomplus.mouseover" end="zoomplus.mouseout"/>
                        </use>
                        <path d="M-4,0h8M0,-4v8" fill="none" stroke="white" stroke-width="1.5" pointer-events="none"/>
                </g>
                <g id="zoomMin">
                        <use xlink:href="#rim" fill="#404040">
                                <set attributeName="fill" to="#808080" begin="zoomminus.mouseover" end="zoomminus.mouseout"/>
                        </use>
                        <path d="M-4,0h8" fill="none" stroke="white" stroke-width="1.5" pointer-events="none"/>
                </g>
                <g id="dirArrow">
                        <path fill="none" stroke="white" stroke-width="1.5" d="M0,-3.0v7 M-2.5,-0.5L0,-3.0L2.5,-0.5"/>
                </g>
               <g id="resetDef">
                       <use xlink:href="#rim2" fill="#404040">
                               <set attributeName="fill" to="#808080" begin="reset.mouseover" end="reset.mouseout"/>
                       </use>
               </g>
        </defs>

<script type="text/javascript">
var viewWidth = 612;
var viewHeight = 82;
var sectionId = 'dynsection-0';
</script>
<script xlink:href="svgpan.js"/>
<svg id="graph" class="graph">
<g id="viewport">
<title>Features.hpp</title>
<polygon fill="white" stroke="none" points="-4,4 -4,-78 607.746,-78 607.746,4 -4,4"/>
<!-- Node1 -->
<g id="node1" class="node"><title>Node1</title>
<polygon fill="#bfbfbf" stroke="black" points="265.938,-55.5 265.938,-73.5 340.864,-73.5 340.864,-55.5 265.938,-55.5"/>
<text text-anchor="middle" x="303.401" y="-61.5" font-family="Helvetica,sans-Serif" font-size="10.00">Features.hpp</text>
</g>
<!-- Node2 -->
<g id="node2" class="node"><title>Node2</title>
<g id="a_node2"><a xlink:href="_ad_kit_8cpp.html" target="_top" xlink:title="AdKit.cpp">
<polygon fill="white" stroke="black" points="0,-0.5 0,-18.5 58.8027,-18.5 58.8027,-0.5 0,-0.5"/>
<text text-anchor="middle" x="29.4014" y="-6.5" font-family="Helvetica,sans-Serif" font-size="10.00">AdKit.cpp</text>
</a>
</g>
</g>
<!-- Node1&#45;&gt;Node2 -->
<g id="edge1" class="edge"><title>Node1&#45;&gt;Node2</title>
<path fill="none" stroke="midnightblue" d="M255.895,-54.8996C208.374,-46.2034 133.223,-32.1986 68.4014,-19 65.4136,-18.3916 62.3007,-17.7413 59.1941,-17.0814"/>
<polygon fill="midnightblue" stroke="midnightblue" points="255.429,-58.3722 265.895,-56.7257 256.686,-51.4861 255.429,-58.3722"/>
</g>
<!-- Node3 -->
<g id="node3" class="node"><title>Node3</title>
<g id="a_node3"><a xlink:href="_analytics_8cpp.html" target="_top" xlink:title="Analytics.cpp">
<polygon fill="white" stroke="black" points="76.9434,-0.5 76.9434,-18.5 151.859,-18.5 151.859,-0.5 76.9434,-0.5"/>
<text text-anchor="middle" x="114.401" y="-6.5" font-family="Helvetica,sans-Serif" font-size="10.00">Analytics.cpp</text>
</a>
</g>
</g>
<!-- Node1&#45;&gt;Node3 -->
<g id="edge2" class="edge"><title>Node1&#45;&gt;Node3</title>
<path fill="none" stroke="midnightblue" d="M264.994,-52.7297C228.872,-42.6003 175.614,-27.6655 143.066,-18.5383"/>
<polygon fill="midnightblue" stroke="midnightblue" points="264.123,-56.1203 274.696,-55.4504 266.013,-49.3803 264.123,-56.1203"/>
</g>
<!-- Node4 -->
<g id="node4" class="node"><title>Node4</title>
<g id="a_node4"><a xlink:href="i_o_s_2_facebook_8mm.html" target="_top" xlink:title="Apple/iOS/Facebook.mm">
<polygon fill="white" stroke="black" points="169.823,-0.5 169.823,-18.5 296.98,-18.5 296.98,-0.5 169.823,-0.5"/>
<text text-anchor="middle" x="233.401" y="-6.5" font-family="Helvetica,sans-Serif" font-size="10.00">Apple/iOS/Facebook.mm</text>
</a>
</g>
</g>
<!-- Node1&#45;&gt;Node4 -->
<g id="edge3" class="edge"><title>Node1&#45;&gt;Node4</title>
<path fill="none" stroke="midnightblue" d="M284.527,-49.2095C271.578,-39.4052 254.86,-26.7474 244.133,-18.6253"/>
<polygon fill="midnightblue" stroke="midnightblue" points="282.685,-52.2044 292.77,-55.4504 286.91,-46.6236 282.685,-52.2044"/>
</g>
<!-- Node5 -->
<g id="node5" class="node"><title>Node5</title>
<g id="a_node5"><a xlink:href="_m_k_utils_8cpp.html" target="_top" xlink:title="Examples/MKUtils.cpp">
<polygon fill="white" stroke="black" points="315.387,-0.5 315.387,-18.5 431.416,-18.5 431.416,-0.5 315.387,-0.5"/>
<text text-anchor="middle" x="373.401" y="-6.5" font-family="Helvetica,sans-Serif" font-size="10.00">Examples/MKUtils.cpp</text>
</a>
</g>
</g>
<!-- Node1&#45;&gt;Node5 -->
<g id="edge4" class="edge"><title>Node1&#45;&gt;Node5</title>
<path fill="none" stroke="midnightblue" d="M322.276,-49.2095C335.225,-39.4052 351.942,-26.7474 362.67,-18.6253"/>
<polygon fill="midnightblue" stroke="midnightblue" points="319.893,-46.6236 314.033,-55.4504 324.118,-52.2044 319.893,-46.6236"/>
</g>
<!-- Node6 -->
<g id="node6" class="node"><title>Node6</title>
<g id="a_node6"><a xlink:href="_game_kit_8cpp.html" target="_top" xlink:title="GameKit.cpp">
<polygon fill="white" stroke="black" points="449.5,-0.5 449.5,-18.5 523.303,-18.5 523.303,-0.5 449.5,-0.5"/>
<text text-anchor="middle" x="486.401" y="-6.5" font-family="Helvetica,sans-Serif" font-size="10.00">GameKit.cpp</text>
</a>
</g>
</g>
<!-- Node1&#45;&gt;Node6 -->
<g id="edge5" class="edge"><title>Node1&#45;&gt;Node6</title>
<path fill="none" stroke="midnightblue" d="M341.039,-52.5996C376.005,-42.4728 427.266,-27.6265 458.646,-18.5383"/>
<polygon fill="midnightblue" stroke="midnightblue" points="339.827,-49.3067 331.195,-55.4504 341.774,-56.0304 339.827,-49.3067"/>
</g>
<!-- Node7 -->
<g id="node7" class="node"><title>Node7</title>
<g id="a_node7"><a xlink:href="_i_a_p_kit_8cpp.html" target="_top" xlink:title="IAPKit.cpp">
<polygon fill="white" stroke="black" points="541.057,-0.5 541.057,-18.5 603.746,-18.5 603.746,-0.5 541.057,-0.5"/>
<text text-anchor="middle" x="572.401" y="-6.5" font-family="Helvetica,sans-Serif" font-size="10.00">IAPKit.cpp</text>
</a>
</g>
</g>
<!-- Node1&#45;&gt;Node7 -->
<g id="edge6" class="edge"><title>Node1&#45;&gt;Node7</title>
<path fill="none" stroke="midnightblue" d="M351.185,-54.4662C397.544,-45.6421 469.86,-31.7206 532.401,-19 535.184,-18.434 538.074,-17.8373 540.969,-17.2334"/>
<polygon fill="midnightblue" stroke="midnightblue" points="350.297,-51.0721 341.127,-56.3781 351.605,-57.949 350.297,-51.0721"/>
</g>
</g>
</svg>
        <g id="navigator" transform="translate(0 0)" fill="#404254">
                <rect fill="#f2f5e9" fill-opacity="0.5" stroke="#606060" stroke-width=".5" x="0" y="0" width="60" height="60"/>
                <use id="zoomplus" xlink:href="#zoomPlus" x="17" y="9" onmousedown="handleZoom(evt,'in')"/>
                <use id="zoomminus" xlink:href="#zoomMin" x="42" y="9" onmousedown="handleZoom(evt,'out')"/>
                <use id="reset" xlink:href="#resetDef" x="30" y="36" onmousedown="handleReset()"/>
                <g id="arrowUp" xlink:href="#dirArrow" transform="translate(30 24)" onmousedown="handlePan(0,-1)">
                  <use xlink:href="#rim" fill="#404040">
                        <set attributeName="fill" to="#808080" begin="arrowUp.mouseover" end="arrowUp.mouseout"/>
                  </use>
                  <path fill="none" stroke="white" stroke-width="1.5" d="M0,-3.0v7 M-2.5,-0.5L0,-3.0L2.5,-0.5"/>
                </g>
                <g id="arrowRight" xlink:href="#dirArrow" transform="rotate(90) translate(36 -43)" onmousedown="handlePan(1,0)">
                  <use xlink:href="#rim" fill="#404040">
                        <set attributeName="fill" to="#808080" begin="arrowRight.mouseover" end="arrowRight.mouseout"/>
                  </use>
                  <path fill="none" stroke="white" stroke-width="1.5" d="M0,-3.0v7 M-2.5,-0.5L0,-3.0L2.5,-0.5"/>
                </g>
                <g id="arrowDown" xlink:href="#dirArrow" transform="rotate(180) translate(-30 -48)" onmousedown="handlePan(0,1)">
                  <use xlink:href="#rim" fill="#404040">
                        <set attributeName="fill" to="#808080" begin="arrowDown.mouseover" end="arrowDown.mouseout"/>
                  </use>
                  <path fill="none" stroke="white" stroke-width="1.5" d="M0,-3.0v7 M-2.5,-0.5L0,-3.0L2.5,-0.5"/>
                </g>
                <g id="arrowLeft" xlink:href="#dirArrow" transform="rotate(270) translate(-36 17)" onmousedown="handlePan(-1,0)">
                  <use xlink:href="#rim" fill="#404040">
                        <set attributeName="fill" to="#808080" begin="arrowLeft.mouseover" end="arrowLeft.mouseout"/>
                  </use>
                  <path fill="none" stroke="white" stroke-width="1.5" d="M0,-3.0v7 M-2.5,-0.5L0,-3.0L2.5,-0.5"/>
                </g>
        </g>
        <svg viewBox="0 0 15 15" width="100%" height="30px" preserveAspectRatio="xMaxYMin meet">
         <g id="arrow_out" transform="scale(0.3 0.3)">
          <a xlink:href="_features_8hpp__dep__incl_org.svg" target="_base">
           <rect id="button" ry="5" rx="5" y="6" x="6" height="38" width="38"
                fill="#f2f5e9" fill-opacity="0.5" stroke="#606060" stroke-width="1.0"/>
           <path id="arrow"
             d="M 11.500037,31.436501 C 11.940474,20.09759 22.043105,11.32322 32.158766,21.979434 L 37.068811,17.246167 C 37.068811,17.246167 37.088388,32 37.088388,32 L 22.160133,31.978069 C 22.160133,31.978069 26.997745,27.140456 26.997745,27.140456 C 18.528582,18.264221 13.291696,25.230495 11.500037,31.436501 z"
             style="fill:#404040;"/>
          </a>
         </g>
        </svg>
</svg>
