<?xml version="1.0" encoding="UTF-8" standalone="no"?>
<!DOCTYPE svg PUBLIC "-//W3C//DTD SVG 1.1//EN"
 "http://www.w3.org/Graphics/SVG/1.1/DTD/svg11.dtd">
<!-- Generated by graphviz version 2.38.0 (20140413.2041)
 -->
<!-- Title: Features.hpp Pages: 1 -->
<svg width="612pt" height="82pt"
 viewBox="0.00 0.00 611.75 82.00" xmlns="http://www.w3.org/2000/svg" xmlns:xlink="http://www.w3.org/1999/xlink">
<g id="graph0" class="graph" transform="scale(1 1) rotate(0) translate(4 78)">
<title>Features.hpp</title>
<polygon fill="white" stroke="none" points="-4,4 -4,-78 607.746,-78 607.746,4 -4,4"/>
<!-- Node1 -->
<g id="node1" class="node"><title>Node1</title>
<polygon fill="#bfbfbf" stroke="black" points="265.938,-55.5 265.938,-73.5 340.864,-73.5 340.864,-55.5 265.938,-55.5"/>
<text text-anchor="middle" x="303.401" y="-61.5" font-family="Helvetica,sans-Serif" font-size="10.00">Features.hpp</text>
</g>
<!-- Node2 -->
<g id="node2" class="node"><title>Node2</title>
<g id="a_node2"><a xlink:href="_ad_kit_8cpp.html" target="_top" xlink:title="AdKit.cpp">
<polygon fill="white" stroke="black" points="0,-0.5 0,-18.5 58.8027,-18.5 58.8027,-0.5 0,-0.5"/>
<text text-anchor="middle" x="29.4014" y="-6.5" font-family="Helvetica,sans-Serif" font-size="10.00">AdKit.cpp</text>
</a>
</g>
</g>
<!-- Node1&#45;&gt;Node2 -->
<g id="edge1" class="edge"><title>Node1&#45;&gt;Node2</title>
<path fill="none" stroke="midnightblue" d="M255.895,-54.8996C208.374,-46.2034 133.223,-32.1986 68.4014,-19 65.4136,-18.3916 62.3007,-17.7413 59.1941,-17.0814"/>
<polygon fill="midnightblue" stroke="midnightblue" points="255.429,-58.3722 265.895,-56.7257 256.686,-51.4861 255.429,-58.3722"/>
</g>
<!-- Node3 -->
<g id="node3" class="node"><title>Node3</title>
<g id="a_node3"><a xlink:href="_analytics_8cpp.html" target="_top" xlink:title="Analytics.cpp">
<polygon fill="white" stroke="black" points="76.9434,-0.5 76.9434,-18.5 151.859,-18.5 151.859,-0.5 76.9434,-0.5"/>
<text text-anchor="middle" x="114.401" y="-6.5" font-family="Helvetica,sans-Serif" font-size="10.00">Analytics.cpp</text>
</a>
</g>
</g>
<!-- Node1&#45;&gt;Node3 -->
<g id="edge2" class="edge"><title>Node1&#45;&gt;Node3</title>
<path fill="none" stroke="midnightblue" d="M264.994,-52.7297C228.872,-42.6003 175.614,-27.6655 143.066,-18.5383"/>
<polygon fill="midnightblue" stroke="midnightblue" points="264.123,-56.1203 274.696,-55.4504 266.013,-49.3803 264.123,-56.1203"/>
</g>
<!-- Node4 -->
<g id="node4" class="node"><title>Node4</title>
<g id="a_node4"><a xlink:href="i_o_s_2_facebook_8mm.html" target="_top" xlink:title="Apple/iOS/Facebook.mm">
<polygon fill="white" stroke="black" points="169.823,-0.5 169.823,-18.5 296.98,-18.5 296.98,-0.5 169.823,-0.5"/>
<text text-anchor="middle" x="233.401" y="-6.5" font-family="Helvetica,sans-Serif" font-size="10.00">Apple/iOS/Facebook.mm</text>
</a>
</g>
</g>
<!-- Node1&#45;&gt;Node4 -->
<g id="edge3" class="edge"><title>Node1&#45;&gt;Node4</title>
<path fill="none" stroke="midnightblue" d="M284.527,-49.2095C271.578,-39.4052 254.86,-26.7474 244.133,-18.6253"/>
<polygon fill="midnightblue" stroke="midnightblue" points="282.685,-52.2044 292.77,-55.4504 286.91,-46.6236 282.685,-52.2044"/>
</g>
<!-- Node5 -->
<g id="node5" class="node"><title>Node5</title>
<g id="a_node5"><a xlink:href="_m_k_utils_8cpp.html" target="_top" xlink:title="Examples/MKUtils.cpp">
<polygon fill="white" stroke="black" points="315.387,-0.5 315.387,-18.5 431.416,-18.5 431.416,-0.5 315.387,-0.5"/>
<text text-anchor="middle" x="373.401" y="-6.5" font-family="Helvetica,sans-Serif" font-size="10.00">Examples/MKUtils.cpp</text>
</a>
</g>
</g>
<!-- Node1&#45;&gt;Node5 -->
<g id="edge4" class="edge"><title>Node1&#45;&gt;Node5</title>
<path fill="none" stroke="midnightblue" d="M322.276,-49.2095C335.225,-39.4052 351.942,-26.7474 362.67,-18.6253"/>
<polygon fill="midnightblue" stroke="midnightblue" points="319.893,-46.6236 314.033,-55.4504 324.118,-52.2044 319.893,-46.6236"/>
</g>
<!-- Node6 -->
<g id="node6" class="node"><title>Node6</title>
<g id="a_node6"><a xlink:href="_game_kit_8cpp.html" target="_top" xlink:title="GameKit.cpp">
<polygon fill="white" stroke="black" points="449.5,-0.5 449.5,-18.5 523.303,-18.5 523.303,-0.5 449.5,-0.5"/>
<text text-anchor="middle" x="486.401" y="-6.5" font-family="Helvetica,sans-Serif" font-size="10.00">GameKit.cpp</text>
</a>
</g>
</g>
<!-- Node1&#45;&gt;Node6 -->
<g id="edge5" class="edge"><title>Node1&#45;&gt;Node6</title>
<path fill="none" stroke="midnightblue" d="M341.039,-52.5996C376.005,-42.4728 427.266,-27.6265 458.646,-18.5383"/>
<polygon fill="midnightblue" stroke="midnightblue" points="339.827,-49.3067 331.195,-55.4504 341.774,-56.0304 339.827,-49.3067"/>
</g>
<!-- Node7 -->
<g id="node7" class="node"><title>Node7</title>
<g id="a_node7"><a xlink:href="_i_a_p_kit_8cpp.html" target="_top" xlink:title="IAPKit.cpp">
<polygon fill="white" stroke="black" points="541.057,-0.5 541.057,-18.5 603.746,-18.5 603.746,-0.5 541.057,-0.5"/>
<text text-anchor="middle" x="572.401" y="-6.5" font-family="Helvetica,sans-Serif" font-size="10.00">IAPKit.cpp</text>
</a>
</g>
</g>
<!-- Node1&#45;&gt;Node7 -->
<g id="edge6" class="edge"><title>Node1&#45;&gt;Node7</title>
<path fill="none" stroke="midnightblue" d="M351.185,-54.4662C397.544,-45.6421 469.86,-31.7206 532.401,-19 535.184,-18.434 538.074,-17.8373 540.969,-17.2334"/>
<polygon fill="midnightblue" stroke="midnightblue" points="350.297,-51.0721 341.127,-56.3781 351.605,-57.949 350.297,-51.0721"/>
</g>
</g>
</svg>
