<?xml version="1.0" encoding="UTF-8" standalone="no"?>
<!DOCTYPE svg PUBLIC "-//W3C//DTD SVG 1.1//EN"
 "http://www.w3.org/Graphics/SVG/1.1/DTD/svg11.dtd">
<!-- Generated by graphviz version 2.38.0 (20140413.2041)
 -->
<!-- Title: FiniteTimeActions.cpp Pages: 1 -->
<svg width="358pt" height="137pt"
 viewBox="0.00 0.00 357.90 137.00" xmlns="http://www.w3.org/2000/svg" xmlns:xlink="http://www.w3.org/1999/xlink">
<g id="graph0" class="graph" transform="scale(1 1) rotate(0) translate(4 133)">
<title>FiniteTimeActions.cpp</title>
<polygon fill="white" stroke="none" points="-4,4 -4,-133 353.898,-133 353.898,4 -4,4"/>
<!-- Node1 -->
<g id="node1" class="node"><title>Node1</title>
<polygon fill="#bfbfbf" stroke="black" points="69.2808,-110.5 69.2808,-128.5 183.284,-128.5 183.284,-110.5 69.2808,-110.5"/>
<text text-anchor="middle" x="126.282" y="-116.5" font-family="Helvetica,sans-Serif" font-size="10.00">FiniteTimeActions.cpp</text>
</g>
<!-- Node2 -->
<g id="node2" class="node"><title>Node2</title>
<g id="a_node2"><a xlink:href="_finite_time_actions_8hpp.html" target="_top" xlink:title="FiniteTimeActions.hpp">
<polygon fill="white" stroke="black" points="0,-55.5 0,-73.5 114.564,-73.5 114.564,-55.5 0,-55.5"/>
<text text-anchor="middle" x="57.2822" y="-61.5" font-family="Helvetica,sans-Serif" font-size="10.00">FiniteTimeActions.hpp</text>
</a>
</g>
</g>
<!-- Node1&#45;&gt;Node2 -->
<g id="edge1" class="edge"><title>Node1&#45;&gt;Node2</title>
<path fill="none" stroke="midnightblue" d="M115.803,-110.45C105.265,-102.357 88.7933,-89.7042 76.0062,-79.8822"/>
<polygon fill="midnightblue" stroke="midnightblue" points="77.9231,-76.9412 67.8605,-73.6253 73.6589,-82.4926 77.9231,-76.9412"/>
</g>
<!-- Node4 -->
<g id="node4" class="node"><title>Node4</title>
<g id="a_node4"><a xlink:href="_random_8hpp.html" target="_top" xlink:title="Random.hpp">
<polygon fill="white" stroke="black" points="146.652,-55.5 146.652,-73.5 219.913,-73.5 219.913,-55.5 146.652,-55.5"/>
<text text-anchor="middle" x="183.282" y="-61.5" font-family="Helvetica,sans-Serif" font-size="10.00">Random.hpp</text>
</a>
</g>
</g>
<!-- Node1&#45;&gt;Node4 -->
<g id="edge3" class="edge"><title>Node1&#45;&gt;Node4</title>
<path fill="none" stroke="midnightblue" d="M135.188,-110.219C143.687,-102.316 156.692,-90.2241 167.037,-80.6057"/>
<polygon fill="midnightblue" stroke="midnightblue" points="169.685,-82.9222 174.625,-73.5496 164.918,-77.7958 169.685,-82.9222"/>
</g>
<!-- Node3 -->
<g id="node3" class="node"><title>Node3</title>
<polygon fill="white" stroke="#bfbfbf" points="13.4893,-0.5 13.4893,-18.5 75.0752,-18.5 75.0752,-0.5 13.4893,-0.5"/>
<text text-anchor="middle" x="44.2822" y="-6.5" font-family="Helvetica,sans-Serif" font-size="10.00">cocos2d.h</text>
</g>
<!-- Node2&#45;&gt;Node3 -->
<g id="edge2" class="edge"><title>Node2&#45;&gt;Node3</title>
<path fill="none" stroke="midnightblue" d="M55.251,-55.2188C53.5045,-48.0986 50.9239,-37.5775 48.7044,-28.5289"/>
<polygon fill="midnightblue" stroke="midnightblue" points="52.0382,-27.4279 46.2566,-18.5496 45.2397,-29.0955 52.0382,-27.4279"/>
</g>
<!-- Node5 -->
<g id="node5" class="node"><title>Node5</title>
<polygon fill="white" stroke="#bfbfbf" points="92.7207,-0.5 92.7207,-18.5 139.844,-18.5 139.844,-0.5 92.7207,-0.5"/>
<text text-anchor="middle" x="116.282" y="-6.5" font-family="Helvetica,sans-Serif" font-size="10.00">iterator</text>
</g>
<!-- Node4&#45;&gt;Node5 -->
<g id="edge4" class="edge"><title>Node4&#45;&gt;Node5</title>
<path fill="none" stroke="midnightblue" d="M173.106,-55.4504C162.875,-47.3566 146.88,-34.7042 134.463,-24.8822"/>
<polygon fill="midnightblue" stroke="midnightblue" points="136.568,-22.0844 126.554,-18.6253 132.225,-27.5744 136.568,-22.0844"/>
</g>
<!-- Node6 -->
<g id="node6" class="node"><title>Node6</title>
<polygon fill="white" stroke="#bfbfbf" points="158.329,-0.5 158.329,-18.5 208.235,-18.5 208.235,-0.5 158.329,-0.5"/>
<text text-anchor="middle" x="183.282" y="-6.5" font-family="Helvetica,sans-Serif" font-size="10.00">random</text>
</g>
<!-- Node4&#45;&gt;Node6 -->
<g id="edge5" class="edge"><title>Node4&#45;&gt;Node6</title>
<path fill="none" stroke="midnightblue" d="M183.282,-55.2188C183.282,-48.1769 183.282,-37.8083 183.282,-28.8277"/>
<polygon fill="midnightblue" stroke="midnightblue" points="186.782,-28.5495 183.282,-18.5496 179.782,-28.5496 186.782,-28.5495"/>
</g>
<!-- Node7 -->
<g id="node7" class="node"><title>Node7</title>
<polygon fill="white" stroke="#bfbfbf" points="226.216,-0.5 226.216,-18.5 288.349,-18.5 288.349,-0.5 226.216,-0.5"/>
<text text-anchor="middle" x="257.282" y="-6.5" font-family="Helvetica,sans-Serif" font-size="10.00">type_traits</text>
</g>
<!-- Node4&#45;&gt;Node7 -->
<g id="edge6" class="edge"><title>Node4&#45;&gt;Node7</title>
<path fill="none" stroke="midnightblue" d="M194.521,-55.4504C205.931,-47.2788 223.828,-34.4604 237.596,-24.5996"/>
<polygon fill="midnightblue" stroke="midnightblue" points="239.846,-27.2936 245.937,-18.6253 235.77,-21.6027 239.846,-27.2936"/>
</g>
<!-- Node8 -->
<g id="node8" class="node"><title>Node8</title>
<polygon fill="white" stroke="#bfbfbf" points="306.667,-0.5 306.667,-18.5 349.898,-18.5 349.898,-0.5 306.667,-0.5"/>
<text text-anchor="middle" x="328.282" y="-6.5" font-family="Helvetica,sans-Serif" font-size="10.00">vector</text>
</g>
<!-- Node4&#45;&gt;Node8 -->
<g id="edge7" class="edge"><title>Node4&#45;&gt;Node8</title>
<path fill="none" stroke="midnightblue" d="M205.305,-55.4504C229.718,-46.5268 269.292,-32.0618 296.934,-21.9583"/>
<polygon fill="midnightblue" stroke="midnightblue" points="298.337,-25.172 306.528,-18.4517 295.934,-18.5975 298.337,-25.172"/>
</g>
</g>
</svg>
