<?xml version="1.0" encoding="UTF-8" standalone="no"?>
<!DOCTYPE svg PUBLIC "-//W3C//DTD SVG 1.1//EN"
 "http://www.w3.org/Graphics/SVG/1.1/DTD/svg11.dtd">
<!-- Generated by graphviz version 2.38.0 (20140413.2041)
 -->
<!-- Title: Apple/iOS/GADMAdapterAdColonyExtras.h Pages: 1 -->
<svg width="180pt" height="102pt"
 viewBox="0.00 0.00 180.19 102.00" xmlns="http://www.w3.org/2000/svg" xmlns:xlink="http://www.w3.org/1999/xlink">
<g id="graph0" class="graph" transform="scale(1 1) rotate(0) translate(4 98)">
<title>Apple/iOS/GADMAdapterAdColonyExtras.h</title>
<polygon fill="white" stroke="none" points="-4,4 -4,-98 176.187,-98 176.187,4 -4,4"/>
<!-- Node1 -->
<g id="node1" class="node"><title>Node1</title>
<polygon fill="#bfbfbf" stroke="black" points="0,-65.5 0,-93.5 172.187,-93.5 172.187,-65.5 0,-65.5"/>
<text text-anchor="start" x="8" y="-81.5" font-family="Helvetica,sans-Serif" font-size="10.00">Apple/iOS/GADMAdapterAdColony</text>
<text text-anchor="middle" x="86.0933" y="-71.5" font-family="Helvetica,sans-Serif" font-size="10.00">Extras.h</text>
</g>
<!-- Node2 -->
<g id="node2" class="node"><title>Node2</title>
<polygon fill="white" stroke="#bfbfbf" points="6.38428,-0.5 6.38428,-28.5 165.802,-28.5 165.802,-0.5 6.38428,-0.5"/>
<text text-anchor="start" x="14.3843" y="-16.5" font-family="Helvetica,sans-Serif" font-size="10.00">GoogleMobileAds/GoogleMobile</text>
<text text-anchor="middle" x="86.0933" y="-6.5" font-family="Helvetica,sans-Serif" font-size="10.00">Ads.h</text>
</g>
<!-- Node1&#45;&gt;Node2 -->
<g id="edge1" class="edge"><title>Node1&#45;&gt;Node2</title>
<path fill="none" stroke="midnightblue" d="M86.0933,-65.4464C86.0933,-57.7594 86.0933,-47.8097 86.0933,-38.8163"/>
<polygon fill="midnightblue" stroke="midnightblue" points="89.5934,-38.5369 86.0933,-28.5369 82.5934,-38.537 89.5934,-38.5369"/>
</g>
</g>
</svg>
