<?xml version="1.0" encoding="UTF-8" standalone="no"?>
<!DOCTYPE svg PUBLIC "-//W3C//DTD SVG 1.1//EN"
 "http://www.w3.org/Graphics/SVG/1.1/DTD/svg11.dtd">
<!-- Generated by graphviz version 2.38.0 (20140413.2041)
 -->
<!-- Title: GameKit.cpp Pages: 1 -->
<svg width="363pt" height="192pt"
 viewBox="0.00 0.00 363.19 192.00" xmlns="http://www.w3.org/2000/svg" xmlns:xlink="http://www.w3.org/1999/xlink">
<g id="graph0" class="graph" transform="scale(1 1) rotate(0) translate(4 188)">
<title>GameKit.cpp</title>
<polygon fill="white" stroke="none" points="-4,4 -4,-188 359.189,-188 359.189,4 -4,4"/>
<!-- Node1 -->
<g id="node1" class="node"><title>Node1</title>
<polygon fill="#bfbfbf" stroke="black" points="120.825,-165.5 120.825,-183.5 194.628,-183.5 194.628,-165.5 120.825,-165.5"/>
<text text-anchor="middle" x="157.727" y="-171.5" font-family="Helvetica,sans-Serif" font-size="10.00">GameKit.cpp</text>
</g>
<!-- Node2 -->
<g id="node2" class="node"><title>Node2</title>
<g id="a_node2"><a xlink:href="_game_kit_8hpp.html" target="_top" xlink:title="GameKit.hpp">
<polygon fill="white" stroke="black" points="33.5444,-55.5 33.5444,-73.5 107.909,-73.5 107.909,-55.5 33.5444,-55.5"/>
<text text-anchor="middle" x="70.7266" y="-61.5" font-family="Helvetica,sans-Serif" font-size="10.00">GameKit.hpp</text>
</a>
</g>
</g>
<!-- Node1&#45;&gt;Node2 -->
<g id="edge1" class="edge"><title>Node1&#45;&gt;Node2</title>
<path fill="none" stroke="midnightblue" d="M120.543,-172.659C88.5464,-169.723 44.1092,-159.874 21.7266,-129 9.08361,-111.561 29.6103,-92.0118 47.8374,-79.2702"/>
<polygon fill="midnightblue" stroke="midnightblue" points="50.0187,-82.0245 56.4451,-73.6011 46.1685,-76.1785 50.0187,-82.0245"/>
</g>
<!-- Node5 -->
<g id="node5" class="node"><title>Node5</title>
<polygon fill="white" stroke="#bfbfbf" points="112.323,-0.5 112.323,-18.5 171.13,-18.5 171.13,-0.5 112.323,-0.5"/>
<text text-anchor="middle" x="141.727" y="-6.5" font-family="Helvetica,sans-Serif" font-size="10.00">functional</text>
</g>
<!-- Node1&#45;&gt;Node5 -->
<g id="edge8" class="edge"><title>Node1&#45;&gt;Node5</title>
<path fill="none" stroke="midnightblue" d="M156.911,-165.193C154.439,-140.013 146.989,-64.1144 143.529,-28.8621"/>
<polygon fill="midnightblue" stroke="midnightblue" points="146.982,-28.2073 142.521,-18.5971 140.015,-28.8912 146.982,-28.2073"/>
</g>
<!-- Node6 -->
<g id="node6" class="node"><title>Node6</title>
<g id="a_node6"><a xlink:href="___game_kit_8hpp.html" target="_top" xlink:title="_GameKit.hpp">
<polygon fill="white" stroke="black" points="30.7637,-110.5 30.7637,-128.5 110.689,-128.5 110.689,-110.5 30.7637,-110.5"/>
<text text-anchor="middle" x="70.7266" y="-116.5" font-family="Helvetica,sans-Serif" font-size="10.00">_GameKit.hpp</text>
</a>
</g>
</g>
<!-- Node1&#45;&gt;Node6 -->
<g id="edge5" class="edge"><title>Node1&#45;&gt;Node6</title>
<path fill="none" stroke="midnightblue" d="M144.513,-165.45C130.844,-157.123 109.253,-143.97 92.9516,-134.039"/>
<polygon fill="midnightblue" stroke="midnightblue" points="94.4254,-130.839 84.0643,-128.625 90.7835,-136.817 94.4254,-130.839"/>
</g>
<!-- Node7 -->
<g id="node7" class="node"><title>Node7</title>
<polygon fill="white" stroke="#bfbfbf" points="205.163,-110.5 205.163,-128.5 262.291,-128.5 262.291,-110.5 205.163,-110.5"/>
<text text-anchor="middle" x="233.727" y="-116.5" font-family="Helvetica,sans-Serif" font-size="10.00">algorithm</text>
</g>
<!-- Node1&#45;&gt;Node7 -->
<g id="edge7" class="edge"><title>Node1&#45;&gt;Node7</title>
<path fill="none" stroke="midnightblue" d="M169.269,-165.45C180.987,-157.279 199.368,-144.46 213.508,-134.6"/>
<polygon fill="midnightblue" stroke="midnightblue" points="215.875,-137.216 222.075,-128.625 211.871,-131.475 215.875,-137.216"/>
</g>
<!-- Node8 -->
<g id="node8" class="node"><title>Node8</title>
<g id="a_node8"><a xlink:href="_features_8hpp.html" target="_top" xlink:title="Features.hpp">
<polygon fill="white" stroke="black" points="280.264,-110.5 280.264,-128.5 355.189,-128.5 355.189,-110.5 280.264,-110.5"/>
<text text-anchor="middle" x="317.727" y="-116.5" font-family="Helvetica,sans-Serif" font-size="10.00">Features.hpp</text>
</a>
</g>
</g>
<!-- Node1&#45;&gt;Node8 -->
<g id="edge9" class="edge"><title>Node1&#45;&gt;Node8</title>
<path fill="none" stroke="midnightblue" d="M182.027,-165.45C209.124,-156.475 253.146,-141.892 283.67,-131.781"/>
<polygon fill="midnightblue" stroke="midnightblue" points="285.068,-135.005 293.46,-128.538 282.867,-128.36 285.068,-135.005"/>
</g>
<!-- Node9 -->
<g id="node9" class="node"><title>Node9</title>
<g id="a_node9"><a xlink:href="_k_v_database_8hpp.html" target="_top" xlink:title="KVDatabase.hpp">
<polygon fill="white" stroke="black" points="166.921,-55.5 166.921,-73.5 258.532,-73.5 258.532,-55.5 166.921,-55.5"/>
<text text-anchor="middle" x="212.727" y="-61.5" font-family="Helvetica,sans-Serif" font-size="10.00">KVDatabase.hpp</text>
</a>
</g>
</g>
<!-- Node1&#45;&gt;Node9 -->
<g id="edge10" class="edge"><title>Node1&#45;&gt;Node9</title>
<path fill="none" stroke="midnightblue" d="M161.861,-165.382C170.739,-147.948 191.801,-106.59 203.854,-82.9219"/>
<polygon fill="midnightblue" stroke="midnightblue" points="207.125,-84.2111 208.545,-73.7118 200.888,-81.0345 207.125,-84.2111"/>
</g>
<!-- Node3 -->
<g id="node3" class="node"><title>Node3</title>
<polygon fill="white" stroke="#bfbfbf" points="0,-0.5 0,-18.5 35.4531,-18.5 35.4531,-0.5 0,-0.5"/>
<text text-anchor="middle" x="17.7266" y="-6.5" font-family="Helvetica,sans-Serif" font-size="10.00">map</text>
</g>
<!-- Node2&#45;&gt;Node3 -->
<g id="edge2" class="edge"><title>Node2&#45;&gt;Node3</title>
<path fill="none" stroke="midnightblue" d="M62.4453,-55.2188C54.621,-47.3944 42.6897,-35.4631 33.1186,-25.8921"/>
<polygon fill="midnightblue" stroke="midnightblue" points="35.3221,-23.1458 25.7761,-18.5496 30.3723,-28.0955 35.3221,-23.1458"/>
</g>
<!-- Node4 -->
<g id="node4" class="node"><title>Node4</title>
<polygon fill="white" stroke="#bfbfbf" points="53.5,-0.5 53.5,-18.5 93.9531,-18.5 93.9531,-0.5 53.5,-0.5"/>
<text text-anchor="middle" x="73.7266" y="-6.5" font-family="Helvetica,sans-Serif" font-size="10.00">string</text>
</g>
<!-- Node2&#45;&gt;Node4 -->
<g id="edge3" class="edge"><title>Node2&#45;&gt;Node4</title>
<path fill="none" stroke="midnightblue" d="M71.1953,-55.2188C71.5939,-48.1769 72.1808,-37.8083 72.6891,-28.8277"/>
<polygon fill="midnightblue" stroke="midnightblue" points="76.2001,-28.7314 73.2709,-18.5496 69.2113,-28.3357 76.2001,-28.7314"/>
</g>
<!-- Node2&#45;&gt;Node5 -->
<g id="edge4" class="edge"><title>Node2&#45;&gt;Node5</title>
<path fill="none" stroke="midnightblue" d="M81.5099,-55.4504C92.3526,-47.3566 109.302,-34.7042 122.46,-24.8822"/>
<polygon fill="midnightblue" stroke="midnightblue" points="124.922,-27.412 130.842,-18.6253 120.734,-21.8025 124.922,-27.412"/>
</g>
<!-- Node6&#45;&gt;Node2 -->
<g id="edge6" class="edge"><title>Node6&#45;&gt;Node2</title>
<path fill="none" stroke="midnightblue" d="M70.7266,-110.219C70.7266,-103.177 70.7266,-92.8083 70.7266,-83.8277"/>
<polygon fill="midnightblue" stroke="midnightblue" points="74.2267,-83.5495 70.7266,-73.5496 67.2267,-83.5496 74.2267,-83.5495"/>
</g>
<!-- Node9&#45;&gt;Node4 -->
<g id="edge12" class="edge"><title>Node9&#45;&gt;Node4</title>
<path fill="none" stroke="midnightblue" d="M191.615,-55.4504C168.18,-46.5146 130.172,-32.0222 103.669,-21.9168"/>
<polygon fill="midnightblue" stroke="midnightblue" points="104.72,-18.5719 94.1292,-18.2794 102.226,-25.1126 104.72,-18.5719"/>
</g>
<!-- Node9&#45;&gt;Node5 -->
<g id="edge11" class="edge"><title>Node9&#45;&gt;Node5</title>
<path fill="none" stroke="midnightblue" d="M201.943,-55.4504C191.101,-47.3566 174.151,-34.7042 160.993,-24.8822"/>
<polygon fill="midnightblue" stroke="midnightblue" points="162.719,-21.8025 152.611,-18.6253 158.531,-27.412 162.719,-21.8025"/>
</g>
<!-- Node10 -->
<g id="node10" class="node"><title>Node10</title>
<polygon fill="white" stroke="#bfbfbf" points="191.111,-0.5 191.111,-18.5 234.342,-18.5 234.342,-0.5 191.111,-0.5"/>
<text text-anchor="middle" x="212.727" y="-6.5" font-family="Helvetica,sans-Serif" font-size="10.00">vector</text>
</g>
<!-- Node9&#45;&gt;Node10 -->
<g id="edge13" class="edge"><title>Node9&#45;&gt;Node10</title>
<path fill="none" stroke="midnightblue" d="M212.727,-55.2188C212.727,-48.1769 212.727,-37.8083 212.727,-28.8277"/>
<polygon fill="midnightblue" stroke="midnightblue" points="216.227,-28.5495 212.727,-18.5496 209.227,-28.5496 216.227,-28.5495"/>
</g>
</g>
</svg>
