<?xml version="1.0" encoding="UTF-8" standalone="no"?>
<!DOCTYPE svg PUBLIC "-//W3C//DTD SVG 1.1//EN"
 "http://www.w3.org/Graphics/SVG/1.1/DTD/svg11.dtd">
<!-- Generated by graphviz version 2.38.0 (20140413.2041)
 -->
<!-- Title: GameKit.hpp Pages: 1 -->
<svg width="531pt" height="192pt"
 viewBox="0.00 0.00 530.58 192.00" xmlns="http://www.w3.org/2000/svg" xmlns:xlink="http://www.w3.org/1999/xlink">
<g id="graph0" class="graph" transform="scale(1 1) rotate(0) translate(4 188)">
<title>GameKit.hpp</title>
<polygon fill="white" stroke="none" points="-4,4 -4,-188 526.581,-188 526.581,4 -4,4"/>
<!-- Node1 -->
<g id="node1" class="node"><title>Node1</title>
<polygon fill="#bfbfbf" stroke="black" points="365.837,-165.5 365.837,-183.5 440.202,-183.5 440.202,-165.5 365.837,-165.5"/>
<text text-anchor="middle" x="403.02" y="-171.5" font-family="Helvetica,sans-Serif" font-size="10.00">GameKit.hpp</text>
</g>
<!-- Node2 -->
<g id="node2" class="node"><title>Node2</title>
<g id="a_node2"><a xlink:href="___game_kit_8hpp.html" target="_top" xlink:title="_GameKit.hpp">
<polygon fill="white" stroke="black" points="329.057,-110.5 329.057,-128.5 408.982,-128.5 408.982,-110.5 329.057,-110.5"/>
<text text-anchor="middle" x="369.02" y="-116.5" font-family="Helvetica,sans-Serif" font-size="10.00">_GameKit.hpp</text>
</a>
</g>
</g>
<!-- Node1&#45;&gt;Node2 -->
<g id="edge1" class="edge"><title>Node1&#45;&gt;Node2</title>
<path fill="none" stroke="midnightblue" d="M392.215,-156.658C386.185,-147.259 378.951,-135.982 374.183,-128.55"/>
<polygon fill="midnightblue" stroke="midnightblue" points="389.362,-158.692 397.707,-165.219 395.253,-154.912 389.362,-158.692"/>
</g>
<!-- Node4 -->
<g id="node4" class="node"><title>Node4</title>
<g id="a_node4"><a xlink:href="_game_kit_8h.html" target="_top" xlink:title="Apple/Common/GameKit.h">
<polygon fill="white" stroke="black" points="157.549,-55.5 157.549,-73.5 292.49,-73.5 292.49,-55.5 157.549,-55.5"/>
<text text-anchor="middle" x="225.02" y="-61.5" font-family="Helvetica,sans-Serif" font-size="10.00">Apple/Common/GameKit.h</text>
</a>
</g>
</g>
<!-- Node1&#45;&gt;Node4 -->
<g id="edge8" class="edge"><title>Node1&#45;&gt;Node4</title>
<path fill="none" stroke="midnightblue" d="M377.759,-160.768C361.128,-152.188 339.003,-140.397 320.02,-129 289.064,-110.416 254.107,-86.161 236.485,-73.6916"/>
<polygon fill="midnightblue" stroke="midnightblue" points="376.355,-163.981 386.851,-165.421 379.544,-157.75 376.355,-163.981"/>
</g>
<!-- Node8 -->
<g id="node8" class="node"><title>Node8</title>
<g id="a_node8"><a xlink:href="_game_kit_8cpp.html" target="_top" xlink:title="GameKit.cpp">
<polygon fill="white" stroke="black" points="445.118,-55.5 445.118,-73.5 518.921,-73.5 518.921,-55.5 445.118,-55.5"/>
<text text-anchor="middle" x="482.02" y="-61.5" font-family="Helvetica,sans-Serif" font-size="10.00">GameKit.cpp</text>
</a>
</g>
</g>
<!-- Node1&#45;&gt;Node8 -->
<g id="edge9" class="edge"><title>Node1&#45;&gt;Node8</title>
<path fill="none" stroke="midnightblue" d="M414.98,-157.148C432.119,-133.719 463.024,-91.4681 476.013,-73.7118"/>
<polygon fill="midnightblue" stroke="midnightblue" points="412.036,-155.245 408.957,-165.382 417.686,-159.378 412.036,-155.245"/>
</g>
<!-- Node9 -->
<g id="node9" class="node"><title>Node9</title>
<g id="a_node9"><a xlink:href="_maw_kit_8h.html" target="_top" xlink:title="MawKit.h">
<polygon fill="white" stroke="black" points="465.458,-110.5 465.458,-128.5 522.581,-128.5 522.581,-110.5 465.458,-110.5"/>
<text text-anchor="middle" x="494.02" y="-116.5" font-family="Helvetica,sans-Serif" font-size="10.00">MawKit.h</text>
</a>
</g>
</g>
<!-- Node1&#45;&gt;Node9 -->
<g id="edge10" class="edge"><title>Node1&#45;&gt;Node9</title>
<path fill="none" stroke="midnightblue" d="M425.636,-160.328C442.706,-150.386 465.587,-137.06 480.069,-128.625"/>
<polygon fill="midnightblue" stroke="midnightblue" points="423.72,-157.393 416.84,-165.45 427.243,-163.442 423.72,-157.393"/>
</g>
<!-- Node3 -->
<g id="node3" class="node"><title>Node3</title>
<g id="a_node3"><a xlink:href="___game_kit_8cpp.html" target="_top" xlink:title="Android/_GameKit.cpp">
<polygon fill="white" stroke="black" points="310.714,-55.5 310.714,-73.5 427.325,-73.5 427.325,-55.5 310.714,-55.5"/>
<text text-anchor="middle" x="369.02" y="-61.5" font-family="Helvetica,sans-Serif" font-size="10.00">Android/_GameKit.cpp</text>
</a>
</g>
</g>
<!-- Node2&#45;&gt;Node3 -->
<g id="edge2" class="edge"><title>Node2&#45;&gt;Node3</title>
<path fill="none" stroke="midnightblue" d="M369.02,-100.175C369.02,-91.0945 369.02,-80.5949 369.02,-73.5496"/>
<polygon fill="midnightblue" stroke="midnightblue" points="365.52,-100.219 369.02,-110.219 372.52,-100.219 365.52,-100.219"/>
</g>
<!-- Node2&#45;&gt;Node4 -->
<g id="edge3" class="edge"><title>Node2&#45;&gt;Node4</title>
<path fill="none" stroke="midnightblue" d="M337.644,-106.952C310.282,-96.8814 271.285,-82.5284 247.096,-73.6253"/>
<polygon fill="midnightblue" stroke="midnightblue" points="336.556,-110.281 347.149,-110.45 338.973,-103.712 336.556,-110.281"/>
</g>
<!-- Node2&#45;&gt;Node8 -->
<g id="edge7" class="edge"><title>Node2&#45;&gt;Node8</title>
<path fill="none" stroke="midnightblue" d="M395.354,-106.148C416.715,-96.1297 446.213,-82.2941 464.696,-73.6253"/>
<polygon fill="midnightblue" stroke="midnightblue" points="393.749,-103.035 386.182,-110.45 396.722,-109.373 393.749,-103.035"/>
</g>
<!-- Node5 -->
<g id="node5" class="node"><title>Node5</title>
<g id="a_node5"><a xlink:href="_common_2_game_kit_8mm.html" target="_top" xlink:title="Apple/Common/GameKit.mm">
<polygon fill="white" stroke="black" points="0,-0.5 0,-18.5 146.039,-18.5 146.039,-0.5 0,-0.5"/>
<text text-anchor="middle" x="73.0195" y="-6.5" font-family="Helvetica,sans-Serif" font-size="10.00">Apple/Common/GameKit.mm</text>
</a>
</g>
</g>
<!-- Node4&#45;&gt;Node5 -->
<g id="edge4" class="edge"><title>Node4&#45;&gt;Node5</title>
<path fill="none" stroke="midnightblue" d="M192.28,-52.0842C163.38,-42.0074 121.968,-27.5675 96.3223,-18.6253"/>
<polygon fill="midnightblue" stroke="midnightblue" points="191.339,-55.4628 201.934,-55.4504 193.644,-48.8531 191.339,-55.4628"/>
</g>
<!-- Node6 -->
<g id="node6" class="node"><title>Node6</title>
<g id="a_node6"><a xlink:href="i_o_s_2_game_kit_8mm.html" target="_top" xlink:title="Apple/iOS/GameKit.mm">
<polygon fill="white" stroke="black" points="163.948,-0.5 163.948,-18.5 286.091,-18.5 286.091,-0.5 163.948,-0.5"/>
<text text-anchor="middle" x="225.02" y="-6.5" font-family="Helvetica,sans-Serif" font-size="10.00">Apple/iOS/GameKit.mm</text>
</a>
</g>
</g>
<!-- Node4&#45;&gt;Node6 -->
<g id="edge5" class="edge"><title>Node4&#45;&gt;Node6</title>
<path fill="none" stroke="midnightblue" d="M225.02,-45.1746C225.02,-36.0945 225.02,-25.5949 225.02,-18.5496"/>
<polygon fill="midnightblue" stroke="midnightblue" points="221.52,-45.2187 225.02,-55.2188 228.52,-45.2188 221.52,-45.2187"/>
</g>
<!-- Node7 -->
<g id="node7" class="node"><title>Node7</title>
<g id="a_node7"><a xlink:href="_o_s_01_x_2_game_kit_8mm.html" target="_top" xlink:title="Apple/OS X/GameKit.mm">
<polygon fill="white" stroke="black" points="304.335,-0.5 304.335,-18.5 433.704,-18.5 433.704,-0.5 304.335,-0.5"/>
<text text-anchor="middle" x="369.02" y="-6.5" font-family="Helvetica,sans-Serif" font-size="10.00">Apple/OS X/GameKit.mm</text>
</a>
</g>
</g>
<!-- Node4&#45;&gt;Node7 -->
<g id="edge6" class="edge"><title>Node4&#45;&gt;Node7</title>
<path fill="none" stroke="midnightblue" d="M256.395,-51.952C283.757,-41.8814 322.754,-27.5284 346.943,-18.6253"/>
<polygon fill="midnightblue" stroke="midnightblue" points="255.066,-48.7118 246.89,-55.4504 257.484,-55.2809 255.066,-48.7118"/>
</g>
</g>
</svg>
