<?xml version="1.0" encoding="UTF-8" standalone="no"?>
<!DOCTYPE svg PUBLIC "-//W3C//DTD SVG 1.1//EN"
 "http://www.w3.org/Graphics/SVG/1.1/DTD/svg11.dtd">
<!-- Generated by graphviz version 2.38.0 (20140413.2041)
 -->
<!-- Title: Apple/Common/GameKit.h Pages: 1 -->
<svg width="442pt" height="82pt"
 viewBox="0.00 0.00 441.70 82.00" xmlns="http://www.w3.org/2000/svg" xmlns:xlink="http://www.w3.org/1999/xlink">
<g id="graph0" class="graph" transform="scale(1 1) rotate(0) translate(4 78)">
<title>Apple/Common/GameKit.h</title>
<polygon fill="white" stroke="none" points="-4,4 -4,-78 437.704,-78 437.704,4 -4,4"/>
<!-- Node1 -->
<g id="node1" class="node"><title>Node1</title>
<polygon fill="#bfbfbf" stroke="black" points="157.549,-55.5 157.549,-73.5 292.49,-73.5 292.49,-55.5 157.549,-55.5"/>
<text text-anchor="middle" x="225.02" y="-61.5" font-family="Helvetica,sans-Serif" font-size="10.00">Apple/Common/GameKit.h</text>
</g>
<!-- Node2 -->
<g id="node2" class="node"><title>Node2</title>
<g id="a_node2"><a xlink:href="_common_2_game_kit_8mm.html" target="_top" xlink:title="Apple/Common/GameKit.mm">
<polygon fill="white" stroke="black" points="0,-0.5 0,-18.5 146.039,-18.5 146.039,-0.5 0,-0.5"/>
<text text-anchor="middle" x="73.0195" y="-6.5" font-family="Helvetica,sans-Serif" font-size="10.00">Apple/Common/GameKit.mm</text>
</a>
</g>
</g>
<!-- Node1&#45;&gt;Node2 -->
<g id="edge1" class="edge"><title>Node1&#45;&gt;Node2</title>
<path fill="none" stroke="midnightblue" d="M192.28,-52.0842C163.38,-42.0074 121.968,-27.5675 96.3223,-18.6253"/>
<polygon fill="midnightblue" stroke="midnightblue" points="191.339,-55.4628 201.934,-55.4504 193.644,-48.8531 191.339,-55.4628"/>
</g>
<!-- Node3 -->
<g id="node3" class="node"><title>Node3</title>
<g id="a_node3"><a xlink:href="i_o_s_2_game_kit_8mm.html" target="_top" xlink:title="Apple/iOS/GameKit.mm">
<polygon fill="white" stroke="black" points="163.948,-0.5 163.948,-18.5 286.091,-18.5 286.091,-0.5 163.948,-0.5"/>
<text text-anchor="middle" x="225.02" y="-6.5" font-family="Helvetica,sans-Serif" font-size="10.00">Apple/iOS/GameKit.mm</text>
</a>
</g>
</g>
<!-- Node1&#45;&gt;Node3 -->
<g id="edge2" class="edge"><title>Node1&#45;&gt;Node3</title>
<path fill="none" stroke="midnightblue" d="M225.02,-45.1746C225.02,-36.0945 225.02,-25.5949 225.02,-18.5496"/>
<polygon fill="midnightblue" stroke="midnightblue" points="221.52,-45.2187 225.02,-55.2188 228.52,-45.2188 221.52,-45.2187"/>
</g>
<!-- Node4 -->
<g id="node4" class="node"><title>Node4</title>
<g id="a_node4"><a xlink:href="_o_s_01_x_2_game_kit_8mm.html" target="_top" xlink:title="Apple/OS X/GameKit.mm">
<polygon fill="white" stroke="black" points="304.335,-0.5 304.335,-18.5 433.704,-18.5 433.704,-0.5 304.335,-0.5"/>
<text text-anchor="middle" x="369.02" y="-6.5" font-family="Helvetica,sans-Serif" font-size="10.00">Apple/OS X/GameKit.mm</text>
</a>
</g>
</g>
<!-- Node1&#45;&gt;Node4 -->
<g id="edge3" class="edge"><title>Node1&#45;&gt;Node4</title>
<path fill="none" stroke="midnightblue" d="M256.395,-51.952C283.757,-41.8814 322.754,-27.5284 346.943,-18.6253"/>
<polygon fill="midnightblue" stroke="midnightblue" points="255.066,-48.7118 246.89,-55.4504 257.484,-55.2809 255.066,-48.7118"/>
</g>
</g>
</svg>
