<?xml version="1.0" encoding="UTF-8" standalone="no"?>
<!DOCTYPE svg PUBLIC "-//W3C//DTD SVG 1.1//EN"
 "http://www.w3.org/Graphics/SVG/1.1/DTD/svg11.dtd">
<!-- Generated by graphviz version 2.38.0 (20140413.2041)
 -->
<!-- Title: Apple/Common/GameKit.h Pages: 1 -->
<!--zoomable 192 -->
<svg id="main" version="1.1" xmlns="http://www.w3.org/2000/svg" xmlns:xlink="http://www.w3.org/1999/xlink" xml:space="preserve" onload="init(evt)">
<style type="text/css"><![CDATA[
.edge:hover path { stroke: red; }
.edge:hover polygon { stroke: red; fill: red; }
]]></style>
<script type="text/javascript"><![CDATA[
var edges = document.getElementsByTagName('g');
if (edges && edges.length) {
  for (var i=0;i<edges.length;i++) {
    if (edges[i].id.substr(0,4)=='edge') {
      edges[i].setAttribute('class','edge');
    }
  }
}
]]></script>
        <defs>
                <circle id="rim" cx="0" cy="0" r="7"/>
                <circle id="rim2" cx="0" cy="0" r="3.5"/>
                <g id="zoomPlus">
                        <use xlink:href="#rim" fill="#404040">
                                <set attributeName="fill" to="#808080" begin="zoomplus.mouseover" end="zoomplus.mouseout"/>
                        </use>
                        <path d="M-4,0h8M0,-4v8" fill="none" stroke="white" stroke-width="1.5" pointer-events="none"/>
                </g>
                <g id="zoomMin">
                        <use xlink:href="#rim" fill="#404040">
                                <set attributeName="fill" to="#808080" begin="zoomminus.mouseover" end="zoomminus.mouseout"/>
                        </use>
                        <path d="M-4,0h8" fill="none" stroke="white" stroke-width="1.5" pointer-events="none"/>
                </g>
                <g id="dirArrow">
                        <path fill="none" stroke="white" stroke-width="1.5" d="M0,-3.0v7 M-2.5,-0.5L0,-3.0L2.5,-0.5"/>
                </g>
               <g id="resetDef">
                       <use xlink:href="#rim2" fill="#404040">
                               <set attributeName="fill" to="#808080" begin="reset.mouseover" end="reset.mouseout"/>
                       </use>
               </g>
        </defs>

<script type="text/javascript">
var viewWidth = 504;
var viewHeight = 192;
var sectionId = 'dynsection-0';
</script>
<script xlink:href="svgpan.js"/>
<svg id="graph" class="graph">
<g id="viewport">
<title>Apple/Common/GameKit.h</title>
<polygon fill="white" stroke="none" points="-4,4 -4,-188 500.342,-188 500.342,4 -4,4"/>
<!-- Node1 -->
<g id="node1" class="node"><title>Node1</title>
<polygon fill="#bfbfbf" stroke="black" points="135.256,-165.5 135.256,-183.5 270.197,-183.5 270.197,-165.5 135.256,-165.5"/>
<text text-anchor="middle" x="202.727" y="-171.5" font-family="Helvetica,sans-Serif" font-size="10.00">Apple/Common/GameKit.h</text>
</g>
<!-- Node2 -->
<g id="node2" class="node"><title>Node2</title>
<g id="a_node2"><a xlink:href="_game_kit_8hpp.html" target="_top" xlink:title="../../GameKit.hpp">
<polygon fill="white" stroke="black" points="35.2095,-55.5 35.2095,-73.5 126.244,-73.5 126.244,-55.5 35.2095,-55.5"/>
<text text-anchor="middle" x="80.7266" y="-61.5" font-family="Helvetica,sans-Serif" font-size="10.00">../../GameKit.hpp</text>
</a>
</g>
</g>
<!-- Node1&#45;&gt;Node2 -->
<g id="edge1" class="edge"><title>Node1&#45;&gt;Node2</title>
<path fill="none" stroke="midnightblue" d="M135.708,-165.468C90.8964,-158.561 37.6809,-146.848 23.7266,-129 9.43522,-110.721 33.9674,-91.0393 55.167,-78.5137"/>
<polygon fill="midnightblue" stroke="midnightblue" points="56.9107,-81.5487 63.9255,-73.6087 53.4903,-75.4412 56.9107,-81.5487"/>
</g>
<!-- Node4 -->
<g id="node4" class="node"><title>Node4</title>
<polygon fill="white" stroke="#bfbfbf" points="132.5,-0.5 132.5,-18.5 172.953,-18.5 172.953,-0.5 132.5,-0.5"/>
<text text-anchor="middle" x="152.727" y="-6.5" font-family="Helvetica,sans-Serif" font-size="10.00">string</text>
</g>
<!-- Node1&#45;&gt;Node4 -->
<g id="edge9" class="edge"><title>Node1&#45;&gt;Node4</title>
<path fill="none" stroke="midnightblue" d="M196.612,-165.43C190.412,-156.849 181,-142.656 175.727,-129 162.556,-94.8949 156.655,-52.2426 154.232,-28.5301"/>
<polygon fill="midnightblue" stroke="midnightblue" points="157.713,-28.1656 153.305,-18.5313 150.743,-28.8116 157.713,-28.1656"/>
</g>
<!-- Node6 -->
<g id="node6" class="node"><title>Node6</title>
<g id="a_node6"><a xlink:href="___game_kit_8hpp.html" target="_top" xlink:title="../../_GameKit.hpp">
<polygon fill="white" stroke="black" points="32.4287,-110.5 32.4287,-128.5 129.024,-128.5 129.024,-110.5 32.4287,-110.5"/>
<text text-anchor="middle" x="80.7266" y="-116.5" font-family="Helvetica,sans-Serif" font-size="10.00">../../_GameKit.hpp</text>
</a>
</g>
</g>
<!-- Node1&#45;&gt;Node6 -->
<g id="edge5" class="edge"><title>Node1&#45;&gt;Node6</title>
<path fill="none" stroke="midnightblue" d="M184.197,-165.45C164.133,-156.734 131.899,-142.731 108.739,-132.669"/>
<polygon fill="midnightblue" stroke="midnightblue" points="109.997,-129.4 99.4301,-128.625 107.207,-135.82 109.997,-129.4"/>
</g>
<!-- Node7 -->
<g id="node7" class="node"><title>Node7</title>
<polygon fill="white" stroke="#bfbfbf" points="185.128,-110.5 185.128,-128.5 312.325,-128.5 312.325,-110.5 185.128,-110.5"/>
<text text-anchor="middle" x="248.727" y="-116.5" font-family="Helvetica,sans-Serif" font-size="10.00">Foundation/Foundation.h</text>
</g>
<!-- Node1&#45;&gt;Node7 -->
<g id="edge7" class="edge"><title>Node1&#45;&gt;Node7</title>
<path fill="none" stroke="midnightblue" d="M209.914,-165.219C216.637,-157.473 226.854,-145.701 235.118,-136.18"/>
<polygon fill="midnightblue" stroke="midnightblue" points="237.829,-138.396 241.74,-128.55 232.542,-133.808 237.829,-138.396"/>
</g>
<!-- Node8 -->
<g id="node8" class="node"><title>Node8</title>
<polygon fill="white" stroke="#bfbfbf" points="330.266,-110.5 330.266,-128.5 435.187,-128.5 435.187,-110.5 330.266,-110.5"/>
<text text-anchor="middle" x="382.727" y="-116.5" font-family="Helvetica,sans-Serif" font-size="10.00">GameKit/GameKit.h</text>
</g>
<!-- Node1&#45;&gt;Node8 -->
<g id="edge8" class="edge"><title>Node1&#45;&gt;Node8</title>
<path fill="none" stroke="midnightblue" d="M230.065,-165.45C260.947,-156.357 311.369,-141.511 345.749,-131.388"/>
<polygon fill="midnightblue" stroke="midnightblue" points="346.822,-134.72 355.427,-128.538 344.845,-128.005 346.822,-134.72"/>
</g>
<!-- Node9 -->
<g id="node9" class="node"><title>Node9</title>
<polygon fill="white" stroke="#bfbfbf" points="453.111,-110.5 453.111,-128.5 496.342,-128.5 496.342,-110.5 453.111,-110.5"/>
<text text-anchor="middle" x="474.727" y="-116.5" font-family="Helvetica,sans-Serif" font-size="10.00">vector</text>
</g>
<!-- Node1&#45;&gt;Node9 -->
<g id="edge10" class="edge"><title>Node1&#45;&gt;Node9</title>
<path fill="none" stroke="midnightblue" d="M253.295,-165.449C300.039,-157.718 371.617,-145.151 443.032,-128.985"/>
<polygon fill="midnightblue" stroke="midnightblue" points="444.138,-132.323 453.106,-126.68 442.577,-125.499 444.138,-132.323"/>
</g>
<!-- Node3 -->
<g id="node3" class="node"><title>Node3</title>
<polygon fill="white" stroke="#bfbfbf" points="0,-0.5 0,-18.5 35.4531,-18.5 35.4531,-0.5 0,-0.5"/>
<text text-anchor="middle" x="17.7266" y="-6.5" font-family="Helvetica,sans-Serif" font-size="10.00">map</text>
</g>
<!-- Node2&#45;&gt;Node3 -->
<g id="edge2" class="edge"><title>Node2&#45;&gt;Node3</title>
<path fill="none" stroke="midnightblue" d="M71.1582,-55.4504C61.6298,-47.4345 46.7863,-34.9471 35.16,-25.1663"/>
<polygon fill="midnightblue" stroke="midnightblue" points="37.2904,-22.3847 27.385,-18.6253 32.7841,-27.7413 37.2904,-22.3847"/>
</g>
<!-- Node2&#45;&gt;Node4 -->
<g id="edge3" class="edge"><title>Node2&#45;&gt;Node4</title>
<path fill="none" stroke="midnightblue" d="M91.6618,-55.4504C102.763,-47.2788 120.177,-34.4604 133.572,-24.5996"/>
<polygon fill="midnightblue" stroke="midnightblue" points="135.71,-27.3722 141.688,-18.6253 131.56,-21.7348 135.71,-27.3722"/>
</g>
<!-- Node5 -->
<g id="node5" class="node"><title>Node5</title>
<polygon fill="white" stroke="#bfbfbf" points="53.3228,-0.5 53.3228,-18.5 112.13,-18.5 112.13,-0.5 53.3228,-0.5"/>
<text text-anchor="middle" x="82.7266" y="-6.5" font-family="Helvetica,sans-Serif" font-size="10.00">functional</text>
</g>
<!-- Node2&#45;&gt;Node5 -->
<g id="edge4" class="edge"><title>Node2&#45;&gt;Node5</title>
<path fill="none" stroke="midnightblue" d="M81.0391,-55.2188C81.3048,-48.1769 81.6961,-37.8083 82.035,-28.8277"/>
<polygon fill="midnightblue" stroke="midnightblue" points="85.5431,-28.6745 82.4228,-18.5496 78.5481,-28.4104 85.5431,-28.6745"/>
</g>
<!-- Node6&#45;&gt;Node2 -->
<g id="edge6" class="edge"><title>Node6&#45;&gt;Node2</title>
<path fill="none" stroke="midnightblue" d="M80.7266,-110.219C80.7266,-103.177 80.7266,-92.8083 80.7266,-83.8277"/>
<polygon fill="midnightblue" stroke="midnightblue" points="84.2267,-83.5495 80.7266,-73.5496 77.2267,-83.5496 84.2267,-83.5495"/>
</g>
</g>
</svg>
        <g id="navigator" transform="translate(0 0)" fill="#404254">
                <rect fill="#f2f5e9" fill-opacity="0.5" stroke="#606060" stroke-width=".5" x="0" y="0" width="60" height="60"/>
                <use id="zoomplus" xlink:href="#zoomPlus" x="17" y="9" onmousedown="handleZoom(evt,'in')"/>
                <use id="zoomminus" xlink:href="#zoomMin" x="42" y="9" onmousedown="handleZoom(evt,'out')"/>
                <use id="reset" xlink:href="#resetDef" x="30" y="36" onmousedown="handleReset()"/>
                <g id="arrowUp" xlink:href="#dirArrow" transform="translate(30 24)" onmousedown="handlePan(0,-1)">
                  <use xlink:href="#rim" fill="#404040">
                        <set attributeName="fill" to="#808080" begin="arrowUp.mouseover" end="arrowUp.mouseout"/>
                  </use>
                  <path fill="none" stroke="white" stroke-width="1.5" d="M0,-3.0v7 M-2.5,-0.5L0,-3.0L2.5,-0.5"/>
                </g>
                <g id="arrowRight" xlink:href="#dirArrow" transform="rotate(90) translate(36 -43)" onmousedown="handlePan(1,0)">
                  <use xlink:href="#rim" fill="#404040">
                        <set attributeName="fill" to="#808080" begin="arrowRight.mouseover" end="arrowRight.mouseout"/>
                  </use>
                  <path fill="none" stroke="white" stroke-width="1.5" d="M0,-3.0v7 M-2.5,-0.5L0,-3.0L2.5,-0.5"/>
                </g>
                <g id="arrowDown" xlink:href="#dirArrow" transform="rotate(180) translate(-30 -48)" onmousedown="handlePan(0,1)">
                  <use xlink:href="#rim" fill="#404040">
                        <set attributeName="fill" to="#808080" begin="arrowDown.mouseover" end="arrowDown.mouseout"/>
                  </use>
                  <path fill="none" stroke="white" stroke-width="1.5" d="M0,-3.0v7 M-2.5,-0.5L0,-3.0L2.5,-0.5"/>
                </g>
                <g id="arrowLeft" xlink:href="#dirArrow" transform="rotate(270) translate(-36 17)" onmousedown="handlePan(-1,0)">
                  <use xlink:href="#rim" fill="#404040">
                        <set attributeName="fill" to="#808080" begin="arrowLeft.mouseover" end="arrowLeft.mouseout"/>
                  </use>
                  <path fill="none" stroke="white" stroke-width="1.5" d="M0,-3.0v7 M-2.5,-0.5L0,-3.0L2.5,-0.5"/>
                </g>
        </g>
        <svg viewBox="0 0 15 15" width="100%" height="30px" preserveAspectRatio="xMaxYMin meet">
         <g id="arrow_out" transform="scale(0.3 0.3)">
          <a xlink:href="_game_kit_8h__incl_org.svg" target="_base">
           <rect id="button" ry="5" rx="5" y="6" x="6" height="38" width="38"
                fill="#f2f5e9" fill-opacity="0.5" stroke="#606060" stroke-width="1.0"/>
           <path id="arrow"
             d="M 11.500037,31.436501 C 11.940474,20.09759 22.043105,11.32322 32.158766,21.979434 L 37.068811,17.246167 C 37.068811,17.246167 37.088388,32 37.088388,32 L 22.160133,31.978069 C 22.160133,31.978069 26.997745,27.140456 26.997745,27.140456 C 18.528582,18.264221 13.291696,25.230495 11.500037,31.436501 z"
             style="fill:#404040;"/>
          </a>
         </g>
        </svg>
</svg>
