<?xml version="1.0" encoding="UTF-8" standalone="no"?>
<!DOCTYPE svg PUBLIC "-//W3C//DTD SVG 1.1//EN"
 "http://www.w3.org/Graphics/SVG/1.1/DTD/svg11.dtd">
<!-- Generated by graphviz version 2.38.0 (20140413.2041)
 -->
<!-- Title: IAPKit.cpp Pages: 1 -->
<svg width="488pt" height="192pt"
 viewBox="0.00 0.00 487.89 192.00" xmlns="http://www.w3.org/2000/svg" xmlns:xlink="http://www.w3.org/1999/xlink">
<g id="graph0" class="graph" transform="scale(1 1) rotate(0) translate(4 188)">
<title>IAPKit.cpp</title>
<polygon fill="white" stroke="none" points="-4,4 -4,-188 483.886,-188 483.886,4 -4,4"/>
<!-- Node1 -->
<g id="node1" class="node"><title>Node1</title>
<polygon fill="#bfbfbf" stroke="black" points="211.46,-165.5 211.46,-183.5 274.15,-183.5 274.15,-165.5 211.46,-165.5"/>
<text text-anchor="middle" x="242.805" y="-171.5" font-family="Helvetica,sans-Serif" font-size="10.00">IAPKit.cpp</text>
</g>
<!-- Node2 -->
<g id="node2" class="node"><title>Node2</title>
<g id="a_node2"><a xlink:href="_i_a_p_kit_8hpp.html" target="_top" xlink:title="IAPKit.hpp">
<polygon fill="white" stroke="black" points="109.18,-55.5 109.18,-73.5 172.431,-73.5 172.431,-55.5 109.18,-55.5"/>
<text text-anchor="middle" x="140.805" y="-61.5" font-family="Helvetica,sans-Serif" font-size="10.00">IAPKit.hpp</text>
</a>
</g>
</g>
<!-- Node1&#45;&gt;Node2 -->
<g id="edge1" class="edge"><title>Node1&#45;&gt;Node2</title>
<path fill="none" stroke="midnightblue" d="M220.52,-165.374C203.491,-158.154 180.515,-146.082 165.805,-129 154.692,-116.094 148.176,-97.6601 144.6,-83.9756"/>
<polygon fill="midnightblue" stroke="midnightblue" points="147.915,-82.7765 142.25,-73.8233 141.095,-84.355 147.915,-82.7765"/>
</g>
<!-- Node3 -->
<g id="node3" class="node"><title>Node3</title>
<polygon fill="white" stroke="#bfbfbf" points="194.401,-0.5 194.401,-18.5 253.209,-18.5 253.209,-0.5 194.401,-0.5"/>
<text text-anchor="middle" x="223.805" y="-6.5" font-family="Helvetica,sans-Serif" font-size="10.00">functional</text>
</g>
<!-- Node1&#45;&gt;Node3 -->
<g id="edge15" class="edge"><title>Node1&#45;&gt;Node3</title>
<path fill="none" stroke="midnightblue" d="M244.958,-165.373C247.186,-156.508 250.518,-141.862 251.805,-129 255.459,-92.5014 241.296,-51.039 231.79,-28.1102"/>
<polygon fill="midnightblue" stroke="midnightblue" points="234.901,-26.4878 227.713,-18.7043 228.479,-29.2715 234.901,-26.4878"/>
</g>
<!-- Node6 -->
<g id="node6" class="node"><title>Node6</title>
<g id="a_node6"><a xlink:href="___i_a_p_kit_8hpp.html" target="_top" xlink:title="_IAPKit.hpp">
<polygon fill="white" stroke="black" points="174.399,-110.5 174.399,-128.5 243.211,-128.5 243.211,-110.5 174.399,-110.5"/>
<text text-anchor="middle" x="208.805" y="-116.5" font-family="Helvetica,sans-Serif" font-size="10.00">_IAPKit.hpp</text>
</a>
</g>
</g>
<!-- Node1&#45;&gt;Node6 -->
<g id="edge5" class="edge"><title>Node1&#45;&gt;Node6</title>
<path fill="none" stroke="midnightblue" d="M237.493,-165.219C232.674,-157.707 225.427,-146.411 219.423,-137.052"/>
<polygon fill="midnightblue" stroke="midnightblue" points="222.315,-135.077 213.969,-128.55 216.423,-138.856 222.315,-135.077"/>
</g>
<!-- Node7 -->
<g id="node7" class="node"><title>Node7</title>
<g id="a_node7"><a xlink:href="_features_8hpp.html" target="_top" xlink:title="Features.hpp">
<polygon fill="white" stroke="black" points="304.342,-110.5 304.342,-128.5 379.268,-128.5 379.268,-110.5 304.342,-110.5"/>
<text text-anchor="middle" x="341.805" y="-116.5" font-family="Helvetica,sans-Serif" font-size="10.00">Features.hpp</text>
</a>
</g>
</g>
<!-- Node1&#45;&gt;Node7 -->
<g id="edge9" class="edge"><title>Node1&#45;&gt;Node7</title>
<path fill="none" stroke="midnightblue" d="M257.841,-165.45C273.759,-156.929 299.117,-143.353 317.805,-133.349"/>
<polygon fill="midnightblue" stroke="midnightblue" points="319.463,-136.431 326.628,-128.625 316.16,-130.259 319.463,-136.431"/>
</g>
<!-- Node8 -->
<g id="node8" class="node"><title>Node8</title>
<g id="a_node8"><a xlink:href="_k_v_database_8hpp.html" target="_top" xlink:title="KVDatabase.hpp">
<polygon fill="white" stroke="black" points="0,-55.5 0,-73.5 91.6104,-73.5 91.6104,-55.5 0,-55.5"/>
<text text-anchor="middle" x="45.8052" y="-61.5" font-family="Helvetica,sans-Serif" font-size="10.00">KVDatabase.hpp</text>
</a>
</g>
</g>
<!-- Node1&#45;&gt;Node8 -->
<g id="edge10" class="edge"><title>Node1&#45;&gt;Node8</title>
<path fill="none" stroke="midnightblue" d="M224.92,-165.452C206.199,-156.888 176.068,-142.71 150.805,-129 121.091,-112.874 87.8674,-92.3396 66.9037,-79.059"/>
<polygon fill="midnightblue" stroke="midnightblue" points="68.5059,-75.9298 58.1912,-73.5094 64.7452,-81.8338 68.5059,-75.9298"/>
</g>
<!-- Node9 -->
<g id="node9" class="node"><title>Node9</title>
<polygon fill="white" stroke="#bfbfbf" points="397.724,-110.5 397.724,-128.5 479.886,-128.5 479.886,-110.5 397.724,-110.5"/>
<text text-anchor="middle" x="438.805" y="-116.5" font-family="Helvetica,sans-Serif" font-size="10.00">AppDelegate.h</text>
</g>
<!-- Node1&#45;&gt;Node9 -->
<g id="edge14" class="edge"><title>Node1&#45;&gt;Node9</title>
<path fill="none" stroke="midnightblue" d="M272.573,-165.45C306.345,-156.318 361.576,-141.383 399.021,-131.258"/>
<polygon fill="midnightblue" stroke="midnightblue" points="400.339,-134.527 409.079,-128.538 398.512,-127.77 400.339,-134.527"/>
</g>
<!-- Node2&#45;&gt;Node3 -->
<g id="edge2" class="edge"><title>Node2&#45;&gt;Node3</title>
<path fill="none" stroke="midnightblue" d="M153.411,-55.4504C166.452,-47.1232 187.05,-33.9704 202.602,-24.0394"/>
<polygon fill="midnightblue" stroke="midnightblue" points="204.536,-26.9571 211.081,-18.6253 200.769,-21.0574 204.536,-26.9571"/>
</g>
<!-- Node4 -->
<g id="node4" class="node"><title>Node4</title>
<polygon fill="white" stroke="#bfbfbf" points="43.5786,-0.5 43.5786,-18.5 84.0317,-18.5 84.0317,-0.5 43.5786,-0.5"/>
<text text-anchor="middle" x="63.8052" y="-6.5" font-family="Helvetica,sans-Serif" font-size="10.00">string</text>
</g>
<!-- Node2&#45;&gt;Node4 -->
<g id="edge3" class="edge"><title>Node2&#45;&gt;Node4</title>
<path fill="none" stroke="midnightblue" d="M129.111,-55.4504C117.125,-47.201 98.2603,-34.2158 83.8814,-24.3187"/>
<polygon fill="midnightblue" stroke="midnightblue" points="85.8316,-21.4121 75.6099,-18.6253 81.8627,-27.1782 85.8316,-21.4121"/>
</g>
<!-- Node5 -->
<g id="node5" class="node"><title>Node5</title>
<polygon fill="white" stroke="#bfbfbf" points="119.189,-0.5 119.189,-18.5 162.421,-18.5 162.421,-0.5 119.189,-0.5"/>
<text text-anchor="middle" x="140.805" y="-6.5" font-family="Helvetica,sans-Serif" font-size="10.00">vector</text>
</g>
<!-- Node2&#45;&gt;Node5 -->
<g id="edge4" class="edge"><title>Node2&#45;&gt;Node5</title>
<path fill="none" stroke="midnightblue" d="M140.805,-55.2188C140.805,-48.1769 140.805,-37.8083 140.805,-28.8277"/>
<polygon fill="midnightblue" stroke="midnightblue" points="144.305,-28.5495 140.805,-18.5496 137.305,-28.5496 144.305,-28.5495"/>
</g>
<!-- Node6&#45;&gt;Node2 -->
<g id="edge6" class="edge"><title>Node6&#45;&gt;Node2</title>
<path fill="none" stroke="midnightblue" d="M198.477,-110.45C188.093,-102.357 171.86,-89.7042 159.258,-79.8822"/>
<polygon fill="midnightblue" stroke="midnightblue" points="161.269,-77.0122 151.23,-73.6253 156.966,-82.5333 161.269,-77.0122"/>
</g>
<!-- Node6&#45;&gt;Node3 -->
<g id="edge7" class="edge"><title>Node6&#45;&gt;Node3</title>
<path fill="none" stroke="midnightblue" d="M209.933,-110.382C212.322,-93.1822 217.944,-52.698 221.251,-28.8866"/>
<polygon fill="midnightblue" stroke="midnightblue" points="224.756,-29.0982 222.665,-18.7118 217.822,-28.1352 224.756,-29.0982"/>
</g>
<!-- Node6&#45;&gt;Node5 -->
<g id="edge8" class="edge"><title>Node6&#45;&gt;Node5</title>
<path fill="none" stroke="midnightblue" d="M206.306,-110.241C202.288,-97.6846 193.63,-73.3172 181.805,-55 174.897,-44.299 165.335,-33.7521 157.183,-25.6139"/>
<polygon fill="midnightblue" stroke="midnightblue" points="159.56,-23.0439 149.932,-18.6228 154.702,-28.0833 159.56,-23.0439"/>
</g>
<!-- Node8&#45;&gt;Node3 -->
<g id="edge11" class="edge"><title>Node8&#45;&gt;Node3</title>
<path fill="none" stroke="midnightblue" d="M72.8395,-55.4504C103.247,-46.3965 152.813,-31.6382 186.8,-21.5185"/>
<polygon fill="midnightblue" stroke="midnightblue" points="188.223,-24.7466 196.809,-18.5383 186.226,-18.0376 188.223,-24.7466"/>
</g>
<!-- Node8&#45;&gt;Node4 -->
<g id="edge12" class="edge"><title>Node8&#45;&gt;Node4</title>
<path fill="none" stroke="midnightblue" d="M48.6177,-55.2188C51.0624,-48.0204 54.6877,-37.3458 57.7833,-28.2311"/>
<polygon fill="midnightblue" stroke="midnightblue" points="61.1696,-29.1439 61.0714,-18.5496 54.5414,-26.8928 61.1696,-29.1439"/>
</g>
<!-- Node8&#45;&gt;Node5 -->
<g id="edge13" class="edge"><title>Node8&#45;&gt;Node5</title>
<path fill="none" stroke="midnightblue" d="M60.2336,-55.4504C75.2994,-47.0453 99.177,-33.7241 117.034,-23.7618"/>
<polygon fill="midnightblue" stroke="midnightblue" points="119.213,-26.5539 126.241,-18.6253 115.803,-20.4409 119.213,-26.5539"/>
</g>
</g>
</svg>
