<?xml version="1.0" encoding="UTF-8" standalone="no"?>
<!DOCTYPE svg PUBLIC "-//W3C//DTD SVG 1.1//EN"
 "http://www.w3.org/Graphics/SVG/1.1/DTD/svg11.dtd">
<!-- Generated by graphviz version 2.38.0 (20140413.2041)
 -->
<!-- Title: IAPKit.hpp Pages: 1 -->
<svg width="361pt" height="137pt"
 viewBox="0.00 0.00 361.02 137.00" xmlns="http://www.w3.org/2000/svg" xmlns:xlink="http://www.w3.org/1999/xlink">
<g id="graph0" class="graph" transform="scale(1 1) rotate(0) translate(4 133)">
<title>IAPKit.hpp</title>
<polygon fill="white" stroke="none" points="-4,4 -4,-133 357.024,-133 357.024,4 -4,4"/>
<!-- Node1 -->
<g id="node1" class="node"><title>Node1</title>
<polygon fill="#bfbfbf" stroke="black" points="204.837,-110.5 204.837,-128.5 268.088,-128.5 268.088,-110.5 204.837,-110.5"/>
<text text-anchor="middle" x="236.463" y="-116.5" font-family="Helvetica,sans-Serif" font-size="10.00">IAPKit.hpp</text>
</g>
<!-- Node2 -->
<g id="node2" class="node"><title>Node2</title>
<g id="a_node2"><a xlink:href="___i_a_p_kit_8hpp.html" target="_top" xlink:title="_IAPKit.hpp">
<polygon fill="white" stroke="black" points="171.057,-55.5 171.057,-73.5 239.869,-73.5 239.869,-55.5 171.057,-55.5"/>
<text text-anchor="middle" x="205.463" y="-61.5" font-family="Helvetica,sans-Serif" font-size="10.00">_IAPKit.hpp</text>
</a>
</g>
</g>
<!-- Node1&#45;&gt;Node2 -->
<g id="edge1" class="edge"><title>Node1&#45;&gt;Node2</title>
<path fill="none" stroke="midnightblue" d="M226.44,-101.363C220.977,-92.0242 214.473,-80.9046 210.171,-73.5496"/>
<polygon fill="midnightblue" stroke="midnightblue" points="223.549,-103.354 231.619,-110.219 229.591,-99.8198 223.549,-103.354"/>
</g>
<!-- Node4 -->
<g id="node4" class="node"><title>Node4</title>
<g id="a_node4"><a xlink:href="_i_a_p_kit_8mm.html" target="_top" xlink:title="Apple/Common/IAPKit.mm">
<polygon fill="white" stroke="black" points="0,-0.5 0,-18.5 134.926,-18.5 134.926,-0.5 0,-0.5"/>
<text text-anchor="middle" x="67.4629" y="-6.5" font-family="Helvetica,sans-Serif" font-size="10.00">Apple/Common/IAPKit.mm</text>
</a>
</g>
</g>
<!-- Node1&#45;&gt;Node4 -->
<g id="edge5" class="edge"><title>Node1&#45;&gt;Node4</title>
<path fill="none" stroke="midnightblue" d="M213.795,-105.248C199.06,-96.5416 179.493,-84.8036 162.463,-74 131.975,-54.6589 96.8208,-30.7235 79.045,-18.5019"/>
<polygon fill="midnightblue" stroke="midnightblue" points="212.311,-108.436 222.704,-110.492 215.861,-102.403 212.311,-108.436"/>
</g>
<!-- Node5 -->
<g id="node5" class="node"><title>Node5</title>
<g id="a_node5"><a xlink:href="_i_a_p_kit_8cpp.html" target="_top" xlink:title="IAPKit.cpp">
<polygon fill="white" stroke="black" points="276.118,-0.5 276.118,-18.5 338.808,-18.5 338.808,-0.5 276.118,-0.5"/>
<text text-anchor="middle" x="307.463" y="-6.5" font-family="Helvetica,sans-Serif" font-size="10.00">IAPKit.cpp</text>
</a>
</g>
</g>
<!-- Node1&#45;&gt;Node5 -->
<g id="edge6" class="edge"><title>Node1&#45;&gt;Node5</title>
<path fill="none" stroke="midnightblue" d="M247.418,-101.836C262.861,-78.3455 290.443,-36.3895 302.064,-18.7118"/>
<polygon fill="midnightblue" stroke="midnightblue" points="244.368,-100.104 241.799,-110.382 250.217,-103.949 244.368,-100.104"/>
</g>
<!-- Node6 -->
<g id="node6" class="node"><title>Node6</title>
<g id="a_node6"><a xlink:href="_maw_kit_8h.html" target="_top" xlink:title="MawKit.h">
<polygon fill="white" stroke="black" points="295.901,-55.5 295.901,-73.5 353.024,-73.5 353.024,-55.5 295.901,-55.5"/>
<text text-anchor="middle" x="324.463" y="-61.5" font-family="Helvetica,sans-Serif" font-size="10.00">MawKit.h</text>
</a>
</g>
</g>
<!-- Node1&#45;&gt;Node6 -->
<g id="edge7" class="edge"><title>Node1&#45;&gt;Node6</title>
<path fill="none" stroke="midnightblue" d="M258.794,-105.051C275.251,-95.1393 297.097,-81.9817 310.972,-73.6253"/>
<polygon fill="midnightblue" stroke="midnightblue" points="256.589,-102.293 249.828,-110.45 260.2,-108.289 256.589,-102.293"/>
</g>
<!-- Node3 -->
<g id="node3" class="node"><title>Node3</title>
<g id="a_node3"><a xlink:href="___i_a_p_kit_8cpp.html" target="_top" xlink:title="Android/_IAPKit.cpp">
<polygon fill="white" stroke="black" points="152.714,-0.5 152.714,-18.5 258.211,-18.5 258.211,-0.5 152.714,-0.5"/>
<text text-anchor="middle" x="205.463" y="-6.5" font-family="Helvetica,sans-Serif" font-size="10.00">Android/_IAPKit.cpp</text>
</a>
</g>
</g>
<!-- Node2&#45;&gt;Node3 -->
<g id="edge2" class="edge"><title>Node2&#45;&gt;Node3</title>
<path fill="none" stroke="midnightblue" d="M205.463,-45.1746C205.463,-36.0945 205.463,-25.5949 205.463,-18.5496"/>
<polygon fill="midnightblue" stroke="midnightblue" points="201.963,-45.2187 205.463,-55.2188 208.963,-45.2188 201.963,-45.2187"/>
</g>
<!-- Node2&#45;&gt;Node4 -->
<g id="edge3" class="edge"><title>Node2&#45;&gt;Node4</title>
<path fill="none" stroke="midnightblue" d="M175.049,-51.8192C148.845,-41.7556 111.699,-27.4894 88.6194,-18.6253"/>
<polygon fill="midnightblue" stroke="midnightblue" points="173.914,-55.1324 184.504,-55.4504 176.423,-48.5978 173.914,-55.1324"/>
</g>
<!-- Node2&#45;&gt;Node5 -->
<g id="edge4" class="edge"><title>Node2&#45;&gt;Node5</title>
<path fill="none" stroke="midnightblue" d="M230.02,-50.74C249.233,-40.7567 275.368,-27.177 291.825,-18.6253"/>
<polygon fill="midnightblue" stroke="midnightblue" points="228.214,-47.7338 220.954,-55.4504 231.442,-53.9454 228.214,-47.7338"/>
</g>
</g>
</svg>
