<?xml version="1.0" encoding="UTF-8" standalone="no"?>
<!DOCTYPE svg PUBLIC "-//W3C//DTD SVG 1.1//EN"
 "http://www.w3.org/Graphics/SVG/1.1/DTD/svg11.dtd">
<!-- Generated by graphviz version 2.38.0 (20140413.2041)
 -->
<!-- Title: IAPKit.hpp Pages: 1 -->
<svg width="187pt" height="82pt"
 viewBox="0.00 0.00 187.02 82.00" xmlns="http://www.w3.org/2000/svg" xmlns:xlink="http://www.w3.org/1999/xlink">
<g id="graph0" class="graph" transform="scale(1 1) rotate(0) translate(4 78)">
<title>IAPKit.hpp</title>
<polygon fill="white" stroke="none" points="-4,4 -4,-78 183.02,-78 183.02,4 -4,4"/>
<!-- Node1 -->
<g id="node1" class="node"><title>Node1</title>
<polygon fill="#bfbfbf" stroke="black" points="65.7783,-55.5 65.7783,-73.5 129.029,-73.5 129.029,-55.5 65.7783,-55.5"/>
<text text-anchor="middle" x="97.4038" y="-61.5" font-family="Helvetica,sans-Serif" font-size="10.00">IAPKit.hpp</text>
</g>
<!-- Node2 -->
<g id="node2" class="node"><title>Node2</title>
<polygon fill="white" stroke="#bfbfbf" points="0,-0.5 0,-18.5 58.8076,-18.5 58.8076,-0.5 0,-0.5"/>
<text text-anchor="middle" x="29.4038" y="-6.5" font-family="Helvetica,sans-Serif" font-size="10.00">functional</text>
</g>
<!-- Node1&#45;&gt;Node2 -->
<g id="edge1" class="edge"><title>Node1&#45;&gt;Node2</title>
<path fill="none" stroke="midnightblue" d="M87.0761,-55.4504C76.6916,-47.3566 60.4582,-34.7042 47.8564,-24.8822"/>
<polygon fill="midnightblue" stroke="midnightblue" points="49.8676,-22.0122 39.8287,-18.6253 45.5644,-27.5333 49.8676,-22.0122"/>
</g>
<!-- Node3 -->
<g id="node3" class="node"><title>Node3</title>
<polygon fill="white" stroke="#bfbfbf" points="77.1772,-0.5 77.1772,-18.5 117.63,-18.5 117.63,-0.5 77.1772,-0.5"/>
<text text-anchor="middle" x="97.4038" y="-6.5" font-family="Helvetica,sans-Serif" font-size="10.00">string</text>
</g>
<!-- Node1&#45;&gt;Node3 -->
<g id="edge2" class="edge"><title>Node1&#45;&gt;Node3</title>
<path fill="none" stroke="midnightblue" d="M97.4038,-55.2188C97.4038,-48.1769 97.4038,-37.8083 97.4038,-28.8277"/>
<polygon fill="midnightblue" stroke="midnightblue" points="100.904,-28.5495 97.4038,-18.5496 93.9039,-28.5496 100.904,-28.5495"/>
</g>
<!-- Node4 -->
<g id="node4" class="node"><title>Node4</title>
<polygon fill="white" stroke="#bfbfbf" points="135.788,-0.5 135.788,-18.5 179.02,-18.5 179.02,-0.5 135.788,-0.5"/>
<text text-anchor="middle" x="157.404" y="-6.5" font-family="Helvetica,sans-Serif" font-size="10.00">vector</text>
</g>
<!-- Node1&#45;&gt;Node4 -->
<g id="edge3" class="edge"><title>Node1&#45;&gt;Node4</title>
<path fill="none" stroke="midnightblue" d="M106.517,-55.4504C115.503,-47.5123 129.454,-35.1891 140.477,-25.4519"/>
<polygon fill="midnightblue" stroke="midnightblue" points="143.028,-27.8689 148.205,-18.6253 138.393,-22.6225 143.028,-27.8689"/>
</g>
</g>
</svg>
