<?xml version="1.0" encoding="UTF-8" standalone="no"?>
<!DOCTYPE svg PUBLIC "-//W3C//DTD SVG 1.1//EN"
 "http://www.w3.org/Graphics/SVG/1.1/DTD/svg11.dtd">
<!-- Generated by graphviz version 2.38.0 (20140413.2041)
 -->
<!-- Title: Apple/Common/IAPKit.mm Pages: 1 -->
<svg width="815pt" height="192pt"
 viewBox="0.00 0.00 814.90 192.00" xmlns="http://www.w3.org/2000/svg" xmlns:xlink="http://www.w3.org/1999/xlink">
<g id="graph0" class="graph" transform="scale(1 1) rotate(0) translate(4 188)">
<title>Apple/Common/IAPKit.mm</title>
<polygon fill="white" stroke="none" points="-4,4 -4,-188 810.903,-188 810.903,4 -4,4"/>
<!-- Node1 -->
<g id="node1" class="node"><title>Node1</title>
<polygon fill="#bfbfbf" stroke="black" points="249.031,-165.5 249.031,-183.5 383.957,-183.5 383.957,-165.5 249.031,-165.5"/>
<text text-anchor="middle" x="316.494" y="-171.5" font-family="Helvetica,sans-Serif" font-size="10.00">Apple/Common/IAPKit.mm</text>
</g>
<!-- Node2 -->
<g id="node2" class="node"><title>Node2</title>
<g id="a_node2"><a xlink:href="_i_a_p_kit_8hpp.html" target="_top" xlink:title="../../IAPKit.hpp">
<polygon fill="white" stroke="black" points="96.5335,-55.5 96.5335,-73.5 176.454,-73.5 176.454,-55.5 96.5335,-55.5"/>
<text text-anchor="middle" x="136.494" y="-61.5" font-family="Helvetica,sans-Serif" font-size="10.00">../../IAPKit.hpp</text>
</a>
</g>
</g>
<!-- Node1&#45;&gt;Node2 -->
<g id="edge1" class="edge"><title>Node1&#45;&gt;Node2</title>
<path fill="none" stroke="midnightblue" d="M248.95,-170.036C216.492,-164.966 179.343,-153.648 154.494,-129 142.554,-117.157 138.388,-98.0221 137.007,-83.849"/>
<polygon fill="midnightblue" stroke="midnightblue" points="140.496,-83.5519 136.401,-73.7803 133.508,-83.9725 140.496,-83.5519"/>
</g>
<!-- Node5 -->
<g id="node5" class="node"><title>Node5</title>
<polygon fill="white" stroke="#bfbfbf" points="8.87827,-0.5 8.87827,-18.5 52.1097,-18.5 52.1097,-0.5 8.87827,-0.5"/>
<text text-anchor="middle" x="30.494" y="-6.5" font-family="Helvetica,sans-Serif" font-size="10.00">vector</text>
</g>
<!-- Node1&#45;&gt;Node5 -->
<g id="edge11" class="edge"><title>Node1&#45;&gt;Node5</title>
<path fill="none" stroke="midnightblue" d="M248.771,-173.467C168.672,-171.816 42.4027,-163.606 12.494,-129 -12.2514,-100.369 7.24461,-52.6149 20.6127,-27.3562"/>
<polygon fill="midnightblue" stroke="midnightblue" points="23.69,-29.024 25.4945,-18.5839 17.5733,-25.62 23.69,-29.024"/>
</g>
<!-- Node6 -->
<g id="node6" class="node"><title>Node6</title>
<g id="a_node6"><a xlink:href="___i_a_p_kit_8hpp.html" target="_top" xlink:title="../../_IAPKit.hpp">
<polygon fill="white" stroke="black" points="21.7528,-110.5 21.7528,-128.5 107.235,-128.5 107.235,-110.5 21.7528,-110.5"/>
<text text-anchor="middle" x="64.494" y="-116.5" font-family="Helvetica,sans-Serif" font-size="10.00">../../_IAPKit.hpp</text>
</a>
</g>
</g>
<!-- Node1&#45;&gt;Node6 -->
<g id="edge5" class="edge"><title>Node1&#45;&gt;Node6</title>
<path fill="none" stroke="midnightblue" d="M278.221,-165.45C233.873,-156.123 160.741,-140.742 112.59,-130.615"/>
<polygon fill="midnightblue" stroke="midnightblue" points="113.22,-127.171 102.714,-128.538 111.779,-134.022 113.22,-127.171"/>
</g>
<!-- Node7 -->
<g id="node7" class="node"><title>Node7</title>
<polygon fill="white" stroke="#bfbfbf" points="549.364,-110.5 549.364,-128.5 647.624,-128.5 647.624,-110.5 549.364,-110.5"/>
<text text-anchor="middle" x="598.494" y="-116.5" font-family="Helvetica,sans-Serif" font-size="10.00">StoreKit/StoreKit.h</text>
</g>
<!-- Node1&#45;&gt;Node7 -->
<g id="edge9" class="edge"><title>Node1&#45;&gt;Node7</title>
<path fill="none" stroke="midnightblue" d="M359.324,-165.45C409.263,-156.065 491.818,-140.549 545.683,-130.425"/>
<polygon fill="midnightblue" stroke="midnightblue" points="546.543,-133.825 555.724,-128.538 545.25,-126.946 546.543,-133.825"/>
</g>
<!-- Node8 -->
<g id="node8" class="node"><title>Node8</title>
<polygon fill="white" stroke="#bfbfbf" points="665.322,-110.5 665.322,-128.5 719.666,-128.5 719.666,-110.5 665.322,-110.5"/>
<text text-anchor="middle" x="692.494" y="-116.5" font-family="Helvetica,sans-Serif" font-size="10.00">iostream</text>
</g>
<!-- Node1&#45;&gt;Node8 -->
<g id="edge10" class="edge"><title>Node1&#45;&gt;Node8</title>
<path fill="none" stroke="midnightblue" d="M384.222,-166.688C450.851,-159.522 555.633,-147.012 655.118,-129.095"/>
<polygon fill="midnightblue" stroke="midnightblue" points="655.827,-132.523 665.037,-127.287 654.572,-125.636 655.827,-132.523"/>
</g>
<!-- Node9 -->
<g id="node9" class="node"><title>Node9</title>
<g id="a_node9"><a xlink:href="_device_8hpp.html" target="_top" xlink:title="../../Device.hpp">
<polygon fill="white" stroke="black" points="163.144,-110.5 163.144,-128.5 245.844,-128.5 245.844,-110.5 163.144,-110.5"/>
<text text-anchor="middle" x="204.494" y="-116.5" font-family="Helvetica,sans-Serif" font-size="10.00">../../Device.hpp</text>
</a>
</g>
</g>
<!-- Node1&#45;&gt;Node9 -->
<g id="edge12" class="edge"><title>Node1&#45;&gt;Node9</title>
<path fill="none" stroke="midnightblue" d="M299.484,-165.45C281.228,-156.812 252,-142.98 230.781,-132.94"/>
<polygon fill="midnightblue" stroke="midnightblue" points="232.201,-129.739 221.664,-128.625 229.206,-136.066 232.201,-129.739"/>
</g>
<!-- Node10 -->
<g id="node10" class="node"><title>Node10</title>
<polygon fill="white" stroke="#bfbfbf" points="237.701,-55.5 237.701,-73.5 299.287,-73.5 299.287,-55.5 237.701,-55.5"/>
<text text-anchor="middle" x="268.494" y="-61.5" font-family="Helvetica,sans-Serif" font-size="10.00">cocos2d.h</text>
</g>
<!-- Node1&#45;&gt;Node10 -->
<g id="edge21" class="edge"><title>Node1&#45;&gt;Node10</title>
<path fill="none" stroke="midnightblue" d="M311.738,-165.464C306.638,-156.676 298.469,-142.097 292.494,-129 285.615,-113.922 279.052,-96.2478 274.533,-83.3798"/>
<polygon fill="midnightblue" stroke="midnightblue" points="277.821,-82.179 271.256,-73.8636 271.203,-84.4583 277.821,-82.179"/>
</g>
<!-- Node11 -->
<g id="node11" class="node"><title>Node11</title>
<g id="a_node11"><a xlink:href="_log_8hpp.html" target="_top" xlink:title="../../Log.hpp">
<polygon fill="white" stroke="black" points="738.085,-110.5 738.085,-128.5 806.903,-128.5 806.903,-110.5 738.085,-110.5"/>
<text text-anchor="middle" x="772.494" y="-116.5" font-family="Helvetica,sans-Serif" font-size="10.00">../../Log.hpp</text>
</a>
</g>
</g>
<!-- Node1&#45;&gt;Node11 -->
<g id="edge15" class="edge"><title>Node1&#45;&gt;Node11</title>
<path fill="none" stroke="midnightblue" d="M384.156,-167.932C463.891,-160.98 600.566,-147.844 728.013,-128.943"/>
<polygon fill="midnightblue" stroke="midnightblue" points="728.582,-132.397 737.954,-127.454 727.545,-125.474 728.582,-132.397"/>
</g>
<!-- Node12 -->
<g id="node12" class="node"><title>Node12</title>
<g id="a_node12"><a xlink:href="_c_p_p_utils_8h.html" target="_top" xlink:title="../Common/CPPUtils.h">
<polygon fill="white" stroke="black" points="301.482,-110.5 301.482,-128.5 417.506,-128.5 417.506,-110.5 301.482,-110.5"/>
<text text-anchor="middle" x="359.494" y="-116.5" font-family="Helvetica,sans-Serif" font-size="10.00">../Common/CPPUtils.h</text>
</a>
</g>
</g>
<!-- Node1&#45;&gt;Node12 -->
<g id="edge16" class="edge"><title>Node1&#45;&gt;Node12</title>
<path fill="none" stroke="midnightblue" d="M323.213,-165.219C329.434,-157.551 338.855,-145.939 346.538,-136.469"/>
<polygon fill="midnightblue" stroke="midnightblue" points="349.381,-138.52 352.963,-128.55 343.945,-134.11 349.381,-138.52"/>
</g>
<!-- Node14 -->
<g id="node14" class="node"><title>Node14</title>
<g id="a_node14"><a xlink:href="_receipt_validator_8h.html" target="_top" xlink:title="ReceiptValidator.h">
<polygon fill="white" stroke="black" points="435.279,-110.5 435.279,-128.5 531.709,-128.5 531.709,-110.5 435.279,-110.5"/>
<text text-anchor="middle" x="483.494" y="-116.5" font-family="Helvetica,sans-Serif" font-size="10.00">ReceiptValidator.h</text>
</a>
</g>
</g>
<!-- Node1&#45;&gt;Node14 -->
<g id="edge19" class="edge"><title>Node1&#45;&gt;Node14</title>
<path fill="none" stroke="midnightblue" d="M341.858,-165.45C370.263,-156.436 416.488,-141.765 448.362,-131.65"/>
<polygon fill="midnightblue" stroke="midnightblue" points="449.693,-134.899 458.166,-128.538 447.575,-128.227 449.693,-134.899"/>
</g>
<!-- Node3 -->
<g id="node3" class="node"><title>Node3</title>
<polygon fill="white" stroke="#bfbfbf" points="89.0902,-0.5 89.0902,-18.5 147.898,-18.5 147.898,-0.5 89.0902,-0.5"/>
<text text-anchor="middle" x="118.494" y="-6.5" font-family="Helvetica,sans-Serif" font-size="10.00">functional</text>
</g>
<!-- Node2&#45;&gt;Node3 -->
<g id="edge2" class="edge"><title>Node2&#45;&gt;Node3</title>
<path fill="none" stroke="midnightblue" d="M133.681,-55.2188C131.237,-48.0204 127.611,-37.3458 124.516,-28.2311"/>
<polygon fill="midnightblue" stroke="midnightblue" points="127.758,-26.8928 121.228,-18.5496 121.13,-29.1439 127.758,-26.8928"/>
</g>
<!-- Node4 -->
<g id="node4" class="node"><title>Node4</title>
<polygon fill="white" stroke="#bfbfbf" points="184.267,-0.5 184.267,-18.5 224.721,-18.5 224.721,-0.5 184.267,-0.5"/>
<text text-anchor="middle" x="204.494" y="-6.5" font-family="Helvetica,sans-Serif" font-size="10.00">string</text>
</g>
<!-- Node2&#45;&gt;Node4 -->
<g id="edge3" class="edge"><title>Node2&#45;&gt;Node4</title>
<path fill="none" stroke="midnightblue" d="M146.822,-55.4504C157.206,-47.3566 173.44,-34.7042 186.041,-24.8822"/>
<polygon fill="midnightblue" stroke="midnightblue" points="188.333,-27.5333 194.069,-18.6253 184.03,-22.0122 188.333,-27.5333"/>
</g>
<!-- Node2&#45;&gt;Node5 -->
<g id="edge4" class="edge"><title>Node2&#45;&gt;Node5</title>
<path fill="none" stroke="midnightblue" d="M120.395,-55.4504C103.273,-46.8897 75.9522,-33.2291 55.9177,-23.2119"/>
<polygon fill="midnightblue" stroke="midnightblue" points="57.2542,-19.967 46.7446,-18.6253 54.1236,-26.228 57.2542,-19.967"/>
</g>
<!-- Node6&#45;&gt;Node2 -->
<g id="edge6" class="edge"><title>Node6&#45;&gt;Node2</title>
<path fill="none" stroke="midnightblue" d="M75.4292,-110.45C86.5303,-102.279 103.944,-89.4604 117.34,-79.5996"/>
<polygon fill="midnightblue" stroke="midnightblue" points="119.477,-82.3722 125.456,-73.6253 115.328,-76.7348 119.477,-82.3722"/>
</g>
<!-- Node6&#45;&gt;Node3 -->
<g id="edge7" class="edge"><title>Node6&#45;&gt;Node3</title>
<path fill="none" stroke="midnightblue" d="M66.6878,-110.4C70.1941,-98.0493 77.6779,-73.9482 87.494,-55 92.5917,-45.1597 99.5551,-34.961 105.591,-26.8137"/>
<polygon fill="midnightblue" stroke="midnightblue" points="108.567,-28.6843 111.862,-18.6151 103.007,-24.4312 108.567,-28.6843"/>
</g>
<!-- Node6&#45;&gt;Node5 -->
<g id="edge8" class="edge"><title>Node6&#45;&gt;Node5</title>
<path fill="none" stroke="midnightblue" d="M61.9385,-110.382C56.499,-93.104 43.6625,-52.3294 36.1805,-28.5629"/>
<polygon fill="midnightblue" stroke="midnightblue" points="39.4206,-27.1992 33.0792,-18.7118 32.7436,-29.3013 39.4206,-27.1992"/>
</g>
<!-- Node9&#45;&gt;Node4 -->
<g id="edge13" class="edge"><title>Node9&#45;&gt;Node4</title>
<path fill="none" stroke="midnightblue" d="M204.494,-110.382C204.494,-93.1822 204.494,-52.698 204.494,-28.8866"/>
<polygon fill="midnightblue" stroke="midnightblue" points="207.994,-28.7117 204.494,-18.7118 200.994,-28.7118 207.994,-28.7117"/>
</g>
<!-- Node9&#45;&gt;Node10 -->
<g id="edge14" class="edge"><title>Node9&#45;&gt;Node10</title>
<path fill="none" stroke="midnightblue" d="M214.214,-110.45C223.894,-102.434 238.973,-89.9471 250.784,-80.1663"/>
<polygon fill="midnightblue" stroke="midnightblue" points="253.213,-82.6992 258.682,-73.6253 248.748,-77.3078 253.213,-82.6992"/>
</g>
<!-- Node12&#45;&gt;Node4 -->
<g id="edge18" class="edge"><title>Node12&#45;&gt;Node4</title>
<path fill="none" stroke="midnightblue" d="M354.839,-110.42C346.873,-97.2166 329.443,-70.9001 308.494,-55 286.211,-38.0878 256.527,-26.2189 234.577,-19.017"/>
<polygon fill="midnightblue" stroke="midnightblue" points="235.38,-15.6006 224.791,-15.9449 233.283,-22.2793 235.38,-15.6006"/>
</g>
<!-- Node13 -->
<g id="node13" class="node"><title>Node13</title>
<polygon fill="white" stroke="#bfbfbf" points="406.896,-55.5 406.896,-73.5 534.092,-73.5 534.092,-55.5 406.896,-55.5"/>
<text text-anchor="middle" x="470.494" y="-61.5" font-family="Helvetica,sans-Serif" font-size="10.00">Foundation/Foundation.h</text>
</g>
<!-- Node12&#45;&gt;Node13 -->
<g id="edge17" class="edge"><title>Node12&#45;&gt;Node13</title>
<path fill="none" stroke="midnightblue" d="M376.353,-110.45C394.445,-101.812 423.413,-87.9803 444.441,-77.9396"/>
<polygon fill="midnightblue" stroke="midnightblue" points="445.961,-81.0926 453.477,-73.6253 442.945,-74.7757 445.961,-81.0926"/>
</g>
<!-- Node14&#45;&gt;Node13 -->
<g id="edge20" class="edge"><title>Node14&#45;&gt;Node13</title>
<path fill="none" stroke="midnightblue" d="M481.463,-110.219C479.716,-103.099 477.136,-92.5775 474.916,-83.5289"/>
<polygon fill="midnightblue" stroke="midnightblue" points="478.25,-82.4279 472.468,-73.5496 471.451,-84.0955 478.25,-82.4279"/>
</g>
</g>
</svg>
