<?xml version="1.0" encoding="UTF-8" standalone="no"?>
<!DOCTYPE svg PUBLIC "-//W3C//DTD SVG 1.1//EN"
 "http://www.w3.org/Graphics/SVG/1.1/DTD/svg11.dtd">
<!-- Generated by graphviz version 2.38.0 (20140413.2041)
 -->
<!-- Title: InfiniteParallaxNode.cpp Pages: 1 -->
<svg width="133pt" height="137pt"
 viewBox="0.00 0.00 132.96 137.00" xmlns="http://www.w3.org/2000/svg" xmlns:xlink="http://www.w3.org/1999/xlink">
<g id="graph0" class="graph" transform="scale(1 1) rotate(0) translate(4 133)">
<title>InfiniteParallaxNode.cpp</title>
<polygon fill="white" stroke="none" points="-4,4 -4,-133 128.96,-133 128.96,4 -4,4"/>
<!-- Node1 -->
<g id="node1" class="node"><title>Node1</title>
<polygon fill="#bfbfbf" stroke="black" points="0.280762,-110.5 0.280762,-128.5 124.679,-128.5 124.679,-110.5 0.280762,-110.5"/>
<text text-anchor="middle" x="62.48" y="-116.5" font-family="Helvetica,sans-Serif" font-size="10.00">InfiniteParallaxNode.cpp</text>
</g>
<!-- Node2 -->
<g id="node2" class="node"><title>Node2</title>
<g id="a_node2"><a xlink:href="_infinite_parallax_node_8hpp.html" target="_top" xlink:title="InfiniteParallaxNode.hpp">
<polygon fill="white" stroke="black" points="0,-55.5 0,-73.5 124.96,-73.5 124.96,-55.5 0,-55.5"/>
<text text-anchor="middle" x="62.48" y="-61.5" font-family="Helvetica,sans-Serif" font-size="10.00">InfiniteParallaxNode.hpp</text>
</a>
</g>
</g>
<!-- Node1&#45;&gt;Node2 -->
<g id="edge1" class="edge"><title>Node1&#45;&gt;Node2</title>
<path fill="none" stroke="midnightblue" d="M62.48,-110.219C62.48,-103.177 62.48,-92.8083 62.48,-83.8277"/>
<polygon fill="midnightblue" stroke="midnightblue" points="65.9801,-83.5495 62.48,-73.5496 58.9801,-83.5496 65.9801,-83.5495"/>
</g>
<!-- Node3 -->
<g id="node3" class="node"><title>Node3</title>
<polygon fill="white" stroke="#bfbfbf" points="31.687,-0.5 31.687,-18.5 93.2729,-18.5 93.2729,-0.5 31.687,-0.5"/>
<text text-anchor="middle" x="62.48" y="-6.5" font-family="Helvetica,sans-Serif" font-size="10.00">cocos2d.h</text>
</g>
<!-- Node2&#45;&gt;Node3 -->
<g id="edge2" class="edge"><title>Node2&#45;&gt;Node3</title>
<path fill="none" stroke="midnightblue" d="M62.48,-55.2188C62.48,-48.1769 62.48,-37.8083 62.48,-28.8277"/>
<polygon fill="midnightblue" stroke="midnightblue" points="65.9801,-28.5495 62.48,-18.5496 58.9801,-28.5496 65.9801,-28.5495"/>
</g>
</g>
</svg>
