<?xml version="1.0" encoding="UTF-8" standalone="no"?>
<!DOCTYPE svg PUBLIC "-//W3C//DTD SVG 1.1//EN"
 "http://www.w3.org/Graphics/SVG/1.1/DTD/svg11.dtd">
<!-- Generated by graphviz version 2.38.0 (20140413.2041)
 -->
<!-- Title: KVDatabase.hpp Pages: 1 -->
<svg width="886pt" height="82pt"
 viewBox="0.00 0.00 885.96 82.00" xmlns="http://www.w3.org/2000/svg" xmlns:xlink="http://www.w3.org/1999/xlink">
<g id="graph0" class="graph" transform="scale(1 1) rotate(0) translate(4 78)">
<title>KVDatabase.hpp</title>
<polygon fill="white" stroke="none" points="-4,4 -4,-78 881.963,-78 881.963,4 -4,4"/>
<!-- Node1 -->
<g id="node1" class="node"><title>Node1</title>
<polygon fill="#bfbfbf" stroke="black" points="473.596,-55.5 473.596,-73.5 565.207,-73.5 565.207,-55.5 473.596,-55.5"/>
<text text-anchor="middle" x="519.401" y="-61.5" font-family="Helvetica,sans-Serif" font-size="10.00">KVDatabase.hpp</text>
</g>
<!-- Node2 -->
<g id="node2" class="node"><title>Node2</title>
<g id="a_node2"><a xlink:href="_ad_kit_8cpp.html" target="_top" xlink:title="AdKit.cpp">
<polygon fill="white" stroke="black" points="0,-0.5 0,-18.5 58.8027,-18.5 58.8027,-0.5 0,-0.5"/>
<text text-anchor="middle" x="29.4014" y="-6.5" font-family="Helvetica,sans-Serif" font-size="10.00">AdKit.cpp</text>
</a>
</g>
</g>
<!-- Node1&#45;&gt;Node2 -->
<g id="edge1" class="edge"><title>Node1&#45;&gt;Node2</title>
<path fill="none" stroke="midnightblue" d="M463.39,-60.075C377.861,-54.372 209.737,-41.2973 68.4014,-19 65.3895,-18.5248 62.2609,-17.9619 59.1446,-17.3554"/>
<polygon fill="midnightblue" stroke="midnightblue" points="463.196,-63.5697 473.404,-60.7341 463.655,-56.5848 463.196,-63.5697"/>
</g>
<!-- Node3 -->
<g id="node3" class="node"><title>Node3</title>
<g id="a_node3"><a xlink:href="_android_2_k_v_database_8cpp.html" target="_top" xlink:title="Android/KVDatabase.cpp">
<polygon fill="white" stroke="black" points="77.2539,-0.5 77.2539,-18.5 205.549,-18.5 205.549,-0.5 77.2539,-0.5"/>
<text text-anchor="middle" x="141.401" y="-6.5" font-family="Helvetica,sans-Serif" font-size="10.00">Android/KVDatabase.cpp</text>
</a>
</g>
</g>
<!-- Node1&#45;&gt;Node3 -->
<g id="edge2" class="edge"><title>Node1&#45;&gt;Node3</title>
<path fill="none" stroke="midnightblue" d="M463.325,-55.6374C392.263,-45.6738 270.427,-28.591 198.761,-18.5425"/>
<polygon fill="midnightblue" stroke="midnightblue" points="463.04,-59.1316 473.429,-57.0541 464.012,-52.1994 463.04,-59.1316"/>
</g>
<!-- Node4 -->
<g id="node4" class="node"><title>Node4</title>
<g id="a_node4"><a xlink:href="_k_v_database_8mm.html" target="_top" xlink:title="Apple/Common/KVDatabase.mm">
<polygon fill="white" stroke="black" points="223.759,-0.5 223.759,-18.5 387.044,-18.5 387.044,-0.5 223.759,-0.5"/>
<text text-anchor="middle" x="305.401" y="-6.5" font-family="Helvetica,sans-Serif" font-size="10.00">Apple/Common/KVDatabase.mm</text>
</a>
</g>
</g>
<!-- Node1&#45;&gt;Node4 -->
<g id="edge3" class="edge"><title>Node1&#45;&gt;Node4</title>
<path fill="none" stroke="midnightblue" d="M476.958,-52.9883C436.046,-42.856 375.026,-27.7436 337.858,-18.5383"/>
<polygon fill="midnightblue" stroke="midnightblue" points="476.351,-56.4437 486.899,-55.4504 478.034,-49.649 476.351,-56.4437"/>
</g>
<!-- Node5 -->
<g id="node5" class="node"><title>Node5</title>
<g id="a_node5"><a xlink:href="_m_k_utils_8cpp.html" target="_top" xlink:title="Examples/MKUtils.cpp">
<polygon fill="white" stroke="black" points="405.387,-0.5 405.387,-18.5 521.416,-18.5 521.416,-0.5 405.387,-0.5"/>
<text text-anchor="middle" x="463.401" y="-6.5" font-family="Helvetica,sans-Serif" font-size="10.00">Examples/MKUtils.cpp</text>
</a>
</g>
</g>
<!-- Node1&#45;&gt;Node5 -->
<g id="edge4" class="edge"><title>Node1&#45;&gt;Node5</title>
<path fill="none" stroke="midnightblue" d="M503.14,-48.1101C492.927,-38.4438 480.169,-26.3692 471.907,-18.5496"/>
<polygon fill="midnightblue" stroke="midnightblue" points="500.983,-50.8869 510.651,-55.2188 505.794,-45.8028 500.983,-50.8869"/>
</g>
<!-- Node6 -->
<g id="node6" class="node"><title>Node6</title>
<g id="a_node6"><a xlink:href="_game_kit_8cpp.html" target="_top" xlink:title="GameKit.cpp">
<polygon fill="white" stroke="black" points="539.5,-0.5 539.5,-18.5 613.303,-18.5 613.303,-0.5 539.5,-0.5"/>
<text text-anchor="middle" x="576.401" y="-6.5" font-family="Helvetica,sans-Serif" font-size="10.00">GameKit.cpp</text>
</a>
</g>
</g>
<!-- Node1&#45;&gt;Node6 -->
<g id="edge5" class="edge"><title>Node1&#45;&gt;Node6</title>
<path fill="none" stroke="midnightblue" d="M535.645,-48.3965C546.091,-38.6833 559.251,-26.4466 567.744,-18.5496"/>
<polygon fill="midnightblue" stroke="midnightblue" points="533.248,-45.8461 528.308,-55.2188 538.014,-50.9725 533.248,-45.8461"/>
</g>
<!-- Node7 -->
<g id="node7" class="node"><title>Node7</title>
<g id="a_node7"><a xlink:href="_i_a_p_kit_8cpp.html" target="_top" xlink:title="IAPKit.cpp">
<polygon fill="white" stroke="black" points="631.057,-0.5 631.057,-18.5 693.746,-18.5 693.746,-0.5 631.057,-0.5"/>
<text text-anchor="middle" x="662.401" y="-6.5" font-family="Helvetica,sans-Serif" font-size="10.00">IAPKit.cpp</text>
</a>
</g>
</g>
<!-- Node1&#45;&gt;Node7 -->
<g id="edge6" class="edge"><title>Node1&#45;&gt;Node7</title>
<path fill="none" stroke="midnightblue" d="M550.559,-51.952C577.731,-41.8814 616.457,-27.5284 640.478,-18.6253"/>
<polygon fill="midnightblue" stroke="midnightblue" points="549.28,-48.6933 541.12,-55.4504 551.713,-55.2569 549.28,-48.6933"/>
</g>
<!-- Node8 -->
<g id="node8" class="node"><title>Node8</title>
<g id="a_node8"><a xlink:href="_k_v_database_8cpp.html" target="_top" xlink:title="KVDatabase.cpp">
<polygon fill="white" stroke="black" points="711.877,-0.5 711.877,-18.5 802.926,-18.5 802.926,-0.5 711.877,-0.5"/>
<text text-anchor="middle" x="757.401" y="-6.5" font-family="Helvetica,sans-Serif" font-size="10.00">KVDatabase.cpp</text>
</a>
</g>
</g>
<!-- Node1&#45;&gt;Node8 -->
<g id="edge7" class="edge"><title>Node1&#45;&gt;Node8</title>
<path fill="none" stroke="midnightblue" d="M565.453,-53.2449C610.952,-43.1126 679.618,-27.8216 721.305,-18.5383"/>
<polygon fill="midnightblue" stroke="midnightblue" points="564.549,-49.8604 555.548,-55.4504 566.07,-56.693 564.549,-49.8604"/>
</g>
<!-- Node9 -->
<g id="node9" class="node"><title>Node9</title>
<g id="a_node9"><a xlink:href="_maw_kit_8h.html" target="_top" xlink:title="MawKit.h">
<polygon fill="white" stroke="black" points="820.84,-0.5 820.84,-18.5 877.963,-18.5 877.963,-0.5 820.84,-0.5"/>
<text text-anchor="middle" x="849.401" y="-6.5" font-family="Helvetica,sans-Serif" font-size="10.00">MawKit.h</text>
</a>
</g>
</g>
<!-- Node1&#45;&gt;Node9 -->
<g id="edge8" class="edge"><title>Node1&#45;&gt;Node9</title>
<path fill="none" stroke="midnightblue" d="M575.503,-56.2544C634.635,-48.3198 730.393,-34.6247 812.401,-19 815.121,-18.4819 817.944,-17.905 820.763,-17.3026"/>
<polygon fill="midnightblue" stroke="midnightblue" points="574.708,-52.8293 565.259,-57.6205 575.633,-59.7679 574.708,-52.8293"/>
</g>
</g>
</svg>
