<?xml version="1.0" encoding="UTF-8" standalone="no"?>
<!DOCTYPE svg PUBLIC "-//W3C//DTD SVG 1.1//EN"
 "http://www.w3.org/Graphics/SVG/1.1/DTD/svg11.dtd">
<!-- Generated by graphviz version 2.38.0 (20140413.2041)
 -->
<!-- Title: Apple/Common/KVDatabase.mm Pages: 1 -->
<svg width="531pt" height="147pt"
 viewBox="0.00 0.00 531.35 147.00" xmlns="http://www.w3.org/2000/svg" xmlns:xlink="http://www.w3.org/1999/xlink">
<g id="graph0" class="graph" transform="scale(1 1) rotate(0) translate(4 143)">
<title>Apple/Common/KVDatabase.mm</title>
<polygon fill="white" stroke="none" points="-4,4 -4,-143 527.351,-143 527.351,4 -4,4"/>
<!-- Node1 -->
<g id="node1" class="node"><title>Node1</title>
<polygon fill="#bfbfbf" stroke="black" points="167.973,-120.5 167.973,-138.5 331.258,-138.5 331.258,-120.5 167.973,-120.5"/>
<text text-anchor="middle" x="249.616" y="-126.5" font-family="Helvetica,sans-Serif" font-size="10.00">Apple/Common/KVDatabase.mm</text>
</g>
<!-- Node2 -->
<g id="node2" class="node"><title>Node2</title>
<g id="a_node2"><a xlink:href="_k_v_database_8hpp.html" target="_top" xlink:title="../../KVDatabase.hpp">
<polygon fill="white" stroke="black" points="36.4756,-60.5 36.4756,-78.5 144.756,-78.5 144.756,-60.5 36.4756,-60.5"/>
<text text-anchor="middle" x="90.6157" y="-66.5" font-family="Helvetica,sans-Serif" font-size="10.00">../../KVDatabase.hpp</text>
</a>
</g>
</g>
<!-- Node1&#45;&gt;Node2 -->
<g id="edge1" class="edge"><title>Node1&#45;&gt;Node2</title>
<path fill="none" stroke="midnightblue" d="M227.507,-120.435C200.174,-110.465 153.458,-93.4237 122.313,-82.0624"/>
<polygon fill="midnightblue" stroke="midnightblue" points="123.386,-78.7284 112.792,-78.5894 120.987,-85.3045 123.386,-78.7284"/>
</g>
<!-- Node6 -->
<g id="node6" class="node"><title>Node6</title>
<polygon fill="white" stroke="#bfbfbf" points="345.881,-55.5 345.881,-83.5 523.351,-83.5 523.351,-55.5 345.881,-55.5"/>
<text text-anchor="start" x="353.881" y="-71.5" font-family="Helvetica,sans-Serif" font-size="10.00">SecureNSUserDefaults</text>
<text text-anchor="middle" x="434.616" y="-61.5" font-family="Helvetica,sans-Serif" font-size="10.00">/NSUserDefaults+SecureAdditions.h</text>
</g>
<!-- Node1&#45;&gt;Node6 -->
<g id="edge5" class="edge"><title>Node1&#45;&gt;Node6</title>
<path fill="none" stroke="midnightblue" d="M275.339,-120.435C303.2,-111.701 348.366,-97.5404 383.499,-86.5257"/>
<polygon fill="midnightblue" stroke="midnightblue" points="384.625,-89.8409 393.12,-83.5096 382.531,-83.1615 384.625,-89.8409"/>
</g>
<!-- Node7 -->
<g id="node7" class="node"><title>Node7</title>
<g id="a_node7"><a xlink:href="_device_8hpp.html" target="_top" xlink:title="../../Device.hpp">
<polygon fill="white" stroke="black" points="162.266,-60.5 162.266,-78.5 244.965,-78.5 244.965,-60.5 162.266,-60.5"/>
<text text-anchor="middle" x="203.616" y="-66.5" font-family="Helvetica,sans-Serif" font-size="10.00">../../Device.hpp</text>
</a>
</g>
</g>
<!-- Node1&#45;&gt;Node7 -->
<g id="edge6" class="edge"><title>Node1&#45;&gt;Node7</title>
<path fill="none" stroke="midnightblue" d="M243.22,-120.435C236.363,-111.79 225.291,-97.8292 216.594,-86.8643"/>
<polygon fill="midnightblue" stroke="midnightblue" points="219.212,-84.5319 210.255,-78.8718 213.727,-88.8816 219.212,-84.5319"/>
</g>
<!-- Node9 -->
<g id="node9" class="node"><title>Node9</title>
<g id="a_node9"><a xlink:href="_c_p_p_utils_8h.html" target="_top" xlink:title="CPPUtils.h">
<polygon fill="white" stroke="black" points="263.443,-60.5 263.443,-78.5 327.788,-78.5 327.788,-60.5 263.443,-60.5"/>
<text text-anchor="middle" x="295.616" y="-66.5" font-family="Helvetica,sans-Serif" font-size="10.00">CPPUtils.h</text>
</a>
</g>
</g>
<!-- Node1&#45;&gt;Node9 -->
<g id="edge9" class="edge"><title>Node1&#45;&gt;Node9</title>
<path fill="none" stroke="midnightblue" d="M256.012,-120.435C262.869,-111.79 273.941,-97.8292 282.637,-86.8643"/>
<polygon fill="midnightblue" stroke="midnightblue" points="285.504,-88.8816 288.976,-78.8718 280.02,-84.5319 285.504,-88.8816"/>
</g>
<!-- Node3 -->
<g id="node3" class="node"><title>Node3</title>
<polygon fill="white" stroke="#bfbfbf" points="61.2119,-0.5 61.2119,-18.5 120.02,-18.5 120.02,-0.5 61.2119,-0.5"/>
<text text-anchor="middle" x="90.6157" y="-6.5" font-family="Helvetica,sans-Serif" font-size="10.00">functional</text>
</g>
<!-- Node2&#45;&gt;Node3 -->
<g id="edge2" class="edge"><title>Node2&#45;&gt;Node3</title>
<path fill="none" stroke="midnightblue" d="M90.6157,-60.4353C90.6157,-52.3891 90.6157,-39.7388 90.6157,-29.1846"/>
<polygon fill="midnightblue" stroke="midnightblue" points="94.1158,-28.8717 90.6157,-18.8718 87.1158,-28.8718 94.1158,-28.8717"/>
</g>
<!-- Node4 -->
<g id="node4" class="node"><title>Node4</title>
<polygon fill="white" stroke="#bfbfbf" points="217.389,-0.5 217.389,-18.5 257.842,-18.5 257.842,-0.5 217.389,-0.5"/>
<text text-anchor="middle" x="237.616" y="-6.5" font-family="Helvetica,sans-Serif" font-size="10.00">string</text>
</g>
<!-- Node2&#45;&gt;Node4 -->
<g id="edge3" class="edge"><title>Node2&#45;&gt;Node4</title>
<path fill="none" stroke="midnightblue" d="M111.055,-60.4353C136.178,-50.523 179.01,-33.6233 207.803,-22.2629"/>
<polygon fill="midnightblue" stroke="midnightblue" points="209.332,-25.4222 217.35,-18.4962 206.763,-18.9107 209.332,-25.4222"/>
</g>
<!-- Node5 -->
<g id="node5" class="node"><title>Node5</title>
<polygon fill="white" stroke="#bfbfbf" points="0,-0.5 0,-18.5 43.2314,-18.5 43.2314,-0.5 0,-0.5"/>
<text text-anchor="middle" x="21.6157" y="-6.5" font-family="Helvetica,sans-Serif" font-size="10.00">vector</text>
</g>
<!-- Node2&#45;&gt;Node5 -->
<g id="edge4" class="edge"><title>Node2&#45;&gt;Node5</title>
<path fill="none" stroke="midnightblue" d="M81.0216,-60.4353C70.3292,-51.4475 52.8027,-36.7151 39.5512,-25.5762"/>
<polygon fill="midnightblue" stroke="midnightblue" points="41.4822,-22.6271 31.5752,-18.8718 36.978,-27.9855 41.4822,-22.6271"/>
</g>
<!-- Node7&#45;&gt;Node4 -->
<g id="edge7" class="edge"><title>Node7&#45;&gt;Node4</title>
<path fill="none" stroke="midnightblue" d="M208.343,-60.4353C213.311,-51.9611 221.272,-38.38 227.639,-27.5192"/>
<polygon fill="midnightblue" stroke="midnightblue" points="230.67,-29.2688 232.708,-18.8718 224.631,-25.7287 230.67,-29.2688"/>
</g>
<!-- Node8 -->
<g id="node8" class="node"><title>Node8</title>
<polygon fill="white" stroke="#bfbfbf" points="137.823,-0.5 137.823,-18.5 199.409,-18.5 199.409,-0.5 137.823,-0.5"/>
<text text-anchor="middle" x="168.616" y="-6.5" font-family="Helvetica,sans-Serif" font-size="10.00">cocos2d.h</text>
</g>
<!-- Node7&#45;&gt;Node8 -->
<g id="edge8" class="edge"><title>Node7&#45;&gt;Node8</title>
<path fill="none" stroke="midnightblue" d="M198.749,-60.4353C193.635,-51.9611 185.44,-38.38 178.886,-27.5192"/>
<polygon fill="midnightblue" stroke="midnightblue" points="181.831,-25.6253 173.668,-18.8718 175.838,-29.242 181.831,-25.6253"/>
</g>
<!-- Node9&#45;&gt;Node4 -->
<g id="edge11" class="edge"><title>Node9&#45;&gt;Node4</title>
<path fill="none" stroke="midnightblue" d="M287.551,-60.4353C278.734,-51.6187 264.39,-37.2743 253.332,-26.2165"/>
<polygon fill="midnightblue" stroke="midnightblue" points="255.533,-23.468 245.987,-18.8718 250.584,-28.4177 255.533,-23.468"/>
</g>
<!-- Node10 -->
<g id="node10" class="node"><title>Node10</title>
<polygon fill="white" stroke="#bfbfbf" points="276.018,-0.5 276.018,-18.5 403.214,-18.5 403.214,-0.5 276.018,-0.5"/>
<text text-anchor="middle" x="339.616" y="-6.5" font-family="Helvetica,sans-Serif" font-size="10.00">Foundation/Foundation.h</text>
</g>
<!-- Node9&#45;&gt;Node10 -->
<g id="edge10" class="edge"><title>Node9&#45;&gt;Node10</title>
<path fill="none" stroke="midnightblue" d="M301.734,-60.4353C308.292,-51.7899 318.883,-37.8292 327.201,-26.8643"/>
<polygon fill="midnightblue" stroke="midnightblue" points="330.009,-28.9541 333.265,-18.8718 324.432,-24.7233 330.009,-28.9541"/>
</g>
</g>
</svg>
