<?xml version="1.0" encoding="UTF-8" standalone="no"?>
<!DOCTYPE svg PUBLIC "-//W3C//DTD SVG 1.1//EN"
 "http://www.w3.org/Graphics/SVG/1.1/DTD/svg11.dtd">
<!-- Generated by graphviz version 2.38.0 (20140413.2041)
 -->
<!-- Title: KVDatabase.cpp Pages: 1 -->
<svg width="382pt" height="137pt"
 viewBox="0.00 0.00 382.48 137.00" xmlns="http://www.w3.org/2000/svg" xmlns:xlink="http://www.w3.org/1999/xlink">
<g id="graph0" class="graph" transform="scale(1 1) rotate(0) translate(4 133)">
<title>KVDatabase.cpp</title>
<polygon fill="white" stroke="none" points="-4,4 -4,-133 378.478,-133 378.478,4 -4,4"/>
<!-- Node1 -->
<g id="node1" class="node"><title>Node1</title>
<polygon fill="#bfbfbf" stroke="black" points="177.879,-110.5 177.879,-128.5 268.928,-128.5 268.928,-110.5 177.879,-110.5"/>
<text text-anchor="middle" x="223.404" y="-116.5" font-family="Helvetica,sans-Serif" font-size="10.00">KVDatabase.cpp</text>
</g>
<!-- Node2 -->
<g id="node2" class="node"><title>Node2</title>
<g id="a_node2"><a xlink:href="_k_v_database_8hpp.html" target="_top" xlink:title="KVDatabase.hpp">
<polygon fill="white" stroke="black" points="48.5986,-55.5 48.5986,-73.5 140.209,-73.5 140.209,-55.5 48.5986,-55.5"/>
<text text-anchor="middle" x="94.4038" y="-61.5" font-family="Helvetica,sans-Serif" font-size="10.00">KVDatabase.hpp</text>
</a>
</g>
</g>
<!-- Node1&#45;&gt;Node2 -->
<g id="edge1" class="edge"><title>Node1&#45;&gt;Node2</title>
<path fill="none" stroke="midnightblue" d="M203.811,-110.45C182.501,-101.695 148.208,-87.6055 123.696,-77.5346"/>
<polygon fill="midnightblue" stroke="midnightblue" points="124.76,-74.1882 114.181,-73.6253 122.1,-80.6631 124.76,-74.1882"/>
</g>
<!-- Node4 -->
<g id="node4" class="node"><title>Node4</title>
<polygon fill="white" stroke="#bfbfbf" points="141.177,-0.5 141.177,-18.5 181.63,-18.5 181.63,-0.5 141.177,-0.5"/>
<text text-anchor="middle" x="161.404" y="-6.5" font-family="Helvetica,sans-Serif" font-size="10.00">string</text>
</g>
<!-- Node1&#45;&gt;Node4 -->
<g id="edge7" class="edge"><title>Node1&#45;&gt;Node4</title>
<path fill="none" stroke="midnightblue" d="M215.43,-110.192C207.54,-101.645 195.502,-87.6827 187.404,-74 178.777,-59.4235 171.712,-41.4499 167.136,-28.3497"/>
<polygon fill="midnightblue" stroke="midnightblue" points="170.39,-27.0453 163.897,-18.6732 163.752,-29.267 170.39,-27.0453"/>
</g>
<!-- Node6 -->
<g id="node6" class="node"><title>Node6</title>
<polygon fill="white" stroke="#bfbfbf" points="196.231,-55.5 196.231,-73.5 250.576,-73.5 250.576,-55.5 196.231,-55.5"/>
<text text-anchor="middle" x="223.404" y="-61.5" font-family="Helvetica,sans-Serif" font-size="10.00">iostream</text>
</g>
<!-- Node1&#45;&gt;Node6 -->
<g id="edge5" class="edge"><title>Node1&#45;&gt;Node6</title>
<path fill="none" stroke="midnightblue" d="M223.404,-110.219C223.404,-103.177 223.404,-92.8083 223.404,-83.8277"/>
<polygon fill="midnightblue" stroke="midnightblue" points="226.904,-83.5495 223.404,-73.5496 219.904,-83.5496 226.904,-83.5495"/>
</g>
<!-- Node7 -->
<g id="node7" class="node"><title>Node7</title>
<polygon fill="white" stroke="#bfbfbf" points="268.677,-55.5 268.677,-73.5 304.13,-73.5 304.13,-55.5 268.677,-55.5"/>
<text text-anchor="middle" x="286.404" y="-61.5" font-family="Helvetica,sans-Serif" font-size="10.00">map</text>
</g>
<!-- Node1&#45;&gt;Node7 -->
<g id="edge6" class="edge"><title>Node1&#45;&gt;Node7</title>
<path fill="none" stroke="midnightblue" d="M232.972,-110.45C242.501,-102.434 257.344,-89.9471 268.97,-80.1663"/>
<polygon fill="midnightblue" stroke="midnightblue" points="271.346,-82.7413 276.745,-73.6253 266.84,-77.3847 271.346,-82.7413"/>
</g>
<!-- Node8 -->
<g id="node8" class="node"><title>Node8</title>
<g id="a_node8"><a xlink:href="_log_8hpp.html" target="_top" xlink:title="Log.hpp">
<polygon fill="white" stroke="black" points="322.33,-55.5 322.33,-73.5 374.478,-73.5 374.478,-55.5 322.33,-55.5"/>
<text text-anchor="middle" x="348.404" y="-61.5" font-family="Helvetica,sans-Serif" font-size="10.00">Log.hpp</text>
</a>
</g>
</g>
<!-- Node1&#45;&gt;Node8 -->
<g id="edge8" class="edge"><title>Node1&#45;&gt;Node8</title>
<path fill="none" stroke="midnightblue" d="M242.389,-110.45C263.038,-101.695 296.268,-87.6055 320.02,-77.5346"/>
<polygon fill="midnightblue" stroke="midnightblue" points="321.4,-80.7513 329.24,-73.6253 318.667,-74.3067 321.4,-80.7513"/>
</g>
<!-- Node3 -->
<g id="node3" class="node"><title>Node3</title>
<polygon fill="white" stroke="#bfbfbf" points="0,-0.5 0,-18.5 58.8076,-18.5 58.8076,-0.5 0,-0.5"/>
<text text-anchor="middle" x="29.4038" y="-6.5" font-family="Helvetica,sans-Serif" font-size="10.00">functional</text>
</g>
<!-- Node2&#45;&gt;Node3 -->
<g id="edge2" class="edge"><title>Node2&#45;&gt;Node3</title>
<path fill="none" stroke="midnightblue" d="M84.5317,-55.4504C74.7008,-47.4345 59.386,-34.9471 47.3907,-25.1663"/>
<polygon fill="midnightblue" stroke="midnightblue" points="49.3308,-22.2322 39.3688,-18.6253 44.9072,-27.6573 49.3308,-22.2322"/>
</g>
<!-- Node2&#45;&gt;Node4 -->
<g id="edge3" class="edge"><title>Node2&#45;&gt;Node4</title>
<path fill="none" stroke="midnightblue" d="M104.58,-55.4504C114.811,-47.3566 130.806,-34.7042 143.223,-24.8822"/>
<polygon fill="midnightblue" stroke="midnightblue" points="145.461,-27.5744 151.132,-18.6253 141.118,-22.0844 145.461,-27.5744"/>
</g>
<!-- Node5 -->
<g id="node5" class="node"><title>Node5</title>
<polygon fill="white" stroke="#bfbfbf" points="76.7881,-0.5 76.7881,-18.5 120.02,-18.5 120.02,-0.5 76.7881,-0.5"/>
<text text-anchor="middle" x="98.4038" y="-6.5" font-family="Helvetica,sans-Serif" font-size="10.00">vector</text>
</g>
<!-- Node2&#45;&gt;Node5 -->
<g id="edge4" class="edge"><title>Node2&#45;&gt;Node5</title>
<path fill="none" stroke="midnightblue" d="M95.0288,-55.2188C95.5662,-48.0986 96.3602,-37.5775 97.0431,-28.5289"/>
<polygon fill="midnightblue" stroke="midnightblue" points="100.534,-28.7846 97.7963,-18.5496 93.5536,-28.2578 100.534,-28.7846"/>
</g>
</g>
</svg>
