<?xml version="1.0" encoding="UTF-8" standalone="no"?>
<!DOCTYPE svg PUBLIC "-//W3C//DTD SVG 1.1//EN"
 "http://www.w3.org/Graphics/SVG/1.1/DTD/svg11.dtd">
<!-- Generated by graphviz version 2.38.0 (20140413.2041)
 -->
<!-- Title: Apple/Common/Log.mm Pages: 1 -->
<svg width="226pt" height="137pt"
 viewBox="0.00 0.00 225.65 137.00" xmlns="http://www.w3.org/2000/svg" xmlns:xlink="http://www.w3.org/1999/xlink">
<g id="graph0" class="graph" transform="scale(1 1) rotate(0) translate(4 133)">
<title>Apple/Common/Log.mm</title>
<polygon fill="white" stroke="none" points="-4,4 -4,-133 221.645,-133 221.645,4 -4,4"/>
<!-- Node1 -->
<g id="node1" class="node"><title>Node1</title>
<polygon fill="#bfbfbf" stroke="black" points="34.2783,-110.5 34.2783,-128.5 158.101,-128.5 158.101,-110.5 34.2783,-110.5"/>
<text text-anchor="middle" x="96.1895" y="-116.5" font-family="Helvetica,sans-Serif" font-size="10.00">Apple/Common/Log.mm</text>
</g>
<!-- Node2 -->
<g id="node2" class="node"><title>Node2</title>
<g id="a_node2"><a xlink:href="___log_8hpp.html" target="_top" xlink:title="../../_Log.hpp">
<polygon fill="white" stroke="black" points="0,-55.5 0,-73.5 74.3789,-73.5 74.3789,-55.5 0,-55.5"/>
<text text-anchor="middle" x="37.1895" y="-61.5" font-family="Helvetica,sans-Serif" font-size="10.00">../../_Log.hpp</text>
</a>
</g>
</g>
<!-- Node1&#45;&gt;Node2 -->
<g id="edge1" class="edge"><title>Node1&#45;&gt;Node2</title>
<path fill="none" stroke="midnightblue" d="M87.2286,-110.45C78.3918,-102.512 64.6736,-90.1891 53.834,-80.4519"/>
<polygon fill="midnightblue" stroke="midnightblue" points="56.0128,-77.7043 46.2346,-73.6253 51.3349,-82.9118 56.0128,-77.7043"/>
</g>
<!-- Node4 -->
<g id="node4" class="node"><title>Node4</title>
<polygon fill="white" stroke="#bfbfbf" points="92.7339,-55.5 92.7339,-73.5 217.645,-73.5 217.645,-55.5 92.7339,-55.5"/>
<text text-anchor="middle" x="155.189" y="-61.5" font-family="Helvetica,sans-Serif" font-size="10.00">Crashlytics/Crashlytics.h</text>
</g>
<!-- Node1&#45;&gt;Node4 -->
<g id="edge3" class="edge"><title>Node1&#45;&gt;Node4</title>
<path fill="none" stroke="midnightblue" d="M105.15,-110.45C113.987,-102.512 127.705,-90.1891 138.545,-80.4519"/>
<polygon fill="midnightblue" stroke="midnightblue" points="141.044,-82.9118 146.144,-73.6253 136.366,-77.7043 141.044,-82.9118"/>
</g>
<!-- Node3 -->
<g id="node3" class="node"><title>Node3</title>
<polygon fill="white" stroke="#bfbfbf" points="12.793,-0.5 12.793,-18.5 61.5859,-18.5 61.5859,-0.5 12.793,-0.5"/>
<text text-anchor="middle" x="37.1895" y="-6.5" font-family="Helvetica,sans-Serif" font-size="10.00">cstdarg</text>
</g>
<!-- Node2&#45;&gt;Node3 -->
<g id="edge2" class="edge"><title>Node2&#45;&gt;Node3</title>
<path fill="none" stroke="midnightblue" d="M37.1895,-55.2188C37.1895,-48.1769 37.1895,-37.8083 37.1895,-28.8277"/>
<polygon fill="midnightblue" stroke="midnightblue" points="40.6896,-28.5495 37.1895,-18.5496 33.6896,-28.5496 40.6896,-28.5495"/>
</g>
</g>
</svg>
