<?xml version="1.0" encoding="UTF-8" standalone="no"?>
<!DOCTYPE svg PUBLIC "-//W3C//DTD SVG 1.1//EN"
 "http://www.w3.org/Graphics/SVG/1.1/DTD/svg11.dtd">
<!-- Generated by graphviz version 2.38.0 (20140413.2041)
 -->
<!-- Title: Log.hpp Pages: 1 -->
<svg width="1666pt" height="82pt"
 viewBox="0.00 0.00 1665.87 82.00" xmlns="http://www.w3.org/2000/svg" xmlns:xlink="http://www.w3.org/1999/xlink">
<g id="graph0" class="graph" transform="scale(1 1) rotate(0) translate(4 78)">
<title>Log.hpp</title>
<polygon fill="white" stroke="none" points="-4,4 -4,-78 1661.87,-78 1661.87,4 -4,4"/>
<!-- Node1 -->
<g id="node1" class="node"><title>Node1</title>
<polygon fill="#bfbfbf" stroke="black" points="883.231,-55.5 883.231,-73.5 935.379,-73.5 935.379,-55.5 883.231,-55.5"/>
<text text-anchor="middle" x="909.305" y="-61.5" font-family="Helvetica,sans-Serif" font-size="10.00">Log.hpp</text>
</g>
<!-- Node2 -->
<g id="node2" class="node"><title>Node2</title>
<g id="a_node2"><a xlink:href="___game_kit_8cpp.html" target="_top" xlink:title="Android/_GameKit.cpp">
<polygon fill="white" stroke="black" points="0,-0.5 0,-18.5 116.61,-18.5 116.61,-0.5 0,-0.5"/>
<text text-anchor="middle" x="58.3052" y="-6.5" font-family="Helvetica,sans-Serif" font-size="10.00">Android/_GameKit.cpp</text>
</a>
</g>
</g>
<!-- Node1&#45;&gt;Node2 -->
<g id="edge1" class="edge"><title>Node1&#45;&gt;Node2</title>
<path fill="none" stroke="midnightblue" d="M873.157,-62.3426C761.618,-58.5795 413.001,-45.382 125.305,-19 122.503,-18.743 119.637,-18.4595 116.745,-18.1567"/>
<polygon fill="midnightblue" stroke="midnightblue" points="873.09,-65.8422 883.201,-62.6774 873.323,-58.8461 873.09,-65.8422"/>
</g>
<!-- Node3 -->
<g id="node3" class="node"><title>Node3</title>
<g id="a_node3"><a xlink:href="_common_2_game_kit_8mm.html" target="_top" xlink:title="Apple/Common/GameKit.mm">
<polygon fill="white" stroke="black" points="134.286,-0.5 134.286,-18.5 280.325,-18.5 280.325,-0.5 134.286,-0.5"/>
<text text-anchor="middle" x="207.305" y="-6.5" font-family="Helvetica,sans-Serif" font-size="10.00">Apple/Common/GameKit.mm</text>
</a>
</g>
</g>
<!-- Node1&#45;&gt;Node3 -->
<g id="edge2" class="edge"><title>Node1&#45;&gt;Node3</title>
<path fill="none" stroke="midnightblue" d="M872.971,-61.2953C777.344,-55.4052 510.79,-38.423 289.305,-19 286.454,-18.7499 283.547,-18.4871 280.612,-18.2149"/>
<polygon fill="midnightblue" stroke="midnightblue" points="872.798,-64.7911 882.994,-61.9104 873.227,-57.8043 872.798,-64.7911"/>
</g>
<!-- Node4 -->
<g id="node4" class="node"><title>Node4</title>
<g id="a_node4"><a xlink:href="_i_a_p_kit_8mm.html" target="_top" xlink:title="Apple/Common/IAPKit.mm">
<polygon fill="white" stroke="black" points="297.842,-0.5 297.842,-18.5 432.768,-18.5 432.768,-0.5 297.842,-0.5"/>
<text text-anchor="middle" x="365.305" y="-6.5" font-family="Helvetica,sans-Serif" font-size="10.00">Apple/Common/IAPKit.mm</text>
</a>
</g>
</g>
<!-- Node1&#45;&gt;Node4 -->
<g id="edge3" class="edge"><title>Node1&#45;&gt;Node4</title>
<path fill="none" stroke="midnightblue" d="M872.804,-60.2368C793.985,-53.1449 601.999,-35.6248 441.305,-19 438.532,-18.7131 435.702,-18.416 432.844,-18.1125"/>
<polygon fill="midnightblue" stroke="midnightblue" points="872.886,-63.7582 883.159,-61.1671 873.512,-56.7863 872.886,-63.7582"/>
</g>
<!-- Node5 -->
<g id="node5" class="node"><title>Node5</title>
<g id="a_node5"><a xlink:href="i_o_s_2_ad_kit_8mm.html" target="_top" xlink:title="Apple/iOS/AdKit.mm">
<polygon fill="white" stroke="black" points="450.734,-0.5 450.734,-18.5 557.876,-18.5 557.876,-0.5 450.734,-0.5"/>
<text text-anchor="middle" x="504.305" y="-6.5" font-family="Helvetica,sans-Serif" font-size="10.00">Apple/iOS/AdKit.mm</text>
</a>
</g>
</g>
<!-- Node1&#45;&gt;Node5 -->
<g id="edge4" class="edge"><title>Node1&#45;&gt;Node5</title>
<path fill="none" stroke="midnightblue" d="M872.999,-58.8332C810.531,-50.7906 678.685,-33.7598 567.305,-19 564.242,-18.594 561.095,-18.1752 557.919,-17.7511"/>
<polygon fill="midnightblue" stroke="midnightblue" points="872.762,-62.3314 883.127,-60.1366 873.656,-55.3887 872.762,-62.3314"/>
</g>
<!-- Node6 -->
<g id="node6" class="node"><title>Node6</title>
<g id="a_node6"><a xlink:href="i_o_s_2_game_kit_8mm.html" target="_top" xlink:title="Apple/iOS/GameKit.mm">
<polygon fill="white" stroke="black" points="576.234,-0.5 576.234,-18.5 698.376,-18.5 698.376,-0.5 576.234,-0.5"/>
<text text-anchor="middle" x="637.305" y="-6.5" font-family="Helvetica,sans-Serif" font-size="10.00">Apple/iOS/GameKit.mm</text>
</a>
</g>
</g>
<!-- Node1&#45;&gt;Node6 -->
<g id="edge5" class="edge"><title>Node1&#45;&gt;Node6</title>
<path fill="none" stroke="midnightblue" d="M873.121,-56.4493C822.746,-46.6337 731.716,-28.8962 678.699,-18.5658"/>
<polygon fill="midnightblue" stroke="midnightblue" points="872.74,-59.9409 883.225,-58.4181 874.079,-53.0701 872.74,-59.9409"/>
</g>
<!-- Node7 -->
<g id="node7" class="node"><title>Node7</title>
<g id="a_node7"><a xlink:href="_o_s_01_x_2_ad_kit_8mm.html" target="_top" xlink:title="Apple/OS X/AdKit.mm">
<polygon fill="white" stroke="black" points="716.121,-0.5 716.121,-18.5 830.49,-18.5 830.49,-0.5 716.121,-0.5"/>
<text text-anchor="middle" x="773.305" y="-6.5" font-family="Helvetica,sans-Serif" font-size="10.00">Apple/OS X/AdKit.mm</text>
</a>
</g>
</g>
<!-- Node1&#45;&gt;Node7 -->
<g id="edge6" class="edge"><title>Node1&#45;&gt;Node7</title>
<path fill="none" stroke="midnightblue" d="M879.332,-51.8192C853.508,-41.7556 816.901,-27.4894 794.155,-18.6253"/>
<polygon fill="midnightblue" stroke="midnightblue" points="878.061,-55.0804 888.65,-55.4504 880.603,-48.5582 878.061,-55.0804"/>
</g>
<!-- Node8 -->
<g id="node8" class="node"><title>Node8</title>
<g id="a_node8"><a xlink:href="_o_s_01_x_2_device_8mm.html" target="_top" xlink:title="Apple/OS X/Device.mm">
<polygon fill="white" stroke="black" points="848.788,-0.5 848.788,-18.5 969.822,-18.5 969.822,-0.5 848.788,-0.5"/>
<text text-anchor="middle" x="909.305" y="-6.5" font-family="Helvetica,sans-Serif" font-size="10.00">Apple/OS X/Device.mm</text>
</a>
</g>
</g>
<!-- Node1&#45;&gt;Node8 -->
<g id="edge7" class="edge"><title>Node1&#45;&gt;Node8</title>
<path fill="none" stroke="midnightblue" d="M909.305,-45.1746C909.305,-36.0945 909.305,-25.5949 909.305,-18.5496"/>
<polygon fill="midnightblue" stroke="midnightblue" points="905.805,-45.2187 909.305,-55.2188 912.805,-45.2188 905.805,-45.2187"/>
</g>
<!-- Node9 -->
<g id="node9" class="node"><title>Node9</title>
<g id="a_node9"><a xlink:href="_o_s_01_x_2_facebook_8mm.html" target="_top" xlink:title="Apple/OS X/Facebook.mm">
<polygon fill="white" stroke="black" points="988.113,-0.5 988.113,-18.5 1122.5,-18.5 1122.5,-0.5 988.113,-0.5"/>
<text text-anchor="middle" x="1055.31" y="-6.5" font-family="Helvetica,sans-Serif" font-size="10.00">Apple/OS X/Facebook.mm</text>
</a>
</g>
</g>
<!-- Node1&#45;&gt;Node9 -->
<g id="edge8" class="edge"><title>Node1&#45;&gt;Node9</title>
<path fill="none" stroke="midnightblue" d="M941.117,-51.952C968.858,-41.8814 1008.4,-27.5284 1032.92,-18.6253"/>
<polygon fill="midnightblue" stroke="midnightblue" points="939.685,-48.7482 931.479,-55.4504 942.074,-55.3281 939.685,-48.7482"/>
</g>
<!-- Node10 -->
<g id="node10" class="node"><title>Node10</title>
<g id="a_node10"><a xlink:href="_o_s_01_x_2_game_kit_8mm.html" target="_top" xlink:title="Apple/OS X/GameKit.mm">
<polygon fill="white" stroke="black" points="1140.62,-0.5 1140.62,-18.5 1269.99,-18.5 1269.99,-0.5 1140.62,-0.5"/>
<text text-anchor="middle" x="1205.31" y="-6.5" font-family="Helvetica,sans-Serif" font-size="10.00">Apple/OS X/GameKit.mm</text>
</a>
</g>
</g>
<!-- Node1&#45;&gt;Node10 -->
<g id="edge9" class="edge"><title>Node1&#45;&gt;Node10</title>
<path fill="none" stroke="midnightblue" d="M945.421,-57.0334C999.571,-47.3375 1101.71,-29.0494 1160.52,-18.5181"/>
<polygon fill="midnightblue" stroke="midnightblue" points="944.8,-53.5888 935.573,-58.7966 946.034,-60.4792 944.8,-53.5888"/>
</g>
<!-- Node11 -->
<g id="node11" class="node"><title>Node11</title>
<g id="a_node11"><a xlink:href="_m_k_utils_8cpp.html" target="_top" xlink:title="Examples/MKUtils.cpp">
<polygon fill="white" stroke="black" points="1288.29,-0.5 1288.29,-18.5 1404.32,-18.5 1404.32,-0.5 1288.29,-0.5"/>
<text text-anchor="middle" x="1346.31" y="-6.5" font-family="Helvetica,sans-Serif" font-size="10.00">Examples/MKUtils.cpp</text>
</a>
</g>
</g>
<!-- Node1&#45;&gt;Node11 -->
<g id="edge10" class="edge"><title>Node1&#45;&gt;Node11</title>
<path fill="none" stroke="midnightblue" d="M945.742,-59.1972C1012.1,-51.3433 1157.1,-34.1004 1279.31,-19 1282.21,-18.6405 1285.19,-18.2702 1288.2,-17.8946"/>
<polygon fill="midnightblue" stroke="midnightblue" points="945.302,-55.7248 935.783,-60.3754 946.125,-62.6763 945.302,-55.7248"/>
</g>
<!-- Node12 -->
<g id="node12" class="node"><title>Node12</title>
<g id="a_node12"><a xlink:href="_k_v_database_8cpp.html" target="_top" xlink:title="KVDatabase.cpp">
<polygon fill="white" stroke="black" points="1422.78,-0.5 1422.78,-18.5 1513.83,-18.5 1513.83,-0.5 1422.78,-0.5"/>
<text text-anchor="middle" x="1468.31" y="-6.5" font-family="Helvetica,sans-Serif" font-size="10.00">KVDatabase.cpp</text>
</a>
</g>
</g>
<!-- Node1&#45;&gt;Node12 -->
<g id="edge11" class="edge"><title>Node1&#45;&gt;Node12</title>
<path fill="none" stroke="midnightblue" d="M945.79,-61.099C1028.92,-55.4492 1238.71,-40.1767 1413.31,-19 1416.37,-18.6277 1419.54,-18.2157 1422.72,-17.7797"/>
<polygon fill="midnightblue" stroke="midnightblue" points="945.344,-57.621 935.603,-61.7862 945.816,-64.6052 945.344,-57.621"/>
</g>
<!-- Node13 -->
<g id="node13" class="node"><title>Node13</title>
<g id="a_node13"><a xlink:href="_log_8cpp.html" target="_top" xlink:title="Log.cpp">
<polygon fill="white" stroke="black" points="1531.51,-0.5 1531.51,-18.5 1583.1,-18.5 1583.1,-0.5 1531.51,-0.5"/>
<text text-anchor="middle" x="1557.31" y="-6.5" font-family="Helvetica,sans-Serif" font-size="10.00">Log.cpp</text>
</a>
</g>
</g>
<!-- Node1&#45;&gt;Node13 -->
<g id="edge12" class="edge"><title>Node1&#45;&gt;Node13</title>
<path fill="none" stroke="midnightblue" d="M945.796,-63.047C1041.27,-61.3895 1306.1,-53.7553 1523.31,-19 1525.95,-18.577 1528.69,-18.0483 1531.41,-17.4628"/>
<polygon fill="midnightblue" stroke="midnightblue" points="945.466,-59.5518 935.524,-63.2133 945.58,-66.5509 945.466,-59.5518"/>
</g>
<!-- Node14 -->
<g id="node14" class="node"><title>Node14</title>
<g id="a_node14"><a xlink:href="_maw_kit_8h.html" target="_top" xlink:title="MawKit.h">
<polygon fill="white" stroke="black" points="1600.74,-0.5 1600.74,-18.5 1657.87,-18.5 1657.87,-0.5 1600.74,-0.5"/>
<text text-anchor="middle" x="1629.31" y="-6.5" font-family="Helvetica,sans-Serif" font-size="10.00">MawKit.h</text>
</a>
</g>
</g>
<!-- Node1&#45;&gt;Node14 -->
<g id="edge13" class="edge"><title>Node1&#45;&gt;Node14</title>
<path fill="none" stroke="midnightblue" d="M945.63,-63.1832C1047.94,-61.8506 1347.03,-54.9261 1592.31,-19 1595.04,-18.5988 1597.88,-18.1005 1600.71,-17.5477"/>
<polygon fill="midnightblue" stroke="midnightblue" points="945.475,-59.6847 935.518,-63.3047 945.56,-66.6842 945.475,-59.6847"/>
</g>
</g>
</svg>
