<?xml version="1.0" encoding="UTF-8" standalone="no"?>
<!DOCTYPE svg PUBLIC "-//W3C//DTD SVG 1.1//EN"
 "http://www.w3.org/Graphics/SVG/1.1/DTD/svg11.dtd">
<!-- Generated by graphviz version 2.38.0 (20140413.2041)
 -->
<!-- Title: Log.cpp Pages: 1 -->
<svg width="380pt" height="137pt"
 viewBox="0.00 0.00 380.14 137.00" xmlns="http://www.w3.org/2000/svg" xmlns:xlink="http://www.w3.org/1999/xlink">
<g id="graph0" class="graph" transform="scale(1 1) rotate(0) translate(4 133)">
<title>Log.cpp</title>
<polygon fill="white" stroke="none" points="-4,4 -4,-133 376.135,-133 376.135,4 -4,4"/>
<!-- Node1 -->
<g id="node1" class="node"><title>Node1</title>
<polygon fill="#bfbfbf" stroke="black" points="159.281,-110.5 159.281,-128.5 210.867,-128.5 210.867,-110.5 159.281,-110.5"/>
<text text-anchor="middle" x="185.074" y="-116.5" font-family="Helvetica,sans-Serif" font-size="10.00">Log.cpp</text>
</g>
<!-- Node2 -->
<g id="node2" class="node"><title>Node2</title>
<g id="a_node2"><a xlink:href="_log_8hpp.html" target="_top" xlink:title="Log.hpp">
<polygon fill="white" stroke="black" points="0,-55.5 0,-73.5 52.1475,-73.5 52.1475,-55.5 0,-55.5"/>
<text text-anchor="middle" x="26.0737" y="-61.5" font-family="Helvetica,sans-Serif" font-size="10.00">Log.hpp</text>
</a>
</g>
</g>
<!-- Node1&#45;&gt;Node2 -->
<g id="edge1" class="edge"><title>Node1&#45;&gt;Node2</title>
<path fill="none" stroke="midnightblue" d="M160.925,-110.45C133.997,-101.475 90.2503,-86.8922 59.9175,-76.7813"/>
<polygon fill="midnightblue" stroke="midnightblue" points="60.7823,-73.3803 50.1887,-73.5383 58.5687,-80.021 60.7823,-73.3803"/>
</g>
<!-- Node3 -->
<g id="node3" class="node"><title>Node3</title>
<g id="a_node3"><a xlink:href="___log_8hpp.html" target="_top" xlink:title="_Log.hpp">
<polygon fill="white" stroke="black" points="70.2192,-55.5 70.2192,-73.5 127.928,-73.5 127.928,-55.5 70.2192,-55.5"/>
<text text-anchor="middle" x="99.0737" y="-61.5" font-family="Helvetica,sans-Serif" font-size="10.00">_Log.hpp</text>
</a>
</g>
</g>
<!-- Node1&#45;&gt;Node3 -->
<g id="edge2" class="edge"><title>Node1&#45;&gt;Node3</title>
<path fill="none" stroke="midnightblue" d="M172.012,-110.45C158.5,-102.123 137.158,-88.9704 121.043,-79.0394"/>
<polygon fill="midnightblue" stroke="midnightblue" points="122.608,-75.8922 112.258,-73.6253 118.935,-81.8515 122.608,-75.8922"/>
</g>
<!-- Node4 -->
<g id="node4" class="node"><title>Node4</title>
<polygon fill="white" stroke="#bfbfbf" points="102.677,-0.5 102.677,-18.5 151.47,-18.5 151.47,-0.5 102.677,-0.5"/>
<text text-anchor="middle" x="127.074" y="-6.5" font-family="Helvetica,sans-Serif" font-size="10.00">cstdarg</text>
</g>
<!-- Node1&#45;&gt;Node4 -->
<g id="edge6" class="edge"><title>Node1&#45;&gt;Node4</title>
<path fill="none" stroke="midnightblue" d="M180.714,-110.382C171.309,-92.8695 148.941,-51.2181 136.259,-27.6045"/>
<polygon fill="midnightblue" stroke="midnightblue" points="139.299,-25.8657 131.484,-18.7118 133.132,-29.1777 139.299,-25.8657"/>
</g>
<!-- Node5 -->
<g id="node5" class="node"><title>Node5</title>
<polygon fill="white" stroke="#bfbfbf" points="184.281,-55.5 184.281,-73.5 245.867,-73.5 245.867,-55.5 184.281,-55.5"/>
<text text-anchor="middle" x="215.074" y="-61.5" font-family="Helvetica,sans-Serif" font-size="10.00">cocos2d.h</text>
</g>
<!-- Node1&#45;&gt;Node5 -->
<g id="edge4" class="edge"><title>Node1&#45;&gt;Node5</title>
<path fill="none" stroke="midnightblue" d="M189.761,-110.219C193.969,-102.786 200.274,-91.646 205.539,-82.3446"/>
<polygon fill="midnightblue" stroke="midnightblue" points="208.637,-83.9763 210.517,-73.5496 202.545,-80.528 208.637,-83.9763"/>
</g>
<!-- Node6 -->
<g id="node6" class="node"><title>Node6</title>
<polygon fill="white" stroke="#bfbfbf" points="263.958,-55.5 263.958,-73.5 312.189,-73.5 312.189,-55.5 263.958,-55.5"/>
<text text-anchor="middle" x="288.074" y="-61.5" font-family="Helvetica,sans-Serif" font-size="10.00">cassert</text>
</g>
<!-- Node1&#45;&gt;Node6 -->
<g id="edge5" class="edge"><title>Node1&#45;&gt;Node6</title>
<path fill="none" stroke="midnightblue" d="M200.717,-110.45C217.354,-101.89 243.902,-88.2291 263.37,-78.2119"/>
<polygon fill="midnightblue" stroke="midnightblue" points="264.993,-81.313 272.283,-73.6253 261.79,-75.0886 264.993,-81.313"/>
</g>
<!-- Node7 -->
<g id="node7" class="node"><title>Node7</title>
<polygon fill="white" stroke="#bfbfbf" points="330.012,-55.5 330.012,-73.5 372.135,-73.5 372.135,-55.5 330.012,-55.5"/>
<text text-anchor="middle" x="351.074" y="-61.5" font-family="Helvetica,sans-Serif" font-size="10.00">cstdio</text>
</g>
<!-- Node1&#45;&gt;Node7 -->
<g id="edge7" class="edge"><title>Node1&#45;&gt;Node7</title>
<path fill="none" stroke="midnightblue" d="M210.286,-110.45C239.749,-101.044 288.498,-85.4789 320.201,-75.3569"/>
<polygon fill="midnightblue" stroke="midnightblue" points="321.388,-78.6522 329.849,-72.2764 319.259,-71.9838 321.388,-78.6522"/>
</g>
<!-- Node3&#45;&gt;Node4 -->
<g id="edge3" class="edge"><title>Node3&#45;&gt;Node4</title>
<path fill="none" stroke="midnightblue" d="M103.449,-55.2188C107.334,-47.8639 113.137,-36.8801 118.019,-27.639"/>
<polygon fill="midnightblue" stroke="midnightblue" points="121.245,-29.0264 122.821,-18.5496 115.055,-25.7566 121.245,-29.0264"/>
</g>
</g>
</svg>
