<?xml version="1.0" encoding="UTF-8" standalone="no"?>
<!DOCTYPE svg PUBLIC "-//W3C//DTD SVG 1.1//EN"
 "http://www.w3.org/Graphics/SVG/1.1/DTD/svg11.dtd">
<!-- Generated by graphviz version 2.38.0 (20140413.2041)
 -->
<!-- Title: Examples/MKUtils.cpp Pages: 1 -->
<svg width="608pt" height="137pt"
 viewBox="0.00 0.00 607.98 137.00" xmlns="http://www.w3.org/2000/svg" xmlns:xlink="http://www.w3.org/1999/xlink">
<g id="graph0" class="graph" transform="scale(1 1) rotate(0) translate(4 133)">
<title>Examples/MKUtils.cpp</title>
<polygon fill="white" stroke="none" points="-4,4 -4,-133 603.975,-133 603.975,4 -4,4"/>
<!-- Node1 -->
<g id="node1" class="node"><title>Node1</title>
<polygon fill="#bfbfbf" stroke="black" points="201.778,-110.5 201.778,-128.5 317.808,-128.5 317.808,-110.5 201.778,-110.5"/>
<text text-anchor="middle" x="259.793" y="-116.5" font-family="Helvetica,sans-Serif" font-size="10.00">Examples/MKUtils.cpp</text>
</g>
<!-- Node2 -->
<g id="node2" class="node"><title>Node2</title>
<g id="a_node2"><a xlink:href="_device_8hpp.html" target="_top" xlink:title="MawKit/Device.hpp">
<polygon fill="white" stroke="black" points="16.9976,-55.5 16.9976,-73.5 118.588,-73.5 118.588,-55.5 16.9976,-55.5"/>
<text text-anchor="middle" x="67.793" y="-61.5" font-family="Helvetica,sans-Serif" font-size="10.00">MawKit/Device.hpp</text>
</a>
</g>
</g>
<!-- Node1&#45;&gt;Node2 -->
<g id="edge1" class="edge"><title>Node1&#45;&gt;Node2</title>
<path fill="none" stroke="midnightblue" d="M230.632,-110.45C197.55,-101.318 143.446,-86.3833 106.765,-76.2578"/>
<polygon fill="midnightblue" stroke="midnightblue" points="107.484,-72.8255 96.9129,-73.5383 105.621,-79.5731 107.484,-72.8255"/>
</g>
<!-- Node4 -->
<g id="node4" class="node"><title>Node4</title>
<polygon fill="white" stroke="#bfbfbf" points="0,-0.5 0,-18.5 61.5859,-18.5 61.5859,-0.5 0,-0.5"/>
<text text-anchor="middle" x="30.793" y="-6.5" font-family="Helvetica,sans-Serif" font-size="10.00">cocos2d.h</text>
</g>
<!-- Node1&#45;&gt;Node4 -->
<g id="edge11" class="edge"><title>Node1&#45;&gt;Node4</title>
<path fill="none" stroke="midnightblue" d="M201.506,-116.587C134.923,-113.032 32.0271,-102.889 7.79297,-74 -3.58118,-60.4413 6.4525,-40.7967 16.6039,-26.956"/>
<polygon fill="midnightblue" stroke="midnightblue" points="19.587,-28.8278 23.068,-18.8211 14.1065,-24.4729 19.587,-28.8278"/>
</g>
<!-- Node5 -->
<g id="node5" class="node"><title>Node5</title>
<g id="a_node5"><a xlink:href="_features_8hpp.html" target="_top" xlink:title="MawKit/Features.hpp">
<polygon fill="white" stroke="black" points="136.549,-55.5 136.549,-73.5 247.037,-73.5 247.037,-55.5 136.549,-55.5"/>
<text text-anchor="middle" x="191.793" y="-61.5" font-family="Helvetica,sans-Serif" font-size="10.00">MawKit/Features.hpp</text>
</a>
</g>
</g>
<!-- Node1&#45;&gt;Node5 -->
<g id="edge4" class="edge"><title>Node1&#45;&gt;Node5</title>
<path fill="none" stroke="midnightblue" d="M249.465,-110.45C239.081,-102.357 222.847,-89.7042 210.246,-79.8822"/>
<polygon fill="midnightblue" stroke="midnightblue" points="212.257,-77.0122 202.218,-73.6253 207.954,-82.5333 212.257,-77.0122"/>
</g>
<!-- Node6 -->
<g id="node6" class="node"><title>Node6</title>
<g id="a_node6"><a xlink:href="_k_v_database_8hpp.html" target="_top" xlink:title="MawKit/KVDatabase.hpp">
<polygon fill="white" stroke="black" points="265.207,-55.5 265.207,-73.5 392.379,-73.5 392.379,-55.5 265.207,-55.5"/>
<text text-anchor="middle" x="328.793" y="-61.5" font-family="Helvetica,sans-Serif" font-size="10.00">MawKit/KVDatabase.hpp</text>
</a>
</g>
</g>
<!-- Node1&#45;&gt;Node6 -->
<g id="edge5" class="edge"><title>Node1&#45;&gt;Node6</title>
<path fill="none" stroke="midnightblue" d="M270.273,-110.45C280.81,-102.357 297.282,-89.7042 310.069,-79.8822"/>
<polygon fill="midnightblue" stroke="midnightblue" points="312.416,-82.4926 318.215,-73.6253 308.152,-76.9412 312.416,-82.4926"/>
</g>
<!-- Node9 -->
<g id="node9" class="node"><title>Node9</title>
<g id="a_node9"><a xlink:href="_log_8hpp.html" target="_top" xlink:title="MawKit/Log.hpp">
<polygon fill="white" stroke="black" points="409.938,-55.5 409.938,-73.5 497.647,-73.5 497.647,-55.5 409.938,-55.5"/>
<text text-anchor="middle" x="453.793" y="-61.5" font-family="Helvetica,sans-Serif" font-size="10.00">MawKit/Log.hpp</text>
</a>
</g>
</g>
<!-- Node1&#45;&gt;Node9 -->
<g id="edge9" class="edge"><title>Node1&#45;&gt;Node9</title>
<path fill="none" stroke="midnightblue" d="M289.257,-110.45C322.684,-101.318 377.352,-86.3833 414.415,-76.2578"/>
<polygon fill="midnightblue" stroke="midnightblue" points="415.646,-79.55 424.37,-73.5383 413.801,-72.7975 415.646,-79.55"/>
</g>
<!-- Node10 -->
<g id="node10" class="node"><title>Node10</title>
<g id="a_node10"><a xlink:href="_m_k_constants_8h.html" target="_top" xlink:title="MKConstants.h">
<polygon fill="white" stroke="black" points="515.611,-55.5 515.611,-73.5 599.975,-73.5 599.975,-55.5 515.611,-55.5"/>
<text text-anchor="middle" x="557.793" y="-61.5" font-family="Helvetica,sans-Serif" font-size="10.00">MKConstants.h</text>
</a>
</g>
</g>
<!-- Node1&#45;&gt;Node10 -->
<g id="edge10" class="edge"><title>Node1&#45;&gt;Node10</title>
<path fill="none" stroke="midnightblue" d="M305.053,-110.45C358.966,-100.862 448.853,-84.8753 505.635,-74.7764"/>
<polygon fill="midnightblue" stroke="midnightblue" points="506.257,-78.2208 515.49,-73.0237 505.031,-71.3289 506.257,-78.2208"/>
</g>
<!-- Node3 -->
<g id="node3" class="node"><title>Node3</title>
<polygon fill="white" stroke="#bfbfbf" points="84.5664,-0.5 84.5664,-18.5 125.02,-18.5 125.02,-0.5 84.5664,-0.5"/>
<text text-anchor="middle" x="104.793" y="-6.5" font-family="Helvetica,sans-Serif" font-size="10.00">string</text>
</g>
<!-- Node2&#45;&gt;Node3 -->
<g id="edge2" class="edge"><title>Node2&#45;&gt;Node3</title>
<path fill="none" stroke="midnightblue" d="M73.5742,-55.2188C78.8726,-47.6292 86.8687,-36.1753 93.4419,-26.7597"/>
<polygon fill="midnightblue" stroke="midnightblue" points="96.319,-28.7527 99.1735,-18.5496 90.5793,-24.7457 96.319,-28.7527"/>
</g>
<!-- Node2&#45;&gt;Node4 -->
<g id="edge3" class="edge"><title>Node2&#45;&gt;Node4</title>
<path fill="none" stroke="midnightblue" d="M62.0117,-55.2188C56.7133,-47.6292 48.7172,-36.1753 42.1441,-26.7597"/>
<polygon fill="midnightblue" stroke="midnightblue" points="45.0066,-24.7457 36.4125,-18.5496 39.2669,-28.7527 45.0066,-24.7457"/>
</g>
<!-- Node6&#45;&gt;Node3 -->
<g id="edge7" class="edge"><title>Node6&#45;&gt;Node3</title>
<path fill="none" stroke="midnightblue" d="M294.772,-55.4504C251.221,-45.1459 176.44,-27.4522 134.876,-17.6178"/>
<polygon fill="midnightblue" stroke="midnightblue" points="135.601,-14.1928 125.063,-15.2961 133.989,-21.0047 135.601,-14.1928"/>
</g>
<!-- Node7 -->
<g id="node7" class="node"><title>Node7</title>
<polygon fill="white" stroke="#bfbfbf" points="264.389,-0.5 264.389,-18.5 323.197,-18.5 323.197,-0.5 264.389,-0.5"/>
<text text-anchor="middle" x="293.793" y="-6.5" font-family="Helvetica,sans-Serif" font-size="10.00">functional</text>
</g>
<!-- Node6&#45;&gt;Node7 -->
<g id="edge6" class="edge"><title>Node6&#45;&gt;Node7</title>
<path fill="none" stroke="midnightblue" d="M323.324,-55.2188C318.364,-47.7074 310.904,-36.411 304.723,-27.0515"/>
<polygon fill="midnightblue" stroke="midnightblue" points="307.54,-24.9655 299.109,-18.5496 301.699,-28.823 307.54,-24.9655"/>
</g>
<!-- Node8 -->
<g id="node8" class="node"><title>Node8</title>
<polygon fill="white" stroke="#bfbfbf" points="341.177,-0.5 341.177,-18.5 384.409,-18.5 384.409,-0.5 341.177,-0.5"/>
<text text-anchor="middle" x="362.793" y="-6.5" font-family="Helvetica,sans-Serif" font-size="10.00">vector</text>
</g>
<!-- Node6&#45;&gt;Node8 -->
<g id="edge8" class="edge"><title>Node6&#45;&gt;Node8</title>
<path fill="none" stroke="midnightblue" d="M334.105,-55.2188C338.924,-47.7074 346.171,-36.411 352.175,-27.0515"/>
<polygon fill="midnightblue" stroke="midnightblue" points="355.175,-28.8564 357.629,-18.5496 349.284,-25.0767 355.175,-28.8564"/>
</g>
</g>
</svg>
