<?xml version="1.0" encoding="UTF-8" standalone="no"?>
<!DOCTYPE svg PUBLIC "-//W3C//DTD SVG 1.1//EN"
 "http://www.w3.org/Graphics/SVG/1.1/DTD/svg11.dtd">
<!-- Generated by graphviz version 2.38.0 (20140413.2041)
 -->
<!-- Title: Math.hpp Pages: 1 -->
<svg width="142pt" height="137pt"
 viewBox="0.00 0.00 141.96 137.00" xmlns="http://www.w3.org/2000/svg" xmlns:xlink="http://www.w3.org/1999/xlink">
<g id="graph0" class="graph" transform="scale(1 1) rotate(0) translate(4 133)">
<title>Math.hpp</title>
<polygon fill="white" stroke="none" points="-4,4 -4,-133 137.963,-133 137.963,4 -4,4"/>
<!-- Node1 -->
<g id="node1" class="node"><title>Node1</title>
<polygon fill="#bfbfbf" stroke="black" points="46.5542,-110.5 46.5542,-128.5 104.249,-128.5 104.249,-110.5 46.5542,-110.5"/>
<text text-anchor="middle" x="75.4014" y="-116.5" font-family="Helvetica,sans-Serif" font-size="10.00">Math.hpp</text>
</g>
<!-- Node2 -->
<g id="node2" class="node"><title>Node2</title>
<g id="a_node2"><a xlink:href="_range_8hpp.html" target="_top" xlink:title="Range.hpp">
<polygon fill="white" stroke="black" points="12.936,-55.5 12.936,-73.5 77.8667,-73.5 77.8667,-55.5 12.936,-55.5"/>
<text text-anchor="middle" x="45.4014" y="-61.5" font-family="Helvetica,sans-Serif" font-size="10.00">Range.hpp</text>
</a>
</g>
</g>
<!-- Node1&#45;&gt;Node2 -->
<g id="edge1" class="edge"><title>Node1&#45;&gt;Node2</title>
<path fill="none" stroke="midnightblue" d="M65.7014,-101.363C60.4151,-92.0242 54.121,-80.9046 49.9577,-73.5496"/>
<polygon fill="midnightblue" stroke="midnightblue" points="62.7419,-103.24 70.7139,-110.219 68.8337,-99.7921 62.7419,-103.24"/>
</g>
<!-- Node4 -->
<g id="node4" class="node"><title>Node4</title>
<g id="a_node4"><a xlink:href="_maw_kit_8h.html" target="_top" xlink:title="MawKit.h">
<polygon fill="white" stroke="black" points="76.8398,-0.5 76.8398,-18.5 133.963,-18.5 133.963,-0.5 76.8398,-0.5"/>
<text text-anchor="middle" x="105.401" y="-6.5" font-family="Helvetica,sans-Serif" font-size="10.00">MawKit.h</text>
</a>
</g>
</g>
<!-- Node1&#45;&gt;Node4 -->
<g id="edge4" class="edge"><title>Node1&#45;&gt;Node4</title>
<path fill="none" stroke="midnightblue" d="M80.383,-100.566C86.9676,-76.8614 98.2971,-36.0752 103.12,-18.7118"/>
<polygon fill="midnightblue" stroke="midnightblue" points="76.9604,-99.8105 77.6562,-110.382 83.7051,-101.684 76.9604,-99.8105"/>
</g>
<!-- Node3 -->
<g id="node3" class="node"><title>Node3</title>
<g id="a_node3"><a xlink:href="_ad_kit_8cpp.html" target="_top" xlink:title="AdKit.cpp">
<polygon fill="white" stroke="black" points="0,-0.5 0,-18.5 58.8027,-18.5 58.8027,-0.5 0,-0.5"/>
<text text-anchor="middle" x="29.4014" y="-6.5" font-family="Helvetica,sans-Serif" font-size="10.00">AdKit.cpp</text>
</a>
</g>
</g>
<!-- Node2&#45;&gt;Node3 -->
<g id="edge2" class="edge"><title>Node2&#45;&gt;Node3</title>
<path fill="none" stroke="midnightblue" d="M39.9594,-45.4734C37.1978,-36.3257 33.9817,-25.6724 31.8314,-18.5496"/>
<polygon fill="midnightblue" stroke="midnightblue" points="36.6606,-46.657 42.9014,-55.2188 43.3619,-44.6339 36.6606,-46.657"/>
</g>
<!-- Node2&#45;&gt;Node4 -->
<g id="edge3" class="edge"><title>Node2&#45;&gt;Node4</title>
<path fill="none" stroke="midnightblue" d="M62.2231,-48.6408C73.2277,-38.9201 87.1849,-26.5913 96.2029,-18.6253"/>
<polygon fill="midnightblue" stroke="midnightblue" points="59.6917,-46.2069 54.5141,-55.4504 64.326,-51.4532 59.6917,-46.2069"/>
</g>
</g>
</svg>
