<?xml version="1.0" encoding="UTF-8" standalone="no"?>
<!DOCTYPE svg PUBLIC "-//W3C//DTD SVG 1.1//EN"
 "http://www.w3.org/Graphics/SVG/1.1/DTD/svg11.dtd">
<!-- Generated by graphviz version 2.38.0 (20140413.2041)
 -->
<!-- Title: MawKit.h Pages: 1 -->
<!--zoomable 247 -->
<svg id="main" version="1.1" xmlns="http://www.w3.org/2000/svg" xmlns:xlink="http://www.w3.org/1999/xlink" xml:space="preserve" onload="init(evt)">
<style type="text/css"><![CDATA[
.edge:hover path { stroke: red; }
.edge:hover polygon { stroke: red; fill: red; }
]]></style>
<script type="text/javascript"><![CDATA[
var edges = document.getElementsByTagName('g');
if (edges && edges.length) {
  for (var i=0;i<edges.length;i++) {
    if (edges[i].id.substr(0,4)=='edge') {
      edges[i].setAttribute('class','edge');
    }
  }
}
]]></script>
        <defs>
                <circle id="rim" cx="0" cy="0" r="7"/>
                <circle id="rim2" cx="0" cy="0" r="3.5"/>
                <g id="zoomPlus">
                        <use xlink:href="#rim" fill="#404040">
                                <set attributeName="fill" to="#808080" begin="zoomplus.mouseover" end="zoomplus.mouseout"/>
                        </use>
                        <path d="M-4,0h8M0,-4v8" fill="none" stroke="white" stroke-width="1.5" pointer-events="none"/>
                </g>
                <g id="zoomMin">
                        <use xlink:href="#rim" fill="#404040">
                                <set attributeName="fill" to="#808080" begin="zoomminus.mouseover" end="zoomminus.mouseout"/>
                        </use>
                        <path d="M-4,0h8" fill="none" stroke="white" stroke-width="1.5" pointer-events="none"/>
                </g>
                <g id="dirArrow">
                        <path fill="none" stroke="white" stroke-width="1.5" d="M0,-3.0v7 M-2.5,-0.5L0,-3.0L2.5,-0.5"/>
                </g>
               <g id="resetDef">
                       <use xlink:href="#rim2" fill="#404040">
                               <set attributeName="fill" to="#808080" begin="reset.mouseover" end="reset.mouseout"/>
                       </use>
               </g>
        </defs>

<script type="text/javascript">
var viewWidth = 1134;
var viewHeight = 247;
var sectionId = 'dynsection-0';
</script>
<script xlink:href="svgpan.js"/>
<svg id="graph" class="graph">
<g id="viewport">
<title>MawKit.h</title>
<polygon fill="white" stroke="none" points="-4,4 -4,-243 1130.14,-243 1130.14,4 -4,4"/>
<!-- Node1 -->
<g id="node1" class="node"><title>Node1</title>
<polygon fill="#bfbfbf" stroke="black" points="473.731,-220.5 473.731,-238.5 530.854,-238.5 530.854,-220.5 473.731,-220.5"/>
<text text-anchor="middle" x="502.293" y="-226.5" font-family="Helvetica,sans-Serif" font-size="10.00">MawKit.h</text>
</g>
<!-- Node2 -->
<g id="node2" class="node"><title>Node2</title>
<g id="a_node2"><a xlink:href="_a_b_database_8hpp.html" target="_top" xlink:title="ABDatabase.hpp">
<polygon fill="white" stroke="black" points="284.488,-110.5 284.488,-128.5 376.098,-128.5 376.098,-110.5 284.488,-110.5"/>
<text text-anchor="middle" x="330.293" y="-116.5" font-family="Helvetica,sans-Serif" font-size="10.00">ABDatabase.hpp</text>
</a>
</g>
</g>
<!-- Node1&#45;&gt;Node2 -->
<g id="edge1" class="edge"><title>Node1&#45;&gt;Node2</title>
<path fill="none" stroke="midnightblue" d="M489.365,-220.382C460.104,-202.009 388.533,-157.069 352.209,-134.261"/>
<polygon fill="midnightblue" stroke="midnightblue" points="353.701,-131.065 343.371,-128.712 349.979,-136.994 353.701,-131.065"/>
</g>
<!-- Node5 -->
<g id="node5" class="node"><title>Node5</title>
<g id="a_node5"><a xlink:href="_ad_kit_8hpp.html" target="_top" xlink:title="AdKit.hpp">
<polygon fill="white" stroke="black" points="393.611,-110.5 393.611,-128.5 452.975,-128.5 452.975,-110.5 393.611,-110.5"/>
<text text-anchor="middle" x="423.293" y="-116.5" font-family="Helvetica,sans-Serif" font-size="10.00">AdKit.hpp</text>
</a>
</g>
</g>
<!-- Node1&#45;&gt;Node5 -->
<g id="edge4" class="edge"><title>Node1&#45;&gt;Node5</title>
<path fill="none" stroke="midnightblue" d="M496.355,-220.382C483.43,-202.713 452.532,-160.472 435.345,-136.976"/>
<polygon fill="midnightblue" stroke="midnightblue" points="438.029,-134.717 429.3,-128.712 432.379,-138.849 438.029,-134.717"/>
</g>
<!-- Node7 -->
<g id="node7" class="node"><title>Node7</title>
<g id="a_node7"><a xlink:href="_analytics_8hpp.html" target="_top" xlink:title="Analytics.hpp">
<polygon fill="white" stroke="black" points="60.5542,-110.5 60.5542,-128.5 136.032,-128.5 136.032,-110.5 60.5542,-110.5"/>
<text text-anchor="middle" x="98.293" y="-116.5" font-family="Helvetica,sans-Serif" font-size="10.00">Analytics.hpp</text>
</a>
</g>
</g>
<!-- Node1&#45;&gt;Node7 -->
<g id="edge8" class="edge"><title>Node1&#45;&gt;Node7</title>
<path fill="none" stroke="midnightblue" d="M473.533,-227.976C398.178,-226.134 196.976,-218.071 141.293,-184 124.112,-173.488 112.221,-153.225 105.367,-138.406"/>
<polygon fill="midnightblue" stroke="midnightblue" points="108.41,-136.618 101.264,-128.796 101.972,-139.367 108.41,-136.618"/>
</g>
<!-- Node9 -->
<g id="node9" class="node"><title>Node9</title>
<g id="a_node9"><a xlink:href="_crypto_kit_8hpp.html" target="_top" xlink:title="CryptoKit.hpp">
<polygon fill="white" stroke="black" points="0,-165.5 0,-183.5 76.5859,-183.5 76.5859,-165.5 0,-165.5"/>
<text text-anchor="middle" x="38.293" y="-171.5" font-family="Helvetica,sans-Serif" font-size="10.00">CryptoKit.hpp</text>
</a>
</g>
</g>
<!-- Node1&#45;&gt;Node9 -->
<g id="edge11" class="edge"><title>Node1&#45;&gt;Node9</title>
<path fill="none" stroke="midnightblue" d="M473.701,-225.727C407.325,-219.211 237.664,-202.101 96.293,-184 93.2125,-183.606 90.0424,-183.184 86.8476,-182.749"/>
<polygon fill="midnightblue" stroke="midnightblue" points="87.0286,-179.24 76.6401,-181.321 86.0588,-186.172 87.0286,-179.24"/>
</g>
<!-- Node10 -->
<g id="node10" class="node"><title>Node10</title>
<g id="a_node10"><a xlink:href="_device_8hpp.html" target="_top" xlink:title="Device.hpp">
<polygon fill="white" stroke="black" points="618.278,-165.5 618.278,-183.5 684.308,-183.5 684.308,-165.5 618.278,-165.5"/>
<text text-anchor="middle" x="651.293" y="-171.5" font-family="Helvetica,sans-Serif" font-size="10.00">Device.hpp</text>
</a>
</g>
</g>
<!-- Node1&#45;&gt;Node10 -->
<g id="edge13" class="edge"><title>Node1&#45;&gt;Node10</title>
<path fill="none" stroke="midnightblue" d="M524.923,-220.45C549.974,-211.539 590.56,-197.103 618.959,-187.001"/>
<polygon fill="midnightblue" stroke="midnightblue" points="620.201,-190.274 628.45,-183.625 617.855,-183.679 620.201,-190.274"/>
</g>
<!-- Node12 -->
<g id="node12" class="node"><title>Node12</title>
<g id="a_node12"><a xlink:href="_facebook_8hpp.html" target="_top" xlink:title="Facebook.hpp">
<polygon fill="white" stroke="black" points="150.604,-165.5 150.604,-183.5 229.982,-183.5 229.982,-165.5 150.604,-165.5"/>
<text text-anchor="middle" x="190.293" y="-171.5" font-family="Helvetica,sans-Serif" font-size="10.00">Facebook.hpp</text>
</a>
</g>
</g>
<!-- Node1&#45;&gt;Node12 -->
<g id="edge16" class="edge"><title>Node1&#45;&gt;Node12</title>
<path fill="none" stroke="midnightblue" d="M473.5,-223.609C420.375,-214.584 306.348,-195.215 240.331,-184"/>
<polygon fill="midnightblue" stroke="midnightblue" points="240.61,-180.497 230.165,-182.273 239.437,-187.398 240.61,-180.497"/>
</g>
<!-- Node13 -->
<g id="node13" class="node"><title>Node13</title>
<g id="a_node13"><a xlink:href="_game_kit_8hpp.html" target="_top" xlink:title="GameKit.hpp">
<polygon fill="white" stroke="black" points="192.111,-110.5 192.111,-128.5 266.475,-128.5 266.475,-110.5 192.111,-110.5"/>
<text text-anchor="middle" x="229.293" y="-116.5" font-family="Helvetica,sans-Serif" font-size="10.00">GameKit.hpp</text>
</a>
</g>
</g>
<!-- Node1&#45;&gt;Node13 -->
<g id="edge18" class="edge"><title>Node1&#45;&gt;Node13</title>
<path fill="none" stroke="midnightblue" d="M481.774,-220.382C433.929,-201.455 314.814,-154.332 259.015,-132.258"/>
<polygon fill="midnightblue" stroke="midnightblue" points="260.264,-128.989 249.678,-128.564 257.689,-135.498 260.264,-128.989"/>
</g>
<!-- Node14 -->
<g id="node14" class="node"><title>Node14</title>
<g id="a_node14"><a xlink:href="_i_a_p_kit_8hpp.html" target="_top" xlink:title="IAPKit.hpp">
<polygon fill="white" stroke="black" points="470.667,-110.5 470.667,-128.5 533.918,-128.5 533.918,-110.5 470.667,-110.5"/>
<text text-anchor="middle" x="502.293" y="-116.5" font-family="Helvetica,sans-Serif" font-size="10.00">IAPKit.hpp</text>
</a>
</g>
</g>
<!-- Node1&#45;&gt;Node14 -->
<g id="edge22" class="edge"><title>Node1&#45;&gt;Node14</title>
<path fill="none" stroke="midnightblue" d="M502.293,-220.382C502.293,-203.182 502.293,-162.698 502.293,-138.887"/>
<polygon fill="midnightblue" stroke="midnightblue" points="505.793,-138.712 502.293,-128.712 498.793,-138.712 505.793,-138.712"/>
</g>
<!-- Node15 -->
<g id="node15" class="node"><title>Node15</title>
<g id="a_node15"><a xlink:href="_k_v_database_8hpp.html" target="_top" xlink:title="KVDatabase.hpp">
<polygon fill="white" stroke="black" points="551.488,-110.5 551.488,-128.5 643.098,-128.5 643.098,-110.5 551.488,-110.5"/>
<text text-anchor="middle" x="597.293" y="-116.5" font-family="Helvetica,sans-Serif" font-size="10.00">KVDatabase.hpp</text>
</a>
</g>
</g>
<!-- Node1&#45;&gt;Node15 -->
<g id="edge26" class="edge"><title>Node1&#45;&gt;Node15</title>
<path fill="none" stroke="midnightblue" d="M509.433,-220.382C525.113,-202.557 562.791,-159.723 583.345,-136.357"/>
<polygon fill="midnightblue" stroke="midnightblue" points="586.093,-138.532 590.07,-128.712 580.837,-133.909 586.093,-138.532"/>
</g>
<!-- Node16 -->
<g id="node16" class="node"><title>Node16</title>
<g id="a_node16"><a xlink:href="_log_8hpp.html" target="_top" xlink:title="Log.hpp">
<polygon fill="white" stroke="black" points="702.219,-165.5 702.219,-183.5 754.367,-183.5 754.367,-165.5 702.219,-165.5"/>
<text text-anchor="middle" x="728.293" y="-171.5" font-family="Helvetica,sans-Serif" font-size="10.00">Log.hpp</text>
</a>
</g>
</g>
<!-- Node1&#45;&gt;Node16 -->
<g id="edge30" class="edge"><title>Node1&#45;&gt;Node16</title>
<path fill="none" stroke="midnightblue" d="M531.112,-221.874C566.622,-213.69 629.066,-199.237 691.851,-184.327"/>
<polygon fill="midnightblue" stroke="midnightblue" points="693.007,-187.65 701.926,-181.931 691.388,-180.84 693.007,-187.65"/>
</g>
<!-- Node17 -->
<g id="node17" class="node"><title>Node17</title>
<g id="a_node17"><a xlink:href="_math_8hpp.html" target="_top" xlink:title="Math.hpp">
<polygon fill="white" stroke="black" points="1068.45,-110.5 1068.45,-128.5 1126.14,-128.5 1126.14,-110.5 1068.45,-110.5"/>
<text text-anchor="middle" x="1097.29" y="-116.5" font-family="Helvetica,sans-Serif" font-size="10.00">Math.hpp</text>
</a>
</g>
</g>
<!-- Node1&#45;&gt;Node17 -->
<g id="edge31" class="edge"><title>Node1&#45;&gt;Node17</title>
<path fill="none" stroke="midnightblue" d="M530.99,-228.621C602.613,-228.285 794.531,-223.451 948.293,-184 994.543,-172.134 1044.99,-148.071 1073.72,-133.213"/>
<polygon fill="midnightblue" stroke="midnightblue" points="1075.37,-136.303 1082.6,-128.558 1072.11,-130.104 1075.37,-136.303"/>
</g>
<!-- Node19 -->
<g id="node19" class="node"><title>Node19</title>
<g id="a_node19"><a xlink:href="_random_8hpp.html" target="_top" xlink:title="Random.hpp">
<polygon fill="white" stroke="black" points="977.663,-110.5 977.663,-128.5 1050.92,-128.5 1050.92,-110.5 977.663,-110.5"/>
<text text-anchor="middle" x="1014.29" y="-116.5" font-family="Helvetica,sans-Serif" font-size="10.00">Random.hpp</text>
</a>
</g>
</g>
<!-- Node1&#45;&gt;Node19 -->
<g id="edge33" class="edge"><title>Node1&#45;&gt;Node19</title>
<path fill="none" stroke="midnightblue" d="M530.878,-227.129C612.267,-222.957 843.961,-209.139 915.293,-184 946.715,-172.926 978.298,-150.174 997.073,-135.128"/>
<polygon fill="midnightblue" stroke="midnightblue" points="999.472,-137.687 1004.98,-128.636 995.029,-132.278 999.472,-137.687"/>
</g>
<!-- Node22 -->
<g id="node22" class="node"><title>Node22</title>
<g id="a_node22"><a xlink:href="_range_8hpp.html" target="_top" xlink:title="Range.hpp">
<polygon fill="white" stroke="black" points="841.828,-165.5 841.828,-183.5 906.758,-183.5 906.758,-165.5 841.828,-165.5"/>
<text text-anchor="middle" x="874.293" y="-171.5" font-family="Helvetica,sans-Serif" font-size="10.00">Range.hpp</text>
</a>
</g>
</g>
<!-- Node1&#45;&gt;Node22 -->
<g id="edge38" class="edge"><title>Node1&#45;&gt;Node22</title>
<path fill="none" stroke="midnightblue" d="M530.865,-224.429C595.781,-215.181 754.668,-192.543 831.416,-181.609"/>
<polygon fill="midnightblue" stroke="midnightblue" points="832.276,-185.022 841.682,-180.146 831.288,-178.092 832.276,-185.022"/>
</g>
<!-- Node3 -->
<g id="node3" class="node"><title>Node3</title>
<polygon fill="white" stroke="#bfbfbf" points="357.889,-55.5 357.889,-73.5 416.697,-73.5 416.697,-55.5 357.889,-55.5"/>
<text text-anchor="middle" x="387.293" y="-61.5" font-family="Helvetica,sans-Serif" font-size="10.00">functional</text>
</g>
<!-- Node2&#45;&gt;Node3 -->
<g id="edge2" class="edge"><title>Node2&#45;&gt;Node3</title>
<path fill="none" stroke="midnightblue" d="M339.199,-110.219C347.698,-102.316 360.703,-90.2241 371.047,-80.6057"/>
<polygon fill="midnightblue" stroke="midnightblue" points="373.696,-82.9222 378.636,-73.5496 368.929,-77.7958 373.696,-82.9222"/>
</g>
<!-- Node4 -->
<g id="node4" class="node"><title>Node4</title>
<polygon fill="white" stroke="#bfbfbf" points="367.066,-0.5 367.066,-18.5 407.52,-18.5 407.52,-0.5 367.066,-0.5"/>
<text text-anchor="middle" x="387.293" y="-6.5" font-family="Helvetica,sans-Serif" font-size="10.00">string</text>
</g>
<!-- Node2&#45;&gt;Node4 -->
<g id="edge3" class="edge"><title>Node2&#45;&gt;Node4</title>
<path fill="none" stroke="midnightblue" d="M331.627,-110.26C333.898,-97.7277 339.275,-73.3918 349.293,-55 355.124,-44.2941 363.838,-33.8471 371.451,-25.7687"/>
<polygon fill="midnightblue" stroke="midnightblue" points="374.029,-28.1398 378.55,-18.558 369.04,-23.229 374.029,-28.1398"/>
</g>
<!-- Node5&#45;&gt;Node3 -->
<g id="edge5" class="edge"><title>Node5&#45;&gt;Node3</title>
<path fill="none" stroke="midnightblue" d="M417.668,-110.219C412.566,-102.707 404.893,-91.411 398.536,-82.0515"/>
<polygon fill="midnightblue" stroke="midnightblue" points="401.275,-79.8551 392.761,-73.5496 395.484,-83.7883 401.275,-79.8551"/>
</g>
<!-- Node5&#45;&gt;Node4 -->
<g id="edge6" class="edge"><title>Node5&#45;&gt;Node4</title>
<path fill="none" stroke="midnightblue" d="M425.439,-110.371C428.298,-97.9832 432.24,-73.8337 425.293,-55 421.179,-43.8482 412.889,-33.5948 405.098,-25.748"/>
<polygon fill="midnightblue" stroke="midnightblue" points="407.335,-23.0479 397.647,-18.7592 402.546,-28.1533 407.335,-23.0479"/>
</g>
<!-- Node6 -->
<g id="node6" class="node"><title>Node6</title>
<polygon fill="white" stroke="#bfbfbf" points="519.677,-55.5 519.677,-73.5 562.909,-73.5 562.909,-55.5 519.677,-55.5"/>
<text text-anchor="middle" x="541.293" y="-61.5" font-family="Helvetica,sans-Serif" font-size="10.00">vector</text>
</g>
<!-- Node5&#45;&gt;Node6 -->
<g id="edge7" class="edge"><title>Node5&#45;&gt;Node6</title>
<path fill="none" stroke="midnightblue" d="M441.215,-110.45C460.534,-101.773 491.52,-87.8556 513.899,-77.8041"/>
<polygon fill="midnightblue" stroke="midnightblue" points="515.515,-80.9153 523.203,-73.6253 512.646,-74.5298 515.515,-80.9153"/>
</g>
<!-- Node7&#45;&gt;Node4 -->
<g id="edge10" class="edge"><title>Node7&#45;&gt;Node4</title>
<path fill="none" stroke="midnightblue" d="M93.9901,-110.36C87.6277,-97.071 77.8337,-70.634 91.293,-55 125.326,-15.4678 288.02,-10.5719 356.648,-10.2997"/>
<polygon fill="midnightblue" stroke="midnightblue" points="356.824,-13.7997 366.821,-10.2911 356.818,-6.79968 356.824,-13.7997"/>
</g>
<!-- Node8 -->
<g id="node8" class="node"><title>Node8</title>
<polygon fill="white" stroke="#bfbfbf" points="100.566,-55.5 100.566,-73.5 136.02,-73.5 136.02,-55.5 100.566,-55.5"/>
<text text-anchor="middle" x="118.293" y="-61.5" font-family="Helvetica,sans-Serif" font-size="10.00">map</text>
</g>
<!-- Node7&#45;&gt;Node8 -->
<g id="edge9" class="edge"><title>Node7&#45;&gt;Node8</title>
<path fill="none" stroke="midnightblue" d="M101.418,-110.219C104.164,-102.942 108.25,-92.1134 111.714,-82.9345"/>
<polygon fill="midnightblue" stroke="midnightblue" points="114.999,-84.1413 115.255,-73.5496 108.45,-81.6699 114.999,-84.1413"/>
</g>
<!-- Node9&#45;&gt;Node4 -->
<g id="edge12" class="edge"><title>Node9&#45;&gt;Node4</title>
<path fill="none" stroke="midnightblue" d="M38.3203,-165.306C38.8941,-142.979 43.9272,-81.0007 81.293,-55 125.526,-24.2209 288.572,-14.3494 356.877,-11.5224"/>
<polygon fill="midnightblue" stroke="midnightblue" points="357.137,-15.015 366.993,-11.1271 356.864,-8.02033 357.137,-15.015"/>
</g>
<!-- Node10&#45;&gt;Node4 -->
<g id="edge14" class="edge"><title>Node10&#45;&gt;Node4</title>
<path fill="none" stroke="midnightblue" d="M653.501,-165.263C656.414,-152.733 660.296,-128.402 652.293,-110 637.996,-77.1257 625.065,-71.6031 593.293,-55 536.017,-25.0694 459.715,-15.2567 417.905,-12.049"/>
<polygon fill="midnightblue" stroke="midnightblue" points="418.023,-8.54897 407.806,-11.3526 417.542,-15.5324 418.023,-8.54897"/>
</g>
<!-- Node11 -->
<g id="node11" class="node"><title>Node11</title>
<polygon fill="white" stroke="#bfbfbf" points="699.5,-110.5 699.5,-128.5 761.086,-128.5 761.086,-110.5 699.5,-110.5"/>
<text text-anchor="middle" x="730.293" y="-116.5" font-family="Helvetica,sans-Serif" font-size="10.00">cocos2d.h</text>
</g>
<!-- Node10&#45;&gt;Node11 -->
<g id="edge15" class="edge"><title>Node10&#45;&gt;Node11</title>
<path fill="none" stroke="midnightblue" d="M663.291,-165.45C675.588,-157.201 694.943,-144.216 709.695,-134.319"/>
<polygon fill="midnightblue" stroke="midnightblue" points="711.827,-137.103 718.182,-128.625 707.927,-131.29 711.827,-137.103"/>
</g>
<!-- Node12&#45;&gt;Node4 -->
<g id="edge17" class="edge"><title>Node12&#45;&gt;Node4</title>
<path fill="none" stroke="midnightblue" d="M186.383,-165.367C180.839,-152.547 172.502,-127.321 183.293,-110 221.648,-48.4345 310.321,-23.9615 357.117,-15.0697"/>
<polygon fill="midnightblue" stroke="midnightblue" points="357.747,-18.5127 366.977,-13.3103 356.517,-11.6216 357.747,-18.5127"/>
</g>
<!-- Node13&#45;&gt;Node3 -->
<g id="edge21" class="edge"><title>Node13&#45;&gt;Node3</title>
<path fill="none" stroke="midnightblue" d="M253.29,-110.45C280.048,-101.475 323.52,-86.8922 353.662,-76.7813"/>
<polygon fill="midnightblue" stroke="midnightblue" points="354.962,-80.0369 363.33,-73.5383 352.736,-73.4004 354.962,-80.0369"/>
</g>
<!-- Node13&#45;&gt;Node4 -->
<g id="edge20" class="edge"><title>Node13&#45;&gt;Node4</title>
<path fill="none" stroke="midnightblue" d="M241.169,-110.382C267.933,-92.0876 333.235,-47.4511 366.733,-24.5536"/>
<polygon fill="midnightblue" stroke="midnightblue" points="368.999,-27.2444 375.279,-18.7118 365.049,-21.4654 368.999,-27.2444"/>
</g>
<!-- Node13&#45;&gt;Node8 -->
<g id="edge19" class="edge"><title>Node13&#45;&gt;Node8</title>
<path fill="none" stroke="midnightblue" d="M212.434,-110.45C194.342,-101.812 165.374,-87.9803 144.346,-77.9396"/>
<polygon fill="midnightblue" stroke="midnightblue" points="145.842,-74.7757 135.31,-73.6253 142.826,-81.0926 145.842,-74.7757"/>
</g>
<!-- Node14&#45;&gt;Node3 -->
<g id="edge23" class="edge"><title>Node14&#45;&gt;Node3</title>
<path fill="none" stroke="midnightblue" d="M484.827,-110.45C466.083,-101.812 436.071,-87.9803 414.285,-77.9396"/>
<polygon fill="midnightblue" stroke="midnightblue" points="415.47,-74.6323 404.923,-73.6253 412.54,-80.9896 415.47,-74.6323"/>
</g>
<!-- Node14&#45;&gt;Node4 -->
<g id="edge24" class="edge"><title>Node14&#45;&gt;Node4</title>
<path fill="none" stroke="midnightblue" d="M495.064,-110.39C483.922,-98.0278 461.7,-73.9109 441.293,-55 430.016,-44.5495 416.691,-33.5556 406.099,-25.1099"/>
<polygon fill="midnightblue" stroke="midnightblue" points="407.969,-22.1272 397.95,-18.6827 403.634,-27.6235 407.969,-22.1272"/>
</g>
<!-- Node14&#45;&gt;Node6 -->
<g id="edge25" class="edge"><title>Node14&#45;&gt;Node6</title>
<path fill="none" stroke="midnightblue" d="M508.387,-110.219C513.972,-102.629 522.4,-91.1753 529.328,-81.7597"/>
<polygon fill="midnightblue" stroke="midnightblue" points="532.262,-83.6784 535.37,-73.5496 526.624,-79.5296 532.262,-83.6784"/>
</g>
<!-- Node15&#45;&gt;Node3 -->
<g id="edge27" class="edge"><title>Node15&#45;&gt;Node3</title>
<path fill="none" stroke="midnightblue" d="M565.398,-110.45C528.165,-101.054 466.585,-85.5118 426.476,-75.389"/>
<polygon fill="midnightblue" stroke="midnightblue" points="427.322,-71.9928 416.769,-72.9392 425.609,-78.7799 427.322,-71.9928"/>
</g>
<!-- Node15&#45;&gt;Node4 -->
<g id="edge28" class="edge"><title>Node15&#45;&gt;Node4</title>
<path fill="none" stroke="midnightblue" d="M596.437,-110.097C594.583,-96.4306 588.92,-69.4628 572.293,-55 528.685,-17.0688 458.273,-10.1994 418.064,-9.65138"/>
<polygon fill="midnightblue" stroke="midnightblue" points="417.813,-6.15122 407.809,-9.641 417.806,-13.1512 417.813,-6.15122"/>
</g>
<!-- Node15&#45;&gt;Node6 -->
<g id="edge29" class="edge"><title>Node15&#45;&gt;Node6</title>
<path fill="none" stroke="midnightblue" d="M588.543,-110.219C580.193,-102.316 567.416,-90.2241 557.254,-80.6057"/>
<polygon fill="midnightblue" stroke="midnightblue" points="559.467,-77.8814 549.798,-73.5496 554.655,-82.9655 559.467,-77.8814"/>
</g>
<!-- Node18 -->
<g id="node18" class="node"><title>Node18</title>
<polygon fill="white" stroke="#bfbfbf" points="1004.23,-0.5 1004.23,-18.5 1066.36,-18.5 1066.36,-0.5 1004.23,-0.5"/>
<text text-anchor="middle" x="1035.29" y="-6.5" font-family="Helvetica,sans-Serif" font-size="10.00">type_traits</text>
</g>
<!-- Node17&#45;&gt;Node18 -->
<g id="edge32" class="edge"><title>Node17&#45;&gt;Node18</title>
<path fill="none" stroke="midnightblue" d="M1104.04,-110.181C1113.4,-97.5459 1128.05,-73.0773 1117.29,-55 1108.17,-39.6693 1091.72,-29.2931 1075.93,-22.4461"/>
<polygon fill="midnightblue" stroke="midnightblue" points="1076.85,-19.0446 1066.26,-18.6261 1074.28,-25.5551 1076.85,-19.0446"/>
</g>
<!-- Node19&#45;&gt;Node6 -->
<g id="edge37" class="edge"><title>Node19&#45;&gt;Node6</title>
<path fill="none" stroke="midnightblue" d="M977.571,-114.385C887.648,-104.309 657.61,-78.5334 573.076,-69.0613"/>
<polygon fill="midnightblue" stroke="midnightblue" points="573.378,-65.5733 563.051,-67.938 572.599,-72.5298 573.378,-65.5733"/>
</g>
<!-- Node19&#45;&gt;Node18 -->
<g id="edge36" class="edge"><title>Node19&#45;&gt;Node18</title>
<path fill="none" stroke="midnightblue" d="M1049.24,-110.401C1068.47,-103.965 1090.72,-92.8128 1102.29,-74 1115.13,-53.1225 1088.72,-34.5277 1065.37,-22.9388"/>
<polygon fill="midnightblue" stroke="midnightblue" points="1066.55,-19.625 1056.01,-18.5601 1063.58,-25.9662 1066.55,-19.625"/>
</g>
<!-- Node20 -->
<g id="node20" class="node"><title>Node20</title>
<polygon fill="white" stroke="#bfbfbf" points="977.731,-55.5 977.731,-73.5 1024.85,-73.5 1024.85,-55.5 977.731,-55.5"/>
<text text-anchor="middle" x="1001.29" y="-61.5" font-family="Helvetica,sans-Serif" font-size="10.00">iterator</text>
</g>
<!-- Node19&#45;&gt;Node20 -->
<g id="edge34" class="edge"><title>Node19&#45;&gt;Node20</title>
<path fill="none" stroke="midnightblue" d="M1012.26,-110.219C1010.52,-103.099 1007.93,-92.5775 1005.72,-83.5289"/>
<polygon fill="midnightblue" stroke="midnightblue" points="1009.05,-82.4279 1003.27,-73.5496 1002.25,-84.0955 1009.05,-82.4279"/>
</g>
<!-- Node21 -->
<g id="node21" class="node"><title>Node21</title>
<polygon fill="white" stroke="#bfbfbf" points="1043.34,-55.5 1043.34,-73.5 1093.25,-73.5 1093.25,-55.5 1043.34,-55.5"/>
<text text-anchor="middle" x="1068.29" y="-61.5" font-family="Helvetica,sans-Serif" font-size="10.00">random</text>
</g>
<!-- Node19&#45;&gt;Node21 -->
<g id="edge35" class="edge"><title>Node19&#45;&gt;Node21</title>
<path fill="none" stroke="midnightblue" d="M1022.73,-110.219C1030.78,-102.316 1043.1,-90.2241 1052.9,-80.6057"/>
<polygon fill="midnightblue" stroke="midnightblue" points="1055.41,-83.0522 1060.09,-73.5496 1050.5,-78.0564 1055.41,-83.0522"/>
</g>
<!-- Node22&#45;&gt;Node11 -->
<g id="edge40" class="edge"><title>Node22&#45;&gt;Node11</title>
<path fill="none" stroke="midnightblue" d="M852.422,-165.45C828.317,-156.578 789.33,-142.229 761.902,-132.134"/>
<polygon fill="midnightblue" stroke="midnightblue" points="762.963,-128.795 752.369,-128.625 760.545,-135.364 762.963,-128.795"/>
</g>
<!-- Node22&#45;&gt;Node17 -->
<g id="edge46" class="edge"><title>Node22&#45;&gt;Node17</title>
<path fill="none" stroke="midnightblue" d="M907.197,-165.68C947.464,-156.11 1015.55,-139.927 1058.38,-129.748"/>
<polygon fill="midnightblue" stroke="midnightblue" points="1059.24,-133.14 1068.16,-127.423 1057.63,-126.33 1059.24,-133.14"/>
</g>
<!-- Node22&#45;&gt;Node18 -->
<g id="edge39" class="edge"><title>Node22&#45;&gt;Node18</title>
<path fill="none" stroke="midnightblue" d="M887.629,-165.291C899.901,-157.227 918.009,-143.979 930.293,-129 953.737,-100.412 943.653,-82.5638 968.293,-55 979.862,-42.0584 995.994,-31.1923 1009.53,-23.4377"/>
<polygon fill="midnightblue" stroke="midnightblue" points="1011.31,-26.4536 1018.4,-18.579 1007.95,-20.3146 1011.31,-26.4536"/>
</g>
<!-- Node22&#45;&gt;Node19 -->
<g id="edge47" class="edge"><title>Node22&#45;&gt;Node19</title>
<path fill="none" stroke="midnightblue" d="M895.556,-165.45C918.889,-156.617 956.564,-142.355 983.21,-132.267"/>
<polygon fill="midnightblue" stroke="midnightblue" points="984.717,-135.439 992.83,-128.625 982.238,-128.893 984.717,-135.439"/>
</g>
<!-- Node23 -->
<g id="node23" class="node"><title>Node23</title>
<g id="a_node23"><a xlink:href="_compiler_enhancements_8hpp.html" target="_top" xlink:title="CompilerEnhancements.hpp">
<polygon fill="white" stroke="black" points="779.202,-110.5 779.202,-128.5 921.384,-128.5 921.384,-110.5 779.202,-110.5"/>
<text text-anchor="middle" x="850.293" y="-116.5" font-family="Helvetica,sans-Serif" font-size="10.00">CompilerEnhancements.hpp</text>
</a>
</g>
</g>
<!-- Node22&#45;&gt;Node23 -->
<g id="edge41" class="edge"><title>Node22&#45;&gt;Node23</title>
<path fill="none" stroke="midnightblue" d="M870.543,-165.219C867.248,-157.942 862.344,-147.113 858.188,-137.934"/>
<polygon fill="midnightblue" stroke="midnightblue" points="861.252,-136.215 853.938,-128.55 854.875,-139.103 861.252,-136.215"/>
</g>
<!-- Node24 -->
<g id="node24" class="node"><title>Node24</title>
<g id="a_node24"><a xlink:href="_android_2_compiler_enhancements_8hpp.html" target="_top" xlink:title="Android/CompilerEnhancements.hpp">
<polygon fill="white" stroke="black" points="741.579,-55.5 741.579,-73.5 921.007,-73.5 921.007,-55.5 741.579,-55.5"/>
<text text-anchor="middle" x="831.293" y="-61.5" font-family="Helvetica,sans-Serif" font-size="10.00">Android/CompilerEnhancements.hpp</text>
</a>
</g>
</g>
<!-- Node23&#45;&gt;Node24 -->
<g id="edge42" class="edge"><title>Node23&#45;&gt;Node24</title>
<path fill="none" stroke="midnightblue" d="M847.324,-110.219C844.744,-103.02 840.917,-92.3458 837.649,-83.2311"/>
<polygon fill="midnightblue" stroke="midnightblue" points="840.848,-81.7818 834.179,-73.5496 834.259,-84.1441 840.848,-81.7818"/>
</g>
<!-- Node24&#45;&gt;Node4 -->
<g id="edge44" class="edge"><title>Node24&#45;&gt;Node4</title>
<path fill="none" stroke="midnightblue" d="M763.859,-55.4504C666.022,-43.7717 488.673,-22.6017 417.777,-14.1389"/>
<polygon fill="midnightblue" stroke="midnightblue" points="418.07,-10.6491 407.726,-12.939 417.24,-17.5997 418.07,-10.6491"/>
</g>
<!-- Node24&#45;&gt;Node18 -->
<g id="edge45" class="edge"><title>Node24&#45;&gt;Node18</title>
<path fill="none" stroke="midnightblue" d="M862.276,-55.4504C897.576,-46.2794 955.404,-31.2555 994.384,-21.1283"/>
<polygon fill="midnightblue" stroke="midnightblue" points="995.554,-24.4405 1004.35,-18.5383 993.794,-17.6654 995.554,-24.4405"/>
</g>
<!-- Node25 -->
<g id="node25" class="node"><title>Node25</title>
<polygon fill="white" stroke="#bfbfbf" points="805.512,-0.5 805.512,-18.5 857.074,-18.5 857.074,-0.5 805.512,-0.5"/>
<text text-anchor="middle" x="831.293" y="-6.5" font-family="Helvetica,sans-Serif" font-size="10.00">sstream</text>
</g>
<!-- Node24&#45;&gt;Node25 -->
<g id="edge43" class="edge"><title>Node24&#45;&gt;Node25</title>
<path fill="none" stroke="midnightblue" d="M831.293,-55.2188C831.293,-48.1769 831.293,-37.8083 831.293,-28.8277"/>
<polygon fill="midnightblue" stroke="midnightblue" points="834.793,-28.5495 831.293,-18.5496 827.793,-28.5496 834.793,-28.5495"/>
</g>
</g>
</svg>
        <g id="navigator" transform="translate(0 0)" fill="#404254">
                <rect fill="#f2f5e9" fill-opacity="0.5" stroke="#606060" stroke-width=".5" x="0" y="0" width="60" height="60"/>
                <use id="zoomplus" xlink:href="#zoomPlus" x="17" y="9" onmousedown="handleZoom(evt,'in')"/>
                <use id="zoomminus" xlink:href="#zoomMin" x="42" y="9" onmousedown="handleZoom(evt,'out')"/>
                <use id="reset" xlink:href="#resetDef" x="30" y="36" onmousedown="handleReset()"/>
                <g id="arrowUp" xlink:href="#dirArrow" transform="translate(30 24)" onmousedown="handlePan(0,-1)">
                  <use xlink:href="#rim" fill="#404040">
                        <set attributeName="fill" to="#808080" begin="arrowUp.mouseover" end="arrowUp.mouseout"/>
                  </use>
                  <path fill="none" stroke="white" stroke-width="1.5" d="M0,-3.0v7 M-2.5,-0.5L0,-3.0L2.5,-0.5"/>
                </g>
                <g id="arrowRight" xlink:href="#dirArrow" transform="rotate(90) translate(36 -43)" onmousedown="handlePan(1,0)">
                  <use xlink:href="#rim" fill="#404040">
                        <set attributeName="fill" to="#808080" begin="arrowRight.mouseover" end="arrowRight.mouseout"/>
                  </use>
                  <path fill="none" stroke="white" stroke-width="1.5" d="M0,-3.0v7 M-2.5,-0.5L0,-3.0L2.5,-0.5"/>
                </g>
                <g id="arrowDown" xlink:href="#dirArrow" transform="rotate(180) translate(-30 -48)" onmousedown="handlePan(0,1)">
                  <use xlink:href="#rim" fill="#404040">
                        <set attributeName="fill" to="#808080" begin="arrowDown.mouseover" end="arrowDown.mouseout"/>
                  </use>
                  <path fill="none" stroke="white" stroke-width="1.5" d="M0,-3.0v7 M-2.5,-0.5L0,-3.0L2.5,-0.5"/>
                </g>
                <g id="arrowLeft" xlink:href="#dirArrow" transform="rotate(270) translate(-36 17)" onmousedown="handlePan(-1,0)">
                  <use xlink:href="#rim" fill="#404040">
                        <set attributeName="fill" to="#808080" begin="arrowLeft.mouseover" end="arrowLeft.mouseout"/>
                  </use>
                  <path fill="none" stroke="white" stroke-width="1.5" d="M0,-3.0v7 M-2.5,-0.5L0,-3.0L2.5,-0.5"/>
                </g>
        </g>
        <svg viewBox="0 0 15 15" width="100%" height="30px" preserveAspectRatio="xMaxYMin meet">
         <g id="arrow_out" transform="scale(0.3 0.3)">
          <a xlink:href="_maw_kit_8h__incl_org.svg" target="_base">
           <rect id="button" ry="5" rx="5" y="6" x="6" height="38" width="38"
                fill="#f2f5e9" fill-opacity="0.5" stroke="#606060" stroke-width="1.0"/>
           <path id="arrow"
             d="M 11.500037,31.436501 C 11.940474,20.09759 22.043105,11.32322 32.158766,21.979434 L 37.068811,17.246167 C 37.068811,17.246167 37.088388,32 37.088388,32 L 22.160133,31.978069 C 22.160133,31.978069 26.997745,27.140456 26.997745,27.140456 C 18.528582,18.264221 13.291696,25.230495 11.500037,31.436501 z"
             style="fill:#404040;"/>
          </a>
         </g>
        </svg>
</svg>
