<?xml version="1.0" encoding="UTF-8" standalone="no"?>
<!DOCTYPE svg PUBLIC "-//W3C//DTD SVG 1.1//EN"
 "http://www.w3.org/Graphics/SVG/1.1/DTD/svg11.dtd">
<!-- Generated by graphviz version 2.38.0 (20140413.2041)
 -->
<!-- Title: Apple/OS X/GameKit.mm Pages: 1 -->
<!--zoomable 247 -->
<svg id="main" version="1.1" xmlns="http://www.w3.org/2000/svg" xmlns:xlink="http://www.w3.org/1999/xlink" xml:space="preserve" onload="init(evt)">
<style type="text/css"><![CDATA[
.edge:hover path { stroke: red; }
.edge:hover polygon { stroke: red; fill: red; }
]]></style>
<script type="text/javascript"><![CDATA[
var edges = document.getElementsByTagName('g');
if (edges && edges.length) {
  for (var i=0;i<edges.length;i++) {
    if (edges[i].id.substr(0,4)=='edge') {
      edges[i].setAttribute('class','edge');
    }
  }
}
]]></script>
        <defs>
                <circle id="rim" cx="0" cy="0" r="7"/>
                <circle id="rim2" cx="0" cy="0" r="3.5"/>
                <g id="zoomPlus">
                        <use xlink:href="#rim" fill="#404040">
                                <set attributeName="fill" to="#808080" begin="zoomplus.mouseover" end="zoomplus.mouseout"/>
                        </use>
                        <path d="M-4,0h8M0,-4v8" fill="none" stroke="white" stroke-width="1.5" pointer-events="none"/>
                </g>
                <g id="zoomMin">
                        <use xlink:href="#rim" fill="#404040">
                                <set attributeName="fill" to="#808080" begin="zoomminus.mouseover" end="zoomminus.mouseout"/>
                        </use>
                        <path d="M-4,0h8" fill="none" stroke="white" stroke-width="1.5" pointer-events="none"/>
                </g>
                <g id="dirArrow">
                        <path fill="none" stroke="white" stroke-width="1.5" d="M0,-3.0v7 M-2.5,-0.5L0,-3.0L2.5,-0.5"/>
                </g>
               <g id="resetDef">
                       <use xlink:href="#rim2" fill="#404040">
                               <set attributeName="fill" to="#808080" begin="reset.mouseover" end="reset.mouseout"/>
                       </use>
               </g>
        </defs>

<script type="text/javascript">
var viewWidth = 515;
var viewHeight = 247;
var sectionId = 'dynsection-0';
</script>
<script xlink:href="svgpan.js"/>
<svg id="graph" class="graph">
<g id="viewport">
<title>Apple/OS X/GameKit.mm</title>
<polygon fill="white" stroke="none" points="-4,4 -4,-243 511.088,-243 511.088,4 -4,4"/>
<!-- Node1 -->
<g id="node1" class="node"><title>Node1</title>
<polygon fill="#bfbfbf" stroke="black" points="267.042,-220.5 267.042,-238.5 396.411,-238.5 396.411,-220.5 267.042,-220.5"/>
<text text-anchor="middle" x="331.727" y="-226.5" font-family="Helvetica,sans-Serif" font-size="10.00">Apple/OS X/GameKit.mm</text>
</g>
<!-- Node2 -->
<g id="node2" class="node"><title>Node2</title>
<g id="a_node2"><a xlink:href="_game_kit_8h.html" target="_top" xlink:title="../Common/GameKit.h">
<polygon fill="white" stroke="black" points="164.266,-165.5 164.266,-183.5 279.187,-183.5 279.187,-165.5 164.266,-165.5"/>
<text text-anchor="middle" x="221.727" y="-171.5" font-family="Helvetica,sans-Serif" font-size="10.00">../Common/GameKit.h</text>
</a>
</g>
</g>
<!-- Node1&#45;&gt;Node2 -->
<g id="edge1" class="edge"><title>Node1&#45;&gt;Node2</title>
<path fill="none" stroke="midnightblue" d="M315.02,-220.45C297.172,-211.851 268.642,-198.105 247.827,-188.075"/>
<polygon fill="midnightblue" stroke="midnightblue" points="249.118,-184.813 238.59,-183.625 246.08,-191.119 249.118,-184.813"/>
</g>
<!-- Node11 -->
<g id="node11" class="node"><title>Node11</title>
<g id="a_node11"><a xlink:href="_log_8hpp.html" target="_top" xlink:title="../../Log.hpp">
<polygon fill="white" stroke="black" points="297.318,-165.5 297.318,-183.5 366.135,-183.5 366.135,-165.5 297.318,-165.5"/>
<text text-anchor="middle" x="331.727" y="-171.5" font-family="Helvetica,sans-Serif" font-size="10.00">../../Log.hpp</text>
</a>
</g>
</g>
<!-- Node1&#45;&gt;Node11 -->
<g id="edge12" class="edge"><title>Node1&#45;&gt;Node11</title>
<path fill="none" stroke="midnightblue" d="M331.727,-220.219C331.727,-213.177 331.727,-202.808 331.727,-193.828"/>
<polygon fill="midnightblue" stroke="midnightblue" points="335.227,-193.55 331.727,-183.55 328.227,-193.55 335.227,-193.55"/>
</g>
<!-- Node12 -->
<g id="node12" class="node"><title>Node12</title>
<g id="a_node12"><a xlink:href="_c_p_p_utils_8h.html" target="_top" xlink:title="../Common/CPPUtils.h">
<polygon fill="white" stroke="black" points="383.714,-165.5 383.714,-183.5 499.739,-183.5 499.739,-165.5 383.714,-165.5"/>
<text text-anchor="middle" x="441.727" y="-171.5" font-family="Helvetica,sans-Serif" font-size="10.00">../Common/CPPUtils.h</text>
</a>
</g>
</g>
<!-- Node1&#45;&gt;Node12 -->
<g id="edge13" class="edge"><title>Node1&#45;&gt;Node12</title>
<path fill="none" stroke="midnightblue" d="M348.433,-220.45C366.282,-211.851 394.811,-198.105 415.626,-188.075"/>
<polygon fill="midnightblue" stroke="midnightblue" points="417.373,-191.119 424.863,-183.625 414.335,-184.813 417.373,-191.119"/>
</g>
<!-- Node3 -->
<g id="node3" class="node"><title>Node3</title>
<g id="a_node3"><a xlink:href="_game_kit_8hpp.html" target="_top" xlink:title="../../GameKit.hpp">
<polygon fill="white" stroke="black" points="33.2095,-55.5 33.2095,-73.5 124.244,-73.5 124.244,-55.5 33.2095,-55.5"/>
<text text-anchor="middle" x="78.7266" y="-61.5" font-family="Helvetica,sans-Serif" font-size="10.00">../../GameKit.hpp</text>
</a>
</g>
</g>
<!-- Node2&#45;&gt;Node3 -->
<g id="edge2" class="edge"><title>Node2&#45;&gt;Node3</title>
<path fill="none" stroke="midnightblue" d="M163.968,-168.567C111.371,-162.735 39.3074,-150.923 21.7266,-129 7.21029,-110.899 31.7928,-91.1776 53.0653,-78.5943"/>
<polygon fill="midnightblue" stroke="midnightblue" points="54.8461,-81.6084 61.8557,-73.6639 51.4218,-75.5032 54.8461,-81.6084"/>
</g>
<!-- Node5 -->
<g id="node5" class="node"><title>Node5</title>
<polygon fill="white" stroke="#bfbfbf" points="134.5,-0.5 134.5,-18.5 174.953,-18.5 174.953,-0.5 134.5,-0.5"/>
<text text-anchor="middle" x="154.727" y="-6.5" font-family="Helvetica,sans-Serif" font-size="10.00">string</text>
</g>
<!-- Node2&#45;&gt;Node5 -->
<g id="edge10" class="edge"><title>Node2&#45;&gt;Node5</title>
<path fill="none" stroke="midnightblue" d="M208.869,-165.286C197.673,-157.401 181.979,-144.432 173.727,-129 156.5,-96.7895 153.957,-53.1224 154.065,-28.7958"/>
<polygon fill="midnightblue" stroke="midnightblue" points="157.57,-28.6128 154.279,-18.5422 150.571,-28.4671 157.57,-28.6128"/>
</g>
<!-- Node7 -->
<g id="node7" class="node"><title>Node7</title>
<g id="a_node7"><a xlink:href="___game_kit_8hpp.html" target="_top" xlink:title="../../_GameKit.hpp">
<polygon fill="white" stroke="black" points="30.4287,-110.5 30.4287,-128.5 127.024,-128.5 127.024,-110.5 30.4287,-110.5"/>
<text text-anchor="middle" x="78.7266" y="-116.5" font-family="Helvetica,sans-Serif" font-size="10.00">../../_GameKit.hpp</text>
</a>
</g>
</g>
<!-- Node2&#45;&gt;Node7 -->
<g id="edge6" class="edge"><title>Node2&#45;&gt;Node7</title>
<path fill="none" stroke="midnightblue" d="M200.008,-165.45C176.07,-156.578 137.353,-142.229 110.116,-132.134"/>
<polygon fill="midnightblue" stroke="midnightblue" points="111.243,-128.819 100.65,-128.625 108.81,-135.383 111.243,-128.819"/>
</g>
<!-- Node8 -->
<g id="node8" class="node"><title>Node8</title>
<polygon fill="white" stroke="#bfbfbf" points="366.128,-110.5 366.128,-128.5 493.325,-128.5 493.325,-110.5 366.128,-110.5"/>
<text text-anchor="middle" x="429.727" y="-116.5" font-family="Helvetica,sans-Serif" font-size="10.00">Foundation/Foundation.h</text>
</g>
<!-- Node2&#45;&gt;Node8 -->
<g id="edge8" class="edge"><title>Node2&#45;&gt;Node8</title>
<path fill="none" stroke="midnightblue" d="M253.317,-165.45C289.386,-156.26 348.522,-141.192 388.269,-131.064"/>
<polygon fill="midnightblue" stroke="midnightblue" points="389.354,-134.399 398.18,-128.538 387.625,-127.616 389.354,-134.399"/>
</g>
<!-- Node9 -->
<g id="node9" class="node"><title>Node9</title>
<polygon fill="white" stroke="#bfbfbf" points="182.266,-110.5 182.266,-128.5 287.187,-128.5 287.187,-110.5 182.266,-110.5"/>
<text text-anchor="middle" x="234.727" y="-116.5" font-family="Helvetica,sans-Serif" font-size="10.00">GameKit/GameKit.h</text>
</g>
<!-- Node2&#45;&gt;Node9 -->
<g id="edge9" class="edge"><title>Node2&#45;&gt;Node9</title>
<path fill="none" stroke="midnightblue" d="M223.758,-165.219C225.504,-158.099 228.085,-147.577 230.304,-138.529"/>
<polygon fill="midnightblue" stroke="midnightblue" points="233.769,-139.095 232.752,-128.55 226.971,-137.428 233.769,-139.095"/>
</g>
<!-- Node10 -->
<g id="node10" class="node"><title>Node10</title>
<polygon fill="white" stroke="#bfbfbf" points="305.111,-110.5 305.111,-128.5 348.342,-128.5 348.342,-110.5 305.111,-110.5"/>
<text text-anchor="middle" x="326.727" y="-116.5" font-family="Helvetica,sans-Serif" font-size="10.00">vector</text>
</g>
<!-- Node2&#45;&gt;Node10 -->
<g id="edge11" class="edge"><title>Node2&#45;&gt;Node10</title>
<path fill="none" stroke="midnightblue" d="M237.674,-165.45C254.634,-156.89 281.697,-143.229 301.543,-133.212"/>
<polygon fill="midnightblue" stroke="midnightblue" points="303.279,-136.256 310.629,-128.625 300.125,-130.007 303.279,-136.256"/>
</g>
<!-- Node4 -->
<g id="node4" class="node"><title>Node4</title>
<polygon fill="white" stroke="#bfbfbf" points="0,-0.5 0,-18.5 35.4531,-18.5 35.4531,-0.5 0,-0.5"/>
<text text-anchor="middle" x="17.7266" y="-6.5" font-family="Helvetica,sans-Serif" font-size="10.00">map</text>
</g>
<!-- Node3&#45;&gt;Node4 -->
<g id="edge3" class="edge"><title>Node3&#45;&gt;Node4</title>
<path fill="none" stroke="midnightblue" d="M69.462,-55.4504C60.3256,-47.5123 46.1423,-35.1891 34.9353,-25.4519"/>
<polygon fill="midnightblue" stroke="midnightblue" points="36.9226,-22.542 27.0783,-18.6253 32.3315,-27.8261 36.9226,-22.542"/>
</g>
<!-- Node3&#45;&gt;Node5 -->
<g id="edge4" class="edge"><title>Node3&#45;&gt;Node5</title>
<path fill="none" stroke="midnightblue" d="M90.2693,-55.4504C101.987,-47.2788 120.368,-34.4604 134.508,-24.5996"/>
<polygon fill="midnightblue" stroke="midnightblue" points="136.875,-27.2163 143.075,-18.6253 132.871,-21.4746 136.875,-27.2163"/>
</g>
<!-- Node6 -->
<g id="node6" class="node"><title>Node6</title>
<polygon fill="white" stroke="#bfbfbf" points="53.3228,-0.5 53.3228,-18.5 112.13,-18.5 112.13,-0.5 53.3228,-0.5"/>
<text text-anchor="middle" x="82.7266" y="-6.5" font-family="Helvetica,sans-Serif" font-size="10.00">functional</text>
</g>
<!-- Node3&#45;&gt;Node6 -->
<g id="edge5" class="edge"><title>Node3&#45;&gt;Node6</title>
<path fill="none" stroke="midnightblue" d="M79.3516,-55.2188C79.8889,-48.0986 80.683,-37.5775 81.3659,-28.5289"/>
<polygon fill="midnightblue" stroke="midnightblue" points="84.8565,-28.7846 82.119,-18.5496 77.8763,-28.2578 84.8565,-28.7846"/>
</g>
<!-- Node7&#45;&gt;Node3 -->
<g id="edge7" class="edge"><title>Node7&#45;&gt;Node3</title>
<path fill="none" stroke="midnightblue" d="M78.7266,-110.219C78.7266,-103.177 78.7266,-92.8083 78.7266,-83.8277"/>
<polygon fill="midnightblue" stroke="midnightblue" points="82.2267,-83.5495 78.7266,-73.5496 75.2267,-83.5496 82.2267,-83.5495"/>
</g>
<!-- Node12&#45;&gt;Node5 -->
<g id="edge15" class="edge"><title>Node12&#45;&gt;Node5</title>
<path fill="none" stroke="midnightblue" d="M459.827,-165.458C483.22,-153.938 519.111,-131.725 502.727,-110 463.79,-58.3702 262.519,-25.4438 185.11,-14.5192"/>
<polygon fill="midnightblue" stroke="midnightblue" points="185.425,-11.0294 175.039,-13.124 184.464,-17.9632 185.425,-11.0294"/>
</g>
<!-- Node12&#45;&gt;Node8 -->
<g id="edge14" class="edge"><title>Node12&#45;&gt;Node8</title>
<path fill="none" stroke="midnightblue" d="M439.852,-165.219C438.239,-158.099 435.857,-147.577 433.809,-138.529"/>
<polygon fill="midnightblue" stroke="midnightblue" points="437.171,-137.53 431.549,-128.55 430.344,-139.076 437.171,-137.53"/>
</g>
</g>
</svg>
        <g id="navigator" transform="translate(0 0)" fill="#404254">
                <rect fill="#f2f5e9" fill-opacity="0.5" stroke="#606060" stroke-width=".5" x="0" y="0" width="60" height="60"/>
                <use id="zoomplus" xlink:href="#zoomPlus" x="17" y="9" onmousedown="handleZoom(evt,'in')"/>
                <use id="zoomminus" xlink:href="#zoomMin" x="42" y="9" onmousedown="handleZoom(evt,'out')"/>
                <use id="reset" xlink:href="#resetDef" x="30" y="36" onmousedown="handleReset()"/>
                <g id="arrowUp" xlink:href="#dirArrow" transform="translate(30 24)" onmousedown="handlePan(0,-1)">
                  <use xlink:href="#rim" fill="#404040">
                        <set attributeName="fill" to="#808080" begin="arrowUp.mouseover" end="arrowUp.mouseout"/>
                  </use>
                  <path fill="none" stroke="white" stroke-width="1.5" d="M0,-3.0v7 M-2.5,-0.5L0,-3.0L2.5,-0.5"/>
                </g>
                <g id="arrowRight" xlink:href="#dirArrow" transform="rotate(90) translate(36 -43)" onmousedown="handlePan(1,0)">
                  <use xlink:href="#rim" fill="#404040">
                        <set attributeName="fill" to="#808080" begin="arrowRight.mouseover" end="arrowRight.mouseout"/>
                  </use>
                  <path fill="none" stroke="white" stroke-width="1.5" d="M0,-3.0v7 M-2.5,-0.5L0,-3.0L2.5,-0.5"/>
                </g>
                <g id="arrowDown" xlink:href="#dirArrow" transform="rotate(180) translate(-30 -48)" onmousedown="handlePan(0,1)">
                  <use xlink:href="#rim" fill="#404040">
                        <set attributeName="fill" to="#808080" begin="arrowDown.mouseover" end="arrowDown.mouseout"/>
                  </use>
                  <path fill="none" stroke="white" stroke-width="1.5" d="M0,-3.0v7 M-2.5,-0.5L0,-3.0L2.5,-0.5"/>
                </g>
                <g id="arrowLeft" xlink:href="#dirArrow" transform="rotate(270) translate(-36 17)" onmousedown="handlePan(-1,0)">
                  <use xlink:href="#rim" fill="#404040">
                        <set attributeName="fill" to="#808080" begin="arrowLeft.mouseover" end="arrowLeft.mouseout"/>
                  </use>
                  <path fill="none" stroke="white" stroke-width="1.5" d="M0,-3.0v7 M-2.5,-0.5L0,-3.0L2.5,-0.5"/>
                </g>
        </g>
        <svg viewBox="0 0 15 15" width="100%" height="30px" preserveAspectRatio="xMaxYMin meet">
         <g id="arrow_out" transform="scale(0.3 0.3)">
          <a xlink:href="_o_s_01_x_2_game_kit_8mm__incl_org.svg" target="_base">
           <rect id="button" ry="5" rx="5" y="6" x="6" height="38" width="38"
                fill="#f2f5e9" fill-opacity="0.5" stroke="#606060" stroke-width="1.0"/>
           <path id="arrow"
             d="M 11.500037,31.436501 C 11.940474,20.09759 22.043105,11.32322 32.158766,21.979434 L 37.068811,17.246167 C 37.068811,17.246167 37.088388,32 37.088388,32 L 22.160133,31.978069 C 22.160133,31.978069 26.997745,27.140456 26.997745,27.140456 C 18.528582,18.264221 13.291696,25.230495 11.500037,31.436501 z"
             style="fill:#404040;"/>
          </a>
         </g>
        </svg>
</svg>
