<?xml version="1.0" encoding="UTF-8" standalone="no"?>
<!DOCTYPE svg PUBLIC "-//W3C//DTD SVG 1.1//EN"
 "http://www.w3.org/Graphics/SVG/1.1/DTD/svg11.dtd">
<!-- Generated by graphviz version 2.38.0 (20140413.2041)
 -->
<!-- Title: Apple/OS X/Facebook.mm Pages: 1 -->
<svg width="190pt" height="137pt"
 viewBox="0.00 0.00 190.43 137.00" xmlns="http://www.w3.org/2000/svg" xmlns:xlink="http://www.w3.org/1999/xlink">
<g id="graph0" class="graph" transform="scale(1 1) rotate(0) translate(4 133)">
<title>Apple/OS X/Facebook.mm</title>
<polygon fill="white" stroke="none" points="-4,4 -4,-133 186.433,-133 186.433,4 -4,4"/>
<!-- Node1 -->
<g id="node1" class="node"><title>Node1</title>
<polygon fill="#bfbfbf" stroke="black" points="30.8325,-110.5 30.8325,-128.5 165.216,-128.5 165.216,-110.5 30.8325,-110.5"/>
<text text-anchor="middle" x="98.0244" y="-116.5" font-family="Helvetica,sans-Serif" font-size="10.00">Apple/OS X/Facebook.mm</text>
</g>
<!-- Node2 -->
<g id="node2" class="node"><title>Node2</title>
<g id="a_node2"><a xlink:href="_facebook_8hpp.html" target="_top" xlink:title="../../Facebook.hpp">
<polygon fill="white" stroke="black" points="0,-55.5 0,-73.5 96.0488,-73.5 96.0488,-55.5 0,-55.5"/>
<text text-anchor="middle" x="48.0244" y="-61.5" font-family="Helvetica,sans-Serif" font-size="10.00">../../Facebook.hpp</text>
</a>
</g>
</g>
<!-- Node1&#45;&gt;Node2 -->
<g id="edge1" class="edge"><title>Node1&#45;&gt;Node2</title>
<path fill="none" stroke="midnightblue" d="M90.2119,-110.219C82.8305,-102.394 71.5745,-90.4631 62.5452,-80.8921"/>
<polygon fill="midnightblue" stroke="midnightblue" points="65.0265,-78.4217 55.6183,-73.5496 59.9347,-83.2253 65.0265,-78.4217"/>
</g>
<!-- Node4 -->
<g id="node4" class="node"><title>Node4</title>
<g id="a_node4"><a xlink:href="_log_8hpp.html" target="_top" xlink:title="../../Log.hpp">
<polygon fill="white" stroke="black" points="113.616,-55.5 113.616,-73.5 182.433,-73.5 182.433,-55.5 113.616,-55.5"/>
<text text-anchor="middle" x="148.024" y="-61.5" font-family="Helvetica,sans-Serif" font-size="10.00">../../Log.hpp</text>
</a>
</g>
</g>
<!-- Node1&#45;&gt;Node4 -->
<g id="edge3" class="edge"><title>Node1&#45;&gt;Node4</title>
<path fill="none" stroke="midnightblue" d="M105.837,-110.219C113.218,-102.394 124.474,-90.4631 133.504,-80.8921"/>
<polygon fill="midnightblue" stroke="midnightblue" points="136.114,-83.2253 140.43,-73.5496 131.022,-78.4217 136.114,-83.2253"/>
</g>
<!-- Node3 -->
<g id="node3" class="node"><title>Node3</title>
<polygon fill="white" stroke="#bfbfbf" points="27.7979,-0.5 27.7979,-18.5 68.251,-18.5 68.251,-0.5 27.7979,-0.5"/>
<text text-anchor="middle" x="48.0244" y="-6.5" font-family="Helvetica,sans-Serif" font-size="10.00">string</text>
</g>
<!-- Node2&#45;&gt;Node3 -->
<g id="edge2" class="edge"><title>Node2&#45;&gt;Node3</title>
<path fill="none" stroke="midnightblue" d="M48.0244,-55.2188C48.0244,-48.1769 48.0244,-37.8083 48.0244,-28.8277"/>
<polygon fill="midnightblue" stroke="midnightblue" points="51.5245,-28.5495 48.0244,-18.5496 44.5245,-28.5496 51.5245,-28.5495"/>
</g>
</g>
</svg>
