<?xml version="1.0" encoding="UTF-8" standalone="no"?>
<!DOCTYPE svg PUBLIC "-//W3C//DTD SVG 1.1//EN"
 "http://www.w3.org/Graphics/SVG/1.1/DTD/svg11.dtd">
<!-- Generated by graphviz version 2.38.0 (20140413.2041)
 -->
<!-- Title: Apple/OS X/ABDatabase.mm Pages: 1 -->
<svg width="155pt" height="137pt"
 viewBox="0.00 0.00 154.62 137.00" xmlns="http://www.w3.org/2000/svg" xmlns:xlink="http://www.w3.org/1999/xlink">
<g id="graph0" class="graph" transform="scale(1 1) rotate(0) translate(4 133)">
<title>Apple/OS X/ABDatabase.mm</title>
<polygon fill="white" stroke="none" points="-4,4 -4,-133 150.615,-133 150.615,4 -4,4"/>
<!-- Node1 -->
<g id="node1" class="node"><title>Node1</title>
<polygon fill="#bfbfbf" stroke="black" points="0,-110.5 0,-128.5 146.615,-128.5 146.615,-110.5 0,-110.5"/>
<text text-anchor="middle" x="73.3076" y="-116.5" font-family="Helvetica,sans-Serif" font-size="10.00">Apple/OS X/ABDatabase.mm</text>
</g>
<!-- Node2 -->
<g id="node2" class="node"><title>Node2</title>
<g id="a_node2"><a xlink:href="_a_b_database_8hpp.html" target="_top" xlink:title="../../ABDatabase.hpp">
<polygon fill="white" stroke="black" points="19.1675,-55.5 19.1675,-73.5 127.448,-73.5 127.448,-55.5 19.1675,-55.5"/>
<text text-anchor="middle" x="73.3076" y="-61.5" font-family="Helvetica,sans-Serif" font-size="10.00">../../ABDatabase.hpp</text>
</a>
</g>
</g>
<!-- Node1&#45;&gt;Node2 -->
<g id="edge1" class="edge"><title>Node1&#45;&gt;Node2</title>
<path fill="none" stroke="midnightblue" d="M73.3076,-110.219C73.3076,-103.177 73.3076,-92.8083 73.3076,-83.8277"/>
<polygon fill="midnightblue" stroke="midnightblue" points="76.8077,-83.5495 73.3076,-73.5496 69.8077,-83.5496 76.8077,-83.5495"/>
</g>
<!-- Node3 -->
<g id="node3" class="node"><title>Node3</title>
<polygon fill="white" stroke="#bfbfbf" points="9.90381,-0.5 9.90381,-18.5 68.7114,-18.5 68.7114,-0.5 9.90381,-0.5"/>
<text text-anchor="middle" x="39.3076" y="-6.5" font-family="Helvetica,sans-Serif" font-size="10.00">functional</text>
</g>
<!-- Node2&#45;&gt;Node3 -->
<g id="edge2" class="edge"><title>Node2&#45;&gt;Node3</title>
<path fill="none" stroke="midnightblue" d="M67.9951,-55.2188C63.1765,-47.7074 55.9298,-36.411 49.9256,-27.0515"/>
<polygon fill="midnightblue" stroke="midnightblue" points="52.817,-25.0767 44.4715,-18.5496 46.9251,-28.8564 52.817,-25.0767"/>
</g>
<!-- Node4 -->
<g id="node4" class="node"><title>Node4</title>
<polygon fill="white" stroke="#bfbfbf" points="87.0811,-0.5 87.0811,-18.5 127.534,-18.5 127.534,-0.5 87.0811,-0.5"/>
<text text-anchor="middle" x="107.308" y="-6.5" font-family="Helvetica,sans-Serif" font-size="10.00">string</text>
</g>
<!-- Node2&#45;&gt;Node4 -->
<g id="edge3" class="edge"><title>Node2&#45;&gt;Node4</title>
<path fill="none" stroke="midnightblue" d="M78.6201,-55.2188C83.4387,-47.7074 90.6854,-36.411 96.6897,-27.0515"/>
<polygon fill="midnightblue" stroke="midnightblue" points="99.6901,-28.8564 102.144,-18.5496 93.7982,-25.0767 99.6901,-28.8564"/>
</g>
</g>
</svg>
