<?xml version="1.0" encoding="UTF-8" standalone="no"?>
<!DOCTYPE svg PUBLIC "-//W3C//DTD SVG 1.1//EN"
 "http://www.w3.org/Graphics/SVG/1.1/DTD/svg11.dtd">
<!-- Generated by graphviz version 2.38.0 (20140413.2041)
 -->
<!-- Title: Apple/OS X/Device.mm Pages: 1 -->
<!--zoomable 137 -->
<svg id="main" version="1.1" xmlns="http://www.w3.org/2000/svg" xmlns:xlink="http://www.w3.org/1999/xlink" xml:space="preserve" onload="init(evt)">
<style type="text/css"><![CDATA[
.edge:hover path { stroke: red; }
.edge:hover polygon { stroke: red; fill: red; }
]]></style>
<script type="text/javascript"><![CDATA[
var edges = document.getElementsByTagName('g');
if (edges && edges.length) {
  for (var i=0;i<edges.length;i++) {
    if (edges[i].id.substr(0,4)=='edge') {
      edges[i].setAttribute('class','edge');
    }
  }
}
]]></script>
        <defs>
                <circle id="rim" cx="0" cy="0" r="7"/>
                <circle id="rim2" cx="0" cy="0" r="3.5"/>
                <g id="zoomPlus">
                        <use xlink:href="#rim" fill="#404040">
                                <set attributeName="fill" to="#808080" begin="zoomplus.mouseover" end="zoomplus.mouseout"/>
                        </use>
                        <path d="M-4,0h8M0,-4v8" fill="none" stroke="white" stroke-width="1.5" pointer-events="none"/>
                </g>
                <g id="zoomMin">
                        <use xlink:href="#rim" fill="#404040">
                                <set attributeName="fill" to="#808080" begin="zoomminus.mouseover" end="zoomminus.mouseout"/>
                        </use>
                        <path d="M-4,0h8" fill="none" stroke="white" stroke-width="1.5" pointer-events="none"/>
                </g>
                <g id="dirArrow">
                        <path fill="none" stroke="white" stroke-width="1.5" d="M0,-3.0v7 M-2.5,-0.5L0,-3.0L2.5,-0.5"/>
                </g>
               <g id="resetDef">
                       <use xlink:href="#rim2" fill="#404040">
                               <set attributeName="fill" to="#808080" begin="reset.mouseover" end="reset.mouseout"/>
                       </use>
               </g>
        </defs>

<script type="text/javascript">
var viewWidth = 532;
var viewHeight = 137;
var sectionId = 'dynsection-0';
</script>
<script xlink:href="svgpan.js"/>
<svg id="graph" class="graph">
<g id="viewport">
<title>Apple/OS X/Device.mm</title>
<polygon fill="white" stroke="none" points="-4,4 -4,-133 528.355,-133 528.355,4 -4,4"/>
<!-- Node1 -->
<g id="node1" class="node"><title>Node1</title>
<polygon fill="#bfbfbf" stroke="black" points="260.833,-110.5 260.833,-128.5 381.867,-128.5 381.867,-110.5 260.833,-110.5"/>
<text text-anchor="middle" x="321.35" y="-116.5" font-family="Helvetica,sans-Serif" font-size="10.00">Apple/OS X/Device.mm</text>
</g>
<!-- Node2 -->
<g id="node2" class="node"><title>Node2</title>
<g id="a_node2"><a xlink:href="_device_8hpp.html" target="_top" xlink:title="../../Device.hpp">
<polygon fill="white" stroke="black" points="0,-55.5 0,-73.5 82.6992,-73.5 82.6992,-55.5 0,-55.5"/>
<text text-anchor="middle" x="41.3496" y="-61.5" font-family="Helvetica,sans-Serif" font-size="10.00">../../Device.hpp</text>
</a>
</g>
</g>
<!-- Node1&#45;&gt;Node2 -->
<g id="edge1" class="edge"><title>Node1&#45;&gt;Node2</title>
<path fill="none" stroke="midnightblue" d="M278.824,-110.45C228.952,-101.01 146.318,-85.369 92.8585,-75.2499"/>
<polygon fill="midnightblue" stroke="midnightblue" points="93.3789,-71.7863 82.9024,-73.3654 92.077,-78.6642 93.3789,-71.7863"/>
</g>
<!-- Node5 -->
<g id="node5" class="node"><title>Node5</title>
<polygon fill="white" stroke="#bfbfbf" points="100.328,-55.5 100.328,-73.5 186.372,-73.5 186.372,-55.5 100.328,-55.5"/>
<text text-anchor="middle" x="143.35" y="-61.5" font-family="Helvetica,sans-Serif" font-size="10.00">AppKit/AppKit.h</text>
</g>
<!-- Node1&#45;&gt;Node5 -->
<g id="edge4" class="edge"><title>Node1&#45;&gt;Node5</title>
<path fill="none" stroke="midnightblue" d="M294.315,-110.45C263.908,-101.396 214.342,-86.6382 180.355,-76.5185"/>
<polygon fill="midnightblue" stroke="midnightblue" points="180.929,-73.0376 170.346,-73.5383 178.932,-79.7466 180.929,-73.0376"/>
</g>
<!-- Node6 -->
<g id="node6" class="node"><title>Node6</title>
<polygon fill="white" stroke="#bfbfbf" points="335.751,-0.5 335.751,-18.5 462.948,-18.5 462.948,-0.5 335.751,-0.5"/>
<text text-anchor="middle" x="399.35" y="-6.5" font-family="Helvetica,sans-Serif" font-size="10.00">Foundation/Foundation.h</text>
</g>
<!-- Node1&#45;&gt;Node6 -->
<g id="edge5" class="edge"><title>Node1&#45;&gt;Node6</title>
<path fill="none" stroke="midnightblue" d="M382.222,-112.98C433.627,-106.909 501.493,-95.0895 518.35,-74 539.758,-47.2158 497.744,-30.297 457.856,-20.7206"/>
<polygon fill="midnightblue" stroke="midnightblue" points="458.597,-17.2997 448.07,-18.5002 457.048,-24.1262 458.597,-17.2997"/>
</g>
<!-- Node7 -->
<g id="node7" class="node"><title>Node7</title>
<polygon fill="white" stroke="#bfbfbf" points="337.892,-55.5 337.892,-73.5 422.808,-73.5 422.808,-55.5 337.892,-55.5"/>
<text text-anchor="middle" x="380.35" y="-61.5" font-family="Helvetica,sans-Serif" font-size="10.00">IOKit/IOKitLib.h</text>
</g>
<!-- Node1&#45;&gt;Node7 -->
<g id="edge6" class="edge"><title>Node1&#45;&gt;Node7</title>
<path fill="none" stroke="midnightblue" d="M330.31,-110.45C339.147,-102.512 352.866,-90.1891 363.705,-80.4519"/>
<polygon fill="midnightblue" stroke="midnightblue" points="366.204,-82.9118 371.304,-73.6253 361.526,-77.7043 366.204,-82.9118"/>
</g>
<!-- Node8 -->
<g id="node8" class="node"><title>Node8</title>
<g id="a_node8"><a xlink:href="_log_8hpp.html" target="_top" xlink:title="../../Log.hpp">
<polygon fill="white" stroke="black" points="440.941,-55.5 440.941,-73.5 509.758,-73.5 509.758,-55.5 440.941,-55.5"/>
<text text-anchor="middle" x="475.35" y="-61.5" font-family="Helvetica,sans-Serif" font-size="10.00">../../Log.hpp</text>
</a>
</g>
</g>
<!-- Node1&#45;&gt;Node8 -->
<g id="edge7" class="edge"><title>Node1&#45;&gt;Node8</title>
<path fill="none" stroke="midnightblue" d="M344.739,-110.45C370.706,-101.514 412.823,-87.0189 442.186,-76.9134"/>
<polygon fill="midnightblue" stroke="midnightblue" points="443.676,-80.1021 451.993,-73.5383 441.398,-73.4831 443.676,-80.1021"/>
</g>
<!-- Node9 -->
<g id="node9" class="node"><title>Node9</title>
<g id="a_node9"><a xlink:href="_c_p_p_utils_8h.html" target="_top" xlink:title="../Common/CPPUtils.h">
<polygon fill="white" stroke="black" points="204.337,-55.5 204.337,-73.5 320.362,-73.5 320.362,-55.5 204.337,-55.5"/>
<text text-anchor="middle" x="262.35" y="-61.5" font-family="Helvetica,sans-Serif" font-size="10.00">../Common/CPPUtils.h</text>
</a>
</g>
</g>
<!-- Node1&#45;&gt;Node9 -->
<g id="edge8" class="edge"><title>Node1&#45;&gt;Node9</title>
<path fill="none" stroke="midnightblue" d="M312.389,-110.45C303.552,-102.512 289.834,-90.1891 278.994,-80.4519"/>
<polygon fill="midnightblue" stroke="midnightblue" points="281.173,-77.7043 271.395,-73.6253 276.495,-82.9118 281.173,-77.7043"/>
</g>
<!-- Node3 -->
<g id="node3" class="node"><title>Node3</title>
<polygon fill="white" stroke="#bfbfbf" points="115.123,-0.5 115.123,-18.5 155.576,-18.5 155.576,-0.5 115.123,-0.5"/>
<text text-anchor="middle" x="135.35" y="-6.5" font-family="Helvetica,sans-Serif" font-size="10.00">string</text>
</g>
<!-- Node2&#45;&gt;Node3 -->
<g id="edge2" class="edge"><title>Node2&#45;&gt;Node3</title>
<path fill="none" stroke="midnightblue" d="M55.6262,-55.4504C70.5334,-47.0453 94.1596,-33.7241 111.829,-23.7618"/>
<polygon fill="midnightblue" stroke="midnightblue" points="113.947,-26.5856 120.939,-18.6253 110.509,-20.488 113.947,-26.5856"/>
</g>
<!-- Node4 -->
<g id="node4" class="node"><title>Node4</title>
<polygon fill="white" stroke="#bfbfbf" points="10.5566,-0.5 10.5566,-18.5 72.1426,-18.5 72.1426,-0.5 10.5566,-0.5"/>
<text text-anchor="middle" x="41.3496" y="-6.5" font-family="Helvetica,sans-Serif" font-size="10.00">cocos2d.h</text>
</g>
<!-- Node2&#45;&gt;Node4 -->
<g id="edge3" class="edge"><title>Node2&#45;&gt;Node4</title>
<path fill="none" stroke="midnightblue" d="M41.3496,-55.2188C41.3496,-48.1769 41.3496,-37.8083 41.3496,-28.8277"/>
<polygon fill="midnightblue" stroke="midnightblue" points="44.8497,-28.5495 41.3496,-18.5496 37.8497,-28.5496 44.8497,-28.5495"/>
</g>
<!-- Node9&#45;&gt;Node3 -->
<g id="edge10" class="edge"><title>Node9&#45;&gt;Node3</title>
<path fill="none" stroke="midnightblue" d="M243.061,-55.4504C222.081,-46.6951 188.319,-32.6055 164.187,-22.5346"/>
<polygon fill="midnightblue" stroke="midnightblue" points="165.396,-19.2467 154.82,-18.6253 162.7,-25.7067 165.396,-19.2467"/>
</g>
<!-- Node9&#45;&gt;Node6 -->
<g id="edge9" class="edge"><title>Node9&#45;&gt;Node6</title>
<path fill="none" stroke="midnightblue" d="M283.157,-55.4504C305.99,-46.6173 342.858,-32.3546 368.933,-22.267"/>
<polygon fill="midnightblue" stroke="midnightblue" points="370.283,-25.4977 378.346,-18.6253 367.757,-18.9692 370.283,-25.4977"/>
</g>
</g>
</svg>
        <g id="navigator" transform="translate(0 0)" fill="#404254">
                <rect fill="#f2f5e9" fill-opacity="0.5" stroke="#606060" stroke-width=".5" x="0" y="0" width="60" height="60"/>
                <use id="zoomplus" xlink:href="#zoomPlus" x="17" y="9" onmousedown="handleZoom(evt,'in')"/>
                <use id="zoomminus" xlink:href="#zoomMin" x="42" y="9" onmousedown="handleZoom(evt,'out')"/>
                <use id="reset" xlink:href="#resetDef" x="30" y="36" onmousedown="handleReset()"/>
                <g id="arrowUp" xlink:href="#dirArrow" transform="translate(30 24)" onmousedown="handlePan(0,-1)">
                  <use xlink:href="#rim" fill="#404040">
                        <set attributeName="fill" to="#808080" begin="arrowUp.mouseover" end="arrowUp.mouseout"/>
                  </use>
                  <path fill="none" stroke="white" stroke-width="1.5" d="M0,-3.0v7 M-2.5,-0.5L0,-3.0L2.5,-0.5"/>
                </g>
                <g id="arrowRight" xlink:href="#dirArrow" transform="rotate(90) translate(36 -43)" onmousedown="handlePan(1,0)">
                  <use xlink:href="#rim" fill="#404040">
                        <set attributeName="fill" to="#808080" begin="arrowRight.mouseover" end="arrowRight.mouseout"/>
                  </use>
                  <path fill="none" stroke="white" stroke-width="1.5" d="M0,-3.0v7 M-2.5,-0.5L0,-3.0L2.5,-0.5"/>
                </g>
                <g id="arrowDown" xlink:href="#dirArrow" transform="rotate(180) translate(-30 -48)" onmousedown="handlePan(0,1)">
                  <use xlink:href="#rim" fill="#404040">
                        <set attributeName="fill" to="#808080" begin="arrowDown.mouseover" end="arrowDown.mouseout"/>
                  </use>
                  <path fill="none" stroke="white" stroke-width="1.5" d="M0,-3.0v7 M-2.5,-0.5L0,-3.0L2.5,-0.5"/>
                </g>
                <g id="arrowLeft" xlink:href="#dirArrow" transform="rotate(270) translate(-36 17)" onmousedown="handlePan(-1,0)">
                  <use xlink:href="#rim" fill="#404040">
                        <set attributeName="fill" to="#808080" begin="arrowLeft.mouseover" end="arrowLeft.mouseout"/>
                  </use>
                  <path fill="none" stroke="white" stroke-width="1.5" d="M0,-3.0v7 M-2.5,-0.5L0,-3.0L2.5,-0.5"/>
                </g>
        </g>
        <svg viewBox="0 0 15 15" width="100%" height="30px" preserveAspectRatio="xMaxYMin meet">
         <g id="arrow_out" transform="scale(0.3 0.3)">
          <a xlink:href="_o_s_01_x_2_device_8mm__incl_org.svg" target="_base">
           <rect id="button" ry="5" rx="5" y="6" x="6" height="38" width="38"
                fill="#f2f5e9" fill-opacity="0.5" stroke="#606060" stroke-width="1.0"/>
           <path id="arrow"
             d="M 11.500037,31.436501 C 11.940474,20.09759 22.043105,11.32322 32.158766,21.979434 L 37.068811,17.246167 C 37.068811,17.246167 37.088388,32 37.088388,32 L 22.160133,31.978069 C 22.160133,31.978069 26.997745,27.140456 26.997745,27.140456 C 18.528582,18.264221 13.291696,25.230495 11.500037,31.436501 z"
             style="fill:#404040;"/>
          </a>
         </g>
        </svg>
</svg>
