<?xml version="1.0" encoding="UTF-8" standalone="no"?>
<!DOCTYPE svg PUBLIC "-//W3C//DTD SVG 1.1//EN"
 "http://www.w3.org/Graphics/SVG/1.1/DTD/svg11.dtd">
<!-- Generated by graphviz version 2.38.0 (20140413.2041)
 -->
<!-- Title: copy_mac_address Pages: 1 -->
<svg width="476pt" height="251pt"
 viewBox="0.00 0.00 475.92 251.00" xmlns="http://www.w3.org/2000/svg" xmlns:xlink="http://www.w3.org/1999/xlink">
<g id="graph0" class="graph" transform="scale(1 1) rotate(0) translate(4 247)">
<title>copy_mac_address</title>
<polygon fill="white" stroke="none" points="-4,4 -4,-247 471.92,-247 471.92,4 -4,4"/>
<!-- Node1 -->
<g id="node1" class="node"><title>Node1</title>
<polygon fill="#bfbfbf" stroke="black" points="0,-113.5 0,-131.5 102.714,-131.5 102.714,-113.5 0,-113.5"/>
<text text-anchor="middle" x="51.3569" y="-119.5" font-family="Helvetica,sans-Serif" font-size="10.00">copy_mac_address</text>
</g>
<!-- Node2 -->
<g id="node2" class="node"><title>Node2</title>
<g id="a_node2"><a xlink:href="namespace_m_k_1_1_device.html#a7c83a89bef610abaa7ada09d38c2f3fb" target="_top" xlink:title="Returns current platform. ">
<polygon fill="white" stroke="black" points="153.726,-224.5 153.726,-242.5 294.76,-242.5 294.76,-224.5 153.726,-224.5"/>
<text text-anchor="middle" x="224.243" y="-230.5" font-family="Helvetica,sans-Serif" font-size="10.00">MK::Device::currentPlatform</text>
</a>
</g>
</g>
<!-- Node1&#45;&gt;Node2 -->
<g id="edge1" class="edge"><title>Node1&#45;&gt;Node2</title>
<path fill="none" stroke="midnightblue" d="M57.9878,-131.629C70.174,-150.554 100.962,-194.079 138.714,-215.5 142.384,-217.583 146.268,-219.425 150.275,-221.054"/>
<polygon fill="midnightblue" stroke="midnightblue" points="149.209,-224.39 159.803,-224.484 151.579,-217.804 149.209,-224.39"/>
</g>
<!-- Node3 -->
<g id="node3" class="node"><title>Node3</title>
<g id="a_node3"><a xlink:href="namespace_m_k_1_1_device.html#a3df17973cee66e7dbaad474f93e2a544" target="_top" xlink:title="Returns whether this device has powerful hardware or not. ">
<polygon fill="white" stroke="black" points="138.714,-187.5 138.714,-205.5 309.772,-205.5 309.772,-187.5 138.714,-187.5"/>
<text text-anchor="middle" x="224.243" y="-193.5" font-family="Helvetica,sans-Serif" font-size="10.00">MK::Device::hasPowerfulHardware</text>
</a>
</g>
</g>
<!-- Node1&#45;&gt;Node3 -->
<g id="edge2" class="edge"><title>Node1&#45;&gt;Node3</title>
<path fill="none" stroke="midnightblue" d="M63.3379,-131.539C79.0559,-144.012 109.327,-166.332 138.714,-178.5 144.445,-180.873 150.53,-182.949 156.705,-184.762"/>
<polygon fill="midnightblue" stroke="midnightblue" points="155.877,-188.164 166.444,-187.4 157.707,-181.407 155.877,-188.164"/>
</g>
<!-- Node4 -->
<g id="node4" class="node"><title>Node4</title>
<g id="a_node4"><a xlink:href="_c_p_p_utils_8h.html#afdab0150d60cda7674034a9e4e4dd484" target="_top" xlink:title="Returns NSString with hexadecimal representation of given NSData. ">
<polygon fill="white" stroke="black" points="184.563,-150.5 184.563,-168.5 263.923,-168.5 263.923,-150.5 184.563,-150.5"/>
<text text-anchor="middle" x="224.243" y="-156.5" font-family="Helvetica,sans-Serif" font-size="10.00">NSDataToHex</text>
</a>
</g>
</g>
<!-- Node1&#45;&gt;Node4 -->
<g id="edge3" class="edge"><title>Node1&#45;&gt;Node4</title>
<path fill="none" stroke="midnightblue" d="M93.1984,-131.545C107.58,-134.715 123.86,-138.285 138.714,-141.5 150.283,-144.004 162.749,-146.675 174.461,-149.171"/>
<polygon fill="midnightblue" stroke="midnightblue" points="174.007,-152.653 184.517,-151.311 175.464,-145.806 174.007,-152.653"/>
</g>
<!-- Node6 -->
<g id="node6" class="node"><title>Node6</title>
<g id="a_node6"><a xlink:href="namespace_m_k_1_1_device.html#a15ac13199dceddf6370f09acf2a192ad" target="_top" xlink:title="Retuns this device&#39;s screen size, in pixel. ">
<polygon fill="white" stroke="black" points="157.054,-113.5 157.054,-131.5 291.433,-131.5 291.433,-113.5 157.054,-113.5"/>
<text text-anchor="middle" x="224.243" y="-119.5" font-family="Helvetica,sans-Serif" font-size="10.00">MK::Device::pxScreenSize</text>
</a>
</g>
</g>
<!-- Node1&#45;&gt;Node6 -->
<g id="edge5" class="edge"><title>Node1&#45;&gt;Node6</title>
<path fill="none" stroke="midnightblue" d="M103.166,-122.5C116.835,-122.5 131.928,-122.5 146.665,-122.5"/>
<polygon fill="midnightblue" stroke="midnightblue" points="146.789,-126 156.789,-122.5 146.789,-119 146.789,-126"/>
</g>
<!-- Node7 -->
<g id="node7" class="node"><title>Node7</title>
<g id="a_node7"><a xlink:href="namespace_m_k_1_1_device.html#a3afd74ae8409bd7e0267b5141e15197f" target="_top" xlink:title="Retuns this device&#39;s screen size, in points. ">
<polygon fill="white" stroke="black" points="345.772,-94.5 345.772,-112.5 467.92,-112.5 467.92,-94.5 345.772,-94.5"/>
<text text-anchor="middle" x="406.846" y="-100.5" font-family="Helvetica,sans-Serif" font-size="10.00">MK::Device::screenSize</text>
</a>
</g>
</g>
<!-- Node1&#45;&gt;Node7 -->
<g id="edge7" class="edge"><title>Node1&#45;&gt;Node7</title>
<path fill="none" stroke="midnightblue" d="M87.8152,-113.426C103.327,-109.895 121.807,-106.275 138.714,-104.5 205.227,-97.5159 281.57,-98.0829 335.564,-99.9099"/>
<polygon fill="midnightblue" stroke="midnightblue" points="335.596,-103.413 345.716,-100.277 335.849,-96.4178 335.596,-103.413"/>
</g>
<!-- Node8 -->
<g id="node8" class="node"><title>Node8</title>
<g id="a_node8"><a xlink:href="namespace_m_k_1_1_device.html#a7f05d5d0e1b292c8fd29bdea674fcfe3" target="_top" xlink:title="Returns UUID of this device. ">
<polygon fill="white" stroke="black" points="175.682,-37.5 175.682,-55.5 272.805,-55.5 272.805,-37.5 175.682,-37.5"/>
<text text-anchor="middle" x="224.243" y="-43.5" font-family="Helvetica,sans-Serif" font-size="10.00">MK::Device::UUID</text>
</a>
</g>
</g>
<!-- Node1&#45;&gt;Node8 -->
<g id="edge8" class="edge"><title>Node1&#45;&gt;Node8</title>
<path fill="none" stroke="midnightblue" d="M64.9446,-113.446C81.2659,-102.061 110.939,-82.5496 138.714,-70.5 149.538,-65.8041 161.538,-61.755 173.014,-58.3906"/>
<polygon fill="midnightblue" stroke="midnightblue" points="174.239,-61.682 182.922,-55.6111 172.349,-54.9422 174.239,-61.682"/>
</g>
<!-- Node9 -->
<g id="node9" class="node"><title>Node9</title>
<g id="a_node9"><a xlink:href="namespace_m_k_1_1_log.html#a370b710e345cbc5eb6c2a4f27aeb504f" target="_top" xlink:title="Logs a warning message that will appear also in release builds. ">
<polygon fill="white" stroke="black" points="177.334,-0.5 177.334,-18.5 271.152,-18.5 271.152,-0.5 177.334,-0.5"/>
<text text-anchor="middle" x="224.243" y="-6.5" font-family="Helvetica,sans-Serif" font-size="10.00">MK::Log::warning</text>
</a>
</g>
</g>
<!-- Node1&#45;&gt;Node9 -->
<g id="edge9" class="edge"><title>Node1&#45;&gt;Node9</title>
<path fill="none" stroke="midnightblue" d="M57.9817,-113.306C70.1564,-94.2407 100.924,-50.3596 138.714,-28.5 147.405,-23.4728 157.31,-19.7754 167.206,-17.0562"/>
<polygon fill="midnightblue" stroke="midnightblue" points="168.17,-20.4237 177.054,-14.65 166.509,-13.6238 168.17,-20.4237"/>
</g>
<!-- Node5 -->
<g id="node5" class="node"><title>Node5</title>
<g id="a_node5"><a xlink:href="_c_p_p_utils_8mm.html#a691499df31ae544646f68e2b6b75ee16" target="_top" xlink:title="itoh">
<polygon fill="white" stroke="black" points="390.785,-150.5 390.785,-168.5 422.908,-168.5 422.908,-150.5 390.785,-150.5"/>
<text text-anchor="middle" x="406.846" y="-156.5" font-family="Helvetica,sans-Serif" font-size="10.00">itoh</text>
</a>
</g>
</g>
<!-- Node4&#45;&gt;Node5 -->
<g id="edge4" class="edge"><title>Node4&#45;&gt;Node5</title>
<path fill="none" stroke="midnightblue" d="M263.987,-159.5C299.25,-159.5 350.286,-159.5 380.564,-159.5"/>
<polygon fill="midnightblue" stroke="midnightblue" points="380.712,-163 390.712,-159.5 380.712,-156 380.712,-163"/>
</g>
<!-- Node6&#45;&gt;Node7 -->
<g id="edge6" class="edge"><title>Node6&#45;&gt;Node7</title>
<path fill="none" stroke="midnightblue" d="M291.468,-115.533C305.725,-114.033 320.847,-112.442 335.263,-110.926"/>
<polygon fill="midnightblue" stroke="midnightblue" points="336.035,-114.364 345.614,-109.837 335.303,-107.402 336.035,-114.364"/>
</g>
</g>
</svg>
