<?xml version="1.0" encoding="UTF-8" standalone="no"?>
<!DOCTYPE svg PUBLIC "-//W3C//DTD SVG 1.1//EN"
 "http://www.w3.org/Graphics/SVG/1.1/DTD/svg11.dtd">
<!-- Generated by graphviz version 2.38.0 (20140413.2041)
 -->
<!-- Title: Apple/OS X/AdKit.mm Pages: 1 -->
<svg width="330pt" height="137pt"
 viewBox="0.00 0.00 329.81 137.00" xmlns="http://www.w3.org/2000/svg" xmlns:xlink="http://www.w3.org/1999/xlink">
<g id="graph0" class="graph" transform="scale(1 1) rotate(0) translate(4 133)">
<title>Apple/OS X/AdKit.mm</title>
<polygon fill="white" stroke="none" points="-4,4 -4,-133 325.812,-133 325.812,4 -4,4"/>
<!-- Node1 -->
<g id="node1" class="node"><title>Node1</title>
<polygon fill="#bfbfbf" stroke="black" points="137.219,-110.5 137.219,-128.5 251.588,-128.5 251.588,-110.5 137.219,-110.5"/>
<text text-anchor="middle" x="194.404" y="-116.5" font-family="Helvetica,sans-Serif" font-size="10.00">Apple/OS X/AdKit.mm</text>
</g>
<!-- Node2 -->
<g id="node2" class="node"><title>Node2</title>
<g id="a_node2"><a xlink:href="_ad_kit_8hpp.html" target="_top" xlink:title="../../AdKit.hpp">
<polygon fill="white" stroke="black" points="59.3867,-55.5 59.3867,-73.5 135.421,-73.5 135.421,-55.5 59.3867,-55.5"/>
<text text-anchor="middle" x="97.4038" y="-61.5" font-family="Helvetica,sans-Serif" font-size="10.00">../../AdKit.hpp</text>
</a>
</g>
</g>
<!-- Node1&#45;&gt;Node2 -->
<g id="edge1" class="edge"><title>Node1&#45;&gt;Node2</title>
<path fill="none" stroke="midnightblue" d="M179.672,-110.45C164.146,-101.968 139.456,-88.477 121.171,-78.486"/>
<polygon fill="midnightblue" stroke="midnightblue" points="122.728,-75.3488 112.275,-73.6253 119.372,-81.4917 122.728,-75.3488"/>
</g>
<!-- Node6 -->
<g id="node6" class="node"><title>Node6</title>
<g id="a_node6"><a xlink:href="___ad_kit_8hpp.html" target="_top" xlink:title="../../_AdKit.hpp">
<polygon fill="white" stroke="black" points="153.606,-55.5 153.606,-73.5 235.202,-73.5 235.202,-55.5 153.606,-55.5"/>
<text text-anchor="middle" x="194.404" y="-61.5" font-family="Helvetica,sans-Serif" font-size="10.00">../../_AdKit.hpp</text>
</a>
</g>
</g>
<!-- Node1&#45;&gt;Node6 -->
<g id="edge5" class="edge"><title>Node1&#45;&gt;Node6</title>
<path fill="none" stroke="midnightblue" d="M194.404,-110.219C194.404,-103.177 194.404,-92.8083 194.404,-83.8277"/>
<polygon fill="midnightblue" stroke="midnightblue" points="197.904,-83.5495 194.404,-73.5496 190.904,-83.5496 197.904,-83.5495"/>
</g>
<!-- Node7 -->
<g id="node7" class="node"><title>Node7</title>
<g id="a_node7"><a xlink:href="_log_8hpp.html" target="_top" xlink:title="../../Log.hpp">
<polygon fill="white" stroke="black" points="252.995,-55.5 252.995,-73.5 321.812,-73.5 321.812,-55.5 252.995,-55.5"/>
<text text-anchor="middle" x="287.404" y="-61.5" font-family="Helvetica,sans-Serif" font-size="10.00">../../Log.hpp</text>
</a>
</g>
</g>
<!-- Node1&#45;&gt;Node7 -->
<g id="edge6" class="edge"><title>Node1&#45;&gt;Node7</title>
<path fill="none" stroke="midnightblue" d="M208.529,-110.45C223.277,-102.045 246.652,-88.7241 264.133,-78.7618"/>
<polygon fill="midnightblue" stroke="midnightblue" points="266.191,-81.6176 273.146,-73.6253 262.725,-75.5358 266.191,-81.6176"/>
</g>
<!-- Node3 -->
<g id="node3" class="node"><title>Node3</title>
<polygon fill="white" stroke="#bfbfbf" points="0,-0.5 0,-18.5 58.8076,-18.5 58.8076,-0.5 0,-0.5"/>
<text text-anchor="middle" x="29.4038" y="-6.5" font-family="Helvetica,sans-Serif" font-size="10.00">functional</text>
</g>
<!-- Node2&#45;&gt;Node3 -->
<g id="edge2" class="edge"><title>Node2&#45;&gt;Node3</title>
<path fill="none" stroke="midnightblue" d="M87.0761,-55.4504C76.6916,-47.3566 60.4582,-34.7042 47.8564,-24.8822"/>
<polygon fill="midnightblue" stroke="midnightblue" points="49.8676,-22.0122 39.8287,-18.6253 45.5644,-27.5333 49.8676,-22.0122"/>
</g>
<!-- Node4 -->
<g id="node4" class="node"><title>Node4</title>
<polygon fill="white" stroke="#bfbfbf" points="77.1772,-0.5 77.1772,-18.5 117.63,-18.5 117.63,-0.5 77.1772,-0.5"/>
<text text-anchor="middle" x="97.4038" y="-6.5" font-family="Helvetica,sans-Serif" font-size="10.00">string</text>
</g>
<!-- Node2&#45;&gt;Node4 -->
<g id="edge3" class="edge"><title>Node2&#45;&gt;Node4</title>
<path fill="none" stroke="midnightblue" d="M97.4038,-55.2188C97.4038,-48.1769 97.4038,-37.8083 97.4038,-28.8277"/>
<polygon fill="midnightblue" stroke="midnightblue" points="100.904,-28.5495 97.4038,-18.5496 93.9039,-28.5496 100.904,-28.5495"/>
</g>
<!-- Node5 -->
<g id="node5" class="node"><title>Node5</title>
<polygon fill="white" stroke="#bfbfbf" points="135.788,-0.5 135.788,-18.5 179.02,-18.5 179.02,-0.5 135.788,-0.5"/>
<text text-anchor="middle" x="157.404" y="-6.5" font-family="Helvetica,sans-Serif" font-size="10.00">vector</text>
</g>
<!-- Node2&#45;&gt;Node5 -->
<g id="edge4" class="edge"><title>Node2&#45;&gt;Node5</title>
<path fill="none" stroke="midnightblue" d="M106.517,-55.4504C115.503,-47.5123 129.454,-35.1891 140.477,-25.4519"/>
<polygon fill="midnightblue" stroke="midnightblue" points="143.028,-27.8689 148.205,-18.6253 138.393,-22.6225 143.028,-27.8689"/>
</g>
</g>
</svg>
