<?xml version="1.0" encoding="UTF-8" standalone="no"?>
<!DOCTYPE svg PUBLIC "-//W3C//DTD SVG 1.1//EN"
 "http://www.w3.org/Graphics/SVG/1.1/DTD/svg11.dtd">
<!-- Generated by graphviz version 2.38.0 (20140413.2041)
 -->
<!-- Title: Range.hpp Pages: 1 -->
<svg width="615pt" height="192pt"
 viewBox="0.00 0.00 614.56 192.00" xmlns="http://www.w3.org/2000/svg" xmlns:xlink="http://www.w3.org/1999/xlink">
<g id="graph0" class="graph" transform="scale(1 1) rotate(0) translate(4 188)">
<title>Range.hpp</title>
<polygon fill="white" stroke="none" points="-4,4 -4,-188 610.561,-188 610.561,4 -4,4"/>
<!-- Node1 -->
<g id="node1" class="node"><title>Node1</title>
<polygon fill="#bfbfbf" stroke="black" points="133.382,-165.5 133.382,-183.5 198.312,-183.5 198.312,-165.5 133.382,-165.5"/>
<text text-anchor="middle" x="165.847" y="-171.5" font-family="Helvetica,sans-Serif" font-size="10.00">Range.hpp</text>
</g>
<!-- Node2 -->
<g id="node2" class="node"><title>Node2</title>
<polygon fill="white" stroke="#bfbfbf" points="153.781,-0.5 153.781,-18.5 215.914,-18.5 215.914,-0.5 153.781,-0.5"/>
<text text-anchor="middle" x="184.847" y="-6.5" font-family="Helvetica,sans-Serif" font-size="10.00">type_traits</text>
</g>
<!-- Node1&#45;&gt;Node2 -->
<g id="edge1" class="edge"><title>Node1&#45;&gt;Node2</title>
<path fill="none" stroke="midnightblue" d="M166.816,-165.193C169.751,-140.013 178.598,-64.1144 182.707,-28.8621"/>
<polygon fill="midnightblue" stroke="midnightblue" points="186.222,-28.9351 183.903,-18.5971 179.269,-28.1246 186.222,-28.9351"/>
</g>
<!-- Node3 -->
<g id="node3" class="node"><title>Node3</title>
<polygon fill="white" stroke="#bfbfbf" points="76.0542,-110.5 76.0542,-128.5 137.64,-128.5 137.64,-110.5 76.0542,-110.5"/>
<text text-anchor="middle" x="106.847" y="-116.5" font-family="Helvetica,sans-Serif" font-size="10.00">cocos2d.h</text>
</g>
<!-- Node1&#45;&gt;Node3 -->
<g id="edge2" class="edge"><title>Node1&#45;&gt;Node3</title>
<path fill="none" stroke="midnightblue" d="M156.886,-165.45C148.05,-157.512 134.331,-145.189 123.492,-135.452"/>
<polygon fill="midnightblue" stroke="midnightblue" points="125.671,-132.704 115.892,-128.625 120.993,-137.912 125.671,-132.704"/>
</g>
<!-- Node4 -->
<g id="node4" class="node"><title>Node4</title>
<g id="a_node4"><a xlink:href="_compiler_enhancements_8hpp.html" target="_top" xlink:title="CompilerEnhancements.hpp">
<polygon fill="white" stroke="black" points="376.756,-110.5 376.756,-128.5 518.938,-128.5 518.938,-110.5 376.756,-110.5"/>
<text text-anchor="middle" x="447.847" y="-116.5" font-family="Helvetica,sans-Serif" font-size="10.00">CompilerEnhancements.hpp</text>
</a>
</g>
</g>
<!-- Node1&#45;&gt;Node4 -->
<g id="edge3" class="edge"><title>Node1&#45;&gt;Node4</title>
<path fill="none" stroke="midnightblue" d="M198.472,-167.368C246.615,-158.32 337.205,-141.294 394.933,-130.445"/>
<polygon fill="midnightblue" stroke="midnightblue" points="395.779,-133.847 404.96,-128.56 394.485,-126.968 395.779,-133.847"/>
</g>
<!-- Node8 -->
<g id="node8" class="node"><title>Node8</title>
<g id="a_node8"><a xlink:href="_math_8hpp.html" target="_top" xlink:title="Math.hpp">
<polygon fill="white" stroke="black" points="0,-110.5 0,-128.5 57.6943,-128.5 57.6943,-110.5 0,-110.5"/>
<text text-anchor="middle" x="28.8472" y="-116.5" font-family="Helvetica,sans-Serif" font-size="10.00">Math.hpp</text>
</a>
</g>
</g>
<!-- Node1&#45;&gt;Node8 -->
<g id="edge8" class="edge"><title>Node1&#45;&gt;Node8</title>
<path fill="none" stroke="midnightblue" d="M145.04,-165.45C122.207,-156.617 85.3393,-142.355 59.2638,-132.267"/>
<polygon fill="midnightblue" stroke="midnightblue" points="60.4396,-128.969 49.8503,-128.625 57.9139,-135.498 60.4396,-128.969"/>
</g>
<!-- Node9 -->
<g id="node9" class="node"><title>Node9</title>
<g id="a_node9"><a xlink:href="_random_8hpp.html" target="_top" xlink:title="Random.hpp">
<polygon fill="white" stroke="black" points="217.217,-110.5 217.217,-128.5 290.478,-128.5 290.478,-110.5 217.217,-110.5"/>
<text text-anchor="middle" x="253.847" y="-116.5" font-family="Helvetica,sans-Serif" font-size="10.00">Random.hpp</text>
</a>
</g>
</g>
<!-- Node1&#45;&gt;Node9 -->
<g id="edge10" class="edge"><title>Node1&#45;&gt;Node9</title>
<path fill="none" stroke="midnightblue" d="M179.212,-165.45C193.039,-157.123 214.877,-143.97 231.367,-134.039"/>
<polygon fill="midnightblue" stroke="midnightblue" points="233.595,-136.783 240.356,-128.625 229.984,-130.786 233.595,-136.783"/>
</g>
<!-- Node5 -->
<g id="node5" class="node"><title>Node5</title>
<g id="a_node5"><a xlink:href="_android_2_compiler_enhancements_8hpp.html" target="_top" xlink:title="Android/CompilerEnhancements.hpp">
<polygon fill="white" stroke="black" points="427.133,-55.5 427.133,-73.5 606.561,-73.5 606.561,-55.5 427.133,-55.5"/>
<text text-anchor="middle" x="516.847" y="-61.5" font-family="Helvetica,sans-Serif" font-size="10.00">Android/CompilerEnhancements.hpp</text>
</a>
</g>
</g>
<!-- Node4&#45;&gt;Node5 -->
<g id="edge4" class="edge"><title>Node4&#45;&gt;Node5</title>
<path fill="none" stroke="midnightblue" d="M458.327,-110.45C468.864,-102.357 485.336,-89.7042 498.123,-79.8822"/>
<polygon fill="midnightblue" stroke="midnightblue" points="500.47,-82.4926 506.269,-73.6253 496.206,-76.9412 500.47,-82.4926"/>
</g>
<!-- Node5&#45;&gt;Node2 -->
<g id="edge7" class="edge"><title>Node5&#45;&gt;Node2</title>
<path fill="none" stroke="midnightblue" d="M466.424,-55.4504C400.747,-44.966 287.155,-26.8322 226.254,-17.1101"/>
<polygon fill="midnightblue" stroke="midnightblue" points="226.66,-13.6306 216.233,-15.5104 225.556,-20.5431 226.66,-13.6306"/>
</g>
<!-- Node6 -->
<g id="node6" class="node"><title>Node6</title>
<polygon fill="white" stroke="#bfbfbf" points="523.066,-0.5 523.066,-18.5 574.628,-18.5 574.628,-0.5 523.066,-0.5"/>
<text text-anchor="middle" x="548.847" y="-6.5" font-family="Helvetica,sans-Serif" font-size="10.00">sstream</text>
</g>
<!-- Node5&#45;&gt;Node6 -->
<g id="edge5" class="edge"><title>Node5&#45;&gt;Node6</title>
<path fill="none" stroke="midnightblue" d="M521.847,-55.2188C526.335,-47.7856 533.061,-36.646 538.677,-27.3446"/>
<polygon fill="midnightblue" stroke="midnightblue" points="541.815,-28.9193 543.987,-18.5496 535.822,-25.3012 541.815,-28.9193"/>
</g>
<!-- Node7 -->
<g id="node7" class="node"><title>Node7</title>
<polygon fill="white" stroke="#bfbfbf" points="464.621,-0.5 464.621,-18.5 505.074,-18.5 505.074,-0.5 464.621,-0.5"/>
<text text-anchor="middle" x="484.847" y="-6.5" font-family="Helvetica,sans-Serif" font-size="10.00">string</text>
</g>
<!-- Node5&#45;&gt;Node7 -->
<g id="edge6" class="edge"><title>Node5&#45;&gt;Node7</title>
<path fill="none" stroke="midnightblue" d="M511.847,-55.2188C507.359,-47.7856 500.633,-36.646 495.018,-27.3446"/>
<polygon fill="midnightblue" stroke="midnightblue" points="497.872,-25.3012 489.707,-18.5496 491.88,-28.9193 497.872,-25.3012"/>
</g>
<!-- Node8&#45;&gt;Node2 -->
<g id="edge9" class="edge"><title>Node8&#45;&gt;Node2</title>
<path fill="none" stroke="midnightblue" d="M40.5725,-110.382C66.9983,-92.0876 131.473,-47.4511 164.548,-24.5536"/>
<polygon fill="midnightblue" stroke="midnightblue" points="166.756,-27.2816 172.986,-18.7118 162.772,-21.5262 166.756,-27.2816"/>
</g>
<!-- Node9&#45;&gt;Node2 -->
<g id="edge13" class="edge"><title>Node9&#45;&gt;Node2</title>
<path fill="none" stroke="midnightblue" d="M247.962,-110.414C241.595,-101.583 231.23,-86.9679 222.847,-74 212.843,-58.5238 202.12,-40.4552 194.624,-27.5578"/>
<polygon fill="midnightblue" stroke="midnightblue" points="197.617,-25.7423 189.587,-18.8317 191.555,-29.2421 197.617,-25.7423"/>
</g>
<!-- Node10 -->
<g id="node10" class="node"><title>Node10</title>
<polygon fill="white" stroke="#bfbfbf" points="293.286,-55.5 293.286,-73.5 340.409,-73.5 340.409,-55.5 293.286,-55.5"/>
<text text-anchor="middle" x="316.847" y="-61.5" font-family="Helvetica,sans-Serif" font-size="10.00">iterator</text>
</g>
<!-- Node9&#45;&gt;Node10 -->
<g id="edge11" class="edge"><title>Node9&#45;&gt;Node10</title>
<path fill="none" stroke="midnightblue" d="M263.416,-110.45C272.944,-102.434 287.787,-89.9471 299.414,-80.1663"/>
<polygon fill="midnightblue" stroke="midnightblue" points="301.79,-82.7413 307.189,-73.6253 297.283,-77.3847 301.79,-82.7413"/>
</g>
<!-- Node11 -->
<g id="node11" class="node"><title>Node11</title>
<polygon fill="white" stroke="#bfbfbf" points="358.894,-55.5 358.894,-73.5 408.8,-73.5 408.8,-55.5 358.894,-55.5"/>
<text text-anchor="middle" x="383.847" y="-61.5" font-family="Helvetica,sans-Serif" font-size="10.00">random</text>
</g>
<!-- Node9&#45;&gt;Node11 -->
<g id="edge12" class="edge"><title>Node9&#45;&gt;Node11</title>
<path fill="none" stroke="midnightblue" d="M273.591,-110.45C295.162,-101.656 329.934,-87.4802 354.657,-77.4006"/>
<polygon fill="midnightblue" stroke="midnightblue" points="355.978,-80.6416 363.917,-73.6253 353.336,-74.1596 355.978,-80.6416"/>
</g>
<!-- Node12 -->
<g id="node12" class="node"><title>Node12</title>
<polygon fill="white" stroke="#bfbfbf" points="232.231,-55.5 232.231,-73.5 275.463,-73.5 275.463,-55.5 232.231,-55.5"/>
<text text-anchor="middle" x="253.847" y="-61.5" font-family="Helvetica,sans-Serif" font-size="10.00">vector</text>
</g>
<!-- Node9&#45;&gt;Node12 -->
<g id="edge14" class="edge"><title>Node9&#45;&gt;Node12</title>
<path fill="none" stroke="midnightblue" d="M253.847,-110.219C253.847,-103.177 253.847,-92.8083 253.847,-83.8277"/>
<polygon fill="midnightblue" stroke="midnightblue" points="257.347,-83.5495 253.847,-73.5496 250.347,-83.5496 257.347,-83.5495"/>
</g>
</g>
</svg>
