<?xml version="1.0" encoding="UTF-8" standalone="no"?>
<!DOCTYPE svg PUBLIC "-//W3C//DTD SVG 1.1//EN"
 "http://www.w3.org/Graphics/SVG/1.1/DTD/svg11.dtd">
<!-- Generated by graphviz version 2.38.0 (20140413.2041)
 -->
<!-- Title: Range.hpp Pages: 1 -->
<svg width="142pt" height="82pt"
 viewBox="0.00 0.00 141.96 82.00" xmlns="http://www.w3.org/2000/svg" xmlns:xlink="http://www.w3.org/1999/xlink">
<g id="graph0" class="graph" transform="scale(1 1) rotate(0) translate(4 78)">
<title>Range.hpp</title>
<polygon fill="white" stroke="none" points="-4,4 -4,-78 137.963,-78 137.963,4 -4,4"/>
<!-- Node1 -->
<g id="node1" class="node"><title>Node1</title>
<polygon fill="#bfbfbf" stroke="black" points="34.936,-55.5 34.936,-73.5 99.8667,-73.5 99.8667,-55.5 34.936,-55.5"/>
<text text-anchor="middle" x="67.4014" y="-61.5" font-family="Helvetica,sans-Serif" font-size="10.00">Range.hpp</text>
</g>
<!-- Node2 -->
<g id="node2" class="node"><title>Node2</title>
<g id="a_node2"><a xlink:href="_ad_kit_8cpp.html" target="_top" xlink:title="AdKit.cpp">
<polygon fill="white" stroke="black" points="0,-0.5 0,-18.5 58.8027,-18.5 58.8027,-0.5 0,-0.5"/>
<text text-anchor="middle" x="29.4014" y="-6.5" font-family="Helvetica,sans-Serif" font-size="10.00">AdKit.cpp</text>
</a>
</g>
</g>
<!-- Node1&#45;&gt;Node2 -->
<g id="edge1" class="edge"><title>Node1&#45;&gt;Node2</title>
<path fill="none" stroke="midnightblue" d="M55.5359,-46.9507C48.7556,-37.4941 40.5572,-26.0595 35.1727,-18.5496"/>
<polygon fill="midnightblue" stroke="midnightblue" points="52.7925,-49.1312 61.4639,-55.2188 58.4814,-45.0523 52.7925,-49.1312"/>
</g>
<!-- Node3 -->
<g id="node3" class="node"><title>Node3</title>
<g id="a_node3"><a xlink:href="_maw_kit_8h.html" target="_top" xlink:title="MawKit.h">
<polygon fill="white" stroke="black" points="76.8398,-0.5 76.8398,-18.5 133.963,-18.5 133.963,-0.5 76.8398,-0.5"/>
<text text-anchor="middle" x="105.401" y="-6.5" font-family="Helvetica,sans-Serif" font-size="10.00">MawKit.h</text>
</a>
</g>
</g>
<!-- Node1&#45;&gt;Node3 -->
<g id="edge2" class="edge"><title>Node1&#45;&gt;Node3</title>
<path fill="none" stroke="midnightblue" d="M79.2669,-46.9507C86.0471,-37.4941 94.2455,-26.0595 99.63,-18.5496"/>
<polygon fill="midnightblue" stroke="midnightblue" points="76.3213,-45.0523 73.3389,-55.2188 82.0102,-49.1312 76.3213,-45.0523"/>
</g>
</g>
</svg>
