<?xml version="1.0" encoding="UTF-8" standalone="no"?>
<!DOCTYPE svg PUBLIC "-//W3C//DTD SVG 1.1//EN"
 "http://www.w3.org/Graphics/SVG/1.1/DTD/svg11.dtd">
<!-- Generated by graphviz version 2.38.0 (20140413.2041)
 -->
<!-- Title: Random.hpp Pages: 1 -->
<svg width="265pt" height="82pt"
 viewBox="0.00 0.00 265.18 82.00" xmlns="http://www.w3.org/2000/svg" xmlns:xlink="http://www.w3.org/1999/xlink">
<g id="graph0" class="graph" transform="scale(1 1) rotate(0) translate(4 78)">
<title>Random.hpp</title>
<polygon fill="white" stroke="none" points="-4,4 -4,-78 261.177,-78 261.177,4 -4,4"/>
<!-- Node1 -->
<g id="node1" class="node"><title>Node1</title>
<polygon fill="#bfbfbf" stroke="black" points="90.9312,-55.5 90.9312,-73.5 164.192,-73.5 164.192,-55.5 90.9312,-55.5"/>
<text text-anchor="middle" x="127.562" y="-61.5" font-family="Helvetica,sans-Serif" font-size="10.00">Random.hpp</text>
</g>
<!-- Node2 -->
<g id="node2" class="node"><title>Node2</title>
<polygon fill="white" stroke="#bfbfbf" points="0,-0.5 0,-18.5 47.123,-18.5 47.123,-0.5 0,-0.5"/>
<text text-anchor="middle" x="23.5615" y="-6.5" font-family="Helvetica,sans-Serif" font-size="10.00">iterator</text>
</g>
<!-- Node1&#45;&gt;Node2 -->
<g id="edge1" class="edge"><title>Node1&#45;&gt;Node2</title>
<path fill="none" stroke="midnightblue" d="M111.766,-55.4504C94.9677,-46.8897 68.162,-33.2291 48.5056,-23.2119"/>
<polygon fill="midnightblue" stroke="midnightblue" points="50.0045,-20.0475 39.5055,-18.6253 46.8261,-26.2843 50.0045,-20.0475"/>
</g>
<!-- Node3 -->
<g id="node3" class="node"><title>Node3</title>
<polygon fill="white" stroke="#bfbfbf" points="65.6084,-0.5 65.6084,-18.5 115.515,-18.5 115.515,-0.5 65.6084,-0.5"/>
<text text-anchor="middle" x="90.5615" y="-6.5" font-family="Helvetica,sans-Serif" font-size="10.00">random</text>
</g>
<!-- Node1&#45;&gt;Node3 -->
<g id="edge2" class="edge"><title>Node1&#45;&gt;Node3</title>
<path fill="none" stroke="midnightblue" d="M121.78,-55.2188C116.482,-47.6292 108.486,-36.1753 101.913,-26.7597"/>
<polygon fill="midnightblue" stroke="midnightblue" points="104.775,-24.7457 96.181,-18.5496 99.0354,-28.7527 104.775,-24.7457"/>
</g>
<!-- Node4 -->
<g id="node4" class="node"><title>Node4</title>
<polygon fill="white" stroke="#bfbfbf" points="133.495,-0.5 133.495,-18.5 195.628,-18.5 195.628,-0.5 133.495,-0.5"/>
<text text-anchor="middle" x="164.562" y="-6.5" font-family="Helvetica,sans-Serif" font-size="10.00">type_traits</text>
</g>
<!-- Node1&#45;&gt;Node4 -->
<g id="edge3" class="edge"><title>Node1&#45;&gt;Node4</title>
<path fill="none" stroke="midnightblue" d="M133.343,-55.2188C138.641,-47.6292 146.637,-36.1753 153.21,-26.7597"/>
<polygon fill="midnightblue" stroke="midnightblue" points="156.088,-28.7527 158.942,-18.5496 150.348,-24.7457 156.088,-28.7527"/>
</g>
<!-- Node5 -->
<g id="node5" class="node"><title>Node5</title>
<polygon fill="white" stroke="#bfbfbf" points="213.946,-0.5 213.946,-18.5 257.177,-18.5 257.177,-0.5 213.946,-0.5"/>
<text text-anchor="middle" x="235.562" y="-6.5" font-family="Helvetica,sans-Serif" font-size="10.00">vector</text>
</g>
<!-- Node1&#45;&gt;Node5 -->
<g id="edge4" class="edge"><title>Node1&#45;&gt;Node5</title>
<path fill="none" stroke="midnightblue" d="M143.964,-55.4504C161.488,-46.8508 189.499,-33.1048 209.936,-23.0755"/>
<polygon fill="midnightblue" stroke="midnightblue" points="211.569,-26.1729 219.004,-18.6253 208.485,-19.8888 211.569,-26.1729"/>
</g>
</g>
</svg>
