<?xml version="1.0" encoding="UTF-8" standalone="no"?>
<!DOCTYPE svg PUBLIC "-//W3C//DTD SVG 1.1//EN"
 "http://www.w3.org/Graphics/SVG/1.1/DTD/svg11.dtd">
<!-- Generated by graphviz version 2.38.0 (20140413.2041)
 -->
<!-- Title: Random.hpp Pages: 1 -->
<svg width="347pt" height="137pt"
 viewBox="0.00 0.00 347.40 137.00" xmlns="http://www.w3.org/2000/svg" xmlns:xlink="http://www.w3.org/1999/xlink">
<g id="graph0" class="graph" transform="scale(1 1) rotate(0) translate(4 133)">
<title>Random.hpp</title>
<polygon fill="white" stroke="none" points="-4,4 -4,-133 343.403,-133 343.403,4 -4,4"/>
<!-- Node1 -->
<g id="node1" class="node"><title>Node1</title>
<polygon fill="#bfbfbf" stroke="black" points="100.771,-110.5 100.771,-128.5 174.032,-128.5 174.032,-110.5 100.771,-110.5"/>
<text text-anchor="middle" x="137.401" y="-116.5" font-family="Helvetica,sans-Serif" font-size="10.00">Random.hpp</text>
</g>
<!-- Node2 -->
<g id="node2" class="node"><title>Node2</title>
<g id="a_node2"><a xlink:href="_range_8hpp.html" target="_top" xlink:title="Range.hpp">
<polygon fill="white" stroke="black" points="12.936,-55.5 12.936,-73.5 77.8667,-73.5 77.8667,-55.5 12.936,-55.5"/>
<text text-anchor="middle" x="45.4014" y="-61.5" font-family="Helvetica,sans-Serif" font-size="10.00">Range.hpp</text>
</a>
</g>
</g>
<!-- Node1&#45;&gt;Node2 -->
<g id="edge1" class="edge"><title>Node1&#45;&gt;Node2</title>
<path fill="none" stroke="midnightblue" d="M114.536,-105.328C97.2783,-95.3856 74.1467,-82.0598 59.5057,-73.6253"/>
<polygon fill="midnightblue" stroke="midnightblue" points="113.016,-108.491 123.429,-110.45 116.511,-102.426 113.016,-108.491"/>
</g>
<!-- Node4 -->
<g id="node4" class="node"><title>Node4</title>
<g id="a_node4"><a xlink:href="_maw_kit_8h.html" target="_top" xlink:title="MawKit.h">
<polygon fill="white" stroke="black" points="76.8398,-0.5 76.8398,-18.5 133.963,-18.5 133.963,-0.5 76.8398,-0.5"/>
<text text-anchor="middle" x="105.401" y="-6.5" font-family="Helvetica,sans-Serif" font-size="10.00">MawKit.h</text>
</a>
</g>
</g>
<!-- Node1&#45;&gt;Node4 -->
<g id="edge6" class="edge"><title>Node1&#45;&gt;Node4</title>
<path fill="none" stroke="midnightblue" d="M132.088,-100.566C125.064,-76.8614 112.979,-36.0752 107.834,-18.7118"/>
<polygon fill="midnightblue" stroke="midnightblue" points="128.799,-101.789 134.996,-110.382 135.511,-99.8001 128.799,-101.789"/>
</g>
<!-- Node5 -->
<g id="node5" class="node"><title>Node5</title>
<g id="a_node5"><a xlink:href="_analytics_8cpp.html" target="_top" xlink:title="Analytics.cpp">
<polygon fill="white" stroke="black" points="132.943,-55.5 132.943,-73.5 207.859,-73.5 207.859,-55.5 132.943,-55.5"/>
<text text-anchor="middle" x="170.401" y="-61.5" font-family="Helvetica,sans-Serif" font-size="10.00">Analytics.cpp</text>
</a>
</g>
</g>
<!-- Node1&#45;&gt;Node5 -->
<g id="edge4" class="edge"><title>Node1&#45;&gt;Node5</title>
<path fill="none" stroke="midnightblue" d="M147.888,-101.658C153.74,-92.2587 160.762,-80.9821 165.389,-73.5496"/>
<polygon fill="midnightblue" stroke="midnightblue" points="144.872,-99.8798 142.558,-110.219 150.814,-103.58 144.872,-99.8798"/>
</g>
<!-- Node6 -->
<g id="node6" class="node"><title>Node6</title>
<g id="a_node6"><a xlink:href="_finite_time_actions_8cpp.html" target="_top" xlink:title="FiniteTimeActions.cpp">
<polygon fill="white" stroke="black" points="225.4,-55.5 225.4,-73.5 339.403,-73.5 339.403,-55.5 225.4,-55.5"/>
<text text-anchor="middle" x="282.401" y="-61.5" font-family="Helvetica,sans-Serif" font-size="10.00">FiniteTimeActions.cpp</text>
</a>
</g>
</g>
<!-- Node1&#45;&gt;Node6 -->
<g id="edge5" class="edge"><title>Node1&#45;&gt;Node6</title>
<path fill="none" stroke="midnightblue" d="M168.995,-106.952C196.547,-96.8814 235.814,-82.5284 260.172,-73.6253"/>
<polygon fill="midnightblue" stroke="midnightblue" points="167.614,-103.73 159.424,-110.45 170.018,-110.305 167.614,-103.73"/>
</g>
<!-- Node3 -->
<g id="node3" class="node"><title>Node3</title>
<g id="a_node3"><a xlink:href="_ad_kit_8cpp.html" target="_top" xlink:title="AdKit.cpp">
<polygon fill="white" stroke="black" points="0,-0.5 0,-18.5 58.8027,-18.5 58.8027,-0.5 0,-0.5"/>
<text text-anchor="middle" x="29.4014" y="-6.5" font-family="Helvetica,sans-Serif" font-size="10.00">AdKit.cpp</text>
</a>
</g>
</g>
<!-- Node2&#45;&gt;Node3 -->
<g id="edge2" class="edge"><title>Node2&#45;&gt;Node3</title>
<path fill="none" stroke="midnightblue" d="M39.9594,-45.4734C37.1978,-36.3257 33.9817,-25.6724 31.8314,-18.5496"/>
<polygon fill="midnightblue" stroke="midnightblue" points="36.6606,-46.657 42.9014,-55.2188 43.3619,-44.6339 36.6606,-46.657"/>
</g>
<!-- Node2&#45;&gt;Node4 -->
<g id="edge3" class="edge"><title>Node2&#45;&gt;Node4</title>
<path fill="none" stroke="midnightblue" d="M62.2231,-48.6408C73.2277,-38.9201 87.1849,-26.5913 96.2029,-18.6253"/>
<polygon fill="midnightblue" stroke="midnightblue" points="59.6917,-46.2069 54.5141,-55.4504 64.326,-51.4532 59.6917,-46.2069"/>
</g>
</g>
</svg>
