<?xml version="1.0" encoding="UTF-8" standalone="no"?>
<!DOCTYPE svg PUBLIC "-//W3C//DTD SVG 1.1//EN"
 "http://www.w3.org/Graphics/SVG/1.1/DTD/svg11.dtd">
<!-- Generated by graphviz version 2.38.0 (20140413.2041)
 -->
<!-- Title: Apple/Common/ReceiptValidator.mm Pages: 1 -->
<svg width="1082pt" height="147pt"
 viewBox="0.00 0.00 1081.56 147.00" xmlns="http://www.w3.org/2000/svg" xmlns:xlink="http://www.w3.org/1999/xlink">
<g id="graph0" class="graph" transform="scale(1 1) rotate(0) translate(4 143)">
<title>Apple/Common/ReceiptValidator.mm</title>
<polygon fill="white" stroke="none" points="-4,4 -4,-143 1077.56,-143 1077.56,4 -4,4"/>
<!-- Node1 -->
<g id="node1" class="node"><title>Node1</title>
<polygon fill="#bfbfbf" stroke="black" points="453.601,-120.5 453.601,-138.5 632.829,-138.5 632.829,-120.5 453.601,-120.5"/>
<text text-anchor="middle" x="543.215" y="-126.5" font-family="Helvetica,sans-Serif" font-size="10.00">Apple/Common/ReceiptValidator.mm</text>
</g>
<!-- Node2 -->
<g id="node2" class="node"><title>Node2</title>
<g id="a_node2"><a xlink:href="_receipt_validator_8h.html" target="_top" xlink:title="ReceiptValidator.h">
<polygon fill="white" stroke="black" points="0,-60.5 0,-78.5 96.4297,-78.5 96.4297,-60.5 0,-60.5"/>
<text text-anchor="middle" x="48.2148" y="-66.5" font-family="Helvetica,sans-Serif" font-size="10.00">ReceiptValidator.h</text>
</a>
</g>
</g>
<!-- Node1&#45;&gt;Node2 -->
<g id="edge1" class="edge"><title>Node1&#45;&gt;Node2</title>
<path fill="none" stroke="midnightblue" d="M453.27,-122.209C365.424,-115.371 228.12,-102.834 110.215,-84 104.291,-83.0538 98.0826,-81.8993 91.978,-80.6679"/>
<polygon fill="midnightblue" stroke="midnightblue" points="92.3773,-77.1755 81.8715,-78.5463 90.9391,-84.0262 92.3773,-77.1755"/>
</g>
<!-- Node3 -->
<g id="node3" class="node"><title>Node3</title>
<polygon fill="white" stroke="#bfbfbf" points="60.6167,-0.5 60.6167,-18.5 187.813,-18.5 187.813,-0.5 60.6167,-0.5"/>
<text text-anchor="middle" x="124.215" y="-6.5" font-family="Helvetica,sans-Serif" font-size="10.00">Foundation/Foundation.h</text>
</g>
<!-- Node1&#45;&gt;Node3 -->
<g id="edge3" class="edge"><title>Node1&#45;&gt;Node3</title>
<path fill="none" stroke="midnightblue" d="M453.454,-123.857C342.717,-117.314 166.179,-103.912 143.215,-84 127.68,-70.5308 124.023,-46.1838 123.536,-29.218"/>
<polygon fill="midnightblue" stroke="midnightblue" points="127.038,-28.8971 123.599,-18.8761 120.038,-28.8547 127.038,-28.8971"/>
</g>
<!-- Node4 -->
<g id="node4" class="node"><title>Node4</title>
<polygon fill="white" stroke="#bfbfbf" points="152.405,-55.5 152.405,-83.5 294.025,-83.5 294.025,-55.5 152.405,-55.5"/>
<text text-anchor="start" x="160.405" y="-71.5" font-family="Helvetica,sans-Serif" font-size="10.00">OpenSSL&#45;Universal/openssl</text>
<text text-anchor="middle" x="223.215" y="-61.5" font-family="Helvetica,sans-Serif" font-size="10.00">/bio.h</text>
</g>
<!-- Node1&#45;&gt;Node4 -->
<g id="edge4" class="edge"><title>Node1&#45;&gt;Node4</title>
<path fill="none" stroke="midnightblue" d="M499.056,-120.496C448.952,-111.415 366.182,-96.4127 304.357,-85.2071"/>
<polygon fill="midnightblue" stroke="midnightblue" points="304.7,-81.7122 294.236,-83.3726 303.451,-88.6 304.7,-81.7122"/>
</g>
<!-- Node5 -->
<g id="node5" class="node"><title>Node5</title>
<polygon fill="white" stroke="#bfbfbf" points="312.405,-55.5 312.405,-83.5 454.025,-83.5 454.025,-55.5 312.405,-55.5"/>
<text text-anchor="start" x="320.405" y="-71.5" font-family="Helvetica,sans-Serif" font-size="10.00">OpenSSL&#45;Universal/openssl</text>
<text text-anchor="middle" x="383.215" y="-61.5" font-family="Helvetica,sans-Serif" font-size="10.00">/objects.h</text>
</g>
<!-- Node1&#45;&gt;Node5 -->
<g id="edge5" class="edge"><title>Node1&#45;&gt;Node5</title>
<path fill="none" stroke="midnightblue" d="M520.968,-120.435C497.181,-111.813 458.808,-97.9026 428.597,-86.9509"/>
<polygon fill="midnightblue" stroke="midnightblue" points="429.697,-83.6271 419.103,-83.5096 427.312,-90.2081 429.697,-83.6271"/>
</g>
<!-- Node6 -->
<g id="node6" class="node"><title>Node6</title>
<polygon fill="white" stroke="#bfbfbf" points="472.405,-55.5 472.405,-83.5 614.025,-83.5 614.025,-55.5 472.405,-55.5"/>
<text text-anchor="start" x="480.405" y="-71.5" font-family="Helvetica,sans-Serif" font-size="10.00">OpenSSL&#45;Universal/openssl</text>
<text text-anchor="middle" x="543.215" y="-61.5" font-family="Helvetica,sans-Serif" font-size="10.00">/pkcs7.h</text>
</g>
<!-- Node1&#45;&gt;Node6 -->
<g id="edge6" class="edge"><title>Node1&#45;&gt;Node6</title>
<path fill="none" stroke="midnightblue" d="M543.215,-120.435C543.215,-113.56 543.215,-103.324 543.215,-93.9057"/>
<polygon fill="midnightblue" stroke="midnightblue" points="546.715,-93.8427 543.215,-83.8428 539.715,-93.8428 546.715,-93.8427"/>
</g>
<!-- Node7 -->
<g id="node7" class="node"><title>Node7</title>
<polygon fill="white" stroke="#bfbfbf" points="632.405,-55.5 632.405,-83.5 774.025,-83.5 774.025,-55.5 632.405,-55.5"/>
<text text-anchor="start" x="640.405" y="-71.5" font-family="Helvetica,sans-Serif" font-size="10.00">OpenSSL&#45;Universal/openssl</text>
<text text-anchor="middle" x="703.215" y="-61.5" font-family="Helvetica,sans-Serif" font-size="10.00">/x509.h</text>
</g>
<!-- Node1&#45;&gt;Node7 -->
<g id="edge7" class="edge"><title>Node1&#45;&gt;Node7</title>
<path fill="none" stroke="midnightblue" d="M565.462,-120.435C589.249,-111.813 627.621,-97.9026 657.833,-86.9509"/>
<polygon fill="midnightblue" stroke="midnightblue" points="659.118,-90.2081 667.326,-83.5096 656.732,-83.6271 659.118,-90.2081"/>
</g>
<!-- Node8 -->
<g id="node8" class="node"><title>Node8</title>
<polygon fill="white" stroke="#bfbfbf" points="792.084,-60.5 792.084,-78.5 890.345,-78.5 890.345,-60.5 792.084,-60.5"/>
<text text-anchor="middle" x="841.215" y="-66.5" font-family="Helvetica,sans-Serif" font-size="10.00">StoreKit/StoreKit.h</text>
</g>
<!-- Node1&#45;&gt;Node8 -->
<g id="edge8" class="edge"><title>Node1&#45;&gt;Node8</title>
<path fill="none" stroke="midnightblue" d="M590.246,-120.43C638.723,-111.959 716.431,-97.9562 783.215,-84 787.962,-83.008 792.916,-81.9263 797.843,-80.8211"/>
<polygon fill="midnightblue" stroke="midnightblue" points="798.87,-84.1768 807.842,-78.5406 797.314,-77.3521 798.87,-84.1768"/>
</g>
<!-- Node9 -->
<g id="node9" class="node"><title>Node9</title>
<g id="a_node9"><a xlink:href="_device_8hpp.html" target="_top" xlink:title="../../Device.hpp">
<polygon fill="white" stroke="black" points="990.865,-60.5 990.865,-78.5 1073.56,-78.5 1073.56,-60.5 990.865,-60.5"/>
<text text-anchor="middle" x="1032.21" y="-66.5" font-family="Helvetica,sans-Serif" font-size="10.00">../../Device.hpp</text>
</a>
</g>
</g>
<!-- Node1&#45;&gt;Node9 -->
<g id="edge9" class="edge"><title>Node1&#45;&gt;Node9</title>
<path fill="none" stroke="midnightblue" d="M633.134,-123.519C722.085,-117.618 861.838,-105.724 981.215,-84 985.747,-83.1752 990.467,-82.1534 995.126,-81.0438"/>
<polygon fill="midnightblue" stroke="midnightblue" points="996.293,-84.3591 1005.13,-78.517 994.579,-77.5722 996.293,-84.3591"/>
</g>
<!-- Node12 -->
<g id="node12" class="node"><title>Node12</title>
<g id="a_node12"><a xlink:href="_c_p_p_utils_8h.html" target="_top" xlink:title="CPPUtils.h">
<polygon fill="white" stroke="black" points="908.042,-60.5 908.042,-78.5 972.387,-78.5 972.387,-60.5 908.042,-60.5"/>
<text text-anchor="middle" x="940.215" y="-66.5" font-family="Helvetica,sans-Serif" font-size="10.00">CPPUtils.h</text>
</a>
</g>
</g>
<!-- Node1&#45;&gt;Node12 -->
<g id="edge12" class="edge"><title>Node1&#45;&gt;Node12</title>
<path fill="none" stroke="midnightblue" d="M632.92,-122.126C705.408,-115.821 809.733,-104.125 899.215,-84 902.26,-83.315 905.401,-82.4955 908.524,-81.6034"/>
<polygon fill="midnightblue" stroke="midnightblue" points="909.784,-84.8775 918.305,-78.5822 907.718,-78.1892 909.784,-84.8775"/>
</g>
<!-- Node2&#45;&gt;Node3 -->
<g id="edge2" class="edge"><title>Node2&#45;&gt;Node3</title>
<path fill="none" stroke="midnightblue" d="M58.7823,-60.4353C70.7838,-51.2763 90.6022,-36.1518 105.289,-24.9437"/>
<polygon fill="midnightblue" stroke="midnightblue" points="107.419,-27.7209 113.245,-18.8718 103.172,-22.1562 107.419,-27.7209"/>
</g>
<!-- Node10 -->
<g id="node10" class="node"><title>Node10</title>
<polygon fill="white" stroke="#bfbfbf" points="930.988,-0.5 930.988,-18.5 971.441,-18.5 971.441,-0.5 930.988,-0.5"/>
<text text-anchor="middle" x="951.215" y="-6.5" font-family="Helvetica,sans-Serif" font-size="10.00">string</text>
</g>
<!-- Node9&#45;&gt;Node10 -->
<g id="edge10" class="edge"><title>Node9&#45;&gt;Node10</title>
<path fill="none" stroke="midnightblue" d="M1020.95,-60.4353C1008.09,-51.2243 986.799,-35.9797 971.12,-24.753"/>
<polygon fill="midnightblue" stroke="midnightblue" points="972.811,-21.6594 962.643,-18.6831 968.736,-27.3507 972.811,-21.6594"/>
</g>
<!-- Node11 -->
<g id="node11" class="node"><title>Node11</title>
<polygon fill="white" stroke="#bfbfbf" points="1001.42,-0.5 1001.42,-18.5 1063.01,-18.5 1063.01,-0.5 1001.42,-0.5"/>
<text text-anchor="middle" x="1032.21" y="-6.5" font-family="Helvetica,sans-Serif" font-size="10.00">cocos2d.h</text>
</g>
<!-- Node9&#45;&gt;Node11 -->
<g id="edge11" class="edge"><title>Node9&#45;&gt;Node11</title>
<path fill="none" stroke="midnightblue" d="M1032.21,-60.4353C1032.21,-52.3891 1032.21,-39.7388 1032.21,-29.1846"/>
<polygon fill="midnightblue" stroke="midnightblue" points="1035.71,-28.8717 1032.21,-18.8718 1028.71,-28.8718 1035.71,-28.8717"/>
</g>
<!-- Node12&#45;&gt;Node3 -->
<g id="edge13" class="edge"><title>Node12&#45;&gt;Node3</title>
<path fill="none" stroke="midnightblue" d="M919.212,-60.4202C912.876,-58.3009 905.841,-56.2587 899.215,-55 766.285,-29.7489 365.09,-16.7324 198.243,-12.2928"/>
<polygon fill="midnightblue" stroke="midnightblue" points="198.165,-8.78965 188.076,-12.0252 197.98,-15.7872 198.165,-8.78965"/>
</g>
<!-- Node12&#45;&gt;Node10 -->
<g id="edge14" class="edge"><title>Node12&#45;&gt;Node10</title>
<path fill="none" stroke="midnightblue" d="M941.744,-60.4353C943.287,-52.3035 945.721,-39.4692 947.735,-28.8485"/>
<polygon fill="midnightblue" stroke="midnightblue" points="951.202,-29.3488 949.627,-18.8718 944.325,-28.0444 951.202,-29.3488"/>
</g>
</g>
</svg>
