<?xml version="1.0" encoding="UTF-8" standalone="no"?>
<!DOCTYPE svg PUBLIC "-//W3C//DTD SVG 1.1//EN"
 "http://www.w3.org/Graphics/SVG/1.1/DTD/svg11.dtd">
<!-- Generated by graphviz version 2.38.0 (20140413.2041)
 -->
<!-- Title: Apple/Common/ReceiptValidator.h Pages: 1 -->
<svg width="340pt" height="82pt"
 viewBox="0.00 0.00 340.08 82.00" xmlns="http://www.w3.org/2000/svg" xmlns:xlink="http://www.w3.org/1999/xlink">
<g id="graph0" class="graph" transform="scale(1 1) rotate(0) translate(4 78)">
<title>Apple/Common/ReceiptValidator.h</title>
<polygon fill="white" stroke="none" points="-4,4 -4,-78 336.077,-78 336.077,4 -4,4"/>
<!-- Node1 -->
<g id="node1" class="node"><title>Node1</title>
<polygon fill="#bfbfbf" stroke="black" points="70.3984,-55.5 70.3984,-73.5 238.527,-73.5 238.527,-55.5 70.3984,-55.5"/>
<text text-anchor="middle" x="154.463" y="-61.5" font-family="Helvetica,sans-Serif" font-size="10.00">Apple/Common/ReceiptValidator.h</text>
</g>
<!-- Node2 -->
<g id="node2" class="node"><title>Node2</title>
<g id="a_node2"><a xlink:href="_i_a_p_kit_8mm.html" target="_top" xlink:title="Apple/Common/IAPKit.mm">
<polygon fill="white" stroke="black" points="0,-0.5 0,-18.5 134.926,-18.5 134.926,-0.5 0,-0.5"/>
<text text-anchor="middle" x="67.4629" y="-6.5" font-family="Helvetica,sans-Serif" font-size="10.00">Apple/Common/IAPKit.mm</text>
</a>
</g>
</g>
<!-- Node1&#45;&gt;Node2 -->
<g id="edge1" class="edge"><title>Node1&#45;&gt;Node2</title>
<path fill="none" stroke="midnightblue" d="M132.386,-50.0507C116.116,-40.1393 94.5178,-26.9817 80.8007,-18.6253"/>
<polygon fill="midnightblue" stroke="midnightblue" points="130.888,-53.2368 141.249,-55.4504 134.53,-47.2588 130.888,-53.2368"/>
</g>
<!-- Node3 -->
<g id="node3" class="node"><title>Node3</title>
<g id="a_node3"><a xlink:href="_receipt_validator_8mm.html" target="_top" xlink:title="Apple/Common/ReceiptValidator.mm">
<polygon fill="white" stroke="black" points="152.849,-0.5 152.849,-18.5 332.077,-18.5 332.077,-0.5 152.849,-0.5"/>
<text text-anchor="middle" x="242.463" y="-6.5" font-family="Helvetica,sans-Serif" font-size="10.00">Apple/Common/ReceiptValidator.mm</text>
</a>
</g>
</g>
<!-- Node1&#45;&gt;Node3 -->
<g id="edge2" class="edge"><title>Node1&#45;&gt;Node3</title>
<path fill="none" stroke="midnightblue" d="M176.794,-50.0507C193.251,-40.1393 215.097,-26.9817 228.972,-18.6253"/>
<polygon fill="midnightblue" stroke="midnightblue" points="174.589,-47.2929 167.828,-55.4504 178.2,-53.2893 174.589,-47.2929"/>
</g>
</g>
</svg>
