<?xml version="1.0" encoding="UTF-8" standalone="no"?>
<!DOCTYPE svg PUBLIC "-//W3C//DTD SVG 1.1//EN"
 "http://www.w3.org/Graphics/SVG/1.1/DTD/svg11.dtd">
<!-- Generated by graphviz version 2.38.0 (20140413.2041)
 -->
<!-- Title: MK::Actions::RemoveFromParent::initWithDuration Pages: 1 -->
<svg width="374pt" height="84pt"
 viewBox="0.00 0.00 373.87 84.00" xmlns="http://www.w3.org/2000/svg" xmlns:xlink="http://www.w3.org/1999/xlink">
<g id="graph0" class="graph" transform="scale(1 1) rotate(0) translate(4 80)">
<title>MK::Actions::RemoveFromParent::initWithDuration</title>
<polygon fill="white" stroke="none" points="-4,4 -4,-80 369.871,-80 369.871,4 -4,4"/>
<!-- Node1 -->
<g id="node1" class="node"><title>Node1</title>
<polygon fill="#bfbfbf" stroke="black" points="0,-23.5 0,-51.5 164.936,-51.5 164.936,-23.5 0,-23.5"/>
<text text-anchor="start" x="8" y="-39.5" font-family="Helvetica,sans-Serif" font-size="10.00">MK::Actions::RemoveFromParent</text>
<text text-anchor="middle" x="82.4678" y="-29.5" font-family="Helvetica,sans-Serif" font-size="10.00">::initWithDuration</text>
</g>
<!-- Node2 -->
<g id="node2" class="node"><title>Node2</title>
<g id="a_node2"><a xlink:href="class_m_k_1_1_actions_1_1_remove_from_parent.html#a565663b23b47b8f2eab2d7412a4b0a9e" target="_top" xlink:title="MK::Actions::RemoveFromParent\l::clone">
<polygon fill="white" stroke="black" points="200.936,-47.5 200.936,-75.5 365.871,-75.5 365.871,-47.5 200.936,-47.5"/>
<text text-anchor="start" x="208.936" y="-63.5" font-family="Helvetica,sans-Serif" font-size="10.00">MK::Actions::RemoveFromParent</text>
<text text-anchor="middle" x="283.403" y="-53.5" font-family="Helvetica,sans-Serif" font-size="10.00">::clone</text>
</a>
</g>
</g>
<!-- Node1&#45;&gt;Node2 -->
<g id="edge1" class="edge"><title>Node1&#45;&gt;Node2</title>
<path fill="none" stroke="midnightblue" d="M174.983,-48.5406C183.568,-49.5763 192.233,-50.6217 200.719,-51.6455"/>
<polygon fill="midnightblue" stroke="midnightblue" points="175.304,-45.054 164.956,-47.331 174.465,-52.0036 175.304,-45.054"/>
</g>
<!-- Node3 -->
<g id="node3" class="node"><title>Node3</title>
<g id="a_node3"><a xlink:href="class_m_k_1_1_actions_1_1_remove_from_parent.html#a9359e0e7ad0334829e786a2c939bb90e" target="_top" xlink:title="Creates an action that will remove a node from its parent after certain delay. ">
<polygon fill="white" stroke="black" points="200.936,-0.5 200.936,-28.5 365.871,-28.5 365.871,-0.5 200.936,-0.5"/>
<text text-anchor="start" x="208.936" y="-16.5" font-family="Helvetica,sans-Serif" font-size="10.00">MK::Actions::RemoveFromParent</text>
<text text-anchor="middle" x="283.403" y="-6.5" font-family="Helvetica,sans-Serif" font-size="10.00">::create</text>
</a>
</g>
</g>
<!-- Node1&#45;&gt;Node3 -->
<g id="edge2" class="edge"><title>Node1&#45;&gt;Node3</title>
<path fill="none" stroke="midnightblue" d="M174.983,-26.9194C183.568,-25.9269 192.233,-24.9251 200.719,-23.9439"/>
<polygon fill="midnightblue" stroke="midnightblue" points="174.488,-23.4532 164.956,-28.0787 175.292,-30.4069 174.488,-23.4532"/>
</g>
</g>
</svg>
