<?xml version="1.0" encoding="UTF-8" standalone="no"?>
<!DOCTYPE svg PUBLIC "-//W3C//DTD SVG 1.1//EN"
 "http://www.w3.org/Graphics/SVG/1.1/DTD/svg11.dtd">
<!-- Generated by graphviz version 2.38.0 (20140413.2041)
 -->
<!-- Title: MK::Range::operator== Pages: 1 -->
<svg width="252pt" height="64pt"
 viewBox="0.00 0.00 252.20 64.00" xmlns="http://www.w3.org/2000/svg" xmlns:xlink="http://www.w3.org/1999/xlink">
<g id="graph0" class="graph" transform="scale(1 1) rotate(0) translate(4 60)">
<title>MK::Range::operator==</title>
<polygon fill="white" stroke="none" points="-4,4 -4,-60 248.196,-60 248.196,4 -4,4"/>
<!-- Node1 -->
<g id="node1" class="node"><title>Node1</title>
<polygon fill="#bfbfbf" stroke="black" points="0,-18.5 0,-36.5 120.507,-36.5 120.507,-18.5 0,-18.5"/>
<text text-anchor="middle" x="60.2534" y="-24.5" font-family="Helvetica,sans-Serif" font-size="10.00">MK::Range::operator==</text>
</g>
<!-- Node2 -->
<g id="node2" class="node"><title>Node2</title>
<g id="a_node2"><a xlink:href="class_m_k_1_1_range.html#a4a9c283160741dc8094b0de20f5f506c" target="_top" xlink:title="Returns first value contained in this range. ">
<polygon fill="white" stroke="black" points="156.507,-37.5 156.507,-55.5 244.196,-55.5 244.196,-37.5 156.507,-37.5"/>
<text text-anchor="middle" x="200.352" y="-43.5" font-family="Helvetica,sans-Serif" font-size="10.00">MK::Range::first</text>
</a>
</g>
</g>
<!-- Node1&#45;&gt;Node2 -->
<g id="edge1" class="edge"><title>Node1&#45;&gt;Node2</title>
<path fill="none" stroke="midnightblue" d="M120.621,-35.668C129.144,-36.8407 137.869,-38.041 146.26,-39.1955"/>
<polygon fill="midnightblue" stroke="midnightblue" points="145.912,-42.6804 156.295,-40.5762 146.866,-35.7458 145.912,-42.6804"/>
</g>
<!-- Node3 -->
<g id="node3" class="node"><title>Node3</title>
<g id="a_node3"><a xlink:href="class_m_k_1_1_range.html#ab748d94649f53d6475ac4b7ecbc64756" target="_top" xlink:title="Returns last value contained in this range. ">
<polygon fill="white" stroke="black" points="156.78,-0.5 156.78,-18.5 243.923,-18.5 243.923,-0.5 156.78,-0.5"/>
<text text-anchor="middle" x="200.352" y="-6.5" font-family="Helvetica,sans-Serif" font-size="10.00">MK::Range::last</text>
</a>
</g>
</g>
<!-- Node1&#45;&gt;Node3 -->
<g id="edge2" class="edge"><title>Node1&#45;&gt;Node3</title>
<path fill="none" stroke="midnightblue" d="M120.621,-19.7619C129.248,-18.6374 138.081,-17.4861 146.567,-16.38"/>
<polygon fill="midnightblue" stroke="midnightblue" points="147.245,-19.8214 156.708,-15.0582 146.34,-12.8801 147.245,-19.8214"/>
</g>
</g>
</svg>
