<?xml version="1.0" encoding="UTF-8" standalone="no"?>
<!DOCTYPE svg PUBLIC "-//W3C//DTD SVG 1.1//EN"
 "http://www.w3.org/Graphics/SVG/1.1/DTD/svg11.dtd">
<!-- Generated by graphviz version 2.38.0 (20140413.2041)
 -->
<!-- Title: MK::Actions::MoveToNode::initWithDuration Pages: 1 -->
<svg width="312pt" height="84pt"
 viewBox="0.00 0.00 311.65 84.00" xmlns="http://www.w3.org/2000/svg" xmlns:xlink="http://www.w3.org/1999/xlink">
<g id="graph0" class="graph" transform="scale(1 1) rotate(0) translate(4 80)">
<title>MK::Actions::MoveToNode::initWithDuration</title>
<polygon fill="white" stroke="none" points="-4,4 -4,-80 307.654,-80 307.654,4 -4,4"/>
<!-- Node1 -->
<g id="node1" class="node"><title>Node1</title>
<polygon fill="#bfbfbf" stroke="black" points="0,-23.5 0,-51.5 133.827,-51.5 133.827,-23.5 0,-23.5"/>
<text text-anchor="start" x="8" y="-39.5" font-family="Helvetica,sans-Serif" font-size="10.00">MK::Actions::MoveToNode</text>
<text text-anchor="middle" x="66.9136" y="-29.5" font-family="Helvetica,sans-Serif" font-size="10.00">::initWithDuration</text>
</g>
<!-- Node2 -->
<g id="node2" class="node"><title>Node2</title>
<g id="a_node2"><a xlink:href="class_m_k_1_1_actions_1_1_move_to_node.html#a7307b7ed79ad427b23bca22bf490d8dd" target="_top" xlink:title="MK::Actions::MoveToNode\l::clone">
<polygon fill="white" stroke="black" points="169.827,-47.5 169.827,-75.5 303.654,-75.5 303.654,-47.5 169.827,-47.5"/>
<text text-anchor="start" x="177.827" y="-63.5" font-family="Helvetica,sans-Serif" font-size="10.00">MK::Actions::MoveToNode</text>
<text text-anchor="middle" x="236.741" y="-53.5" font-family="Helvetica,sans-Serif" font-size="10.00">::clone</text>
</a>
</g>
</g>
<!-- Node1&#45;&gt;Node2 -->
<g id="edge1" class="edge"><title>Node1&#45;&gt;Node2</title>
<path fill="none" stroke="midnightblue" d="M144.152,-48.4024C152.652,-49.618 161.259,-50.8488 169.618,-52.0442"/>
<polygon fill="midnightblue" stroke="midnightblue" points="144.638,-44.9364 134.243,-46.9854 143.647,-51.8659 144.638,-44.9364"/>
</g>
<!-- Node3 -->
<g id="node3" class="node"><title>Node3</title>
<g id="a_node3"><a xlink:href="class_m_k_1_1_actions_1_1_move_to_node.html#aaa39f3e6bcee2209804673c93f8fb0d5" target="_top" xlink:title="Creates an action that will move a node to the position of given node. ">
<polygon fill="white" stroke="black" points="169.827,-0.5 169.827,-28.5 303.654,-28.5 303.654,-0.5 169.827,-0.5"/>
<text text-anchor="start" x="177.827" y="-16.5" font-family="Helvetica,sans-Serif" font-size="10.00">MK::Actions::MoveToNode</text>
<text text-anchor="middle" x="236.741" y="-6.5" font-family="Helvetica,sans-Serif" font-size="10.00">::create</text>
</a>
</g>
</g>
<!-- Node1&#45;&gt;Node3 -->
<g id="edge2" class="edge"><title>Node1&#45;&gt;Node3</title>
<path fill="none" stroke="midnightblue" d="M144.152,-27.0518C152.652,-25.8869 161.259,-24.7074 169.618,-23.5618"/>
<polygon fill="midnightblue" stroke="midnightblue" points="143.675,-23.5843 134.243,-28.4098 144.626,-30.5195 143.675,-23.5843"/>
</g>
</g>
</svg>
