<?xml version="1.0" encoding="UTF-8" standalone="no"?>
<!DOCTYPE svg PUBLIC "-//W3C//DTD SVG 1.1//EN"
 "http://www.w3.org/Graphics/SVG/1.1/DTD/svg11.dtd">
<!-- Generated by graphviz version 2.38.0 (20140413.2041)
 -->
<!-- Title: MK::Date::ChristmasStart Pages: 1 -->
<svg width="271pt" height="101pt"
 viewBox="0.00 0.00 270.70 101.00" xmlns="http://www.w3.org/2000/svg" xmlns:xlink="http://www.w3.org/1999/xlink">
<g id="graph0" class="graph" transform="scale(1 1) rotate(0) translate(4 97)">
<title>MK::Date::ChristmasStart</title>
<polygon fill="white" stroke="none" points="-4,4 -4,-97 266.702,-97 266.702,4 -4,4"/>
<!-- Node1 -->
<g id="node1" class="node"><title>Node1</title>
<polygon fill="#bfbfbf" stroke="black" points="0,-37.5 0,-55.5 129.359,-55.5 129.359,-37.5 0,-37.5"/>
<text text-anchor="middle" x="64.6797" y="-43.5" font-family="Helvetica,sans-Serif" font-size="10.00">MK::Date::ChristmasStart</text>
</g>
<!-- Node2 -->
<g id="node2" class="node"><title>Node2</title>
<g id="a_node2"><a xlink:href="class_m_k_1_1_date.html#ae6536982c961e35d8dea066de75465a7" target="_top" xlink:title="Returns a new date object given its UNIX timestamp. ">
<polygon fill="white" stroke="black" points="171.851,-74.5 171.851,-92.5 256.21,-92.5 256.21,-74.5 171.851,-74.5"/>
<text text-anchor="middle" x="214.031" y="-80.5" font-family="Helvetica,sans-Serif" font-size="10.00">MK::Date::Date</text>
</a>
</g>
</g>
<!-- Node1&#45;&gt;Node2 -->
<g id="edge1" class="edge"><title>Node1&#45;&gt;Node2</title>
<path fill="none" stroke="midnightblue" d="M101.726,-55.5512C121.511,-60.5194 146.246,-66.7304 167.371,-72.0348"/>
<polygon fill="midnightblue" stroke="midnightblue" points="166.55,-75.4373 177.102,-74.4782 168.255,-68.6481 166.55,-75.4373"/>
</g>
<!-- Node3 -->
<g id="node3" class="node"><title>Node3</title>
<g id="a_node3"><a xlink:href="class_m_k_1_1_date.html#a4b09b7cb08efeeab9f1b145352998ce1" target="_top" xlink:title="Returns year component of this date. ">
<polygon fill="white" stroke="black" points="165.359,-37.5 165.359,-55.5 262.702,-55.5 262.702,-37.5 165.359,-37.5"/>
<text text-anchor="middle" x="214.031" y="-43.5" font-family="Helvetica,sans-Serif" font-size="10.00">MK::Date::getYear</text>
</a>
</g>
</g>
<!-- Node1&#45;&gt;Node3 -->
<g id="edge2" class="edge"><title>Node1&#45;&gt;Node3</title>
<path fill="none" stroke="midnightblue" d="M129.453,-46.5C137.969,-46.5 146.664,-46.5 155.073,-46.5"/>
<polygon fill="midnightblue" stroke="midnightblue" points="155.157,-50.0001 165.157,-46.5 155.157,-43.0001 155.157,-50.0001"/>
</g>
<!-- Node4 -->
<g id="node4" class="node"><title>Node4</title>
<g id="a_node4"><a xlink:href="class_m_k_1_1_date.html#ae9cb38bc92d6915fdfb9014fac32dd89" target="_top" xlink:title="Returns today&#39;s date. ">
<polygon fill="white" stroke="black" points="169.07,-0.5 169.07,-18.5 258.991,-18.5 258.991,-0.5 169.07,-0.5"/>
<text text-anchor="middle" x="214.031" y="-6.5" font-family="Helvetica,sans-Serif" font-size="10.00">MK::Date::Today</text>
</a>
</g>
</g>
<!-- Node1&#45;&gt;Node4 -->
<g id="edge3" class="edge"><title>Node1&#45;&gt;Node4</title>
<path fill="none" stroke="midnightblue" d="M101.726,-37.4488C121.511,-32.4806 146.246,-26.2696 167.371,-20.9652"/>
<polygon fill="midnightblue" stroke="midnightblue" points="168.255,-24.3519 177.102,-18.5218 166.55,-17.5627 168.255,-24.3519"/>
</g>
</g>
</svg>
