<?xml version="1.0" encoding="UTF-8" standalone="no"?>
<!DOCTYPE svg PUBLIC "-//W3C//DTD SVG 1.1//EN"
 "http://www.w3.org/Graphics/SVG/1.1/DTD/svg11.dtd">
<!-- Generated by graphviz version 2.38.0 (20140413.2041)
 -->
<!-- Title: MK::Date::Date Pages: 1 -->
<svg width="407pt" height="120pt"
 viewBox="0.00 0.00 406.97 120.00" xmlns="http://www.w3.org/2000/svg" xmlns:xlink="http://www.w3.org/1999/xlink">
<g id="graph0" class="graph" transform="scale(1 1) rotate(0) translate(4 116)">
<title>MK::Date::Date</title>
<polygon fill="white" stroke="none" points="-4,4 -4,-116 402.975,-116 402.975,4 -4,4"/>
<!-- Node1 -->
<g id="node1" class="node"><title>Node1</title>
<polygon fill="#bfbfbf" stroke="black" points="0,-37.5 0,-55.5 84.3594,-55.5 84.3594,-37.5 0,-37.5"/>
<text text-anchor="middle" x="42.1797" y="-43.5" font-family="Helvetica,sans-Serif" font-size="10.00">MK::Date::Date</text>
</g>
<!-- Node2 -->
<g id="node2" class="node"><title>Node2</title>
<g id="a_node2"><a xlink:href="class_m_k_1_1_date.html#a8c6bcc1013cb9c1b7046bfa95354222d" target="_top" xlink:title="Returns the last day of Christmas of this year. ">
<polygon fill="white" stroke="black" points="122.022,-93.5 122.022,-111.5 248.056,-111.5 248.056,-93.5 122.022,-93.5"/>
<text text-anchor="middle" x="185.039" y="-99.5" font-family="Helvetica,sans-Serif" font-size="10.00">MK::Date::ChristmasEnd</text>
</a>
</g>
</g>
<!-- Node1&#45;&gt;Node2 -->
<g id="edge1" class="edge"><title>Node1&#45;&gt;Node2</title>
<path fill="none" stroke="midnightblue" d="M68.3947,-60.3678C83.2263,-68.1541 102.516,-77.6511 120.359,-84.5 129.047,-87.8347 138.612,-90.8612 147.63,-93.4407"/>
<polygon fill="midnightblue" stroke="midnightblue" points="69.8224,-57.1625 59.352,-55.5431 66.5272,-63.3385 69.8224,-57.1625"/>
</g>
<!-- Node3 -->
<g id="node3" class="node"><title>Node3</title>
<g id="a_node3"><a xlink:href="class_m_k_1_1_date.html#a406a0a909df8ece0fd4bc5ccf16d7dde" target="_top" xlink:title="Returns the first day of Christmas of this year. ">
<polygon fill="white" stroke="black" points="120.359,-56.5 120.359,-74.5 249.719,-74.5 249.719,-56.5 120.359,-56.5"/>
<text text-anchor="middle" x="185.039" y="-62.5" font-family="Helvetica,sans-Serif" font-size="10.00">MK::Date::ChristmasStart</text>
</a>
</g>
</g>
<!-- Node1&#45;&gt;Node3 -->
<g id="edge2" class="edge"><title>Node1&#45;&gt;Node3</title>
<path fill="none" stroke="midnightblue" d="M94.8528,-53.47C103.068,-54.5781 111.651,-55.7358 120.107,-56.8765"/>
<polygon fill="midnightblue" stroke="midnightblue" points="95.0584,-49.9661 84.6803,-52.0979 94.1226,-56.9033 95.0584,-49.9661"/>
</g>
<!-- Node4 -->
<g id="node4" class="node"><title>Node4</title>
<g id="a_node4"><a xlink:href="class_m_k_1_1_date.html#a4bf5961f75daea4053c9624e2dce838a" target="_top" xlink:title="Returns the last day of Easter of this year. ">
<polygon fill="white" stroke="black" points="130.074,-19.5 130.074,-37.5 240.004,-37.5 240.004,-19.5 130.074,-19.5"/>
<text text-anchor="middle" x="185.039" y="-25.5" font-family="Helvetica,sans-Serif" font-size="10.00">MK::Date::EasterEnd</text>
</a>
</g>
</g>
<!-- Node1&#45;&gt;Node4 -->
<g id="edge3" class="edge"><title>Node1&#45;&gt;Node4</title>
<path fill="none" stroke="midnightblue" d="M94.9408,-39.8856C106.371,-38.4249 118.509,-36.8739 130.026,-35.4022"/>
<polygon fill="midnightblue" stroke="midnightblue" points="94.1559,-36.4573 84.6803,-41.1968 95.0433,-43.4009 94.1559,-36.4573"/>
</g>
<!-- Node5 -->
<g id="node5" class="node"><title>Node5</title>
<g id="a_node5"><a xlink:href="class_m_k_1_1_date.html#a635b89179d1c821045ebfdd3a5389dd6" target="_top" xlink:title="Returns the first day of Easter of this year. ">
<polygon fill="white" stroke="black" points="285.719,-0.5 285.719,-18.5 398.975,-18.5 398.975,-0.5 285.719,-0.5"/>
<text text-anchor="middle" x="342.347" y="-6.5" font-family="Helvetica,sans-Serif" font-size="10.00">MK::Date::EasterStart</text>
</a>
</g>
</g>
<!-- Node1&#45;&gt;Node5 -->
<g id="edge5" class="edge"><title>Node1&#45;&gt;Node5</title>
<path fill="none" stroke="midnightblue" d="M66.5333,-32.3608C81.3696,-24.2163 101.305,-14.7706 120.359,-10.5 175.58,1.87643 240.529,0.322929 285.665,-3.21708"/>
<polygon fill="midnightblue" stroke="midnightblue" points="64.5394,-29.4684 57.5806,-37.4575 68.0026,-35.5517 64.5394,-29.4684"/>
</g>
<!-- Node4&#45;&gt;Node5 -->
<g id="edge4" class="edge"><title>Node4&#45;&gt;Node5</title>
<path fill="none" stroke="midnightblue" d="M250.447,-20.6205C262.078,-19.1976 274.117,-17.7247 285.479,-16.3347"/>
<polygon fill="midnightblue" stroke="midnightblue" points="249.859,-17.1662 240.358,-21.8547 250.709,-24.1144 249.859,-17.1662"/>
</g>
</g>
</svg>
