<?xml version="1.0" encoding="UTF-8" standalone="no"?>
<!DOCTYPE svg PUBLIC "-//W3C//DTD SVG 1.1//EN"
 "http://www.w3.org/Graphics/SVG/1.1/DTD/svg11.dtd">
<!-- Generated by graphviz version 2.38.0 (20140413.2041)
 -->
<!-- Title: MK::Date::Today Pages: 1 -->
<svg width="413pt" height="101pt"
 viewBox="0.00 0.00 412.54 101.00" xmlns="http://www.w3.org/2000/svg" xmlns:xlink="http://www.w3.org/1999/xlink">
<g id="graph0" class="graph" transform="scale(1 1) rotate(0) translate(4 97)">
<title>MK::Date::Today</title>
<polygon fill="white" stroke="none" points="-4,4 -4,-97 408.536,-97 408.536,4 -4,4"/>
<!-- Node1 -->
<g id="node1" class="node"><title>Node1</title>
<polygon fill="#bfbfbf" stroke="black" points="0,-37.5 0,-55.5 89.9209,-55.5 89.9209,-37.5 0,-37.5"/>
<text text-anchor="middle" x="44.9604" y="-43.5" font-family="Helvetica,sans-Serif" font-size="10.00">MK::Date::Today</text>
</g>
<!-- Node2 -->
<g id="node2" class="node"><title>Node2</title>
<g id="a_node2"><a xlink:href="class_m_k_1_1_date.html#a8c6bcc1013cb9c1b7046bfa95354222d" target="_top" xlink:title="Returns the last day of Christmas of this year. ">
<polygon fill="white" stroke="black" points="127.583,-74.5 127.583,-92.5 253.618,-92.5 253.618,-74.5 127.583,-74.5"/>
<text text-anchor="middle" x="190.601" y="-80.5" font-family="Helvetica,sans-Serif" font-size="10.00">MK::Date::ChristmasEnd</text>
</a>
</g>
</g>
<!-- Node1&#45;&gt;Node2 -->
<g id="edge1" class="edge"><title>Node1&#45;&gt;Node2</title>
<path fill="none" stroke="midnightblue" d="M90.8348,-58.0591C111.299,-63.3304 135.176,-69.4809 154.327,-74.414"/>
<polygon fill="midnightblue" stroke="midnightblue" points="91.6558,-54.6564 81.0988,-55.5512 89.9096,-61.4351 91.6558,-54.6564"/>
</g>
<!-- Node3 -->
<g id="node3" class="node"><title>Node3</title>
<g id="a_node3"><a xlink:href="class_m_k_1_1_date.html#a406a0a909df8ece0fd4bc5ccf16d7dde" target="_top" xlink:title="Returns the first day of Christmas of this year. ">
<polygon fill="white" stroke="black" points="125.921,-37.5 125.921,-55.5 255.28,-55.5 255.28,-37.5 125.921,-37.5"/>
<text text-anchor="middle" x="190.601" y="-43.5" font-family="Helvetica,sans-Serif" font-size="10.00">MK::Date::ChristmasStart</text>
</a>
</g>
</g>
<!-- Node1&#45;&gt;Node3 -->
<g id="edge2" class="edge"><title>Node1&#45;&gt;Node3</title>
<path fill="none" stroke="midnightblue" d="M100.458,-46.5C108.697,-46.5 117.26,-46.5 125.676,-46.5"/>
<polygon fill="midnightblue" stroke="midnightblue" points="100.229,-43.0001 90.2293,-46.5 100.229,-50.0001 100.229,-43.0001"/>
</g>
<!-- Node4 -->
<g id="node4" class="node"><title>Node4</title>
<g id="a_node4"><a xlink:href="class_m_k_1_1_date.html#a4bf5961f75daea4053c9624e2dce838a" target="_top" xlink:title="Returns the last day of Easter of this year. ">
<polygon fill="white" stroke="black" points="135.635,-0.5 135.635,-18.5 245.566,-18.5 245.566,-0.5 135.635,-0.5"/>
<text text-anchor="middle" x="190.601" y="-6.5" font-family="Helvetica,sans-Serif" font-size="10.00">MK::Date::EasterEnd</text>
</a>
</g>
</g>
<!-- Node1&#45;&gt;Node4 -->
<g id="edge3" class="edge"><title>Node1&#45;&gt;Node4</title>
<path fill="none" stroke="midnightblue" d="M90.8348,-34.9409C111.299,-29.6696 135.176,-23.5191 154.327,-18.586"/>
<polygon fill="midnightblue" stroke="midnightblue" points="89.9096,-31.5649 81.0988,-37.4488 91.6558,-38.3436 89.9096,-31.5649"/>
</g>
<!-- Node5 -->
<g id="node5" class="node"><title>Node5</title>
<g id="a_node5"><a xlink:href="class_m_k_1_1_date.html#a635b89179d1c821045ebfdd3a5389dd6" target="_top" xlink:title="Returns the first day of Easter of this year. ">
<polygon fill="white" stroke="black" points="291.28,-0.5 291.28,-18.5 404.536,-18.5 404.536,-0.5 291.28,-0.5"/>
<text text-anchor="middle" x="347.908" y="-6.5" font-family="Helvetica,sans-Serif" font-size="10.00">MK::Date::EasterStart</text>
</a>
</g>
</g>
<!-- Node4&#45;&gt;Node5 -->
<g id="edge4" class="edge"><title>Node4&#45;&gt;Node5</title>
<path fill="none" stroke="midnightblue" d="M256.008,-9.5C267.639,-9.5 279.679,-9.5 291.041,-9.5"/>
<polygon fill="midnightblue" stroke="midnightblue" points="255.92,-6.0001 245.92,-9.5 255.92,-13.0001 255.92,-6.0001"/>
</g>
</g>
</svg>
