<?xml version="1.0" encoding="UTF-8" standalone="no"?>
<!DOCTYPE svg PUBLIC "-//W3C//DTD SVG 1.1//EN"
 "http://www.w3.org/Graphics/SVG/1.1/DTD/svg11.dtd">
<!-- Generated by graphviz version 2.38.0 (20140413.2041)
 -->
<!-- Title: MK::Range::randomFloatingPoint Pages: 1 -->
<svg width="323pt" height="37pt"
 viewBox="0.00 0.00 323.34 37.00" xmlns="http://www.w3.org/2000/svg" xmlns:xlink="http://www.w3.org/1999/xlink">
<g id="graph0" class="graph" transform="scale(1 1) rotate(0) translate(4 33)">
<title>MK::Range::randomFloatingPoint</title>
<polygon fill="white" stroke="none" points="-4,4 -4,-33 319.344,-33 319.344,4 -4,4"/>
<!-- Node1 -->
<g id="node1" class="node"><title>Node1</title>
<polygon fill="#bfbfbf" stroke="black" points="0,-0.5 0,-28.5 141.063,-28.5 141.063,-0.5 0,-0.5"/>
<text text-anchor="start" x="8" y="-16.5" font-family="Helvetica,sans-Serif" font-size="10.00">MK::Range::randomFloating</text>
<text text-anchor="middle" x="70.5317" y="-6.5" font-family="Helvetica,sans-Serif" font-size="10.00">Point</text>
</g>
<!-- Node2 -->
<g id="node2" class="node"><title>Node2</title>
<g id="a_node2"><a xlink:href="namespace_m_k_1_1_random.html#ad4804d0b9d54e1632585daa62dcffd67" target="_top" xlink:title="Returns a floating point number in range . ">
<polygon fill="white" stroke="black" points="177.063,-0.5 177.063,-28.5 315.344,-28.5 315.344,-0.5 177.063,-0.5"/>
<text text-anchor="start" x="185.063" y="-16.5" font-family="Helvetica,sans-Serif" font-size="10.00">MK::Random::FloatingPoint</text>
<text text-anchor="middle" x="246.204" y="-6.5" font-family="Helvetica,sans-Serif" font-size="10.00">NumberInRange</text>
</a>
</g>
</g>
<!-- Node1&#45;&gt;Node2 -->
<g id="edge1" class="edge"><title>Node1&#45;&gt;Node2</title>
<path fill="none" stroke="midnightblue" d="M141.17,-14.5C149.648,-14.5 158.355,-14.5 166.948,-14.5"/>
<polygon fill="midnightblue" stroke="midnightblue" points="166.963,-18.0001 176.963,-14.5 166.963,-11.0001 166.963,-18.0001"/>
</g>
</g>
</svg>
