<?xml version="1.0" encoding="UTF-8" standalone="no"?>
<!DOCTYPE svg PUBLIC "-//W3C//DTD SVG 1.1//EN"
 "http://www.w3.org/Graphics/SVG/1.1/DTD/svg11.dtd">
<!-- Generated by graphviz version 2.38.0 (20140413.2041)
 -->
<!-- Title: MK::Range::first Pages: 1 -->
<svg width="252pt" height="101pt"
 viewBox="0.00 0.00 252.20 101.00" xmlns="http://www.w3.org/2000/svg" xmlns:xlink="http://www.w3.org/1999/xlink">
<g id="graph0" class="graph" transform="scale(1 1) rotate(0) translate(4 97)">
<title>MK::Range::first</title>
<polygon fill="white" stroke="none" points="-4,4 -4,-97 248.196,-97 248.196,4 -4,4"/>
<!-- Node1 -->
<g id="node1" class="node"><title>Node1</title>
<polygon fill="#bfbfbf" stroke="black" points="0,-37.5 0,-55.5 87.6895,-55.5 87.6895,-37.5 0,-37.5"/>
<text text-anchor="middle" x="43.8447" y="-43.5" font-family="Helvetica,sans-Serif" font-size="10.00">MK::Range::first</text>
</g>
<!-- Node2 -->
<g id="node2" class="node"><title>Node2</title>
<g id="a_node2"><a xlink:href="class_m_k_1_1_range.html#a3300c30dc590bc4b38a0bee1fd87edff" target="_top" xlink:title="Returns whether this range&#39;s first value is lower than given range&#39;s first value. ...">
<polygon fill="white" stroke="black" points="126.609,-74.5 126.609,-92.5 241.276,-92.5 241.276,-74.5 126.609,-74.5"/>
<text text-anchor="middle" x="183.943" y="-80.5" font-family="Helvetica,sans-Serif" font-size="10.00">MK::Range::operator&lt;</text>
</a>
</g>
</g>
<!-- Node1&#45;&gt;Node2 -->
<g id="edge1" class="edge"><title>Node1&#45;&gt;Node2</title>
<path fill="none" stroke="midnightblue" d="M88.5251,-58.2031C108.079,-63.4421 130.786,-69.5258 149.03,-74.414"/>
<polygon fill="midnightblue" stroke="midnightblue" points="89.1925,-54.7585 78.6273,-55.5512 87.3808,-61.52 89.1925,-54.7585"/>
</g>
<!-- Node3 -->
<g id="node3" class="node"><title>Node3</title>
<g id="a_node3"><a xlink:href="class_m_k_1_1_range.html#a6954ced84b7511d0cbef2f01ef1cf314" target="_top" xlink:title="Returns whether this range is equal to given range. ">
<polygon fill="white" stroke="black" points="123.689,-37.5 123.689,-55.5 244.196,-55.5 244.196,-37.5 123.689,-37.5"/>
<text text-anchor="middle" x="183.943" y="-43.5" font-family="Helvetica,sans-Serif" font-size="10.00">MK::Range::operator==</text>
</a>
</g>
</g>
<!-- Node1&#45;&gt;Node3 -->
<g id="edge2" class="edge"><title>Node1&#45;&gt;Node3</title>
<path fill="none" stroke="midnightblue" d="M97.8407,-46.5C106.253,-46.5 115.001,-46.5 123.549,-46.5"/>
<polygon fill="midnightblue" stroke="midnightblue" points="97.7829,-43.0001 87.7828,-46.5 97.7828,-50.0001 97.7829,-43.0001"/>
</g>
<!-- Node4 -->
<g id="node4" class="node"><title>Node4</title>
<g id="a_node4"><a xlink:href="class_m_k_1_1_range.html#a188a376c7aac01a6a61f3ccc80eeb5f6" target="_top" xlink:title="Returns whether this range&#39;s last value is grater than given range&#39;s last value. ">
<polygon fill="white" stroke="black" points="126.609,-0.5 126.609,-18.5 241.276,-18.5 241.276,-0.5 126.609,-0.5"/>
<text text-anchor="middle" x="183.943" y="-6.5" font-family="Helvetica,sans-Serif" font-size="10.00">MK::Range::operator&gt;</text>
</a>
</g>
</g>
<!-- Node1&#45;&gt;Node4 -->
<g id="edge3" class="edge"><title>Node1&#45;&gt;Node4</title>
<path fill="none" stroke="midnightblue" d="M88.5251,-34.7969C108.079,-29.5579 130.786,-23.4742 149.03,-18.586"/>
<polygon fill="midnightblue" stroke="midnightblue" points="87.3808,-31.48 78.6273,-37.4488 89.1925,-38.2415 87.3808,-31.48"/>
</g>
</g>
</svg>
