<?xml version="1.0" encoding="UTF-8" standalone="no"?>
<!DOCTYPE svg PUBLIC "-//W3C//DTD SVG 1.1//EN"
 "http://www.w3.org/Graphics/SVG/1.1/DTD/svg11.dtd">
<!-- Generated by graphviz version 2.38.0 (20140413.2041)
 -->
<!-- Title: MK::Date::ChristmasEnd Pages: 1 -->
<svg width="267pt" height="101pt"
 viewBox="0.00 0.00 267.38 101.00" xmlns="http://www.w3.org/2000/svg" xmlns:xlink="http://www.w3.org/1999/xlink">
<g id="graph0" class="graph" transform="scale(1 1) rotate(0) translate(4 97)">
<title>MK::Date::ChristmasEnd</title>
<polygon fill="white" stroke="none" points="-4,4 -4,-97 263.377,-97 263.377,4 -4,4"/>
<!-- Node1 -->
<g id="node1" class="node"><title>Node1</title>
<polygon fill="#bfbfbf" stroke="black" points="0,-37.5 0,-55.5 126.034,-55.5 126.034,-37.5 0,-37.5"/>
<text text-anchor="middle" x="63.0171" y="-43.5" font-family="Helvetica,sans-Serif" font-size="10.00">MK::Date::ChristmasEnd</text>
</g>
<!-- Node2 -->
<g id="node2" class="node"><title>Node2</title>
<g id="a_node2"><a xlink:href="class_m_k_1_1_date.html#ae6536982c961e35d8dea066de75465a7" target="_top" xlink:title="Returns a new date object given its UNIX timestamp. ">
<polygon fill="white" stroke="black" points="168.526,-74.5 168.526,-92.5 252.885,-92.5 252.885,-74.5 168.526,-74.5"/>
<text text-anchor="middle" x="210.706" y="-80.5" font-family="Helvetica,sans-Serif" font-size="10.00">MK::Date::Date</text>
</a>
</g>
</g>
<!-- Node1&#45;&gt;Node2 -->
<g id="edge1" class="edge"><title>Node1&#45;&gt;Node2</title>
<path fill="none" stroke="midnightblue" d="M99.6565,-55.5512C119.13,-60.4969 143.454,-66.6742 164.277,-71.9627"/>
<polygon fill="midnightblue" stroke="midnightblue" points="163.628,-75.4089 174.182,-74.4782 165.351,-68.6243 163.628,-75.4089"/>
</g>
<!-- Node3 -->
<g id="node3" class="node"><title>Node3</title>
<g id="a_node3"><a xlink:href="class_m_k_1_1_date.html#a4b09b7cb08efeeab9f1b145352998ce1" target="_top" xlink:title="Returns year component of this date. ">
<polygon fill="white" stroke="black" points="162.034,-37.5 162.034,-55.5 259.377,-55.5 259.377,-37.5 162.034,-37.5"/>
<text text-anchor="middle" x="210.706" y="-43.5" font-family="Helvetica,sans-Serif" font-size="10.00">MK::Date::getYear</text>
</a>
</g>
</g>
<!-- Node1&#45;&gt;Node3 -->
<g id="edge2" class="edge"><title>Node1&#45;&gt;Node3</title>
<path fill="none" stroke="midnightblue" d="M126.225,-46.5C134.692,-46.5 143.356,-46.5 151.744,-46.5"/>
<polygon fill="midnightblue" stroke="midnightblue" points="151.808,-50.0001 161.808,-46.5 151.808,-43.0001 151.808,-50.0001"/>
</g>
<!-- Node4 -->
<g id="node4" class="node"><title>Node4</title>
<g id="a_node4"><a xlink:href="class_m_k_1_1_date.html#ae9cb38bc92d6915fdfb9014fac32dd89" target="_top" xlink:title="Returns today&#39;s date. ">
<polygon fill="white" stroke="black" points="165.745,-0.5 165.745,-18.5 255.666,-18.5 255.666,-0.5 165.745,-0.5"/>
<text text-anchor="middle" x="210.706" y="-6.5" font-family="Helvetica,sans-Serif" font-size="10.00">MK::Date::Today</text>
</a>
</g>
</g>
<!-- Node1&#45;&gt;Node4 -->
<g id="edge3" class="edge"><title>Node1&#45;&gt;Node4</title>
<path fill="none" stroke="midnightblue" d="M99.6565,-37.4488C119.13,-32.5031 143.454,-26.3258 164.277,-21.0373"/>
<polygon fill="midnightblue" stroke="midnightblue" points="165.351,-24.3757 174.182,-18.5218 163.628,-17.5911 165.351,-24.3757"/>
</g>
</g>
</svg>
