<?xml version="1.0" encoding="UTF-8" standalone="no"?>
<!DOCTYPE svg PUBLIC "-//W3C//DTD SVG 1.1//EN"
 "http://www.w3.org/Graphics/SVG/1.1/DTD/svg11.dtd">
<!-- Generated by graphviz version 2.38.0 (20140413.2041)
 -->
<!-- Title: MK::Date::EasterEnd Pages: 1 -->
<svg width="244pt" height="64pt"
 viewBox="0.00 0.00 243.85 64.00" xmlns="http://www.w3.org/2000/svg" xmlns:xlink="http://www.w3.org/1999/xlink">
<g id="graph0" class="graph" transform="scale(1 1) rotate(0) translate(4 60)">
<title>MK::Date::EasterEnd</title>
<polygon fill="white" stroke="none" points="-4,4 -4,-60 239.852,-60 239.852,4 -4,4"/>
<!-- Node1 -->
<g id="node1" class="node"><title>Node1</title>
<polygon fill="#bfbfbf" stroke="black" points="0,-18.5 0,-36.5 109.931,-36.5 109.931,-18.5 0,-18.5"/>
<text text-anchor="middle" x="54.9653" y="-24.5" font-family="Helvetica,sans-Serif" font-size="10.00">MK::Date::EasterEnd</text>
</g>
<!-- Node2 -->
<g id="node2" class="node"><title>Node2</title>
<g id="a_node2"><a xlink:href="class_m_k_1_1_date.html#ae6536982c961e35d8dea066de75465a7" target="_top" xlink:title="Returns a new date object given its UNIX timestamp. ">
<polygon fill="white" stroke="black" points="148.711,-37.5 148.711,-55.5 233.071,-55.5 233.071,-37.5 148.711,-37.5"/>
<text text-anchor="middle" x="190.891" y="-43.5" font-family="Helvetica,sans-Serif" font-size="10.00">MK::Date::Date</text>
</a>
</g>
</g>
<!-- Node1&#45;&gt;Node2 -->
<g id="edge1" class="edge"><title>Node1&#45;&gt;Node2</title>
<path fill="none" stroke="midnightblue" d="M110.052,-35.1733C119.335,-36.4903 128.962,-37.856 138.181,-39.1639"/>
<polygon fill="midnightblue" stroke="midnightblue" points="137.984,-42.6709 148.376,-40.6103 138.967,-35.7403 137.984,-42.6709"/>
</g>
<!-- Node3 -->
<g id="node3" class="node"><title>Node3</title>
<g id="a_node3"><a xlink:href="class_m_k_1_1_date.html#ae9cb38bc92d6915fdfb9014fac32dd89" target="_top" xlink:title="Returns today&#39;s date. ">
<polygon fill="white" stroke="black" points="145.931,-0.5 145.931,-18.5 235.852,-18.5 235.852,-0.5 145.931,-0.5"/>
<text text-anchor="middle" x="190.891" y="-6.5" font-family="Helvetica,sans-Serif" font-size="10.00">MK::Date::Today</text>
</a>
</g>
</g>
<!-- Node1&#45;&gt;Node3 -->
<g id="edge2" class="edge"><title>Node1&#45;&gt;Node3</title>
<path fill="none" stroke="midnightblue" d="M110.052,-20.2306C118.516,-19.093 127.266,-17.917 135.732,-16.7792"/>
<polygon fill="midnightblue" stroke="midnightblue" points="136.435,-20.2162 145.879,-15.4153 135.502,-13.2786 136.435,-20.2162"/>
</g>
</g>
</svg>
