<?xml version="1.0" encoding="UTF-8" standalone="no"?>
<!DOCTYPE svg PUBLIC "-//W3C//DTD SVG 1.1//EN"
 "http://www.w3.org/Graphics/SVG/1.1/DTD/svg11.dtd">
<!-- Generated by graphviz version 2.38.0 (20140413.2041)
 -->
<!-- Title: MK::Date::getYear Pages: 1 -->
<svg width="271pt" height="64pt"
 viewBox="0.00 0.00 270.70 64.00" xmlns="http://www.w3.org/2000/svg" xmlns:xlink="http://www.w3.org/1999/xlink">
<g id="graph0" class="graph" transform="scale(1 1) rotate(0) translate(4 60)">
<title>MK::Date::getYear</title>
<polygon fill="white" stroke="none" points="-4,4 -4,-60 266.702,-60 266.702,4 -4,4"/>
<!-- Node1 -->
<g id="node1" class="node"><title>Node1</title>
<polygon fill="#bfbfbf" stroke="black" points="0,-18.5 0,-36.5 97.3428,-36.5 97.3428,-18.5 0,-18.5"/>
<text text-anchor="middle" x="48.6714" y="-24.5" font-family="Helvetica,sans-Serif" font-size="10.00">MK::Date::getYear</text>
</g>
<!-- Node2 -->
<g id="node2" class="node"><title>Node2</title>
<g id="a_node2"><a xlink:href="class_m_k_1_1_date.html#a8c6bcc1013cb9c1b7046bfa95354222d" target="_top" xlink:title="Returns the last day of Christmas of this year. ">
<polygon fill="white" stroke="black" points="135.005,-37.5 135.005,-55.5 261.04,-55.5 261.04,-37.5 135.005,-37.5"/>
<text text-anchor="middle" x="198.022" y="-43.5" font-family="Helvetica,sans-Serif" font-size="10.00">MK::Date::ChristmasEnd</text>
</a>
</g>
</g>
<!-- Node1&#45;&gt;Node2 -->
<g id="edge1" class="edge"><title>Node1&#45;&gt;Node2</title>
<path fill="none" stroke="midnightblue" d="M107.502,-34.957C116.503,-36.1175 125.834,-37.3207 134.924,-38.4928"/>
<polygon fill="midnightblue" stroke="midnightblue" points="107.878,-31.4764 97.5121,-33.6688 106.982,-38.419 107.878,-31.4764"/>
</g>
<!-- Node3 -->
<g id="node3" class="node"><title>Node3</title>
<g id="a_node3"><a xlink:href="class_m_k_1_1_date.html#a406a0a909df8ece0fd4bc5ccf16d7dde" target="_top" xlink:title="Returns the first day of Christmas of this year. ">
<polygon fill="white" stroke="black" points="133.343,-0.5 133.343,-18.5 262.702,-18.5 262.702,-0.5 133.343,-0.5"/>
<text text-anchor="middle" x="198.022" y="-6.5" font-family="Helvetica,sans-Serif" font-size="10.00">MK::Date::ChristmasStart</text>
</a>
</g>
</g>
<!-- Node1&#45;&gt;Node3 -->
<g id="edge2" class="edge"><title>Node1&#45;&gt;Node3</title>
<path fill="none" stroke="midnightblue" d="M107.629,-20.42C116.067,-19.3893 124.793,-18.3234 133.336,-17.2797"/>
<polygon fill="midnightblue" stroke="midnightblue" points="107.014,-16.9691 97.5121,-21.6559 107.863,-23.9174 107.014,-16.9691"/>
</g>
</g>
</svg>
