<?xml version="1.0" encoding="UTF-8" standalone="no"?>
<!DOCTYPE svg PUBLIC "-//W3C//DTD SVG 1.1//EN"
 "http://www.w3.org/Graphics/SVG/1.1/DTD/svg11.dtd">
<!-- Generated by graphviz version 2.38.0 (20140413.2041)
 -->
<!-- Title: MK::Date::getTimestamp Pages: 1 -->
<svg width="282pt" height="64pt"
 viewBox="0.00 0.00 282.39 64.00" xmlns="http://www.w3.org/2000/svg" xmlns:xlink="http://www.w3.org/1999/xlink">
<g id="graph0" class="graph" transform="scale(1 1) rotate(0) translate(4 60)">
<title>MK::Date::getTimestamp</title>
<polygon fill="white" stroke="none" points="-4,4 -4,-60 278.387,-60 278.387,4 -4,4"/>
<!-- Node1 -->
<g id="node1" class="node"><title>Node1</title>
<polygon fill="#bfbfbf" stroke="black" points="0,-18.5 0,-36.5 126.225,-36.5 126.225,-18.5 0,-18.5"/>
<text text-anchor="middle" x="63.1123" y="-24.5" font-family="Helvetica,sans-Serif" font-size="10.00">MK::Date::getTimestamp</text>
</g>
<!-- Node2 -->
<g id="node2" class="node"><title>Node2</title>
<g id="a_node2"><a xlink:href="class_m_k_1_1_date.html#ab911a645043ca3d8ac618c814ba1fbaa" target="_top" xlink:title="Returns whether left hand side happened before right hand side. ">
<polygon fill="white" stroke="black" points="165.145,-37.5 165.145,-55.5 271.467,-55.5 271.467,-37.5 165.145,-37.5"/>
<text text-anchor="middle" x="218.306" y="-43.5" font-family="Helvetica,sans-Serif" font-size="10.00">MK::Date::operator&lt;</text>
</a>
</g>
</g>
<!-- Node1&#45;&gt;Node2 -->
<g id="edge1" class="edge"><title>Node1&#45;&gt;Node2</title>
<path fill="none" stroke="midnightblue" d="M136.372,-36.4622C145.977,-37.6534 155.673,-38.8559 164.853,-39.9945"/>
<polygon fill="midnightblue" stroke="midnightblue" points="136.777,-32.9856 126.422,-35.228 135.915,-39.9323 136.777,-32.9856"/>
</g>
<!-- Node3 -->
<g id="node3" class="node"><title>Node3</title>
<g id="a_node3"><a xlink:href="class_m_k_1_1_date.html#abae5f9789ad8e581773a86c078b03718" target="_top" xlink:title="Returns whether given dates are equal or not. ">
<polygon fill="white" stroke="black" points="162.225,-0.5 162.225,-18.5 274.387,-18.5 274.387,-0.5 162.225,-0.5"/>
<text text-anchor="middle" x="218.306" y="-6.5" font-family="Helvetica,sans-Serif" font-size="10.00">MK::Date::operator==</text>
</a>
</g>
</g>
<!-- Node1&#45;&gt;Node3 -->
<g id="edge2" class="edge"><title>Node1&#45;&gt;Node3</title>
<path fill="none" stroke="midnightblue" d="M136.432,-19.0026C145.008,-17.9948 153.657,-16.9786 161.945,-16.0048"/>
<polygon fill="midnightblue" stroke="midnightblue" points="135.945,-15.5356 126.422,-20.1787 136.762,-22.4878 135.945,-15.5356"/>
</g>
</g>
</svg>
