<?xml version="1.0" encoding="UTF-8" standalone="no"?>
<!DOCTYPE svg PUBLIC "-//W3C//DTD SVG 1.1//EN"
 "http://www.w3.org/Graphics/SVG/1.1/DTD/svg11.dtd">
<!-- Generated by graphviz version 2.38.0 (20140413.2041)
 -->
<!-- Title: MK::Actions::MoveToNode::create Pages: 1 -->
<svg width="312pt" height="37pt"
 viewBox="0.00 0.00 311.65 37.00" xmlns="http://www.w3.org/2000/svg" xmlns:xlink="http://www.w3.org/1999/xlink">
<g id="graph0" class="graph" transform="scale(1 1) rotate(0) translate(4 33)">
<title>MK::Actions::MoveToNode::create</title>
<polygon fill="white" stroke="none" points="-4,4 -4,-33 307.654,-33 307.654,4 -4,4"/>
<!-- Node1 -->
<g id="node1" class="node"><title>Node1</title>
<polygon fill="#bfbfbf" stroke="black" points="0,-0.5 0,-28.5 133.827,-28.5 133.827,-0.5 0,-0.5"/>
<text text-anchor="start" x="8" y="-16.5" font-family="Helvetica,sans-Serif" font-size="10.00">MK::Actions::MoveToNode</text>
<text text-anchor="middle" x="66.9136" y="-6.5" font-family="Helvetica,sans-Serif" font-size="10.00">::create</text>
</g>
<!-- Node2 -->
<g id="node2" class="node"><title>Node2</title>
<g id="a_node2"><a xlink:href="class_m_k_1_1_actions_1_1_move_to_node.html#aad477ad644b02fe577b5b1775896d49d" target="_top" xlink:title="Initializes the action with given duration. ">
<polygon fill="white" stroke="black" points="169.827,-0.5 169.827,-28.5 303.654,-28.5 303.654,-0.5 169.827,-0.5"/>
<text text-anchor="start" x="177.827" y="-16.5" font-family="Helvetica,sans-Serif" font-size="10.00">MK::Actions::MoveToNode</text>
<text text-anchor="middle" x="236.741" y="-6.5" font-family="Helvetica,sans-Serif" font-size="10.00">::initWithDuration</text>
</a>
</g>
</g>
<!-- Node1&#45;&gt;Node2 -->
<g id="edge1" class="edge"><title>Node1&#45;&gt;Node2</title>
<path fill="none" stroke="midnightblue" d="M134.243,-14.5C142.516,-14.5 151.027,-14.5 159.435,-14.5"/>
<polygon fill="midnightblue" stroke="midnightblue" points="159.618,-18.0001 169.618,-14.5 159.618,-11.0001 159.618,-18.0001"/>
</g>
</g>
</svg>
