<?xml version="1.0" encoding="UTF-8" standalone="no"?>
<!DOCTYPE svg PUBLIC "-//W3C//DTD SVG 1.1//EN"
 "http://www.w3.org/Graphics/SVG/1.1/DTD/svg11.dtd">
<!-- Generated by graphviz version 2.38.0 (20140413.2041)
 -->
<!-- Title: MK::Actions::RemoveFromParent::create Pages: 1 -->
<svg width="374pt" height="37pt"
 viewBox="0.00 0.00 373.87 37.00" xmlns="http://www.w3.org/2000/svg" xmlns:xlink="http://www.w3.org/1999/xlink">
<g id="graph0" class="graph" transform="scale(1 1) rotate(0) translate(4 33)">
<title>MK::Actions::RemoveFromParent::create</title>
<polygon fill="white" stroke="none" points="-4,4 -4,-33 369.871,-33 369.871,4 -4,4"/>
<!-- Node1 -->
<g id="node1" class="node"><title>Node1</title>
<polygon fill="#bfbfbf" stroke="black" points="0,-0.5 0,-28.5 164.936,-28.5 164.936,-0.5 0,-0.5"/>
<text text-anchor="start" x="8" y="-16.5" font-family="Helvetica,sans-Serif" font-size="10.00">MK::Actions::RemoveFromParent</text>
<text text-anchor="middle" x="82.4678" y="-6.5" font-family="Helvetica,sans-Serif" font-size="10.00">::create</text>
</g>
<!-- Node2 -->
<g id="node2" class="node"><title>Node2</title>
<g id="a_node2"><a xlink:href="class_m_k_1_1_actions_1_1_remove_from_parent.html#a20a04ac7b796056388cfc6589f2b9225" target="_top" xlink:title="Initializes the action with given duration. ">
<polygon fill="white" stroke="black" points="200.936,-0.5 200.936,-28.5 365.871,-28.5 365.871,-0.5 200.936,-0.5"/>
<text text-anchor="start" x="208.936" y="-16.5" font-family="Helvetica,sans-Serif" font-size="10.00">MK::Actions::RemoveFromParent</text>
<text text-anchor="middle" x="283.403" y="-6.5" font-family="Helvetica,sans-Serif" font-size="10.00">::initWithDuration</text>
</a>
</g>
</g>
<!-- Node1&#45;&gt;Node2 -->
<g id="edge1" class="edge"><title>Node1&#45;&gt;Node2</title>
<path fill="none" stroke="midnightblue" d="M164.956,-14.5C173.44,-14.5 182.104,-14.5 190.691,-14.5"/>
<polygon fill="midnightblue" stroke="midnightblue" points="190.719,-18.0001 200.719,-14.5 190.719,-11.0001 190.719,-18.0001"/>
</g>
</g>
</svg>
