<?xml version="1.0" encoding="UTF-8" standalone="no"?>
<!DOCTYPE svg PUBLIC "-//W3C//DTD SVG 1.1//EN"
 "http://www.w3.org/Graphics/SVG/1.1/DTD/svg11.dtd">
<!-- Generated by graphviz version 2.38.0 (20140413.2041)
 -->
<!-- Title: MK::Date::EasterStart Pages: 1 -->
<svg width="393pt" height="64pt"
 viewBox="0.00 0.00 393.11 64.00" xmlns="http://www.w3.org/2000/svg" xmlns:xlink="http://www.w3.org/1999/xlink">
<g id="graph0" class="graph" transform="scale(1 1) rotate(0) translate(4 60)">
<title>MK::Date::EasterStart</title>
<polygon fill="white" stroke="none" points="-4,4 -4,-60 389.107,-60 389.107,4 -4,4"/>
<!-- Node1 -->
<g id="node1" class="node"><title>Node1</title>
<polygon fill="#bfbfbf" stroke="black" points="0,-19.5 0,-37.5 113.256,-37.5 113.256,-19.5 0,-19.5"/>
<text text-anchor="middle" x="56.6279" y="-25.5" font-family="Helvetica,sans-Serif" font-size="10.00">MK::Date::EasterStart</text>
</g>
<!-- Node2 -->
<g id="node2" class="node"><title>Node2</title>
<g id="a_node2"><a xlink:href="class_m_k_1_1_date.html#ae6536982c961e35d8dea066de75465a7" target="_top" xlink:title="Returns a new date object given its UNIX timestamp. ">
<polygon fill="white" stroke="black" points="297.967,-37.5 297.967,-55.5 382.327,-55.5 382.327,-37.5 297.967,-37.5"/>
<text text-anchor="middle" x="340.147" y="-43.5" font-family="Helvetica,sans-Serif" font-size="10.00">MK::Date::Date</text>
</a>
</g>
</g>
<!-- Node1&#45;&gt;Node2 -->
<g id="edge1" class="edge"><title>Node1&#45;&gt;Node2</title>
<path fill="none" stroke="midnightblue" d="M113.584,-32.0777C164.333,-35.3226 238.529,-40.0666 287.794,-43.2166"/>
<polygon fill="midnightblue" stroke="midnightblue" points="287.708,-46.7181 297.911,-43.8634 288.155,-39.7324 287.708,-46.7181"/>
</g>
<!-- Node3 -->
<g id="node3" class="node"><title>Node3</title>
<g id="a_node3"><a xlink:href="class_m_k_1_1_date.html#a4bf5961f75daea4053c9624e2dce838a" target="_top" xlink:title="Returns the last day of Easter of this year. ">
<polygon fill="white" stroke="black" points="149.256,-0.5 149.256,-18.5 259.187,-18.5 259.187,-0.5 149.256,-0.5"/>
<text text-anchor="middle" x="204.221" y="-6.5" font-family="Helvetica,sans-Serif" font-size="10.00">MK::Date::EasterEnd</text>
</a>
</g>
</g>
<!-- Node1&#45;&gt;Node3 -->
<g id="edge2" class="edge"><title>Node1&#45;&gt;Node3</title>
<path fill="none" stroke="midnightblue" d="M113.502,-21.2084C121.917,-20.1103 130.651,-18.9704 139.221,-17.8521"/>
<polygon fill="midnightblue" stroke="midnightblue" points="139.713,-21.3177 149.176,-16.553 138.807,-14.3765 139.713,-21.3177"/>
</g>
<!-- Node3&#45;&gt;Node2 -->
<g id="edge3" class="edge"><title>Node3&#45;&gt;Node2</title>
<path fill="none" stroke="midnightblue" d="M237.983,-18.5512C255.575,-23.4114 277.472,-29.4608 296.39,-34.6874"/>
<polygon fill="midnightblue" stroke="midnightblue" points="295.688,-38.1246 306.259,-37.414 297.552,-31.3773 295.688,-38.1246"/>
</g>
<!-- Node4 -->
<g id="node4" class="node"><title>Node4</title>
<g id="a_node4"><a xlink:href="class_m_k_1_1_date.html#ae9cb38bc92d6915fdfb9014fac32dd89" target="_top" xlink:title="Returns today&#39;s date. ">
<polygon fill="white" stroke="black" points="295.187,-0.5 295.187,-18.5 385.107,-18.5 385.107,-0.5 295.187,-0.5"/>
<text text-anchor="middle" x="340.147" y="-6.5" font-family="Helvetica,sans-Serif" font-size="10.00">MK::Date::Today</text>
</a>
</g>
</g>
<!-- Node3&#45;&gt;Node4 -->
<g id="edge4" class="edge"><title>Node3&#45;&gt;Node4</title>
<path fill="none" stroke="midnightblue" d="M259.308,-9.5C267.772,-9.5 276.522,-9.5 284.988,-9.5"/>
<polygon fill="midnightblue" stroke="midnightblue" points="285.135,-13.0001 295.135,-9.5 285.135,-6.0001 285.135,-13.0001"/>
</g>
</g>
</svg>
