<?xml version="1.0" encoding="UTF-8" standalone="no"?>
<!DOCTYPE svg PUBLIC "-//W3C//DTD SVG 1.1//EN"
 "http://www.w3.org/Graphics/SVG/1.1/DTD/svg11.dtd">
<!-- Generated by graphviz version 2.38.0 (20140413.2041)
 -->
<!-- Title: MK::Range::operator&gt; Pages: 1 -->
<svg width="246pt" height="64pt"
 viewBox="0.00 0.00 246.36 64.00" xmlns="http://www.w3.org/2000/svg" xmlns:xlink="http://www.w3.org/1999/xlink">
<g id="graph0" class="graph" transform="scale(1 1) rotate(0) translate(4 60)">
<title>MK::Range::operator&gt;</title>
<polygon fill="white" stroke="none" points="-4,4 -4,-60 242.356,-60 242.356,4 -4,4"/>
<!-- Node1 -->
<g id="node1" class="node"><title>Node1</title>
<polygon fill="#bfbfbf" stroke="black" points="0,-18.5 0,-36.5 114.667,-36.5 114.667,-18.5 0,-18.5"/>
<text text-anchor="middle" x="57.3335" y="-24.5" font-family="Helvetica,sans-Serif" font-size="10.00">MK::Range::operator&gt;</text>
</g>
<!-- Node2 -->
<g id="node2" class="node"><title>Node2</title>
<g id="a_node2"><a xlink:href="class_m_k_1_1_range.html#a4a9c283160741dc8094b0de20f5f506c" target="_top" xlink:title="Returns first value contained in this range. ">
<polygon fill="white" stroke="black" points="150.667,-37.5 150.667,-55.5 238.356,-55.5 238.356,-37.5 150.667,-37.5"/>
<text text-anchor="middle" x="194.512" y="-43.5" font-family="Helvetica,sans-Serif" font-size="10.00">MK::Range::first</text>
</a>
</g>
</g>
<!-- Node1&#45;&gt;Node2 -->
<g id="edge1" class="edge"><title>Node1&#45;&gt;Node2</title>
<path fill="none" stroke="midnightblue" d="M114.878,-35.4476C123.313,-36.6333 131.985,-37.852 140.347,-39.0274"/>
<polygon fill="midnightblue" stroke="midnightblue" points="139.967,-42.5084 150.357,-40.4344 140.942,-35.5765 139.967,-42.5084"/>
</g>
<!-- Node3 -->
<g id="node3" class="node"><title>Node3</title>
<g id="a_node3"><a xlink:href="class_m_k_1_1_range.html#ab748d94649f53d6475ac4b7ecbc64756" target="_top" xlink:title="Returns last value contained in this range. ">
<polygon fill="white" stroke="black" points="150.94,-0.5 150.94,-18.5 238.083,-18.5 238.083,-0.5 150.94,-0.5"/>
<text text-anchor="middle" x="194.512" y="-6.5" font-family="Helvetica,sans-Serif" font-size="10.00">MK::Range::last</text>
</a>
</g>
</g>
<!-- Node1&#45;&gt;Node3 -->
<g id="edge2" class="edge"><title>Node1&#45;&gt;Node3</title>
<path fill="none" stroke="midnightblue" d="M114.878,-19.9707C123.416,-18.8337 132.196,-17.6646 140.653,-16.5386"/>
<polygon fill="midnightblue" stroke="midnightblue" points="141.319,-19.9808 150.769,-15.1915 140.395,-13.0421 141.319,-19.9808"/>
</g>
</g>
</svg>
