<?xml version="1.0" encoding="UTF-8" standalone="no"?>
<!DOCTYPE svg PUBLIC "-//W3C//DTD SVG 1.1//EN"
 "http://www.w3.org/Graphics/SVG/1.1/DTD/svg11.dtd">
<!-- Generated by graphviz version 2.38.0 (20140413.2041)
 -->
<!-- Title: Apple Pages: 1 -->
<svg width="238pt" height="148pt"
 viewBox="0.00 0.00 238.00 148.00" xmlns="http://www.w3.org/2000/svg" xmlns:xlink="http://www.w3.org/1999/xlink">
<g id="graph0" class="graph" transform="scale(1 1) rotate(0) translate(4 144)">
<title>Apple</title>
<polygon fill="white" stroke="none" points="-4,4 -4,-144 234,-144 234,4 -4,4"/>
<g id="clust1" class="cluster"><title>clusterdir_9fa0c62fe96afd40f6070d0df8a002ad</title>
<g id="a_clust1"><a xlink:href="dir_9fa0c62fe96afd40f6070d0df8a002ad.html" target="_top">
<polygon fill="#eeeeff" stroke="black" points="8,-8 8,-132 222,-132 222,-8 8,-8"/>
</a>
</g>
</g>
<!-- dir_9fa0c62fe96afd40f6070d0df8a002ad -->
<g id="node1" class="node"><title>dir_9fa0c62fe96afd40f6070d0df8a002ad</title>
<text text-anchor="middle" x="187" y="-103" font-family="Helvetica,sans-Serif" font-size="10.00">Apple</text>
</g>
<!-- dir_ae0f59d1144d1be96182f33db3cf9df6 -->
<g id="node2" class="node"><title>dir_ae0f59d1144d1be96182f33db3cf9df6</title>
<g id="a_node2"><a xlink:href="dir_ae0f59d1144d1be96182f33db3cf9df6.html" target="_top" xlink:title="Common">
<polygon fill="white" stroke="black" points="107.068,-52 50.9319,-52 50.9319,-16 107.068,-16 107.068,-52"/>
<text text-anchor="middle" x="79" y="-31" font-family="Helvetica,sans-Serif" font-size="10.00">Common</text>
</a>
</g>
</g>
<!-- dir_4f95c699153a6f4fde77837a8ac2cbfd -->
<g id="node3" class="node"><title>dir_4f95c699153a6f4fde77837a8ac2cbfd</title>
<g id="a_node3"><a xlink:href="dir_4f95c699153a6f4fde77837a8ac2cbfd.html" target="_top" xlink:title="iOS">
<polygon fill="white" stroke="black" points="142,-124 88,-124 88,-88 142,-88 142,-124"/>
<text text-anchor="middle" x="115" y="-103" font-family="Helvetica,sans-Serif" font-size="10.00">iOS</text>
</a>
</g>
</g>
<!-- dir_4f95c699153a6f4fde77837a8ac2cbfd&#45;&gt;dir_ae0f59d1144d1be96182f33db3cf9df6 -->
<g id="edge1" class="edge"><title>dir_4f95c699153a6f4fde77837a8ac2cbfd&#45;&gt;dir_ae0f59d1144d1be96182f33db3cf9df6</title>
<path fill="none" stroke="black" d="M106.101,-87.6966C102.003,-79.7284 97.0512,-70.0995 92.5073,-61.2641"/>
<polygon fill="black" stroke="black" points="95.4826,-59.3965 87.7965,-52.1043 89.2575,-62.598 95.4826,-59.3965"/>
<g id="a_edge1&#45;headlabel"><a xlink:href="dir_000003_000002.html" target="_top" xlink:title="6">
<text text-anchor="middle" x="99.6514" y="-58.2946" font-family="Helvetica,sans-Serif" font-size="10.00">6</text>
</a>
</g>
</g>
<!-- dir_a08f7864eec76e06441c79d14b05988b -->
<g id="node4" class="node"><title>dir_a08f7864eec76e06441c79d14b05988b</title>
<g id="a_node4"><a xlink:href="dir_a08f7864eec76e06441c79d14b05988b.html" target="_top" xlink:title="OS X">
<polygon fill="white" stroke="black" points="70,-124 16,-124 16,-88 70,-88 70,-124"/>
<text text-anchor="middle" x="43" y="-103" font-family="Helvetica,sans-Serif" font-size="10.00">OS X</text>
</a>
</g>
</g>
<!-- dir_a08f7864eec76e06441c79d14b05988b&#45;&gt;dir_ae0f59d1144d1be96182f33db3cf9df6 -->
<g id="edge2" class="edge"><title>dir_a08f7864eec76e06441c79d14b05988b&#45;&gt;dir_ae0f59d1144d1be96182f33db3cf9df6</title>
<path fill="none" stroke="black" d="M51.8989,-87.6966C55.9968,-79.7284 60.9488,-70.0995 65.4927,-61.2641"/>
<polygon fill="black" stroke="black" points="68.7425,-62.598 70.2035,-52.1043 62.5174,-59.3965 68.7425,-62.598"/>
<g id="a_edge2&#45;headlabel"><a xlink:href="dir_000004_000002.html" target="_top" xlink:title="3">
<text text-anchor="middle" x="69.6235" y="-64.0931" font-family="Helvetica,sans-Serif" font-size="10.00">3</text>
</a>
</g>
</g>
</g>
</svg>
