<?xml version="1.0" encoding="UTF-8" standalone="no"?>
<!DOCTYPE svg PUBLIC "-//W3C//DTD SVG 1.1//EN"
 "http://www.w3.org/Graphics/SVG/1.1/DTD/svg11.dtd">
<!-- Generated by graphviz version 2.38.0 (20140413.2041)
 -->
<!-- Title: Apple/iOS/Device.mm Pages: 1 -->
<svg width="449pt" height="137pt"
 viewBox="0.00 0.00 448.91 137.00" xmlns="http://www.w3.org/2000/svg" xmlns:xlink="http://www.w3.org/1999/xlink">
<g id="graph0" class="graph" transform="scale(1 1) rotate(0) translate(4 133)">
<title>Apple/iOS/Device.mm</title>
<polygon fill="white" stroke="none" points="-4,4 -4,-133 444.906,-133 444.906,4 -4,4"/>
<!-- Node1 -->
<g id="node1" class="node"><title>Node1</title>
<polygon fill="#bfbfbf" stroke="black" points="229.446,-110.5 229.446,-128.5 343.253,-128.5 343.253,-110.5 229.446,-110.5"/>
<text text-anchor="middle" x="286.35" y="-116.5" font-family="Helvetica,sans-Serif" font-size="10.00">Apple/iOS/Device.mm</text>
</g>
<!-- Node2 -->
<g id="node2" class="node"><title>Node2</title>
<g id="a_node2"><a xlink:href="_device_8hpp.html" target="_top" xlink:title="../../Device.hpp">
<polygon fill="white" stroke="black" points="0,-55.5 0,-73.5 82.6992,-73.5 82.6992,-55.5 0,-55.5"/>
<text text-anchor="middle" x="41.3496" y="-61.5" font-family="Helvetica,sans-Serif" font-size="10.00">../../Device.hpp</text>
</a>
</g>
</g>
<!-- Node1&#45;&gt;Node2 -->
<g id="edge1" class="edge"><title>Node1&#45;&gt;Node2</title>
<path fill="none" stroke="midnightblue" d="M249.139,-110.45C206.114,-101.143 135.22,-85.8067 88.4039,-75.6791"/>
<polygon fill="midnightblue" stroke="midnightblue" points="89.0218,-72.2319 78.5078,-73.5383 87.5417,-79.0736 89.0218,-72.2319"/>
</g>
<!-- Node5 -->
<g id="node5" class="node"><title>Node5</title>
<polygon fill="white" stroke="#bfbfbf" points="293.751,-0.5 293.751,-18.5 420.948,-18.5 420.948,-0.5 293.751,-0.5"/>
<text text-anchor="middle" x="357.35" y="-6.5" font-family="Helvetica,sans-Serif" font-size="10.00">Foundation/Foundation.h</text>
</g>
<!-- Node1&#45;&gt;Node5 -->
<g id="edge4" class="edge"><title>Node1&#45;&gt;Node5</title>
<path fill="none" stroke="midnightblue" d="M343.489,-117.429C376.285,-113.501 415.065,-102.516 436.35,-74 452.638,-52.1772 420.365,-33.5337 392.289,-22.2004"/>
<polygon fill="midnightblue" stroke="midnightblue" points="393.211,-18.8056 382.62,-18.5033 390.711,-25.344 393.211,-18.8056"/>
</g>
<!-- Node6 -->
<g id="node6" class="node"><title>Node6</title>
<polygon fill="white" stroke="#bfbfbf" points="233.879,-55.5 233.879,-73.5 338.82,-73.5 338.82,-55.5 233.879,-55.5"/>
<text text-anchor="middle" x="286.35" y="-61.5" font-family="Helvetica,sans-Serif" font-size="10.00">OpenGLES/EAGL.h</text>
</g>
<!-- Node1&#45;&gt;Node6 -->
<g id="edge5" class="edge"><title>Node1&#45;&gt;Node6</title>
<path fill="none" stroke="midnightblue" d="M286.35,-110.219C286.35,-103.177 286.35,-92.8083 286.35,-83.8277"/>
<polygon fill="midnightblue" stroke="midnightblue" points="289.85,-83.5495 286.35,-73.5496 282.85,-83.5496 289.85,-83.5495"/>
</g>
<!-- Node7 -->
<g id="node7" class="node"><title>Node7</title>
<polygon fill="white" stroke="#bfbfbf" points="357.121,-55.5 357.121,-73.5 427.579,-73.5 427.579,-55.5 357.121,-55.5"/>
<text text-anchor="middle" x="392.35" y="-61.5" font-family="Helvetica,sans-Serif" font-size="10.00">UIKit/UIKit.h</text>
</g>
<!-- Node1&#45;&gt;Node7 -->
<g id="edge6" class="edge"><title>Node1&#45;&gt;Node7</title>
<path fill="none" stroke="midnightblue" d="M302.449,-110.45C319.57,-101.89 346.891,-88.2291 366.926,-78.2119"/>
<polygon fill="midnightblue" stroke="midnightblue" points="368.72,-81.228 376.099,-73.6253 365.589,-74.967 368.72,-81.228"/>
</g>
<!-- Node8 -->
<g id="node8" class="node"><title>Node8</title>
<g id="a_node8"><a xlink:href="_c_p_p_utils_8h.html" target="_top" xlink:title="../Common/CPPUtils.h">
<polygon fill="white" stroke="black" points="100.337,-55.5 100.337,-73.5 216.362,-73.5 216.362,-55.5 100.337,-55.5"/>
<text text-anchor="middle" x="158.35" y="-61.5" font-family="Helvetica,sans-Serif" font-size="10.00">../Common/CPPUtils.h</text>
</a>
</g>
</g>
<!-- Node1&#45;&gt;Node8 -->
<g id="edge7" class="edge"><title>Node1&#45;&gt;Node8</title>
<path fill="none" stroke="midnightblue" d="M266.909,-110.45C245.764,-101.695 211.737,-87.6055 187.414,-77.5346"/>
<polygon fill="midnightblue" stroke="midnightblue" points="188.551,-74.2173 177.973,-73.6253 185.873,-80.6848 188.551,-74.2173"/>
</g>
<!-- Node3 -->
<g id="node3" class="node"><title>Node3</title>
<polygon fill="white" stroke="#bfbfbf" points="114.123,-0.5 114.123,-18.5 154.576,-18.5 154.576,-0.5 114.123,-0.5"/>
<text text-anchor="middle" x="134.35" y="-6.5" font-family="Helvetica,sans-Serif" font-size="10.00">string</text>
</g>
<!-- Node2&#45;&gt;Node3 -->
<g id="edge2" class="edge"><title>Node2&#45;&gt;Node3</title>
<path fill="none" stroke="midnightblue" d="M55.4743,-55.4504C70.2229,-47.0453 93.5978,-33.7241 111.079,-23.7618"/>
<polygon fill="midnightblue" stroke="midnightblue" points="113.137,-26.6176 120.092,-18.6253 109.671,-20.5358 113.137,-26.6176"/>
</g>
<!-- Node4 -->
<g id="node4" class="node"><title>Node4</title>
<polygon fill="white" stroke="#bfbfbf" points="10.5566,-0.5 10.5566,-18.5 72.1426,-18.5 72.1426,-0.5 10.5566,-0.5"/>
<text text-anchor="middle" x="41.3496" y="-6.5" font-family="Helvetica,sans-Serif" font-size="10.00">cocos2d.h</text>
</g>
<!-- Node2&#45;&gt;Node4 -->
<g id="edge3" class="edge"><title>Node2&#45;&gt;Node4</title>
<path fill="none" stroke="midnightblue" d="M41.3496,-55.2188C41.3496,-48.1769 41.3496,-37.8083 41.3496,-28.8277"/>
<polygon fill="midnightblue" stroke="midnightblue" points="44.8497,-28.5495 41.3496,-18.5496 37.8497,-28.5496 44.8497,-28.5495"/>
</g>
<!-- Node8&#45;&gt;Node3 -->
<g id="edge9" class="edge"><title>Node8&#45;&gt;Node3</title>
<path fill="none" stroke="midnightblue" d="M154.6,-55.2188C151.305,-47.9421 146.401,-37.1134 142.244,-27.9345"/>
<polygon fill="midnightblue" stroke="midnightblue" points="145.308,-26.2153 137.995,-18.5496 138.931,-29.1029 145.308,-26.2153"/>
</g>
<!-- Node8&#45;&gt;Node5 -->
<g id="edge8" class="edge"><title>Node8&#45;&gt;Node5</title>
<path fill="none" stroke="midnightblue" d="M188.573,-55.4504C223.008,-46.2794 279.419,-31.2555 317.443,-21.1283"/>
<polygon fill="midnightblue" stroke="midnightblue" points="318.406,-24.4941 327.168,-18.5383 316.604,-17.7299 318.406,-24.4941"/>
</g>
</g>
</svg>
