<?xml version="1.0" encoding="UTF-8" standalone="no"?>
<!DOCTYPE svg PUBLIC "-//W3C//DTD SVG 1.1//EN"
 "http://www.w3.org/Graphics/SVG/1.1/DTD/svg11.dtd">
<!-- Generated by graphviz version 2.38.0 (20140413.2041)
 -->
<!-- Title: Apple/iOS/Facebook.mm Pages: 1 -->
<svg width="924pt" height="147pt"
 viewBox="0.00 0.00 923.91 147.00" xmlns="http://www.w3.org/2000/svg" xmlns:xlink="http://www.w3.org/1999/xlink">
<g id="graph0" class="graph" transform="scale(1 1) rotate(0) translate(4 143)">
<title>Apple/iOS/Facebook.mm</title>
<polygon fill="white" stroke="none" points="-4,4 -4,-143 919.907,-143 919.907,4 -4,4"/>
<!-- Node1 -->
<g id="node1" class="node"><title>Node1</title>
<polygon fill="#bfbfbf" stroke="black" points="442.446,-120.5 442.446,-138.5 569.603,-138.5 569.603,-120.5 442.446,-120.5"/>
<text text-anchor="middle" x="506.024" y="-126.5" font-family="Helvetica,sans-Serif" font-size="10.00">Apple/iOS/Facebook.mm</text>
</g>
<!-- Node2 -->
<g id="node2" class="node"><title>Node2</title>
<g id="a_node2"><a xlink:href="_facebook_8hpp.html" target="_top" xlink:title="../../Facebook.hpp">
<polygon fill="white" stroke="black" points="0,-60.5 0,-78.5 96.0488,-78.5 96.0488,-60.5 0,-60.5"/>
<text text-anchor="middle" x="48.0244" y="-66.5" font-family="Helvetica,sans-Serif" font-size="10.00">../../Facebook.hpp</text>
</a>
</g>
</g>
<!-- Node1&#45;&gt;Node2 -->
<g id="edge1" class="edge"><title>Node1&#45;&gt;Node2</title>
<path fill="none" stroke="midnightblue" d="M442.138,-123.83C362.723,-117.47 223.217,-104.476 105.024,-84 99.8342,-83.1008 94.4108,-82.0129 89.061,-80.8493"/>
<polygon fill="midnightblue" stroke="midnightblue" points="89.4719,-77.3534 78.9447,-78.5483 87.9194,-84.1791 89.4719,-77.3534"/>
</g>
<!-- Node4 -->
<g id="node4" class="node"><title>Node4</title>
<polygon fill="white" stroke="#bfbfbf" points="113.781,-60.5 113.781,-78.5 274.268,-78.5 274.268,-60.5 113.781,-60.5"/>
<text text-anchor="middle" x="194.024" y="-66.5" font-family="Helvetica,sans-Serif" font-size="10.00">FBSDKCoreKit/FBSDKCoreKit.h</text>
</g>
<!-- Node1&#45;&gt;Node4 -->
<g id="edge3" class="edge"><title>Node1&#45;&gt;Node4</title>
<path fill="none" stroke="midnightblue" d="M462.97,-120.496C406.713,-110.038 308.218,-91.7283 247.315,-80.4066"/>
<polygon fill="midnightblue" stroke="midnightblue" points="247.609,-76.9014 237.138,-78.5147 246.33,-83.7835 247.609,-76.9014"/>
</g>
<!-- Node5 -->
<g id="node5" class="node"><title>Node5</title>
<polygon fill="white" stroke="#bfbfbf" points="291.776,-55.5 291.776,-83.5 442.273,-83.5 442.273,-55.5 291.776,-55.5"/>
<text text-anchor="start" x="299.776" y="-71.5" font-family="Helvetica,sans-Serif" font-size="10.00">FBSDKShareKit/FBSDKShare</text>
<text text-anchor="middle" x="367.024" y="-61.5" font-family="Helvetica,sans-Serif" font-size="10.00">Kit.h</text>
</g>
<!-- Node1&#45;&gt;Node5 -->
<g id="edge4" class="edge"><title>Node1&#45;&gt;Node5</title>
<path fill="none" stroke="midnightblue" d="M486.697,-120.435C466.301,-111.925 433.56,-98.263 407.476,-87.3791"/>
<polygon fill="midnightblue" stroke="midnightblue" points="408.779,-84.1304 398.202,-83.5096 406.083,-90.5906 408.779,-84.1304"/>
</g>
<!-- Node6 -->
<g id="node6" class="node"><title>Node6</title>
<g id="a_node6"><a xlink:href="_features_8hpp.html" target="_top" xlink:title="../../Features.hpp">
<polygon fill="white" stroke="black" points="460.227,-60.5 460.227,-78.5 551.822,-78.5 551.822,-60.5 460.227,-60.5"/>
<text text-anchor="middle" x="506.024" y="-66.5" font-family="Helvetica,sans-Serif" font-size="10.00">../../Features.hpp</text>
</a>
</g>
</g>
<!-- Node1&#45;&gt;Node6 -->
<g id="edge5" class="edge"><title>Node1&#45;&gt;Node6</title>
<path fill="none" stroke="midnightblue" d="M506.024,-120.435C506.024,-112.389 506.024,-99.7388 506.024,-89.1846"/>
<polygon fill="midnightblue" stroke="midnightblue" points="509.525,-88.8717 506.024,-78.8718 502.525,-88.8718 509.525,-88.8717"/>
</g>
<!-- Node7 -->
<g id="node7" class="node"><title>Node7</title>
<g id="a_node7"><a xlink:href="_c_p_p_utils_8h.html" target="_top" xlink:title="../Common/CPPUtils.h">
<polygon fill="white" stroke="black" points="570.012,-60.5 570.012,-78.5 686.037,-78.5 686.037,-60.5 570.012,-60.5"/>
<text text-anchor="middle" x="628.024" y="-66.5" font-family="Helvetica,sans-Serif" font-size="10.00">../Common/CPPUtils.h</text>
</a>
</g>
</g>
<!-- Node1&#45;&gt;Node7 -->
<g id="edge6" class="edge"><title>Node1&#45;&gt;Node7</title>
<path fill="none" stroke="midnightblue" d="M522.988,-120.435C543.359,-110.751 577.759,-94.3966 601.616,-83.055"/>
<polygon fill="midnightblue" stroke="midnightblue" points="603.283,-86.1378 610.812,-78.6831 600.277,-79.8158 603.283,-86.1378"/>
</g>
<!-- Node9 -->
<g id="node9" class="node"><title>Node9</title>
<polygon fill="white" stroke="#bfbfbf" points="703.557,-60.5 703.557,-78.5 788.492,-78.5 788.492,-60.5 703.557,-60.5"/>
<text text-anchor="middle" x="746.024" y="-66.5" font-family="Helvetica,sans-Serif" font-size="10.00">AppController.h</text>
</g>
<!-- Node1&#45;&gt;Node9 -->
<g id="edge9" class="edge"><title>Node1&#45;&gt;Node9</title>
<path fill="none" stroke="midnightblue" d="M541.626,-120.425C579.672,-111.724 641.718,-97.328 695.024,-84 698.659,-83.0912 702.435,-82.1282 706.213,-81.1514"/>
<polygon fill="midnightblue" stroke="midnightblue" points="707.335,-84.4757 716.126,-78.5616 705.566,-77.703 707.335,-84.4757"/>
</g>
<!-- Node10 -->
<g id="node10" class="node"><title>Node10</title>
<polygon fill="white" stroke="#bfbfbf" points="806.142,-60.5 806.142,-78.5 915.907,-78.5 915.907,-60.5 806.142,-60.5"/>
<text text-anchor="middle" x="861.024" y="-66.5" font-family="Helvetica,sans-Serif" font-size="10.00">RootViewController.h</text>
</g>
<!-- Node1&#45;&gt;Node10 -->
<g id="edge10" class="edge"><title>Node1&#45;&gt;Node10</title>
<path fill="none" stroke="midnightblue" d="M564.987,-120.474C623.888,-112.223 716.947,-98.5566 797.024,-84 802.75,-82.9591 808.749,-81.794 814.681,-80.596"/>
<polygon fill="midnightblue" stroke="midnightblue" points="815.454,-84.0104 824.542,-78.565 814.042,-77.1543 815.454,-84.0104"/>
</g>
<!-- Node3 -->
<g id="node3" class="node"><title>Node3</title>
<polygon fill="white" stroke="#bfbfbf" points="266.798,-0.5 266.798,-18.5 307.251,-18.5 307.251,-0.5 266.798,-0.5"/>
<text text-anchor="middle" x="287.024" y="-6.5" font-family="Helvetica,sans-Serif" font-size="10.00">string</text>
</g>
<!-- Node2&#45;&gt;Node3 -->
<g id="edge2" class="edge"><title>Node2&#45;&gt;Node3</title>
<path fill="none" stroke="midnightblue" d="M81.2563,-60.4353C127.902,-49.1155 212.098,-28.6831 256.966,-17.7945"/>
<polygon fill="midnightblue" stroke="midnightblue" points="257.806,-21.1922 266.699,-15.4325 256.156,-14.3897 257.806,-21.1922"/>
</g>
<!-- Node7&#45;&gt;Node3 -->
<g id="edge8" class="edge"><title>Node7&#45;&gt;Node3</title>
<path fill="none" stroke="midnightblue" d="M589.454,-60.469C580.158,-58.6052 570.247,-56.6774 561.024,-55 472.713,-38.9377 367.868,-22.6926 317.293,-15.0329"/>
<polygon fill="midnightblue" stroke="midnightblue" points="317.76,-11.5639 307.35,-13.5318 316.715,-18.4854 317.76,-11.5639"/>
</g>
<!-- Node8 -->
<g id="node8" class="node"><title>Node8</title>
<polygon fill="white" stroke="#bfbfbf" points="564.426,-0.5 564.426,-18.5 691.623,-18.5 691.623,-0.5 564.426,-0.5"/>
<text text-anchor="middle" x="628.024" y="-6.5" font-family="Helvetica,sans-Serif" font-size="10.00">Foundation/Foundation.h</text>
</g>
<!-- Node7&#45;&gt;Node8 -->
<g id="edge7" class="edge"><title>Node7&#45;&gt;Node8</title>
<path fill="none" stroke="midnightblue" d="M628.024,-60.4353C628.024,-52.3891 628.024,-39.7388 628.024,-29.1846"/>
<polygon fill="midnightblue" stroke="midnightblue" points="631.525,-28.8717 628.024,-18.8718 624.525,-28.8718 631.525,-28.8717"/>
</g>
</g>
</svg>
