<?xml version="1.0" encoding="UTF-8" standalone="no"?>
<!DOCTYPE svg PUBLIC "-//W3C//DTD SVG 1.1//EN"
 "http://www.w3.org/Graphics/SVG/1.1/DTD/svg11.dtd">
<!-- Generated by graphviz version 2.38.0 (20140413.2041)
 -->
<!-- Title: Apple/iOS/ABDatabase.mm Pages: 1 -->
<svg width="409pt" height="137pt"
 viewBox="0.00 0.00 408.74 137.00" xmlns="http://www.w3.org/2000/svg" xmlns:xlink="http://www.w3.org/1999/xlink">
<g id="graph0" class="graph" transform="scale(1 1) rotate(0) translate(4 133)">
<title>Apple/iOS/ABDatabase.mm</title>
<polygon fill="white" stroke="none" points="-4,4 -4,-133 404.738,-133 404.738,4 -4,4"/>
<!-- Node1 -->
<g id="node1" class="node"><title>Node1</title>
<polygon fill="#bfbfbf" stroke="black" points="124.446,-110.5 124.446,-128.5 263.834,-128.5 263.834,-110.5 124.446,-110.5"/>
<text text-anchor="middle" x="194.14" y="-116.5" font-family="Helvetica,sans-Serif" font-size="10.00">Apple/iOS/ABDatabase.mm</text>
</g>
<!-- Node2 -->
<g id="node2" class="node"><title>Node2</title>
<g id="a_node2"><a xlink:href="_a_b_database_8hpp.html" target="_top" xlink:title="../../ABDatabase.hpp">
<polygon fill="white" stroke="black" points="0,-55.5 0,-73.5 108.28,-73.5 108.28,-55.5 0,-55.5"/>
<text text-anchor="middle" x="54.1401" y="-61.5" font-family="Helvetica,sans-Serif" font-size="10.00">../../ABDatabase.hpp</text>
</a>
</g>
</g>
<!-- Node1&#45;&gt;Node2 -->
<g id="edge1" class="edge"><title>Node1&#45;&gt;Node2</title>
<path fill="none" stroke="midnightblue" d="M172.877,-110.45C149.544,-101.617 111.869,-87.3546 85.2229,-77.267"/>
<polygon fill="midnightblue" stroke="midnightblue" points="86.1947,-73.8926 75.6032,-73.6253 83.7163,-80.4392 86.1947,-73.8926"/>
</g>
<!-- Node5 -->
<g id="node5" class="node"><title>Node5</title>
<polygon fill="white" stroke="#bfbfbf" points="126.665,-55.5 126.665,-73.5 261.615,-73.5 261.615,-55.5 126.665,-55.5"/>
<text text-anchor="middle" x="194.14" y="-61.5" font-family="Helvetica,sans-Serif" font-size="10.00">Mixpanel/MPTweakInline.h</text>
</g>
<!-- Node1&#45;&gt;Node5 -->
<g id="edge4" class="edge"><title>Node1&#45;&gt;Node5</title>
<path fill="none" stroke="midnightblue" d="M194.14,-110.219C194.14,-103.177 194.14,-92.8083 194.14,-83.8277"/>
<polygon fill="midnightblue" stroke="midnightblue" points="197.64,-83.5495 194.14,-73.5496 190.64,-83.5496 197.64,-83.5495"/>
</g>
<!-- Node6 -->
<g id="node6" class="node"><title>Node6</title>
<g id="a_node6"><a xlink:href="_c_p_p_utils_8h.html" target="_top" xlink:title="../Common/CPPUtils.h">
<polygon fill="white" stroke="black" points="279.128,-55.5 279.128,-73.5 395.152,-73.5 395.152,-55.5 279.128,-55.5"/>
<text text-anchor="middle" x="337.14" y="-61.5" font-family="Helvetica,sans-Serif" font-size="10.00">../Common/CPPUtils.h</text>
</a>
</g>
</g>
<!-- Node1&#45;&gt;Node6 -->
<g id="edge5" class="edge"><title>Node1&#45;&gt;Node6</title>
<path fill="none" stroke="midnightblue" d="M215.859,-110.45C239.797,-101.578 278.513,-87.2288 305.75,-77.134"/>
<polygon fill="midnightblue" stroke="midnightblue" points="307.057,-80.3825 315.217,-73.6253 304.624,-73.8188 307.057,-80.3825"/>
</g>
<!-- Node3 -->
<g id="node3" class="node"><title>Node3</title>
<polygon fill="white" stroke="#bfbfbf" points="24.7363,-0.5 24.7363,-18.5 83.5439,-18.5 83.5439,-0.5 24.7363,-0.5"/>
<text text-anchor="middle" x="54.1401" y="-6.5" font-family="Helvetica,sans-Serif" font-size="10.00">functional</text>
</g>
<!-- Node2&#45;&gt;Node3 -->
<g id="edge2" class="edge"><title>Node2&#45;&gt;Node3</title>
<path fill="none" stroke="midnightblue" d="M54.1401,-55.2188C54.1401,-48.1769 54.1401,-37.8083 54.1401,-28.8277"/>
<polygon fill="midnightblue" stroke="midnightblue" points="57.6402,-28.5495 54.1401,-18.5496 50.6402,-28.5496 57.6402,-28.5495"/>
</g>
<!-- Node4 -->
<g id="node4" class="node"><title>Node4</title>
<polygon fill="white" stroke="#bfbfbf" points="157.914,-0.5 157.914,-18.5 198.367,-18.5 198.367,-0.5 157.914,-0.5"/>
<text text-anchor="middle" x="178.14" y="-6.5" font-family="Helvetica,sans-Serif" font-size="10.00">string</text>
</g>
<!-- Node2&#45;&gt;Node4 -->
<g id="edge3" class="edge"><title>Node2&#45;&gt;Node4</title>
<path fill="none" stroke="midnightblue" d="M72.9731,-55.4504C93.3662,-46.734 126.129,-32.7306 149.669,-22.6691"/>
<polygon fill="midnightblue" stroke="midnightblue" points="151.31,-25.774 159.13,-18.6253 148.559,-19.3373 151.31,-25.774"/>
</g>
<!-- Node6&#45;&gt;Node4 -->
<g id="edge7" class="edge"><title>Node6&#45;&gt;Node4</title>
<path fill="none" stroke="midnightblue" d="M312.991,-55.4504C284.893,-46.0843 238.481,-30.6136 208.106,-20.4886"/>
<polygon fill="midnightblue" stroke="midnightblue" points="209.063,-17.1184 198.469,-17.2764 206.849,-23.7592 209.063,-17.1184"/>
</g>
<!-- Node7 -->
<g id="node7" class="node"><title>Node7</title>
<polygon fill="white" stroke="#bfbfbf" points="273.542,-0.5 273.542,-18.5 400.738,-18.5 400.738,-0.5 273.542,-0.5"/>
<text text-anchor="middle" x="337.14" y="-6.5" font-family="Helvetica,sans-Serif" font-size="10.00">Foundation/Foundation.h</text>
</g>
<!-- Node6&#45;&gt;Node7 -->
<g id="edge6" class="edge"><title>Node6&#45;&gt;Node7</title>
<path fill="none" stroke="midnightblue" d="M337.14,-55.2188C337.14,-48.1769 337.14,-37.8083 337.14,-28.8277"/>
<polygon fill="midnightblue" stroke="midnightblue" points="340.64,-28.5495 337.14,-18.5496 333.64,-28.5496 340.64,-28.5495"/>
</g>
</g>
</svg>
