<?xml version="1.0" encoding="UTF-8" standalone="no"?>
<!DOCTYPE svg PUBLIC "-//W3C//DTD SVG 1.1//EN"
 "http://www.w3.org/Graphics/SVG/1.1/DTD/svg11.dtd">
<!-- Generated by graphviz version 2.38.0 (20140413.2041)
 -->
<!-- Title: Apple/iOS/AdKit.mm Pages: 1 -->
<svg width="1128pt" height="147pt"
 viewBox="0.00 0.00 1128.15 147.00" xmlns="http://www.w3.org/2000/svg" xmlns:xlink="http://www.w3.org/1999/xlink">
<g id="graph0" class="graph" transform="scale(1 1) rotate(0) translate(4 143)">
<title>Apple/iOS/AdKit.mm</title>
<polygon fill="white" stroke="none" points="-4,4 -4,-143 1124.15,-143 1124.15,4 -4,4"/>
<!-- Node1 -->
<g id="node1" class="node"><title>Node1</title>
<polygon fill="#bfbfbf" stroke="black" points="456.044,-120.5 456.044,-138.5 563.187,-138.5 563.187,-120.5 456.044,-120.5"/>
<text text-anchor="middle" x="509.616" y="-126.5" font-family="Helvetica,sans-Serif" font-size="10.00">Apple/iOS/AdKit.mm</text>
</g>
<!-- Node2 -->
<g id="node2" class="node"><title>Node2</title>
<g id="a_node2"><a xlink:href="_ad_kit_8hpp.html" target="_top" xlink:title="../../AdKit.hpp">
<polygon fill="white" stroke="black" points="17.5986,-65.5 17.5986,-83.5 93.6328,-83.5 93.6328,-65.5 17.5986,-65.5"/>
<text text-anchor="middle" x="55.6157" y="-71.5" font-family="Helvetica,sans-Serif" font-size="10.00">../../AdKit.hpp</text>
</a>
</g>
</g>
<!-- Node1&#45;&gt;Node2 -->
<g id="edge1" class="edge"><title>Node1&#45;&gt;Node2</title>
<path fill="none" stroke="midnightblue" d="M455.805,-123.826C379.67,-116.946 235.947,-102.976 103.704,-84.0652"/>
<polygon fill="midnightblue" stroke="midnightblue" points="104.196,-80.6001 93.7987,-82.6362 103.196,-87.5283 104.196,-80.6001"/>
</g>
<!-- Node6 -->
<g id="node6" class="node"><title>Node6</title>
<g id="a_node6"><a xlink:href="___ad_kit_8hpp.html" target="_top" xlink:title="../../_AdKit.hpp">
<polygon fill="white" stroke="black" points="111.818,-65.5 111.818,-83.5 193.414,-83.5 193.414,-65.5 111.818,-65.5"/>
<text text-anchor="middle" x="152.616" y="-71.5" font-family="Helvetica,sans-Serif" font-size="10.00">../../_AdKit.hpp</text>
</a>
</g>
</g>
<!-- Node1&#45;&gt;Node6 -->
<g id="edge5" class="edge"><title>Node1&#45;&gt;Node6</title>
<path fill="none" stroke="midnightblue" d="M456.038,-121.138C396.82,-112.911 298.346,-98.9622 203.578,-84.1186"/>
<polygon fill="midnightblue" stroke="midnightblue" points="203.955,-80.6349 193.532,-82.5395 202.868,-87.55 203.955,-80.6349"/>
</g>
<!-- Node7 -->
<g id="node7" class="node"><title>Node7</title>
<polygon fill="white" stroke="#bfbfbf" points="904.907,-0.5 904.907,-28.5 1064.32,-28.5 1064.32,-0.5 904.907,-0.5"/>
<text text-anchor="start" x="912.907" y="-16.5" font-family="Helvetica,sans-Serif" font-size="10.00">GoogleMobileAds/GoogleMobile</text>
<text text-anchor="middle" x="984.616" y="-6.5" font-family="Helvetica,sans-Serif" font-size="10.00">Ads.h</text>
</g>
<!-- Node1&#45;&gt;Node7 -->
<g id="edge6" class="edge"><title>Node1&#45;&gt;Node7</title>
<path fill="none" stroke="midnightblue" d="M563.543,-126.735C658.434,-122.94 850.955,-111.962 911.616,-84 934.734,-73.3437 955.294,-52.4579 968.657,-36.5364"/>
<polygon fill="midnightblue" stroke="midnightblue" points="971.393,-38.7187 974.963,-28.7435 965.952,-34.315 971.393,-38.7187"/>
</g>
<!-- Node8 -->
<g id="node8" class="node"><title>Node8</title>
<polygon fill="white" stroke="#bfbfbf" points="321.387,-65.5 321.387,-83.5 391.845,-83.5 391.845,-65.5 321.387,-65.5"/>
<text text-anchor="middle" x="356.616" y="-71.5" font-family="Helvetica,sans-Serif" font-size="10.00">UIKit/UIKit.h</text>
</g>
<!-- Node1&#45;&gt;Node8 -->
<g id="edge7" class="edge"><title>Node1&#45;&gt;Node8</title>
<path fill="none" stroke="midnightblue" d="M486.378,-120.45C460.654,-111.539 418.979,-97.1029 389.818,-87.0014"/>
<polygon fill="midnightblue" stroke="midnightblue" points="390.667,-83.5914 380.072,-83.6253 388.375,-90.2058 390.667,-83.5914"/>
</g>
<!-- Node9 -->
<g id="node9" class="node"><title>Node9</title>
<g id="a_node9"><a xlink:href="_analytics_8hpp.html" target="_top" xlink:title="../../Analytics.hpp">
<polygon fill="white" stroke="black" points="211.542,-65.5 211.542,-83.5 303.689,-83.5 303.689,-65.5 211.542,-65.5"/>
<text text-anchor="middle" x="257.616" y="-71.5" font-family="Helvetica,sans-Serif" font-size="10.00">../../Analytics.hpp</text>
</a>
</g>
</g>
<!-- Node1&#45;&gt;Node9 -->
<g id="edge8" class="edge"><title>Node1&#45;&gt;Node9</title>
<path fill="none" stroke="midnightblue" d="M471.342,-120.45C426.994,-111.123 353.862,-95.7424 305.712,-85.6155"/>
<polygon fill="midnightblue" stroke="midnightblue" points="306.342,-82.1715 295.836,-83.5383 304.901,-89.0216 306.342,-82.1715"/>
</g>
<!-- Node11 -->
<g id="node11" class="node"><title>Node11</title>
<g id="a_node11"><a xlink:href="_device_8hpp.html" target="_top" xlink:title="../../Device.hpp">
<polygon fill="white" stroke="black" points="410.266,-65.5 410.266,-83.5 492.965,-83.5 492.965,-65.5 410.266,-65.5"/>
<text text-anchor="middle" x="451.616" y="-71.5" font-family="Helvetica,sans-Serif" font-size="10.00">../../Device.hpp</text>
</a>
</g>
</g>
<!-- Node1&#45;&gt;Node11 -->
<g id="edge11" class="edge"><title>Node1&#45;&gt;Node11</title>
<path fill="none" stroke="midnightblue" d="M500.553,-120.219C491.82,-112.238 478.41,-99.9842 467.835,-90.3207"/>
<polygon fill="midnightblue" stroke="midnightblue" points="470.168,-87.7116 460.425,-83.5496 465.446,-92.879 470.168,-87.7116"/>
</g>
<!-- Node13 -->
<g id="node13" class="node"><title>Node13</title>
<g id="a_node13"><a xlink:href="_log_8hpp.html" target="_top" xlink:title="../../Log.hpp">
<polygon fill="white" stroke="black" points="644.207,-65.5 644.207,-83.5 713.024,-83.5 713.024,-65.5 644.207,-65.5"/>
<text text-anchor="middle" x="678.616" y="-71.5" font-family="Helvetica,sans-Serif" font-size="10.00">../../Log.hpp</text>
</a>
</g>
</g>
<!-- Node1&#45;&gt;Node13 -->
<g id="edge14" class="edge"><title>Node1&#45;&gt;Node13</title>
<path fill="none" stroke="midnightblue" d="M535.283,-120.45C564.029,-111.436 610.808,-96.7653 643.063,-86.6496"/>
<polygon fill="midnightblue" stroke="midnightblue" points="644.49,-89.8704 652.984,-83.5383 642.395,-83.1911 644.49,-89.8704"/>
</g>
<!-- Node14 -->
<g id="node14" class="node"><title>Node14</title>
<g id="a_node14"><a xlink:href="_c_p_p_utils_8h.html" target="_top" xlink:title="../Common/CPPUtils.h">
<polygon fill="white" stroke="black" points="510.604,-65.5 510.604,-83.5 626.628,-83.5 626.628,-65.5 510.604,-65.5"/>
<text text-anchor="middle" x="568.616" y="-71.5" font-family="Helvetica,sans-Serif" font-size="10.00">../Common/CPPUtils.h</text>
</a>
</g>
</g>
<!-- Node1&#45;&gt;Node14 -->
<g id="edge15" class="edge"><title>Node1&#45;&gt;Node14</title>
<path fill="none" stroke="midnightblue" d="M518.577,-120.45C527.413,-112.512 541.132,-100.189 551.971,-90.4519"/>
<polygon fill="midnightblue" stroke="midnightblue" points="554.47,-92.9118 559.571,-83.6253 549.792,-87.7043 554.47,-92.9118"/>
</g>
<!-- Node16 -->
<g id="node16" class="node"><title>Node16</title>
<g id="a_node16"><a xlink:href="_g_a_d_m_adapter_ad_colony_extras_8h.html" target="_top" xlink:title="GADMAdapterAdColonyExtras.h">
<polygon fill="white" stroke="black" points="959.084,-65.5 959.084,-83.5 1120.15,-83.5 1120.15,-65.5 959.084,-65.5"/>
<text text-anchor="middle" x="1039.62" y="-71.5" font-family="Helvetica,sans-Serif" font-size="10.00">GADMAdapterAdColonyExtras.h</text>
</a>
</g>
</g>
<!-- Node1&#45;&gt;Node16 -->
<g id="edge18" class="edge"><title>Node1&#45;&gt;Node16</title>
<path fill="none" stroke="midnightblue" d="M563.352,-123.126C654.075,-114.054 838.544,-95.6072 949.388,-84.5228"/>
<polygon fill="midnightblue" stroke="midnightblue" points="949.946,-87.9845 959.548,-83.5067 949.25,-81.0192 949.946,-87.9845"/>
</g>
<!-- Node17 -->
<g id="node17" class="node"><title>Node17</title>
<g id="a_node17"><a xlink:href="_g_a_d_m_adapter_ad_colony_initializer_8h.html" target="_top" xlink:title="GADMAdapterAdColonyInitializer.h">
<polygon fill="white" stroke="black" points="730.798,-65.5 730.798,-83.5 902.433,-83.5 902.433,-65.5 730.798,-65.5"/>
<text text-anchor="middle" x="816.616" y="-71.5" font-family="Helvetica,sans-Serif" font-size="10.00">GADMAdapterAdColonyInitializer.h</text>
</a>
</g>
</g>
<!-- Node1&#45;&gt;Node17 -->
<g id="edge20" class="edge"><title>Node1&#45;&gt;Node17</title>
<path fill="none" stroke="midnightblue" d="M556.242,-120.45C610.835,-111.026 701.23,-95.4199 759.853,-85.2994"/>
<polygon fill="midnightblue" stroke="midnightblue" points="760.795,-88.6886 770.054,-83.5383 759.605,-81.7906 760.795,-88.6886"/>
</g>
<!-- Node3 -->
<g id="node3" class="node"><title>Node3</title>
<polygon fill="white" stroke="#bfbfbf" points="61.2119,-5.5 61.2119,-23.5 120.02,-23.5 120.02,-5.5 61.2119,-5.5"/>
<text text-anchor="middle" x="90.6157" y="-11.5" font-family="Helvetica,sans-Serif" font-size="10.00">functional</text>
</g>
<!-- Node2&#45;&gt;Node3 -->
<g id="edge2" class="edge"><title>Node2&#45;&gt;Node3</title>
<path fill="none" stroke="midnightblue" d="M60.4823,-65.4353C65.5961,-56.9611 73.7916,-43.38 80.3455,-32.5192"/>
<polygon fill="midnightblue" stroke="midnightblue" points="83.3938,-34.242 85.5638,-23.8718 77.4004,-30.6253 83.3938,-34.242"/>
</g>
<!-- Node4 -->
<g id="node4" class="node"><title>Node4</title>
<polygon fill="white" stroke="#bfbfbf" points="327.389,-5.5 327.389,-23.5 367.842,-23.5 367.842,-5.5 327.389,-5.5"/>
<text text-anchor="middle" x="347.616" y="-11.5" font-family="Helvetica,sans-Serif" font-size="10.00">string</text>
</g>
<!-- Node2&#45;&gt;Node4 -->
<g id="edge3" class="edge"><title>Node2&#45;&gt;Node4</title>
<path fill="none" stroke="midnightblue" d="M93.7481,-66.3215C139.236,-57.7048 217.555,-42.6996 284.616,-29 295.301,-26.8171 306.986,-24.3388 317.358,-22.1066"/>
<polygon fill="midnightblue" stroke="midnightblue" points="318.174,-25.5113 327.208,-19.9766 316.694,-18.6694 318.174,-25.5113"/>
</g>
<!-- Node5 -->
<g id="node5" class="node"><title>Node5</title>
<polygon fill="white" stroke="#bfbfbf" points="0,-5.5 0,-23.5 43.2314,-23.5 43.2314,-5.5 0,-5.5"/>
<text text-anchor="middle" x="21.6157" y="-11.5" font-family="Helvetica,sans-Serif" font-size="10.00">vector</text>
</g>
<!-- Node2&#45;&gt;Node5 -->
<g id="edge4" class="edge"><title>Node2&#45;&gt;Node5</title>
<path fill="none" stroke="midnightblue" d="M50.8882,-65.4353C45.9205,-56.9611 37.9592,-43.38 31.5925,-32.5192"/>
<polygon fill="midnightblue" stroke="midnightblue" points="34.6,-30.7287 26.5233,-23.8718 28.5611,-34.2688 34.6,-30.7287"/>
</g>
<!-- Node9&#45;&gt;Node4 -->
<g id="edge10" class="edge"><title>Node9&#45;&gt;Node4</title>
<path fill="none" stroke="midnightblue" d="M270.13,-65.4353C284.69,-56.0521 308.966,-40.4077 326.469,-29.1277"/>
<polygon fill="midnightblue" stroke="midnightblue" points="328.408,-32.0422 334.918,-23.6831 324.616,-26.1582 328.408,-32.0422"/>
</g>
<!-- Node10 -->
<g id="node10" class="node"><title>Node10</title>
<polygon fill="white" stroke="#bfbfbf" points="239.889,-5.5 239.889,-23.5 275.342,-23.5 275.342,-5.5 239.889,-5.5"/>
<text text-anchor="middle" x="257.616" y="-11.5" font-family="Helvetica,sans-Serif" font-size="10.00">map</text>
</g>
<!-- Node9&#45;&gt;Node10 -->
<g id="edge9" class="edge"><title>Node9&#45;&gt;Node10</title>
<path fill="none" stroke="midnightblue" d="M257.616,-65.4353C257.616,-57.3891 257.616,-44.7388 257.616,-34.1846"/>
<polygon fill="midnightblue" stroke="midnightblue" points="261.116,-33.8717 257.616,-23.8718 254.116,-33.8718 261.116,-33.8717"/>
</g>
<!-- Node11&#45;&gt;Node4 -->
<g id="edge12" class="edge"><title>Node11&#45;&gt;Node4</title>
<path fill="none" stroke="midnightblue" d="M437.155,-65.4353C420.098,-55.923 391.504,-39.9759 371.221,-28.6645"/>
<polygon fill="midnightblue" stroke="midnightblue" points="372.727,-25.4971 362.289,-23.6831 369.318,-31.6106 372.727,-25.4971"/>
</g>
<!-- Node12 -->
<g id="node12" class="node"><title>Node12</title>
<polygon fill="white" stroke="#bfbfbf" points="420.823,-5.5 420.823,-23.5 482.409,-23.5 482.409,-5.5 420.823,-5.5"/>
<text text-anchor="middle" x="451.616" y="-11.5" font-family="Helvetica,sans-Serif" font-size="10.00">cocos2d.h</text>
</g>
<!-- Node11&#45;&gt;Node12 -->
<g id="edge13" class="edge"><title>Node11&#45;&gt;Node12</title>
<path fill="none" stroke="midnightblue" d="M451.616,-65.4353C451.616,-57.3891 451.616,-44.7388 451.616,-34.1846"/>
<polygon fill="midnightblue" stroke="midnightblue" points="455.116,-33.8717 451.616,-23.8718 448.116,-33.8718 455.116,-33.8717"/>
</g>
<!-- Node14&#45;&gt;Node4 -->
<g id="edge17" class="edge"><title>Node14&#45;&gt;Node4</title>
<path fill="none" stroke="midnightblue" d="M537.887,-65.4353C495.573,-54.3305 419.844,-34.4558 377.813,-23.425"/>
<polygon fill="midnightblue" stroke="midnightblue" points="378.455,-19.975 367.894,-20.8218 376.678,-26.7457 378.455,-19.975"/>
</g>
<!-- Node15 -->
<g id="node15" class="node"><title>Node15</title>
<polygon fill="white" stroke="#bfbfbf" points="605.018,-5.5 605.018,-23.5 732.214,-23.5 732.214,-5.5 605.018,-5.5"/>
<text text-anchor="middle" x="668.616" y="-11.5" font-family="Helvetica,sans-Serif" font-size="10.00">Foundation/Foundation.h</text>
</g>
<!-- Node14&#45;&gt;Node15 -->
<g id="edge16" class="edge"><title>Node14&#45;&gt;Node15</title>
<path fill="none" stroke="midnightblue" d="M582.52,-65.4353C598.847,-55.9661 626.167,-40.1201 645.653,-28.8184"/>
<polygon fill="midnightblue" stroke="midnightblue" points="647.613,-31.728 654.507,-23.6831 644.101,-25.6728 647.613,-31.728"/>
</g>
<!-- Node16&#45;&gt;Node7 -->
<g id="edge19" class="edge"><title>Node16&#45;&gt;Node7</title>
<path fill="none" stroke="midnightblue" d="M1031.97,-65.4353C1024.82,-57.8949 1013.83,-46.3111 1004.24,-36.1982"/>
<polygon fill="midnightblue" stroke="midnightblue" points="1006.69,-33.6907 997.268,-28.8428 1001.61,-38.5074 1006.69,-33.6907"/>
</g>
<!-- Node17&#45;&gt;Node15 -->
<g id="edge21" class="edge"><title>Node17&#45;&gt;Node15</title>
<path fill="none" stroke="midnightblue" d="M796.037,-65.4353C770.885,-55.5787 728.104,-38.813 699.121,-27.4549"/>
<polygon fill="midnightblue" stroke="midnightblue" points="700.084,-24.0732 689.497,-23.6831 697.53,-30.5906 700.084,-24.0732"/>
</g>
</g>
</svg>
