<?xml version="1.0" encoding="UTF-8" standalone="no"?>
<!DOCTYPE svg PUBLIC "-//W3C//DTD SVG 1.1//EN"
 "http://www.w3.org/Graphics/SVG/1.1/DTD/svg11.dtd">
<!-- Generated by graphviz version 2.38.0 (20140413.2041)
 -->
<!-- Title: Apple/iOS/GameKit.mm Pages: 1 -->
<svg width="559pt" height="247pt"
 viewBox="0.00 0.00 558.74 247.00" xmlns="http://www.w3.org/2000/svg" xmlns:xlink="http://www.w3.org/1999/xlink">
<g id="graph0" class="graph" transform="scale(1 1) rotate(0) translate(4 243)">
<title>Apple/iOS/GameKit.mm</title>
<polygon fill="white" stroke="none" points="-4,4 -4,-243 554.739,-243 554.739,4 -4,4"/>
<!-- Node1 -->
<g id="node1" class="node"><title>Node1</title>
<polygon fill="#bfbfbf" stroke="black" points="277.655,-220.5 277.655,-238.5 399.798,-238.5 399.798,-220.5 277.655,-220.5"/>
<text text-anchor="middle" x="338.727" y="-226.5" font-family="Helvetica,sans-Serif" font-size="10.00">Apple/iOS/GameKit.mm</text>
</g>
<!-- Node2 -->
<g id="node2" class="node"><title>Node2</title>
<g id="a_node2"><a xlink:href="_game_kit_8h.html" target="_top" xlink:title="../Common/GameKit.h">
<polygon fill="white" stroke="black" points="126.266,-165.5 126.266,-183.5 241.187,-183.5 241.187,-165.5 126.266,-165.5"/>
<text text-anchor="middle" x="183.727" y="-171.5" font-family="Helvetica,sans-Serif" font-size="10.00">../Common/GameKit.h</text>
</a>
</g>
</g>
<!-- Node1&#45;&gt;Node2 -->
<g id="edge1" class="edge"><title>Node1&#45;&gt;Node2</title>
<path fill="none" stroke="midnightblue" d="M315.185,-220.45C288.935,-211.475 246.289,-196.892 216.719,-186.781"/>
<polygon fill="midnightblue" stroke="midnightblue" points="217.829,-183.462 207.235,-183.538 215.565,-190.086 217.829,-183.462"/>
</g>
<!-- Node11 -->
<g id="node11" class="node"><title>Node11</title>
<polygon fill="white" stroke="#bfbfbf" points="259.498,-165.5 259.498,-183.5 329.956,-183.5 329.956,-165.5 259.498,-165.5"/>
<text text-anchor="middle" x="294.727" y="-171.5" font-family="Helvetica,sans-Serif" font-size="10.00">UIKit/UIKit.h</text>
</g>
<!-- Node1&#45;&gt;Node11 -->
<g id="edge12" class="edge"><title>Node1&#45;&gt;Node11</title>
<path fill="none" stroke="midnightblue" d="M331.852,-220.219C325.486,-212.551 315.845,-200.939 307.984,-191.469"/>
<polygon fill="midnightblue" stroke="midnightblue" points="310.49,-189.008 301.409,-183.55 305.104,-193.479 310.49,-189.008"/>
</g>
<!-- Node12 -->
<g id="node12" class="node"><title>Node12</title>
<g id="a_node12"><a xlink:href="_log_8hpp.html" target="_top" xlink:title="../../Log.hpp">
<polygon fill="white" stroke="black" points="348.318,-165.5 348.318,-183.5 417.135,-183.5 417.135,-165.5 348.318,-165.5"/>
<text text-anchor="middle" x="382.727" y="-171.5" font-family="Helvetica,sans-Serif" font-size="10.00">../../Log.hpp</text>
</a>
</g>
</g>
<!-- Node1&#45;&gt;Node12 -->
<g id="edge13" class="edge"><title>Node1&#45;&gt;Node12</title>
<path fill="none" stroke="midnightblue" d="M345.602,-220.219C351.967,-212.551 361.608,-200.939 369.469,-191.469"/>
<polygon fill="midnightblue" stroke="midnightblue" points="372.349,-193.479 376.044,-183.55 366.963,-189.008 372.349,-193.479"/>
</g>
<!-- Node13 -->
<g id="node13" class="node"><title>Node13</title>
<g id="a_node13"><a xlink:href="_c_p_p_utils_8h.html" target="_top" xlink:title="../Common/CPPUtils.h">
<polygon fill="white" stroke="black" points="434.714,-165.5 434.714,-183.5 550.739,-183.5 550.739,-165.5 434.714,-165.5"/>
<text text-anchor="middle" x="492.727" y="-171.5" font-family="Helvetica,sans-Serif" font-size="10.00">../Common/CPPUtils.h</text>
</a>
</g>
</g>
<!-- Node1&#45;&gt;Node13 -->
<g id="edge14" class="edge"><title>Node1&#45;&gt;Node13</title>
<path fill="none" stroke="midnightblue" d="M362.116,-220.45C388.083,-211.514 430.2,-197.019 459.563,-186.913"/>
<polygon fill="midnightblue" stroke="midnightblue" points="461.053,-190.102 469.37,-183.538 458.775,-183.483 461.053,-190.102"/>
</g>
<!-- Node3 -->
<g id="node3" class="node"><title>Node3</title>
<g id="a_node3"><a xlink:href="_game_kit_8hpp.html" target="_top" xlink:title="../../GameKit.hpp">
<polygon fill="white" stroke="black" points="33.2095,-55.5 33.2095,-73.5 124.244,-73.5 124.244,-55.5 33.2095,-55.5"/>
<text text-anchor="middle" x="78.7266" y="-61.5" font-family="Helvetica,sans-Serif" font-size="10.00">../../GameKit.hpp</text>
</a>
</g>
</g>
<!-- Node2&#45;&gt;Node3 -->
<g id="edge2" class="edge"><title>Node2&#45;&gt;Node3</title>
<path fill="none" stroke="midnightblue" d="M127.698,-165.44C86.21,-158.191 34.7235,-146.048 21.7266,-129 7.72222,-110.63 31.9237,-91.0803 52.9852,-78.6029"/>
<polygon fill="midnightblue" stroke="midnightblue" points="54.9817,-81.4963 61.9951,-73.555 51.5602,-75.3894 54.9817,-81.4963"/>
</g>
<!-- Node5 -->
<g id="node5" class="node"><title>Node5</title>
<polygon fill="white" stroke="#bfbfbf" points="134.5,-0.5 134.5,-18.5 174.953,-18.5 174.953,-0.5 134.5,-0.5"/>
<text text-anchor="middle" x="154.727" y="-6.5" font-family="Helvetica,sans-Serif" font-size="10.00">string</text>
</g>
<!-- Node2&#45;&gt;Node5 -->
<g id="edge10" class="edge"><title>Node2&#45;&gt;Node5</title>
<path fill="none" stroke="midnightblue" d="M181.731,-165.33C179.593,-156.429 176.179,-141.752 173.727,-129 166.926,-93.643 160.649,-52.0248 157.288,-28.7086"/>
<polygon fill="midnightblue" stroke="midnightblue" points="160.72,-27.9833 155.845,-18.5765 153.79,-28.97 160.72,-27.9833"/>
</g>
<!-- Node7 -->
<g id="node7" class="node"><title>Node7</title>
<g id="a_node7"><a xlink:href="___game_kit_8hpp.html" target="_top" xlink:title="../../_GameKit.hpp">
<polygon fill="white" stroke="black" points="30.4287,-110.5 30.4287,-128.5 127.024,-128.5 127.024,-110.5 30.4287,-110.5"/>
<text text-anchor="middle" x="78.7266" y="-116.5" font-family="Helvetica,sans-Serif" font-size="10.00">../../_GameKit.hpp</text>
</a>
</g>
</g>
<!-- Node2&#45;&gt;Node7 -->
<g id="edge6" class="edge"><title>Node2&#45;&gt;Node7</title>
<path fill="none" stroke="midnightblue" d="M167.779,-165.45C150.819,-156.89 123.756,-143.229 103.91,-133.212"/>
<polygon fill="midnightblue" stroke="midnightblue" points="105.328,-130.007 94.8239,-128.625 102.174,-136.256 105.328,-130.007"/>
</g>
<!-- Node8 -->
<g id="node8" class="node"><title>Node8</title>
<polygon fill="white" stroke="#bfbfbf" points="366.128,-110.5 366.128,-128.5 493.325,-128.5 493.325,-110.5 366.128,-110.5"/>
<text text-anchor="middle" x="429.727" y="-116.5" font-family="Helvetica,sans-Serif" font-size="10.00">Foundation/Foundation.h</text>
</g>
<!-- Node2&#45;&gt;Node8 -->
<g id="edge8" class="edge"><title>Node2&#45;&gt;Node8</title>
<path fill="none" stroke="midnightblue" d="M221.089,-165.45C264.29,-156.143 335.473,-140.807 382.48,-130.679"/>
<polygon fill="midnightblue" stroke="midnightblue" points="383.378,-134.066 392.417,-128.538 381.904,-127.223 383.378,-134.066"/>
</g>
<!-- Node9 -->
<g id="node9" class="node"><title>Node9</title>
<polygon fill="white" stroke="#bfbfbf" points="182.266,-110.5 182.266,-128.5 287.187,-128.5 287.187,-110.5 182.266,-110.5"/>
<text text-anchor="middle" x="234.727" y="-116.5" font-family="Helvetica,sans-Serif" font-size="10.00">GameKit/GameKit.h</text>
</g>
<!-- Node2&#45;&gt;Node9 -->
<g id="edge9" class="edge"><title>Node2&#45;&gt;Node9</title>
<path fill="none" stroke="midnightblue" d="M191.695,-165.219C199.224,-157.394 210.705,-145.463 219.915,-135.892"/>
<polygon fill="midnightblue" stroke="midnightblue" points="222.569,-138.182 226.981,-128.55 217.525,-133.328 222.569,-138.182"/>
</g>
<!-- Node10 -->
<g id="node10" class="node"><title>Node10</title>
<polygon fill="white" stroke="#bfbfbf" points="305.111,-110.5 305.111,-128.5 348.342,-128.5 348.342,-110.5 305.111,-110.5"/>
<text text-anchor="middle" x="326.727" y="-116.5" font-family="Helvetica,sans-Serif" font-size="10.00">vector</text>
</g>
<!-- Node2&#45;&gt;Node10 -->
<g id="edge11" class="edge"><title>Node2&#45;&gt;Node10</title>
<path fill="none" stroke="midnightblue" d="M205.445,-165.45C229.383,-156.578 268.1,-142.229 295.337,-132.134"/>
<polygon fill="midnightblue" stroke="midnightblue" points="296.643,-135.383 304.804,-128.625 294.21,-128.819 296.643,-135.383"/>
</g>
<!-- Node4 -->
<g id="node4" class="node"><title>Node4</title>
<polygon fill="white" stroke="#bfbfbf" points="0,-0.5 0,-18.5 35.4531,-18.5 35.4531,-0.5 0,-0.5"/>
<text text-anchor="middle" x="17.7266" y="-6.5" font-family="Helvetica,sans-Serif" font-size="10.00">map</text>
</g>
<!-- Node3&#45;&gt;Node4 -->
<g id="edge3" class="edge"><title>Node3&#45;&gt;Node4</title>
<path fill="none" stroke="midnightblue" d="M69.462,-55.4504C60.3256,-47.5123 46.1423,-35.1891 34.9353,-25.4519"/>
<polygon fill="midnightblue" stroke="midnightblue" points="36.9226,-22.542 27.0783,-18.6253 32.3315,-27.8261 36.9226,-22.542"/>
</g>
<!-- Node3&#45;&gt;Node5 -->
<g id="edge4" class="edge"><title>Node3&#45;&gt;Node5</title>
<path fill="none" stroke="midnightblue" d="M90.2693,-55.4504C101.987,-47.2788 120.368,-34.4604 134.508,-24.5996"/>
<polygon fill="midnightblue" stroke="midnightblue" points="136.875,-27.2163 143.075,-18.6253 132.871,-21.4746 136.875,-27.2163"/>
</g>
<!-- Node6 -->
<g id="node6" class="node"><title>Node6</title>
<polygon fill="white" stroke="#bfbfbf" points="53.3228,-0.5 53.3228,-18.5 112.13,-18.5 112.13,-0.5 53.3228,-0.5"/>
<text text-anchor="middle" x="82.7266" y="-6.5" font-family="Helvetica,sans-Serif" font-size="10.00">functional</text>
</g>
<!-- Node3&#45;&gt;Node6 -->
<g id="edge5" class="edge"><title>Node3&#45;&gt;Node6</title>
<path fill="none" stroke="midnightblue" d="M79.3516,-55.2188C79.8889,-48.0986 80.683,-37.5775 81.3659,-28.5289"/>
<polygon fill="midnightblue" stroke="midnightblue" points="84.8565,-28.7846 82.119,-18.5496 77.8763,-28.2578 84.8565,-28.7846"/>
</g>
<!-- Node7&#45;&gt;Node3 -->
<g id="edge7" class="edge"><title>Node7&#45;&gt;Node3</title>
<path fill="none" stroke="midnightblue" d="M78.7266,-110.219C78.7266,-103.177 78.7266,-92.8083 78.7266,-83.8277"/>
<polygon fill="midnightblue" stroke="midnightblue" points="82.2267,-83.5495 78.7266,-73.5496 75.2267,-83.5496 82.2267,-83.5495"/>
</g>
<!-- Node13&#45;&gt;Node5 -->
<g id="edge16" class="edge"><title>Node13&#45;&gt;Node5</title>
<path fill="none" stroke="midnightblue" d="M497.589,-165.147C504.515,-152.026 515.091,-126.395 502.727,-110 463.79,-58.3702 262.519,-25.4438 185.11,-14.5192"/>
<polygon fill="midnightblue" stroke="midnightblue" points="185.425,-11.0294 175.039,-13.124 184.464,-17.9632 185.425,-11.0294"/>
</g>
<!-- Node13&#45;&gt;Node8 -->
<g id="edge15" class="edge"><title>Node13&#45;&gt;Node8</title>
<path fill="none" stroke="midnightblue" d="M483.158,-165.45C473.63,-157.434 458.786,-144.947 447.16,-135.166"/>
<polygon fill="midnightblue" stroke="midnightblue" points="449.29,-132.385 439.385,-128.625 444.784,-137.741 449.29,-132.385"/>
</g>
</g>
</svg>
