<?xml version="1.0" encoding="UTF-8" standalone="no"?>
<!DOCTYPE svg PUBLIC "-//W3C//DTD SVG 1.1//EN"
 "http://www.w3.org/Graphics/SVG/1.1/DTD/svg11.dtd">
<!-- Generated by graphviz version 2.38.0 (20140413.2041)
 -->
<!-- Title: Graphical Class Hierarchy Pages: 1 -->
<svg width="398pt" height="323pt"
 viewBox="0.00 0.00 397.67 323.00" xmlns="http://www.w3.org/2000/svg" xmlns:xlink="http://www.w3.org/1999/xlink">
<g id="graph0" class="graph" transform="scale(1 1) rotate(0) translate(4 319)">
<title>Graphical Class Hierarchy</title>
<polygon fill="white" stroke="none" points="-4,4 -4,-319 393.665,-319 393.665,4 -4,4"/>
<!-- Node1 -->
<g id="node1" class="node"><title>Node1</title>
<polygon fill="white" stroke="#bfbfbf" points="31.6138,-296.5 31.6138,-314.5 158.209,-314.5 158.209,-296.5 31.6138,-296.5"/>
<text text-anchor="middle" x="94.9116" y="-302.5" font-family="Helvetica,sans-Serif" font-size="10.00">&lt;GADAdNetworkExtras&gt;</text>
</g>
<!-- Node2 -->
<g id="node2" class="node"><title>Node2</title>
<g id="a_node2"><a xlink:href="interface_g_a_d_m_adapter_ad_colony_extras.html" target="_top" xlink:title="GADMAdapterAdColonyExtras">
<polygon fill="white" stroke="black" points="231.382,-296.5 231.382,-314.5 384.106,-314.5 384.106,-296.5 231.382,-296.5"/>
<text text-anchor="middle" x="307.744" y="-302.5" font-family="Helvetica,sans-Serif" font-size="10.00">GADMAdapterAdColonyExtras</text>
</a>
</g>
</g>
<!-- Node1&#45;&gt;Node2 -->
<g id="edge1" class="edge"><title>Node1&#45;&gt;Node2</title>
<path fill="none" stroke="midnightblue" d="M168.398,-305.5C188.632,-305.5 210.665,-305.5 231.078,-305.5"/>
<polygon fill="midnightblue" stroke="midnightblue" points="168.313,-302 158.313,-305.5 168.313,-309 168.313,-302"/>
</g>
<!-- Node3 -->
<g id="node3" class="node"><title>Node3</title>
<polygon fill="white" stroke="#bfbfbf" points="23.3496,-259.5 23.3496,-277.5 166.474,-277.5 166.474,-259.5 23.3496,-259.5"/>
<text text-anchor="middle" x="94.9116" y="-265.5" font-family="Helvetica,sans-Serif" font-size="10.00">&lt;GADBannerViewDelegate&gt;</text>
</g>
<!-- Node4 -->
<g id="node4" class="node"><title>Node4</title>
<g id="a_node4"><a xlink:href="interface_banner_view_delegate.html" target="_top" xlink:title="BannerViewDelegate">
<polygon fill="white" stroke="black" points="252.857,-259.5 252.857,-277.5 362.631,-277.5 362.631,-259.5 252.857,-259.5"/>
<text text-anchor="middle" x="307.744" y="-265.5" font-family="Helvetica,sans-Serif" font-size="10.00">BannerViewDelegate</text>
</a>
</g>
</g>
<!-- Node3&#45;&gt;Node4 -->
<g id="edge2" class="edge"><title>Node3&#45;&gt;Node4</title>
<path fill="none" stroke="midnightblue" d="M176.723,-268.5C202.193,-268.5 229.692,-268.5 252.812,-268.5"/>
<polygon fill="midnightblue" stroke="midnightblue" points="176.702,-265 166.702,-268.5 176.702,-272 176.702,-265"/>
</g>
<!-- Node5 -->
<g id="node5" class="node"><title>Node5</title>
<polygon fill="white" stroke="#bfbfbf" points="28.8257,-222.5 28.8257,-240.5 160.998,-240.5 160.998,-222.5 28.8257,-222.5"/>
<text text-anchor="middle" x="94.9116" y="-228.5" font-family="Helvetica,sans-Serif" font-size="10.00">&lt;GADInterstitialDelegate&gt;</text>
</g>
<!-- Node6 -->
<g id="node6" class="node"><title>Node6</title>
<g id="a_node6"><a xlink:href="interface_interstitial_delegate.html" target="_top" xlink:title="InterstitialDelegate">
<polygon fill="white" stroke="black" points="258.333,-222.5 258.333,-240.5 357.155,-240.5 357.155,-222.5 258.333,-222.5"/>
<text text-anchor="middle" x="307.744" y="-228.5" font-family="Helvetica,sans-Serif" font-size="10.00">InterstitialDelegate</text>
</a>
</g>
</g>
<!-- Node5&#45;&gt;Node6 -->
<g id="edge3" class="edge"><title>Node5&#45;&gt;Node6</title>
<path fill="none" stroke="midnightblue" d="M171.257,-231.5C200.189,-231.5 232.42,-231.5 258.184,-231.5"/>
<polygon fill="midnightblue" stroke="midnightblue" points="171.177,-228 161.176,-231.5 171.176,-235 171.177,-228"/>
</g>
<!-- Node7 -->
<g id="node7" class="node"><title>Node7</title>
<polygon fill="white" stroke="#bfbfbf" points="0,-111.5 0,-129.5 189.823,-129.5 189.823,-111.5 0,-111.5"/>
<text text-anchor="middle" x="94.9116" y="-117.5" font-family="Helvetica,sans-Serif" font-size="10.00">&lt;GADRewardBasedVideoAdDelegate&gt;</text>
</g>
<!-- Node8 -->
<g id="node8" class="node"><title>Node8</title>
<g id="a_node8"><a xlink:href="interface_reward_video_delegate.html" target="_top" xlink:title="RewardVideoDelegate">
<polygon fill="white" stroke="black" points="249.8,-111.5 249.8,-129.5 365.688,-129.5 365.688,-111.5 249.8,-111.5"/>
<text text-anchor="middle" x="307.744" y="-117.5" font-family="Helvetica,sans-Serif" font-size="10.00">RewardVideoDelegate</text>
</a>
</g>
</g>
<!-- Node7&#45;&gt;Node8 -->
<g id="edge4" class="edge"><title>Node7&#45;&gt;Node8</title>
<path fill="none" stroke="midnightblue" d="M199.952,-120.5C217.022,-120.5 234.139,-120.5 249.514,-120.5"/>
<polygon fill="midnightblue" stroke="midnightblue" points="199.921,-117 189.921,-120.5 199.921,-124 199.921,-117"/>
</g>
<!-- Node9 -->
<g id="node9" class="node"><title>Node9</title>
<polygon fill="white" stroke="#bfbfbf" points="3.53516,-74.5 3.53516,-92.5 186.288,-92.5 186.288,-74.5 3.53516,-74.5"/>
<text text-anchor="middle" x="94.9116" y="-80.5" font-family="Helvetica,sans-Serif" font-size="10.00">&lt;GKGameCenterControllerDelegate&gt;</text>
</g>
<!-- Node10 -->
<g id="node10" class="node"><title>Node10</title>
<g id="a_node10"><a xlink:href="interface_g_c_delegate.html" target="_top" xlink:title="GCDelegate">
<polygon fill="white" stroke="black" points="272.229,-74.5 272.229,-92.5 343.259,-92.5 343.259,-74.5 272.229,-74.5"/>
<text text-anchor="middle" x="307.744" y="-80.5" font-family="Helvetica,sans-Serif" font-size="10.00">GCDelegate</text>
</a>
</g>
</g>
<!-- Node9&#45;&gt;Node10 -->
<g id="edge5" class="edge"><title>Node9&#45;&gt;Node10</title>
<path fill="none" stroke="midnightblue" d="M196.875,-83.5C223.91,-83.5 251.337,-83.5 272.025,-83.5"/>
<polygon fill="midnightblue" stroke="midnightblue" points="196.547,-80.0001 186.547,-83.5 196.547,-87.0001 196.547,-80.0001"/>
</g>
<!-- Node11 -->
<g id="node11" class="node"><title>Node11</title>
<polygon fill="white" stroke="#bfbfbf" points="65.5151,-167.5 65.5151,-185.5 124.308,-185.5 124.308,-167.5 65.5151,-167.5"/>
<text text-anchor="middle" x="94.9116" y="-173.5" font-family="Helvetica,sans-Serif" font-size="10.00">NSObject</text>
</g>
<!-- Node11&#45;&gt;Node2 -->
<g id="edge7" class="edge"><title>Node11&#45;&gt;Node2</title>
<path fill="none" stroke="midnightblue" d="M134.025,-184.588C152.657,-190.14 174.342,-199.174 189.823,-213.5 216.667,-238.341 197.12,-264.832 225.823,-287.5 230.454,-291.157 235.677,-294.105 241.184,-296.476"/>
<polygon fill="midnightblue" stroke="midnightblue" points="134.899,-181.199 124.329,-181.922 133.043,-187.948 134.899,-181.199"/>
</g>
<!-- Node11&#45;&gt;Node4 -->
<g id="edge6" class="edge"><title>Node11&#45;&gt;Node4</title>
<path fill="none" stroke="midnightblue" d="M134.067,-187.42C151.874,-193.52 172.837,-202.195 189.823,-213.5 208.924,-226.212 205.788,-239.32 225.823,-250.5 233.992,-255.059 243.23,-258.463 252.467,-261.005"/>
<polygon fill="midnightblue" stroke="midnightblue" points="135.137,-184.088 124.544,-184.297 132.955,-190.739 135.137,-184.088"/>
</g>
<!-- Node11&#45;&gt;Node6 -->
<g id="edge10" class="edge"><title>Node11&#45;&gt;Node6</title>
<path fill="none" stroke="midnightblue" d="M134.182,-188.038C159.973,-195.656 194.817,-205.643 225.823,-213.5 238.1,-216.611 251.499,-219.71 263.797,-222.438"/>
<polygon fill="midnightblue" stroke="midnightblue" points="135.003,-184.63 124.42,-185.14 133.011,-191.341 135.003,-184.63"/>
</g>
<!-- Node11&#45;&gt;Node8 -->
<g id="edge12" class="edge"><title>Node11&#45;&gt;Node8</title>
<path fill="none" stroke="midnightblue" d="M134.213,-165.081C160.017,-157.514 194.864,-147.539 225.823,-139.5 239.093,-136.055 253.657,-132.55 266.728,-129.504"/>
<polygon fill="midnightblue" stroke="midnightblue" points="133.05,-161.775 124.445,-167.957 135.027,-168.49 133.05,-161.775"/>
</g>
<!-- Node11&#45;&gt;Node10 -->
<g id="edge9" class="edge"><title>Node11&#45;&gt;Node10</title>
<path fill="none" stroke="midnightblue" d="M134.067,-165.58C151.874,-159.48 172.837,-150.805 189.823,-139.5 208.924,-126.788 205.854,-113.798 225.823,-102.5 239.891,-94.5414 257.138,-89.9098 272.09,-87.2175"/>
<polygon fill="midnightblue" stroke="midnightblue" points="132.955,-162.261 124.544,-168.703 135.137,-168.912 132.955,-162.261"/>
</g>
<!-- Node12 -->
<g id="node12" class="node"><title>Node12</title>
<g id="a_node12"><a xlink:href="interface_g_a_d_m_adapter_ad_colony_initializer.html" target="_top" xlink:title="GADMAdapterAdColonyInitializer">
<polygon fill="white" stroke="black" points="225.823,-185.5 225.823,-203.5 389.665,-203.5 389.665,-185.5 225.823,-185.5"/>
<text text-anchor="middle" x="307.744" y="-191.5" font-family="Helvetica,sans-Serif" font-size="10.00">GADMAdapterAdColonyInitializer</text>
</a>
</g>
</g>
<!-- Node11&#45;&gt;Node12 -->
<g id="edge8" class="edge"><title>Node11&#45;&gt;Node12</title>
<path fill="none" stroke="midnightblue" d="M134.349,-179.782C159.858,-181.959 194.299,-184.9 225.69,-187.58"/>
<polygon fill="midnightblue" stroke="midnightblue" points="134.607,-176.291 124.345,-178.928 134.011,-183.266 134.607,-176.291"/>
</g>
<!-- Node13 -->
<g id="node13" class="node"><title>Node13</title>
<g id="a_node13"><a xlink:href="interface_receipt_validator.html" target="_top" xlink:title="ReceiptValidator">
<polygon fill="white" stroke="black" points="263.426,-148.5 263.426,-166.5 352.062,-166.5 352.062,-148.5 263.426,-148.5"/>
<text text-anchor="middle" x="307.744" y="-154.5" font-family="Helvetica,sans-Serif" font-size="10.00">ReceiptValidator</text>
</a>
</g>
</g>
<!-- Node11&#45;&gt;Node13 -->
<g id="edge11" class="edge"><title>Node11&#45;&gt;Node13</title>
<path fill="none" stroke="midnightblue" d="M134.575,-173.016C171.014,-169.732 225.534,-164.819 263.423,-161.404"/>
<polygon fill="midnightblue" stroke="midnightblue" points="133.991,-169.554 124.345,-173.938 134.619,-176.526 133.991,-169.554"/>
</g>
<!-- Node14 -->
<g id="node14" class="node"><title>Node14</title>
<g id="a_node14"><a xlink:href="interface_store_manager.html" target="_top" xlink:title="StoreManager">
<polygon fill="white" stroke="black" points="268.06,-37.5 268.06,-55.5 347.429,-55.5 347.429,-37.5 268.06,-37.5"/>
<text text-anchor="middle" x="307.744" y="-43.5" font-family="Helvetica,sans-Serif" font-size="10.00">StoreManager</text>
</a>
</g>
</g>
<!-- Node11&#45;&gt;Node14 -->
<g id="edge13" class="edge"><title>Node11&#45;&gt;Node14</title>
<path fill="none" stroke="midnightblue" d="M134.025,-168.412C152.657,-162.86 174.342,-153.826 189.823,-139.5 216.667,-114.659 197.254,-88.3357 225.823,-65.5 237.659,-56.0394 253.399,-51.1431 267.849,-48.6585"/>
<polygon fill="midnightblue" stroke="midnightblue" points="133.043,-165.052 124.329,-171.078 134.899,-171.801 133.043,-165.052"/>
</g>
<!-- Node15 -->
<g id="node15" class="node"><title>Node15</title>
<polygon fill="white" stroke="#bfbfbf" points="8.16895,-37.5 8.16895,-55.5 181.654,-55.5 181.654,-37.5 8.16895,-37.5"/>
<text text-anchor="middle" x="94.9116" y="-43.5" font-family="Helvetica,sans-Serif" font-size="10.00">&lt;SKPaymentTransactionObserver&gt;</text>
</g>
<!-- Node15&#45;&gt;Node14 -->
<g id="edge14" class="edge"><title>Node15&#45;&gt;Node14</title>
<path fill="none" stroke="midnightblue" d="M191.925,-46.5C218.838,-46.5 246.574,-46.5 268.044,-46.5"/>
<polygon fill="midnightblue" stroke="midnightblue" points="191.665,-43.0001 181.665,-46.5 191.665,-50.0001 191.665,-43.0001"/>
</g>
<!-- Node16 -->
<g id="node16" class="node"><title>Node16</title>
<polygon fill="white" stroke="#bfbfbf" points="16.0327,-0.5 16.0327,-18.5 173.791,-18.5 173.791,-0.5 16.0327,-0.5"/>
<text text-anchor="middle" x="94.9116" y="-6.5" font-family="Helvetica,sans-Serif" font-size="10.00">&lt;SKProductsRequestDelegate&gt;</text>
</g>
<!-- Node16&#45;&gt;Node14 -->
<g id="edge15" class="edge"><title>Node16&#45;&gt;Node14</title>
<path fill="none" stroke="midnightblue" d="M157.516,-20.3112C193.161,-26.5668 236.937,-34.2493 267.832,-39.6711"/>
<polygon fill="midnightblue" stroke="midnightblue" points="157.672,-16.7852 147.217,-18.5039 156.462,-23.6798 157.672,-16.7852"/>
</g>
</g>
</svg>
