<?xml version="1.0" encoding="UTF-8" standalone="no"?>
<!DOCTYPE svg PUBLIC "-//W3C//DTD SVG 1.1//EN"
 "http://www.w3.org/Graphics/SVG/1.1/DTD/svg11.dtd">
<!-- Generated by graphviz version 2.38.0 (20140413.2041)
 -->
<!-- Title: Graphical Class Hierarchy Pages: 1 -->
<svg width="286pt" height="64pt"
 viewBox="0.00 0.00 285.52 64.00" xmlns="http://www.w3.org/2000/svg" xmlns:xlink="http://www.w3.org/1999/xlink">
<g id="graph0" class="graph" transform="scale(1 1) rotate(0) translate(4 60)">
<title>Graphical Class Hierarchy</title>
<polygon fill="white" stroke="none" points="-4,4 -4,-60 281.521,-60 281.521,4 -4,4"/>
<!-- Node1 -->
<g id="node1" class="node"><title>Node1</title>
<polygon fill="white" stroke="#bfbfbf" points="0,-18.5 0,-36.5 76.5859,-36.5 76.5859,-18.5 0,-18.5"/>
<text text-anchor="middle" x="38.293" y="-24.5" font-family="Helvetica,sans-Serif" font-size="10.00">ActionInterval</text>
</g>
<!-- Node2 -->
<g id="node2" class="node"><title>Node2</title>
<g id="a_node2"><a xlink:href="class_m_k_1_1_actions_1_1_move_to_node.html" target="_top" xlink:title="MoveToNode action moves a node from its original location to the location of given node...">
<polygon fill="white" stroke="black" points="128.14,-37.5 128.14,-55.5 261.967,-55.5 261.967,-37.5 128.14,-37.5"/>
<text text-anchor="middle" x="195.054" y="-43.5" font-family="Helvetica,sans-Serif" font-size="10.00">MK::Actions::MoveToNode</text>
</a>
</g>
</g>
<!-- Node1&#45;&gt;Node2 -->
<g id="edge1" class="edge"><title>Node1&#45;&gt;Node2</title>
<path fill="none" stroke="midnightblue" d="M86.8455,-33.338C99.8224,-34.9312 114.121,-36.6866 127.93,-38.382"/>
<polygon fill="midnightblue" stroke="midnightblue" points="87.1082,-29.8441 76.7562,-32.0994 86.2552,-36.7919 87.1082,-29.8441"/>
</g>
<!-- Node3 -->
<g id="node3" class="node"><title>Node3</title>
<g id="a_node3"><a xlink:href="class_m_k_1_1_actions_1_1_remove_from_parent.html" target="_top" xlink:title="RemoveFromParent action removes a node from its parent after certain delay. ">
<polygon fill="white" stroke="black" points="112.586,-0.5 112.586,-18.5 277.521,-18.5 277.521,-0.5 112.586,-0.5"/>
<text text-anchor="middle" x="195.054" y="-6.5" font-family="Helvetica,sans-Serif" font-size="10.00">MK::Actions::RemoveFromParent</text>
</a>
</g>
</g>
<!-- Node1&#45;&gt;Node3 -->
<g id="edge2" class="edge"><title>Node1&#45;&gt;Node3</title>
<path fill="none" stroke="midnightblue" d="M86.7245,-21.9833C96.1979,-20.8815 106.379,-19.6973 116.564,-18.5128"/>
<polygon fill="midnightblue" stroke="midnightblue" points="86.2849,-18.5108 76.7562,-23.1427 87.0937,-25.4639 86.2849,-18.5108"/>
</g>
</g>
</svg>
