<?xml version="1.0" encoding="UTF-8" standalone="no"?>
<!DOCTYPE svg PUBLIC "-//W3C//DTD SVG 1.1//EN"
 "http://www.w3.org/Graphics/SVG/1.1/DTD/svg11.dtd">
<!-- Generated by graphviz version 2.38.0 (20140413.2041)
 -->
<!-- Title: Graphical Class Hierarchy Pages: 1 -->
<svg width="235pt" height="64pt"
 viewBox="0.00 0.00 234.99 64.00" xmlns="http://www.w3.org/2000/svg" xmlns:xlink="http://www.w3.org/1999/xlink">
<g id="graph0" class="graph" transform="scale(1 1) rotate(0) translate(4 60)">
<title>Graphical Class Hierarchy</title>
<polygon fill="white" stroke="none" points="-4,4 -4,-60 230.989,-60 230.989,4 -4,4"/>
<!-- Node1 -->
<g id="node1" class="node"><title>Node1</title>
<polygon fill="white" stroke="#bfbfbf" points="0,-18.5 0,-36.5 61.0391,-36.5 61.0391,-18.5 0,-18.5"/>
<text text-anchor="middle" x="30.5195" y="-24.5" font-family="Helvetica,sans-Serif" font-size="10.00">Sequence</text>
</g>
<!-- Node2 -->
<g id="node2" class="node"><title>Node2</title>
<g id="a_node2"><a xlink:href="class_m_k_1_1_actions_1_1_lineal_shake.html" target="_top" xlink:title="LinealShake action shakes a node during a certain delay in one axis. ">
<polygon fill="white" stroke="black" points="97.0391,-37.5 97.0391,-55.5 226.989,-55.5 226.989,-37.5 97.0391,-37.5"/>
<text text-anchor="middle" x="162.014" y="-43.5" font-family="Helvetica,sans-Serif" font-size="10.00">MK::Actions::LinealShake</text>
</a>
</g>
</g>
<!-- Node1&#45;&gt;Node2 -->
<g id="edge1" class="edge"><title>Node1&#45;&gt;Node2</title>
<path fill="none" stroke="midnightblue" d="M71.3116,-33.3385C80.2362,-34.6479 89.9078,-36.067 99.4852,-37.4722"/>
<polygon fill="midnightblue" stroke="midnightblue" points="71.6304,-29.8478 61.2282,-31.859 70.6142,-36.7737 71.6304,-29.8478"/>
</g>
<!-- Node3 -->
<g id="node3" class="node"><title>Node3</title>
<g id="a_node3"><a xlink:href="class_m_k_1_1_actions_1_1_shake.html" target="_top" xlink:title="Shake action shakes a node during a certain delay. ">
<polygon fill="white" stroke="black" points="110.384,-0.5 110.384,-18.5 213.645,-18.5 213.645,-0.5 110.384,-0.5"/>
<text text-anchor="middle" x="162.014" y="-6.5" font-family="Helvetica,sans-Serif" font-size="10.00">MK::Actions::Shake</text>
</a>
</g>
</g>
<!-- Node1&#45;&gt;Node3 -->
<g id="edge2" class="edge"><title>Node1&#45;&gt;Node3</title>
<path fill="none" stroke="midnightblue" d="M71.2203,-21.9815C83.5769,-20.2639 97.3724,-18.3463 110.371,-16.5395"/>
<polygon fill="midnightblue" stroke="midnightblue" points="70.6511,-18.5269 61.2282,-23.3704 71.6149,-25.4602 70.6511,-18.5269"/>
</g>
</g>
</svg>
