<?xml version="1.0" encoding="UTF-8" standalone="no"?>
<!DOCTYPE svg PUBLIC "-//W3C//DTD SVG 1.1//EN"
 "http://www.w3.org/Graphics/SVG/1.1/DTD/svg11.dtd">
<!-- Generated by graphviz version 2.38.0 (20140413.2041)
 -->
<!-- Title: RPPVCDelegate Pages: 1 -->
<svg width="220pt" height="92pt"
 viewBox="0.00 0.00 220.47 92.00" xmlns="http://www.w3.org/2000/svg" xmlns:xlink="http://www.w3.org/1999/xlink">
<g id="graph0" class="graph" transform="scale(1 1) rotate(0) translate(4 88)">
<title>RPPVCDelegate</title>
<polygon fill="white" stroke="none" points="-4,4 -4,-88 216.47,-88 216.47,4 -4,4"/>
<!-- Node1 -->
<g id="node1" class="node"><title>Node1</title>
<polygon fill="#bfbfbf" stroke="black" points="41.1553,-0.5 41.1553,-18.5 131.638,-18.5 131.638,-0.5 41.1553,-0.5"/>
<text text-anchor="middle" x="86.3965" y="-6.5" font-family="Helvetica,sans-Serif" font-size="10.00">RPPVCDelegate</text>
</g>
<!-- Node2 -->
<g id="node2" class="node"><title>Node2</title>
<polygon fill="white" stroke="#bfbfbf" points="0,-60.5 0,-78.5 58.793,-78.5 58.793,-60.5 0,-60.5"/>
<text text-anchor="middle" x="29.3965" y="-66.5" font-family="Helvetica,sans-Serif" font-size="10.00">NSObject</text>
</g>
<!-- Node2&#45;&gt;Node1 -->
<g id="edge1" class="edge"><title>Node2&#45;&gt;Node1</title>
<path fill="none" stroke="midnightblue" d="M44.4675,-53.1646C55.259,-42.1838 69.3804,-27.8146 78.1691,-18.8718"/>
<polygon fill="midnightblue" stroke="midnightblue" points="41.8351,-50.8498 37.3221,-60.4353 46.8277,-55.7563 41.8351,-50.8498"/>
</g>
<!-- Node3 -->
<g id="node3" class="node"><title>Node3</title>
<polygon fill="white" stroke="#bfbfbf" points="76.3232,-55.5 76.3232,-83.5 212.47,-83.5 212.47,-55.5 76.3232,-55.5"/>
<text text-anchor="start" x="84.3232" y="-71.5" font-family="Helvetica,sans-Serif" font-size="10.00">&lt;RPPreviewViewController</text>
<text text-anchor="middle" x="144.396" y="-61.5" font-family="Helvetica,sans-Serif" font-size="10.00">Delegate&gt;</text>
</g>
<!-- Node3&#45;&gt;Node1 -->
<g id="edge2" class="edge"><title>Node3&#45;&gt;Node1</title>
<path fill="none" stroke="midnightblue" d="M123.917,-48.0206C113.845,-37.9482 102.267,-26.3707 94.668,-18.7715"/>
<polygon fill="midnightblue" stroke="midnightblue" points="121.689,-50.7427 131.235,-55.3389 126.639,-45.7929 121.689,-50.7427"/>
</g>
</g>
</svg>
