<?xml version="1.0" encoding="UTF-8" standalone="no"?>
<!DOCTYPE svg PUBLIC "-//W3C//DTD SVG 1.1//EN"
 "http://www.w3.org/Graphics/SVG/1.1/DTD/svg11.dtd">
<!-- Generated by graphviz version 2.38.0 (20140413.2041)
 -->
<!-- Title: RewardVideoDelegate Pages: 1 -->
<svg width="274pt" height="82pt"
 viewBox="0.00 0.00 274.31 82.00" xmlns="http://www.w3.org/2000/svg" xmlns:xlink="http://www.w3.org/1999/xlink">
<g id="graph0" class="graph" transform="scale(1 1) rotate(0) translate(4 78)">
<title>RewardVideoDelegate</title>
<polygon fill="white" stroke="none" points="-4,4 -4,-78 270.308,-78 270.308,4 -4,4"/>
<!-- Node1 -->
<g id="node1" class="node"><title>Node1</title>
<polygon fill="#bfbfbf" stroke="black" points="42.4526,-0.5 42.4526,-18.5 158.34,-18.5 158.34,-0.5 42.4526,-0.5"/>
<text text-anchor="middle" x="100.396" y="-6.5" font-family="Helvetica,sans-Serif" font-size="10.00">RewardVideoDelegate</text>
</g>
<!-- Node2 -->
<g id="node2" class="node"><title>Node2</title>
<polygon fill="white" stroke="#bfbfbf" points="0,-55.5 0,-73.5 58.793,-73.5 58.793,-55.5 0,-55.5"/>
<text text-anchor="middle" x="29.3965" y="-61.5" font-family="Helvetica,sans-Serif" font-size="10.00">NSObject</text>
</g>
<!-- Node2&#45;&gt;Node1 -->
<g id="edge1" class="edge"><title>Node2&#45;&gt;Node1</title>
<path fill="none" stroke="midnightblue" d="M48.5403,-49.2095C61.6744,-39.4052 78.631,-26.7474 89.5116,-18.6253"/>
<polygon fill="midnightblue" stroke="midnightblue" points="46.0997,-46.6637 40.1799,-55.4504 50.2871,-52.2732 46.0997,-46.6637"/>
</g>
<!-- Node3 -->
<g id="node3" class="node"><title>Node3</title>
<polygon fill="white" stroke="#bfbfbf" points="76.4849,-55.5 76.4849,-73.5 266.308,-73.5 266.308,-55.5 76.4849,-55.5"/>
<text text-anchor="middle" x="171.396" y="-61.5" font-family="Helvetica,sans-Serif" font-size="10.00">&lt;GADRewardBasedVideoAdDelegate&gt;</text>
</g>
<!-- Node3&#45;&gt;Node1 -->
<g id="edge2" class="edge"><title>Node3&#45;&gt;Node1</title>
<path fill="none" stroke="midnightblue" d="M152.253,-49.2095C139.119,-39.4052 122.162,-26.7474 111.281,-18.6253"/>
<polygon fill="midnightblue" stroke="midnightblue" points="150.506,-52.2732 160.613,-55.4504 154.693,-46.6637 150.506,-52.2732"/>
</g>
</g>
</svg>
