<?xml version="1.0" encoding="UTF-8" standalone="no"?>
<!DOCTYPE svg PUBLIC "-//W3C//DTD SVG 1.1//EN"
 "http://www.w3.org/Graphics/SVG/1.1/DTD/svg11.dtd">
<!-- Generated by graphviz version 2.38.0 (20140413.2041)
 -->
<!-- Title: +[ReceiptValidator validateAppReceiptForBundleID:andVersion:] Pages: 1 -->
<svg width="473pt" height="47pt"
 viewBox="0.00 0.00 473.14 47.00" xmlns="http://www.w3.org/2000/svg" xmlns:xlink="http://www.w3.org/1999/xlink">
<g id="graph0" class="graph" transform="scale(1 1) rotate(0) translate(4 43)">
<title>+[ReceiptValidator validateAppReceiptForBundleID:andVersion:]</title>
<polygon fill="white" stroke="none" points="-4,4 -4,-43 469.137,-43 469.137,4 -4,4"/>
<!-- Node1 -->
<g id="node1" class="node"><title>Node1</title>
<polygon fill="#bfbfbf" stroke="black" points="0,-0.5 0,-38.5 151.083,-38.5 151.083,-0.5 0,-0.5"/>
<text text-anchor="start" x="8" y="-26.5" font-family="Helvetica,sans-Serif" font-size="10.00">+[ReceiptValidator</text>
<text text-anchor="start" x="8" y="-16.5" font-family="Helvetica,sans-Serif" font-size="10.00"> validateAppReceiptForBundle</text>
<text text-anchor="middle" x="75.5415" y="-6.5" font-family="Helvetica,sans-Serif" font-size="10.00">ID:andVersion:]</text>
</g>
<!-- Node2 -->
<g id="node2" class="node"><title>Node2</title>
<g id="a_node2"><a xlink:href="namespace_m_k_1_1_device.html#a983d07fad256fb9e289b985cb4237efa" target="_top" xlink:title="Returns whether this device is running OS X or not. ">
<polygon fill="white" stroke="black" points="187.083,-10.5 187.083,-28.5 288.103,-28.5 288.103,-10.5 187.083,-10.5"/>
<text text-anchor="middle" x="237.593" y="-16.5" font-family="Helvetica,sans-Serif" font-size="10.00">MK::Device::isOSX</text>
</a>
</g>
</g>
<!-- Node1&#45;&gt;Node2 -->
<g id="edge1" class="edge"><title>Node1&#45;&gt;Node2</title>
<path fill="none" stroke="midnightblue" d="M151.412,-19.5C159.879,-19.5 168.422,-19.5 176.662,-19.5"/>
<polygon fill="midnightblue" stroke="midnightblue" points="176.908,-23.0001 186.908,-19.5 176.907,-16.0001 176.908,-23.0001"/>
</g>
<!-- Node3 -->
<g id="node3" class="node"><title>Node3</title>
<g id="a_node3"><a xlink:href="namespace_m_k_1_1_device.html#a7c83a89bef610abaa7ada09d38c2f3fb" target="_top" xlink:title="Returns current platform. ">
<polygon fill="white" stroke="black" points="324.103,-10.5 324.103,-28.5 465.137,-28.5 465.137,-10.5 324.103,-10.5"/>
<text text-anchor="middle" x="394.62" y="-16.5" font-family="Helvetica,sans-Serif" font-size="10.00">MK::Device::currentPlatform</text>
</a>
</g>
</g>
<!-- Node2&#45;&gt;Node3 -->
<g id="edge2" class="edge"><title>Node2&#45;&gt;Node3</title>
<path fill="none" stroke="midnightblue" d="M288.498,-19.5C296.641,-19.5 305.252,-19.5 313.899,-19.5"/>
<polygon fill="midnightblue" stroke="midnightblue" points="314.042,-23.0001 324.042,-19.5 314.042,-16.0001 314.042,-23.0001"/>
</g>
</g>
</svg>
