<?xml version="1.0" encoding="UTF-8" standalone="no"?>
<!DOCTYPE svg PUBLIC "-//W3C//DTD SVG 1.1//EN"
 "http://www.w3.org/Graphics/SVG/1.1/DTD/svg11.dtd">
<!-- Generated by graphviz version 2.38.0 (20140413.2041)
 -->
<!-- Title: StoreManager Pages: 1 -->
<svg width="434pt" height="82pt"
 viewBox="0.00 0.00 434.14 82.00" xmlns="http://www.w3.org/2000/svg" xmlns:xlink="http://www.w3.org/1999/xlink">
<g id="graph0" class="graph" transform="scale(1 1) rotate(0) translate(4 78)">
<title>StoreManager</title>
<polygon fill="white" stroke="none" points="-4,4 -4,-78 430.139,-78 430.139,4 -4,4"/>
<!-- Node1 -->
<g id="node1" class="node"><title>Node1</title>
<polygon fill="#bfbfbf" stroke="black" points="115.712,-0.5 115.712,-18.5 195.081,-18.5 195.081,-0.5 115.712,-0.5"/>
<text text-anchor="middle" x="155.396" y="-6.5" font-family="Helvetica,sans-Serif" font-size="10.00">StoreManager</text>
</g>
<!-- Node2 -->
<g id="node2" class="node"><title>Node2</title>
<polygon fill="white" stroke="#bfbfbf" points="0,-55.5 0,-73.5 58.793,-73.5 58.793,-55.5 0,-55.5"/>
<text text-anchor="middle" x="29.3965" y="-61.5" font-family="Helvetica,sans-Serif" font-size="10.00">NSObject</text>
</g>
<!-- Node2&#45;&gt;Node1 -->
<g id="edge1" class="edge"><title>Node2&#45;&gt;Node1</title>
<path fill="none" stroke="midnightblue" d="M57.8005,-51.5523C81.6875,-41.5046 115.192,-27.4113 136.08,-18.6253"/>
<polygon fill="midnightblue" stroke="midnightblue" points="56.3938,-48.3469 48.5332,-55.4504 59.108,-54.7993 56.3938,-48.3469"/>
</g>
<!-- Node3 -->
<g id="node3" class="node"><title>Node3</title>
<polygon fill="white" stroke="#bfbfbf" points="76.5176,-55.5 76.5176,-73.5 234.275,-73.5 234.275,-55.5 76.5176,-55.5"/>
<text text-anchor="middle" x="155.396" y="-61.5" font-family="Helvetica,sans-Serif" font-size="10.00">&lt;SKProductsRequestDelegate&gt;</text>
</g>
<!-- Node3&#45;&gt;Node1 -->
<g id="edge2" class="edge"><title>Node3&#45;&gt;Node1</title>
<path fill="none" stroke="midnightblue" d="M155.396,-45.1746C155.396,-36.0945 155.396,-25.5949 155.396,-18.5496"/>
<polygon fill="midnightblue" stroke="midnightblue" points="151.897,-45.2187 155.396,-55.2188 158.897,-45.2188 151.897,-45.2187"/>
</g>
<!-- Node4 -->
<g id="node4" class="node"><title>Node4</title>
<polygon fill="white" stroke="#bfbfbf" points="252.654,-55.5 252.654,-73.5 426.139,-73.5 426.139,-55.5 252.654,-55.5"/>
<text text-anchor="middle" x="339.396" y="-61.5" font-family="Helvetica,sans-Serif" font-size="10.00">&lt;SKPaymentTransactionObserver&gt;</text>
</g>
<!-- Node4&#45;&gt;Node1 -->
<g id="edge3" class="edge"><title>Node4&#45;&gt;Node1</title>
<path fill="none" stroke="midnightblue" d="M301.553,-52.5996C266.396,-42.4728 214.855,-27.6265 183.303,-18.5383"/>
<polygon fill="midnightblue" stroke="midnightblue" points="300.873,-56.0457 311.451,-55.4504 302.81,-49.3192 300.873,-56.0457"/>
</g>
</g>
</svg>
