<?xml version="1.0" encoding="UTF-8" standalone="no"?>
<!DOCTYPE svg PUBLIC "-//W3C//DTD SVG 1.1//EN"
 "http://www.w3.org/Graphics/SVG/1.1/DTD/svg11.dtd">
<!-- Generated by graphviz version 2.38.0 (20140413.2041)
 -->
<!-- Title: GADMAdapterAdColonyExtras Pages: 1 -->
<svg width="212pt" height="82pt"
 viewBox="0.00 0.00 211.69 82.00" xmlns="http://www.w3.org/2000/svg" xmlns:xlink="http://www.w3.org/1999/xlink">
<g id="graph0" class="graph" transform="scale(1 1) rotate(0) translate(4 78)">
<title>GADMAdapterAdColonyExtras</title>
<polygon fill="white" stroke="none" points="-4,4 -4,-78 207.694,-78 207.694,4 -4,4"/>
<!-- Node1 -->
<g id="node1" class="node"><title>Node1</title>
<polygon fill="#bfbfbf" stroke="black" points="8.03467,-0.5 8.03467,-18.5 160.758,-18.5 160.758,-0.5 8.03467,-0.5"/>
<text text-anchor="middle" x="84.3965" y="-6.5" font-family="Helvetica,sans-Serif" font-size="10.00">GADMAdapterAdColonyExtras</text>
</g>
<!-- Node2 -->
<g id="node2" class="node"><title>Node2</title>
<polygon fill="white" stroke="#bfbfbf" points="0,-55.5 0,-73.5 58.793,-73.5 58.793,-55.5 0,-55.5"/>
<text text-anchor="middle" x="29.3965" y="-61.5" font-family="Helvetica,sans-Serif" font-size="10.00">NSObject</text>
</g>
<!-- Node2&#45;&gt;Node1 -->
<g id="edge1" class="edge"><title>Node2&#45;&gt;Node1</title>
<path fill="none" stroke="midnightblue" d="M45.3671,-48.1101C55.3982,-38.4438 67.9285,-26.3692 76.0432,-18.5496"/>
<polygon fill="midnightblue" stroke="midnightblue" points="42.7624,-45.7595 37.9902,-55.2188 47.6197,-50.8001 42.7624,-45.7595"/>
</g>
<!-- Node3 -->
<g id="node3" class="node"><title>Node3</title>
<polygon fill="white" stroke="#bfbfbf" points="77.0986,-55.5 77.0986,-73.5 203.694,-73.5 203.694,-55.5 77.0986,-55.5"/>
<text text-anchor="middle" x="140.396" y="-61.5" font-family="Helvetica,sans-Serif" font-size="10.00">&lt;GADAdNetworkExtras&gt;</text>
</g>
<!-- Node3&#45;&gt;Node1 -->
<g id="edge2" class="edge"><title>Node3&#45;&gt;Node1</title>
<path fill="none" stroke="midnightblue" d="M124.136,-48.1101C113.922,-38.4438 101.164,-26.3692 92.9017,-18.5496"/>
<polygon fill="midnightblue" stroke="midnightblue" points="121.978,-50.8869 131.646,-55.2188 126.789,-45.8028 121.978,-50.8869"/>
</g>
</g>
</svg>
