<?xml version="1.0" encoding="UTF-8" standalone="no"?>
<!DOCTYPE svg PUBLIC "-//W3C//DTD SVG 1.1//EN"
 "http://www.w3.org/Graphics/SVG/1.1/DTD/svg11.dtd">
<!-- Generated by graphviz version 2.38.0 (20140413.2041)
 -->
<!-- Title: &#45;[StoreManager productWithIdentifier:] Pages: 1 -->
<svg width="328pt" height="37pt"
 viewBox="0.00 0.00 327.78 37.00" xmlns="http://www.w3.org/2000/svg" xmlns:xlink="http://www.w3.org/1999/xlink">
<g id="graph0" class="graph" transform="scale(1 1) rotate(0) translate(4 33)">
<title>&#45;[StoreManager productWithIdentifier:]</title>
<polygon fill="white" stroke="none" points="-4,4 -4,-33 323.782,-33 323.782,4 -4,4"/>
<!-- Node1 -->
<g id="node1" class="node"><title>Node1</title>
<polygon fill="#bfbfbf" stroke="black" points="0,-0.5 0,-28.5 141.61,-28.5 141.61,-0.5 0,-0.5"/>
<text text-anchor="start" x="8" y="-16.5" font-family="Helvetica,sans-Serif" font-size="10.00">&#45;[StoreManager productWith</text>
<text text-anchor="middle" x="70.8052" y="-6.5" font-family="Helvetica,sans-Serif" font-size="10.00">Identifier:]</text>
</g>
<!-- Node2 -->
<g id="node2" class="node"><title>Node2</title>
<g id="a_node2"><a xlink:href="interface_store_manager.html#ae29fb430ba1264c7f344fe9382eda397" target="_top" xlink:title="Tries to buy product with given identifier, calling given callback on end. ">
<polygon fill="white" stroke="black" points="177.61,-0.5 177.61,-28.5 319.782,-28.5 319.782,-0.5 177.61,-0.5"/>
<text text-anchor="start" x="185.61" y="-16.5" font-family="Helvetica,sans-Serif" font-size="10.00">&#45;[StoreManager buyProduct</text>
<text text-anchor="middle" x="248.696" y="-6.5" font-family="Helvetica,sans-Serif" font-size="10.00">WithIdentifier:callingOnEnd:]</text>
</a>
</g>
</g>
<!-- Node1&#45;&gt;Node2 -->
<g id="edge1" class="edge"><title>Node1&#45;&gt;Node2</title>
<path fill="none" stroke="midnightblue" d="M152.052,-14.5C160.491,-14.5 169.025,-14.5 177.34,-14.5"/>
<polygon fill="midnightblue" stroke="midnightblue" points="151.827,-11.0001 141.827,-14.5 151.827,-18.0001 151.827,-11.0001"/>
</g>
</g>
</svg>
