<?xml version="1.0" encoding="UTF-8" standalone="no"?>
<!DOCTYPE svg PUBLIC "-//W3C//DTD SVG 1.1//EN"
 "http://www.w3.org/Graphics/SVG/1.1/DTD/svg11.dtd">
<!-- Generated by graphviz version 2.38.0 (20140413.2041)
 -->
<!-- Title: GCDelegate Pages: 1 -->
<svg width="268pt" height="82pt"
 viewBox="0.00 0.00 267.77 82.00" xmlns="http://www.w3.org/2000/svg" xmlns:xlink="http://www.w3.org/1999/xlink">
<g id="graph0" class="graph" transform="scale(1 1) rotate(0) translate(4 78)">
<title>GCDelegate</title>
<polygon fill="white" stroke="none" points="-4,4 -4,-78 263.773,-78 263.773,4 -4,4"/>
<!-- Node1 -->
<g id="node1" class="node"><title>Node1</title>
<polygon fill="#bfbfbf" stroke="black" points="62.8818,-0.5 62.8818,-18.5 133.911,-18.5 133.911,-0.5 62.8818,-0.5"/>
<text text-anchor="middle" x="98.3965" y="-6.5" font-family="Helvetica,sans-Serif" font-size="10.00">GCDelegate</text>
</g>
<!-- Node2 -->
<g id="node2" class="node"><title>Node2</title>
<polygon fill="white" stroke="#bfbfbf" points="0,-55.5 0,-73.5 58.793,-73.5 58.793,-55.5 0,-55.5"/>
<text text-anchor="middle" x="29.3965" y="-61.5" font-family="Helvetica,sans-Serif" font-size="10.00">NSObject</text>
</g>
<!-- Node2&#45;&gt;Node1 -->
<g id="edge1" class="edge"><title>Node2&#45;&gt;Node1</title>
<path fill="none" stroke="midnightblue" d="M42.898,-48.3965C54.4764,-38.6833 70.7913,-26.4466 82.9075,-18.5496"/>
<polygon fill="midnightblue" stroke="midnightblue" points="40.328,-45.995 35.1152,-55.2188 44.9423,-51.2589 40.328,-45.995"/>
</g>
<!-- Node2&#45;&gt;Node1 -->
<g id="edge3" class="edge"><title>Node2&#45;&gt;Node1</title>
<path fill="none" stroke="midnightblue" d="M53.2672,-49.7719C67.3873,-39.8937 83.9751,-26.9036 92.8451,-18.6253"/>
<polygon fill="midnightblue" stroke="midnightblue" points="51.2013,-46.9439 44.8855,-55.4504 55.1275,-52.7392 51.2013,-46.9439"/>
</g>
<!-- Node3 -->
<g id="node3" class="node"><title>Node3</title>
<polygon fill="white" stroke="#bfbfbf" points="77.02,-55.5 77.02,-73.5 259.773,-73.5 259.773,-55.5 77.02,-55.5"/>
<text text-anchor="middle" x="168.396" y="-61.5" font-family="Helvetica,sans-Serif" font-size="10.00">&lt;GKGameCenterControllerDelegate&gt;</text>
</g>
<!-- Node3&#45;&gt;Node1 -->
<g id="edge2" class="edge"><title>Node3&#45;&gt;Node1</title>
<path fill="none" stroke="midnightblue" d="M144.267,-49.7719C129.96,-39.8937 113.127,-26.9036 104.101,-18.6253"/>
<polygon fill="midnightblue" stroke="midnightblue" points="142.498,-52.7995 152.756,-55.4504 146.39,-46.9812 142.498,-52.7995"/>
</g>
<!-- Node3&#45;&gt;Node1 -->
<g id="edge4" class="edge"><title>Node3&#45;&gt;Node1</title>
<path fill="none" stroke="midnightblue" d="M154.61,-48.3965C142.848,-38.6833 126.303,-26.4466 114.037,-18.5496"/>
<polygon fill="midnightblue" stroke="midnightblue" points="152.663,-51.3389 162.521,-55.2188 157.234,-46.0376 152.663,-51.3389"/>
</g>
</g>
</svg>
