<?xml version="1.0" encoding="UTF-8" standalone="no"?>
<!DOCTYPE svg PUBLIC "-//W3C//DTD SVG 1.1//EN"
 "http://www.w3.org/Graphics/SVG/1.1/DTD/svg11.dtd">
<!-- Generated by graphviz version 2.38.0 (20140413.2041)
 -->
<!-- Title: +[BannerViewDelegate GADAdSizeForMKBannerSize:] Pages: 1 -->
<svg width="529pt" height="112pt"
 viewBox="0.00 0.00 529.11 112.00" xmlns="http://www.w3.org/2000/svg" xmlns:xlink="http://www.w3.org/1999/xlink">
<g id="graph0" class="graph" transform="scale(1 1) rotate(0) translate(4 108)">
<title>+[BannerViewDelegate GADAdSizeForMKBannerSize:]</title>
<polygon fill="white" stroke="none" points="-4,4 -4,-108 525.108,-108 525.108,4 -4,4"/>
<!-- Node1 -->
<g id="node1" class="node"><title>Node1</title>
<polygon fill="#bfbfbf" stroke="black" points="0,-35.5 0,-63.5 159.389,-63.5 159.389,-35.5 0,-35.5"/>
<text text-anchor="start" x="8" y="-51.5" font-family="Helvetica,sans-Serif" font-size="10.00">+[BannerViewDelegate</text>
<text text-anchor="middle" x="79.6943" y="-41.5" font-family="Helvetica,sans-Serif" font-size="10.00"> GADAdSizeForMKBannerSize:]</text>
</g>
<!-- Node2 -->
<g id="node2" class="node"><title>Node2</title>
<g id="a_node2"><a xlink:href="interface_banner_view_delegate.html#aed6905a6da0f311df234de88f2b0eff2" target="_top" xlink:title="&#45;[BannerViewDelegate\l initWithAdUnitID:forSize\l:andTestDevices:]">
<polygon fill="white" stroke="black" points="200.037,-65.5 200.037,-103.5 325.515,-103.5 325.515,-65.5 200.037,-65.5"/>
<text text-anchor="start" x="208.037" y="-91.5" font-family="Helvetica,sans-Serif" font-size="10.00">&#45;[BannerViewDelegate</text>
<text text-anchor="start" x="208.037" y="-81.5" font-family="Helvetica,sans-Serif" font-size="10.00"> initWithAdUnitID:forSize</text>
<text text-anchor="middle" x="262.776" y="-71.5" font-family="Helvetica,sans-Serif" font-size="10.00">:andTestDevices:]</text>
</a>
</g>
</g>
<!-- Node1&#45;&gt;Node2 -->
<g id="edge1" class="edge"><title>Node1&#45;&gt;Node2</title>
<path fill="none" stroke="midnightblue" d="M163.158,-65.4389C175.523,-67.8287 188.09,-70.2577 199.927,-72.5456"/>
<polygon fill="midnightblue" stroke="midnightblue" points="163.786,-61.9956 153.304,-63.5342 162.458,-68.8684 163.786,-61.9956"/>
</g>
<!-- Node3 -->
<g id="node3" class="node"><title>Node3</title>
<g id="a_node3"><a xlink:href="interface_reward_video_delegate.html#a0bfa3f23795d0ad8cedcb3c7601b9305" target="_top" xlink:title="&#45;[RewardVideoDelegate\l requestNewRewardVideo]">
<polygon fill="white" stroke="black" points="195.389,-0.5 195.389,-28.5 330.163,-28.5 330.163,-0.5 195.389,-0.5"/>
<text text-anchor="start" x="203.389" y="-16.5" font-family="Helvetica,sans-Serif" font-size="10.00">&#45;[RewardVideoDelegate</text>
<text text-anchor="middle" x="262.776" y="-6.5" font-family="Helvetica,sans-Serif" font-size="10.00"> requestNewRewardVideo]</text>
</a>
</g>
</g>
<!-- Node1&#45;&gt;Node3 -->
<g id="edge2" class="edge"><title>Node1&#45;&gt;Node3</title>
<path fill="none" stroke="midnightblue" d="M163.137,-33.5651C173.912,-31.4827 184.84,-29.3704 195.306,-27.3475"/>
<polygon fill="midnightblue" stroke="midnightblue" points="162.458,-30.1316 153.304,-35.4658 163.786,-37.0044 162.458,-30.1316"/>
</g>
<!-- Node3&#45;&gt;Node3 -->
<g id="edge4" class="edge"><title>Node3&#45;&gt;Node3</title>
<path fill="none" stroke="midnightblue" d="M230.237,-38.4873C233.692,-43.4413 244.539,-47 262.776,-47 291.956,-47 302.214,-37.8898 293.551,-28.5305"/>
<polygon fill="midnightblue" stroke="midnightblue" points="233.703,-38.9876 232,-28.5305 226.81,-37.767 233.703,-38.9876"/>
</g>
<!-- Node4 -->
<g id="node4" class="node"><title>Node4</title>
<g id="a_node4"><a xlink:href="interface_reward_video_delegate.html#a5d8713e80adf05ec03e68072d573ad06" target="_top" xlink:title="&#45;[RewardVideoDelegate\l initWithAdUnitID:andCallback:]">
<polygon fill="white" stroke="black" points="366.163,-0.5 366.163,-28.5 521.108,-28.5 521.108,-0.5 366.163,-0.5"/>
<text text-anchor="start" x="374.163" y="-16.5" font-family="Helvetica,sans-Serif" font-size="10.00">&#45;[RewardVideoDelegate</text>
<text text-anchor="middle" x="443.636" y="-6.5" font-family="Helvetica,sans-Serif" font-size="10.00"> initWithAdUnitID:andCallback:]</text>
</a>
</g>
</g>
<!-- Node3&#45;&gt;Node4 -->
<g id="edge3" class="edge"><title>Node3&#45;&gt;Node4</title>
<path fill="none" stroke="midnightblue" d="M340.571,-14.5C349.008,-14.5 357.598,-14.5 366.033,-14.5"/>
<polygon fill="midnightblue" stroke="midnightblue" points="340.377,-11.0001 330.377,-14.5 340.377,-18.0001 340.377,-11.0001"/>
</g>
</g>
</svg>
