<?xml version="1.0" encoding="UTF-8" standalone="no"?>
<!DOCTYPE svg PUBLIC "-//W3C//DTD SVG 1.1//EN"
 "http://www.w3.org/Graphics/SVG/1.1/DTD/svg11.dtd">
<!-- Generated by graphviz version 2.38.0 (20140413.2041)
 -->
<!-- Title: +[GADMAdapterAdColonyInitializer startWithAppID:andZones:andCustomID:] Pages: 1 -->
<svg width="572pt" height="55pt"
 viewBox="0.00 0.00 572.47 55.00" xmlns="http://www.w3.org/2000/svg" xmlns:xlink="http://www.w3.org/1999/xlink">
<g id="graph0" class="graph" transform="scale(1 1) rotate(0) translate(4 51)">
<title>+[GADMAdapterAdColonyInitializer startWithAppID:andZones:andCustomID:]</title>
<polygon fill="white" stroke="none" points="-4,4 -4,-51 568.468,-51 568.468,4 -4,4"/>
<!-- Node1 -->
<g id="node1" class="node"><title>Node1</title>
<polygon fill="#bfbfbf" stroke="black" points="0,-0.5 0,-28.5 202.748,-28.5 202.748,-0.5 0,-0.5"/>
<text text-anchor="start" x="8" y="-16.5" font-family="Helvetica,sans-Serif" font-size="10.00">+[GADMAdapterAdColonyInitializer</text>
<text text-anchor="middle" x="101.374" y="-6.5" font-family="Helvetica,sans-Serif" font-size="10.00"> startWithAppID:andZones:andCustomID:]</text>
</g>
<!-- Node2 -->
<g id="node2" class="node"><title>Node2</title>
<g id="a_node2"><a xlink:href="interface_reward_video_delegate.html#a0bfa3f23795d0ad8cedcb3c7601b9305" target="_top" xlink:title="&#45;[RewardVideoDelegate\l requestNewRewardVideo]">
<polygon fill="white" stroke="black" points="238.748,-0.5 238.748,-28.5 373.522,-28.5 373.522,-0.5 238.748,-0.5"/>
<text text-anchor="start" x="246.748" y="-16.5" font-family="Helvetica,sans-Serif" font-size="10.00">&#45;[RewardVideoDelegate</text>
<text text-anchor="middle" x="306.135" y="-6.5" font-family="Helvetica,sans-Serif" font-size="10.00"> requestNewRewardVideo]</text>
</a>
</g>
</g>
<!-- Node1&#45;&gt;Node2 -->
<g id="edge1" class="edge"><title>Node1&#45;&gt;Node2</title>
<path fill="none" stroke="midnightblue" d="M213.103,-14.5C221.802,-14.5 230.409,-14.5 238.664,-14.5"/>
<polygon fill="midnightblue" stroke="midnightblue" points="212.864,-11.0001 202.864,-14.5 212.864,-18.0001 212.864,-11.0001"/>
</g>
<!-- Node2&#45;&gt;Node2 -->
<g id="edge3" class="edge"><title>Node2&#45;&gt;Node2</title>
<path fill="none" stroke="midnightblue" d="M273.597,-38.4873C277.052,-43.4413 287.898,-47 306.135,-47 335.315,-47 345.573,-37.8898 336.911,-28.5305"/>
<polygon fill="midnightblue" stroke="midnightblue" points="277.062,-38.9876 275.36,-28.5305 270.17,-37.767 277.062,-38.9876"/>
</g>
<!-- Node3 -->
<g id="node3" class="node"><title>Node3</title>
<g id="a_node3"><a xlink:href="interface_reward_video_delegate.html#a5d8713e80adf05ec03e68072d573ad06" target="_top" xlink:title="&#45;[RewardVideoDelegate\l initWithAdUnitID:andCallback:]">
<polygon fill="white" stroke="black" points="409.522,-0.5 409.522,-28.5 564.468,-28.5 564.468,-0.5 409.522,-0.5"/>
<text text-anchor="start" x="417.522" y="-16.5" font-family="Helvetica,sans-Serif" font-size="10.00">&#45;[RewardVideoDelegate</text>
<text text-anchor="middle" x="486.995" y="-6.5" font-family="Helvetica,sans-Serif" font-size="10.00"> initWithAdUnitID:andCallback:]</text>
</a>
</g>
</g>
<!-- Node2&#45;&gt;Node3 -->
<g id="edge2" class="edge"><title>Node2&#45;&gt;Node3</title>
<path fill="none" stroke="midnightblue" d="M383.931,-14.5C392.368,-14.5 400.958,-14.5 409.392,-14.5"/>
<polygon fill="midnightblue" stroke="midnightblue" points="383.736,-11.0001 373.736,-14.5 383.736,-18.0001 383.736,-11.0001"/>
</g>
</g>
</svg>
