<?xml version="1.0" encoding="UTF-8" standalone="no"?>
<!DOCTYPE svg PUBLIC "-//W3C//DTD SVG 1.1//EN"
 "http://www.w3.org/Graphics/SVG/1.1/DTD/svg11.dtd">
<!-- Generated by graphviz version 2.38.0 (20140413.2041)
 -->
<!-- Title: StoreManager Pages: 1 -->
<svg width="434pt" height="83pt"
 viewBox="0.00 0.00 434.14 83.00" xmlns="http://www.w3.org/2000/svg" xmlns:xlink="http://www.w3.org/1999/xlink">
<g id="graph0" class="graph" transform="scale(1 1) rotate(0) translate(4 79)">
<title>StoreManager</title>
<polygon fill="white" stroke="none" points="-4,4 -4,-79 430.139,-79 430.139,4 -4,4"/>
<!-- Node1 -->
<g id="node1" class="node"><title>Node1</title>
<polygon fill="#bfbfbf" stroke="black" points="115.712,-0.5 115.712,-18.5 195.081,-18.5 195.081,-0.5 115.712,-0.5"/>
<text text-anchor="middle" x="155.396" y="-6.5" font-family="Helvetica,sans-Serif" font-size="10.00">StoreManager</text>
</g>
<!-- Node1&#45;&gt;Node1 -->
<g id="edge4" class="edge"><title>Node1&#45;&gt;Node1</title>
<path fill="none" stroke="#9a32cd" stroke-dasharray="5,2" d="M205.388,-13.718C210.102,-12.8542 213.081,-11.4482 213.081,-9.5 213.081,-6.38281 205.455,-4.65375 195.297,-4.31281"/>
<polygon fill="#9a32cd" stroke="#9a32cd" points="204.916,-10.2471 195.297,-14.6872 205.586,-17.215 204.916,-10.2471"/>
<text text-anchor="middle" x="247.822" y="-6.5" font-family="Helvetica,sans-Serif" font-size="10.00"> onBuyCallback</text>
</g>
<!-- Node2 -->
<g id="node2" class="node"><title>Node2</title>
<polygon fill="white" stroke="#bfbfbf" points="0,-56.5 0,-74.5 58.793,-74.5 58.793,-56.5 0,-56.5"/>
<text text-anchor="middle" x="29.3965" y="-62.5" font-family="Helvetica,sans-Serif" font-size="10.00">NSObject</text>
</g>
<!-- Node2&#45;&gt;Node1 -->
<g id="edge1" class="edge"><title>Node2&#45;&gt;Node1</title>
<path fill="none" stroke="midnightblue" d="M57.5696,-52.4258C81.5948,-42.1293 115.474,-27.6098 136.404,-18.6396"/>
<polygon fill="midnightblue" stroke="midnightblue" points="56.0727,-49.2594 48.26,-56.4157 58.8302,-55.6934 56.0727,-49.2594"/>
</g>
<!-- Node3 -->
<g id="node3" class="node"><title>Node3</title>
<polygon fill="white" stroke="#bfbfbf" points="76.5176,-56.5 76.5176,-74.5 234.275,-74.5 234.275,-56.5 76.5176,-56.5"/>
<text text-anchor="middle" x="155.396" y="-62.5" font-family="Helvetica,sans-Serif" font-size="10.00">&lt;SKProductsRequestDelegate&gt;</text>
</g>
<!-- Node3&#45;&gt;Node1 -->
<g id="edge2" class="edge"><title>Node3&#45;&gt;Node1</title>
<path fill="none" stroke="midnightblue" d="M155.396,-45.8288C155.396,-36.5774 155.396,-25.8798 155.396,-18.7014"/>
<polygon fill="midnightblue" stroke="midnightblue" points="151.897,-46.0625 155.396,-56.0625 158.897,-46.0625 151.897,-46.0625"/>
</g>
<!-- Node4 -->
<g id="node4" class="node"><title>Node4</title>
<polygon fill="white" stroke="#bfbfbf" points="252.654,-56.5 252.654,-74.5 426.139,-74.5 426.139,-56.5 252.654,-56.5"/>
<text text-anchor="middle" x="339.396" y="-62.5" font-family="Helvetica,sans-Serif" font-size="10.00">&lt;SKPaymentTransactionObserver&gt;</text>
</g>
<!-- Node4&#45;&gt;Node1 -->
<g id="edge3" class="edge"><title>Node4&#45;&gt;Node1</title>
<path fill="none" stroke="midnightblue" d="M301.911,-53.4988C266.571,-43.1273 214.444,-27.8293 182.831,-18.5513"/>
<polygon fill="midnightblue" stroke="midnightblue" points="301.269,-56.9579 311.85,-56.4157 303.24,-50.2412 301.269,-56.9579"/>
</g>
</g>
</svg>
