<?xml version="1.0" encoding="UTF-8" standalone="no"?>
<!DOCTYPE svg PUBLIC "-//W3C//DTD SVG 1.1//EN"
 "http://www.w3.org/Graphics/SVG/1.1/DTD/svg11.dtd">
<!-- Generated by graphviz version 2.38.0 (20140413.2041)
 -->
<!-- Title: InterstitialDelegate Pages: 1 -->
<svg width="216pt" height="82pt"
 viewBox="0.00 0.00 216.48 82.00" xmlns="http://www.w3.org/2000/svg" xmlns:xlink="http://www.w3.org/1999/xlink">
<g id="graph0" class="graph" transform="scale(1 1) rotate(0) translate(4 78)">
<title>InterstitialDelegate</title>
<polygon fill="white" stroke="none" points="-4,4 -4,-78 212.482,-78 212.482,4 -4,4"/>
<!-- Node1 -->
<g id="node1" class="node"><title>Node1</title>
<polygon fill="#bfbfbf" stroke="black" points="35.9854,-0.5 35.9854,-18.5 134.808,-18.5 134.808,-0.5 35.9854,-0.5"/>
<text text-anchor="middle" x="85.3965" y="-6.5" font-family="Helvetica,sans-Serif" font-size="10.00">InterstitialDelegate</text>
</g>
<!-- Node2 -->
<g id="node2" class="node"><title>Node2</title>
<polygon fill="white" stroke="#bfbfbf" points="0,-55.5 0,-73.5 58.793,-73.5 58.793,-55.5 0,-55.5"/>
<text text-anchor="middle" x="29.3965" y="-61.5" font-family="Helvetica,sans-Serif" font-size="10.00">NSObject</text>
</g>
<!-- Node2&#45;&gt;Node1 -->
<g id="edge1" class="edge"><title>Node2&#45;&gt;Node1</title>
<path fill="none" stroke="midnightblue" d="M45.6575,-48.1101C55.871,-38.4438 68.6291,-26.3692 76.8913,-18.5496"/>
<polygon fill="midnightblue" stroke="midnightblue" points="43.0036,-45.8028 38.1465,-55.2188 47.8153,-50.8869 43.0036,-45.8028"/>
</g>
<!-- Node3 -->
<g id="node3" class="node"><title>Node3</title>
<polygon fill="white" stroke="#bfbfbf" points="76.3105,-55.5 76.3105,-73.5 208.482,-73.5 208.482,-55.5 76.3105,-55.5"/>
<text text-anchor="middle" x="142.396" y="-61.5" font-family="Helvetica,sans-Serif" font-size="10.00">&lt;GADInterstitialDelegate&gt;</text>
</g>
<!-- Node3&#45;&gt;Node1 -->
<g id="edge2" class="edge"><title>Node3&#45;&gt;Node1</title>
<path fill="none" stroke="midnightblue" d="M126.153,-48.3965C115.707,-38.6833 102.547,-26.4466 94.0536,-18.5496"/>
<polygon fill="midnightblue" stroke="midnightblue" points="123.784,-50.9725 133.49,-55.2188 128.55,-45.8461 123.784,-50.9725"/>
</g>
</g>
</svg>
