<?xml version="1.0" encoding="UTF-8" standalone="no"?>
<!DOCTYPE svg PUBLIC "-//W3C//DTD SVG 1.1//EN"
 "http://www.w3.org/Graphics/SVG/1.1/DTD/svg11.dtd">
<!-- Generated by graphviz version 2.38.0 (20140413.2041)
 -->
<!-- Title: BannerViewDelegate Pages: 1 -->
<svg width="228pt" height="82pt"
 viewBox="0.00 0.00 227.96 82.00" xmlns="http://www.w3.org/2000/svg" xmlns:xlink="http://www.w3.org/1999/xlink">
<g id="graph0" class="graph" transform="scale(1 1) rotate(0) translate(4 78)">
<title>BannerViewDelegate</title>
<polygon fill="white" stroke="none" points="-4,4 -4,-78 223.958,-78 223.958,4 -4,4"/>
<!-- Node1 -->
<g id="node1" class="node"><title>Node1</title>
<polygon fill="#bfbfbf" stroke="black" points="33.5093,-0.5 33.5093,-18.5 143.284,-18.5 143.284,-0.5 33.5093,-0.5"/>
<text text-anchor="middle" x="88.3965" y="-6.5" font-family="Helvetica,sans-Serif" font-size="10.00">BannerViewDelegate</text>
</g>
<!-- Node2 -->
<g id="node2" class="node"><title>Node2</title>
<polygon fill="white" stroke="#bfbfbf" points="0,-55.5 0,-73.5 58.793,-73.5 58.793,-55.5 0,-55.5"/>
<text text-anchor="middle" x="29.3965" y="-61.5" font-family="Helvetica,sans-Serif" font-size="10.00">NSObject</text>
</g>
<!-- Node2&#45;&gt;Node1 -->
<g id="edge1" class="edge"><title>Node2&#45;&gt;Node1</title>
<path fill="none" stroke="midnightblue" d="M45.9379,-48.6408C56.759,-38.9201 70.4836,-26.5913 79.3513,-18.6253"/>
<polygon fill="midnightblue" stroke="midnightblue" points="43.4576,-46.164 38.3573,-55.4504 48.1355,-51.3715 43.4576,-46.164"/>
</g>
<!-- Node3 -->
<g id="node3" class="node"><title>Node3</title>
<polygon fill="white" stroke="#bfbfbf" points="76.8345,-55.5 76.8345,-73.5 219.958,-73.5 219.958,-55.5 76.8345,-55.5"/>
<text text-anchor="middle" x="148.396" y="-61.5" font-family="Helvetica,sans-Serif" font-size="10.00">&lt;GADBannerViewDelegate&gt;</text>
</g>
<!-- Node3&#45;&gt;Node1 -->
<g id="edge2" class="edge"><title>Node3&#45;&gt;Node1</title>
<path fill="none" stroke="midnightblue" d="M131.575,-48.6408C120.57,-38.9201 106.613,-26.5913 97.595,-18.6253"/>
<polygon fill="midnightblue" stroke="midnightblue" points="129.472,-51.4532 139.284,-55.4504 134.106,-46.2069 129.472,-51.4532"/>
</g>
</g>
</svg>
