<?xml version="1.0" encoding="UTF-8" standalone="no"?>
<!DOCTYPE svg PUBLIC "-//W3C//DTD SVG 1.1//EN"
 "http://www.w3.org/Graphics/SVG/1.1/DTD/svg11.dtd">
<!-- Generated by graphviz version 2.38.0 (20140413.2041)
 -->
<!-- Title: +[ReceiptValidator receiptAtURL:isValidForBundleID:andVersion:] Pages: 1 -->
<svg width="478pt" height="138pt"
 viewBox="0.00 0.00 477.94 138.00" xmlns="http://www.w3.org/2000/svg" xmlns:xlink="http://www.w3.org/1999/xlink">
<g id="graph0" class="graph" transform="scale(1 1) rotate(0) translate(4 134)">
<title>+[ReceiptValidator receiptAtURL:isValidForBundleID:andVersion:]</title>
<polygon fill="white" stroke="none" points="-4,4 -4,-134 473.937,-134 473.937,4 -4,4"/>
<!-- Node1 -->
<g id="node1" class="node"><title>Node1</title>
<polygon fill="#bfbfbf" stroke="black" points="0,-45.5 0,-83.5 155.883,-83.5 155.883,-45.5 0,-45.5"/>
<text text-anchor="start" x="8" y="-71.5" font-family="Helvetica,sans-Serif" font-size="10.00">+[ReceiptValidator</text>
<text text-anchor="start" x="8" y="-61.5" font-family="Helvetica,sans-Serif" font-size="10.00"> receiptAtURL:isValidForBundle</text>
<text text-anchor="middle" x="77.9414" y="-51.5" font-family="Helvetica,sans-Serif" font-size="10.00">ID:andVersion:]</text>
</g>
<!-- Node2 -->
<g id="node2" class="node"><title>Node2</title>
<g id="a_node2"><a xlink:href="_c_p_p_utils_8h.html#a454603a4e70231351c60f4c95b2107d1" target="_top" xlink:title="Returns NSData with bytes represented by given hexadecimal NSString. ">
<polygon fill="white" stroke="black" points="202.713,-111.5 202.713,-129.5 282.072,-129.5 282.072,-111.5 202.713,-111.5"/>
<text text-anchor="middle" x="242.393" y="-117.5" font-family="Helvetica,sans-Serif" font-size="10.00">HexToNSData</text>
</a>
</g>
</g>
<!-- Node1&#45;&gt;Node2 -->
<g id="edge1" class="edge"><title>Node1&#45;&gt;Node2</title>
<path fill="none" stroke="midnightblue" d="M134.394,-83.6154C157.775,-91.6753 184.334,-100.831 205.143,-108.004"/>
<polygon fill="midnightblue" stroke="midnightblue" points="204.262,-111.402 214.857,-111.353 206.543,-104.785 204.262,-111.402"/>
</g>
<!-- Node4 -->
<g id="node4" class="node"><title>Node4</title>
<g id="a_node4"><a xlink:href="namespace_m_k_1_1_device.html#a983d07fad256fb9e289b985cb4237efa" target="_top" xlink:title="Returns whether this device is running OS X or not. ">
<polygon fill="white" stroke="black" points="191.883,-74.5 191.883,-92.5 292.902,-92.5 292.902,-74.5 191.883,-74.5"/>
<text text-anchor="middle" x="242.393" y="-80.5" font-family="Helvetica,sans-Serif" font-size="10.00">MK::Device::isOSX</text>
</a>
</g>
</g>
<!-- Node1&#45;&gt;Node4 -->
<g id="edge3" class="edge"><title>Node1&#45;&gt;Node4</title>
<path fill="none" stroke="midnightblue" d="M155.885,-73.4992C164.514,-74.5084 173.208,-75.5252 181.575,-76.5038"/>
<polygon fill="midnightblue" stroke="midnightblue" points="181.254,-79.9901 191.593,-77.6755 182.067,-73.0375 181.254,-79.9901"/>
</g>
<!-- Node6 -->
<g id="node6" class="node"><title>Node6</title>
<g id="a_node6"><a xlink:href="_c_p_p_utils_8h.html#a35815dc6b4ba20ddb20e4a27f0b82294" target="_top" xlink:title="Returns a NSString equivalent to given std::string. ">
<polygon fill="white" stroke="black" points="209.935,-37.5 209.935,-55.5 274.851,-55.5 274.851,-37.5 209.935,-37.5"/>
<text text-anchor="middle" x="242.393" y="-43.5" font-family="Helvetica,sans-Serif" font-size="10.00">to_nsstring</text>
</a>
</g>
</g>
<!-- Node1&#45;&gt;Node6 -->
<g id="edge5" class="edge"><title>Node1&#45;&gt;Node6</title>
<path fill="none" stroke="midnightblue" d="M155.885,-55.9744C170.898,-54.311 186.107,-52.6258 199.451,-51.1472"/>
<polygon fill="midnightblue" stroke="midnightblue" points="200.161,-54.59 209.715,-50.01 199.39,-47.6326 200.161,-54.59"/>
</g>
<!-- Node7 -->
<g id="node7" class="node"><title>Node7</title>
<g id="a_node7"><a xlink:href="namespace_m_k_1_1_device.html#a7f05d5d0e1b292c8fd29bdea674fcfe3" target="_top" xlink:title="Returns UUID of this device. ">
<polygon fill="white" stroke="black" points="193.831,-0.5 193.831,-18.5 290.954,-18.5 290.954,-0.5 193.831,-0.5"/>
<text text-anchor="middle" x="242.393" y="-6.5" font-family="Helvetica,sans-Serif" font-size="10.00">MK::Device::UUID</text>
</a>
</g>
</g>
<!-- Node1&#45;&gt;Node7 -->
<g id="edge6" class="edge"><title>Node1&#45;&gt;Node7</title>
<path fill="none" stroke="midnightblue" d="M135.303,-45.418C158.456,-37.5791 184.593,-28.7303 205.13,-21.7771"/>
<polygon fill="midnightblue" stroke="midnightblue" points="206.375,-25.0508 214.725,-18.5287 204.131,-18.4205 206.375,-25.0508"/>
</g>
<!-- Node3 -->
<g id="node3" class="node"><title>Node3</title>
<g id="a_node3"><a xlink:href="namespace_m_k_1_1_a_b_database.html#afd3d3523193c664c29f23e4235e13c8d" target="_top" xlink:title="Initializes A/B database and calls given callback if this is the first time database has been initial...">
<polygon fill="white" stroke="black" points="343.897,-111.5 343.897,-129.5 454.941,-129.5 454.941,-111.5 343.897,-111.5"/>
<text text-anchor="middle" x="399.419" y="-117.5" font-family="Helvetica,sans-Serif" font-size="10.00">MK::ABDatabase::init</text>
</a>
</g>
</g>
<!-- Node2&#45;&gt;Node3 -->
<g id="edge2" class="edge"><title>Node2&#45;&gt;Node3</title>
<path fill="none" stroke="midnightblue" d="M282.112,-120.5C297.706,-120.5 316.122,-120.5 333.645,-120.5"/>
<polygon fill="midnightblue" stroke="midnightblue" points="333.831,-124 343.831,-120.5 333.831,-117 333.831,-124"/>
</g>
<!-- Node5 -->
<g id="node5" class="node"><title>Node5</title>
<g id="a_node5"><a xlink:href="namespace_m_k_1_1_device.html#a7c83a89bef610abaa7ada09d38c2f3fb" target="_top" xlink:title="Returns current platform. ">
<polygon fill="white" stroke="black" points="328.902,-74.5 328.902,-92.5 469.937,-92.5 469.937,-74.5 328.902,-74.5"/>
<text text-anchor="middle" x="399.419" y="-80.5" font-family="Helvetica,sans-Serif" font-size="10.00">MK::Device::currentPlatform</text>
</a>
</g>
</g>
<!-- Node4&#45;&gt;Node5 -->
<g id="edge4" class="edge"><title>Node4&#45;&gt;Node5</title>
<path fill="none" stroke="midnightblue" d="M293.297,-83.5C301.441,-83.5 310.052,-83.5 318.699,-83.5"/>
<polygon fill="midnightblue" stroke="midnightblue" points="318.842,-87.0001 328.842,-83.5 318.842,-80.0001 318.842,-87.0001"/>
</g>
</g>
</svg>
