<?xml version="1.0" encoding="UTF-8" standalone="no"?>
<!DOCTYPE svg PUBLIC "-//W3C//DTD SVG 1.1//EN"
 "http://www.w3.org/Graphics/SVG/1.1/DTD/svg11.dtd">
<!-- Generated by graphviz version 2.38.0 (20140413.2041)
 -->
<!-- Title: &#45;[BannerViewDelegate initWithAdUnitID:forSize:andTestDevices:] Pages: 1 -->
<svg width="329pt" height="47pt"
 viewBox="0.00 0.00 328.87 47.00" xmlns="http://www.w3.org/2000/svg" xmlns:xlink="http://www.w3.org/1999/xlink">
<g id="graph0" class="graph" transform="scale(1 1) rotate(0) translate(4 43)">
<title>&#45;[BannerViewDelegate initWithAdUnitID:forSize:andTestDevices:]</title>
<polygon fill="white" stroke="none" points="-4,4 -4,-43 324.866,-43 324.866,4 -4,4"/>
<!-- Node1 -->
<g id="node1" class="node"><title>Node1</title>
<polygon fill="#bfbfbf" stroke="black" points="0,-0.5 0,-38.5 125.478,-38.5 125.478,-0.5 0,-0.5"/>
<text text-anchor="start" x="8" y="-26.5" font-family="Helvetica,sans-Serif" font-size="10.00">&#45;[BannerViewDelegate</text>
<text text-anchor="start" x="8" y="-16.5" font-family="Helvetica,sans-Serif" font-size="10.00"> initWithAdUnitID:forSize</text>
<text text-anchor="middle" x="62.7388" y="-6.5" font-family="Helvetica,sans-Serif" font-size="10.00">:andTestDevices:]</text>
</g>
<!-- Node2 -->
<g id="node2" class="node"><title>Node2</title>
<g id="a_node2"><a xlink:href="interface_banner_view_delegate.html#a51cc9a48ca1271ea549de3cec7aae936" target="_top" xlink:title="+[BannerViewDelegate\l GADAdSizeForMKBannerSize:]">
<polygon fill="white" stroke="black" points="161.478,-5.5 161.478,-33.5 320.866,-33.5 320.866,-5.5 161.478,-5.5"/>
<text text-anchor="start" x="169.478" y="-21.5" font-family="Helvetica,sans-Serif" font-size="10.00">+[BannerViewDelegate</text>
<text text-anchor="middle" x="241.172" y="-11.5" font-family="Helvetica,sans-Serif" font-size="10.00"> GADAdSizeForMKBannerSize:]</text>
</a>
</g>
</g>
<!-- Node1&#45;&gt;Node2 -->
<g id="edge1" class="edge"><title>Node1&#45;&gt;Node2</title>
<path fill="none" stroke="midnightblue" d="M125.942,-19.5C134.143,-19.5 142.673,-19.5 151.212,-19.5"/>
<polygon fill="midnightblue" stroke="midnightblue" points="151.221,-23.0001 161.221,-19.5 151.221,-16.0001 151.221,-23.0001"/>
</g>
</g>
</svg>
