<?xml version="1.0" encoding="UTF-8" standalone="no"?>
<!DOCTYPE svg PUBLIC "-//W3C//DTD SVG 1.1//EN"
 "http://www.w3.org/Graphics/SVG/1.1/DTD/svg11.dtd">
<!-- Generated by graphviz version 2.38.0 (20140413.2041)
 -->
<!-- Title: &#45;[RewardVideoDelegate requestNewRewardVideo] Pages: 1 -->
<!--zoomable 590 -->
<svg id="main" version="1.1" xmlns="http://www.w3.org/2000/svg" xmlns:xlink="http://www.w3.org/1999/xlink" xml:space="preserve" onload="init(evt)">
<style type="text/css"><![CDATA[
.edge:hover path { stroke: red; }
.edge:hover polygon { stroke: red; fill: red; }
]]></style>
<script type="text/javascript"><![CDATA[
var edges = document.getElementsByTagName('g');
if (edges && edges.length) {
  for (var i=0;i<edges.length;i++) {
    if (edges[i].id.substr(0,4)=='edge') {
      edges[i].setAttribute('class','edge');
    }
  }
}
]]></script>
        <defs>
                <circle id="rim" cx="0" cy="0" r="7"/>
                <circle id="rim2" cx="0" cy="0" r="3.5"/>
                <g id="zoomPlus">
                        <use xlink:href="#rim" fill="#404040">
                                <set attributeName="fill" to="#808080" begin="zoomplus.mouseover" end="zoomplus.mouseout"/>
                        </use>
                        <path d="M-4,0h8M0,-4v8" fill="none" stroke="white" stroke-width="1.5" pointer-events="none"/>
                </g>
                <g id="zoomMin">
                        <use xlink:href="#rim" fill="#404040">
                                <set attributeName="fill" to="#808080" begin="zoomminus.mouseover" end="zoomminus.mouseout"/>
                        </use>
                        <path d="M-4,0h8" fill="none" stroke="white" stroke-width="1.5" pointer-events="none"/>
                </g>
                <g id="dirArrow">
                        <path fill="none" stroke="white" stroke-width="1.5" d="M0,-3.0v7 M-2.5,-0.5L0,-3.0L2.5,-0.5"/>
                </g>
               <g id="resetDef">
                       <use xlink:href="#rim2" fill="#404040">
                               <set attributeName="fill" to="#808080" begin="reset.mouseover" end="reset.mouseout"/>
                       </use>
               </g>
        </defs>

<script type="text/javascript">
var viewWidth = 1247;
var viewHeight = 590;
var sectionId = 'dynsection-3';
</script>
<script xlink:href="svgpan.js"/>
<svg id="graph" class="graph">
<g id="viewport">
<title>&#45;[RewardVideoDelegate requestNewRewardVideo]</title>
<polygon fill="white" stroke="none" points="-4,4 -4,-586 1242.69,-586 1242.69,4 -4,4"/>
<!-- Node1 -->
<g id="node1" class="node"><title>Node1</title>
<polygon fill="#bfbfbf" stroke="black" points="0,-279.5 0,-307.5 134.774,-307.5 134.774,-279.5 0,-279.5"/>
<text text-anchor="start" x="8" y="-295.5" font-family="Helvetica,sans-Serif" font-size="10.00">&#45;[RewardVideoDelegate</text>
<text text-anchor="middle" x="67.3872" y="-285.5" font-family="Helvetica,sans-Serif" font-size="10.00"> requestNewRewardVideo]</text>
</g>
<!-- Node1&#45;&gt;Node1 -->
<g id="edge18" class="edge"><title>Node1&#45;&gt;Node1</title>
<path fill="none" stroke="midnightblue" d="M32.5084,-307.53C22.6906,-316.89 34.3169,-326 67.3872,-326 88.0562,-326 100.349,-322.441 104.264,-317.487"/>
<polygon fill="midnightblue" stroke="midnightblue" points="107.665,-316.646 102.266,-307.53 100.802,-318.024 107.665,-316.646"/>
</g>
<!-- Node2 -->
<g id="node2" class="node"><title>Node2</title>
<g id="a_node2"><a xlink:href="namespace_m_k_1_1_ad_kit.html#a39e1599ce157acc2dcbcd8747f870a2b" target="_top" xlink:title="Performs any initialization required by the ads adapter. ">
<polygon fill="white" stroke="black" points="229.969,-563.5 229.969,-581.5 314.328,-581.5 314.328,-563.5 229.969,-563.5"/>
<text text-anchor="middle" x="272.148" y="-569.5" font-family="Helvetica,sans-Serif" font-size="10.00">MK::AdKit::_init</text>
</a>
</g>
</g>
<!-- Node1&#45;&gt;Node2 -->
<g id="edge1" class="edge"><title>Node1&#45;&gt;Node2</title>
<path fill="none" stroke="midnightblue" d="M69.2994,-307.551C72.9707,-351.721 90.6299,-488.73 170.774,-554.5 184.261,-565.568 202.239,-570.782 219.251,-573.009"/>
<polygon fill="midnightblue" stroke="midnightblue" points="219.375,-576.538 229.669,-574.035 220.061,-569.572 219.375,-576.538"/>
</g>
<!-- Node3 -->
<g id="node3" class="node"><title>Node3</title>
<g id="a_node3"><a xlink:href="namespace_m_k_1_1_ad_kit.html#a526610f0f5a5595280154895818c48de" target="_top" xlink:title="Shows a bottom banner ad. ">
<polygon fill="white" stroke="black" points="192.725,-526.5 192.725,-544.5 351.572,-544.5 351.572,-526.5 192.725,-526.5"/>
<text text-anchor="middle" x="272.148" y="-532.5" font-family="Helvetica,sans-Serif" font-size="10.00">MK::AdKit::_showBottomBanner</text>
</a>
</g>
</g>
<!-- Node1&#45;&gt;Node3 -->
<g id="edge2" class="edge"><title>Node1&#45;&gt;Node3</title>
<path fill="none" stroke="midnightblue" d="M70.2884,-307.552C76.4911,-347.538 99.9936,-462.595 170.774,-517.5 174.637,-520.496 178.833,-523.055 183.247,-525.237"/>
<polygon fill="midnightblue" stroke="midnightblue" points="182.003,-528.511 192.575,-529.204 184.743,-522.069 182.003,-528.511"/>
</g>
<!-- Node4 -->
<g id="node4" class="node"><title>Node4</title>
<g id="a_node4"><a xlink:href="namespace_m_k_1_1_ad_kit.html#ae4fe5a11d697083b53f50d9abcc3286e" target="_top" xlink:title="Shows an interstitial ad. ">
<polygon fill="white" stroke="black" points="203.292,-489.5 203.292,-507.5 341.005,-507.5 341.005,-489.5 203.292,-489.5"/>
<text text-anchor="middle" x="272.148" y="-495.5" font-family="Helvetica,sans-Serif" font-size="10.00">MK::AdKit::_showInterstitial</text>
</a>
</g>
</g>
<!-- Node1&#45;&gt;Node4 -->
<g id="edge3" class="edge"><title>Node1&#45;&gt;Node4</title>
<path fill="none" stroke="midnightblue" d="M71.6253,-307.532C80.5775,-342.931 109.181,-436.188 170.774,-480.5 177.643,-485.442 185.446,-489.166 193.595,-491.954"/>
<polygon fill="midnightblue" stroke="midnightblue" points="192.703,-495.34 203.285,-494.815 194.685,-488.627 192.703,-495.34"/>
</g>
<!-- Node5 -->
<g id="node5" class="node"><title>Node5</title>
<g id="a_node5"><a xlink:href="namespace_m_k_1_1_ad_kit.html#acf80fb472cfaa9a3fee8b99789ee39a5" target="_top" xlink:title="Shows a top banner ad. ">
<polygon fill="white" stroke="black" points="200.503,-452.5 200.503,-470.5 343.793,-470.5 343.793,-452.5 200.503,-452.5"/>
<text text-anchor="middle" x="272.148" y="-458.5" font-family="Helvetica,sans-Serif" font-size="10.00">MK::AdKit::_showTopBanner</text>
</a>
</g>
</g>
<!-- Node1&#45;&gt;Node5 -->
<g id="edge4" class="edge"><title>Node1&#45;&gt;Node5</title>
<path fill="none" stroke="midnightblue" d="M73.7031,-307.884C85.7811,-338.393 118.372,-409.567 170.774,-443.5 176.904,-447.469 183.665,-450.627 190.694,-453.131"/>
<polygon fill="midnightblue" stroke="midnightblue" points="189.822,-456.526 200.411,-456.156 191.903,-449.842 189.822,-456.526"/>
</g>
<!-- Node6 -->
<g id="node6" class="node"><title>Node6</title>
<g id="a_node6"><a xlink:href="namespace_m_k_1_1_ad_kit.html#a89f8e4bc4d9c7d6b75f3d785ef1d3dab" target="_top" xlink:title="Shows a video reward ad. ">
<polygon fill="white" stroke="black" points="194.759,-415.5 194.759,-433.5 349.538,-433.5 349.538,-415.5 194.759,-415.5"/>
<text text-anchor="middle" x="272.148" y="-421.5" font-family="Helvetica,sans-Serif" font-size="10.00">MK::AdKit::_showVideoReward</text>
</a>
</g>
</g>
<!-- Node1&#45;&gt;Node6 -->
<g id="edge5" class="edge"><title>Node1&#45;&gt;Node6</title>
<path fill="none" stroke="midnightblue" d="M76.7628,-307.685C92.0597,-332.214 127.011,-382.247 170.774,-406.5 175.304,-409.01 180.109,-411.182 185.067,-413.059"/>
<polygon fill="midnightblue" stroke="midnightblue" points="184.164,-416.448 194.758,-416.319 186.396,-409.813 184.164,-416.448"/>
</g>
<!-- Node7 -->
<g id="node7" class="node"><title>Node7</title>
<g id="a_node7"><a xlink:href="namespace_m_k_1_1_ad_kit.html#a1abd645a384f31dc1421e82772cfb472" target="_top" xlink:title="Returns whether ads are enabled for this user or not. ">
<polygon fill="white" stroke="black" points="428.978,-111.5 428.978,-129.5 530.583,-129.5 530.583,-111.5 428.978,-111.5"/>
<text text-anchor="middle" x="479.781" y="-117.5" font-family="Helvetica,sans-Serif" font-size="10.00">MK::AdKit::enabled</text>
</a>
</g>
</g>
<!-- Node1&#45;&gt;Node7 -->
<g id="edge6" class="edge"><title>Node1&#45;&gt;Node7</title>
<path fill="none" stroke="midnightblue" d="M74.0068,-279.341C86.4555,-250.063 119.385,-183.132 170.774,-153.5 211.683,-129.912 341.411,-123.157 418.847,-121.241"/>
<polygon fill="midnightblue" stroke="midnightblue" points="419.03,-124.737 428.948,-121.011 418.871,-117.739 419.03,-124.737"/>
</g>
<!-- Node11 -->
<g id="node11" class="node"><title>Node11</title>
<g id="a_node11"><a xlink:href="interface_banner_view_delegate.html#a51cc9a48ca1271ea549de3cec7aae936" target="_top" xlink:title="+[BannerViewDelegate\l GADAdSizeForMKBannerSize:]">
<polygon fill="white" stroke="black" points="192.454,-321.5 192.454,-349.5 351.843,-349.5 351.843,-321.5 192.454,-321.5"/>
<text text-anchor="start" x="200.454" y="-337.5" font-family="Helvetica,sans-Serif" font-size="10.00">+[BannerViewDelegate</text>
<text text-anchor="middle" x="272.148" y="-327.5" font-family="Helvetica,sans-Serif" font-size="10.00"> GADAdSizeForMKBannerSize:]</text>
</a>
</g>
</g>
<!-- Node1&#45;&gt;Node11 -->
<g id="edge10" class="edge"><title>Node1&#45;&gt;Node11</title>
<path fill="none" stroke="midnightblue" d="M134.779,-307.252C153.466,-311.123 173.96,-315.368 193.254,-319.365"/>
<polygon fill="midnightblue" stroke="midnightblue" points="192.716,-322.828 203.218,-321.429 194.136,-315.973 192.716,-322.828"/>
</g>
<!-- Node12 -->
<g id="node12" class="node"><title>Node12</title>
<g id="a_node12"><a xlink:href="namespace_m_k_1_1_device.html#ae25a42cc38e44dda3299a65171802375" target="_top" xlink:title="Returns whether internet is currently reachable via Wifi or not. ">
<polygon fill="white" stroke="black" points="211.084,-284.5 211.084,-302.5 333.212,-302.5 333.212,-284.5 211.084,-284.5"/>
<text text-anchor="middle" x="272.148" y="-290.5" font-family="Helvetica,sans-Serif" font-size="10.00">MK::Device::isUsingWifi</text>
</a>
</g>
</g>
<!-- Node1&#45;&gt;Node12 -->
<g id="edge11" class="edge"><title>Node1&#45;&gt;Node12</title>
<path fill="none" stroke="midnightblue" d="M134.779,-293.5C155.916,-293.5 179.367,-293.5 200.776,-293.5"/>
<polygon fill="midnightblue" stroke="midnightblue" points="200.777,-297 210.777,-293.5 200.777,-290 200.777,-297"/>
</g>
<!-- Node13 -->
<g id="node13" class="node"><title>Node13</title>
<g id="a_node13"><a xlink:href="namespace_m_k_1_1_analytics.html#a45074f520084ef7dadcf189155705026" target="_top" xlink:title="Logs that app tried to display a video reward ad that was not ready yet. ">
<polygon fill="white" stroke="black" points="200.787,-368.5 200.787,-396.5 343.51,-396.5 343.51,-368.5 200.787,-368.5"/>
<text text-anchor="start" x="208.787" y="-384.5" font-family="Helvetica,sans-Serif" font-size="10.00">MK::Analytics::logNonReady</text>
<text text-anchor="middle" x="272.148" y="-374.5" font-family="Helvetica,sans-Serif" font-size="10.00">VideoRewardDisplay</text>
</a>
</g>
</g>
<!-- Node1&#45;&gt;Node13 -->
<g id="edge12" class="edge"><title>Node1&#45;&gt;Node13</title>
<path fill="none" stroke="midnightblue" d="M86.1699,-307.726C105.783,-322.731 138.814,-346.028 170.774,-359.5 177.139,-362.183 183.868,-364.579 190.707,-366.716"/>
<polygon fill="midnightblue" stroke="midnightblue" points="190.196,-370.213 200.777,-369.662 192.162,-363.494 190.196,-370.213"/>
</g>
<!-- Node17 -->
<g id="node17" class="node"><title>Node17</title>
<g id="a_node17"><a xlink:href="namespace_m_k_1_1_log.html#aaad0a85a2c31c679940f009469a1cabc" target="_top" xlink:title="Logs a non critical message that will appear also in release builds and will also be logged to Fabric...">
<polygon fill="white" stroke="black" points="205.792,-247.5 205.792,-265.5 338.505,-265.5 338.505,-247.5 205.792,-247.5"/>
<text text-anchor="middle" x="272.148" y="-253.5" font-family="Helvetica,sans-Serif" font-size="10.00">MK::Log::nonCriticalCrash</text>
</a>
</g>
</g>
<!-- Node1&#45;&gt;Node17 -->
<g id="edge16" class="edge"><title>Node1&#45;&gt;Node17</title>
<path fill="none" stroke="midnightblue" d="M135.018,-281.075C146.923,-278.872 159.214,-276.609 170.774,-274.5 183.682,-272.145 197.528,-269.645 210.687,-267.281"/>
<polygon fill="midnightblue" stroke="midnightblue" points="211.365,-270.716 220.59,-265.505 210.129,-263.826 211.365,-270.716"/>
</g>
<!-- Node19 -->
<g id="node19" class="node"><title>Node19</title>
<g id="a_node19"><a xlink:href="interface_g_a_d_m_adapter_ad_colony_initializer.html#a3471826bd99c32de69ccbe369eb12d4b" target="_top" xlink:title="+[GADMAdapterAdColonyInitializer\l startWithAppID:andZones:andCustomID:]">
<polygon fill="white" stroke="black" points="170.774,-163.5 170.774,-191.5 373.522,-191.5 373.522,-163.5 170.774,-163.5"/>
<text text-anchor="start" x="178.774" y="-179.5" font-family="Helvetica,sans-Serif" font-size="10.00">+[GADMAdapterAdColonyInitializer</text>
<text text-anchor="middle" x="272.148" y="-169.5" font-family="Helvetica,sans-Serif" font-size="10.00"> startWithAppID:andZones:andCustomID:]</text>
</a>
</g>
</g>
<!-- Node1&#45;&gt;Node19 -->
<g id="edge19" class="edge"><title>Node1&#45;&gt;Node19</title>
<path fill="none" stroke="midnightblue" d="M79.6816,-279.412C97.0176,-258.78 132.248,-220.622 170.774,-200.5 174.518,-198.545 178.426,-196.754 182.435,-195.115"/>
<polygon fill="midnightblue" stroke="midnightblue" points="183.805,-198.34 191.946,-191.559 181.353,-191.783 183.805,-198.34"/>
</g>
<!-- Node20 -->
<g id="node20" class="node"><title>Node20</title>
<g id="a_node20"><a xlink:href="_c_p_p_utils_8h.html#a86a3c923fc6c24186808cb0ace126710" target="_top" xlink:title="Returns a NSArray equivalent to given std::vector of strings. ">
<polygon fill="white" stroke="black" points="240.525,-210.5 240.525,-228.5 303.771,-228.5 303.771,-210.5 240.525,-210.5"/>
<text text-anchor="middle" x="272.148" y="-216.5" font-family="Helvetica,sans-Serif" font-size="10.00">to_nsarray</text>
</a>
</g>
</g>
<!-- Node1&#45;&gt;Node20 -->
<g id="edge20" class="edge"><title>Node1&#45;&gt;Node20</title>
<path fill="none" stroke="midnightblue" d="M89.4058,-279.352C109.467,-266.506 140.966,-248.01 170.774,-237.5 189.705,-230.826 211.555,-226.532 230.026,-223.821"/>
<polygon fill="midnightblue" stroke="midnightblue" points="230.746,-227.255 240.181,-222.436 229.8,-220.319 230.746,-227.255"/>
</g>
<!-- Node22 -->
<g id="node22" class="node"><title>Node22</title>
<g id="a_node22"><a xlink:href="_c_p_p_utils_8h.html#a35815dc6b4ba20ddb20e4a27f0b82294" target="_top" xlink:title="Returns a NSString equivalent to given std::string. ">
<polygon fill="white" stroke="black" points="239.69,-87.5 239.69,-105.5 304.606,-105.5 304.606,-87.5 239.69,-87.5"/>
<text text-anchor="middle" x="272.148" y="-93.5" font-family="Helvetica,sans-Serif" font-size="10.00">to_nsstring</text>
</a>
</g>
</g>
<!-- Node1&#45;&gt;Node22 -->
<g id="edge22" class="edge"><title>Node1&#45;&gt;Node22</title>
<path fill="none" stroke="midnightblue" d="M72.5593,-279.241C83.0915,-245.869 114.04,-162.35 170.774,-120.5 187.641,-108.058 210.051,-101.976 229.417,-99.0386"/>
<polygon fill="midnightblue" stroke="midnightblue" points="230.041,-102.487 239.514,-97.7411 229.149,-95.5444 230.041,-102.487"/>
</g>
<!-- Node23 -->
<g id="node23" class="node"><title>Node23</title>
<g id="a_node23"><a xlink:href="namespace_m_k_1_1_ad_kit.html#a6bca88e69dd5dc1616d521b88eb953cc" target="_top" xlink:title="Returns whether this user has video rewards available or not. ">
<polygon fill="white" stroke="black" points="187.256,-50.5 187.256,-68.5 357.041,-68.5 357.041,-50.5 187.256,-50.5"/>
<text text-anchor="middle" x="272.148" y="-56.5" font-family="Helvetica,sans-Serif" font-size="10.00">MK::AdKit::videoRewardsAvailable</text>
</a>
</g>
</g>
<!-- Node1&#45;&gt;Node23 -->
<g id="edge23" class="edge"><title>Node1&#45;&gt;Node23</title>
<path fill="none" stroke="midnightblue" d="M70.5547,-279.379C77.3501,-240.284 102.039,-130.057 170.774,-77.5 173.005,-75.7945 175.344,-74.2313 177.77,-72.7992"/>
<polygon fill="midnightblue" stroke="midnightblue" points="179.562,-75.8148 186.895,-68.1677 176.394,-69.5728 179.562,-75.8148"/>
</g>
<!-- Node30 -->
<g id="node30" class="node"><title>Node30</title>
<g id="a_node30"><a xlink:href="namespace_m_k_1_1_log.html#a370b710e345cbc5eb6c2a4f27aeb504f" target="_top" xlink:title="Logs a warning message that will appear also in release builds. ">
<polygon fill="white" stroke="black" points="225.24,-13.5 225.24,-31.5 319.057,-31.5 319.057,-13.5 225.24,-13.5"/>
<text text-anchor="middle" x="272.148" y="-19.5" font-family="Helvetica,sans-Serif" font-size="10.00">MK::Log::warning</text>
</a>
</g>
</g>
<!-- Node1&#45;&gt;Node30 -->
<g id="edge32" class="edge"><title>Node1&#45;&gt;Node30</title>
<path fill="none" stroke="midnightblue" d="M69.5093,-279.258C73.7478,-235.768 92.7807,-103.809 170.774,-40.5 183.178,-30.432 199.308,-25.2252 214.996,-22.7035"/>
<polygon fill="midnightblue" stroke="midnightblue" points="215.718,-26.14 225.199,-21.41 214.838,-19.1956 215.718,-26.14"/>
</g>
<!-- Node8 -->
<g id="node8" class="node"><title>Node8</title>
<g id="a_node8"><a xlink:href="namespace_m_k_1_1_device.html#a983d07fad256fb9e289b985cb4237efa" target="_top" xlink:title="Returns whether this device is running OS X or not. ">
<polygon fill="white" stroke="black" points="615.153,-109.5 615.153,-127.5 716.172,-127.5 716.172,-109.5 615.153,-109.5"/>
<text text-anchor="middle" x="665.663" y="-115.5" font-family="Helvetica,sans-Serif" font-size="10.00">MK::Device::isOSX</text>
</a>
</g>
</g>
<!-- Node7&#45;&gt;Node8 -->
<g id="edge7" class="edge"><title>Node7&#45;&gt;Node8</title>
<path fill="none" stroke="midnightblue" d="M531.027,-119.953C553.916,-119.705 581.179,-119.408 605.092,-119.148"/>
<polygon fill="midnightblue" stroke="midnightblue" points="605.152,-122.648 615.113,-119.039 605.076,-115.648 605.152,-122.648"/>
</g>
<!-- Node10 -->
<g id="node10" class="node"><title>Node10</title>
<g id="a_node10"><a xlink:href="namespace_m_k_1_1_k_v_database.html#a767b41659c2ee79a635285b4ae078aa7" target="_top" xlink:title="Returns long value associated with given key. ">
<polygon fill="white" stroke="black" points="586.039,-146.5 586.039,-174.5 745.286,-174.5 745.286,-146.5 586.039,-146.5"/>
<text text-anchor="start" x="594.039" y="-162.5" font-family="Helvetica,sans-Serif" font-size="10.00">MK::KVDatabase::getLongValue</text>
<text text-anchor="middle" x="665.663" y="-152.5" font-family="Helvetica,sans-Serif" font-size="10.00">ForKey</text>
</a>
</g>
</g>
<!-- Node7&#45;&gt;Node10 -->
<g id="edge9" class="edge"><title>Node7&#45;&gt;Node10</title>
<path fill="none" stroke="midnightblue" d="M522.506,-129.577C542.533,-133.933 567.146,-139.287 590.229,-144.308"/>
<polygon fill="midnightblue" stroke="midnightblue" points="589.495,-147.731 600.011,-146.436 590.983,-140.89 589.495,-147.731"/>
</g>
<!-- Node9 -->
<g id="node9" class="node"><title>Node9</title>
<g id="a_node9"><a xlink:href="namespace_m_k_1_1_device.html#a7c83a89bef610abaa7ada09d38c2f3fb" target="_top" xlink:title="Returns current platform. ">
<polygon fill="white" stroke="black" points="784.633,-109.5 784.633,-127.5 925.667,-127.5 925.667,-109.5 784.633,-109.5"/>
<text text-anchor="middle" x="855.15" y="-115.5" font-family="Helvetica,sans-Serif" font-size="10.00">MK::Device::currentPlatform</text>
</a>
</g>
</g>
<!-- Node8&#45;&gt;Node9 -->
<g id="edge8" class="edge"><title>Node8&#45;&gt;Node9</title>
<path fill="none" stroke="midnightblue" d="M716.414,-118.5C734.151,-118.5 754.606,-118.5 774.234,-118.5"/>
<polygon fill="midnightblue" stroke="midnightblue" points="774.404,-122 784.403,-118.5 774.403,-115 774.404,-122"/>
</g>
<!-- Node14 -->
<g id="node14" class="node"><title>Node14</title>
<g id="a_node14"><a xlink:href="namespace_m_k_1_1_analytics.html#a7bb95c80f3280eb2e484571354d8c61e" target="_top" xlink:title="Logs given event without additional attributes. ">
<polygon fill="white" stroke="black" points="419.259,-373.5 419.259,-391.5 540.303,-391.5 540.303,-373.5 419.259,-373.5"/>
<text text-anchor="middle" x="479.781" y="-379.5" font-family="Helvetica,sans-Serif" font-size="10.00">MK::Analytics::logEvent</text>
</a>
</g>
</g>
<!-- Node13&#45;&gt;Node14 -->
<g id="edge13" class="edge"><title>Node13&#45;&gt;Node14</title>
<path fill="none" stroke="midnightblue" d="M343.628,-382.5C364.709,-382.5 387.81,-382.5 408.856,-382.5"/>
<polygon fill="midnightblue" stroke="midnightblue" points="409.005,-386 419.005,-382.5 409.005,-379 409.005,-386"/>
</g>
<!-- Node15 -->
<g id="node15" class="node"><title>Node15</title>
<g id="a_node15"><a xlink:href="namespace_m_k_1_1_analytics.html#a06ed59ccf83270d8c89455e41efde314" target="_top" xlink:title="Returns whether Analytics logging in enbled or not. ">
<polygon fill="white" stroke="black" points="606.803,-354.5 606.803,-372.5 724.522,-372.5 724.522,-354.5 606.803,-354.5"/>
<text text-anchor="middle" x="665.663" y="-360.5" font-family="Helvetica,sans-Serif" font-size="10.00">MK::Analytics::enabled</text>
</a>
</g>
</g>
<!-- Node14&#45;&gt;Node15 -->
<g id="edge14" class="edge"><title>Node14&#45;&gt;Node15</title>
<path fill="none" stroke="midnightblue" d="M540.482,-376.331C558.355,-374.484 578.09,-372.445 596.466,-370.547"/>
<polygon fill="midnightblue" stroke="midnightblue" points="596.927,-374.018 606.515,-369.508 596.208,-367.055 596.927,-374.018"/>
</g>
<!-- Node16 -->
<g id="node16" class="node"><title>Node16</title>
<g id="a_node16"><a xlink:href="namespace_m_k_1_1_analytics.html#a215ed26bf5eec68b43c10f46736dcff5" target="_top" xlink:title="Logs given event without additional attributes. ">
<polygon fill="white" stroke="black" points="602.36,-391.5 602.36,-409.5 728.965,-409.5 728.965,-391.5 602.36,-391.5"/>
<text text-anchor="middle" x="665.663" y="-397.5" font-family="Helvetica,sans-Serif" font-size="10.00">MK::Analytics::_logEvent</text>
</a>
</g>
</g>
<!-- Node14&#45;&gt;Node16 -->
<g id="edge15" class="edge"><title>Node14&#45;&gt;Node16</title>
<path fill="none" stroke="midnightblue" d="M540.482,-388.344C556.963,-389.957 575.026,-391.726 592.147,-393.402"/>
<polygon fill="midnightblue" stroke="midnightblue" points="591.806,-396.885 602.1,-394.376 592.488,-389.918 591.806,-396.885"/>
</g>
<!-- Node18 -->
<g id="node18" class="node"><title>Node18</title>
<g id="a_node18"><a xlink:href="namespace_m_k_1_1_log.html#a6d2108eb7cc881d7303292faba6cec84" target="_top" xlink:title="Logs message with given format and additional data to Fabric&#39;s Crashlytics service. ">
<polygon fill="white" stroke="black" points="432.32,-247.5 432.32,-265.5 527.241,-265.5 527.241,-247.5 432.32,-247.5"/>
<text text-anchor="middle" x="479.781" y="-253.5" font-family="Helvetica,sans-Serif" font-size="10.00">MK::Log::toFabric</text>
</a>
</g>
</g>
<!-- Node17&#45;&gt;Node18 -->
<g id="edge17" class="edge"><title>Node17&#45;&gt;Node18</title>
<path fill="none" stroke="midnightblue" d="M338.777,-256.5C365.652,-256.5 396.445,-256.5 422.296,-256.5"/>
<polygon fill="midnightblue" stroke="midnightblue" points="422.309,-260 432.309,-256.5 422.309,-253 422.309,-260"/>
</g>
<!-- Node21 -->
<g id="node21" class="node"><title>Node21</title>
<g id="a_node21"><a xlink:href="_c_p_p_utils_8mm.html#a35815dc6b4ba20ddb20e4a27f0b82294" target="_top" xlink:title="Returns a NSString equivalent to given std::string. ">
<polygon fill="white" stroke="black" points="447.323,-210.5 447.323,-228.5 512.239,-228.5 512.239,-210.5 447.323,-210.5"/>
<text text-anchor="middle" x="479.781" y="-216.5" font-family="Helvetica,sans-Serif" font-size="10.00">to_nsstring</text>
</a>
</g>
</g>
<!-- Node20&#45;&gt;Node21 -->
<g id="edge21" class="edge"><title>Node20&#45;&gt;Node21</title>
<path fill="none" stroke="midnightblue" d="M303.934,-219.5C339.314,-219.5 397.562,-219.5 437.013,-219.5"/>
<polygon fill="midnightblue" stroke="midnightblue" points="437.108,-223 447.108,-219.5 437.108,-216 437.108,-223"/>
</g>
<!-- Node23&#45;&gt;Node7 -->
<g id="edge24" class="edge"><title>Node23&#45;&gt;Node7</title>
<path fill="none" stroke="midnightblue" d="M335.198,-68.5199C347.986,-70.9659 361.281,-73.945 373.522,-77.5 400.361,-85.2942 429.708,-97.6191 450.58,-107.079"/>
<polygon fill="midnightblue" stroke="midnightblue" points="449.267,-110.328 459.815,-111.329 452.194,-103.969 449.267,-110.328"/>
</g>
<!-- Node24 -->
<g id="node24" class="node"><title>Node24</title>
<g id="a_node24"><a xlink:href="namespace_m_k_1_1_game_kit.html#ad65cc8a24b47cbb094481c7d0e50d505" target="_top" xlink:title="On Android returns whether Google Play Games is available (true) or not. ">
<polygon fill="white" stroke="black" points="415.46,-57.5 415.46,-75.5 544.102,-75.5 544.102,-57.5 415.46,-57.5"/>
<text text-anchor="middle" x="479.781" y="-63.5" font-family="Helvetica,sans-Serif" font-size="10.00">MK::GameKit::isAvailable</text>
</a>
</g>
</g>
<!-- Node23&#45;&gt;Node24 -->
<g id="edge25" class="edge"><title>Node23&#45;&gt;Node24</title>
<path fill="none" stroke="midnightblue" d="M357.084,-62.3573C373.026,-62.9 389.595,-63.464 405.187,-63.9948"/>
<polygon fill="midnightblue" stroke="midnightblue" points="405.162,-67.4959 415.275,-64.3382 405.4,-60.4999 405.162,-67.4959"/>
</g>
<!-- Node29 -->
<g id="node29" class="node"><title>Node29</title>
<g id="a_node29"><a xlink:href="namespace_m_k_1_1_ad_kit.html#a3ec27cc7d527c70185740892a183e8cb" target="_top" xlink:title="MK::AdKit::Java_org\l_cocos2dx_cpp_AppActivity\l_callCppRewardCallback">
<polygon fill="white" stroke="black" points="409.522,-0.5 409.522,-38.5 550.039,-38.5 550.039,-0.5 409.522,-0.5"/>
<text text-anchor="start" x="417.522" y="-26.5" font-family="Helvetica,sans-Serif" font-size="10.00">MK::AdKit::Java_org</text>
<text text-anchor="start" x="417.522" y="-16.5" font-family="Helvetica,sans-Serif" font-size="10.00">_cocos2dx_cpp_AppActivity</text>
<text text-anchor="middle" x="479.781" y="-6.5" font-family="Helvetica,sans-Serif" font-size="10.00">_callCppRewardCallback</text>
</a>
</g>
</g>
<!-- Node23&#45;&gt;Node29 -->
<g id="edge31" class="edge"><title>Node23&#45;&gt;Node29</title>
<path fill="none" stroke="midnightblue" d="M321.413,-50.4635C337.944,-47.342 356.548,-43.7997 373.522,-40.5 381.962,-38.8595 390.778,-37.1282 399.561,-35.3921"/>
<polygon fill="midnightblue" stroke="midnightblue" points="400.312,-38.8114 409.441,-33.4346 398.952,-31.9448 400.312,-38.8114"/>
</g>
<!-- Node25 -->
<g id="node25" class="node"><title>Node25</title>
<g id="a_node25"><a xlink:href="namespace_m_k_1_1_game_kit.html#abb3b0052dac094d7e492bb0cbb1a1e8b" target="_top" xlink:title="MK::GameKit::Java_org\l_cocos2dx_cpp_AppActivity\l_callCppScoreCallback">
<polygon fill="white" stroke="black" points="595.404,-47.5 595.404,-85.5 735.921,-85.5 735.921,-47.5 595.404,-47.5"/>
<text text-anchor="start" x="603.404" y="-73.5" font-family="Helvetica,sans-Serif" font-size="10.00">MK::GameKit::Java_org</text>
<text text-anchor="start" x="603.404" y="-63.5" font-family="Helvetica,sans-Serif" font-size="10.00">_cocos2dx_cpp_AppActivity</text>
<text text-anchor="middle" x="665.663" y="-53.5" font-family="Helvetica,sans-Serif" font-size="10.00">_callCppScoreCallback</text>
</a>
</g>
</g>
<!-- Node24&#45;&gt;Node25 -->
<g id="edge26" class="edge"><title>Node24&#45;&gt;Node25</title>
<path fill="none" stroke="midnightblue" d="M544.32,-66.5C557.39,-66.5 571.31,-66.5 584.87,-66.5"/>
<polygon fill="midnightblue" stroke="midnightblue" points="585.15,-70.0001 595.15,-66.5 585.15,-63.0001 585.15,-70.0001"/>
</g>
<!-- Node26 -->
<g id="node26" class="node"><title>Node26</title>
<g id="a_node26"><a xlink:href="namespace_m_k_1_1_log.html#a3e84a309c158873fecff57e1db770c9a" target="_top" xlink:title="Logs a debug message that will not appear also in release builds. ">
<polygon fill="white" stroke="black" points="1152.08,-35.5 1152.08,-53.5 1238.69,-53.5 1238.69,-35.5 1152.08,-35.5"/>
<text text-anchor="middle" x="1195.39" y="-41.5" font-family="Helvetica,sans-Serif" font-size="10.00">MK::Log::debug</text>
</a>
</g>
</g>
<!-- Node25&#45;&gt;Node26 -->
<g id="edge27" class="edge"><title>Node25&#45;&gt;Node26</title>
<path fill="none" stroke="midnightblue" d="M735.914,-47.4749C750.771,-44.158 766.461,-41.2224 781.286,-39.5 910.153,-24.5274 1063.15,-33.2089 1141.84,-39.5933"/>
<polygon fill="midnightblue" stroke="midnightblue" points="1141.72,-43.0957 1151.98,-40.437 1142.3,-36.1198 1141.72,-43.0957"/>
</g>
<!-- Node27 -->
<g id="node27" class="node"><title>Node27</title>
<g id="a_node27"><a xlink:href="namespace_m_k_1_1_game_kit.html#a148ebf1481b3aa5094f533f07b62395c" target="_top" xlink:title="MK::GameKit::Java_org\l_cocos2dx_cpp_AppActivity\l_callCppFriendScoreCallback">
<polygon fill="white" stroke="black" points="781.286,-49.5 781.286,-87.5 929.015,-87.5 929.015,-49.5 781.286,-49.5"/>
<text text-anchor="start" x="789.286" y="-75.5" font-family="Helvetica,sans-Serif" font-size="10.00">MK::GameKit::Java_org</text>
<text text-anchor="start" x="789.286" y="-65.5" font-family="Helvetica,sans-Serif" font-size="10.00">_cocos2dx_cpp_AppActivity</text>
<text text-anchor="middle" x="855.15" y="-55.5" font-family="Helvetica,sans-Serif" font-size="10.00">_callCppFriendScoreCallback</text>
</a>
</g>
</g>
<!-- Node25&#45;&gt;Node27 -->
<g id="edge28" class="edge"><title>Node25&#45;&gt;Node27</title>
<path fill="none" stroke="midnightblue" d="M735.943,-67.239C747.319,-67.3604 759.212,-67.4873 770.885,-67.6118"/>
<polygon fill="midnightblue" stroke="midnightblue" points="771.031,-71.1134 781.068,-67.7204 771.106,-64.1138 771.031,-71.1134"/>
</g>
<!-- Node28 -->
<g id="node28" class="node"><title>Node28</title>
<g id="a_node28"><a xlink:href="namespace_m_k_1_1_game_kit.html#aeea3e0c832dd9d93302d16f38b76c64e" target="_top" xlink:title="MK::GameKit::Java_org\l_cocos2dx_cpp_AppActivity\l_callCppAchievementCallback">
<polygon fill="white" stroke="black" points="965.015,-49.5 965.015,-87.5 1116.08,-87.5 1116.08,-49.5 965.015,-49.5"/>
<text text-anchor="start" x="973.015" y="-75.5" font-family="Helvetica,sans-Serif" font-size="10.00">MK::GameKit::Java_org</text>
<text text-anchor="start" x="973.015" y="-65.5" font-family="Helvetica,sans-Serif" font-size="10.00">_cocos2dx_cpp_AppActivity</text>
<text text-anchor="middle" x="1040.55" y="-55.5" font-family="Helvetica,sans-Serif" font-size="10.00">_callCppAchievementCallback</text>
</a>
</g>
</g>
<!-- Node27&#45;&gt;Node28 -->
<g id="edge29" class="edge"><title>Node27&#45;&gt;Node28</title>
<path fill="none" stroke="midnightblue" d="M929.161,-68.5C937.633,-68.5 946.327,-68.5 954.938,-68.5"/>
<polygon fill="midnightblue" stroke="midnightblue" points="954.989,-72.0001 964.989,-68.5 954.989,-65.0001 954.989,-72.0001"/>
</g>
<!-- Node28&#45;&gt;Node26 -->
<g id="edge30" class="edge"><title>Node28&#45;&gt;Node26</title>
<path fill="none" stroke="midnightblue" d="M1116.18,-56.7812C1124.9,-55.4108 1133.66,-54.0355 1142,-52.7268"/>
<polygon fill="midnightblue" stroke="midnightblue" points="1142.58,-56.1774 1151.92,-51.1684 1141.5,-49.2621 1142.58,-56.1774"/>
</g>
</g>
</svg>
        <g id="navigator" transform="translate(0 0)" fill="#404254">
                <rect fill="#f2f5e9" fill-opacity="0.5" stroke="#606060" stroke-width=".5" x="0" y="0" width="60" height="60"/>
                <use id="zoomplus" xlink:href="#zoomPlus" x="17" y="9" onmousedown="handleZoom(evt,'in')"/>
                <use id="zoomminus" xlink:href="#zoomMin" x="42" y="9" onmousedown="handleZoom(evt,'out')"/>
                <use id="reset" xlink:href="#resetDef" x="30" y="36" onmousedown="handleReset()"/>
                <g id="arrowUp" xlink:href="#dirArrow" transform="translate(30 24)" onmousedown="handlePan(0,-1)">
                  <use xlink:href="#rim" fill="#404040">
                        <set attributeName="fill" to="#808080" begin="arrowUp.mouseover" end="arrowUp.mouseout"/>
                  </use>
                  <path fill="none" stroke="white" stroke-width="1.5" d="M0,-3.0v7 M-2.5,-0.5L0,-3.0L2.5,-0.5"/>
                </g>
                <g id="arrowRight" xlink:href="#dirArrow" transform="rotate(90) translate(36 -43)" onmousedown="handlePan(1,0)">
                  <use xlink:href="#rim" fill="#404040">
                        <set attributeName="fill" to="#808080" begin="arrowRight.mouseover" end="arrowRight.mouseout"/>
                  </use>
                  <path fill="none" stroke="white" stroke-width="1.5" d="M0,-3.0v7 M-2.5,-0.5L0,-3.0L2.5,-0.5"/>
                </g>
                <g id="arrowDown" xlink:href="#dirArrow" transform="rotate(180) translate(-30 -48)" onmousedown="handlePan(0,1)">
                  <use xlink:href="#rim" fill="#404040">
                        <set attributeName="fill" to="#808080" begin="arrowDown.mouseover" end="arrowDown.mouseout"/>
                  </use>
                  <path fill="none" stroke="white" stroke-width="1.5" d="M0,-3.0v7 M-2.5,-0.5L0,-3.0L2.5,-0.5"/>
                </g>
                <g id="arrowLeft" xlink:href="#dirArrow" transform="rotate(270) translate(-36 17)" onmousedown="handlePan(-1,0)">
                  <use xlink:href="#rim" fill="#404040">
                        <set attributeName="fill" to="#808080" begin="arrowLeft.mouseover" end="arrowLeft.mouseout"/>
                  </use>
                  <path fill="none" stroke="white" stroke-width="1.5" d="M0,-3.0v7 M-2.5,-0.5L0,-3.0L2.5,-0.5"/>
                </g>
        </g>
        <svg viewBox="0 0 15 15" width="100%" height="30px" preserveAspectRatio="xMaxYMin meet">
         <g id="arrow_out" transform="scale(0.3 0.3)">
          <a xlink:href="interface_reward_video_delegate_a0bfa3f23795d0ad8cedcb3c7601b9305_cgraph_org.svg" target="_base">
           <rect id="button" ry="5" rx="5" y="6" x="6" height="38" width="38"
                fill="#f2f5e9" fill-opacity="0.5" stroke="#606060" stroke-width="1.0"/>
           <path id="arrow"
             d="M 11.500037,31.436501 C 11.940474,20.09759 22.043105,11.32322 32.158766,21.979434 L 37.068811,17.246167 C 37.068811,17.246167 37.088388,32 37.088388,32 L 22.160133,31.978069 C 22.160133,31.978069 26.997745,27.140456 26.997745,27.140456 C 18.528582,18.264221 13.291696,25.230495 11.500037,31.436501 z"
             style="fill:#404040;"/>
          </a>
         </g>
        </svg>
</svg>
