<?xml version="1.0" encoding="UTF-8" standalone="no"?>
<!DOCTYPE svg PUBLIC "-//W3C//DTD SVG 1.1//EN"
 "http://www.w3.org/Graphics/SVG/1.1/DTD/svg11.dtd">
<!-- Generated by graphviz version 2.38.0 (20140413.2041)
 -->
<!-- Title: +[ReceiptValidator appReceiptIsValidForBundleID:andVersion:] Pages: 1 -->
<!--zoomable 138 -->
<svg id="main" version="1.1" xmlns="http://www.w3.org/2000/svg" xmlns:xlink="http://www.w3.org/1999/xlink" xml:space="preserve" onload="init(evt)">
<style type="text/css"><![CDATA[
.edge:hover path { stroke: red; }
.edge:hover polygon { stroke: red; fill: red; }
]]></style>
<script type="text/javascript"><![CDATA[
var edges = document.getElementsByTagName('g');
if (edges && edges.length) {
  for (var i=0;i<edges.length;i++) {
    if (edges[i].id.substr(0,4)=='edge') {
      edges[i].setAttribute('class','edge');
    }
  }
}
]]></script>
        <defs>
                <circle id="rim" cx="0" cy="0" r="7"/>
                <circle id="rim2" cx="0" cy="0" r="3.5"/>
                <g id="zoomPlus">
                        <use xlink:href="#rim" fill="#404040">
                                <set attributeName="fill" to="#808080" begin="zoomplus.mouseover" end="zoomplus.mouseout"/>
                        </use>
                        <path d="M-4,0h8M0,-4v8" fill="none" stroke="white" stroke-width="1.5" pointer-events="none"/>
                </g>
                <g id="zoomMin">
                        <use xlink:href="#rim" fill="#404040">
                                <set attributeName="fill" to="#808080" begin="zoomminus.mouseover" end="zoomminus.mouseout"/>
                        </use>
                        <path d="M-4,0h8" fill="none" stroke="white" stroke-width="1.5" pointer-events="none"/>
                </g>
                <g id="dirArrow">
                        <path fill="none" stroke="white" stroke-width="1.5" d="M0,-3.0v7 M-2.5,-0.5L0,-3.0L2.5,-0.5"/>
                </g>
               <g id="resetDef">
                       <use xlink:href="#rim2" fill="#404040">
                               <set attributeName="fill" to="#808080" begin="reset.mouseover" end="reset.mouseout"/>
                       </use>
               </g>
        </defs>

<script type="text/javascript">
var viewWidth = 659;
var viewHeight = 138;
var sectionId = 'dynsection-2';
</script>
<script xlink:href="svgpan.js"/>
<svg id="graph" class="graph">
<g id="viewport">
<title>+[ReceiptValidator appReceiptIsValidForBundleID:andVersion:]</title>
<polygon fill="white" stroke="none" points="-4,4 -4,-134 654.721,-134 654.721,4 -4,4"/>
<!-- Node1 -->
<g id="node1" class="node"><title>Node1</title>
<polygon fill="#bfbfbf" stroke="black" points="0,-77.5 0,-115.5 144.784,-115.5 144.784,-77.5 0,-77.5"/>
<text text-anchor="start" x="8" y="-103.5" font-family="Helvetica,sans-Serif" font-size="10.00">+[ReceiptValidator</text>
<text text-anchor="start" x="8" y="-93.5" font-family="Helvetica,sans-Serif" font-size="10.00"> appReceiptIsValidForBundle</text>
<text text-anchor="middle" x="72.3921" y="-83.5" font-family="Helvetica,sans-Serif" font-size="10.00">ID:andVersion:]</text>
</g>
<!-- Node2 -->
<g id="node2" class="node"><title>Node2</title>
<g id="a_node2"><a xlink:href="namespace_m_k_1_1_device.html#a983d07fad256fb9e289b985cb4237efa" target="_top" xlink:title="Returns whether this device is running OS X or not. ">
<polygon fill="white" stroke="black" points="372.667,-111.5 372.667,-129.5 473.687,-129.5 473.687,-111.5 372.667,-111.5"/>
<text text-anchor="middle" x="423.177" y="-117.5" font-family="Helvetica,sans-Serif" font-size="10.00">MK::Device::isOSX</text>
</a>
</g>
</g>
<!-- Node1&#45;&gt;Node2 -->
<g id="edge1" class="edge"><title>Node1&#45;&gt;Node2</title>
<path fill="none" stroke="midnightblue" d="M144.816,-101.415C208.966,-105.829 302.078,-112.236 362.383,-116.386"/>
<polygon fill="midnightblue" stroke="midnightblue" points="362.291,-119.887 372.508,-117.082 362.772,-112.904 362.291,-119.887"/>
</g>
<!-- Node4 -->
<g id="node4" class="node"><title>Node4</title>
<g id="a_node4"><a xlink:href="interface_receipt_validator.html#ab2df585c981dfc992ad4fe8fa09de347" target="_top" xlink:title="+[ReceiptValidator\l receiptAtURL:isValidForBundle\lID:andVersion:]">
<polygon fill="white" stroke="black" points="180.784,-53.5 180.784,-91.5 336.667,-91.5 336.667,-53.5 180.784,-53.5"/>
<text text-anchor="start" x="188.784" y="-79.5" font-family="Helvetica,sans-Serif" font-size="10.00">+[ReceiptValidator</text>
<text text-anchor="start" x="188.784" y="-69.5" font-family="Helvetica,sans-Serif" font-size="10.00"> receiptAtURL:isValidForBundle</text>
<text text-anchor="middle" x="258.726" y="-59.5" font-family="Helvetica,sans-Serif" font-size="10.00">ID:andVersion:]</text>
</a>
</g>
</g>
<!-- Node1&#45;&gt;Node4 -->
<g id="edge3" class="edge"><title>Node1&#45;&gt;Node4</title>
<path fill="none" stroke="midnightblue" d="M144.924,-87.1866C153.362,-86.0881 162.043,-84.9578 170.664,-83.8354"/>
<polygon fill="midnightblue" stroke="midnightblue" points="171.274,-87.2855 180.738,-82.5236 170.37,-80.3441 171.274,-87.2855"/>
</g>
<!-- Node3 -->
<g id="node3" class="node"><title>Node3</title>
<g id="a_node3"><a xlink:href="namespace_m_k_1_1_device.html#a7c83a89bef610abaa7ada09d38c2f3fb" target="_top" xlink:title="Returns current platform. ">
<polygon fill="white" stroke="black" points="509.687,-111.5 509.687,-129.5 650.721,-129.5 650.721,-111.5 509.687,-111.5"/>
<text text-anchor="middle" x="580.204" y="-117.5" font-family="Helvetica,sans-Serif" font-size="10.00">MK::Device::currentPlatform</text>
</a>
</g>
</g>
<!-- Node2&#45;&gt;Node3 -->
<g id="edge2" class="edge"><title>Node2&#45;&gt;Node3</title>
<path fill="none" stroke="midnightblue" d="M474.082,-120.5C482.225,-120.5 490.836,-120.5 499.483,-120.5"/>
<polygon fill="midnightblue" stroke="midnightblue" points="499.626,-124 509.626,-120.5 499.626,-117 499.626,-124"/>
</g>
<!-- Node4&#45;&gt;Node2 -->
<g id="edge4" class="edge"><title>Node4&#45;&gt;Node2</title>
<path fill="none" stroke="midnightblue" d="M324.397,-91.6088C343.776,-97.3347 364.468,-103.449 381.803,-108.571"/>
<polygon fill="midnightblue" stroke="midnightblue" points="381.005,-111.984 391.587,-111.461 382.988,-105.271 381.005,-111.984"/>
</g>
<!-- Node5 -->
<g id="node5" class="node"><title>Node5</title>
<g id="a_node5"><a xlink:href="namespace_m_k_1_1_device.html#a7f05d5d0e1b292c8fd29bdea674fcfe3" target="_top" xlink:title="Returns UUID of this device. ">
<polygon fill="white" stroke="black" points="374.615,-74.5 374.615,-92.5 471.738,-92.5 471.738,-74.5 374.615,-74.5"/>
<text text-anchor="middle" x="423.177" y="-80.5" font-family="Helvetica,sans-Serif" font-size="10.00">MK::Device::UUID</text>
</a>
</g>
</g>
<!-- Node4&#45;&gt;Node5 -->
<g id="edge5" class="edge"><title>Node4&#45;&gt;Node5</title>
<path fill="none" stroke="midnightblue" d="M336.67,-77.7101C345.865,-78.3327 355.133,-78.9603 364.002,-79.5609"/>
<polygon fill="midnightblue" stroke="midnightblue" points="363.988,-83.0678 374.202,-80.2515 364.461,-76.0838 363.988,-83.0678"/>
</g>
<!-- Node6 -->
<g id="node6" class="node"><title>Node6</title>
<g id="a_node6"><a xlink:href="_c_p_p_utils_8h.html#a35815dc6b4ba20ddb20e4a27f0b82294" target="_top" xlink:title="Returns a NSString equivalent to given std::string. ">
<polygon fill="white" stroke="black" points="390.719,-37.5 390.719,-55.5 455.635,-55.5 455.635,-37.5 390.719,-37.5"/>
<text text-anchor="middle" x="423.177" y="-43.5" font-family="Helvetica,sans-Serif" font-size="10.00">to_nsstring</text>
</a>
</g>
</g>
<!-- Node4&#45;&gt;Node6 -->
<g id="edge6" class="edge"><title>Node4&#45;&gt;Node6</title>
<path fill="none" stroke="midnightblue" d="M336.67,-60.1853C351.682,-57.7825 366.891,-55.3484 380.236,-53.2126"/>
<polygon fill="midnightblue" stroke="midnightblue" points="381.178,-56.6064 390.499,-51.57 380.072,-49.6944 381.178,-56.6064"/>
</g>
<!-- Node7 -->
<g id="node7" class="node"><title>Node7</title>
<g id="a_node7"><a xlink:href="_c_p_p_utils_8h.html#a454603a4e70231351c60f4c95b2107d1" target="_top" xlink:title="Returns NSData with bytes represented by given hexadecimal NSString. ">
<polygon fill="white" stroke="black" points="383.497,-0.5 383.497,-18.5 462.856,-18.5 462.856,-0.5 383.497,-0.5"/>
<text text-anchor="middle" x="423.177" y="-6.5" font-family="Helvetica,sans-Serif" font-size="10.00">HexToNSData</text>
</a>
</g>
</g>
<!-- Node4&#45;&gt;Node7 -->
<g id="edge7" class="edge"><title>Node4&#45;&gt;Node7</title>
<path fill="none" stroke="midnightblue" d="M306.583,-53.4599C326.849,-45.3211 350.871,-35.8019 372.667,-27.5 377.459,-25.6749 382.526,-23.7859 387.518,-21.9485"/>
<polygon fill="midnightblue" stroke="midnightblue" points="388.743,-25.2277 396.935,-18.5092 386.341,-18.6525 388.743,-25.2277"/>
</g>
<!-- Node8 -->
<g id="node8" class="node"><title>Node8</title>
<g id="a_node8"><a xlink:href="namespace_m_k_1_1_a_b_database.html#afd3d3523193c664c29f23e4235e13c8d" target="_top" xlink:title="Initializes A/B database and calls given callback if this is the first time database has been initial...">
<polygon fill="white" stroke="black" points="524.682,-0.5 524.682,-18.5 635.726,-18.5 635.726,-0.5 524.682,-0.5"/>
<text text-anchor="middle" x="580.204" y="-6.5" font-family="Helvetica,sans-Serif" font-size="10.00">MK::ABDatabase::init</text>
</a>
</g>
</g>
<!-- Node7&#45;&gt;Node8 -->
<g id="edge8" class="edge"><title>Node7&#45;&gt;Node8</title>
<path fill="none" stroke="midnightblue" d="M462.897,-9.5C478.49,-9.5 496.906,-9.5 514.429,-9.5"/>
<polygon fill="midnightblue" stroke="midnightblue" points="514.615,-13.0001 524.615,-9.5 514.615,-6.0001 514.615,-13.0001"/>
</g>
</g>
</svg>
        <g id="navigator" transform="translate(0 0)" fill="#404254">
                <rect fill="#f2f5e9" fill-opacity="0.5" stroke="#606060" stroke-width=".5" x="0" y="0" width="60" height="60"/>
                <use id="zoomplus" xlink:href="#zoomPlus" x="17" y="9" onmousedown="handleZoom(evt,'in')"/>
                <use id="zoomminus" xlink:href="#zoomMin" x="42" y="9" onmousedown="handleZoom(evt,'out')"/>
                <use id="reset" xlink:href="#resetDef" x="30" y="36" onmousedown="handleReset()"/>
                <g id="arrowUp" xlink:href="#dirArrow" transform="translate(30 24)" onmousedown="handlePan(0,-1)">
                  <use xlink:href="#rim" fill="#404040">
                        <set attributeName="fill" to="#808080" begin="arrowUp.mouseover" end="arrowUp.mouseout"/>
                  </use>
                  <path fill="none" stroke="white" stroke-width="1.5" d="M0,-3.0v7 M-2.5,-0.5L0,-3.0L2.5,-0.5"/>
                </g>
                <g id="arrowRight" xlink:href="#dirArrow" transform="rotate(90) translate(36 -43)" onmousedown="handlePan(1,0)">
                  <use xlink:href="#rim" fill="#404040">
                        <set attributeName="fill" to="#808080" begin="arrowRight.mouseover" end="arrowRight.mouseout"/>
                  </use>
                  <path fill="none" stroke="white" stroke-width="1.5" d="M0,-3.0v7 M-2.5,-0.5L0,-3.0L2.5,-0.5"/>
                </g>
                <g id="arrowDown" xlink:href="#dirArrow" transform="rotate(180) translate(-30 -48)" onmousedown="handlePan(0,1)">
                  <use xlink:href="#rim" fill="#404040">
                        <set attributeName="fill" to="#808080" begin="arrowDown.mouseover" end="arrowDown.mouseout"/>
                  </use>
                  <path fill="none" stroke="white" stroke-width="1.5" d="M0,-3.0v7 M-2.5,-0.5L0,-3.0L2.5,-0.5"/>
                </g>
                <g id="arrowLeft" xlink:href="#dirArrow" transform="rotate(270) translate(-36 17)" onmousedown="handlePan(-1,0)">
                  <use xlink:href="#rim" fill="#404040">
                        <set attributeName="fill" to="#808080" begin="arrowLeft.mouseover" end="arrowLeft.mouseout"/>
                  </use>
                  <path fill="none" stroke="white" stroke-width="1.5" d="M0,-3.0v7 M-2.5,-0.5L0,-3.0L2.5,-0.5"/>
                </g>
        </g>
        <svg viewBox="0 0 15 15" width="100%" height="30px" preserveAspectRatio="xMaxYMin meet">
         <g id="arrow_out" transform="scale(0.3 0.3)">
          <a xlink:href="interface_receipt_validator_a820c68148ab2fedccc43588f8d79dea6_cgraph_org.svg" target="_base">
           <rect id="button" ry="5" rx="5" y="6" x="6" height="38" width="38"
                fill="#f2f5e9" fill-opacity="0.5" stroke="#606060" stroke-width="1.0"/>
           <path id="arrow"
             d="M 11.500037,31.436501 C 11.940474,20.09759 22.043105,11.32322 32.158766,21.979434 L 37.068811,17.246167 C 37.068811,17.246167 37.088388,32 37.088388,32 L 22.160133,31.978069 C 22.160133,31.978069 26.997745,27.140456 26.997745,27.140456 C 18.528582,18.264221 13.291696,25.230495 11.500037,31.436501 z"
             style="fill:#404040;"/>
          </a>
         </g>
        </svg>
</svg>
