<?xml version="1.0" encoding="UTF-8" standalone="no"?>
<!DOCTYPE svg PUBLIC "-//W3C//DTD SVG 1.1//EN"
 "http://www.w3.org/Graphics/SVG/1.1/DTD/svg11.dtd">
<!-- Generated by graphviz version 2.38.0 (20140413.2041)
 -->
<!-- Title: &#45;[RewardVideoDelegate requestNewRewardVideo] Pages: 1 -->
<svg width="334pt" height="55pt"
 viewBox="0.00 0.00 333.72 55.00" xmlns="http://www.w3.org/2000/svg" xmlns:xlink="http://www.w3.org/1999/xlink">
<g id="graph0" class="graph" transform="scale(1 1) rotate(0) translate(4 51)">
<title>&#45;[RewardVideoDelegate requestNewRewardVideo]</title>
<polygon fill="white" stroke="none" points="-4,4 -4,-51 329.72,-51 329.72,4 -4,4"/>
<!-- Node1 -->
<g id="node1" class="node"><title>Node1</title>
<polygon fill="#bfbfbf" stroke="black" points="0,-0.5 0,-28.5 134.774,-28.5 134.774,-0.5 0,-0.5"/>
<text text-anchor="start" x="8" y="-16.5" font-family="Helvetica,sans-Serif" font-size="10.00">&#45;[RewardVideoDelegate</text>
<text text-anchor="middle" x="67.3872" y="-6.5" font-family="Helvetica,sans-Serif" font-size="10.00"> requestNewRewardVideo]</text>
</g>
<!-- Node1&#45;&gt;Node1 -->
<g id="edge2" class="edge"><title>Node1&#45;&gt;Node1</title>
<path fill="none" stroke="midnightblue" d="M34.8486,-38.4873C38.3037,-43.4413 49.1499,-47 67.3872,-47 96.5669,-47 106.825,-37.8898 98.1627,-28.5305"/>
<polygon fill="midnightblue" stroke="midnightblue" points="38.3144,-38.9876 36.6118,-28.5305 31.4216,-37.767 38.3144,-38.9876"/>
</g>
<!-- Node2 -->
<g id="node2" class="node"><title>Node2</title>
<g id="a_node2"><a xlink:href="interface_reward_video_delegate.html#a5d8713e80adf05ec03e68072d573ad06" target="_top" xlink:title="&#45;[RewardVideoDelegate\l initWithAdUnitID:andCallback:]">
<polygon fill="white" stroke="black" points="170.774,-0.5 170.774,-28.5 325.72,-28.5 325.72,-0.5 170.774,-0.5"/>
<text text-anchor="start" x="178.774" y="-16.5" font-family="Helvetica,sans-Serif" font-size="10.00">&#45;[RewardVideoDelegate</text>
<text text-anchor="middle" x="248.247" y="-6.5" font-family="Helvetica,sans-Serif" font-size="10.00"> initWithAdUnitID:andCallback:]</text>
</a>
</g>
</g>
<!-- Node1&#45;&gt;Node2 -->
<g id="edge1" class="edge"><title>Node1&#45;&gt;Node2</title>
<path fill="none" stroke="midnightblue" d="M145.183,-14.5C153.62,-14.5 162.21,-14.5 170.644,-14.5"/>
<polygon fill="midnightblue" stroke="midnightblue" points="144.988,-11.0001 134.988,-14.5 144.988,-18.0001 144.988,-11.0001"/>
</g>
</g>
</svg>
