<?xml version="1.0" encoding="UTF-8" standalone="no"?>
<!DOCTYPE svg PUBLIC "-//W3C//DTD SVG 1.1//EN"
 "http://www.w3.org/Graphics/SVG/1.1/DTD/svg11.dtd">
<!-- Generated by graphviz version 2.38.0 (20140413.2041)
 -->
<!-- Title: &#45;[StoreManager buyProductWithIdentifier:callingOnEnd:] Pages: 1 -->
<svg width="328pt" height="74pt"
 viewBox="0.00 0.00 327.78 74.00" xmlns="http://www.w3.org/2000/svg" xmlns:xlink="http://www.w3.org/1999/xlink">
<g id="graph0" class="graph" transform="scale(1 1) rotate(0) translate(4 70)">
<title>&#45;[StoreManager buyProductWithIdentifier:callingOnEnd:]</title>
<polygon fill="white" stroke="none" points="-4,4 -4,-70 323.782,-70 323.782,4 -4,4"/>
<!-- Node1 -->
<g id="node1" class="node"><title>Node1</title>
<polygon fill="#bfbfbf" stroke="black" points="0,-21.5 0,-49.5 142.172,-49.5 142.172,-21.5 0,-21.5"/>
<text text-anchor="start" x="8" y="-37.5" font-family="Helvetica,sans-Serif" font-size="10.00">&#45;[StoreManager buyProduct</text>
<text text-anchor="middle" x="71.0859" y="-27.5" font-family="Helvetica,sans-Serif" font-size="10.00">WithIdentifier:callingOnEnd:]</text>
</g>
<!-- Node2 -->
<g id="node2" class="node"><title>Node2</title>
<g id="a_node2"><a xlink:href="namespace_m_k_1_1_log.html#a3e84a309c158873fecff57e1db770c9a" target="_top" xlink:title="Logs a debug message that will not appear also in release builds. ">
<polygon fill="white" stroke="black" points="205.674,-47.5 205.674,-65.5 292.28,-65.5 292.28,-47.5 205.674,-47.5"/>
<text text-anchor="middle" x="248.977" y="-53.5" font-family="Helvetica,sans-Serif" font-size="10.00">MK::Log::debug</text>
</a>
</g>
</g>
<!-- Node1&#45;&gt;Node2 -->
<g id="edge1" class="edge"><title>Node1&#45;&gt;Node2</title>
<path fill="none" stroke="midnightblue" d="M142.361,-43.8903C160.111,-46.0095 178.863,-48.2484 195.561,-50.2419"/>
<polygon fill="midnightblue" stroke="midnightblue" points="195.32,-53.738 205.665,-51.4483 196.15,-46.7874 195.32,-53.738"/>
</g>
<!-- Node3 -->
<g id="node3" class="node"><title>Node3</title>
<g id="a_node3"><a xlink:href="interface_store_manager.html#a9217556712f18f66db1eb4c1a66618f1" target="_top" xlink:title="Returns product with given identifier. ">
<polygon fill="white" stroke="black" points="178.172,-0.5 178.172,-28.5 319.782,-28.5 319.782,-0.5 178.172,-0.5"/>
<text text-anchor="start" x="186.172" y="-16.5" font-family="Helvetica,sans-Serif" font-size="10.00">&#45;[StoreManager productWith</text>
<text text-anchor="middle" x="248.977" y="-6.5" font-family="Helvetica,sans-Serif" font-size="10.00">Identifier:]</text>
</a>
</g>
</g>
<!-- Node1&#45;&gt;Node3 -->
<g id="edge2" class="edge"><title>Node1&#45;&gt;Node3</title>
<path fill="none" stroke="midnightblue" d="M142.361,-27.1097C150.821,-26.0997 159.508,-25.0626 168.091,-24.0377"/>
<polygon fill="midnightblue" stroke="midnightblue" points="168.586,-27.5036 178.1,-22.8427 167.756,-20.553 168.586,-27.5036"/>
</g>
</g>
</svg>
