<?xml version="1.0" encoding="UTF-8" standalone="no"?>
<!DOCTYPE svg PUBLIC "-//W3C//DTD SVG 1.1//EN"
 "http://www.w3.org/Graphics/SVG/1.1/DTD/svg11.dtd">
<!-- Generated by graphviz version 2.38.0 (20140413.2041)
 -->
<!-- Title: &#45;[RewardVideoDelegate initWithAdUnitID:andCallback:] Pages: 1 -->
<svg width="1438pt" height="577pt"
 viewBox="0.00 0.00 1437.63 577.00" xmlns="http://www.w3.org/2000/svg" xmlns:xlink="http://www.w3.org/1999/xlink">
<g id="graph0" class="graph" transform="scale(1 1) rotate(0) translate(4 573)">
<title>&#45;[RewardVideoDelegate initWithAdUnitID:andCallback:]</title>
<polygon fill="white" stroke="none" points="-4,4 -4,-573 1433.63,-573 1433.63,4 -4,4"/>
<!-- Node1 -->
<g id="node1" class="node"><title>Node1</title>
<polygon fill="#bfbfbf" stroke="black" points="0,-261.5 0,-289.5 154.945,-289.5 154.945,-261.5 0,-261.5"/>
<text text-anchor="start" x="8" y="-277.5" font-family="Helvetica,sans-Serif" font-size="10.00">&#45;[RewardVideoDelegate</text>
<text text-anchor="middle" x="77.4727" y="-267.5" font-family="Helvetica,sans-Serif" font-size="10.00"> initWithAdUnitID:andCallback:]</text>
</g>
<!-- Node2 -->
<g id="node2" class="node"><title>Node2</title>
<g id="a_node2"><a xlink:href="interface_reward_video_delegate.html#a0bfa3f23795d0ad8cedcb3c7601b9305" target="_top" xlink:title="&#45;[RewardVideoDelegate\l requestNewRewardVideo]">
<polygon fill="white" stroke="black" points="190.945,-261.5 190.945,-289.5 325.72,-289.5 325.72,-261.5 190.945,-261.5"/>
<text text-anchor="start" x="198.945" y="-277.5" font-family="Helvetica,sans-Serif" font-size="10.00">&#45;[RewardVideoDelegate</text>
<text text-anchor="middle" x="258.333" y="-267.5" font-family="Helvetica,sans-Serif" font-size="10.00"> requestNewRewardVideo]</text>
</a>
</g>
</g>
<!-- Node1&#45;&gt;Node2 -->
<g id="edge1" class="edge"><title>Node1&#45;&gt;Node2</title>
<path fill="none" stroke="midnightblue" d="M155.104,-275.5C163.53,-275.5 172.11,-275.5 180.538,-275.5"/>
<polygon fill="midnightblue" stroke="midnightblue" points="180.722,-279 190.722,-275.5 180.722,-272 180.722,-279"/>
</g>
<!-- Node2&#45;&gt;Node2 -->
<g id="edge2" class="edge"><title>Node2&#45;&gt;Node2</title>
<path fill="none" stroke="midnightblue" d="M227.557,-289.53C218.894,-298.89 229.153,-308 258.333,-308 276.57,-308 287.416,-304.441 290.871,-299.487"/>
<polygon fill="midnightblue" stroke="midnightblue" points="294.298,-298.767 289.108,-289.53 287.405,-299.988 294.298,-298.767"/>
</g>
<!-- Node3 -->
<g id="node3" class="node"><title>Node3</title>
<g id="a_node3"><a xlink:href="namespace_m_k_1_1_ad_kit.html#a39e1599ce157acc2dcbcd8747f870a2b" target="_top" xlink:title="Performs any initialization required by the ads adapter. ">
<polygon fill="white" stroke="black" points="420.914,-550.5 420.914,-568.5 505.273,-568.5 505.273,-550.5 420.914,-550.5"/>
<text text-anchor="middle" x="463.094" y="-556.5" font-family="Helvetica,sans-Serif" font-size="10.00">MK::AdKit::_init</text>
</a>
</g>
</g>
<!-- Node2&#45;&gt;Node3 -->
<g id="edge3" class="edge"><title>Node2&#45;&gt;Node3</title>
<path fill="none" stroke="midnightblue" d="M260.15,-289.812C263.541,-334.805 280.458,-474.376 361.72,-541.5 375.171,-552.611 393.14,-557.835 410.156,-560.058"/>
<polygon fill="midnightblue" stroke="midnightblue" points="410.284,-563.587 420.578,-561.08 410.967,-556.621 410.284,-563.587"/>
</g>
<!-- Node4 -->
<g id="node4" class="node"><title>Node4</title>
<g id="a_node4"><a xlink:href="_c_p_p_utils_8h.html#a86a3c923fc6c24186808cb0ace126710" target="_top" xlink:title="Returns a NSArray equivalent to given std::vector of strings. ">
<polygon fill="white" stroke="black" points="431.471,-513.5 431.471,-531.5 494.717,-531.5 494.717,-513.5 431.471,-513.5"/>
<text text-anchor="middle" x="463.094" y="-519.5" font-family="Helvetica,sans-Serif" font-size="10.00">to_nsarray</text>
</a>
</g>
</g>
<!-- Node2&#45;&gt;Node4 -->
<g id="edge4" class="edge"><title>Node2&#45;&gt;Node4</title>
<path fill="none" stroke="midnightblue" d="M261.085,-289.566C266.937,-330.151 289.69,-448.146 361.72,-504.5 378.462,-517.599 401.58,-522.37 421.41,-523.744"/>
<polygon fill="midnightblue" stroke="midnightblue" points="421.286,-527.241 431.428,-524.178 421.59,-520.248 421.286,-527.241"/>
</g>
<!-- Node6 -->
<g id="node6" class="node"><title>Node6</title>
<g id="a_node6"><a xlink:href="_c_p_p_utils_8h.html#a35815dc6b4ba20ddb20e4a27f0b82294" target="_top" xlink:title="Returns a NSString equivalent to given std::string. ">
<polygon fill="white" stroke="black" points="430.636,-476.5 430.636,-494.5 495.552,-494.5 495.552,-476.5 430.636,-476.5"/>
<text text-anchor="middle" x="463.094" y="-482.5" font-family="Helvetica,sans-Serif" font-size="10.00">to_nsstring</text>
</a>
</g>
</g>
<!-- Node2&#45;&gt;Node6 -->
<g id="edge6" class="edge"><title>Node2&#45;&gt;Node6</title>
<path fill="none" stroke="midnightblue" d="M262.386,-289.633C270.98,-325.755 298.954,-421.816 361.72,-467.5 378.464,-479.687 400.863,-484.495 420.254,-486.123"/>
<polygon fill="midnightblue" stroke="midnightblue" points="420.179,-489.624 430.367,-486.716 420.589,-482.636 420.179,-489.624"/>
</g>
<!-- Node7 -->
<g id="node7" class="node"><title>Node7</title>
<g id="a_node7"><a xlink:href="interface_banner_view_delegate.html#a51cc9a48ca1271ea549de3cec7aae936" target="_top" xlink:title="+[BannerViewDelegate\l GADAdSizeForMKBannerSize:]">
<polygon fill="white" stroke="black" points="383.399,-429.5 383.399,-457.5 542.788,-457.5 542.788,-429.5 383.399,-429.5"/>
<text text-anchor="start" x="391.399" y="-445.5" font-family="Helvetica,sans-Serif" font-size="10.00">+[BannerViewDelegate</text>
<text text-anchor="middle" x="463.094" y="-435.5" font-family="Helvetica,sans-Serif" font-size="10.00"> GADAdSizeForMKBannerSize:]</text>
</a>
</g>
</g>
<!-- Node2&#45;&gt;Node7 -->
<g id="edge7" class="edge"><title>Node2&#45;&gt;Node7</title>
<path fill="none" stroke="midnightblue" d="M265.106,-289.668C277.845,-319.051 311.295,-386.693 361.72,-420.5 365.54,-423.061 369.606,-425.34 373.83,-427.367"/>
<polygon fill="midnightblue" stroke="midnightblue" points="372.724,-430.701 383.295,-431.415 375.477,-424.265 372.724,-430.701"/>
</g>
<!-- Node8 -->
<g id="node8" class="node"><title>Node8</title>
<g id="a_node8"><a xlink:href="interface_g_a_d_m_adapter_ad_colony_initializer.html#a3471826bd99c32de69ccbe369eb12d4b" target="_top" xlink:title="+[GADMAdapterAdColonyInitializer\l startWithAppID:andZones:andCustomID:]">
<polygon fill="white" stroke="black" points="361.72,-382.5 361.72,-410.5 564.468,-410.5 564.468,-382.5 361.72,-382.5"/>
<text text-anchor="start" x="369.72" y="-398.5" font-family="Helvetica,sans-Serif" font-size="10.00">+[GADMAdapterAdColonyInitializer</text>
<text text-anchor="middle" x="463.094" y="-388.5" font-family="Helvetica,sans-Serif" font-size="10.00"> startWithAppID:andZones:andCustomID:]</text>
</a>
</g>
</g>
<!-- Node2&#45;&gt;Node8 -->
<g id="edge8" class="edge"><title>Node2&#45;&gt;Node8</title>
<path fill="none" stroke="midnightblue" d="M269.892,-289.65C286.794,-311.237 322.083,-352.135 361.72,-373.5 365.248,-375.402 368.929,-377.147 372.707,-378.749"/>
<polygon fill="midnightblue" stroke="midnightblue" points="371.682,-382.105 382.272,-382.44 374.203,-375.574 371.682,-382.105"/>
</g>
<!-- Node9 -->
<g id="node9" class="node"><title>Node9</title>
<g id="a_node9"><a xlink:href="namespace_m_k_1_1_ad_kit.html#ae4fe5a11d697083b53f50d9abcc3286e" target="_top" xlink:title="Shows an interstitial ad. ">
<polygon fill="white" stroke="black" points="394.237,-345.5 394.237,-363.5 531.951,-363.5 531.951,-345.5 394.237,-345.5"/>
<text text-anchor="middle" x="463.094" y="-351.5" font-family="Helvetica,sans-Serif" font-size="10.00">MK::AdKit::_showInterstitial</text>
</a>
</g>
</g>
<!-- Node2&#45;&gt;Node9 -->
<g id="edge9" class="edge"><title>Node2&#45;&gt;Node9</title>
<path fill="none" stroke="midnightblue" d="M278.274,-289.652C298.061,-303.724 330.512,-324.847 361.72,-336.5 368.892,-339.178 376.505,-341.465 384.205,-343.416"/>
<polygon fill="midnightblue" stroke="midnightblue" points="383.443,-346.833 393.979,-345.713 385.045,-340.018 383.443,-346.833"/>
</g>
<!-- Node10 -->
<g id="node10" class="node"><title>Node10</title>
<g id="a_node10"><a xlink:href="namespace_m_k_1_1_ad_kit.html#a89f8e4bc4d9c7d6b75f3d785ef1d3dab" target="_top" xlink:title="Shows a video reward ad. ">
<polygon fill="white" stroke="black" points="385.704,-308.5 385.704,-326.5 540.483,-326.5 540.483,-308.5 385.704,-308.5"/>
<text text-anchor="middle" x="463.094" y="-314.5" font-family="Helvetica,sans-Serif" font-size="10.00">MK::AdKit::_showVideoReward</text>
</a>
</g>
</g>
<!-- Node2&#45;&gt;Node10 -->
<g id="edge10" class="edge"><title>Node2&#45;&gt;Node10</title>
<path fill="none" stroke="midnightblue" d="M316.884,-289.553C331.477,-292.961 347.148,-296.488 361.72,-299.5 373.639,-301.964 386.396,-304.403 398.68,-306.652"/>
<polygon fill="midnightblue" stroke="midnightblue" points="398.396,-310.157 408.859,-308.493 399.642,-303.269 398.396,-310.157"/>
</g>
<!-- Node11 -->
<g id="node11" class="node"><title>Node11</title>
<g id="a_node11"><a xlink:href="namespace_m_k_1_1_analytics.html#a45074f520084ef7dadcf189155705026" target="_top" xlink:title="Logs that app tried to display a video reward ad that was not ready yet. ">
<polygon fill="white" stroke="black" points="391.732,-261.5 391.732,-289.5 534.456,-289.5 534.456,-261.5 391.732,-261.5"/>
<text text-anchor="start" x="399.732" y="-277.5" font-family="Helvetica,sans-Serif" font-size="10.00">MK::Analytics::logNonReady</text>
<text text-anchor="middle" x="463.094" y="-267.5" font-family="Helvetica,sans-Serif" font-size="10.00">VideoRewardDisplay</text>
</a>
</g>
</g>
<!-- Node2&#45;&gt;Node11 -->
<g id="edge11" class="edge"><title>Node2&#45;&gt;Node11</title>
<path fill="none" stroke="midnightblue" d="M325.724,-275.5C343.557,-275.5 363.037,-275.5 381.548,-275.5"/>
<polygon fill="midnightblue" stroke="midnightblue" points="381.716,-279 391.716,-275.5 381.716,-272 381.716,-279"/>
</g>
<!-- Node15 -->
<g id="node15" class="node"><title>Node15</title>
<g id="a_node15"><a xlink:href="namespace_m_k_1_1_ad_kit.html#a6bca88e69dd5dc1616d521b88eb953cc" target="_top" xlink:title="Returns whether this user has video rewards available or not. ">
<polygon fill="white" stroke="black" points="378.202,-185.5 378.202,-203.5 547.986,-203.5 547.986,-185.5 378.202,-185.5"/>
<text text-anchor="middle" x="463.094" y="-191.5" font-family="Helvetica,sans-Serif" font-size="10.00">MK::AdKit::videoRewardsAvailable</text>
</a>
</g>
</g>
<!-- Node2&#45;&gt;Node15 -->
<g id="edge15" class="edge"><title>Node2&#45;&gt;Node15</title>
<path fill="none" stroke="midnightblue" d="M280.458,-261.474C300.595,-248.663 332.145,-230.016 361.72,-218.5 374.685,-213.451 389.02,-209.257 402.7,-205.864"/>
<polygon fill="midnightblue" stroke="midnightblue" points="403.596,-209.249 412.518,-203.534 401.98,-202.438 403.596,-209.249"/>
</g>
<!-- Node16 -->
<g id="node16" class="node"><title>Node16</title>
<g id="a_node16"><a xlink:href="namespace_m_k_1_1_ad_kit.html#a1abd645a384f31dc1421e82772cfb472" target="_top" xlink:title="Returns whether ads are enabled for this user or not. ">
<polygon fill="white" stroke="black" points="619.923,-223.5 619.923,-241.5 721.529,-241.5 721.529,-223.5 619.923,-223.5"/>
<text text-anchor="middle" x="670.726" y="-229.5" font-family="Helvetica,sans-Serif" font-size="10.00">MK::AdKit::enabled</text>
</a>
</g>
</g>
<!-- Node2&#45;&gt;Node16 -->
<g id="edge27" class="edge"><title>Node2&#45;&gt;Node16</title>
<path fill="none" stroke="midnightblue" d="M314.302,-261.495C329.568,-258.059 346.212,-254.731 361.72,-252.5 447.384,-240.174 547.553,-235.44 609.828,-233.625"/>
<polygon fill="midnightblue" stroke="midnightblue" points="609.967,-237.123 619.867,-233.348 609.774,-230.125 609.967,-237.123"/>
</g>
<!-- Node26 -->
<g id="node26" class="node"><title>Node26</title>
<g id="a_node26"><a xlink:href="namespace_m_k_1_1_device.html#ae25a42cc38e44dda3299a65171802375" target="_top" xlink:title="Returns whether internet is currently reachable via Wifi or not. ">
<polygon fill="white" stroke="black" points="402.03,-148.5 402.03,-166.5 524.158,-166.5 524.158,-148.5 402.03,-148.5"/>
<text text-anchor="middle" x="463.094" y="-154.5" font-family="Helvetica,sans-Serif" font-size="10.00">MK::Device::isUsingWifi</text>
</a>
</g>
</g>
<!-- Node2&#45;&gt;Node26 -->
<g id="edge28" class="edge"><title>Node2&#45;&gt;Node26</title>
<path fill="none" stroke="midnightblue" d="M269.428,-261.186C285.963,-238.933 321.073,-196.43 361.72,-175.5 371.023,-170.709 381.382,-167.171 391.812,-164.563"/>
<polygon fill="midnightblue" stroke="midnightblue" points="392.803,-167.928 401.802,-162.336 391.28,-161.095 392.803,-167.928"/>
</g>
<!-- Node27 -->
<g id="node27" class="node"><title>Node27</title>
<g id="a_node27"><a xlink:href="namespace_m_k_1_1_ad_kit.html#acf80fb472cfaa9a3fee8b99789ee39a5" target="_top" xlink:title="Shows a top banner ad. ">
<polygon fill="white" stroke="black" points="391.449,-111.5 391.449,-129.5 534.739,-129.5 534.739,-111.5 391.449,-111.5"/>
<text text-anchor="middle" x="463.094" y="-117.5" font-family="Helvetica,sans-Serif" font-size="10.00">MK::AdKit::_showTopBanner</text>
</a>
</g>
</g>
<!-- Node2&#45;&gt;Node27 -->
<g id="edge29" class="edge"><title>Node2&#45;&gt;Node27</title>
<path fill="none" stroke="midnightblue" d="M265.409,-261.49C278.491,-233.141 312.202,-169.079 361.72,-138.5 367.882,-134.695 374.637,-131.646 381.639,-129.209"/>
<polygon fill="midnightblue" stroke="midnightblue" points="382.769,-132.524 391.308,-126.252 380.721,-125.83 382.769,-132.524"/>
</g>
<!-- Node28 -->
<g id="node28" class="node"><title>Node28</title>
<g id="a_node28"><a xlink:href="namespace_m_k_1_1_log.html#a370b710e345cbc5eb6c2a4f27aeb504f" target="_top" xlink:title="Logs a warning message that will appear also in release builds. ">
<polygon fill="white" stroke="black" points="416.185,-74.5 416.185,-92.5 510.002,-92.5 510.002,-74.5 416.185,-74.5"/>
<text text-anchor="middle" x="463.094" y="-80.5" font-family="Helvetica,sans-Serif" font-size="10.00">MK::Log::warning</text>
</a>
</g>
</g>
<!-- Node2&#45;&gt;Node28 -->
<g id="edge30" class="edge"><title>Node2&#45;&gt;Node28</title>
<path fill="none" stroke="midnightblue" d="M263.172,-261.442C273.16,-227.745 303.326,-142.155 361.72,-101.5 374.592,-92.5381 390.576,-87.6234 405.976,-85.0278"/>
<polygon fill="midnightblue" stroke="midnightblue" points="406.551,-88.4817 415.974,-83.6379 405.587,-81.5484 406.551,-88.4817"/>
</g>
<!-- Node29 -->
<g id="node29" class="node"><title>Node29</title>
<g id="a_node29"><a xlink:href="namespace_m_k_1_1_ad_kit.html#a526610f0f5a5595280154895818c48de" target="_top" xlink:title="Shows a bottom banner ad. ">
<polygon fill="white" stroke="black" points="383.67,-37.5 383.67,-55.5 542.517,-55.5 542.517,-37.5 383.67,-37.5"/>
<text text-anchor="middle" x="463.094" y="-43.5" font-family="Helvetica,sans-Serif" font-size="10.00">MK::AdKit::_showBottomBanner</text>
</a>
</g>
</g>
<!-- Node2&#45;&gt;Node29 -->
<g id="edge31" class="edge"><title>Node2&#45;&gt;Node29</title>
<path fill="none" stroke="midnightblue" d="M261.661,-261.421C268.811,-222.968 294.208,-115.635 361.72,-64.5 365.616,-61.5488 369.84,-59.0247 374.274,-56.8701"/>
<polygon fill="midnightblue" stroke="midnightblue" points="375.766,-60.04 383.637,-52.9476 373.061,-53.5838 375.766,-60.04"/>
</g>
<!-- Node30 -->
<g id="node30" class="node"><title>Node30</title>
<g id="a_node30"><a xlink:href="namespace_m_k_1_1_log.html#aaad0a85a2c31c679940f009469a1cabc" target="_top" xlink:title="Logs a non critical message that will appear also in release builds and will also be logged to Fabric...">
<polygon fill="white" stroke="black" points="396.737,-0.5 396.737,-18.5 529.451,-18.5 529.451,-0.5 396.737,-0.5"/>
<text text-anchor="middle" x="463.094" y="-6.5" font-family="Helvetica,sans-Serif" font-size="10.00">MK::Log::nonCriticalCrash</text>
</a>
</g>
</g>
<!-- Node2&#45;&gt;Node30 -->
<g id="edge32" class="edge"><title>Node2&#45;&gt;Node30</title>
<path fill="none" stroke="midnightblue" d="M260.585,-261.228C265.167,-218.267 285.013,-89.321 361.72,-27.5 369.137,-21.5222 377.871,-17.262 387.04,-14.2616"/>
<polygon fill="midnightblue" stroke="midnightblue" points="388.018,-17.6224 396.715,-11.5717 386.143,-10.8782 388.018,-17.6224"/>
</g>
<!-- Node5 -->
<g id="node5" class="node"><title>Node5</title>
<g id="a_node5"><a xlink:href="_c_p_p_utils_8mm.html#a35815dc6b4ba20ddb20e4a27f0b82294" target="_top" xlink:title="Returns a NSString equivalent to given std::string. ">
<polygon fill="white" stroke="black" points="638.268,-513.5 638.268,-531.5 703.184,-531.5 703.184,-513.5 638.268,-513.5"/>
<text text-anchor="middle" x="670.726" y="-519.5" font-family="Helvetica,sans-Serif" font-size="10.00">to_nsstring</text>
</a>
</g>
</g>
<!-- Node4&#45;&gt;Node5 -->
<g id="edge5" class="edge"><title>Node4&#45;&gt;Node5</title>
<path fill="none" stroke="midnightblue" d="M494.879,-522.5C530.259,-522.5 588.508,-522.5 627.958,-522.5"/>
<polygon fill="midnightblue" stroke="midnightblue" points="628.054,-526 638.054,-522.5 628.054,-519 628.054,-526"/>
</g>
<!-- Node12 -->
<g id="node12" class="node"><title>Node12</title>
<g id="a_node12"><a xlink:href="namespace_m_k_1_1_analytics.html#a7bb95c80f3280eb2e484571354d8c61e" target="_top" xlink:title="Logs given event without additional attributes. ">
<polygon fill="white" stroke="black" points="610.204,-284.5 610.204,-302.5 731.248,-302.5 731.248,-284.5 610.204,-284.5"/>
<text text-anchor="middle" x="670.726" y="-290.5" font-family="Helvetica,sans-Serif" font-size="10.00">MK::Analytics::logEvent</text>
</a>
</g>
</g>
<!-- Node11&#45;&gt;Node12 -->
<g id="edge12" class="edge"><title>Node11&#45;&gt;Node12</title>
<path fill="none" stroke="midnightblue" d="M534.573,-281.669C555.655,-283.515 578.756,-285.537 599.802,-287.379"/>
<polygon fill="midnightblue" stroke="midnightblue" points="599.683,-290.882 609.95,-288.268 600.294,-283.909 599.683,-290.882"/>
</g>
<!-- Node13 -->
<g id="node13" class="node"><title>Node13</title>
<g id="a_node13"><a xlink:href="namespace_m_k_1_1_analytics.html#a06ed59ccf83270d8c89455e41efde314" target="_top" xlink:title="Returns whether Analytics logging in enbled or not. ">
<polygon fill="white" stroke="black" points="797.749,-321.5 797.749,-339.5 915.467,-339.5 915.467,-321.5 797.749,-321.5"/>
<text text-anchor="middle" x="856.608" y="-327.5" font-family="Helvetica,sans-Serif" font-size="10.00">MK::Analytics::enabled</text>
</a>
</g>
</g>
<!-- Node12&#45;&gt;Node13 -->
<g id="edge13" class="edge"><title>Node12&#45;&gt;Node13</title>
<path fill="none" stroke="midnightblue" d="M716.709,-302.551C742.07,-307.654 773.947,-314.069 800.765,-319.465"/>
<polygon fill="midnightblue" stroke="midnightblue" points="800.277,-322.937 810.771,-321.478 801.658,-316.074 800.277,-322.937"/>
</g>
<!-- Node14 -->
<g id="node14" class="node"><title>Node14</title>
<g id="a_node14"><a xlink:href="namespace_m_k_1_1_analytics.html#a215ed26bf5eec68b43c10f46736dcff5" target="_top" xlink:title="Logs given event without additional attributes. ">
<polygon fill="white" stroke="black" points="793.305,-284.5 793.305,-302.5 919.911,-302.5 919.911,-284.5 793.305,-284.5"/>
<text text-anchor="middle" x="856.608" y="-290.5" font-family="Helvetica,sans-Serif" font-size="10.00">MK::Analytics::_logEvent</text>
</a>
</g>
</g>
<!-- Node12&#45;&gt;Node14 -->
<g id="edge14" class="edge"><title>Node12&#45;&gt;Node14</title>
<path fill="none" stroke="midnightblue" d="M731.427,-293.5C747.754,-293.5 765.633,-293.5 782.612,-293.5"/>
<polygon fill="midnightblue" stroke="midnightblue" points="783.045,-297 793.045,-293.5 783.045,-290 783.045,-297"/>
</g>
<!-- Node15&#45;&gt;Node16 -->
<g id="edge16" class="edge"><title>Node15&#45;&gt;Node16</title>
<path fill="none" stroke="midnightblue" d="M512.826,-203.505C542.297,-208.952 580.056,-215.929 611.147,-221.675"/>
<polygon fill="midnightblue" stroke="midnightblue" points="610.518,-225.118 620.988,-223.493 611.791,-218.234 610.518,-225.118"/>
</g>
<!-- Node20 -->
<g id="node20" class="node"><title>Node20</title>
<g id="a_node20"><a xlink:href="namespace_m_k_1_1_game_kit.html#ad65cc8a24b47cbb094481c7d0e50d505" target="_top" xlink:title="On Android returns whether Google Play Games is available (true) or not. ">
<polygon fill="white" stroke="black" points="606.405,-185.5 606.405,-203.5 735.047,-203.5 735.047,-185.5 606.405,-185.5"/>
<text text-anchor="middle" x="670.726" y="-191.5" font-family="Helvetica,sans-Serif" font-size="10.00">MK::GameKit::isAvailable</text>
</a>
</g>
</g>
<!-- Node15&#45;&gt;Node20 -->
<g id="edge20" class="edge"><title>Node15&#45;&gt;Node20</title>
<path fill="none" stroke="midnightblue" d="M548.029,-194.5C563.971,-194.5 580.541,-194.5 596.132,-194.5"/>
<polygon fill="midnightblue" stroke="midnightblue" points="596.221,-198 606.221,-194.5 596.221,-191 596.221,-198"/>
</g>
<!-- Node25 -->
<g id="node25" class="node"><title>Node25</title>
<g id="a_node25"><a xlink:href="namespace_m_k_1_1_ad_kit.html#a3ec27cc7d527c70185740892a183e8cb" target="_top" xlink:title="MK::AdKit::Java_org\l_cocos2dx_cpp_AppActivity\l_callCppRewardCallback">
<polygon fill="white" stroke="black" points="600.468,-128.5 600.468,-166.5 740.984,-166.5 740.984,-128.5 600.468,-128.5"/>
<text text-anchor="start" x="608.468" y="-154.5" font-family="Helvetica,sans-Serif" font-size="10.00">MK::AdKit::Java_org</text>
<text text-anchor="start" x="608.468" y="-144.5" font-family="Helvetica,sans-Serif" font-size="10.00">_cocos2dx_cpp_AppActivity</text>
<text text-anchor="middle" x="670.726" y="-134.5" font-family="Helvetica,sans-Serif" font-size="10.00">_callCppRewardCallback</text>
</a>
</g>
</g>
<!-- Node15&#45;&gt;Node25 -->
<g id="edge26" class="edge"><title>Node15&#45;&gt;Node25</title>
<path fill="none" stroke="midnightblue" d="M515.822,-185.454C531.498,-182.513 548.73,-179.078 564.468,-175.5 573.202,-173.514 582.307,-171.305 591.348,-169.023"/>
<polygon fill="midnightblue" stroke="midnightblue" points="592.291,-172.394 601.112,-166.525 590.556,-165.613 592.291,-172.394"/>
</g>
<!-- Node17 -->
<g id="node17" class="node"><title>Node17</title>
<g id="a_node17"><a xlink:href="namespace_m_k_1_1_device.html#a983d07fad256fb9e289b985cb4237efa" target="_top" xlink:title="Returns whether this device is running OS X or not. ">
<polygon fill="white" stroke="black" points="806.098,-247.5 806.098,-265.5 907.118,-265.5 907.118,-247.5 806.098,-247.5"/>
<text text-anchor="middle" x="856.608" y="-253.5" font-family="Helvetica,sans-Serif" font-size="10.00">MK::Device::isOSX</text>
</a>
</g>
</g>
<!-- Node16&#45;&gt;Node17 -->
<g id="edge17" class="edge"><title>Node16&#45;&gt;Node17</title>
<path fill="none" stroke="midnightblue" d="M721.973,-239.058C744.861,-242.046 772.124,-245.604 796.038,-248.725"/>
<polygon fill="midnightblue" stroke="midnightblue" points="795.69,-252.209 806.059,-250.033 796.596,-245.268 795.69,-252.209"/>
</g>
<!-- Node19 -->
<g id="node19" class="node"><title>Node19</title>
<g id="a_node19"><a xlink:href="namespace_m_k_1_1_k_v_database.html#a767b41659c2ee79a635285b4ae078aa7" target="_top" xlink:title="Returns long value associated with given key. ">
<polygon fill="white" stroke="black" points="776.984,-200.5 776.984,-228.5 936.231,-228.5 936.231,-200.5 776.984,-200.5"/>
<text text-anchor="start" x="784.984" y="-216.5" font-family="Helvetica,sans-Serif" font-size="10.00">MK::KVDatabase::getLongValue</text>
<text text-anchor="middle" x="856.608" y="-206.5" font-family="Helvetica,sans-Serif" font-size="10.00">ForKey</text>
</a>
</g>
</g>
<!-- Node16&#45;&gt;Node19 -->
<g id="edge19" class="edge"><title>Node16&#45;&gt;Node19</title>
<path fill="none" stroke="midnightblue" d="M721.973,-227.581C735.842,-226.224 751.317,-224.709 766.68,-223.205"/>
<polygon fill="midnightblue" stroke="midnightblue" points="767.13,-226.678 776.742,-222.22 766.448,-219.711 767.13,-226.678"/>
</g>
<!-- Node18 -->
<g id="node18" class="node"><title>Node18</title>
<g id="a_node18"><a xlink:href="namespace_m_k_1_1_device.html#a7c83a89bef610abaa7ada09d38c2f3fb" target="_top" xlink:title="Returns current platform. ">
<polygon fill="white" stroke="black" points="975.579,-247.5 975.579,-265.5 1116.61,-265.5 1116.61,-247.5 975.579,-247.5"/>
<text text-anchor="middle" x="1046.1" y="-253.5" font-family="Helvetica,sans-Serif" font-size="10.00">MK::Device::currentPlatform</text>
</a>
</g>
</g>
<!-- Node17&#45;&gt;Node18 -->
<g id="edge18" class="edge"><title>Node17&#45;&gt;Node18</title>
<path fill="none" stroke="midnightblue" d="M907.359,-256.5C925.096,-256.5 945.551,-256.5 965.179,-256.5"/>
<polygon fill="midnightblue" stroke="midnightblue" points="965.349,-260 975.349,-256.5 965.349,-253 965.349,-260"/>
</g>
<!-- Node21 -->
<g id="node21" class="node"><title>Node21</title>
<g id="a_node21"><a xlink:href="namespace_m_k_1_1_game_kit.html#abb3b0052dac094d7e492bb0cbb1a1e8b" target="_top" xlink:title="MK::GameKit::Java_org\l_cocos2dx_cpp_AppActivity\l_callCppScoreCallback">
<polygon fill="white" stroke="black" points="786.35,-143.5 786.35,-181.5 926.866,-181.5 926.866,-143.5 786.35,-143.5"/>
<text text-anchor="start" x="794.35" y="-169.5" font-family="Helvetica,sans-Serif" font-size="10.00">MK::GameKit::Java_org</text>
<text text-anchor="start" x="794.35" y="-159.5" font-family="Helvetica,sans-Serif" font-size="10.00">_cocos2dx_cpp_AppActivity</text>
<text text-anchor="middle" x="856.608" y="-149.5" font-family="Helvetica,sans-Serif" font-size="10.00">_callCppScoreCallback</text>
</a>
</g>
</g>
<!-- Node20&#45;&gt;Node21 -->
<g id="edge21" class="edge"><title>Node20&#45;&gt;Node21</title>
<path fill="none" stroke="midnightblue" d="M723.927,-185.416C740.081,-182.604 758.262,-179.441 775.839,-176.382"/>
<polygon fill="midnightblue" stroke="midnightblue" points="776.846,-179.759 786.098,-174.596 775.646,-172.863 776.846,-179.759"/>
</g>
<!-- Node22 -->
<g id="node22" class="node"><title>Node22</title>
<g id="a_node22"><a xlink:href="namespace_m_k_1_1_log.html#a3e84a309c158873fecff57e1db770c9a" target="_top" xlink:title="Logs a debug message that will not appear also in release builds. ">
<polygon fill="white" stroke="black" points="1343.03,-153.5 1343.03,-171.5 1429.63,-171.5 1429.63,-153.5 1343.03,-153.5"/>
<text text-anchor="middle" x="1386.33" y="-159.5" font-family="Helvetica,sans-Serif" font-size="10.00">MK::Log::debug</text>
</a>
</g>
</g>
<!-- Node21&#45;&gt;Node22 -->
<g id="edge22" class="edge"><title>Node21&#45;&gt;Node22</title>
<path fill="none" stroke="midnightblue" d="M927.001,-165.311C941.919,-165.806 957.598,-166.245 972.231,-166.5 1121.01,-169.095 1158.28,-170.297 1307.03,-166.5 1315.25,-166.29 1323.96,-165.956 1332.45,-165.569"/>
<polygon fill="midnightblue" stroke="midnightblue" points="1332.86,-169.054 1342.68,-165.075 1332.52,-162.062 1332.86,-169.054"/>
</g>
<!-- Node23 -->
<g id="node23" class="node"><title>Node23</title>
<g id="a_node23"><a xlink:href="namespace_m_k_1_1_game_kit.html#a148ebf1481b3aa5094f533f07b62395c" target="_top" xlink:title="MK::GameKit::Java_org\l_cocos2dx_cpp_AppActivity\l_callCppFriendScoreCallback">
<polygon fill="white" stroke="black" points="972.231,-119.5 972.231,-157.5 1119.96,-157.5 1119.96,-119.5 972.231,-119.5"/>
<text text-anchor="start" x="980.231" y="-145.5" font-family="Helvetica,sans-Serif" font-size="10.00">MK::GameKit::Java_org</text>
<text text-anchor="start" x="980.231" y="-135.5" font-family="Helvetica,sans-Serif" font-size="10.00">_cocos2dx_cpp_AppActivity</text>
<text text-anchor="middle" x="1046.1" y="-125.5" font-family="Helvetica,sans-Serif" font-size="10.00">_callCppFriendScoreCallback</text>
</a>
</g>
</g>
<!-- Node21&#45;&gt;Node23 -->
<g id="edge23" class="edge"><title>Node21&#45;&gt;Node23</title>
<path fill="none" stroke="midnightblue" d="M926.889,-153.631C938.265,-152.175 950.157,-150.653 961.83,-149.159"/>
<polygon fill="midnightblue" stroke="midnightblue" points="962.539,-152.597 972.013,-147.855 961.65,-145.653 962.539,-152.597"/>
</g>
<!-- Node24 -->
<g id="node24" class="node"><title>Node24</title>
<g id="a_node24"><a xlink:href="namespace_m_k_1_1_game_kit.html#aeea3e0c832dd9d93302d16f38b76c64e" target="_top" xlink:title="MK::GameKit::Java_org\l_cocos2dx_cpp_AppActivity\l_callCppAchievementCallback">
<polygon fill="white" stroke="black" points="1155.96,-119.5 1155.96,-157.5 1307.03,-157.5 1307.03,-119.5 1155.96,-119.5"/>
<text text-anchor="start" x="1163.96" y="-145.5" font-family="Helvetica,sans-Serif" font-size="10.00">MK::GameKit::Java_org</text>
<text text-anchor="start" x="1163.96" y="-135.5" font-family="Helvetica,sans-Serif" font-size="10.00">_cocos2dx_cpp_AppActivity</text>
<text text-anchor="middle" x="1231.49" y="-125.5" font-family="Helvetica,sans-Serif" font-size="10.00">_callCppAchievementCallback</text>
</a>
</g>
</g>
<!-- Node23&#45;&gt;Node24 -->
<g id="edge24" class="edge"><title>Node23&#45;&gt;Node24</title>
<path fill="none" stroke="midnightblue" d="M1120.11,-138.5C1128.58,-138.5 1137.27,-138.5 1145.88,-138.5"/>
<polygon fill="midnightblue" stroke="midnightblue" points="1145.93,-142 1155.93,-138.5 1145.93,-135 1145.93,-142"/>
</g>
<!-- Node24&#45;&gt;Node22 -->
<g id="edge25" class="edge"><title>Node24&#45;&gt;Node22</title>
<path fill="none" stroke="midnightblue" d="M1307.12,-150.219C1315.85,-151.589 1324.61,-152.965 1332.94,-154.273"/>
<polygon fill="midnightblue" stroke="midnightblue" points="1332.44,-157.738 1342.87,-155.832 1333.53,-150.823 1332.44,-157.738"/>
</g>
<!-- Node31 -->
<g id="node31" class="node"><title>Node31</title>
<g id="a_node31"><a xlink:href="namespace_m_k_1_1_log.html#a6d2108eb7cc881d7303292faba6cec84" target="_top" xlink:title="Logs message with given format and additional data to Fabric&#39;s Crashlytics service. ">
<polygon fill="white" stroke="black" points="623.266,-0.5 623.266,-18.5 718.187,-18.5 718.187,-0.5 623.266,-0.5"/>
<text text-anchor="middle" x="670.726" y="-6.5" font-family="Helvetica,sans-Serif" font-size="10.00">MK::Log::toFabric</text>
</a>
</g>
</g>
<!-- Node30&#45;&gt;Node31 -->
<g id="edge33" class="edge"><title>Node30&#45;&gt;Node31</title>
<path fill="none" stroke="midnightblue" d="M529.722,-9.5C556.597,-9.5 587.39,-9.5 613.242,-9.5"/>
<polygon fill="midnightblue" stroke="midnightblue" points="613.255,-13.0001 623.255,-9.5 613.255,-6.0001 613.255,-13.0001"/>
</g>
</g>
</svg>
