<?xml version="1.0" encoding="utf-8"?>
<!-- Generator: Adobe Illustrator 19.2.0, SVG Export Plug-In . SVG Version: 6.00 Build 0)  -->
<svg version="1.1" id="Capa_1" xmlns="http://www.w3.org/2000/svg" xmlns:xlink="http://www.w3.org/1999/xlink" x="0px" y="0px"
	 viewBox="0 0 730 438" style="enable-background:new 0 0 730 438;" xml:space="preserve">
<style type="text/css">
	.st0{fill:#FFFFFF;}
	.st1{display:none;}
	.st2{display:inline;}
	.st3{fill:#7B52DA;stroke:#9C7BFF;stroke-width:3.7531;}
	.st4{fill:#FF6C45;stroke:#E68B57;stroke-width:3.7531;}
	.st5{fill:#FFFFFF;stroke:#E6E6E6;stroke-width:3.7531;}
	.st6{display:inline;fill:url(#clipboard4_2_);}
	.st7{enable-background:new    ;}
	.st8{fill:#C4376C;}
	.st9{fill:#FE6B44;}
	.st10{fill:url(#clipboard4_3_);}
</style>
<g>
	<path id="path-7_3_" class="st0" d="M368.4,192c28.5-22.2,28.5-58.2,0-80.3l-116.9-91c-28.5-22.2-74.7-22.2-103.2,0l-116.9,91
		c-28.5,22.2-28.5,58.2,0,80.3l116.9,91c28.5,22.2,74.7,22.2,103.2,0L368.4,192z"/>
</g>
<g>
	<path id="path-4_3_" class="st0" d="M368.4,255.3c28.5-22.2,28.5-58.2,0-80.3L251.5,84c-28.5-22.2-74.7-22.2-103.2,0L31.4,175
		c-28.5,22.2-28.5,58.2,0,80.3l116.9,91c28.5,22.2,74.7,22.2,103.2,0L368.4,255.3z"/>
</g>
<g>
	<path id="path-1_3_" class="st0" d="M368.4,318.6c28.5-22.2,28.5-58.2,0-80.3l-116.9-91c-28.5-22.2-74.7-22.2-103.2,0l-116.9,91
		c-28.5,22.2-28.5,58.2,0,80.3l116.9,91c28.5,22.2,74.7,22.2,103.2,0L368.4,318.6z"/>
</g>
<title>Group</title>
<desc>Created with Sketch.</desc>
<g id="Page-1">
	<g id="HealthKit" transform="translate(-12.000000, -86.000000)">
		<g id="Group" transform="translate(20.000000, 89.000000)">
			<g id="MawKit" class="st1">
				<g id="Bottom" class="st2">
					<g>
						<path id="path-1_4_" d="M358.4,314.6c28.5-22.2,28.5-58.2,0-80.3l-116.9-91c-28.5-22.2-74.7-22.2-103.2,0l-116.9,91
							c-28.5,22.2-28.5,58.2,0,80.3l116.9,91c28.5,22.2,74.7,22.2,103.2,0L358.4,314.6z"/>
					</g>
					<g>
						<path id="path-1_2_" class="st3" d="M358.4,314.6c28.5-22.2,28.5-58.2,0-80.3l-116.9-91c-28.5-22.2-74.7-22.2-103.2,0
							l-116.9,91c-28.5,22.2-28.5,58.2,0,80.3l116.9,91c28.5,22.2,74.7,22.2,103.2,0L358.4,314.6z"/>
					</g>
				</g>
				<g id="Middle" class="st2">
					<g>
						<path id="path-4_4_" d="M358.4,251.3c28.5-22.2,28.5-58.2,0-80.3L241.5,80c-28.5-22.2-74.7-22.2-103.2,0L21.4,171
							c-28.5,22.2-28.5,58.2,0,80.3l116.9,91c28.5,22.2,74.7,22.2,103.2,0L358.4,251.3z"/>
					</g>
					<g>
						<path id="path-4_2_" class="st4" d="M358.4,251.3c28.5-22.2,28.5-58.2,0-80.3L241.5,80c-28.5-22.2-74.7-22.2-103.2,0L21.4,171
							c-28.5,22.2-28.5,58.2,0,80.3l116.9,91c28.5,22.2,74.7,22.2,103.2,0L358.4,251.3z"/>
					</g>
				</g>
				<g id="Top" class="st2">
					<g>
						<path id="path-7_4_" d="M358.4,188c28.5-22.2,28.5-58.2,0-80.3l-116.9-91c-28.5-22.2-74.7-22.2-103.2,0l-116.9,91
							c-28.5,22.2-28.5,58.2,0,80.3l116.9,91c28.5,22.2,74.7,22.2,103.2,0L358.4,188z"/>
					</g>
					<g>
						<path id="path-7_2_" class="st5" d="M358.4,188c28.5-22.2,28.5-58.2,0-80.3l-116.9-91c-28.5-22.2-74.7-22.2-103.2,0l-116.9,91
							c-28.5,22.2-28.5,58.2,0,80.3l116.9,91c28.5,22.2,74.7,22.2,103.2,0L358.4,188z"/>
					</g>
				</g>
				
					<linearGradient id="clipboard4_2_" gradientUnits="userSpaceOnUse" x1="117.5432" y1="2.4946" x2="118.2503" y2="3.2018" gradientTransform="matrix(222.1607 0 0 172.0511 -26012.9629 -353.0012)">
					<stop  offset="0" style="stop-color:#7B52DA"/>
					<stop  offset="1" style="stop-color:#FF2314"/>
				</linearGradient>
				<path id="clipboard4" class="st6" d="M126.3,136.2c14.2,26.1,28.5,52.1,42.7,78.2c-33.7-11-67.3-22.1-101-33.1 M235.9,51.2
					l0.3-0.2c14.2,26.1,28.4,52.1,42.7,78.2c-33.7-11-67.3-22.1-101-33.1 M224.5,129.9c21.1,6.9,42.3,13.9,63.4,20.8
					c0.8,0.3,1.7,0.4,2.2,1L249.6,183c-1.5-2.2-2.5-4.5-3.8-6.8c-8.5-15.5-16.9-31-25.4-46.5c-0.3-0.6-0.5-1.2-1.1-1.7 M167.7,168.4
					c15.8,5.2,31.6,10.3,47.3,15.5c7.8,2.6,15.7,5.1,23.4,7.7L197.9,223c-0.4-0.1-0.7-0.3-0.8-0.6"/>
			</g>
			<g class="st7">
				<path class="st8" d="M426.7,194V90.9h20.5l24.4,73c2.2,6.8,3.9,11.9,4.9,15.3c1.2-3.8,3-9.3,5.5-16.5l24.7-71.7h18.4V194h-13.1
					v-86.3L482,194h-12.3l-29.8-87.8V194H426.7z"/>
				<path class="st8" d="M594.2,184.8c-4.7,4-9.2,6.8-13.5,8.4c-4.3,1.6-9,2.5-14,2.5c-8.2,0-14.5-2-18.9-6c-4.4-4-6.6-9.1-6.6-15.4
					c0-3.7,0.8-7,2.5-10c1.7-3,3.8-5.4,6.5-7.3c2.7-1.8,5.7-3.2,9.1-4.1c2.5-0.7,6.2-1.3,11.2-1.9c10.2-1.2,17.7-2.7,22.6-4.4
					c0-1.7,0.1-2.8,0.1-3.3c0-5.2-1.2-8.8-3.6-10.9c-3.2-2.9-8-4.3-14.4-4.3c-6,0-10.3,1-13.2,3.1c-2.8,2.1-4.9,5.8-6.3,11.1
					l-12.4-1.7c1.1-5.3,3-9.6,5.6-12.8c2.6-3.3,6.3-5.8,11.2-7.5c4.9-1.8,10.5-2.6,16.9-2.6c6.4,0,11.6,0.8,15.5,2.2
					c4,1.5,6.9,3.4,8.8,5.7c1.9,2.3,3.2,5.1,3.9,8.6c0.4,2.2,0.6,6,0.6,11.7v16.9c0,11.8,0.3,19.2,0.8,22.3c0.5,3.1,1.6,6.1,3.2,9
					h-13.2C595.4,191.4,594.5,188.3,594.2,184.8z M593.1,156.5c-4.6,1.9-11.5,3.5-20.7,4.8c-5.2,0.8-8.9,1.6-11,2.5
					c-2.2,0.9-3.8,2.3-5,4.1c-1.2,1.8-1.8,3.8-1.8,6c0,3.4,1.3,6.2,3.8,8.4c2.6,2.2,6.3,3.4,11.2,3.4c4.9,0,9.2-1.1,13-3.2
					c3.8-2.1,6.6-5.1,8.4-8.8c1.4-2.9,2-7.1,2-12.7V156.5z"/>
				<path class="st8" d="M639.3,194l-22.9-74.7h13.1l11.9,43.1l4.4,16c0.2-0.8,1.5-5.9,3.9-15.4l11.9-43.7h13l11.2,43.3l3.7,14.3
					l4.3-14.4l12.8-43.2h12.3L695.6,194h-13.1l-11.9-44.7l-2.9-12.7L652.5,194H639.3z"/>
			</g>
			<g class="st7">
				<path class="st9" d="M426.5,338V234.9h13.6V286l51.2-51.1h18.5l-43.2,41.8l45.1,61.3h-18l-36.7-52.2l-16.9,16.5V338H426.5z"/>
				<path class="st9" d="M521.6,249.5v-14.6h12.7v14.6H521.6z M521.6,338v-74.7h12.7V338H521.6z"/>
				<path class="st9" d="M581.2,326.7l1.8,11.2c-3.6,0.7-6.8,1.1-9.6,1.1c-4.6,0-8.2-0.7-10.7-2.2s-4.3-3.4-5.3-5.7
					c-1-2.4-1.5-7.3-1.5-14.9v-43h-9.3v-9.8h9.3v-18.5l12.6-7.6v26.1h12.7v9.8h-12.7v43.7c0,3.6,0.2,5.9,0.7,7
					c0.4,1,1.2,1.9,2.2,2.5c1,0.6,2.4,0.9,4.3,0.9C577,327.2,578.9,327,581.2,326.7z"/>
			</g>
		</g>
	</g>
	<g id="Symbols">
		<g id="MawKit_1_">
			<g id="Bottom_1_">
				<g>
					<path id="path-1_1_" d="M368.4,318.6c28.5-22.2,28.5-58.2,0-80.3l-116.9-91c-28.5-22.2-74.7-22.2-103.2,0l-116.9,91
						c-28.5,22.2-28.5,58.2,0,80.3l116.9,91c28.5,22.2,74.7,22.2,103.2,0L368.4,318.6z"/>
				</g>
				<g>
					<path id="path-1_5_" class="st3" d="M368.4,318.6c28.5-22.2,28.5-58.2,0-80.3l-116.9-91c-28.5-22.2-74.7-22.2-103.2,0
						l-116.9,91c-28.5,22.2-28.5,58.2,0,80.3l116.9,91c28.5,22.2,74.7,22.2,103.2,0L368.4,318.6z"/>
				</g>
			</g>
			<g id="Middle_1_">
				<g>
					<path id="path-4_1_" d="M368.4,255.3c28.5-22.2,28.5-58.2,0-80.3L251.5,84c-28.5-22.2-74.7-22.2-103.2,0L31.4,175
						c-28.5,22.2-28.5,58.2,0,80.3l116.9,91c28.5,22.2,74.7,22.2,103.2,0L368.4,255.3z"/>
				</g>
				<g>
					<path id="path-4_5_" class="st4" d="M368.4,255.3c28.5-22.2,28.5-58.2,0-80.3L251.5,84c-28.5-22.2-74.7-22.2-103.2,0L31.4,175
						c-28.5,22.2-28.5,58.2,0,80.3l116.9,91c28.5,22.2,74.7,22.2,103.2,0L368.4,255.3z"/>
				</g>
			</g>
			<g id="Top_1_">
				<g>
					<path id="path-7_1_" d="M368.4,192c28.5-22.2,28.5-58.2,0-80.3l-116.9-91c-28.5-22.2-74.7-22.2-103.2,0l-116.9,91
						c-28.5,22.2-28.5,58.2,0,80.3l116.9,91c28.5,22.2,74.7,22.2,103.2,0L368.4,192z"/>
				</g>
				<g>
					<path id="path-7_5_" class="st5" d="M368.4,192c28.5-22.2,28.5-58.2,0-80.3l-116.9-91c-28.5-22.2-74.7-22.2-103.2,0l-116.9,91
						c-28.5,22.2-28.5,58.2,0,80.3l116.9,91c28.5,22.2,74.7,22.2,103.2,0L368.4,192z"/>
				</g>
			</g>
			
				<linearGradient id="clipboard4_3_" gradientUnits="userSpaceOnUse" x1="133.5882" y1="2.5179" x2="134.2953" y2="3.225" gradientTransform="matrix(222.1607 0 0 172.0511 -29567.5352 -352.9982)">
				<stop  offset="0" style="stop-color:#7B52DA"/>
				<stop  offset="1" style="stop-color:#FF2314"/>
			</linearGradient>
			<path id="clipboard4_1_" class="st10" d="M136.3,140.2c14.2,26.1,28.5,52.1,42.7,78.2c-33.7-11-67.3-22.1-101-33.1 M245.9,55.2
				l0.3-0.2c14.2,26.1,28.4,52.1,42.7,78.2c-33.7-11-67.3-22.1-101-33.1 M234.5,133.9c21.1,6.9,42.3,13.9,63.4,20.8
				c0.8,0.3,1.7,0.4,2.2,1L259.6,187c-1.5-2.2-2.5-4.5-3.8-6.8c-8.5-15.5-16.9-31-25.4-46.5c-0.3-0.6-0.5-1.2-1.1-1.7 M177.7,172.4
				c15.8,5.2,31.6,10.3,47.3,15.5c7.8,2.6,15.7,5.1,23.4,7.7L207.9,227c-0.4-0.1-0.7-0.3-0.8-0.6"/>
		</g>
	</g>
</g>
</svg>
