<?xml version="1.0" encoding="UTF-8" standalone="no"?>
<!DOCTYPE svg PUBLIC "-//W3C//DTD SVG 1.1//EN"
 "http://www.w3.org/Graphics/SVG/1.1/DTD/svg11.dtd">
<!-- Generated by graphviz version 2.38.0 (20140413.2041)
 -->
<!-- Title: MK::GameKit::ReplayKit::isAvailable Pages: 1 -->
<svg width="451pt" height="99pt"
 viewBox="0.00 0.00 451.44 98.76" xmlns="http://www.w3.org/2000/svg" xmlns:xlink="http://www.w3.org/1999/xlink">
<g id="graph0" class="graph" transform="scale(1 1) rotate(0) translate(4 94.7616)">
<title>MK::GameKit::ReplayKit::isAvailable</title>
<polygon fill="white" stroke="none" points="-4,4 -4,-94.7616 447.438,-94.7616 447.438,4 -4,4"/>
<!-- Node1 -->
<g id="node1" class="node"><title>Node1</title>
<polygon fill="#bfbfbf" stroke="black" points="0,-47.5 0,-75.5 123.812,-75.5 123.812,-47.5 0,-47.5"/>
<text text-anchor="start" x="8" y="-63.5" font-family="Helvetica,sans-Serif" font-size="10.00">MK::GameKit::ReplayKit</text>
<text text-anchor="middle" x="61.9062" y="-53.5" font-family="Helvetica,sans-Serif" font-size="10.00">::isAvailable</text>
</g>
<!-- Node2 -->
<g id="node2" class="node"><title>Node2</title>
<g id="a_node2"><a xlink:href="namespace_m_k_1_1_game_kit_1_1_replay_kit.html#aba2a10bcf57eb8111fff86703994dfa6" target="_top" xlink:title="Discards current recording. ">
<polygon fill="white" stroke="black" points="319.625,-45.5 319.625,-73.5 443.438,-73.5 443.438,-45.5 319.625,-45.5"/>
<text text-anchor="start" x="327.625" y="-61.5" font-family="Helvetica,sans-Serif" font-size="10.00">MK::GameKit::ReplayKit</text>
<text text-anchor="middle" x="381.531" y="-51.5" font-family="Helvetica,sans-Serif" font-size="10.00">::discardRecording</text>
</a>
</g>
</g>
<!-- Node1&#45;&gt;Node2 -->
<g id="edge1" class="edge"><title>Node1&#45;&gt;Node2</title>
<path fill="none" stroke="midnightblue" d="M119.611,-77.9833C132.702,-81.1053 146.651,-83.8944 159.812,-85.5 214.435,-92.1633 229.069,-92.6915 283.625,-85.5 301.585,-83.1325 320.946,-78.3975 337.606,-73.6095"/>
<polygon fill="midnightblue" stroke="midnightblue" points="120.344,-74.5591 109.795,-75.5451 118.657,-81.3527 120.344,-74.5591"/>
</g>
<!-- Node3 -->
<g id="node3" class="node"><title>Node3</title>
<g id="a_node3"><a xlink:href="namespace_m_k_1_1_game_kit_1_1_replay_kit.html#a9143c265d93ef21d13105e2ce8bb1f4a" target="_top" xlink:title="Starts recording. ">
<polygon fill="white" stroke="black" points="159.812,-47.5 159.812,-75.5 283.625,-75.5 283.625,-47.5 159.812,-47.5"/>
<text text-anchor="start" x="167.812" y="-63.5" font-family="Helvetica,sans-Serif" font-size="10.00">MK::GameKit::ReplayKit</text>
<text text-anchor="middle" x="221.719" y="-53.5" font-family="Helvetica,sans-Serif" font-size="10.00">::startRecording</text>
</a>
</g>
</g>
<!-- Node1&#45;&gt;Node3 -->
<g id="edge2" class="edge"><title>Node1&#45;&gt;Node3</title>
<path fill="none" stroke="midnightblue" d="M134.187,-61.5C142.674,-61.5 151.28,-61.5 159.606,-61.5"/>
<polygon fill="midnightblue" stroke="midnightblue" points="133.921,-58.0001 123.921,-61.5 133.921,-65.0001 133.921,-58.0001"/>
</g>
<!-- Node4 -->
<g id="node4" class="node"><title>Node4</title>
<g id="a_node4"><a xlink:href="namespace_m_k_1_1_game_kit_1_1_replay_kit.html#a8f5b1f28bf1af371dcb0ce7ec82afddb" target="_top" xlink:title="Stops recording. ">
<polygon fill="white" stroke="black" points="159.812,-0.5 159.812,-28.5 283.625,-28.5 283.625,-0.5 159.812,-0.5"/>
<text text-anchor="start" x="167.812" y="-16.5" font-family="Helvetica,sans-Serif" font-size="10.00">MK::GameKit::ReplayKit</text>
<text text-anchor="middle" x="221.719" y="-6.5" font-family="Helvetica,sans-Serif" font-size="10.00">::stopRecording</text>
</a>
</g>
</g>
<!-- Node1&#45;&gt;Node4 -->
<g id="edge3" class="edge"><title>Node1&#45;&gt;Node4</title>
<path fill="none" stroke="midnightblue" d="M119.874,-44.5337C137.528,-39.2759 156.774,-33.5442 173.675,-28.5106"/>
<polygon fill="midnightblue" stroke="midnightblue" points="118.84,-41.1897 110.255,-47.3985 120.838,-47.8985 118.84,-41.1897"/>
</g>
<!-- Node4&#45;&gt;Node2 -->
<g id="edge4" class="edge"><title>Node4&#45;&gt;Node2</title>
<path fill="none" stroke="midnightblue" d="M282.117,-31.4374C298.3,-36.0518 315.65,-40.9993 331.207,-45.4353"/>
<polygon fill="midnightblue" stroke="midnightblue" points="282.795,-27.9912 272.219,-28.6148 280.876,-34.7229 282.795,-27.9912"/>
</g>
</g>
</svg>
