<?xml version="1.0" encoding="UTF-8" standalone="no"?>
<!DOCTYPE svg PUBLIC "-//W3C//DTD SVG 1.1//EN"
 "http://www.w3.org/Graphics/SVG/1.1/DTD/svg11.dtd">
<!-- Generated by graphviz version 2.38.0 (20140413.2041)
 -->
<!-- Title: MK::GameKit::Java_org_cocos2dx_cpp_AppActivity_callCppScoreCallback Pages: 1 -->
<svg width="642pt" height="71pt"
 viewBox="0.00 0.00 641.92 71.00" xmlns="http://www.w3.org/2000/svg" xmlns:xlink="http://www.w3.org/1999/xlink">
<g id="graph0" class="graph" transform="scale(1 1) rotate(0) translate(4 67)">
<title>MK::GameKit::Java_org_cocos2dx_cpp_AppActivity_callCppScoreCallback</title>
<polygon fill="white" stroke="none" points="-4,4 -4,-67 637.919,-67 637.919,4 -4,4"/>
<!-- Node1 -->
<g id="node1" class="node"><title>Node1</title>
<polygon fill="#bfbfbf" stroke="black" points="0,-24.5 0,-62.5 140.517,-62.5 140.517,-24.5 0,-24.5"/>
<text text-anchor="start" x="8" y="-50.5" font-family="Helvetica,sans-Serif" font-size="10.00">MK::GameKit::Java_org</text>
<text text-anchor="start" x="8" y="-40.5" font-family="Helvetica,sans-Serif" font-size="10.00">_cocos2dx_cpp_AppActivity</text>
<text text-anchor="middle" x="70.2583" y="-30.5" font-family="Helvetica,sans-Serif" font-size="10.00">_callCppScoreCallback</text>
</g>
<!-- Node2 -->
<g id="node2" class="node"><title>Node2</title>
<g id="a_node2"><a xlink:href="namespace_m_k_1_1_log.html#a3e84a309c158873fecff57e1db770c9a" target="_top" xlink:title="Logs a debug message that will not appear also in release builds. ">
<polygon fill="white" stroke="black" points="547.313,-34.5 547.313,-52.5 633.919,-52.5 633.919,-34.5 547.313,-34.5"/>
<text text-anchor="middle" x="590.616" y="-40.5" font-family="Helvetica,sans-Serif" font-size="10.00">MK::Log::debug</text>
</a>
</g>
</g>
<!-- Node1&#45;&gt;Node2 -->
<g id="edge1" class="edge"><title>Node1&#45;&gt;Node2</title>
<path fill="none" stroke="midnightblue" d="M140.606,-46.5097C152.58,-46.9222 164.906,-47.2795 176.517,-47.5 325.288,-50.3258 362.563,-51.2969 511.313,-47.5 519.536,-47.2901 528.24,-46.9564 536.74,-46.5691"/>
<polygon fill="midnightblue" stroke="midnightblue" points="537.141,-50.0539 546.961,-46.0747 536.803,-43.062 537.141,-50.0539"/>
</g>
<!-- Node3 -->
<g id="node3" class="node"><title>Node3</title>
<g id="a_node3"><a xlink:href="namespace_m_k_1_1_game_kit.html#a148ebf1481b3aa5094f533f07b62395c" target="_top" xlink:title="MK::GameKit::Java_org\l_cocos2dx_cpp_AppActivity\l_callCppFriendScoreCallback">
<polygon fill="white" stroke="black" points="176.517,-0.5 176.517,-38.5 324.245,-38.5 324.245,-0.5 176.517,-0.5"/>
<text text-anchor="start" x="184.517" y="-26.5" font-family="Helvetica,sans-Serif" font-size="10.00">MK::GameKit::Java_org</text>
<text text-anchor="start" x="184.517" y="-16.5" font-family="Helvetica,sans-Serif" font-size="10.00">_cocos2dx_cpp_AppActivity</text>
<text text-anchor="middle" x="250.381" y="-6.5" font-family="Helvetica,sans-Serif" font-size="10.00">_callCppFriendScoreCallback</text>
</a>
</g>
</g>
<!-- Node1&#45;&gt;Node3 -->
<g id="edge2" class="edge"><title>Node1&#45;&gt;Node3</title>
<path fill="none" stroke="midnightblue" d="M140.635,-34.1523C149.06,-33.0171 157.733,-31.8485 166.33,-30.6901"/>
<polygon fill="midnightblue" stroke="midnightblue" points="166.926,-34.1415 176.369,-29.3375 165.992,-27.2042 166.926,-34.1415"/>
</g>
<!-- Node4 -->
<g id="node4" class="node"><title>Node4</title>
<g id="a_node4"><a xlink:href="namespace_m_k_1_1_game_kit.html#aeea3e0c832dd9d93302d16f38b76c64e" target="_top" xlink:title="MK::GameKit::Java_org\l_cocos2dx_cpp_AppActivity\l_callCppAchievementCallback">
<polygon fill="white" stroke="black" points="360.245,-0.5 360.245,-38.5 511.313,-38.5 511.313,-0.5 360.245,-0.5"/>
<text text-anchor="start" x="368.245" y="-26.5" font-family="Helvetica,sans-Serif" font-size="10.00">MK::GameKit::Java_org</text>
<text text-anchor="start" x="368.245" y="-16.5" font-family="Helvetica,sans-Serif" font-size="10.00">_cocos2dx_cpp_AppActivity</text>
<text text-anchor="middle" x="435.779" y="-6.5" font-family="Helvetica,sans-Serif" font-size="10.00">_callCppAchievementCallback</text>
</a>
</g>
</g>
<!-- Node3&#45;&gt;Node4 -->
<g id="edge3" class="edge"><title>Node3&#45;&gt;Node4</title>
<path fill="none" stroke="midnightblue" d="M324.392,-19.5C332.864,-19.5 341.558,-19.5 350.168,-19.5"/>
<polygon fill="midnightblue" stroke="midnightblue" points="350.219,-23.0001 360.219,-19.5 350.219,-16.0001 350.219,-23.0001"/>
</g>
<!-- Node4&#45;&gt;Node2 -->
<g id="edge4" class="edge"><title>Node4&#45;&gt;Node2</title>
<path fill="none" stroke="midnightblue" d="M511.407,-31.2188C520.134,-32.5892 528.892,-33.9645 537.226,-35.2732"/>
<polygon fill="midnightblue" stroke="midnightblue" points="536.729,-38.7379 547.15,-36.8316 537.815,-31.8226 536.729,-38.7379"/>
</g>
</g>
</svg>
