<?xml version="1.0" encoding="UTF-8" standalone="no"?>
<!DOCTYPE svg PUBLIC "-//W3C//DTD SVG 1.1//EN"
 "http://www.w3.org/Graphics/SVG/1.1/DTD/svg11.dtd">
<!-- Generated by graphviz version 2.38.0 (20140413.2041)
 -->
<!-- Title: MK::KVDatabase::keepMinLongValueForKey Pages: 1 -->
<svg width="611pt" height="84pt"
 viewBox="0.00 0.00 610.71 84.00" xmlns="http://www.w3.org/2000/svg" xmlns:xlink="http://www.w3.org/1999/xlink">
<g id="graph0" class="graph" transform="scale(1 1) rotate(0) translate(4 80)">
<title>MK::KVDatabase::keepMinLongValueForKey</title>
<polygon fill="white" stroke="none" points="-4,4 -4,-80 606.71,-80 606.71,4 -4,4"/>
<!-- Node1 -->
<g id="node1" class="node"><title>Node1</title>
<polygon fill="#bfbfbf" stroke="black" points="0,-23.5 0,-51.5 158.305,-51.5 158.305,-23.5 0,-23.5"/>
<text text-anchor="start" x="8" y="-39.5" font-family="Helvetica,sans-Serif" font-size="10.00">MK::KVDatabase::keepMinLong</text>
<text text-anchor="middle" x="79.1523" y="-29.5" font-family="Helvetica,sans-Serif" font-size="10.00">ValueForKey</text>
</g>
<!-- Node2 -->
<g id="node2" class="node"><title>Node2</title>
<g id="a_node2"><a xlink:href="namespace_m_k_1_1_k_v_database.html#a4058098a441fb6e62605317242ebb54a" target="_top" xlink:title="Sets given key in database to the result of applying given binary operation to previous value (defaul...">
<polygon fill="white" stroke="black" points="194.305,-23.5 194.305,-51.5 407.463,-51.5 407.463,-23.5 194.305,-23.5"/>
<text text-anchor="start" x="202.305" y="-39.5" font-family="Helvetica,sans-Serif" font-size="10.00">MK::KVDatabase::storeApplying</text>
<text text-anchor="middle" x="300.884" y="-29.5" font-family="Helvetica,sans-Serif" font-size="10.00">BinaryOperationAndReturningPreviousValue</text>
</a>
</g>
</g>
<!-- Node1&#45;&gt;Node2 -->
<g id="edge1" class="edge"><title>Node1&#45;&gt;Node2</title>
<path fill="none" stroke="midnightblue" d="M158.55,-37.5C166.877,-37.5 175.467,-37.5 184.107,-37.5"/>
<polygon fill="midnightblue" stroke="midnightblue" points="184.258,-41.0001 194.258,-37.5 184.258,-34.0001 184.258,-41.0001"/>
</g>
<!-- Node3 -->
<g id="node3" class="node"><title>Node3</title>
<g id="a_node3"><a xlink:href="namespace_m_k_1_1_k_v_database.html#a767b41659c2ee79a635285b4ae078aa7" target="_top" xlink:title="Returns long value associated with given key. ">
<polygon fill="white" stroke="black" points="443.463,-47.5 443.463,-75.5 602.71,-75.5 602.71,-47.5 443.463,-47.5"/>
<text text-anchor="start" x="451.463" y="-63.5" font-family="Helvetica,sans-Serif" font-size="10.00">MK::KVDatabase::getLongValue</text>
<text text-anchor="middle" x="523.086" y="-53.5" font-family="Helvetica,sans-Serif" font-size="10.00">ForKey</text>
</a>
</g>
</g>
<!-- Node2&#45;&gt;Node3 -->
<g id="edge2" class="edge"><title>Node2&#45;&gt;Node3</title>
<path fill="none" stroke="midnightblue" d="M407.47,-49.0079C416.024,-49.9402 424.614,-50.8764 433.033,-51.794"/>
<polygon fill="midnightblue" stroke="midnightblue" points="432.884,-55.2984 443.204,-52.9026 433.642,-48.3396 432.884,-55.2984"/>
</g>
<!-- Node4 -->
<g id="node4" class="node"><title>Node4</title>
<g id="a_node4"><a xlink:href="namespace_m_k_1_1_k_v_database.html#a8c40584219ca43eb9a2e65f14e328816" target="_top" xlink:title="Sets long value for given key. ">
<polygon fill="white" stroke="black" points="443.744,-0.5 443.744,-28.5 602.429,-28.5 602.429,-0.5 443.744,-0.5"/>
<text text-anchor="start" x="451.744" y="-16.5" font-family="Helvetica,sans-Serif" font-size="10.00">MK::KVDatabase::setLongValue</text>
<text text-anchor="middle" x="523.086" y="-6.5" font-family="Helvetica,sans-Serif" font-size="10.00">ForKey</text>
</a>
</g>
</g>
<!-- Node2&#45;&gt;Node4 -->
<g id="edge3" class="edge"><title>Node2&#45;&gt;Node4</title>
<path fill="none" stroke="midnightblue" d="M407.47,-26.4716C416.197,-25.5601 424.962,-24.6446 433.545,-23.7481"/>
<polygon fill="midnightblue" stroke="midnightblue" points="433.941,-27.2259 443.523,-22.7059 433.214,-20.2637 433.941,-27.2259"/>
</g>
</g>
</svg>
