<?xml version="1.0" encoding="UTF-8" standalone="no"?>
<!DOCTYPE svg PUBLIC "-//W3C//DTD SVG 1.1//EN"
 "http://www.w3.org/Graphics/SVG/1.1/DTD/svg11.dtd">
<!-- Generated by graphviz version 2.38.0 (20140413.2041)
 -->
<!-- Title: MK::AdKit::showBottomBanner Pages: 1 -->
<svg width="728pt" height="85pt"
 viewBox="0.00 0.00 728.41 85.00" xmlns="http://www.w3.org/2000/svg" xmlns:xlink="http://www.w3.org/1999/xlink">
<g id="graph0" class="graph" transform="scale(1 1) rotate(0) translate(4 81)">
<title>MK::AdKit::showBottomBanner</title>
<polygon fill="white" stroke="none" points="-4,4 -4,-81 724.413,-81 724.413,4 -4,4"/>
<!-- Node1 -->
<g id="node1" class="node"><title>Node1</title>
<polygon fill="#bfbfbf" stroke="black" points="0,-39.5 0,-57.5 153.285,-57.5 153.285,-39.5 0,-39.5"/>
<text text-anchor="middle" x="76.6426" y="-45.5" font-family="Helvetica,sans-Serif" font-size="10.00">MK::AdKit::showBottomBanner</text>
</g>
<!-- Node2 -->
<g id="node2" class="node"><title>Node2</title>
<g id="a_node2"><a xlink:href="namespace_m_k_1_1_ad_kit.html#a526610f0f5a5595280154895818c48de" target="_top" xlink:title="Shows a bottom banner ad. ">
<polygon fill="white" stroke="black" points="189.285,-58.5 189.285,-76.5 348.132,-76.5 348.132,-58.5 189.285,-58.5"/>
<text text-anchor="middle" x="268.708" y="-64.5" font-family="Helvetica,sans-Serif" font-size="10.00">MK::AdKit::_showBottomBanner</text>
</a>
</g>
</g>
<!-- Node1&#45;&gt;Node2 -->
<g id="edge1" class="edge"><title>Node1&#45;&gt;Node2</title>
<path fill="none" stroke="midnightblue" d="M153.308,-56.0639C161.79,-56.9118 170.487,-57.7813 179.114,-58.6436"/>
<polygon fill="midnightblue" stroke="midnightblue" points="178.892,-62.1388 189.19,-59.6509 179.588,-55.1735 178.892,-62.1388"/>
</g>
<!-- Node3 -->
<g id="node3" class="node"><title>Node3</title>
<g id="a_node3"><a xlink:href="namespace_m_k_1_1_ad_kit.html#a1abd645a384f31dc1421e82772cfb472" target="_top" xlink:title="Returns whether ads are enabled for this user or not. ">
<polygon fill="white" stroke="black" points="217.906,-21.5 217.906,-39.5 319.511,-39.5 319.511,-21.5 217.906,-21.5"/>
<text text-anchor="middle" x="268.708" y="-27.5" font-family="Helvetica,sans-Serif" font-size="10.00">MK::AdKit::enabled</text>
</a>
</g>
</g>
<!-- Node1&#45;&gt;Node3 -->
<g id="edge2" class="edge"><title>Node1&#45;&gt;Node3</title>
<path fill="none" stroke="midnightblue" d="M153.308,-41.3342C171.225,-39.6374 190.102,-37.8497 207.242,-36.2265"/>
<polygon fill="midnightblue" stroke="midnightblue" points="208.04,-39.6666 217.665,-35.2393 207.38,-32.6978 208.04,-39.6666"/>
</g>
<!-- Node4 -->
<g id="node4" class="node"><title>Node4</title>
<g id="a_node4"><a xlink:href="namespace_m_k_1_1_k_v_database.html#a767b41659c2ee79a635285b4ae078aa7" target="_top" xlink:title="Returns long value associated with given key. ">
<polygon fill="white" stroke="black" points="384.132,-37.5 384.132,-65.5 543.379,-65.5 543.379,-37.5 384.132,-37.5"/>
<text text-anchor="start" x="392.132" y="-53.5" font-family="Helvetica,sans-Serif" font-size="10.00">MK::KVDatabase::getLongValue</text>
<text text-anchor="middle" x="463.755" y="-43.5" font-family="Helvetica,sans-Serif" font-size="10.00">ForKey</text>
</a>
</g>
</g>
<!-- Node3&#45;&gt;Node4 -->
<g id="edge3" class="edge"><title>Node3&#45;&gt;Node4</title>
<path fill="none" stroke="midnightblue" d="M319.674,-35.9353C336.246,-37.7381 355.226,-39.8027 373.827,-41.8262"/>
<polygon fill="midnightblue" stroke="midnightblue" points="373.484,-45.3094 383.803,-42.9115 374.241,-38.3505 373.484,-45.3094"/>
</g>
<!-- Node5 -->
<g id="node5" class="node"><title>Node5</title>
<g id="a_node5"><a xlink:href="namespace_m_k_1_1_device.html#a983d07fad256fb9e289b985cb4237efa" target="_top" xlink:title="Returns whether this device is running OS X or not. ">
<polygon fill="white" stroke="black" points="413.246,-0.5 413.246,-18.5 514.265,-18.5 514.265,-0.5 413.246,-0.5"/>
<text text-anchor="middle" x="463.755" y="-6.5" font-family="Helvetica,sans-Serif" font-size="10.00">MK::Device::isOSX</text>
</a>
</g>
</g>
<!-- Node3&#45;&gt;Node5 -->
<g id="edge4" class="edge"><title>Node3&#45;&gt;Node5</title>
<path fill="none" stroke="midnightblue" d="M319.674,-25.0647C345.133,-22.2952 376.274,-18.9076 402.995,-16.0008"/>
<polygon fill="midnightblue" stroke="midnightblue" points="403.437,-19.4736 412.999,-14.9126 402.679,-12.5146 403.437,-19.4736"/>
</g>
<!-- Node6 -->
<g id="node6" class="node"><title>Node6</title>
<g id="a_node6"><a xlink:href="namespace_m_k_1_1_device.html#a7c83a89bef610abaa7ada09d38c2f3fb" target="_top" xlink:title="Returns current platform. ">
<polygon fill="white" stroke="black" points="579.379,-0.5 579.379,-18.5 720.413,-18.5 720.413,-0.5 579.379,-0.5"/>
<text text-anchor="middle" x="649.896" y="-6.5" font-family="Helvetica,sans-Serif" font-size="10.00">MK::Device::currentPlatform</text>
</a>
</g>
</g>
<!-- Node5&#45;&gt;Node6 -->
<g id="edge5" class="edge"><title>Node5&#45;&gt;Node6</title>
<path fill="none" stroke="midnightblue" d="M514.586,-9.5C531.392,-9.5 550.595,-9.5 569.121,-9.5"/>
<polygon fill="midnightblue" stroke="midnightblue" points="569.324,-13.0001 579.324,-9.5 569.324,-6.0001 569.324,-13.0001"/>
</g>
</g>
</svg>
