<?xml version="1.0" encoding="UTF-8" standalone="no"?>
<!DOCTYPE svg PUBLIC "-//W3C//DTD SVG 1.1//EN"
 "http://www.w3.org/Graphics/SVG/1.1/DTD/svg11.dtd">
<!-- Generated by graphviz version 2.38.0 (20140413.2041)
 -->
<!-- Title: MK::IAPKit::_buyIfPossible Pages: 1 -->
<svg width="336pt" height="84pt"
 viewBox="0.00 0.00 336.12 84.00" xmlns="http://www.w3.org/2000/svg" xmlns:xlink="http://www.w3.org/1999/xlink">
<g id="graph0" class="graph" transform="scale(1 1) rotate(0) translate(4 80)">
<title>MK::IAPKit::_buyIfPossible</title>
<polygon fill="white" stroke="none" points="-4,4 -4,-80 332.122,-80 332.122,4 -4,4"/>
<!-- Node1 -->
<g id="node1" class="node"><title>Node1</title>
<polygon fill="#bfbfbf" stroke="black" points="0,-33.5 0,-51.5 134.94,-51.5 134.94,-33.5 0,-33.5"/>
<text text-anchor="middle" x="67.4702" y="-39.5" font-family="Helvetica,sans-Serif" font-size="10.00">MK::IAPKit::_buyIfPossible</text>
</g>
<!-- Node2 -->
<g id="node2" class="node"><title>Node2</title>
<g id="a_node2"><a xlink:href="namespace_m_k_1_1_i_a_p_kit.html#a244b106e812be9028b3c9c23f9f51752" target="_top" xlink:title="Tries to buy given item, calling callback on finished. ">
<polygon fill="white" stroke="black" points="184.842,-57.5 184.842,-75.5 314.221,-75.5 314.221,-57.5 184.842,-57.5"/>
<text text-anchor="middle" x="249.531" y="-63.5" font-family="Helvetica,sans-Serif" font-size="10.00">MK::IAPKit::buyIfPossible</text>
</a>
</g>
</g>
<!-- Node1&#45;&gt;Node2 -->
<g id="edge1" class="edge"><title>Node1&#45;&gt;Node2</title>
<path fill="none" stroke="midnightblue" d="M145.013,-52.7022C158.224,-54.4631 171.831,-56.2768 184.662,-57.987"/>
<polygon fill="midnightblue" stroke="midnightblue" points="145.382,-49.2205 135.007,-51.3685 144.457,-56.1591 145.382,-49.2205"/>
</g>
<!-- Node3 -->
<g id="node3" class="node"><title>Node3</title>
<g id="a_node3"><a xlink:href="___i_a_p_kit_8cpp.html#a7f86d0f13644c98e90ec2118aa3ddf56" target="_top" xlink:title="Java_org_cocos2dx_cpp\l_AppActivity_callCppPurchases\lCallback">
<polygon fill="white" stroke="black" points="170.94,-0.5 170.94,-38.5 328.122,-38.5 328.122,-0.5 170.94,-0.5"/>
<text text-anchor="start" x="178.94" y="-26.5" font-family="Helvetica,sans-Serif" font-size="10.00">Java_org_cocos2dx_cpp</text>
<text text-anchor="start" x="178.94" y="-16.5" font-family="Helvetica,sans-Serif" font-size="10.00">_AppActivity_callCppPurchases</text>
<text text-anchor="middle" x="249.531" y="-6.5" font-family="Helvetica,sans-Serif" font-size="10.00">Callback</text>
</a>
</g>
</g>
<!-- Node1&#45;&gt;Node3 -->
<g id="edge2" class="edge"><title>Node1&#45;&gt;Node3</title>
<path fill="none" stroke="midnightblue" d="M144.926,-32.7339C153.457,-31.6442 162.155,-30.5332 170.703,-29.4413"/>
<polygon fill="midnightblue" stroke="midnightblue" points="144.483,-29.2621 135.007,-34.001 145.37,-36.2057 144.483,-29.2621"/>
</g>
</g>
</svg>
