<?xml version="1.0" encoding="UTF-8" standalone="no"?>
<!DOCTYPE svg PUBLIC "-//W3C//DTD SVG 1.1//EN"
 "http://www.w3.org/Graphics/SVG/1.1/DTD/svg11.dtd">
<!-- Generated by graphviz version 2.38.0 (20140413.2041)
 -->
<!-- Title: MK::IAPKit::buyButtonTitleForProduct Pages: 1 -->
<svg width="316pt" height="74pt"
 viewBox="0.00 0.00 316.48 74.00" xmlns="http://www.w3.org/2000/svg" xmlns:xlink="http://www.w3.org/1999/xlink">
<g id="graph0" class="graph" transform="scale(1 1) rotate(0) translate(4 70)">
<title>MK::IAPKit::buyButtonTitleForProduct</title>
<polygon fill="white" stroke="none" points="-4,4 -4,-70 312.483,-70 312.483,4 -4,4"/>
<!-- Node1 -->
<g id="node1" class="node"><title>Node1</title>
<polygon fill="#bfbfbf" stroke="black" points="0,-16.5 0,-44.5 133.461,-44.5 133.461,-16.5 0,-16.5"/>
<text text-anchor="start" x="8" y="-32.5" font-family="Helvetica,sans-Serif" font-size="10.00">MK::IAPKit::buyButtonTitle</text>
<text text-anchor="middle" x="66.7305" y="-22.5" font-family="Helvetica,sans-Serif" font-size="10.00">ForProduct</text>
</g>
<!-- Node2 -->
<g id="node2" class="node"><title>Node2</title>
<g id="a_node2"><a xlink:href="namespace_m_k_1_1_i_a_p_kit.html#a773f26204d8a695ed1c9c2221db6823c" target="_top" xlink:title="Returns title of buy button for product with given identifier. ">
<polygon fill="white" stroke="black" points="169.461,-37.5 169.461,-65.5 308.483,-65.5 308.483,-37.5 169.461,-37.5"/>
<text text-anchor="start" x="177.461" y="-53.5" font-family="Helvetica,sans-Serif" font-size="10.00">MK::IAPKit::_buyButtonTitle</text>
<text text-anchor="middle" x="238.972" y="-43.5" font-family="Helvetica,sans-Serif" font-size="10.00">ForProduct</text>
</a>
</g>
</g>
<!-- Node1&#45;&gt;Node2 -->
<g id="edge1" class="edge"><title>Node1&#45;&gt;Node2</title>
<path fill="none" stroke="midnightblue" d="M133.55,-38.6191C141.957,-39.6561 150.628,-40.7258 159.213,-41.7847"/>
<polygon fill="midnightblue" stroke="midnightblue" points="158.876,-45.2697 169.23,-43.0203 159.733,-38.3223 158.876,-45.2697"/>
</g>
<!-- Node3 -->
<g id="node3" class="node"><title>Node3</title>
<g id="a_node3"><a xlink:href="namespace_m_k_1_1_i_a_p_kit.html#aaaf94652bf53567cfedcd0ef482858f8" target="_top" xlink:title="Returns whether IAPKit is enabled or not. ">
<polygon fill="white" stroke="black" points="186.226,-0.5 186.226,-18.5 291.718,-18.5 291.718,-0.5 186.226,-0.5"/>
<text text-anchor="middle" x="238.972" y="-6.5" font-family="Helvetica,sans-Serif" font-size="10.00">MK::IAPKit::enabled</text>
</a>
</g>
</g>
<!-- Node1&#45;&gt;Node3 -->
<g id="edge2" class="edge"><title>Node1&#45;&gt;Node3</title>
<path fill="none" stroke="midnightblue" d="M133.55,-22.3809C147.419,-20.6701 162.008,-18.8704 175.74,-17.1766"/>
<polygon fill="midnightblue" stroke="midnightblue" points="176.551,-20.6032 186.047,-15.9052 175.694,-13.6559 176.551,-20.6032"/>
</g>
</g>
</svg>
