<?xml version="1.0" encoding="UTF-8" standalone="no"?>
<!DOCTYPE svg PUBLIC "-//W3C//DTD SVG 1.1//EN"
 "http://www.w3.org/Graphics/SVG/1.1/DTD/svg11.dtd">
<!-- Generated by graphviz version 2.38.0 (20140413.2041)
 -->
<!-- Title: MK::Analytics::logLevelStart Pages: 1 -->
<svg width="309pt" height="74pt"
 viewBox="0.00 0.00 309.44 74.00" xmlns="http://www.w3.org/2000/svg" xmlns:xlink="http://www.w3.org/1999/xlink">
<g id="graph0" class="graph" transform="scale(1 1) rotate(0) translate(4 70)">
<title>MK::Analytics::logLevelStart</title>
<polygon fill="white" stroke="none" points="-4,4 -4,-70 305.438,-70 305.438,4 -4,4"/>
<!-- Node1 -->
<g id="node1" class="node"><title>Node1</title>
<polygon fill="#bfbfbf" stroke="black" points="0,-21.5 0,-39.5 140.497,-39.5 140.497,-21.5 0,-21.5"/>
<text text-anchor="middle" x="70.2485" y="-27.5" font-family="Helvetica,sans-Serif" font-size="10.00">MK::Analytics::logLevelStart</text>
</g>
<!-- Node2 -->
<g id="node2" class="node"><title>Node2</title>
<g id="a_node2"><a xlink:href="namespace_m_k_1_1_analytics.html#a9e78b00c2896743d7d7f4a574ec13856" target="_top" xlink:title="Logs start of level with given name/identifier and given optional additional attributes. ">
<polygon fill="white" stroke="black" points="176.497,-37.5 176.497,-65.5 301.438,-65.5 301.438,-37.5 176.497,-37.5"/>
<text text-anchor="start" x="184.497" y="-53.5" font-family="Helvetica,sans-Serif" font-size="10.00">MK::Analytics::_logLevel</text>
<text text-anchor="middle" x="238.967" y="-43.5" font-family="Helvetica,sans-Serif" font-size="10.00">Start</text>
</a>
</g>
</g>
<!-- Node1&#45;&gt;Node2 -->
<g id="edge1" class="edge"><title>Node1&#45;&gt;Node2</title>
<path fill="none" stroke="midnightblue" d="M140.504,-39.2235C149.056,-40.3007 157.812,-41.4036 166.398,-42.4851"/>
<polygon fill="midnightblue" stroke="midnightblue" points="166.018,-45.9648 176.377,-43.742 166.893,-39.0196 166.018,-45.9648"/>
</g>
<!-- Node3 -->
<g id="node3" class="node"><title>Node3</title>
<g id="a_node3"><a xlink:href="namespace_m_k_1_1_analytics.html#a06ed59ccf83270d8c89455e41efde314" target="_top" xlink:title="Returns whether Analytics logging in enbled or not. ">
<polygon fill="white" stroke="black" points="180.108,-0.5 180.108,-18.5 297.827,-18.5 297.827,-0.5 180.108,-0.5"/>
<text text-anchor="middle" x="238.967" y="-6.5" font-family="Helvetica,sans-Serif" font-size="10.00">MK::Analytics::enabled</text>
</a>
</g>
</g>
<!-- Node1&#45;&gt;Node3 -->
<g id="edge2" class="edge"><title>Node1&#45;&gt;Node3</title>
<path fill="none" stroke="midnightblue" d="M140.504,-21.7765C150.265,-20.5471 160.291,-19.2841 170.027,-18.0578"/>
<polygon fill="midnightblue" stroke="midnightblue" points="170.56,-21.5185 180.044,-16.7961 169.685,-14.5733 170.56,-21.5185"/>
</g>
</g>
</svg>
