<?xml version="1.0" encoding="UTF-8" standalone="no"?>
<!DOCTYPE svg PUBLIC "-//W3C//DTD SVG 1.1//EN"
 "http://www.w3.org/Graphics/SVG/1.1/DTD/svg11.dtd">
<!-- Generated by graphviz version 2.38.0 (20140413.2041)
 -->
<!-- Title: MK::AdKit::showVideoReward Pages: 1 -->
<svg width="1228pt" height="174pt"
 viewBox="0.00 0.00 1228.17 174.00" xmlns="http://www.w3.org/2000/svg" xmlns:xlink="http://www.w3.org/1999/xlink">
<g id="graph0" class="graph" transform="scale(1 1) rotate(0) translate(4 170)">
<title>MK::AdKit::showVideoReward</title>
<polygon fill="white" stroke="none" points="-4,4 -4,-170 1224.17,-170 1224.17,4 -4,4"/>
<!-- Node1 -->
<g id="node1" class="node"><title>Node1</title>
<polygon fill="#bfbfbf" stroke="black" points="0,-76.5 0,-94.5 149.218,-94.5 149.218,-76.5 0,-76.5"/>
<text text-anchor="middle" x="74.6089" y="-82.5" font-family="Helvetica,sans-Serif" font-size="10.00">MK::AdKit::showVideoReward</text>
</g>
<!-- Node2 -->
<g id="node2" class="node"><title>Node2</title>
<g id="a_node2"><a xlink:href="namespace_m_k_1_1_ad_kit.html#a89f8e4bc4d9c7d6b75f3d785ef1d3dab" target="_top" xlink:title="Shows a video reward ad. ">
<polygon fill="white" stroke="black" points="192.72,-95.5 192.72,-113.5 347.5,-113.5 347.5,-95.5 192.72,-95.5"/>
<text text-anchor="middle" x="270.11" y="-101.5" font-family="Helvetica,sans-Serif" font-size="10.00">MK::AdKit::_showVideoReward</text>
</a>
</g>
</g>
<!-- Node1&#45;&gt;Node2 -->
<g id="edge1" class="edge"><title>Node1&#45;&gt;Node2</title>
<path fill="none" stroke="midnightblue" d="M149.315,-92.7373C160.191,-93.8052 171.479,-94.9135 182.585,-96.0041"/>
<polygon fill="midnightblue" stroke="midnightblue" points="182.423,-99.5049 192.717,-96.9989 183.107,-92.5384 182.423,-99.5049"/>
</g>
<!-- Node3 -->
<g id="node3" class="node"><title>Node3</title>
<g id="a_node3"><a xlink:href="namespace_m_k_1_1_ad_kit.html#a6bca88e69dd5dc1616d521b88eb953cc" target="_top" xlink:title="Returns whether this user has video rewards available or not. ">
<polygon fill="white" stroke="black" points="185.218,-58.5 185.218,-76.5 355.002,-76.5 355.002,-58.5 185.218,-58.5"/>
<text text-anchor="middle" x="270.11" y="-64.5" font-family="Helvetica,sans-Serif" font-size="10.00">MK::AdKit::videoRewardsAvailable</text>
</a>
</g>
</g>
<!-- Node1&#45;&gt;Node3 -->
<g id="edge2" class="edge"><title>Node1&#45;&gt;Node3</title>
<path fill="none" stroke="midnightblue" d="M149.315,-78.6436C157.683,-77.8653 166.294,-77.0642 174.879,-76.2656"/>
<polygon fill="midnightblue" stroke="midnightblue" points="175.296,-79.742 184.929,-75.3307 174.648,-72.7721 175.296,-79.742"/>
</g>
<!-- Node4 -->
<g id="node4" class="node"><title>Node4</title>
<g id="a_node4"><a xlink:href="namespace_m_k_1_1_ad_kit.html#a1abd645a384f31dc1421e82772cfb472" target="_top" xlink:title="Returns whether ads are enabled for this user or not. ">
<polygon fill="white" stroke="black" points="410.458,-100.5 410.458,-118.5 512.063,-118.5 512.063,-100.5 410.458,-100.5"/>
<text text-anchor="middle" x="461.26" y="-106.5" font-family="Helvetica,sans-Serif" font-size="10.00">MK::AdKit::enabled</text>
</a>
</g>
</g>
<!-- Node3&#45;&gt;Node4 -->
<g id="edge3" class="edge"><title>Node3&#45;&gt;Node4</title>
<path fill="none" stroke="midnightblue" d="M311.687,-76.5101C340.263,-82.8551 378.729,-91.3963 409.361,-98.1981"/>
<polygon fill="midnightblue" stroke="midnightblue" points="408.903,-101.682 419.424,-100.432 410.42,-94.848 408.903,-101.682"/>
</g>
<!-- Node8 -->
<g id="node8" class="node"><title>Node8</title>
<g id="a_node8"><a xlink:href="namespace_m_k_1_1_game_kit.html#ad65cc8a24b47cbb094481c7d0e50d505" target="_top" xlink:title="On Android returns whether Google Play Games is available (true) or not. ">
<polygon fill="white" stroke="black" points="396.939,-58.5 396.939,-76.5 525.581,-76.5 525.581,-58.5 396.939,-58.5"/>
<text text-anchor="middle" x="461.26" y="-64.5" font-family="Helvetica,sans-Serif" font-size="10.00">MK::GameKit::isAvailable</text>
</a>
</g>
</g>
<!-- Node3&#45;&gt;Node8 -->
<g id="edge7" class="edge"><title>Node3&#45;&gt;Node8</title>
<path fill="none" stroke="midnightblue" d="M355.176,-67.5C365.684,-67.5 376.367,-67.5 386.698,-67.5"/>
<polygon fill="midnightblue" stroke="midnightblue" points="386.892,-71.0001 396.892,-67.5 386.892,-64.0001 386.892,-71.0001"/>
</g>
<!-- Node13 -->
<g id="node13" class="node"><title>Node13</title>
<g id="a_node13"><a xlink:href="namespace_m_k_1_1_ad_kit.html#a3ec27cc7d527c70185740892a183e8cb" target="_top" xlink:title="MK::AdKit::Java_org\l_cocos2dx_cpp_AppActivity\l_callCppRewardCallback">
<polygon fill="white" stroke="black" points="391.002,-1.5 391.002,-39.5 531.519,-39.5 531.519,-1.5 391.002,-1.5"/>
<text text-anchor="start" x="399.002" y="-27.5" font-family="Helvetica,sans-Serif" font-size="10.00">MK::AdKit::Java_org</text>
<text text-anchor="start" x="399.002" y="-17.5" font-family="Helvetica,sans-Serif" font-size="10.00">_cocos2dx_cpp_AppActivity</text>
<text text-anchor="middle" x="461.26" y="-7.5" font-family="Helvetica,sans-Serif" font-size="10.00">_callCppRewardCallback</text>
</a>
</g>
</g>
<!-- Node3&#45;&gt;Node13 -->
<g id="edge13" class="edge"><title>Node3&#45;&gt;Node13</title>
<path fill="none" stroke="midnightblue" d="M307.58,-58.4379C328.522,-53.2342 355.671,-46.4884 381.256,-40.131"/>
<polygon fill="midnightblue" stroke="midnightblue" points="382.108,-43.5258 390.969,-37.7175 380.42,-36.7324 382.108,-43.5258"/>
</g>
<!-- Node5 -->
<g id="node5" class="node"><title>Node5</title>
<g id="a_node5"><a xlink:href="namespace_m_k_1_1_k_v_database.html#a767b41659c2ee79a635285b4ae078aa7" target="_top" xlink:title="Returns long value associated with given key. ">
<polygon fill="white" stroke="black" points="567.519,-137.5 567.519,-165.5 726.766,-165.5 726.766,-137.5 567.519,-137.5"/>
<text text-anchor="start" x="575.519" y="-153.5" font-family="Helvetica,sans-Serif" font-size="10.00">MK::KVDatabase::getLongValue</text>
<text text-anchor="middle" x="647.142" y="-143.5" font-family="Helvetica,sans-Serif" font-size="10.00">ForKey</text>
</a>
</g>
</g>
<!-- Node4&#45;&gt;Node5 -->
<g id="edge4" class="edge"><title>Node4&#45;&gt;Node5</title>
<path fill="none" stroke="midnightblue" d="M501.708,-118.51C523.042,-123.383 550.047,-129.551 574.918,-135.232"/>
<polygon fill="midnightblue" stroke="midnightblue" points="574.163,-138.65 584.691,-137.464 575.722,-131.825 574.163,-138.65"/>
</g>
<!-- Node6 -->
<g id="node6" class="node"><title>Node6</title>
<g id="a_node6"><a xlink:href="namespace_m_k_1_1_device.html#a983d07fad256fb9e289b985cb4237efa" target="_top" xlink:title="Returns whether this device is running OS X or not. ">
<polygon fill="white" stroke="black" points="596.632,-100.5 596.632,-118.5 697.652,-118.5 697.652,-100.5 596.632,-100.5"/>
<text text-anchor="middle" x="647.142" y="-106.5" font-family="Helvetica,sans-Serif" font-size="10.00">MK::Device::isOSX</text>
</a>
</g>
</g>
<!-- Node4&#45;&gt;Node6 -->
<g id="edge5" class="edge"><title>Node4&#45;&gt;Node6</title>
<path fill="none" stroke="midnightblue" d="M512.507,-109.5C535.396,-109.5 562.658,-109.5 586.572,-109.5"/>
<polygon fill="midnightblue" stroke="midnightblue" points="586.593,-113 596.593,-109.5 586.593,-106 586.593,-113"/>
</g>
<!-- Node7 -->
<g id="node7" class="node"><title>Node7</title>
<g id="a_node7"><a xlink:href="namespace_m_k_1_1_device.html#a7c83a89bef610abaa7ada09d38c2f3fb" target="_top" xlink:title="Returns current platform. ">
<polygon fill="white" stroke="black" points="766.113,-100.5 766.113,-118.5 907.147,-118.5 907.147,-100.5 766.113,-100.5"/>
<text text-anchor="middle" x="836.63" y="-106.5" font-family="Helvetica,sans-Serif" font-size="10.00">MK::Device::currentPlatform</text>
</a>
</g>
</g>
<!-- Node6&#45;&gt;Node7 -->
<g id="edge6" class="edge"><title>Node6&#45;&gt;Node7</title>
<path fill="none" stroke="midnightblue" d="M697.893,-109.5C715.63,-109.5 736.085,-109.5 755.713,-109.5"/>
<polygon fill="midnightblue" stroke="midnightblue" points="755.883,-113 765.883,-109.5 755.883,-106 755.883,-113"/>
</g>
<!-- Node9 -->
<g id="node9" class="node"><title>Node9</title>
<g id="a_node9"><a xlink:href="namespace_m_k_1_1_game_kit.html#abb3b0052dac094d7e492bb0cbb1a1e8b" target="_top" xlink:title="MK::GameKit::Java_org\l_cocos2dx_cpp_AppActivity\l_callCppScoreCallback">
<polygon fill="white" stroke="black" points="576.884,-43.5 576.884,-81.5 717.4,-81.5 717.4,-43.5 576.884,-43.5"/>
<text text-anchor="start" x="584.884" y="-69.5" font-family="Helvetica,sans-Serif" font-size="10.00">MK::GameKit::Java_org</text>
<text text-anchor="start" x="584.884" y="-59.5" font-family="Helvetica,sans-Serif" font-size="10.00">_cocos2dx_cpp_AppActivity</text>
<text text-anchor="middle" x="647.142" y="-49.5" font-family="Helvetica,sans-Serif" font-size="10.00">_callCppScoreCallback</text>
</a>
</g>
</g>
<!-- Node8&#45;&gt;Node9 -->
<g id="edge8" class="edge"><title>Node8&#45;&gt;Node9</title>
<path fill="none" stroke="midnightblue" d="M525.799,-65.7723C538.87,-65.4169 552.789,-65.0384 566.35,-64.6697"/>
<polygon fill="midnightblue" stroke="midnightblue" points="566.728,-68.1608 576.629,-64.3901 566.538,-61.1633 566.728,-68.1608"/>
</g>
<!-- Node10 -->
<g id="node10" class="node"><title>Node10</title>
<g id="a_node10"><a xlink:href="namespace_m_k_1_1_log.html#a3e84a309c158873fecff57e1db770c9a" target="_top" xlink:title="Logs a debug message that will not appear also in release builds. ">
<polygon fill="white" stroke="black" points="1133.56,-34.5 1133.56,-52.5 1220.17,-52.5 1220.17,-34.5 1133.56,-34.5"/>
<text text-anchor="middle" x="1176.87" y="-40.5" font-family="Helvetica,sans-Serif" font-size="10.00">MK::Log::debug</text>
</a>
</g>
</g>
<!-- Node9&#45;&gt;Node10 -->
<g id="edge9" class="edge"><title>Node9&#45;&gt;Node10</title>
<path fill="none" stroke="midnightblue" d="M717.448,-60.5669C805.735,-58.0169 963.015,-53.1815 1097.56,-47.5 1105.78,-47.153 1114.48,-46.7469 1122.98,-46.329"/>
<polygon fill="midnightblue" stroke="midnightblue" points="1123.39,-49.813 1133.2,-45.8165 1123.04,-42.8218 1123.39,-49.813"/>
</g>
<!-- Node11 -->
<g id="node11" class="node"><title>Node11</title>
<g id="a_node11"><a xlink:href="namespace_m_k_1_1_game_kit.html#a148ebf1481b3aa5094f533f07b62395c" target="_top" xlink:title="MK::GameKit::Java_org\l_cocos2dx_cpp_AppActivity\l_callCppFriendScoreCallback">
<polygon fill="white" stroke="black" points="762.766,-0.5 762.766,-38.5 910.494,-38.5 910.494,-0.5 762.766,-0.5"/>
<text text-anchor="start" x="770.766" y="-26.5" font-family="Helvetica,sans-Serif" font-size="10.00">MK::GameKit::Java_org</text>
<text text-anchor="start" x="770.766" y="-16.5" font-family="Helvetica,sans-Serif" font-size="10.00">_cocos2dx_cpp_AppActivity</text>
<text text-anchor="middle" x="836.63" y="-6.5" font-family="Helvetica,sans-Serif" font-size="10.00">_callCppFriendScoreCallback</text>
</a>
</g>
</g>
<!-- Node9&#45;&gt;Node11 -->
<g id="edge10" class="edge"><title>Node9&#45;&gt;Node11</title>
<path fill="none" stroke="midnightblue" d="M717.423,-46.6106C728.914,-43.9752 740.932,-41.2189 752.718,-38.5157"/>
<polygon fill="midnightblue" stroke="midnightblue" points="753.583,-41.9082 762.548,-36.2613 752.018,-35.0854 753.583,-41.9082"/>
</g>
<!-- Node12 -->
<g id="node12" class="node"><title>Node12</title>
<g id="a_node12"><a xlink:href="namespace_m_k_1_1_game_kit.html#aeea3e0c832dd9d93302d16f38b76c64e" target="_top" xlink:title="MK::GameKit::Java_org\l_cocos2dx_cpp_AppActivity\l_callCppAchievementCallback">
<polygon fill="white" stroke="black" points="946.494,-0.5 946.494,-38.5 1097.56,-38.5 1097.56,-0.5 946.494,-0.5"/>
<text text-anchor="start" x="954.494" y="-26.5" font-family="Helvetica,sans-Serif" font-size="10.00">MK::GameKit::Java_org</text>
<text text-anchor="start" x="954.494" y="-16.5" font-family="Helvetica,sans-Serif" font-size="10.00">_cocos2dx_cpp_AppActivity</text>
<text text-anchor="middle" x="1022.03" y="-6.5" font-family="Helvetica,sans-Serif" font-size="10.00">_callCppAchievementCallback</text>
</a>
</g>
</g>
<!-- Node11&#45;&gt;Node12 -->
<g id="edge11" class="edge"><title>Node11&#45;&gt;Node12</title>
<path fill="none" stroke="midnightblue" d="M910.641,-19.5C919.113,-19.5 927.807,-19.5 936.417,-19.5"/>
<polygon fill="midnightblue" stroke="midnightblue" points="936.468,-23.0001 946.468,-19.5 936.468,-16.0001 936.468,-23.0001"/>
</g>
<!-- Node12&#45;&gt;Node10 -->
<g id="edge12" class="edge"><title>Node12&#45;&gt;Node10</title>
<path fill="none" stroke="midnightblue" d="M1097.66,-31.2188C1106.38,-32.5892 1115.14,-33.9645 1123.48,-35.2732"/>
<polygon fill="midnightblue" stroke="midnightblue" points="1122.98,-38.7379 1133.4,-36.8316 1124.06,-31.8226 1122.98,-38.7379"/>
</g>
</g>
</svg>
