<?xml version="1.0" encoding="UTF-8" standalone="no"?>
<!DOCTYPE svg PUBLIC "-//W3C//DTD SVG 1.1//EN"
 "http://www.w3.org/Graphics/SVG/1.1/DTD/svg11.dtd">
<!-- Generated by graphviz version 2.38.0 (20140413.2041)
 -->
<!-- Title: MK::Analytics::enabled Pages: 1 -->
<svg width="843pt" height="124pt"
 viewBox="0.00 0.00 842.66 124.00" xmlns="http://www.w3.org/2000/svg" xmlns:xlink="http://www.w3.org/1999/xlink">
<g id="graph0" class="graph" transform="scale(1 1) rotate(0) translate(4 120)">
<title>MK::Analytics::enabled</title>
<polygon fill="white" stroke="none" points="-4,4 -4,-120 838.659,-120 838.659,4 -4,4"/>
<!-- Node1 -->
<g id="node1" class="node"><title>Node1</title>
<polygon fill="#bfbfbf" stroke="black" points="0,-37.5 0,-55.5 117.719,-55.5 117.719,-37.5 0,-37.5"/>
<text text-anchor="middle" x="58.8594" y="-43.5" font-family="Helvetica,sans-Serif" font-size="10.00">MK::Analytics::enabled</text>
</g>
<!-- Node2 -->
<g id="node2" class="node"><title>Node2</title>
<g id="a_node2"><a xlink:href="namespace_m_k_1_1_analytics.html#a7bb95c80f3280eb2e484571354d8c61e" target="_top" xlink:title="Logs given event without additional attributes. ">
<polygon fill="white" stroke="black" points="163.445,-74.5 163.445,-92.5 284.489,-92.5 284.489,-74.5 163.445,-74.5"/>
<text text-anchor="middle" x="223.967" y="-80.5" font-family="Helvetica,sans-Serif" font-size="10.00">MK::Analytics::logEvent</text>
</a>
</g>
</g>
<!-- Node1&#45;&gt;Node2 -->
<g id="edge1" class="edge"><title>Node1&#45;&gt;Node2</title>
<path fill="none" stroke="midnightblue" d="M109.59,-57.781C133.195,-63.1357 161.019,-69.4475 183.196,-74.4782"/>
<polygon fill="midnightblue" stroke="midnightblue" points="110.287,-54.3502 99.7601,-55.5512 108.738,-61.1768 110.287,-54.3502"/>
</g>
<!-- Node6 -->
<g id="node6" class="node"><title>Node6</title>
<g id="a_node6"><a xlink:href="namespace_m_k_1_1_analytics.html#a701bdc0ffe82d1bcbb40c11b6a651d38" target="_top" xlink:title="Logs end of level with given name/identifier, given score, whether user succeeded or not in the level...">
<polygon fill="white" stroke="black" points="155.381,-37.5 155.381,-55.5 292.553,-55.5 292.553,-37.5 155.381,-37.5"/>
<text text-anchor="middle" x="223.967" y="-43.5" font-family="Helvetica,sans-Serif" font-size="10.00">MK::Analytics::logLevelEnd</text>
</a>
</g>
</g>
<!-- Node1&#45;&gt;Node6 -->
<g id="edge6" class="edge"><title>Node1&#45;&gt;Node6</title>
<path fill="none" stroke="midnightblue" d="M127.885,-46.5C136.902,-46.5 146.146,-46.5 155.16,-46.5"/>
<polygon fill="midnightblue" stroke="midnightblue" points="127.824,-43.0001 117.824,-46.5 127.824,-50.0001 127.824,-43.0001"/>
</g>
<!-- Node7 -->
<g id="node7" class="node"><title>Node7</title>
<g id="a_node7"><a xlink:href="namespace_m_k_1_1_analytics.html#a06ce55b9a1ccb5a444c5a2d029b3918d" target="_top" xlink:title="Logs start of level with given name/identifier and given optional additional attributes. ">
<polygon fill="white" stroke="black" points="153.719,-0.5 153.719,-18.5 294.216,-18.5 294.216,-0.5 153.719,-0.5"/>
<text text-anchor="middle" x="223.967" y="-6.5" font-family="Helvetica,sans-Serif" font-size="10.00">MK::Analytics::logLevelStart</text>
</a>
</g>
</g>
<!-- Node1&#45;&gt;Node7 -->
<g id="edge7" class="edge"><title>Node1&#45;&gt;Node7</title>
<path fill="none" stroke="midnightblue" d="M109.59,-35.219C133.195,-29.8643 161.019,-23.5525 183.196,-18.5218"/>
<polygon fill="midnightblue" stroke="midnightblue" points="108.738,-31.8232 99.7601,-37.4488 110.287,-38.6498 108.738,-31.8232"/>
</g>
<!-- Node3 -->
<g id="node3" class="node"><title>Node3</title>
<g id="a_node3"><a xlink:href="namespace_m_k_1_1_analytics.html#a45074f520084ef7dadcf189155705026" target="_top" xlink:title="Logs that app tried to display a video reward ad that was not ready yet. ">
<polygon fill="white" stroke="black" points="330.216,-69.5 330.216,-97.5 472.939,-97.5 472.939,-69.5 330.216,-69.5"/>
<text text-anchor="start" x="338.216" y="-85.5" font-family="Helvetica,sans-Serif" font-size="10.00">MK::Analytics::logNonReady</text>
<text text-anchor="middle" x="401.578" y="-75.5" font-family="Helvetica,sans-Serif" font-size="10.00">VideoRewardDisplay</text>
</a>
</g>
</g>
<!-- Node2&#45;&gt;Node3 -->
<g id="edge2" class="edge"><title>Node2&#45;&gt;Node3</title>
<path fill="none" stroke="midnightblue" d="M294.924,-83.5C306.469,-83.5 318.443,-83.5 330.002,-83.5"/>
<polygon fill="midnightblue" stroke="midnightblue" points="294.911,-80.0001 284.911,-83.5 294.911,-87.0001 294.911,-80.0001"/>
</g>
<!-- Node4 -->
<g id="node4" class="node"><title>Node4</title>
<g id="a_node4"><a xlink:href="interface_reward_video_delegate.html#a0bfa3f23795d0ad8cedcb3c7601b9305" target="_top" xlink:title="&#45;[RewardVideoDelegate\l requestNewRewardVideo]">
<polygon fill="white" stroke="black" points="508.939,-69.5 508.939,-97.5 643.714,-97.5 643.714,-69.5 508.939,-69.5"/>
<text text-anchor="start" x="516.939" y="-85.5" font-family="Helvetica,sans-Serif" font-size="10.00">&#45;[RewardVideoDelegate</text>
<text text-anchor="middle" x="576.327" y="-75.5" font-family="Helvetica,sans-Serif" font-size="10.00"> requestNewRewardVideo]</text>
</a>
</g>
</g>
<!-- Node3&#45;&gt;Node4 -->
<g id="edge3" class="edge"><title>Node3&#45;&gt;Node4</title>
<path fill="none" stroke="midnightblue" d="M483.599,-83.5C492.055,-83.5 500.58,-83.5 508.848,-83.5"/>
<polygon fill="midnightblue" stroke="midnightblue" points="483.34,-80.0001 473.34,-83.5 483.34,-87.0001 483.34,-80.0001"/>
</g>
<!-- Node4&#45;&gt;Node4 -->
<g id="edge5" class="edge"><title>Node4&#45;&gt;Node4</title>
<path fill="none" stroke="midnightblue" d="M544.873,-107.487C548.213,-112.441 558.697,-116 576.327,-116 604.534,-116 614.45,-106.89 606.076,-97.5305"/>
<polygon fill="midnightblue" stroke="midnightblue" points="548.34,-107.978 546.577,-97.5305 541.44,-106.797 548.34,-107.978"/>
</g>
<!-- Node5 -->
<g id="node5" class="node"><title>Node5</title>
<g id="a_node5"><a xlink:href="interface_reward_video_delegate.html#a5d8713e80adf05ec03e68072d573ad06" target="_top" xlink:title="&#45;[RewardVideoDelegate\l initWithAdUnitID:andCallback:]">
<polygon fill="white" stroke="black" points="679.714,-69.5 679.714,-97.5 834.659,-97.5 834.659,-69.5 679.714,-69.5"/>
<text text-anchor="start" x="687.714" y="-85.5" font-family="Helvetica,sans-Serif" font-size="10.00">&#45;[RewardVideoDelegate</text>
<text text-anchor="middle" x="757.187" y="-75.5" font-family="Helvetica,sans-Serif" font-size="10.00"> initWithAdUnitID:andCallback:]</text>
</a>
</g>
</g>
<!-- Node4&#45;&gt;Node5 -->
<g id="edge4" class="edge"><title>Node4&#45;&gt;Node5</title>
<path fill="none" stroke="midnightblue" d="M654.122,-83.5C662.559,-83.5 671.149,-83.5 679.584,-83.5"/>
<polygon fill="midnightblue" stroke="midnightblue" points="653.928,-80.0001 643.927,-83.5 653.927,-87.0001 653.928,-80.0001"/>
</g>
</g>
</svg>
