<?xml version="1.0" encoding="UTF-8" standalone="no"?>
<!DOCTYPE svg PUBLIC "-//W3C//DTD SVG 1.1//EN"
 "http://www.w3.org/Graphics/SVG/1.1/DTD/svg11.dtd">
<!-- Generated by graphviz version 2.38.0 (20140413.2041)
 -->
<!-- Title: MK::GameKit::ReplayKit::stopRecording Pages: 1 -->
<svg width="292pt" height="74pt"
 viewBox="0.00 0.00 291.62 74.00" xmlns="http://www.w3.org/2000/svg" xmlns:xlink="http://www.w3.org/1999/xlink">
<g id="graph0" class="graph" transform="scale(1 1) rotate(0) translate(4 70)">
<title>MK::GameKit::ReplayKit::stopRecording</title>
<polygon fill="white" stroke="none" points="-4,4 -4,-70 287.625,-70 287.625,4 -4,4"/>
<!-- Node1 -->
<g id="node1" class="node"><title>Node1</title>
<polygon fill="#bfbfbf" stroke="black" points="0,-21.5 0,-49.5 123.812,-49.5 123.812,-21.5 0,-21.5"/>
<text text-anchor="start" x="8" y="-37.5" font-family="Helvetica,sans-Serif" font-size="10.00">MK::GameKit::ReplayKit</text>
<text text-anchor="middle" x="61.9062" y="-27.5" font-family="Helvetica,sans-Serif" font-size="10.00">::stopRecording</text>
</g>
<!-- Node2 -->
<g id="node2" class="node"><title>Node2</title>
<g id="a_node2"><a xlink:href="namespace_m_k_1_1_log.html#a3e84a309c158873fecff57e1db770c9a" target="_top" xlink:title="Logs a debug message that will not appear also in release builds. ">
<polygon fill="white" stroke="black" points="178.416,-47.5 178.416,-65.5 265.021,-65.5 265.021,-47.5 178.416,-47.5"/>
<text text-anchor="middle" x="221.719" y="-53.5" font-family="Helvetica,sans-Serif" font-size="10.00">MK::Log::debug</text>
</a>
</g>
</g>
<!-- Node1&#45;&gt;Node2 -->
<g id="edge1" class="edge"><title>Node1&#45;&gt;Node2</title>
<path fill="none" stroke="midnightblue" d="M123.921,-43.6191C138.438,-45.551 153.808,-47.5963 167.922,-49.4744"/>
<polygon fill="midnightblue" stroke="midnightblue" points="167.573,-52.9587 177.947,-50.8084 168.496,-46.0199 167.573,-52.9587"/>
</g>
<!-- Node3 -->
<g id="node3" class="node"><title>Node3</title>
<g id="a_node3"><a xlink:href="namespace_m_k_1_1_game_kit_1_1_replay_kit.html#a0b99deac41c67fa5ff370911361bf35e" target="_top" xlink:title="Returns whether ReplayKit is available. ">
<polygon fill="white" stroke="black" points="159.812,-0.5 159.812,-28.5 283.625,-28.5 283.625,-0.5 159.812,-0.5"/>
<text text-anchor="start" x="167.812" y="-16.5" font-family="Helvetica,sans-Serif" font-size="10.00">MK::GameKit::ReplayKit</text>
<text text-anchor="middle" x="221.719" y="-6.5" font-family="Helvetica,sans-Serif" font-size="10.00">::isAvailable</text>
</a>
</g>
</g>
<!-- Node1&#45;&gt;Node3 -->
<g id="edge2" class="edge"><title>Node1&#45;&gt;Node3</title>
<path fill="none" stroke="midnightblue" d="M123.921,-27.3809C132.337,-26.2609 141.039,-25.1029 149.618,-23.9614"/>
<polygon fill="midnightblue" stroke="midnightblue" points="150.155,-27.4207 159.606,-22.6322 149.232,-20.4819 150.155,-27.4207"/>
</g>
</g>
</svg>
