<?xml version="1.0" encoding="UTF-8" standalone="no"?>
<!DOCTYPE svg PUBLIC "-//W3C//DTD SVG 1.1//EN"
 "http://www.w3.org/Graphics/SVG/1.1/DTD/svg11.dtd">
<!-- Generated by graphviz version 2.38.0 (20140413.2041)
 -->
<!-- Title: MK::KVDatabase::hasKey Pages: 1 -->
<svg width="344pt" height="252pt"
 viewBox="0.00 0.00 344.27 252.00" xmlns="http://www.w3.org/2000/svg" xmlns:xlink="http://www.w3.org/1999/xlink">
<g id="graph0" class="graph" transform="scale(1 1) rotate(0) translate(4 248)">
<title>MK::KVDatabase::hasKey</title>
<polygon fill="white" stroke="none" points="-4,4 -4,-248 340.267,-248 340.267,4 -4,4"/>
<!-- Node1 -->
<g id="node1" class="node"><title>Node1</title>
<polygon fill="#bfbfbf" stroke="black" points="0,-112.5 0,-130.5 131.615,-130.5 131.615,-112.5 0,-112.5"/>
<text text-anchor="middle" x="65.8076" y="-118.5" font-family="Helvetica,sans-Serif" font-size="10.00">MK::KVDatabase::hasKey</text>
</g>
<!-- Node2 -->
<g id="node2" class="node"><title>Node2</title>
<g id="a_node2"><a xlink:href="namespace_m_k_1_1_k_v_database.html#a184cb17593fdfc77739423fded151e71" target="_top" xlink:title="Forces writing KVDatabase changes to disk. ">
<polygon fill="white" stroke="black" points="167.615,-225.5 167.615,-243.5 336.267,-243.5 336.267,-225.5 167.615,-225.5"/>
<text text-anchor="middle" x="251.941" y="-231.5" font-family="Helvetica,sans-Serif" font-size="10.00">MK::KVDatabase::forcedWriteDisk</text>
</a>
</g>
</g>
<!-- Node1&#45;&gt;Node2 -->
<g id="edge1" class="edge"><title>Node1&#45;&gt;Node2</title>
<path fill="none" stroke="midnightblue" d="M73.4971,-130.506C88.2165,-149.626 125.474,-194.333 167.615,-216.5 171.629,-218.611 175.875,-220.475 180.241,-222.12"/>
<polygon fill="midnightblue" stroke="midnightblue" points="179.352,-225.514 189.946,-225.384 181.584,-218.879 179.352,-225.514"/>
</g>
<!-- Node3 -->
<g id="node3" class="node"><title>Node3</title>
<g id="a_node3"><a xlink:href="namespace_m_k_1_1_k_v_database.html#a767b41659c2ee79a635285b4ae078aa7" target="_top" xlink:title="Returns long value associated with given key. ">
<polygon fill="white" stroke="black" points="172.317,-178.5 172.317,-206.5 331.564,-206.5 331.564,-178.5 172.317,-178.5"/>
<text text-anchor="start" x="180.317" y="-194.5" font-family="Helvetica,sans-Serif" font-size="10.00">MK::KVDatabase::getLongValue</text>
<text text-anchor="middle" x="251.941" y="-184.5" font-family="Helvetica,sans-Serif" font-size="10.00">ForKey</text>
</a>
</g>
</g>
<!-- Node1&#45;&gt;Node3 -->
<g id="edge2" class="edge"><title>Node1&#45;&gt;Node3</title>
<path fill="none" stroke="midnightblue" d="M83.5369,-130.584C103.223,-141.007 137.102,-158.124 167.615,-169.5 173.2,-171.582 179.058,-173.572 184.97,-175.448"/>
<polygon fill="midnightblue" stroke="midnightblue" points="184.344,-178.916 194.93,-178.494 186.391,-172.222 184.344,-178.916"/>
</g>
<!-- Node4 -->
<g id="node4" class="node"><title>Node4</title>
<g id="a_node4"><a xlink:href="namespace_m_k_1_1_k_v_database.html#a10910fd1eab506db078b7a690eed3e50" target="_top" xlink:title="Returns string value associated with given key. ">
<polygon fill="white" stroke="black" points="182.798,-131.5 182.798,-159.5 321.083,-159.5 321.083,-131.5 182.798,-131.5"/>
<text text-anchor="start" x="190.798" y="-147.5" font-family="Helvetica,sans-Serif" font-size="10.00">MK::KVDatabase::getString</text>
<text text-anchor="middle" x="251.941" y="-137.5" font-family="Helvetica,sans-Serif" font-size="10.00">ValueForKey</text>
</a>
</g>
</g>
<!-- Node1&#45;&gt;Node4 -->
<g id="edge3" class="edge"><title>Node1&#45;&gt;Node4</title>
<path fill="none" stroke="midnightblue" d="M131.726,-129.962C144.845,-131.671 158.772,-133.487 172.303,-135.25"/>
<polygon fill="midnightblue" stroke="midnightblue" points="172.185,-138.764 182.553,-136.586 173.09,-131.823 172.185,-138.764"/>
</g>
<!-- Node5 -->
<g id="node5" class="node"><title>Node5</title>
<g id="a_node5"><a xlink:href="namespace_m_k_1_1_k_v_database.html#a8c40584219ca43eb9a2e65f14e328816" target="_top" xlink:title="Sets long value for given key. ">
<polygon fill="white" stroke="black" points="172.598,-84.5 172.598,-112.5 331.284,-112.5 331.284,-84.5 172.598,-84.5"/>
<text text-anchor="start" x="180.598" y="-100.5" font-family="Helvetica,sans-Serif" font-size="10.00">MK::KVDatabase::setLongValue</text>
<text text-anchor="middle" x="251.941" y="-90.5" font-family="Helvetica,sans-Serif" font-size="10.00">ForKey</text>
</a>
</g>
</g>
<!-- Node1&#45;&gt;Node5 -->
<g id="edge4" class="edge"><title>Node1&#45;&gt;Node5</title>
<path fill="none" stroke="midnightblue" d="M131.726,-113.391C141.588,-112.159 151.907,-110.87 162.171,-109.588"/>
<polygon fill="midnightblue" stroke="midnightblue" points="162.909,-113.023 172.398,-108.311 162.041,-106.077 162.909,-113.023"/>
</g>
<!-- Node6 -->
<g id="node6" class="node"><title>Node6</title>
<g id="a_node6"><a xlink:href="namespace_m_k_1_1_k_v_database.html#a740bf14feb1b251255d768398eb53652" target="_top" xlink:title="Sets string value for given key. ">
<polygon fill="white" stroke="black" points="183.079,-37.5 183.079,-65.5 320.803,-65.5 320.803,-37.5 183.079,-37.5"/>
<text text-anchor="start" x="191.079" y="-53.5" font-family="Helvetica,sans-Serif" font-size="10.00">MK::KVDatabase::setString</text>
<text text-anchor="middle" x="251.941" y="-43.5" font-family="Helvetica,sans-Serif" font-size="10.00">ValueForKey</text>
</a>
</g>
</g>
<!-- Node1&#45;&gt;Node6 -->
<g id="edge5" class="edge"><title>Node1&#45;&gt;Node6</title>
<path fill="none" stroke="midnightblue" d="M84.6801,-112.369C104.573,-102.438 137.845,-86.5112 167.615,-75.5 174.066,-73.114 180.868,-70.8153 187.691,-68.6486"/>
<polygon fill="midnightblue" stroke="midnightblue" points="189.139,-71.865 197.664,-65.5739 187.076,-65.1757 189.139,-71.865"/>
</g>
<!-- Node7 -->
<g id="node7" class="node"><title>Node7</title>
<g id="a_node7"><a xlink:href="_c_p_p_utils_8h.html#a35815dc6b4ba20ddb20e4a27f0b82294" target="_top" xlink:title="Returns a NSString equivalent to given std::string. ">
<polygon fill="white" stroke="black" points="219.483,-0.5 219.483,-18.5 284.399,-18.5 284.399,-0.5 219.483,-0.5"/>
<text text-anchor="middle" x="251.941" y="-6.5" font-family="Helvetica,sans-Serif" font-size="10.00">to_nsstring</text>
</a>
</g>
</g>
<!-- Node1&#45;&gt;Node7 -->
<g id="edge6" class="edge"><title>Node1&#45;&gt;Node7</title>
<path fill="none" stroke="midnightblue" d="M73.7891,-112.44C88.7874,-93.6464 126.109,-50.3551 167.615,-28.5 180.274,-21.8344 195.218,-17.4946 208.93,-14.6741"/>
<polygon fill="midnightblue" stroke="midnightblue" points="209.915,-18.0517 219.117,-12.8001 208.649,-11.1672 209.915,-18.0517"/>
</g>
</g>
</svg>
