<?xml version="1.0" encoding="UTF-8" standalone="no"?>
<!DOCTYPE svg PUBLIC "-//W3C//DTD SVG 1.1//EN"
 "http://www.w3.org/Graphics/SVG/1.1/DTD/svg11.dtd">
<!-- Generated by graphviz version 2.38.0 (20140413.2041)
 -->
<!-- Title: MK::IAPKit::productLocalIDForProductGlobalID Pages: 1 -->
<svg width="328pt" height="47pt"
 viewBox="0.00 0.00 328.34 47.00" xmlns="http://www.w3.org/2000/svg" xmlns:xlink="http://www.w3.org/1999/xlink">
<g id="graph0" class="graph" transform="scale(1 1) rotate(0) translate(4 43)">
<title>MK::IAPKit::productLocalIDForProductGlobalID</title>
<polygon fill="white" stroke="none" points="-4,4 -4,-43 324.344,-43 324.344,4 -4,4"/>
<!-- Node1 -->
<g id="node1" class="node"><title>Node1</title>
<polygon fill="#bfbfbf" stroke="black" points="0,-5.5 0,-33.5 127.162,-33.5 127.162,-5.5 0,-5.5"/>
<text text-anchor="start" x="8" y="-21.5" font-family="Helvetica,sans-Serif" font-size="10.00">MK::IAPKit::productLocal</text>
<text text-anchor="middle" x="63.5811" y="-11.5" font-family="Helvetica,sans-Serif" font-size="10.00">IDForProductGlobalID</text>
</g>
<!-- Node2 -->
<g id="node2" class="node"><title>Node2</title>
<g id="a_node2"><a xlink:href="___i_a_p_kit_8cpp.html#a7f86d0f13644c98e90ec2118aa3ddf56" target="_top" xlink:title="Java_org_cocos2dx_cpp\l_AppActivity_callCppPurchases\lCallback">
<polygon fill="white" stroke="black" points="163.162,-0.5 163.162,-38.5 320.344,-38.5 320.344,-0.5 163.162,-0.5"/>
<text text-anchor="start" x="171.162" y="-26.5" font-family="Helvetica,sans-Serif" font-size="10.00">Java_org_cocos2dx_cpp</text>
<text text-anchor="start" x="171.162" y="-16.5" font-family="Helvetica,sans-Serif" font-size="10.00">_AppActivity_callCppPurchases</text>
<text text-anchor="middle" x="241.753" y="-6.5" font-family="Helvetica,sans-Serif" font-size="10.00">Callback</text>
</a>
</g>
</g>
<!-- Node1&#45;&gt;Node2 -->
<g id="edge1" class="edge"><title>Node1&#45;&gt;Node2</title>
<path fill="none" stroke="midnightblue" d="M137.362,-19.5C145.799,-19.5 154.43,-19.5 162.93,-19.5"/>
<polygon fill="midnightblue" stroke="midnightblue" points="137.189,-16.0001 127.189,-19.5 137.189,-23.0001 137.189,-16.0001"/>
</g>
</g>
</svg>
