<?xml version="1.0" encoding="UTF-8" standalone="no"?>
<!DOCTYPE svg PUBLIC "-//W3C//DTD SVG 1.1//EN"
 "http://www.w3.org/Graphics/SVG/1.1/DTD/svg11.dtd">
<!-- Generated by graphviz version 2.38.0 (20140413.2041)
 -->
<!-- Title: MK::KVDatabase::getLongValueForKey Pages: 1 -->
<svg width="998pt" height="355pt"
 viewBox="0.00 0.00 998.35 355.00" xmlns="http://www.w3.org/2000/svg" xmlns:xlink="http://www.w3.org/1999/xlink">
<g id="graph0" class="graph" transform="scale(1 1) rotate(0) translate(4 351)">
<title>MK::KVDatabase::getLongValueForKey</title>
<polygon fill="white" stroke="none" points="-4,4 -4,-351 994.353,-351 994.353,4 -4,4"/>
<!-- Node1 -->
<g id="node1" class="node"><title>Node1</title>
<polygon fill="#bfbfbf" stroke="black" points="0,-152.5 0,-180.5 159.247,-180.5 159.247,-152.5 0,-152.5"/>
<text text-anchor="start" x="8" y="-168.5" font-family="Helvetica,sans-Serif" font-size="10.00">MK::KVDatabase::getLongValue</text>
<text text-anchor="middle" x="79.6235" y="-158.5" font-family="Helvetica,sans-Serif" font-size="10.00">ForKey</text>
</g>
<!-- Node2 -->
<g id="node2" class="node"><title>Node2</title>
<g id="a_node2"><a xlink:href="namespace_m_k_1_1_ad_kit.html#a1abd645a384f31dc1421e82772cfb472" target="_top" xlink:title="Returns whether ads are enabled for this user or not. ">
<polygon fill="white" stroke="black" points="251.023,-215.5 251.023,-233.5 352.629,-233.5 352.629,-215.5 251.023,-215.5"/>
<text text-anchor="middle" x="301.826" y="-221.5" font-family="Helvetica,sans-Serif" font-size="10.00">MK::AdKit::enabled</text>
</a>
</g>
</g>
<!-- Node1&#45;&gt;Node2 -->
<g id="edge1" class="edge"><title>Node1&#45;&gt;Node2</title>
<path fill="none" stroke="midnightblue" d="M143.845,-183.152C183.775,-193.67 233.82,-206.851 266.525,-215.465"/>
<polygon fill="midnightblue" stroke="midnightblue" points="144.49,-179.703 133.928,-180.54 142.707,-186.472 144.49,-179.703"/>
</g>
<!-- Node11 -->
<g id="node11" class="node"><title>Node11</title>
<g id="a_node11"><a xlink:href="namespace_m_k_1_1_k_v_database.html#ac2a23838089c49a655dc2c50b56bc470" target="_top" xlink:title="Return whether given key is in database or not. ">
<polygon fill="white" stroke="black" points="236.019,-157.5 236.019,-175.5 367.634,-175.5 367.634,-157.5 236.019,-157.5"/>
<text text-anchor="middle" x="301.826" y="-163.5" font-family="Helvetica,sans-Serif" font-size="10.00">MK::KVDatabase::hasKey</text>
</a>
</g>
</g>
<!-- Node1&#45;&gt;Node11 -->
<g id="edge12" class="edge"><title>Node1&#45;&gt;Node11</title>
<path fill="none" stroke="midnightblue" d="M169.592,-166.5C191.77,-166.5 215.136,-166.5 235.906,-166.5"/>
<polygon fill="midnightblue" stroke="midnightblue" points="169.5,-163 159.5,-166.5 169.5,-170 169.5,-163"/>
</g>
<!-- Node12 -->
<g id="node12" class="node"><title>Node12</title>
<g id="a_node12"><a xlink:href="namespace_m_k_1_1_k_v_database.html#a4058098a441fb6e62605317242ebb54a" target="_top" xlink:title="Sets given key in database to the result of applying given binary operation to previous value (defaul...">
<polygon fill="white" stroke="black" points="195.247,-68.5 195.247,-96.5 408.405,-96.5 408.405,-68.5 195.247,-68.5"/>
<text text-anchor="start" x="203.247" y="-84.5" font-family="Helvetica,sans-Serif" font-size="10.00">MK::KVDatabase::storeApplying</text>
<text text-anchor="middle" x="301.826" y="-74.5" font-family="Helvetica,sans-Serif" font-size="10.00">BinaryOperationAndReturningPreviousValue</text>
</a>
</g>
</g>
<!-- Node1&#45;&gt;Node12 -->
<g id="edge13" class="edge"><title>Node1&#45;&gt;Node12</title>
<path fill="none" stroke="midnightblue" d="M126.914,-148.842C167.647,-133.304 226.173,-110.978 263.849,-96.6056"/>
<polygon fill="midnightblue" stroke="midnightblue" points="125.576,-145.606 117.481,-152.44 128.071,-152.146 125.576,-145.606"/>
</g>
<!-- Node3 -->
<g id="node3" class="node"><title>Node3</title>
<g id="a_node3"><a xlink:href="namespace_m_k_1_1_ad_kit.html#aab6fed949fb7e7a9052144367597b9cd" target="_top" xlink:title="Performs any initialization required by the ads adapter. ">
<polygon fill="white" stroke="black" points="489.898,-328.5 489.898,-346.5 568.696,-346.5 568.696,-328.5 489.898,-328.5"/>
<text text-anchor="middle" x="529.297" y="-334.5" font-family="Helvetica,sans-Serif" font-size="10.00">MK::AdKit::init</text>
</a>
</g>
</g>
<!-- Node2&#45;&gt;Node3 -->
<g id="edge2" class="edge"><title>Node2&#45;&gt;Node3</title>
<path fill="none" stroke="midnightblue" d="M322.765,-239.606C349.282,-259.075 398.198,-292.87 444.405,-313.5 458.653,-319.861 475.016,-324.989 489.486,-328.846"/>
<polygon fill="midnightblue" stroke="midnightblue" points="324.782,-236.744 314.667,-233.592 320.608,-242.364 324.782,-236.744"/>
</g>
<!-- Node4 -->
<g id="node4" class="node"><title>Node4</title>
<g id="a_node4"><a xlink:href="interface_reward_video_delegate.html#a0bfa3f23795d0ad8cedcb3c7601b9305" target="_top" xlink:title="&#45;[RewardVideoDelegate\l requestNewRewardVideo]">
<polygon fill="white" stroke="black" points="657.411,-231.5 657.411,-259.5 792.186,-259.5 792.186,-231.5 657.411,-231.5"/>
<text text-anchor="start" x="665.411" y="-247.5" font-family="Helvetica,sans-Serif" font-size="10.00">&#45;[RewardVideoDelegate</text>
<text text-anchor="middle" x="724.798" y="-237.5" font-family="Helvetica,sans-Serif" font-size="10.00"> requestNewRewardVideo]</text>
</a>
</g>
</g>
<!-- Node2&#45;&gt;Node4 -->
<g id="edge3" class="edge"><title>Node2&#45;&gt;Node4</title>
<path fill="none" stroke="midnightblue" d="M328.648,-238.158C356.367,-251.985 402.133,-272.443 444.405,-280.5 518.531,-294.627 539.629,-292.115 614.189,-280.5 640.046,-276.472 668.142,-267.401 689.414,-259.504"/>
<polygon fill="midnightblue" stroke="midnightblue" points="330.131,-234.986 319.631,-233.575 326.959,-241.226 330.131,-234.986"/>
</g>
<!-- Node6 -->
<g id="node6" class="node"><title>Node6</title>
<g id="a_node6"><a xlink:href="namespace_m_k_1_1_ad_kit.html#add9f76341cdf101a96a3871fa154a2c9" target="_top" xlink:title="Shows a bottom banner ad. ">
<polygon fill="white" stroke="black" points="452.655,-252.5 452.655,-270.5 605.94,-270.5 605.94,-252.5 452.655,-252.5"/>
<text text-anchor="middle" x="529.297" y="-258.5" font-family="Helvetica,sans-Serif" font-size="10.00">MK::AdKit::showBottomBanner</text>
</a>
</g>
</g>
<!-- Node2&#45;&gt;Node6 -->
<g id="edge6" class="edge"><title>Node2&#45;&gt;Node6</title>
<path fill="none" stroke="midnightblue" d="M362.762,-234.336C397.071,-239.966 439.808,-246.979 473.263,-252.469"/>
<polygon fill="midnightblue" stroke="midnightblue" points="363.3,-230.877 352.866,-232.711 362.167,-237.785 363.3,-230.877"/>
</g>
<!-- Node7 -->
<g id="node7" class="node"><title>Node7</title>
<g id="a_node7"><a xlink:href="namespace_m_k_1_1_ad_kit.html#a413ead0cc048a5cb2becc3a6e50ad59b" target="_top" xlink:title="Shows an interstitial ad. ">
<polygon fill="white" stroke="black" points="463.221,-215.5 463.221,-233.5 595.374,-233.5 595.374,-215.5 463.221,-215.5"/>
<text text-anchor="middle" x="529.297" y="-221.5" font-family="Helvetica,sans-Serif" font-size="10.00">MK::AdKit::showInterstitial</text>
</a>
</g>
</g>
<!-- Node2&#45;&gt;Node7 -->
<g id="edge7" class="edge"><title>Node2&#45;&gt;Node7</title>
<path fill="none" stroke="midnightblue" d="M363.044,-224.5C393.873,-224.5 431.45,-224.5 462.978,-224.5"/>
<polygon fill="midnightblue" stroke="midnightblue" points="362.866,-221 352.866,-224.5 362.866,-228 362.866,-221"/>
</g>
<!-- Node8 -->
<g id="node8" class="node"><title>Node8</title>
<g id="a_node8"><a xlink:href="namespace_m_k_1_1_ad_kit.html#a339aea64224b42fd0db628bb1ee87b94" target="_top" xlink:title="Shows a top banner ad. ">
<polygon fill="white" stroke="black" points="460.433,-178.5 460.433,-196.5 598.162,-196.5 598.162,-178.5 460.433,-178.5"/>
<text text-anchor="middle" x="529.297" y="-184.5" font-family="Helvetica,sans-Serif" font-size="10.00">MK::AdKit::showTopBanner</text>
</a>
</g>
</g>
<!-- Node2&#45;&gt;Node8 -->
<g id="edge8" class="edge"><title>Node2&#45;&gt;Node8</title>
<path fill="none" stroke="midnightblue" d="M362.762,-214.664C397.071,-209.034 439.808,-202.021 473.263,-196.531"/>
<polygon fill="midnightblue" stroke="midnightblue" points="362.167,-211.215 352.866,-216.289 363.3,-218.123 362.167,-211.215"/>
</g>
<!-- Node9 -->
<g id="node9" class="node"><title>Node9</title>
<g id="a_node9"><a xlink:href="namespace_m_k_1_1_ad_kit.html#a6bca88e69dd5dc1616d521b88eb953cc" target="_top" xlink:title="Returns whether this user has video rewards available or not. ">
<polygon fill="white" stroke="black" points="444.405,-141.5 444.405,-159.5 614.189,-159.5 614.189,-141.5 444.405,-141.5"/>
<text text-anchor="middle" x="529.297" y="-147.5" font-family="Helvetica,sans-Serif" font-size="10.00">MK::AdKit::videoRewardsAvailable</text>
</a>
</g>
</g>
<!-- Node2&#45;&gt;Node9 -->
<g id="edge9" class="edge"><title>Node2&#45;&gt;Node9</title>
<path fill="none" stroke="midnightblue" d="M338.631,-211.922C359.175,-204.544 385.381,-194.858 408.405,-185.5 424.626,-178.908 427.788,-175.016 444.405,-169.5 456.027,-165.642 468.811,-162.307 480.82,-159.554"/>
<polygon fill="midnightblue" stroke="midnightblue" points="337.279,-208.688 329.039,-215.347 339.634,-215.28 337.279,-208.688"/>
</g>
<!-- Node4&#45;&gt;Node4 -->
<g id="edge5" class="edge"><title>Node4&#45;&gt;Node4</title>
<path fill="none" stroke="midnightblue" d="M690.814,-269.487C694.422,-274.441 705.75,-278 724.798,-278 755.275,-278 765.989,-268.89 756.942,-259.53"/>
<polygon fill="midnightblue" stroke="midnightblue" points="694.278,-270 692.655,-259.53 687.395,-268.727 694.278,-270"/>
</g>
<!-- Node5 -->
<g id="node5" class="node"><title>Node5</title>
<g id="a_node5"><a xlink:href="interface_reward_video_delegate.html#a5d8713e80adf05ec03e68072d573ad06" target="_top" xlink:title="&#45;[RewardVideoDelegate\l initWithAdUnitID:andCallback:]">
<polygon fill="white" stroke="black" points="835.407,-231.5 835.407,-259.5 990.353,-259.5 990.353,-231.5 835.407,-231.5"/>
<text text-anchor="start" x="843.407" y="-247.5" font-family="Helvetica,sans-Serif" font-size="10.00">&#45;[RewardVideoDelegate</text>
<text text-anchor="middle" x="912.88" y="-237.5" font-family="Helvetica,sans-Serif" font-size="10.00"> initWithAdUnitID:andCallback:]</text>
</a>
</g>
</g>
<!-- Node4&#45;&gt;Node5 -->
<g id="edge4" class="edge"><title>Node4&#45;&gt;Node5</title>
<path fill="none" stroke="midnightblue" d="M802.486,-245.5C813.344,-245.5 824.509,-245.5 835.364,-245.5"/>
<polygon fill="midnightblue" stroke="midnightblue" points="802.19,-242 792.19,-245.5 802.19,-249 802.19,-242"/>
</g>
<!-- Node9&#45;&gt;Node4 -->
<g id="edge10" class="edge"><title>Node9&#45;&gt;Node4</title>
<path fill="none" stroke="midnightblue" d="M594.483,-162.337C601.257,-164.38 607.944,-166.752 614.189,-169.5 650.433,-185.447 687.163,-214 707.558,-231.202"/>
<polygon fill="midnightblue" stroke="midnightblue" points="595.11,-158.879 584.538,-159.574 593.236,-165.623 595.11,-158.879"/>
</g>
<!-- Node10 -->
<g id="node10" class="node"><title>Node10</title>
<g id="a_node10"><a xlink:href="namespace_m_k_1_1_ad_kit.html#acafca58cb7a9d2d72bb1990586e506af" target="_top" xlink:title="Shows video reward ad. ">
<polygon fill="white" stroke="black" points="650.189,-141.5 650.189,-159.5 799.407,-159.5 799.407,-141.5 650.189,-141.5"/>
<text text-anchor="middle" x="724.798" y="-147.5" font-family="Helvetica,sans-Serif" font-size="10.00">MK::AdKit::showVideoReward</text>
</a>
</g>
</g>
<!-- Node9&#45;&gt;Node10 -->
<g id="edge11" class="edge"><title>Node9&#45;&gt;Node10</title>
<path fill="none" stroke="midnightblue" d="M624.44,-150.5C633.081,-150.5 641.75,-150.5 650.17,-150.5"/>
<polygon fill="midnightblue" stroke="midnightblue" points="624.326,-147 614.326,-150.5 624.325,-154 624.326,-147"/>
</g>
<!-- Node13 -->
<g id="node13" class="node"><title>Node13</title>
<g id="a_node13"><a xlink:href="namespace_m_k_1_1_k_v_database.html#aa67a4972fe3adb6041b9da4cab53841f" target="_top" xlink:title="Increases long value for given key by given amount. ">
<polygon fill="white" stroke="black" points="461.268,-94.5 461.268,-122.5 597.327,-122.5 597.327,-94.5 461.268,-94.5"/>
<text text-anchor="start" x="469.268" y="-110.5" font-family="Helvetica,sans-Serif" font-size="10.00">MK::KVDatabase::increase</text>
<text text-anchor="middle" x="529.297" y="-100.5" font-family="Helvetica,sans-Serif" font-size="10.00">LongValueForKey</text>
</a>
</g>
</g>
<!-- Node12&#45;&gt;Node13 -->
<g id="edge14" class="edge"><title>Node12&#45;&gt;Node13</title>
<path fill="none" stroke="midnightblue" d="M418.682,-95.8599C433.204,-97.5344 447.657,-99.201 461.076,-100.748"/>
<polygon fill="midnightblue" stroke="midnightblue" points="418.965,-92.3693 408.63,-94.7006 418.163,-99.3232 418.965,-92.3693"/>
</g>
<!-- Node15 -->
<g id="node15" class="node"><title>Node15</title>
<g id="a_node15"><a xlink:href="namespace_m_k_1_1_k_v_database.html#aa3230cc40fb3f67eeebc7c388825ee81" target="_top" xlink:title="Keeps maximum long value between current long value and given value. ">
<polygon fill="white" stroke="black" points="448.756,-47.5 448.756,-75.5 609.839,-75.5 609.839,-47.5 448.756,-47.5"/>
<text text-anchor="start" x="456.756" y="-63.5" font-family="Helvetica,sans-Serif" font-size="10.00">MK::KVDatabase::keepMaxLong</text>
<text text-anchor="middle" x="529.297" y="-53.5" font-family="Helvetica,sans-Serif" font-size="10.00">ValueForKey</text>
</a>
</g>
</g>
<!-- Node12&#45;&gt;Node15 -->
<g id="edge16" class="edge"><title>Node12&#45;&gt;Node15</title>
<path fill="none" stroke="midnightblue" d="M418.768,-71.7013C428.908,-70.757 439.012,-69.8159 448.754,-68.9085"/>
<polygon fill="midnightblue" stroke="midnightblue" points="418.262,-68.2333 408.63,-72.6456 418.911,-75.2031 418.262,-68.2333"/>
</g>
<!-- Node16 -->
<g id="node16" class="node"><title>Node16</title>
<g id="a_node16"><a xlink:href="namespace_m_k_1_1_k_v_database.html#ae2bf5047196dcd947b56e680bbe53a1b" target="_top" xlink:title="Keeps minimum long value between current long value and given value. ">
<polygon fill="white" stroke="black" points="450.145,-0.5 450.145,-28.5 608.45,-28.5 608.45,-0.5 450.145,-0.5"/>
<text text-anchor="start" x="458.145" y="-16.5" font-family="Helvetica,sans-Serif" font-size="10.00">MK::KVDatabase::keepMinLong</text>
<text text-anchor="middle" x="529.297" y="-6.5" font-family="Helvetica,sans-Serif" font-size="10.00">ValueForKey</text>
</a>
</g>
</g>
<!-- Node12&#45;&gt;Node16 -->
<g id="edge17" class="edge"><title>Node12&#45;&gt;Node16</title>
<path fill="none" stroke="midnightblue" d="M354.96,-65.3784C381.635,-56.7582 414.669,-46.298 444.405,-37.5 454.542,-34.5007 465.408,-31.422 475.846,-28.5316"/>
<polygon fill="midnightblue" stroke="midnightblue" points="353.871,-62.0518 345.438,-68.4646 356.03,-68.7108 353.871,-62.0518"/>
</g>
<!-- Node14 -->
<g id="node14" class="node"><title>Node14</title>
<g id="a_node14"><a xlink:href="namespace_m_k_1_1_k_v_database.html#ad79c7c1255ddfb778041afba1f47e903" target="_top" xlink:title="Decreases long value for given key by given amount. ">
<polygon fill="white" stroke="black" points="655.099,-94.5 655.099,-122.5 794.498,-122.5 794.498,-94.5 655.099,-94.5"/>
<text text-anchor="start" x="663.099" y="-110.5" font-family="Helvetica,sans-Serif" font-size="10.00">MK::KVDatabase::decrease</text>
<text text-anchor="middle" x="724.798" y="-100.5" font-family="Helvetica,sans-Serif" font-size="10.00">LongValueForKey</text>
</a>
</g>
</g>
<!-- Node13&#45;&gt;Node14 -->
<g id="edge15" class="edge"><title>Node13&#45;&gt;Node14</title>
<path fill="none" stroke="midnightblue" d="M607.572,-108.5C623.186,-108.5 639.506,-108.5 654.813,-108.5"/>
<polygon fill="midnightblue" stroke="midnightblue" points="607.432,-105 597.432,-108.5 607.432,-112 607.432,-105"/>
</g>
</g>
</svg>
