<?xml version="1.0" encoding="UTF-8" standalone="no"?>
<!DOCTYPE svg PUBLIC "-//W3C//DTD SVG 1.1//EN"
 "http://www.w3.org/Graphics/SVG/1.1/DTD/svg11.dtd">
<!-- Generated by graphviz version 2.38.0 (20140413.2041)
 -->
<!-- Title: MK::AdKit::showInterstitial Pages: 1 -->
<svg width="686pt" height="85pt"
 viewBox="0.00 0.00 686.15 85.00" xmlns="http://www.w3.org/2000/svg" xmlns:xlink="http://www.w3.org/1999/xlink">
<g id="graph0" class="graph" transform="scale(1 1) rotate(0) translate(4 81)">
<title>MK::AdKit::showInterstitial</title>
<polygon fill="white" stroke="none" points="-4,4 -4,-81 682.147,-81 682.147,4 -4,4"/>
<!-- Node1 -->
<g id="node1" class="node"><title>Node1</title>
<polygon fill="#bfbfbf" stroke="black" points="0,-39.5 0,-57.5 132.152,-57.5 132.152,-39.5 0,-39.5"/>
<text text-anchor="middle" x="66.0762" y="-45.5" font-family="Helvetica,sans-Serif" font-size="10.00">MK::AdKit::showInterstitial</text>
</g>
<!-- Node2 -->
<g id="node2" class="node"><title>Node2</title>
<g id="a_node2"><a xlink:href="namespace_m_k_1_1_ad_kit.html#ae4fe5a11d697083b53f50d9abcc3286e" target="_top" xlink:title="Shows an interstitial ad. ">
<polygon fill="white" stroke="black" points="168.152,-58.5 168.152,-76.5 305.866,-76.5 305.866,-58.5 168.152,-58.5"/>
<text text-anchor="middle" x="237.009" y="-64.5" font-family="Helvetica,sans-Serif" font-size="10.00">MK::AdKit::_showInterstitial</text>
</a>
</g>
</g>
<!-- Node1&#45;&gt;Node2 -->
<g id="edge1" class="edge"><title>Node1&#45;&gt;Node2</title>
<path fill="none" stroke="midnightblue" d="M132.39,-55.8459C140.799,-56.7916 149.474,-57.7674 158.06,-58.733"/>
<polygon fill="midnightblue" stroke="midnightblue" points="157.747,-62.2198 168.075,-59.8594 158.529,-55.2636 157.747,-62.2198"/>
</g>
<!-- Node3 -->
<g id="node3" class="node"><title>Node3</title>
<g id="a_node3"><a xlink:href="namespace_m_k_1_1_ad_kit.html#a1abd645a384f31dc1421e82772cfb472" target="_top" xlink:title="Returns whether ads are enabled for this user or not. ">
<polygon fill="white" stroke="black" points="186.207,-21.5 186.207,-39.5 287.812,-39.5 287.812,-21.5 186.207,-21.5"/>
<text text-anchor="middle" x="237.009" y="-27.5" font-family="Helvetica,sans-Serif" font-size="10.00">MK::AdKit::enabled</text>
</a>
</g>
</g>
<!-- Node1&#45;&gt;Node3 -->
<g id="edge2" class="edge"><title>Node1&#45;&gt;Node3</title>
<path fill="none" stroke="midnightblue" d="M132.39,-41.5407C146.735,-40.0123 161.858,-38.4009 175.983,-36.8959"/>
<polygon fill="midnightblue" stroke="midnightblue" points="176.494,-40.3614 186.066,-35.8215 175.752,-33.4008 176.494,-40.3614"/>
</g>
<!-- Node4 -->
<g id="node4" class="node"><title>Node4</title>
<g id="a_node4"><a xlink:href="namespace_m_k_1_1_k_v_database.html#a767b41659c2ee79a635285b4ae078aa7" target="_top" xlink:title="Returns long value associated with given key. ">
<polygon fill="white" stroke="black" points="341.866,-37.5 341.866,-65.5 501.113,-65.5 501.113,-37.5 341.866,-37.5"/>
<text text-anchor="start" x="349.866" y="-53.5" font-family="Helvetica,sans-Serif" font-size="10.00">MK::KVDatabase::getLongValue</text>
<text text-anchor="middle" x="421.49" y="-43.5" font-family="Helvetica,sans-Serif" font-size="10.00">ForKey</text>
</a>
</g>
</g>
<!-- Node3&#45;&gt;Node4 -->
<g id="edge3" class="edge"><title>Node3&#45;&gt;Node4</title>
<path fill="none" stroke="midnightblue" d="M287.873,-36.2383C301.334,-37.7875 316.32,-39.512 331.234,-41.2284"/>
<polygon fill="midnightblue" stroke="midnightblue" points="331.194,-44.7468 341.529,-42.4131 331.995,-37.7927 331.194,-44.7468"/>
</g>
<!-- Node5 -->
<g id="node5" class="node"><title>Node5</title>
<g id="a_node5"><a xlink:href="namespace_m_k_1_1_device.html#a983d07fad256fb9e289b985cb4237efa" target="_top" xlink:title="Returns whether this device is running OS X or not. ">
<polygon fill="white" stroke="black" points="370.98,-0.5 370.98,-18.5 472,-18.5 472,-0.5 370.98,-0.5"/>
<text text-anchor="middle" x="421.49" y="-6.5" font-family="Helvetica,sans-Serif" font-size="10.00">MK::Device::isOSX</text>
</a>
</g>
</g>
<!-- Node3&#45;&gt;Node5 -->
<g id="edge4" class="edge"><title>Node3&#45;&gt;Node5</title>
<path fill="none" stroke="midnightblue" d="M287.873,-24.7617C310.302,-22.1805 336.963,-19.1123 360.478,-16.4062"/>
<polygon fill="midnightblue" stroke="midnightblue" points="361.152,-19.8518 370.686,-15.2314 360.352,-12.8977 361.152,-19.8518"/>
</g>
<!-- Node6 -->
<g id="node6" class="node"><title>Node6</title>
<g id="a_node6"><a xlink:href="namespace_m_k_1_1_device.html#a7c83a89bef610abaa7ada09d38c2f3fb" target="_top" xlink:title="Returns current platform. ">
<polygon fill="white" stroke="black" points="537.113,-0.5 537.113,-18.5 678.147,-18.5 678.147,-0.5 537.113,-0.5"/>
<text text-anchor="middle" x="607.63" y="-6.5" font-family="Helvetica,sans-Serif" font-size="10.00">MK::Device::currentPlatform</text>
</a>
</g>
</g>
<!-- Node5&#45;&gt;Node6 -->
<g id="edge5" class="edge"><title>Node5&#45;&gt;Node6</title>
<path fill="none" stroke="midnightblue" d="M472.321,-9.5C489.126,-9.5 508.329,-9.5 526.855,-9.5"/>
<polygon fill="midnightblue" stroke="midnightblue" points="527.059,-13.0001 537.059,-9.5 527.059,-6.0001 527.059,-13.0001"/>
</g>
</g>
</svg>
