<?xml version="1.0" encoding="UTF-8" standalone="no"?>
<!DOCTYPE svg PUBLIC "-//W3C//DTD SVG 1.1//EN"
 "http://www.w3.org/Graphics/SVG/1.1/DTD/svg11.dtd">
<!-- Generated by graphviz version 2.38.0 (20140413.2041)
 -->
<!-- Title: MK::KVDatabase::setLongValueForKey Pages: 1 -->
<svg width="788pt" height="131pt"
 viewBox="0.00 0.00 788.33 131.00" xmlns="http://www.w3.org/2000/svg" xmlns:xlink="http://www.w3.org/1999/xlink">
<g id="graph0" class="graph" transform="scale(1 1) rotate(0) translate(4 127)">
<title>MK::KVDatabase::setLongValueForKey</title>
<polygon fill="white" stroke="none" points="-4,4 -4,-127 784.325,-127 784.325,4 -4,4"/>
<!-- Node1 -->
<g id="node1" class="node"><title>Node1</title>
<polygon fill="#bfbfbf" stroke="black" points="0,-68.5 0,-96.5 158.686,-96.5 158.686,-68.5 0,-68.5"/>
<text text-anchor="start" x="8" y="-84.5" font-family="Helvetica,sans-Serif" font-size="10.00">MK::KVDatabase::setLongValue</text>
<text text-anchor="middle" x="79.3428" y="-74.5" font-family="Helvetica,sans-Serif" font-size="10.00">ForKey</text>
</g>
<!-- Node2 -->
<g id="node2" class="node"><title>Node2</title>
<g id="a_node2"><a xlink:href="namespace_m_k_1_1_k_v_database.html#ac2a23838089c49a655dc2c50b56bc470" target="_top" xlink:title="Return whether given key is in database or not. ">
<polygon fill="white" stroke="black" points="235.457,-94.5 235.457,-112.5 367.072,-112.5 367.072,-94.5 235.457,-94.5"/>
<text text-anchor="middle" x="301.265" y="-100.5" font-family="Helvetica,sans-Serif" font-size="10.00">MK::KVDatabase::hasKey</text>
</a>
</g>
</g>
<!-- Node1&#45;&gt;Node2 -->
<g id="edge1" class="edge"><title>Node1&#45;&gt;Node2</title>
<path fill="none" stroke="midnightblue" d="M168.898,-90.956C191.073,-93.0734 214.455,-95.3062 235.248,-97.2917"/>
<polygon fill="midnightblue" stroke="midnightblue" points="169.096,-87.459 158.808,-89.9925 168.43,-94.4273 169.096,-87.459"/>
</g>
<!-- Node3 -->
<g id="node3" class="node"><title>Node3</title>
<g id="a_node3"><a xlink:href="namespace_m_k_1_1_k_v_database.html#a4058098a441fb6e62605317242ebb54a" target="_top" xlink:title="Sets given key in database to the result of applying given binary operation to previous value (defaul...">
<polygon fill="white" stroke="black" points="194.686,-47.5 194.686,-75.5 407.844,-75.5 407.844,-47.5 194.686,-47.5"/>
<text text-anchor="start" x="202.686" y="-63.5" font-family="Helvetica,sans-Serif" font-size="10.00">MK::KVDatabase::storeApplying</text>
<text text-anchor="middle" x="301.265" y="-53.5" font-family="Helvetica,sans-Serif" font-size="10.00">BinaryOperationAndReturningPreviousValue</text>
</a>
</g>
</g>
<!-- Node1&#45;&gt;Node3 -->
<g id="edge2" class="edge"><title>Node1&#45;&gt;Node3</title>
<path fill="none" stroke="midnightblue" d="M168.978,-74.0364C177.397,-73.2325 185.989,-72.412 194.547,-71.5948"/>
<polygon fill="midnightblue" stroke="midnightblue" points="168.43,-70.5727 158.808,-75.0075 169.096,-77.541 168.43,-70.5727"/>
</g>
<!-- Node4 -->
<g id="node4" class="node"><title>Node4</title>
<g id="a_node4"><a xlink:href="namespace_m_k_1_1_k_v_database.html#aa67a4972fe3adb6041b9da4cab53841f" target="_top" xlink:title="Increases long value for given key by given amount. ">
<polygon fill="white" stroke="black" points="456.356,-94.5 456.356,-122.5 592.415,-122.5 592.415,-94.5 456.356,-94.5"/>
<text text-anchor="start" x="464.356" y="-110.5" font-family="Helvetica,sans-Serif" font-size="10.00">MK::KVDatabase::increase</text>
<text text-anchor="middle" x="524.385" y="-100.5" font-family="Helvetica,sans-Serif" font-size="10.00">LongValueForKey</text>
</a>
</g>
</g>
<!-- Node3&#45;&gt;Node4 -->
<g id="edge3" class="edge"><title>Node3&#45;&gt;Node4</title>
<path fill="none" stroke="midnightblue" d="M378.371,-77.6767C404.043,-83.1333 432.467,-89.175 457.3,-94.4533"/>
<polygon fill="midnightblue" stroke="midnightblue" points="378.818,-74.1935 368.309,-75.5379 377.362,-81.0406 378.818,-74.1935"/>
</g>
<!-- Node6 -->
<g id="node6" class="node"><title>Node6</title>
<g id="a_node6"><a xlink:href="namespace_m_k_1_1_k_v_database.html#aa3230cc40fb3f67eeebc7c388825ee81" target="_top" xlink:title="Keeps maximum long value between current long value and given value. ">
<polygon fill="white" stroke="black" points="443.844,-47.5 443.844,-75.5 604.927,-75.5 604.927,-47.5 443.844,-47.5"/>
<text text-anchor="start" x="451.844" y="-63.5" font-family="Helvetica,sans-Serif" font-size="10.00">MK::KVDatabase::keepMaxLong</text>
<text text-anchor="middle" x="524.385" y="-53.5" font-family="Helvetica,sans-Serif" font-size="10.00">ValueForKey</text>
</a>
</g>
</g>
<!-- Node3&#45;&gt;Node6 -->
<g id="edge5" class="edge"><title>Node3&#45;&gt;Node6</title>
<path fill="none" stroke="midnightblue" d="M418.091,-61.5C426.709,-61.5 435.285,-61.5 443.607,-61.5"/>
<polygon fill="midnightblue" stroke="midnightblue" points="417.968,-58.0001 407.968,-61.5 417.968,-65.0001 417.968,-58.0001"/>
</g>
<!-- Node7 -->
<g id="node7" class="node"><title>Node7</title>
<g id="a_node7"><a xlink:href="namespace_m_k_1_1_k_v_database.html#ae2bf5047196dcd947b56e680bbe53a1b" target="_top" xlink:title="Keeps minimum long value between current long value and given value. ">
<polygon fill="white" stroke="black" points="445.233,-0.5 445.233,-28.5 603.538,-28.5 603.538,-0.5 445.233,-0.5"/>
<text text-anchor="start" x="453.233" y="-16.5" font-family="Helvetica,sans-Serif" font-size="10.00">MK::KVDatabase::keepMinLong</text>
<text text-anchor="middle" x="524.385" y="-6.5" font-family="Helvetica,sans-Serif" font-size="10.00">ValueForKey</text>
</a>
</g>
</g>
<!-- Node3&#45;&gt;Node7 -->
<g id="edge6" class="edge"><title>Node3&#45;&gt;Node7</title>
<path fill="none" stroke="midnightblue" d="M378.371,-45.3233C404.043,-39.8667 432.467,-33.825 457.3,-28.5467"/>
<polygon fill="midnightblue" stroke="midnightblue" points="377.362,-41.9594 368.309,-47.4621 378.818,-48.8065 377.362,-41.9594"/>
</g>
<!-- Node5 -->
<g id="node5" class="node"><title>Node5</title>
<g id="a_node5"><a xlink:href="namespace_m_k_1_1_k_v_database.html#ad79c7c1255ddfb778041afba1f47e903" target="_top" xlink:title="Decreases long value for given key by given amount. ">
<polygon fill="white" stroke="black" points="640.927,-94.5 640.927,-122.5 780.325,-122.5 780.325,-94.5 640.927,-94.5"/>
<text text-anchor="start" x="648.927" y="-110.5" font-family="Helvetica,sans-Serif" font-size="10.00">MK::KVDatabase::decrease</text>
<text text-anchor="middle" x="710.626" y="-100.5" font-family="Helvetica,sans-Serif" font-size="10.00">LongValueForKey</text>
</a>
</g>
</g>
<!-- Node4&#45;&gt;Node5 -->
<g id="edge4" class="edge"><title>Node4&#45;&gt;Node5</title>
<path fill="none" stroke="midnightblue" d="M602.505,-108.5C615.207,-108.5 628.3,-108.5 640.783,-108.5"/>
<polygon fill="midnightblue" stroke="midnightblue" points="602.422,-105 592.422,-108.5 602.422,-112 602.422,-105"/>
</g>
</g>
</svg>
