<?xml version="1.0" encoding="UTF-8" standalone="no"?>
<!DOCTYPE svg PUBLIC "-//W3C//DTD SVG 1.1//EN"
 "http://www.w3.org/Graphics/SVG/1.1/DTD/svg11.dtd">
<!-- Generated by graphviz version 2.38.0 (20140413.2041)
 -->
<!-- Title: MK::Analytics::logNonReadyVideoRewardDisplay Pages: 1 -->
<svg width="470pt" height="64pt"
 viewBox="0.00 0.00 470.37 64.00" xmlns="http://www.w3.org/2000/svg" xmlns:xlink="http://www.w3.org/1999/xlink">
<g id="graph0" class="graph" transform="scale(1 1) rotate(0) translate(4 60)">
<title>MK::Analytics::logNonReadyVideoRewardDisplay</title>
<polygon fill="white" stroke="none" points="-4,4 -4,-60 466.373,-60 466.373,4 -4,4"/>
<!-- Node1 -->
<g id="node1" class="node"><title>Node1</title>
<polygon fill="#bfbfbf" stroke="black" points="0,-13.5 0,-41.5 142.724,-41.5 142.724,-13.5 0,-13.5"/>
<text text-anchor="start" x="8" y="-29.5" font-family="Helvetica,sans-Serif" font-size="10.00">MK::Analytics::logNonReady</text>
<text text-anchor="middle" x="71.3618" y="-19.5" font-family="Helvetica,sans-Serif" font-size="10.00">VideoRewardDisplay</text>
</g>
<!-- Node2 -->
<g id="node2" class="node"><title>Node2</title>
<g id="a_node2"><a xlink:href="namespace_m_k_1_1_analytics.html#a7bb95c80f3280eb2e484571354d8c61e" target="_top" xlink:title="Logs given event without additional attributes. ">
<polygon fill="white" stroke="black" points="178.724,-18.5 178.724,-36.5 299.768,-36.5 299.768,-18.5 178.724,-18.5"/>
<text text-anchor="middle" x="239.246" y="-24.5" font-family="Helvetica,sans-Serif" font-size="10.00">MK::Analytics::logEvent</text>
</a>
</g>
</g>
<!-- Node1&#45;&gt;Node2 -->
<g id="edge1" class="edge"><title>Node1&#45;&gt;Node2</title>
<path fill="none" stroke="midnightblue" d="M143.193,-27.5C151.582,-27.5 160.14,-27.5 168.513,-27.5"/>
<polygon fill="midnightblue" stroke="midnightblue" points="168.612,-31.0001 178.612,-27.5 168.612,-24.0001 168.612,-31.0001"/>
</g>
<!-- Node3 -->
<g id="node3" class="node"><title>Node3</title>
<g id="a_node3"><a xlink:href="namespace_m_k_1_1_analytics.html#a215ed26bf5eec68b43c10f46736dcff5" target="_top" xlink:title="Logs given event without additional attributes. ">
<polygon fill="white" stroke="black" points="335.768,-37.5 335.768,-55.5 462.373,-55.5 462.373,-37.5 335.768,-37.5"/>
<text text-anchor="middle" x="399.07" y="-43.5" font-family="Helvetica,sans-Serif" font-size="10.00">MK::Analytics::_logEvent</text>
</a>
</g>
</g>
<!-- Node2&#45;&gt;Node3 -->
<g id="edge2" class="edge"><title>Node2&#45;&gt;Node3</title>
<path fill="none" stroke="midnightblue" d="M299.912,-34.6831C308.32,-35.6952 317.037,-36.7447 325.651,-37.7817"/>
<polygon fill="midnightblue" stroke="midnightblue" points="325.344,-41.2699 335.69,-38.9903 326.18,-34.32 325.344,-41.2699"/>
</g>
<!-- Node4 -->
<g id="node4" class="node"><title>Node4</title>
<g id="a_node4"><a xlink:href="namespace_m_k_1_1_analytics.html#a06ed59ccf83270d8c89455e41efde314" target="_top" xlink:title="Returns whether Analytics logging in enbled or not. ">
<polygon fill="white" stroke="black" points="340.211,-0.5 340.211,-18.5 457.93,-18.5 457.93,-0.5 340.211,-0.5"/>
<text text-anchor="middle" x="399.07" y="-6.5" font-family="Helvetica,sans-Serif" font-size="10.00">MK::Analytics::enabled</text>
</a>
</g>
</g>
<!-- Node2&#45;&gt;Node4 -->
<g id="edge3" class="edge"><title>Node2&#45;&gt;Node4</title>
<path fill="none" stroke="midnightblue" d="M299.912,-20.695C309.798,-19.5675 320.113,-18.3911 330.184,-17.2425"/>
<polygon fill="midnightblue" stroke="midnightblue" points="330.609,-20.7168 340.148,-16.1061 329.815,-13.7619 330.609,-20.7168"/>
</g>
</g>
</svg>
