<?xml version="1.0" encoding="UTF-8" standalone="no"?>
<!DOCTYPE svg PUBLIC "-//W3C//DTD SVG 1.1//EN"
 "http://www.w3.org/Graphics/SVG/1.1/DTD/svg11.dtd">
<!-- Generated by graphviz version 2.38.0 (20140413.2041)
 -->
<!-- Title: MK::GameKit::Java_org_cocos2dx_cpp_AppActivity_callCppScoreCallback Pages: 1 -->
<svg width="895pt" height="92pt"
 viewBox="0.00 0.00 895.11 92.00" xmlns="http://www.w3.org/2000/svg" xmlns:xlink="http://www.w3.org/1999/xlink">
<g id="graph0" class="graph" transform="scale(1 1) rotate(0) translate(4 88)">
<title>MK::GameKit::Java_org_cocos2dx_cpp_AppActivity_callCppScoreCallback</title>
<polygon fill="white" stroke="none" points="-4,4 -4,-88 891.105,-88 891.105,4 -4,4"/>
<!-- Node1 -->
<g id="node1" class="node"><title>Node1</title>
<polygon fill="#bfbfbf" stroke="black" points="0,-11.5 0,-49.5 140.517,-49.5 140.517,-11.5 0,-11.5"/>
<text text-anchor="start" x="8" y="-37.5" font-family="Helvetica,sans-Serif" font-size="10.00">MK::GameKit::Java_org</text>
<text text-anchor="start" x="8" y="-27.5" font-family="Helvetica,sans-Serif" font-size="10.00">_cocos2dx_cpp_AppActivity</text>
<text text-anchor="middle" x="70.2583" y="-17.5" font-family="Helvetica,sans-Serif" font-size="10.00">_callCppScoreCallback</text>
</g>
<!-- Node2 -->
<g id="node2" class="node"><title>Node2</title>
<g id="a_node2"><a xlink:href="namespace_m_k_1_1_game_kit.html#ad65cc8a24b47cbb094481c7d0e50d505" target="_top" xlink:title="On Android returns whether Google Play Games is available (true) or not. ">
<polygon fill="white" stroke="black" points="176.517,-21.5 176.517,-39.5 305.158,-39.5 305.158,-21.5 176.517,-21.5"/>
<text text-anchor="middle" x="240.837" y="-27.5" font-family="Helvetica,sans-Serif" font-size="10.00">MK::GameKit::isAvailable</text>
</a>
</g>
</g>
<!-- Node1&#45;&gt;Node2 -->
<g id="edge1" class="edge"><title>Node1&#45;&gt;Node2</title>
<path fill="none" stroke="midnightblue" d="M150.82,-30.5C159.401,-30.5 168.047,-30.5 176.401,-30.5"/>
<polygon fill="midnightblue" stroke="midnightblue" points="150.799,-27.0001 140.799,-30.5 150.799,-34.0001 150.799,-27.0001"/>
</g>
<!-- Node3 -->
<g id="node3" class="node"><title>Node3</title>
<g id="a_node3"><a xlink:href="namespace_m_k_1_1_ad_kit.html#a6bca88e69dd5dc1616d521b88eb953cc" target="_top" xlink:title="Returns whether this user has video rewards available or not. ">
<polygon fill="white" stroke="black" points="341.158,-21.5 341.158,-39.5 510.942,-39.5 510.942,-21.5 341.158,-21.5"/>
<text text-anchor="middle" x="426.05" y="-27.5" font-family="Helvetica,sans-Serif" font-size="10.00">MK::AdKit::videoRewardsAvailable</text>
</a>
</g>
</g>
<!-- Node2&#45;&gt;Node3 -->
<g id="edge2" class="edge"><title>Node2&#45;&gt;Node3</title>
<path fill="none" stroke="midnightblue" d="M315.494,-30.5C323.868,-30.5 332.45,-30.5 340.946,-30.5"/>
<polygon fill="midnightblue" stroke="midnightblue" points="315.402,-27.0001 305.402,-30.5 315.402,-34.0001 315.402,-27.0001"/>
</g>
<!-- Node4 -->
<g id="node4" class="node"><title>Node4</title>
<g id="a_node4"><a xlink:href="interface_reward_video_delegate.html#a0bfa3f23795d0ad8cedcb3c7601b9305" target="_top" xlink:title="&#45;[RewardVideoDelegate\l requestNewRewardVideo]">
<polygon fill="white" stroke="black" points="554.164,-37.5 554.164,-65.5 688.938,-65.5 688.938,-37.5 554.164,-37.5"/>
<text text-anchor="start" x="562.164" y="-53.5" font-family="Helvetica,sans-Serif" font-size="10.00">&#45;[RewardVideoDelegate</text>
<text text-anchor="middle" x="621.551" y="-43.5" font-family="Helvetica,sans-Serif" font-size="10.00"> requestNewRewardVideo]</text>
</a>
</g>
</g>
<!-- Node3&#45;&gt;Node4 -->
<g id="edge3" class="edge"><title>Node3&#45;&gt;Node4</title>
<path fill="none" stroke="midnightblue" d="M520.24,-40.6136C531.663,-41.8533 543.152,-43.1001 554.069,-44.2849"/>
<polygon fill="midnightblue" stroke="midnightblue" points="520.554,-37.1272 510.235,-39.5278 519.799,-44.0864 520.554,-37.1272"/>
</g>
<!-- Node6 -->
<g id="node6" class="node"><title>Node6</title>
<g id="a_node6"><a xlink:href="namespace_m_k_1_1_ad_kit.html#acafca58cb7a9d2d72bb1990586e506af" target="_top" xlink:title="Shows video reward ad. ">
<polygon fill="white" stroke="black" points="546.942,-0.5 546.942,-18.5 696.16,-18.5 696.16,-0.5 546.942,-0.5"/>
<text text-anchor="middle" x="621.551" y="-6.5" font-family="Helvetica,sans-Serif" font-size="10.00">MK::AdKit::showVideoReward</text>
</a>
</g>
</g>
<!-- Node3&#45;&gt;Node6 -->
<g id="edge6" class="edge"><title>Node3&#45;&gt;Node6</title>
<path fill="none" stroke="midnightblue" d="M520.284,-20.3817C529.213,-19.4126 538.183,-18.4391 546.888,-17.4944"/>
<polygon fill="midnightblue" stroke="midnightblue" points="519.799,-16.9136 510.235,-21.4722 520.554,-23.8728 519.799,-16.9136"/>
</g>
<!-- Node4&#45;&gt;Node4 -->
<g id="edge5" class="edge"><title>Node4&#45;&gt;Node4</title>
<path fill="none" stroke="midnightblue" d="M587.566,-75.4873C591.175,-80.4413 602.503,-84 621.551,-84 652.028,-84 662.742,-74.8898 653.695,-65.5305"/>
<polygon fill="midnightblue" stroke="midnightblue" points="591.031,-76.0003 589.408,-65.5305 584.148,-74.7271 591.031,-76.0003"/>
</g>
<!-- Node5 -->
<g id="node5" class="node"><title>Node5</title>
<g id="a_node5"><a xlink:href="interface_reward_video_delegate.html#a5d8713e80adf05ec03e68072d573ad06" target="_top" xlink:title="&#45;[RewardVideoDelegate\l initWithAdUnitID:andCallback:]">
<polygon fill="white" stroke="black" points="732.16,-37.5 732.16,-65.5 887.105,-65.5 887.105,-37.5 732.16,-37.5"/>
<text text-anchor="start" x="740.16" y="-53.5" font-family="Helvetica,sans-Serif" font-size="10.00">&#45;[RewardVideoDelegate</text>
<text text-anchor="middle" x="809.633" y="-43.5" font-family="Helvetica,sans-Serif" font-size="10.00"> initWithAdUnitID:andCallback:]</text>
</a>
</g>
</g>
<!-- Node4&#45;&gt;Node5 -->
<g id="edge4" class="edge"><title>Node4&#45;&gt;Node5</title>
<path fill="none" stroke="midnightblue" d="M699.239,-51.5C710.097,-51.5 721.262,-51.5 732.117,-51.5"/>
<polygon fill="midnightblue" stroke="midnightblue" points="698.943,-48.0001 688.943,-51.5 698.943,-55.0001 698.943,-48.0001"/>
</g>
</g>
</svg>
