<?xml version="1.0" encoding="UTF-8" standalone="no"?>
<!DOCTYPE svg PUBLIC "-//W3C//DTD SVG 1.1//EN"
 "http://www.w3.org/Graphics/SVG/1.1/DTD/svg11.dtd">
<!-- Generated by graphviz version 2.38.0 (20140413.2041)
 -->
<!-- Title: MK::Device::screenSize Pages: 1 -->
<svg width="439pt" height="46pt"
 viewBox="0.00 0.00 439.24 46.00" xmlns="http://www.w3.org/2000/svg" xmlns:xlink="http://www.w3.org/1999/xlink">
<g id="graph0" class="graph" transform="scale(1 1) rotate(0) translate(4 42)">
<title>MK::Device::screenSize</title>
<polygon fill="white" stroke="none" points="-4,4 -4,-42 435.24,-42 435.24,4 -4,4"/>
<!-- Node1 -->
<g id="node1" class="node"><title>Node1</title>
<polygon fill="#bfbfbf" stroke="black" points="0,-19.5 0,-37.5 122.147,-37.5 122.147,-19.5 0,-19.5"/>
<text text-anchor="middle" x="61.0737" y="-25.5" font-family="Helvetica,sans-Serif" font-size="10.00">MK::Device::screenSize</text>
</g>
<!-- Node2 -->
<g id="node2" class="node"><title>Node2</title>
<g id="a_node2"><a xlink:href="_o_s_01_x_2_device_8mm.html#ae92bd57965d1e7252665aad1916433fd" target="_top" xlink:title="copy_mac_address">
<polygon fill="white" stroke="black" points="328.526,-19.5 328.526,-37.5 431.24,-37.5 431.24,-19.5 328.526,-19.5"/>
<text text-anchor="middle" x="379.883" y="-25.5" font-family="Helvetica,sans-Serif" font-size="10.00">copy_mac_address</text>
</a>
</g>
</g>
<!-- Node1&#45;&gt;Node2 -->
<g id="edge1" class="edge"><title>Node1&#45;&gt;Node2</title>
<path fill="none" stroke="midnightblue" d="M132.467,-28.5C191.879,-28.5 275.492,-28.5 328.427,-28.5"/>
<polygon fill="midnightblue" stroke="midnightblue" points="132.409,-25.0001 122.409,-28.5 132.409,-32.0001 132.409,-25.0001"/>
</g>
<!-- Node3 -->
<g id="node3" class="node"><title>Node3</title>
<g id="a_node3"><a xlink:href="namespace_m_k_1_1_device.html#a15ac13199dceddf6370f09acf2a192ad" target="_top" xlink:title="Retuns this device&#39;s screen size, in pixel. ">
<polygon fill="white" stroke="black" points="158.147,-0.5 158.147,-18.5 292.526,-18.5 292.526,-0.5 158.147,-0.5"/>
<text text-anchor="middle" x="225.337" y="-6.5" font-family="Helvetica,sans-Serif" font-size="10.00">MK::Device::pxScreenSize</text>
</a>
</g>
</g>
<!-- Node1&#45;&gt;Node3 -->
<g id="edge2" class="edge"><title>Node1&#45;&gt;Node3</title>
<path fill="none" stroke="midnightblue" d="M132.701,-20.2299C141.153,-19.2403 149.759,-18.2326 158.144,-17.2507"/>
<polygon fill="midnightblue" stroke="midnightblue" points="132.02,-16.7858 122.495,-21.4251 132.834,-23.7383 132.02,-16.7858"/>
</g>
<!-- Node3&#45;&gt;Node2 -->
<g id="edge3" class="edge"><title>Node3&#45;&gt;Node2</title>
<path fill="none" stroke="midnightblue" d="M302.879,-19.0335C311.483,-20.1051 320.083,-21.1763 328.24,-22.1922"/>
<polygon fill="midnightblue" stroke="midnightblue" points="303.158,-15.5413 292.802,-17.7784 302.293,-22.4876 303.158,-15.5413"/>
</g>
</g>
</svg>
