<?xml version="1.0" encoding="UTF-8" standalone="no"?>
<!DOCTYPE svg PUBLIC "-//W3C//DTD SVG 1.1//EN"
 "http://www.w3.org/Graphics/SVG/1.1/DTD/svg11.dtd">
<!-- Generated by graphviz version 2.38.0 (20140413.2041)
 -->
<!-- Title: MK::Log::warning Pages: 1 -->
<svg width="464pt" height="92pt"
 viewBox="0.00 0.00 463.54 92.00" xmlns="http://www.w3.org/2000/svg" xmlns:xlink="http://www.w3.org/1999/xlink">
<g id="graph0" class="graph" transform="scale(1 1) rotate(0) translate(4 88)">
<title>MK::Log::warning</title>
<polygon fill="white" stroke="none" points="-4,4 -4,-88 459.537,-88 459.537,4 -4,4"/>
<!-- Node1 -->
<g id="node1" class="node"><title>Node1</title>
<polygon fill="#bfbfbf" stroke="black" points="0,-35.5 0,-53.5 93.8174,-53.5 93.8174,-35.5 0,-35.5"/>
<text text-anchor="middle" x="46.9087" y="-41.5" font-family="Helvetica,sans-Serif" font-size="10.00">MK::Log::warning</text>
</g>
<!-- Node2 -->
<g id="node2" class="node"><title>Node2</title>
<g id="a_node2"><a xlink:href="_o_s_01_x_2_device_8mm.html#ae92bd57965d1e7252665aad1916433fd" target="_top" xlink:title="copy_mac_address">
<polygon fill="white" stroke="black" points="145.848,-65.5 145.848,-83.5 248.562,-83.5 248.562,-65.5 145.848,-65.5"/>
<text text-anchor="middle" x="197.205" y="-71.5" font-family="Helvetica,sans-Serif" font-size="10.00">copy_mac_address</text>
</a>
</g>
</g>
<!-- Node1&#45;&gt;Node2 -->
<g id="edge1" class="edge"><title>Node1&#45;&gt;Node2</title>
<path fill="none" stroke="midnightblue" d="M102.272,-55.4977C118.455,-58.7714 135.994,-62.3194 151.486,-65.4536"/>
<polygon fill="midnightblue" stroke="midnightblue" points="102.898,-52.0534 92.4024,-53.501 101.51,-58.9144 102.898,-52.0534"/>
</g>
<!-- Node3 -->
<g id="node3" class="node"><title>Node3</title>
<g id="a_node3"><a xlink:href="interface_reward_video_delegate.html#a0bfa3f23795d0ad8cedcb3c7601b9305" target="_top" xlink:title="&#45;[RewardVideoDelegate\l requestNewRewardVideo]">
<polygon fill="white" stroke="black" points="129.817,-0.5 129.817,-28.5 264.592,-28.5 264.592,-0.5 129.817,-0.5"/>
<text text-anchor="start" x="137.817" y="-16.5" font-family="Helvetica,sans-Serif" font-size="10.00">&#45;[RewardVideoDelegate</text>
<text text-anchor="middle" x="197.205" y="-6.5" font-family="Helvetica,sans-Serif" font-size="10.00"> requestNewRewardVideo]</text>
</a>
</g>
</g>
<!-- Node1&#45;&gt;Node3 -->
<g id="edge2" class="edge"><title>Node1&#45;&gt;Node3</title>
<path fill="none" stroke="midnightblue" d="M102.298,-33.4972C111.245,-31.6872 120.606,-29.7934 129.807,-27.9322"/>
<polygon fill="midnightblue" stroke="midnightblue" points="101.51,-30.0856 92.4024,-35.499 102.898,-36.9466 101.51,-30.0856"/>
</g>
<!-- Node3&#45;&gt;Node3 -->
<g id="edge4" class="edge"><title>Node3&#45;&gt;Node3</title>
<path fill="none" stroke="midnightblue" d="M170.089,-38.4873C172.968,-43.4413 182.007,-47 197.205,-47 221.521,-47 230.07,-37.8898 222.851,-28.5305"/>
<polygon fill="midnightblue" stroke="midnightblue" points="173.561,-38.9343 171.558,-28.5305 166.636,-37.9124 173.561,-38.9343"/>
</g>
<!-- Node4 -->
<g id="node4" class="node"><title>Node4</title>
<g id="a_node4"><a xlink:href="interface_reward_video_delegate.html#a5d8713e80adf05ec03e68072d573ad06" target="_top" xlink:title="&#45;[RewardVideoDelegate\l initWithAdUnitID:andCallback:]">
<polygon fill="white" stroke="black" points="300.592,-0.5 300.592,-28.5 455.537,-28.5 455.537,-0.5 300.592,-0.5"/>
<text text-anchor="start" x="308.592" y="-16.5" font-family="Helvetica,sans-Serif" font-size="10.00">&#45;[RewardVideoDelegate</text>
<text text-anchor="middle" x="378.064" y="-6.5" font-family="Helvetica,sans-Serif" font-size="10.00"> initWithAdUnitID:andCallback:]</text>
</a>
</g>
</g>
<!-- Node3&#45;&gt;Node4 -->
<g id="edge3" class="edge"><title>Node3&#45;&gt;Node4</title>
<path fill="none" stroke="midnightblue" d="M275,-14.5C283.437,-14.5 292.027,-14.5 300.462,-14.5"/>
<polygon fill="midnightblue" stroke="midnightblue" points="274.805,-11.0001 264.805,-14.5 274.805,-18.0001 274.805,-11.0001"/>
</g>
</g>
</svg>
