<?xml version="1.0" encoding="UTF-8" standalone="no"?>
<!DOCTYPE svg PUBLIC "-//W3C//DTD SVG 1.1//EN"
 "http://www.w3.org/Graphics/SVG/1.1/DTD/svg11.dtd">
<!-- Generated by graphviz version 2.38.0 (20140413.2041)
 -->
<!-- Title: MK::IAPKit::buyIfPossible Pages: 1 -->
<svg width="431pt" height="64pt"
 viewBox="0.00 0.00 430.92 64.00" xmlns="http://www.w3.org/2000/svg" xmlns:xlink="http://www.w3.org/1999/xlink">
<g id="graph0" class="graph" transform="scale(1 1) rotate(0) translate(4 60)">
<title>MK::IAPKit::buyIfPossible</title>
<polygon fill="white" stroke="none" points="-4,4 -4,-60 426.925,-60 426.925,4 -4,4"/>
<!-- Node1 -->
<g id="node1" class="node"><title>Node1</title>
<polygon fill="#bfbfbf" stroke="black" points="0,-18.5 0,-36.5 129.379,-36.5 129.379,-18.5 0,-18.5"/>
<text text-anchor="middle" x="64.6895" y="-24.5" font-family="Helvetica,sans-Serif" font-size="10.00">MK::IAPKit::buyIfPossible</text>
</g>
<!-- Node2 -->
<g id="node2" class="node"><title>Node2</title>
<g id="a_node2"><a xlink:href="namespace_m_k_1_1_i_a_p_kit.html#ad4cf30908b63ff36cf48fb6b44c45007" target="_top" xlink:title="Tries to buy given item, calling callback on finished. ">
<polygon fill="white" stroke="black" points="165.379,-37.5 165.379,-55.5 300.319,-55.5 300.319,-37.5 165.379,-37.5"/>
<text text-anchor="middle" x="232.849" y="-43.5" font-family="Helvetica,sans-Serif" font-size="10.00">MK::IAPKit::_buyIfPossible</text>
</a>
</g>
</g>
<!-- Node1&#45;&gt;Node2 -->
<g id="edge1" class="edge"><title>Node1&#45;&gt;Node2</title>
<path fill="none" stroke="midnightblue" d="M129.456,-34.7916C137.876,-35.7543 146.576,-36.7492 155.183,-37.7334"/>
<polygon fill="midnightblue" stroke="midnightblue" points="154.89,-41.2226 165.223,-38.8815 155.685,-34.2679 154.89,-41.2226"/>
</g>
<!-- Node4 -->
<g id="node4" class="node"><title>Node4</title>
<g id="a_node4"><a xlink:href="namespace_m_k_1_1_i_a_p_kit.html#aaaf94652bf53567cfedcd0ef482858f8" target="_top" xlink:title="Returns whether IAPKit is enabled or not. ">
<polygon fill="white" stroke="black" points="180.103,-0.5 180.103,-18.5 285.595,-18.5 285.595,-0.5 180.103,-0.5"/>
<text text-anchor="middle" x="232.849" y="-6.5" font-family="Helvetica,sans-Serif" font-size="10.00">MK::IAPKit::enabled</text>
</a>
</g>
</g>
<!-- Node1&#45;&gt;Node4 -->
<g id="edge3" class="edge"><title>Node1&#45;&gt;Node4</title>
<path fill="none" stroke="midnightblue" d="M129.456,-20.5922C142.802,-19.1464 156.852,-17.6244 170.122,-16.1868"/>
<polygon fill="midnightblue" stroke="midnightblue" points="170.529,-19.6634 180.094,-15.1066 169.775,-12.7041 170.529,-19.6634"/>
</g>
<!-- Node3 -->
<g id="node3" class="node"><title>Node3</title>
<g id="a_node3"><a xlink:href="namespace_m_k_1_1_log.html#a3e84a309c158873fecff57e1db770c9a" target="_top" xlink:title="Logs a debug message that will not appear also in release builds. ">
<polygon fill="white" stroke="black" points="336.319,-37.5 336.319,-55.5 422.925,-55.5 422.925,-37.5 336.319,-37.5"/>
<text text-anchor="middle" x="379.622" y="-43.5" font-family="Helvetica,sans-Serif" font-size="10.00">MK::Log::debug</text>
</a>
</g>
</g>
<!-- Node2&#45;&gt;Node3 -->
<g id="edge2" class="edge"><title>Node2&#45;&gt;Node3</title>
<path fill="none" stroke="midnightblue" d="M300.727,-46.5C309.166,-46.5 317.705,-46.5 325.883,-46.5"/>
<polygon fill="midnightblue" stroke="midnightblue" points="326.013,-50.0001 336.013,-46.5 326.013,-43.0001 326.013,-50.0001"/>
</g>
</g>
</svg>
