<?xml version="1.0" encoding="UTF-8" standalone="no"?>
<!DOCTYPE svg PUBLIC "-//W3C//DTD SVG 1.1//EN"
 "http://www.w3.org/Graphics/SVG/1.1/DTD/svg11.dtd">
<!-- Generated by graphviz version 2.38.0 (20140413.2041)
 -->
<!-- Title: MK::Random::FloatingPointNumberInRange Pages: 1 -->
<svg width="323pt" height="74pt"
 viewBox="0.00 0.00 323.34 74.00" xmlns="http://www.w3.org/2000/svg" xmlns:xlink="http://www.w3.org/1999/xlink">
<g id="graph0" class="graph" transform="scale(1 1) rotate(0) translate(4 70)">
<title>MK::Random::FloatingPointNumberInRange</title>
<polygon fill="white" stroke="none" points="-4,4 -4,-70 319.344,-70 319.344,4 -4,4"/>
<!-- Node1 -->
<g id="node1" class="node"><title>Node1</title>
<polygon fill="#bfbfbf" stroke="black" points="0,-16.5 0,-44.5 138.28,-44.5 138.28,-16.5 0,-16.5"/>
<text text-anchor="start" x="8" y="-32.5" font-family="Helvetica,sans-Serif" font-size="10.00">MK::Random::FloatingPoint</text>
<text text-anchor="middle" x="69.1401" y="-22.5" font-family="Helvetica,sans-Serif" font-size="10.00">NumberInRange</text>
</g>
<!-- Node2 -->
<g id="node2" class="node"><title>Node2</title>
<g id="a_node2"><a xlink:href="class_m_k_1_1_range.html#ad463f8b059e07cec16262700d69664fe" target="_top" xlink:title="Returns a random value contained in this range, that is, a random value such that &#160;holds...">
<polygon fill="white" stroke="black" points="174.28,-37.5 174.28,-65.5 315.344,-65.5 315.344,-37.5 174.28,-37.5"/>
<text text-anchor="start" x="182.28" y="-53.5" font-family="Helvetica,sans-Serif" font-size="10.00">MK::Range::randomFloating</text>
<text text-anchor="middle" x="244.812" y="-43.5" font-family="Helvetica,sans-Serif" font-size="10.00">Point</text>
</a>
</g>
</g>
<!-- Node1&#45;&gt;Node2 -->
<g id="edge1" class="edge"><title>Node1&#45;&gt;Node2</title>
<path fill="none" stroke="midnightblue" d="M148.318,-39.9531C156.93,-40.9944 165.656,-42.0496 174.154,-43.0771"/>
<polygon fill="midnightblue" stroke="midnightblue" points="148.629,-36.4653 138.281,-38.7395 147.789,-43.4147 148.629,-36.4653"/>
</g>
<!-- Node3 -->
<g id="node3" class="node"><title>Node3</title>
<g id="a_node3"><a xlink:href="namespace_m_k_1_1_random.html#a241f791f42c63cb45ff07af74a4483ad" target="_top" xlink:title="Given a probability (floating point number between zero and one, both included) returns a random bool...">
<polygon fill="white" stroke="black" points="177.061,-0.5 177.061,-18.5 312.563,-18.5 312.563,-0.5 177.061,-0.5"/>
<text text-anchor="middle" x="244.812" y="-6.5" font-family="Helvetica,sans-Serif" font-size="10.00">MK::Random::TakeChance</text>
</a>
</g>
</g>
<!-- Node1&#45;&gt;Node3 -->
<g id="edge2" class="edge"><title>Node1&#45;&gt;Node3</title>
<path fill="none" stroke="midnightblue" d="M148.223,-21.0584C157.832,-19.8966 167.585,-18.7172 177.006,-17.5781"/>
<polygon fill="midnightblue" stroke="midnightblue" points="147.789,-17.5853 138.281,-22.2605 148.629,-24.5347 147.789,-17.5853"/>
</g>
</g>
</svg>
