<?xml version="1.0" encoding="UTF-8" standalone="no"?>
<!DOCTYPE svg PUBLIC "-//W3C//DTD SVG 1.1//EN"
 "http://www.w3.org/Graphics/SVG/1.1/DTD/svg11.dtd">
<!-- Generated by graphviz version 2.38.0 (20140413.2041)
 -->
<!-- Title: MK::IAPKit::restorePurchases Pages: 1 -->
<svg width="346pt" height="64pt"
 viewBox="0.00 0.00 346.10 64.00" xmlns="http://www.w3.org/2000/svg" xmlns:xlink="http://www.w3.org/1999/xlink">
<g id="graph0" class="graph" transform="scale(1 1) rotate(0) translate(4 60)">
<title>MK::IAPKit::restorePurchases</title>
<polygon fill="white" stroke="none" points="-4,4 -4,-60 342.103,-60 342.103,4 -4,4"/>
<!-- Node1 -->
<g id="node1" class="node"><title>Node1</title>
<polygon fill="#bfbfbf" stroke="black" points="0,-18.5 0,-36.5 148.271,-36.5 148.271,-18.5 0,-18.5"/>
<text text-anchor="middle" x="74.1353" y="-24.5" font-family="Helvetica,sans-Serif" font-size="10.00">MK::IAPKit::restorePurchases</text>
</g>
<!-- Node2 -->
<g id="node2" class="node"><title>Node2</title>
<g id="a_node2"><a xlink:href="namespace_m_k_1_1_i_a_p_kit.html#a0e3cf8ba54a5272086984dd30d13a4ac" target="_top" xlink:title="Restores any previously purchased item, calling given callback on end. ">
<polygon fill="white" stroke="black" points="184.271,-37.5 184.271,-55.5 338.103,-55.5 338.103,-37.5 184.271,-37.5"/>
<text text-anchor="middle" x="261.187" y="-43.5" font-family="Helvetica,sans-Serif" font-size="10.00">MK::IAPKit::_restorePurchases</text>
</a>
</g>
</g>
<!-- Node1&#45;&gt;Node2 -->
<g id="edge1" class="edge"><title>Node1&#45;&gt;Node2</title>
<path fill="none" stroke="midnightblue" d="M148.272,-35.0093C156.768,-35.8816 165.492,-36.7773 174.14,-37.6652"/>
<polygon fill="midnightblue" stroke="midnightblue" points="173.934,-41.1624 184.239,-38.7022 174.649,-34.199 173.934,-41.1624"/>
</g>
<!-- Node3 -->
<g id="node3" class="node"><title>Node3</title>
<g id="a_node3"><a xlink:href="namespace_m_k_1_1_i_a_p_kit.html#aaaf94652bf53567cfedcd0ef482858f8" target="_top" xlink:title="Returns whether IAPKit is enabled or not. ">
<polygon fill="white" stroke="black" points="208.44,-0.5 208.44,-18.5 313.933,-18.5 313.933,-0.5 208.44,-0.5"/>
<text text-anchor="middle" x="261.187" y="-6.5" font-family="Helvetica,sans-Serif" font-size="10.00">MK::IAPKit::enabled</text>
</a>
</g>
</g>
<!-- Node1&#45;&gt;Node3 -->
<g id="edge2" class="edge"><title>Node1&#45;&gt;Node3</title>
<path fill="none" stroke="midnightblue" d="M148.272,-20.3859C164.764,-18.7818 182.116,-17.0939 198.103,-15.5388"/>
<polygon fill="midnightblue" stroke="midnightblue" points="198.775,-18.9901 208.39,-14.5383 198.098,-12.023 198.775,-18.9901"/>
</g>
</g>
</svg>
