<?xml version="1.0" encoding="UTF-8" standalone="no"?>
<!DOCTYPE svg PUBLIC "-//W3C//DTD SVG 1.1//EN"
 "http://www.w3.org/Graphics/SVG/1.1/DTD/svg11.dtd">
<!-- Generated by graphviz version 2.38.0 (20140413.2041)
 -->
<!-- Title: MK::GameKit::ReplayKit::stopRecording Pages: 1 -->
<svg width="292pt" height="37pt"
 viewBox="0.00 0.00 291.62 37.00" xmlns="http://www.w3.org/2000/svg" xmlns:xlink="http://www.w3.org/1999/xlink">
<g id="graph0" class="graph" transform="scale(1 1) rotate(0) translate(4 33)">
<title>MK::GameKit::ReplayKit::stopRecording</title>
<polygon fill="white" stroke="none" points="-4,4 -4,-33 287.625,-33 287.625,4 -4,4"/>
<!-- Node1 -->
<g id="node1" class="node"><title>Node1</title>
<polygon fill="#bfbfbf" stroke="black" points="0,-0.5 0,-28.5 123.812,-28.5 123.812,-0.5 0,-0.5"/>
<text text-anchor="start" x="8" y="-16.5" font-family="Helvetica,sans-Serif" font-size="10.00">MK::GameKit::ReplayKit</text>
<text text-anchor="middle" x="61.9062" y="-6.5" font-family="Helvetica,sans-Serif" font-size="10.00">::stopRecording</text>
</g>
<!-- Node2 -->
<g id="node2" class="node"><title>Node2</title>
<g id="a_node2"><a xlink:href="namespace_m_k_1_1_game_kit_1_1_replay_kit.html#aba2a10bcf57eb8111fff86703994dfa6" target="_top" xlink:title="Discards current recording. ">
<polygon fill="white" stroke="black" points="159.812,-0.5 159.812,-28.5 283.625,-28.5 283.625,-0.5 159.812,-0.5"/>
<text text-anchor="start" x="167.812" y="-16.5" font-family="Helvetica,sans-Serif" font-size="10.00">MK::GameKit::ReplayKit</text>
<text text-anchor="middle" x="221.719" y="-6.5" font-family="Helvetica,sans-Serif" font-size="10.00">::discardRecording</text>
</a>
</g>
</g>
<!-- Node1&#45;&gt;Node2 -->
<g id="edge1" class="edge"><title>Node1&#45;&gt;Node2</title>
<path fill="none" stroke="midnightblue" d="M134.187,-14.5C142.674,-14.5 151.28,-14.5 159.606,-14.5"/>
<polygon fill="midnightblue" stroke="midnightblue" points="133.921,-11.0001 123.921,-14.5 133.921,-18.0001 133.921,-11.0001"/>
</g>
</g>
</svg>
