<?xml version="1.0" encoding="UTF-8" standalone="no"?>
<!DOCTYPE svg PUBLIC "-//W3C//DTD SVG 1.1//EN"
 "http://www.w3.org/Graphics/SVG/1.1/DTD/svg11.dtd">
<!-- Generated by graphviz version 2.38.0 (20140413.2041)
 -->
<!-- Title: MK::IAPKit::enabled Pages: 1 -->
<svg width="298pt" height="148pt"
 viewBox="0.00 0.00 297.76 148.00" xmlns="http://www.w3.org/2000/svg" xmlns:xlink="http://www.w3.org/1999/xlink">
<g id="graph0" class="graph" transform="scale(1 1) rotate(0) translate(4 144)">
<title>MK::IAPKit::enabled</title>
<polygon fill="white" stroke="none" points="-4,4 -4,-144 293.763,-144 293.763,4 -4,4"/>
<!-- Node1 -->
<g id="node1" class="node"><title>Node1</title>
<polygon fill="#bfbfbf" stroke="black" points="0,-55.5 0,-73.5 105.492,-73.5 105.492,-55.5 0,-55.5"/>
<text text-anchor="middle" x="52.7461" y="-61.5" font-family="Helvetica,sans-Serif" font-size="10.00">MK::IAPKit::enabled</text>
</g>
<!-- Node2 -->
<g id="node2" class="node"><title>Node2</title>
<g id="a_node2"><a xlink:href="namespace_m_k_1_1_i_a_p_kit.html#a1f52a6b60dd3e544ea0ef1d7a75625cb" target="_top" xlink:title="Returns title of buy button for product with given identifier. ">
<polygon fill="white" stroke="black" points="148.897,-111.5 148.897,-139.5 282.358,-139.5 282.358,-111.5 148.897,-111.5"/>
<text text-anchor="start" x="156.897" y="-127.5" font-family="Helvetica,sans-Serif" font-size="10.00">MK::IAPKit::buyButtonTitle</text>
<text text-anchor="middle" x="215.627" y="-117.5" font-family="Helvetica,sans-Serif" font-size="10.00">ForProduct</text>
</a>
</g>
</g>
<!-- Node1&#45;&gt;Node2 -->
<g id="edge1" class="edge"><title>Node1&#45;&gt;Node2</title>
<path fill="none" stroke="midnightblue" d="M82.394,-77.8039C99.3922,-85.4713 121.466,-95.0378 141.492,-102.5 149.849,-105.614 158.841,-108.673 167.563,-111.493"/>
<polygon fill="midnightblue" stroke="midnightblue" points="83.5775,-74.4971 73.0261,-73.5391 80.6772,-80.868 83.5775,-74.4971"/>
</g>
<!-- Node3 -->
<g id="node3" class="node"><title>Node3</title>
<g id="a_node3"><a xlink:href="namespace_m_k_1_1_i_a_p_kit.html#a244b106e812be9028b3c9c23f9f51752" target="_top" xlink:title="Tries to buy given item, calling callback on finished. ">
<polygon fill="white" stroke="black" points="150.938,-74.5 150.938,-92.5 280.317,-92.5 280.317,-74.5 150.938,-74.5"/>
<text text-anchor="middle" x="215.627" y="-80.5" font-family="Helvetica,sans-Serif" font-size="10.00">MK::IAPKit::buyIfPossible</text>
</a>
</g>
</g>
<!-- Node1&#45;&gt;Node3 -->
<g id="edge2" class="edge"><title>Node1&#45;&gt;Node3</title>
<path fill="none" stroke="midnightblue" d="M115.529,-71.7966C127.091,-73.162 139.196,-74.5916 150.817,-75.964"/>
<polygon fill="midnightblue" stroke="midnightblue" points="115.877,-68.3134 105.536,-70.6163 115.056,-75.2651 115.877,-68.3134"/>
</g>
<!-- Node4 -->
<g id="node4" class="node"><title>Node4</title>
<g id="a_node4"><a xlink:href="namespace_m_k_1_1_i_a_p_kit.html#af53bbaf9538db755f6028fe26232cdd2" target="_top" xlink:title="Inits In&#45;App Purchase system, calling given callback on end. ">
<polygon fill="white" stroke="black" points="174.285,-37.5 174.285,-55.5 256.97,-55.5 256.97,-37.5 174.285,-37.5"/>
<text text-anchor="middle" x="215.627" y="-43.5" font-family="Helvetica,sans-Serif" font-size="10.00">MK::IAPKit::init</text>
</a>
</g>
</g>
<!-- Node1&#45;&gt;Node4 -->
<g id="edge3" class="edge"><title>Node1&#45;&gt;Node4</title>
<path fill="none" stroke="midnightblue" d="M115.63,-57.5762C135.256,-55.3804 156.44,-53.0102 174.157,-51.028"/>
<polygon fill="midnightblue" stroke="midnightblue" points="115.084,-54.1153 105.536,-58.7056 115.863,-61.0719 115.084,-54.1153"/>
</g>
<!-- Node5 -->
<g id="node5" class="node"><title>Node5</title>
<g id="a_node5"><a xlink:href="namespace_m_k_1_1_i_a_p_kit.html#acd01af28d13abce09a6591b16733d419" target="_top" xlink:title="Restores any previously purchased item, calling given callback on end. ">
<polygon fill="white" stroke="black" points="141.492,-0.5 141.492,-18.5 289.763,-18.5 289.763,-0.5 141.492,-0.5"/>
<text text-anchor="middle" x="215.627" y="-6.5" font-family="Helvetica,sans-Serif" font-size="10.00">MK::IAPKit::restorePurchases</text>
</a>
</g>
</g>
<!-- Node1&#45;&gt;Node5 -->
<g id="edge4" class="edge"><title>Node1&#45;&gt;Node5</title>
<path fill="none" stroke="midnightblue" d="M82.996,-51.3373C99.882,-44.0333 121.644,-35.1162 141.492,-28.5 152.444,-24.8493 164.509,-21.4634 175.627,-18.5915"/>
<polygon fill="midnightblue" stroke="midnightblue" points="81.4247,-48.2045 73.6684,-55.4219 84.2326,-54.6166 81.4247,-48.2045"/>
</g>
</g>
</svg>
