<?xml version="1.0" encoding="UTF-8" standalone="no"?>
<!DOCTYPE svg PUBLIC "-//W3C//DTD SVG 1.1//EN"
 "http://www.w3.org/Graphics/SVG/1.1/DTD/svg11.dtd">
<!-- Generated by graphviz version 2.38.0 (20140413.2041)
 -->
<!-- Title: MK::AdKit::showTopBanner Pages: 1 -->
<svg width="697pt" height="85pt"
 viewBox="0.00 0.00 697.30 85.00" xmlns="http://www.w3.org/2000/svg" xmlns:xlink="http://www.w3.org/1999/xlink">
<g id="graph0" class="graph" transform="scale(1 1) rotate(0) translate(4 81)">
<title>MK::AdKit::showTopBanner</title>
<polygon fill="white" stroke="none" points="-4,4 -4,-81 693.3,-81 693.3,4 -4,4"/>
<!-- Node1 -->
<g id="node1" class="node"><title>Node1</title>
<polygon fill="#bfbfbf" stroke="black" points="0,-39.5 0,-57.5 137.729,-57.5 137.729,-39.5 0,-39.5"/>
<text text-anchor="middle" x="68.8643" y="-45.5" font-family="Helvetica,sans-Serif" font-size="10.00">MK::AdKit::showTopBanner</text>
</g>
<!-- Node2 -->
<g id="node2" class="node"><title>Node2</title>
<g id="a_node2"><a xlink:href="namespace_m_k_1_1_ad_kit.html#acf80fb472cfaa9a3fee8b99789ee39a5" target="_top" xlink:title="Shows a top banner ad. ">
<polygon fill="white" stroke="black" points="173.729,-58.5 173.729,-76.5 317.019,-76.5 317.019,-58.5 173.729,-58.5"/>
<text text-anchor="middle" x="245.374" y="-64.5" font-family="Helvetica,sans-Serif" font-size="10.00">MK::AdKit::_showTopBanner</text>
</a>
</g>
</g>
<!-- Node1&#45;&gt;Node2 -->
<g id="edge1" class="edge"><title>Node1&#45;&gt;Node2</title>
<path fill="none" stroke="midnightblue" d="M137.834,-55.9003C146.294,-56.8215 155.01,-57.7704 163.639,-58.7099"/>
<polygon fill="midnightblue" stroke="midnightblue" points="163.39,-62.2034 173.71,-59.8064 164.148,-55.2445 163.39,-62.2034"/>
</g>
<!-- Node3 -->
<g id="node3" class="node"><title>Node3</title>
<g id="a_node3"><a xlink:href="namespace_m_k_1_1_ad_kit.html#a1abd645a384f31dc1421e82772cfb472" target="_top" xlink:title="Returns whether ads are enabled for this user or not. ">
<polygon fill="white" stroke="black" points="194.571,-21.5 194.571,-39.5 296.176,-39.5 296.176,-21.5 194.571,-21.5"/>
<text text-anchor="middle" x="245.374" y="-27.5" font-family="Helvetica,sans-Serif" font-size="10.00">MK::AdKit::enabled</text>
</a>
</g>
</g>
<!-- Node1&#45;&gt;Node3 -->
<g id="edge2" class="edge"><title>Node1&#45;&gt;Node3</title>
<path fill="none" stroke="midnightblue" d="M137.834,-41.4892C153.152,-39.9092 169.305,-38.243 184.274,-36.6991"/>
<polygon fill="midnightblue" stroke="midnightblue" points="184.835,-40.1599 194.423,-35.6522 184.116,-33.1968 184.835,-40.1599"/>
</g>
<!-- Node4 -->
<g id="node4" class="node"><title>Node4</title>
<g id="a_node4"><a xlink:href="namespace_m_k_1_1_k_v_database.html#a767b41659c2ee79a635285b4ae078aa7" target="_top" xlink:title="Returns long value associated with given key. ">
<polygon fill="white" stroke="black" points="353.019,-37.5 353.019,-65.5 512.266,-65.5 512.266,-37.5 353.019,-37.5"/>
<text text-anchor="start" x="361.019" y="-53.5" font-family="Helvetica,sans-Serif" font-size="10.00">MK::KVDatabase::getLongValue</text>
<text text-anchor="middle" x="432.642" y="-43.5" font-family="Helvetica,sans-Serif" font-size="10.00">ForKey</text>
</a>
</g>
</g>
<!-- Node3&#45;&gt;Node4 -->
<g id="edge3" class="edge"><title>Node3&#45;&gt;Node4</title>
<path fill="none" stroke="midnightblue" d="M296.51,-36.1829C310.751,-37.7971 326.703,-39.6053 342.518,-41.3979"/>
<polygon fill="midnightblue" stroke="midnightblue" points="342.542,-44.9229 352.872,-42.5715 343.33,-37.9674 342.542,-44.9229"/>
</g>
<!-- Node5 -->
<g id="node5" class="node"><title>Node5</title>
<g id="a_node5"><a xlink:href="namespace_m_k_1_1_device.html#a983d07fad256fb9e289b985cb4237efa" target="_top" xlink:title="Returns whether this device is running OS X or not. ">
<polygon fill="white" stroke="black" points="382.132,-0.5 382.132,-18.5 483.152,-18.5 483.152,-0.5 382.132,-0.5"/>
<text text-anchor="middle" x="432.642" y="-6.5" font-family="Helvetica,sans-Serif" font-size="10.00">MK::Device::isOSX</text>
</a>
</g>
</g>
<!-- Node3&#45;&gt;Node5 -->
<g id="edge4" class="edge"><title>Node3&#45;&gt;Node5</title>
<path fill="none" stroke="midnightblue" d="M296.51,-24.8171C319.765,-22.1812 347.581,-19.0282 371.915,-16.27"/>
<polygon fill="midnightblue" stroke="midnightblue" points="372.565,-19.7188 382.108,-15.1147 371.777,-12.7633 372.565,-19.7188"/>
</g>
<!-- Node6 -->
<g id="node6" class="node"><title>Node6</title>
<g id="a_node6"><a xlink:href="namespace_m_k_1_1_device.html#a7c83a89bef610abaa7ada09d38c2f3fb" target="_top" xlink:title="Returns current platform. ">
<polygon fill="white" stroke="black" points="548.266,-0.5 548.266,-18.5 689.3,-18.5 689.3,-0.5 548.266,-0.5"/>
<text text-anchor="middle" x="618.783" y="-6.5" font-family="Helvetica,sans-Serif" font-size="10.00">MK::Device::currentPlatform</text>
</a>
</g>
</g>
<!-- Node5&#45;&gt;Node6 -->
<g id="edge5" class="edge"><title>Node5&#45;&gt;Node6</title>
<path fill="none" stroke="midnightblue" d="M483.473,-9.5C500.279,-9.5 519.481,-9.5 538.008,-9.5"/>
<polygon fill="midnightblue" stroke="midnightblue" points="538.211,-13.0001 548.211,-9.5 538.211,-6.0001 538.211,-13.0001"/>
</g>
</g>
</svg>
