<?xml version="1.0" encoding="UTF-8" standalone="no"?>
<!DOCTYPE svg PUBLIC "-//W3C//DTD SVG 1.1//EN"
 "http://www.w3.org/Graphics/SVG/1.1/DTD/svg11.dtd">
<!-- Generated by graphviz version 2.38.0 (20140413.2041)
 -->
<!-- Title: MK::Log::toFabric Pages: 1 -->
<svg width="640pt" height="92pt"
 viewBox="0.00 0.00 640.19 92.00" xmlns="http://www.w3.org/2000/svg" xmlns:xlink="http://www.w3.org/1999/xlink">
<g id="graph0" class="graph" transform="scale(1 1) rotate(0) translate(4 88)">
<title>MK::Log::toFabric</title>
<polygon fill="white" stroke="none" points="-4,4 -4,-88 636.186,-88 636.186,4 -4,4"/>
<!-- Node1 -->
<g id="node1" class="node"><title>Node1</title>
<polygon fill="#bfbfbf" stroke="black" points="0,-35.5 0,-53.5 94.9209,-53.5 94.9209,-35.5 0,-35.5"/>
<text text-anchor="middle" x="47.4604" y="-41.5" font-family="Helvetica,sans-Serif" font-size="10.00">MK::Log::toFabric</text>
</g>
<!-- Node2 -->
<g id="node2" class="node"><title>Node2</title>
<g id="a_node2"><a xlink:href="namespace_m_k_1_1_log.html#aaad0a85a2c31c679940f009469a1cabc" target="_top" xlink:title="Logs a non critical message that will appear also in release builds and will also be logged to Fabric...">
<polygon fill="white" stroke="black" points="130.921,-35.5 130.921,-53.5 263.635,-53.5 263.635,-35.5 130.921,-35.5"/>
<text text-anchor="middle" x="197.278" y="-41.5" font-family="Helvetica,sans-Serif" font-size="10.00">MK::Log::nonCriticalCrash</text>
</a>
</g>
</g>
<!-- Node1&#45;&gt;Node2 -->
<g id="edge1" class="edge"><title>Node1&#45;&gt;Node2</title>
<path fill="none" stroke="midnightblue" d="M105.276,-44.5C113.663,-44.5 122.361,-44.5 130.905,-44.5"/>
<polygon fill="midnightblue" stroke="midnightblue" points="105.231,-41.0001 95.2308,-44.5 105.231,-48.0001 105.231,-41.0001"/>
</g>
<!-- Node3 -->
<g id="node3" class="node"><title>Node3</title>
<g id="a_node3"><a xlink:href="namespace_m_k_1_1_game_kit.html#a5da107e47390d3e64f88e82d7d994d4e" target="_top" xlink:title="Signs in player in Game Center. ">
<polygon fill="white" stroke="black" points="299.635,-65.5 299.635,-83.5 441.24,-83.5 441.24,-65.5 299.635,-65.5"/>
<text text-anchor="middle" x="370.438" y="-71.5" font-family="Helvetica,sans-Serif" font-size="10.00">MK::GameKit::_signInPlayer</text>
</a>
</g>
</g>
<!-- Node2&#45;&gt;Node3 -->
<g id="edge2" class="edge"><title>Node2&#45;&gt;Node3</title>
<path fill="none" stroke="midnightblue" d="M259.704,-55.2665C278.744,-58.6038 299.522,-62.2455 317.825,-65.4536"/>
<polygon fill="midnightblue" stroke="midnightblue" points="260.086,-51.7801 249.631,-53.501 258.877,-58.6749 260.086,-51.7801"/>
</g>
<!-- Node4 -->
<g id="node4" class="node"><title>Node4</title>
<g id="a_node4"><a xlink:href="interface_reward_video_delegate.html#a0bfa3f23795d0ad8cedcb3c7601b9305" target="_top" xlink:title="&#45;[RewardVideoDelegate\l requestNewRewardVideo]">
<polygon fill="white" stroke="black" points="303.05,-0.5 303.05,-28.5 437.825,-28.5 437.825,-0.5 303.05,-0.5"/>
<text text-anchor="start" x="311.05" y="-16.5" font-family="Helvetica,sans-Serif" font-size="10.00">&#45;[RewardVideoDelegate</text>
<text text-anchor="middle" x="370.438" y="-6.5" font-family="Helvetica,sans-Serif" font-size="10.00"> requestNewRewardVideo]</text>
</a>
</g>
</g>
<!-- Node2&#45;&gt;Node4 -->
<g id="edge3" class="edge"><title>Node2&#45;&gt;Node4</title>
<path fill="none" stroke="midnightblue" d="M259.655,-33.7421C273.684,-31.2833 288.657,-28.6587 302.891,-26.1639"/>
<polygon fill="midnightblue" stroke="midnightblue" points="258.877,-30.3251 249.631,-35.499 260.086,-37.2199 258.877,-30.3251"/>
</g>
<!-- Node4&#45;&gt;Node4 -->
<g id="edge5" class="edge"><title>Node4&#45;&gt;Node4</title>
<path fill="none" stroke="midnightblue" d="M339.345,-38.4873C342.647,-43.4413 353.011,-47 370.438,-47 398.32,-47 408.123,-37.8898 399.845,-28.5305"/>
<polygon fill="midnightblue" stroke="midnightblue" points="342.812,-38.9743 341.03,-28.5305 335.91,-37.8063 342.812,-38.9743"/>
</g>
<!-- Node5 -->
<g id="node5" class="node"><title>Node5</title>
<g id="a_node5"><a xlink:href="interface_reward_video_delegate.html#a5d8713e80adf05ec03e68072d573ad06" target="_top" xlink:title="&#45;[RewardVideoDelegate\l initWithAdUnitID:andCallback:]">
<polygon fill="white" stroke="black" points="477.24,-0.5 477.24,-28.5 632.186,-28.5 632.186,-0.5 477.24,-0.5"/>
<text text-anchor="start" x="485.24" y="-16.5" font-family="Helvetica,sans-Serif" font-size="10.00">&#45;[RewardVideoDelegate</text>
<text text-anchor="middle" x="554.713" y="-6.5" font-family="Helvetica,sans-Serif" font-size="10.00"> initWithAdUnitID:andCallback:]</text>
</a>
</g>
</g>
<!-- Node4&#45;&gt;Node5 -->
<g id="edge4" class="edge"><title>Node4&#45;&gt;Node5</title>
<path fill="none" stroke="midnightblue" d="M448.272,-14.5C457.82,-14.5 467.582,-14.5 477.126,-14.5"/>
<polygon fill="midnightblue" stroke="midnightblue" points="448.017,-11.0001 438.017,-14.5 448.017,-18.0001 448.017,-11.0001"/>
</g>
</g>
</svg>
