<?xml version="1.0" encoding="UTF-8" standalone="no"?>
<!DOCTYPE svg PUBLIC "-//W3C//DTD SVG 1.1//EN"
 "http://www.w3.org/Graphics/SVG/1.1/DTD/svg11.dtd">
<!-- Generated by graphviz version 2.38.0 (20140413.2041)
 -->
<!-- Title: MK::AdKit::_showVideoReward Pages: 1 -->
<svg width="539pt" height="92pt"
 viewBox="0.00 0.00 538.94 92.00" xmlns="http://www.w3.org/2000/svg" xmlns:xlink="http://www.w3.org/1999/xlink">
<g id="graph0" class="graph" transform="scale(1 1) rotate(0) translate(4 88)">
<title>MK::AdKit::_showVideoReward</title>
<polygon fill="white" stroke="none" points="-4,4 -4,-88 534.942,-88 534.942,4 -4,4"/>
<!-- Node1 -->
<g id="node1" class="node"><title>Node1</title>
<polygon fill="#bfbfbf" stroke="black" points="0,-21.5 0,-39.5 154.779,-39.5 154.779,-21.5 0,-21.5"/>
<text text-anchor="middle" x="77.3896" y="-27.5" font-family="Helvetica,sans-Serif" font-size="10.00">MK::AdKit::_showVideoReward</text>
</g>
<!-- Node2 -->
<g id="node2" class="node"><title>Node2</title>
<g id="a_node2"><a xlink:href="interface_reward_video_delegate.html#a0bfa3f23795d0ad8cedcb3c7601b9305" target="_top" xlink:title="&#45;[RewardVideoDelegate\l requestNewRewardVideo]">
<polygon fill="white" stroke="black" points="198.001,-37.5 198.001,-65.5 332.775,-65.5 332.775,-37.5 198.001,-37.5"/>
<text text-anchor="start" x="206.001" y="-53.5" font-family="Helvetica,sans-Serif" font-size="10.00">&#45;[RewardVideoDelegate</text>
<text text-anchor="middle" x="265.388" y="-43.5" font-family="Helvetica,sans-Serif" font-size="10.00"> requestNewRewardVideo]</text>
</a>
</g>
</g>
<!-- Node1&#45;&gt;Node2 -->
<g id="edge1" class="edge"><title>Node1&#45;&gt;Node2</title>
<path fill="none" stroke="midnightblue" d="M164.922,-40.2698C175.948,-41.5147 187.096,-42.7734 197.742,-43.9754"/>
<polygon fill="midnightblue" stroke="midnightblue" points="165.177,-36.7765 154.848,-39.1324 164.392,-43.7323 165.177,-36.7765"/>
</g>
<!-- Node4 -->
<g id="node4" class="node"><title>Node4</title>
<g id="a_node4"><a xlink:href="namespace_m_k_1_1_ad_kit.html#acafca58cb7a9d2d72bb1990586e506af" target="_top" xlink:title="Shows video reward ad. ">
<polygon fill="white" stroke="black" points="190.779,-0.5 190.779,-18.5 339.997,-18.5 339.997,-0.5 190.779,-0.5"/>
<text text-anchor="middle" x="265.388" y="-6.5" font-family="Helvetica,sans-Serif" font-size="10.00">MK::AdKit::showVideoReward</text>
</a>
</g>
</g>
<!-- Node1&#45;&gt;Node4 -->
<g id="edge4" class="edge"><title>Node1&#45;&gt;Node4</title>
<path fill="none" stroke="midnightblue" d="M164.893,-20.7334C173.495,-19.7622 182.171,-18.7827 190.625,-17.8282"/>
<polygon fill="midnightblue" stroke="midnightblue" points="164.392,-17.2677 154.848,-21.8676 165.177,-24.2235 164.392,-17.2677"/>
</g>
<!-- Node2&#45;&gt;Node2 -->
<g id="edge3" class="edge"><title>Node2&#45;&gt;Node2</title>
<path fill="none" stroke="midnightblue" d="M231.765,-75.4873C235.335,-80.4413 246.543,-84 265.388,-84 295.541,-84 306.141,-74.8898 297.189,-65.5305"/>
<polygon fill="midnightblue" stroke="midnightblue" points="235.23,-75.9972 233.587,-65.5305 228.344,-74.7371 235.23,-75.9972"/>
</g>
<!-- Node3 -->
<g id="node3" class="node"><title>Node3</title>
<g id="a_node3"><a xlink:href="interface_reward_video_delegate.html#a5d8713e80adf05ec03e68072d573ad06" target="_top" xlink:title="&#45;[RewardVideoDelegate\l initWithAdUnitID:andCallback:]">
<polygon fill="white" stroke="black" points="375.997,-37.5 375.997,-65.5 530.942,-65.5 530.942,-37.5 375.997,-37.5"/>
<text text-anchor="start" x="383.997" y="-53.5" font-family="Helvetica,sans-Serif" font-size="10.00">&#45;[RewardVideoDelegate</text>
<text text-anchor="middle" x="453.47" y="-43.5" font-family="Helvetica,sans-Serif" font-size="10.00"> initWithAdUnitID:andCallback:]</text>
</a>
</g>
</g>
<!-- Node2&#45;&gt;Node3 -->
<g id="edge2" class="edge"><title>Node2&#45;&gt;Node3</title>
<path fill="none" stroke="midnightblue" d="M343.076,-51.5C353.934,-51.5 365.099,-51.5 375.954,-51.5"/>
<polygon fill="midnightblue" stroke="midnightblue" points="342.78,-48.0001 332.78,-51.5 342.78,-55.0001 342.78,-48.0001"/>
</g>
</g>
</svg>
