<?xml version="1.0" encoding="UTF-8" standalone="no"?>
<!DOCTYPE svg PUBLIC "-//W3C//DTD SVG 1.1//EN"
 "http://www.w3.org/Graphics/SVG/1.1/DTD/svg11.dtd">
<!-- Generated by graphviz version 2.38.0 (20140413.2041)
 -->
<!-- Title: MK::AdKit::Java_org_cocos2dx_cpp_AppActivity_callCppRewardCallback Pages: 1 -->
<svg width="730pt" height="92pt"
 viewBox="0.00 0.00 730.46 92.00" xmlns="http://www.w3.org/2000/svg" xmlns:xlink="http://www.w3.org/1999/xlink">
<g id="graph0" class="graph" transform="scale(1 1) rotate(0) translate(4 88)">
<title>MK::AdKit::Java_org_cocos2dx_cpp_AppActivity_callCppRewardCallback</title>
<polygon fill="white" stroke="none" points="-4,4 -4,-88 726.464,-88 726.464,4 -4,4"/>
<!-- Node1 -->
<g id="node1" class="node"><title>Node1</title>
<polygon fill="#bfbfbf" stroke="black" points="0,-25.5 0,-63.5 140.517,-63.5 140.517,-25.5 0,-25.5"/>
<text text-anchor="start" x="8" y="-51.5" font-family="Helvetica,sans-Serif" font-size="10.00">MK::AdKit::Java_org</text>
<text text-anchor="start" x="8" y="-41.5" font-family="Helvetica,sans-Serif" font-size="10.00">_cocos2dx_cpp_AppActivity</text>
<text text-anchor="middle" x="70.2583" y="-31.5" font-family="Helvetica,sans-Serif" font-size="10.00">_callCppRewardCallback</text>
</g>
<!-- Node2 -->
<g id="node2" class="node"><title>Node2</title>
<g id="a_node2"><a xlink:href="namespace_m_k_1_1_ad_kit.html#a6bca88e69dd5dc1616d521b88eb953cc" target="_top" xlink:title="Returns whether this user has video rewards available or not. ">
<polygon fill="white" stroke="black" points="176.517,-35.5 176.517,-53.5 346.301,-53.5 346.301,-35.5 176.517,-35.5"/>
<text text-anchor="middle" x="261.409" y="-41.5" font-family="Helvetica,sans-Serif" font-size="10.00">MK::AdKit::videoRewardsAvailable</text>
</a>
</g>
</g>
<!-- Node1&#45;&gt;Node2 -->
<g id="edge1" class="edge"><title>Node1&#45;&gt;Node2</title>
<path fill="none" stroke="midnightblue" d="M150.793,-44.5C159.217,-44.5 167.804,-44.5 176.278,-44.5"/>
<polygon fill="midnightblue" stroke="midnightblue" points="150.617,-41.0001 140.617,-44.5 150.617,-48.0001 150.617,-41.0001"/>
</g>
<!-- Node3 -->
<g id="node3" class="node"><title>Node3</title>
<g id="a_node3"><a xlink:href="namespace_m_k_1_1_ad_kit.html#acafca58cb7a9d2d72bb1990586e506af" target="_top" xlink:title="Shows video reward ad. ">
<polygon fill="white" stroke="black" points="382.301,-65.5 382.301,-83.5 531.519,-83.5 531.519,-65.5 382.301,-65.5"/>
<text text-anchor="middle" x="456.91" y="-71.5" font-family="Helvetica,sans-Serif" font-size="10.00">MK::AdKit::showVideoReward</text>
</a>
</g>
</g>
<!-- Node2&#45;&gt;Node3 -->
<g id="edge2" class="edge"><title>Node2&#45;&gt;Node3</title>
<path fill="none" stroke="midnightblue" d="M330.368,-55.0363C352.294,-58.4357 376.391,-62.1716 397.56,-65.4536"/>
<polygon fill="midnightblue" stroke="midnightblue" points="330.884,-51.5745 320.465,-53.501 329.811,-58.4918 330.884,-51.5745"/>
</g>
<!-- Node4 -->
<g id="node4" class="node"><title>Node4</title>
<g id="a_node4"><a xlink:href="interface_reward_video_delegate.html#a0bfa3f23795d0ad8cedcb3c7601b9305" target="_top" xlink:title="&#45;[RewardVideoDelegate\l requestNewRewardVideo]">
<polygon fill="white" stroke="black" points="389.522,-0.5 389.522,-28.5 524.297,-28.5 524.297,-0.5 389.522,-0.5"/>
<text text-anchor="start" x="397.522" y="-16.5" font-family="Helvetica,sans-Serif" font-size="10.00">&#45;[RewardVideoDelegate</text>
<text text-anchor="middle" x="456.91" y="-6.5" font-family="Helvetica,sans-Serif" font-size="10.00"> requestNewRewardVideo]</text>
</a>
</g>
</g>
<!-- Node2&#45;&gt;Node4 -->
<g id="edge3" class="edge"><title>Node2&#45;&gt;Node4</title>
<path fill="none" stroke="midnightblue" d="M330.584,-33.9303C349.679,-30.9697 370.407,-27.7562 389.404,-24.8109"/>
<polygon fill="midnightblue" stroke="midnightblue" points="329.811,-30.5082 320.465,-35.499 330.884,-37.4255 329.811,-30.5082"/>
</g>
<!-- Node4&#45;&gt;Node4 -->
<g id="edge5" class="edge"><title>Node4&#45;&gt;Node4</title>
<path fill="none" stroke="midnightblue" d="M422.925,-38.4873C426.534,-43.4413 437.862,-47 456.91,-47 487.386,-47 498.101,-37.8898 489.053,-28.5305"/>
<polygon fill="midnightblue" stroke="midnightblue" points="426.389,-39.0003 424.766,-28.5305 419.506,-37.7271 426.389,-39.0003"/>
</g>
<!-- Node5 -->
<g id="node5" class="node"><title>Node5</title>
<g id="a_node5"><a xlink:href="interface_reward_video_delegate.html#a5d8713e80adf05ec03e68072d573ad06" target="_top" xlink:title="&#45;[RewardVideoDelegate\l initWithAdUnitID:andCallback:]">
<polygon fill="white" stroke="black" points="567.519,-0.5 567.519,-28.5 722.464,-28.5 722.464,-0.5 567.519,-0.5"/>
<text text-anchor="start" x="575.519" y="-16.5" font-family="Helvetica,sans-Serif" font-size="10.00">&#45;[RewardVideoDelegate</text>
<text text-anchor="middle" x="644.991" y="-6.5" font-family="Helvetica,sans-Serif" font-size="10.00"> initWithAdUnitID:andCallback:]</text>
</a>
</g>
</g>
<!-- Node4&#45;&gt;Node5 -->
<g id="edge4" class="edge"><title>Node4&#45;&gt;Node5</title>
<path fill="none" stroke="midnightblue" d="M534.597,-14.5C545.455,-14.5 556.62,-14.5 567.475,-14.5"/>
<polygon fill="midnightblue" stroke="midnightblue" points="534.301,-11.0001 524.301,-14.5 534.301,-18.0001 534.301,-11.0001"/>
</g>
</g>
</svg>
