<?xml version="1.0" encoding="UTF-8" standalone="no"?>
<!DOCTYPE svg PUBLIC "-//W3C//DTD SVG 1.1//EN"
 "http://www.w3.org/Graphics/SVG/1.1/DTD/svg11.dtd">
<!-- Generated by graphviz version 2.38.0 (20140413.2041)
 -->
<!-- Title: MK::CryptoKit::symmetricEncrypt Pages: 1 -->
<svg width="302pt" height="37pt"
 viewBox="0.00 0.00 301.58 37.00" xmlns="http://www.w3.org/2000/svg" xmlns:xlink="http://www.w3.org/1999/xlink">
<g id="graph0" class="graph" transform="scale(1 1) rotate(0) translate(4 33)">
<title>MK::CryptoKit::symmetricEncrypt</title>
<polygon fill="white" stroke="none" points="-4,4 -4,-33 297.576,-33 297.576,4 -4,4"/>
<!-- Node1 -->
<g id="node1" class="node"><title>Node1</title>
<polygon fill="#bfbfbf" stroke="black" points="0,-0.5 0,-28.5 128.788,-28.5 128.788,-0.5 0,-0.5"/>
<text text-anchor="start" x="8" y="-16.5" font-family="Helvetica,sans-Serif" font-size="10.00">MK::CryptoKit::symmetric</text>
<text text-anchor="middle" x="64.394" y="-6.5" font-family="Helvetica,sans-Serif" font-size="10.00">Encrypt</text>
</g>
<!-- Node2 -->
<g id="node2" class="node"><title>Node2</title>
<g id="a_node2"><a xlink:href="namespace_m_k_1_1_crypto_kit.html#a203d82d45948bf0ce0371afa7c3c8aa1" target="_top" xlink:title="Returns given encrypted content decrypted. ">
<polygon fill="white" stroke="black" points="164.788,-0.5 164.788,-28.5 293.576,-28.5 293.576,-0.5 164.788,-0.5"/>
<text text-anchor="start" x="172.788" y="-16.5" font-family="Helvetica,sans-Serif" font-size="10.00">MK::CryptoKit::symmetric</text>
<text text-anchor="middle" x="229.182" y="-6.5" font-family="Helvetica,sans-Serif" font-size="10.00">Decrypt</text>
</a>
</g>
</g>
<!-- Node1&#45;&gt;Node2 -->
<g id="edge1" class="edge"><title>Node1&#45;&gt;Node2</title>
<path fill="none" stroke="midnightblue" d="M138.843,-14.5C147.467,-14.5 156.211,-14.5 164.683,-14.5"/>
<polygon fill="midnightblue" stroke="midnightblue" points="138.798,-11.0001 128.798,-14.5 138.798,-18.0001 138.798,-11.0001"/>
</g>
</g>
</svg>
