<?xml version="1.0" encoding="UTF-8" standalone="no"?>
<!DOCTYPE svg PUBLIC "-//W3C//DTD SVG 1.1//EN"
 "http://www.w3.org/Graphics/SVG/1.1/DTD/svg11.dtd">
<!-- Generated by graphviz version 2.38.0 (20140413.2041)
 -->
<!-- Title: MK::KVDatabase::storeApplyingBinaryOperationAndReturningPreviousValue Pages: 1 -->
<svg width="416pt" height="84pt"
 viewBox="0.00 0.00 416.41 84.00" xmlns="http://www.w3.org/2000/svg" xmlns:xlink="http://www.w3.org/1999/xlink">
<g id="graph0" class="graph" transform="scale(1 1) rotate(0) translate(4 80)">
<title>MK::KVDatabase::storeApplyingBinaryOperationAndReturningPreviousValue</title>
<polygon fill="white" stroke="none" points="-4,4 -4,-80 412.405,-80 412.405,4 -4,4"/>
<!-- Node1 -->
<g id="node1" class="node"><title>Node1</title>
<polygon fill="#bfbfbf" stroke="black" points="0,-23.5 0,-51.5 213.158,-51.5 213.158,-23.5 0,-23.5"/>
<text text-anchor="start" x="8" y="-39.5" font-family="Helvetica,sans-Serif" font-size="10.00">MK::KVDatabase::storeApplying</text>
<text text-anchor="middle" x="106.579" y="-29.5" font-family="Helvetica,sans-Serif" font-size="10.00">BinaryOperationAndReturningPreviousValue</text>
</g>
<!-- Node2 -->
<g id="node2" class="node"><title>Node2</title>
<g id="a_node2"><a xlink:href="namespace_m_k_1_1_k_v_database.html#a767b41659c2ee79a635285b4ae078aa7" target="_top" xlink:title="Returns long value associated with given key. ">
<polygon fill="white" stroke="black" points="249.158,-47.5 249.158,-75.5 408.405,-75.5 408.405,-47.5 249.158,-47.5"/>
<text text-anchor="start" x="257.158" y="-63.5" font-family="Helvetica,sans-Serif" font-size="10.00">MK::KVDatabase::getLongValue</text>
<text text-anchor="middle" x="328.782" y="-53.5" font-family="Helvetica,sans-Serif" font-size="10.00">ForKey</text>
</a>
</g>
</g>
<!-- Node1&#45;&gt;Node2 -->
<g id="edge1" class="edge"><title>Node1&#45;&gt;Node2</title>
<path fill="none" stroke="midnightblue" d="M213.166,-49.0079C221.719,-49.9402 230.309,-50.8764 238.728,-51.794"/>
<polygon fill="midnightblue" stroke="midnightblue" points="238.579,-55.2984 248.899,-52.9026 239.338,-48.3396 238.579,-55.2984"/>
</g>
<!-- Node3 -->
<g id="node3" class="node"><title>Node3</title>
<g id="a_node3"><a xlink:href="namespace_m_k_1_1_k_v_database.html#a8c40584219ca43eb9a2e65f14e328816" target="_top" xlink:title="Sets long value for given key. ">
<polygon fill="white" stroke="black" points="249.439,-0.5 249.439,-28.5 408.125,-28.5 408.125,-0.5 249.439,-0.5"/>
<text text-anchor="start" x="257.439" y="-16.5" font-family="Helvetica,sans-Serif" font-size="10.00">MK::KVDatabase::setLongValue</text>
<text text-anchor="middle" x="328.782" y="-6.5" font-family="Helvetica,sans-Serif" font-size="10.00">ForKey</text>
</a>
</g>
</g>
<!-- Node1&#45;&gt;Node3 -->
<g id="edge2" class="edge"><title>Node1&#45;&gt;Node3</title>
<path fill="none" stroke="midnightblue" d="M213.166,-26.4716C221.892,-25.5601 230.657,-24.6446 239.24,-23.7481"/>
<polygon fill="midnightblue" stroke="midnightblue" points="239.636,-27.2259 249.219,-22.7059 238.909,-20.2637 239.636,-27.2259"/>
</g>
</g>
</svg>
