<?xml version="1.0" encoding="UTF-8" standalone="no"?>
<!DOCTYPE svg PUBLIC "-//W3C//DTD SVG 1.1//EN"
 "http://www.w3.org/Graphics/SVG/1.1/DTD/svg11.dtd">
<!-- Generated by graphviz version 2.38.0 (20140413.2041)
 -->
<!-- Title: MK::IAPKit::init Pages: 1 -->
<svg width="232pt" height="64pt"
 viewBox="0.00 0.00 232.18 64.00" xmlns="http://www.w3.org/2000/svg" xmlns:xlink="http://www.w3.org/1999/xlink">
<g id="graph0" class="graph" transform="scale(1 1) rotate(0) translate(4 60)">
<title>MK::IAPKit::init</title>
<polygon fill="white" stroke="none" points="-4,4 -4,-60 228.177,-60 228.177,4 -4,4"/>
<!-- Node1 -->
<g id="node1" class="node"><title>Node1</title>
<polygon fill="#bfbfbf" stroke="black" points="0,-18.5 0,-36.5 82.6846,-36.5 82.6846,-18.5 0,-18.5"/>
<text text-anchor="middle" x="41.3423" y="-24.5" font-family="Helvetica,sans-Serif" font-size="10.00">MK::IAPKit::init</text>
</g>
<!-- Node2 -->
<g id="node2" class="node"><title>Node2</title>
<g id="a_node2"><a xlink:href="namespace_m_k_1_1_i_a_p_kit.html#a41b7f768a3e8c9154647f7fe6e07028f" target="_top" xlink:title="Inits In&#45;App Purchase system, calling given callback on end. ">
<polygon fill="white" stroke="black" points="127.308,-37.5 127.308,-55.5 215.554,-55.5 215.554,-37.5 127.308,-37.5"/>
<text text-anchor="middle" x="171.431" y="-43.5" font-family="Helvetica,sans-Serif" font-size="10.00">MK::IAPKit::_init</text>
</a>
</g>
</g>
<!-- Node1&#45;&gt;Node2 -->
<g id="edge1" class="edge"><title>Node1&#45;&gt;Node2</title>
<path fill="none" stroke="midnightblue" d="M82.8702,-33.5117C93.7542,-35.1262 105.69,-36.8968 117.153,-38.597"/>
<polygon fill="midnightblue" stroke="midnightblue" points="116.66,-42.0622 127.066,-40.0675 117.688,-35.138 116.66,-42.0622"/>
</g>
<!-- Node3 -->
<g id="node3" class="node"><title>Node3</title>
<g id="a_node3"><a xlink:href="namespace_m_k_1_1_i_a_p_kit.html#aaaf94652bf53567cfedcd0ef482858f8" target="_top" xlink:title="Returns whether IAPKit is enabled or not. ">
<polygon fill="white" stroke="black" points="118.685,-0.5 118.685,-18.5 224.177,-18.5 224.177,-0.5 118.685,-0.5"/>
<text text-anchor="middle" x="171.431" y="-6.5" font-family="Helvetica,sans-Serif" font-size="10.00">MK::IAPKit::enabled</text>
</a>
</g>
</g>
<!-- Node1&#45;&gt;Node3 -->
<g id="edge2" class="edge"><title>Node1&#45;&gt;Node3</title>
<path fill="none" stroke="midnightblue" d="M82.8702,-21.8047C90.9828,-20.6646 99.68,-19.4424 108.33,-18.2269"/>
<polygon fill="midnightblue" stroke="midnightblue" points="109.009,-21.6659 118.425,-16.8083 108.035,-14.7341 109.009,-21.6659"/>
</g>
</g>
</svg>
