<?xml version="1.0" encoding="UTF-8" standalone="no"?>
<!DOCTYPE svg PUBLIC "-//W3C//DTD SVG 1.1//EN"
 "http://www.w3.org/Graphics/SVG/1.1/DTD/svg11.dtd">
<!-- Generated by graphviz version 2.38.0 (20140413.2041)
 -->
<!-- Title: MK::AdKit::enabled Pages: 1 -->
<svg width="692pt" height="214pt"
 viewBox="0.00 0.00 691.55 214.00" xmlns="http://www.w3.org/2000/svg" xmlns:xlink="http://www.w3.org/1999/xlink">
<g id="graph0" class="graph" transform="scale(1 1) rotate(0) translate(4 210)">
<title>MK::AdKit::enabled</title>
<polygon fill="white" stroke="none" points="-4,4 -4,-210 687.553,-210 687.553,4 -4,4"/>
<!-- Node1 -->
<g id="node1" class="node"><title>Node1</title>
<polygon fill="#bfbfbf" stroke="black" points="0,-92.5 0,-110.5 101.605,-110.5 101.605,-92.5 0,-92.5"/>
<text text-anchor="middle" x="50.8027" y="-98.5" font-family="Helvetica,sans-Serif" font-size="10.00">MK::AdKit::enabled</text>
</g>
<!-- Node2 -->
<g id="node2" class="node"><title>Node2</title>
<g id="a_node2"><a xlink:href="namespace_m_k_1_1_ad_kit.html#aab6fed949fb7e7a9052144367597b9cd" target="_top" xlink:title="Performs any initialization required by the ads adapter. ">
<polygon fill="white" stroke="black" points="183.099,-187.5 183.099,-205.5 261.896,-205.5 261.896,-187.5 183.099,-187.5"/>
<text text-anchor="middle" x="222.498" y="-193.5" font-family="Helvetica,sans-Serif" font-size="10.00">MK::AdKit::init</text>
</a>
</g>
</g>
<!-- Node1&#45;&gt;Node2 -->
<g id="edge1" class="edge"><title>Node1&#45;&gt;Node2</title>
<path fill="none" stroke="midnightblue" d="M67.4524,-117.928C83.6142,-133.997 110.263,-158.093 137.605,-172.5 151.678,-179.915 168.319,-185.285 183.055,-189.04"/>
<polygon fill="midnightblue" stroke="midnightblue" points="69.9115,-115.437 60.4038,-110.762 64.9211,-120.346 69.9115,-115.437"/>
</g>
<!-- Node3 -->
<g id="node3" class="node"><title>Node3</title>
<g id="a_node3"><a xlink:href="interface_reward_video_delegate.html#a0bfa3f23795d0ad8cedcb3c7601b9305" target="_top" xlink:title="&#45;[RewardVideoDelegate\l requestNewRewardVideo]">
<polygon fill="white" stroke="black" points="350.611,-90.5 350.611,-118.5 485.386,-118.5 485.386,-90.5 350.611,-90.5"/>
<text text-anchor="start" x="358.611" y="-106.5" font-family="Helvetica,sans-Serif" font-size="10.00">&#45;[RewardVideoDelegate</text>
<text text-anchor="middle" x="417.999" y="-96.5" font-family="Helvetica,sans-Serif" font-size="10.00"> requestNewRewardVideo]</text>
</a>
</g>
</g>
<!-- Node1&#45;&gt;Node3 -->
<g id="edge2" class="edge"><title>Node1&#45;&gt;Node3</title>
<path fill="none" stroke="midnightblue" d="M75.9972,-115.487C92.6995,-124.308 115.754,-134.878 137.605,-139.5 211.432,-155.116 232.829,-151.115 307.39,-139.5 333.246,-135.472 361.342,-126.401 382.615,-118.504"/>
<polygon fill="midnightblue" stroke="midnightblue" points="77.4091,-112.27 66.9543,-110.553 74.0565,-118.415 77.4091,-112.27"/>
</g>
<!-- Node5 -->
<g id="node5" class="node"><title>Node5</title>
<g id="a_node5"><a xlink:href="namespace_m_k_1_1_ad_kit.html#add9f76341cdf101a96a3871fa154a2c9" target="_top" xlink:title="Shows a bottom banner ad. ">
<polygon fill="white" stroke="black" points="145.855,-111.5 145.855,-129.5 299.14,-129.5 299.14,-111.5 145.855,-111.5"/>
<text text-anchor="middle" x="222.498" y="-117.5" font-family="Helvetica,sans-Serif" font-size="10.00">MK::AdKit::showBottomBanner</text>
</a>
</g>
</g>
<!-- Node1&#45;&gt;Node5 -->
<g id="edge5" class="edge"><title>Node1&#45;&gt;Node5</title>
<path fill="none" stroke="midnightblue" d="M112.049,-108.246C122.958,-109.467 134.461,-110.755 145.746,-112.018"/>
<polygon fill="midnightblue" stroke="midnightblue" points="112.126,-104.732 101.799,-107.098 111.347,-111.689 112.126,-104.732"/>
</g>
<!-- Node6 -->
<g id="node6" class="node"><title>Node6</title>
<g id="a_node6"><a xlink:href="namespace_m_k_1_1_ad_kit.html#a413ead0cc048a5cb2becc3a6e50ad59b" target="_top" xlink:title="Shows an interstitial ad. ">
<polygon fill="white" stroke="black" points="156.421,-74.5 156.421,-92.5 288.574,-92.5 288.574,-74.5 156.421,-74.5"/>
<text text-anchor="middle" x="222.498" y="-80.5" font-family="Helvetica,sans-Serif" font-size="10.00">MK::AdKit::showInterstitial</text>
</a>
</g>
</g>
<!-- Node1&#45;&gt;Node6 -->
<g id="edge6" class="edge"><title>Node1&#45;&gt;Node6</title>
<path fill="none" stroke="midnightblue" d="M111.999,-95.1148C126.291,-93.5988 141.606,-91.9744 156.117,-90.4351"/>
<polygon fill="midnightblue" stroke="midnightblue" points="111.374,-91.6614 101.799,-96.1968 112.112,-98.6223 111.374,-91.6614"/>
</g>
<!-- Node7 -->
<g id="node7" class="node"><title>Node7</title>
<g id="a_node7"><a xlink:href="namespace_m_k_1_1_ad_kit.html#a339aea64224b42fd0db628bb1ee87b94" target="_top" xlink:title="Shows a top banner ad. ">
<polygon fill="white" stroke="black" points="153.633,-37.5 153.633,-55.5 291.362,-55.5 291.362,-37.5 153.633,-37.5"/>
<text text-anchor="middle" x="222.498" y="-43.5" font-family="Helvetica,sans-Serif" font-size="10.00">MK::AdKit::showTopBanner</text>
</a>
</g>
</g>
<!-- Node1&#45;&gt;Node7 -->
<g id="edge7" class="edge"><title>Node1&#45;&gt;Node7</title>
<path fill="none" stroke="midnightblue" d="M79.9745,-88.2131C96.4969,-80.7934 117.929,-71.8027 137.605,-65.5 149.552,-61.6734 162.691,-58.3124 174.953,-55.5233"/>
<polygon fill="midnightblue" stroke="midnightblue" points="78.5103,-85.034 70.8641,-92.368 81.4149,-91.4029 78.5103,-85.034"/>
</g>
<!-- Node8 -->
<g id="node8" class="node"><title>Node8</title>
<g id="a_node8"><a xlink:href="namespace_m_k_1_1_ad_kit.html#a6bca88e69dd5dc1616d521b88eb953cc" target="_top" xlink:title="Returns whether this user has video rewards available or not. ">
<polygon fill="white" stroke="black" points="137.605,-0.5 137.605,-18.5 307.39,-18.5 307.39,-0.5 137.605,-0.5"/>
<text text-anchor="middle" x="222.498" y="-6.5" font-family="Helvetica,sans-Serif" font-size="10.00">MK::AdKit::videoRewardsAvailable</text>
</a>
</g>
</g>
<!-- Node1&#45;&gt;Node8 -->
<g id="edge8" class="edge"><title>Node1&#45;&gt;Node8</title>
<path fill="none" stroke="midnightblue" d="M66.3481,-84.7685C82.1521,-67.6894 108.998,-41.7276 137.605,-27.5 144.941,-23.8517 152.997,-20.9402 161.125,-18.6172"/>
<polygon fill="midnightblue" stroke="midnightblue" points="63.6115,-82.5771 59.5175,-92.3489 68.8118,-87.263 63.6115,-82.5771"/>
</g>
<!-- Node3&#45;&gt;Node3 -->
<g id="edge4" class="edge"><title>Node3&#45;&gt;Node3</title>
<path fill="none" stroke="midnightblue" d="M384.014,-128.487C387.622,-133.441 398.951,-137 417.999,-137 448.475,-137 459.19,-127.89 450.142,-118.53"/>
<polygon fill="midnightblue" stroke="midnightblue" points="387.478,-129 385.855,-118.53 380.595,-127.727 387.478,-129"/>
</g>
<!-- Node4 -->
<g id="node4" class="node"><title>Node4</title>
<g id="a_node4"><a xlink:href="interface_reward_video_delegate.html#a5d8713e80adf05ec03e68072d573ad06" target="_top" xlink:title="&#45;[RewardVideoDelegate\l initWithAdUnitID:andCallback:]">
<polygon fill="white" stroke="black" points="528.607,-90.5 528.607,-118.5 683.553,-118.5 683.553,-90.5 528.607,-90.5"/>
<text text-anchor="start" x="536.607" y="-106.5" font-family="Helvetica,sans-Serif" font-size="10.00">&#45;[RewardVideoDelegate</text>
<text text-anchor="middle" x="606.08" y="-96.5" font-family="Helvetica,sans-Serif" font-size="10.00"> initWithAdUnitID:andCallback:]</text>
</a>
</g>
</g>
<!-- Node3&#45;&gt;Node4 -->
<g id="edge3" class="edge"><title>Node3&#45;&gt;Node4</title>
<path fill="none" stroke="midnightblue" d="M495.686,-104.5C506.544,-104.5 517.709,-104.5 528.564,-104.5"/>
<polygon fill="midnightblue" stroke="midnightblue" points="495.39,-101 485.39,-104.5 495.39,-108 495.39,-101"/>
</g>
<!-- Node8&#45;&gt;Node3 -->
<g id="edge10" class="edge"><title>Node8&#45;&gt;Node3</title>
<path fill="none" stroke="midnightblue" d="M290.632,-21.3501C296.395,-23.1313 302.055,-25.1696 307.39,-27.5 344.044,-43.5131 380.923,-72.7676 401.179,-90.2418"/>
<polygon fill="midnightblue" stroke="midnightblue" points="291.451,-17.9446 280.876,-18.5892 289.545,-24.6801 291.451,-17.9446"/>
</g>
<!-- Node9 -->
<g id="node9" class="node"><title>Node9</title>
<g id="a_node9"><a xlink:href="namespace_m_k_1_1_ad_kit.html#acafca58cb7a9d2d72bb1990586e506af" target="_top" xlink:title="Shows video reward ad. ">
<polygon fill="white" stroke="black" points="343.39,-0.5 343.39,-18.5 492.607,-18.5 492.607,-0.5 343.39,-0.5"/>
<text text-anchor="middle" x="417.999" y="-6.5" font-family="Helvetica,sans-Serif" font-size="10.00">MK::AdKit::showVideoReward</text>
</a>
</g>
</g>
<!-- Node8&#45;&gt;Node9 -->
<g id="edge9" class="edge"><title>Node8&#45;&gt;Node9</title>
<path fill="none" stroke="midnightblue" d="M317.64,-9.5C326.281,-9.5 334.95,-9.5 343.37,-9.5"/>
<polygon fill="midnightblue" stroke="midnightblue" points="317.526,-6.0001 307.526,-9.5 317.526,-13.0001 317.526,-6.0001"/>
</g>
</g>
</svg>
