<?xml version="1.0" encoding="UTF-8" standalone="no"?>
<!DOCTYPE svg PUBLIC "-//W3C//DTD SVG 1.1//EN"
 "http://www.w3.org/Graphics/SVG/1.1/DTD/svg11.dtd">
<!-- Generated by graphviz version 2.38.0 (20140413.2041)
 -->
<!-- Title: MK::Analytics::logEvent Pages: 1 -->
<svg width="292pt" height="64pt"
 viewBox="0.00 0.00 291.65 64.00" xmlns="http://www.w3.org/2000/svg" xmlns:xlink="http://www.w3.org/1999/xlink">
<g id="graph0" class="graph" transform="scale(1 1) rotate(0) translate(4 60)">
<title>MK::Analytics::logEvent</title>
<polygon fill="white" stroke="none" points="-4,4 -4,-60 287.649,-60 287.649,4 -4,4"/>
<!-- Node1 -->
<g id="node1" class="node"><title>Node1</title>
<polygon fill="#bfbfbf" stroke="black" points="0,-18.5 0,-36.5 121.044,-36.5 121.044,-18.5 0,-18.5"/>
<text text-anchor="middle" x="60.522" y="-24.5" font-family="Helvetica,sans-Serif" font-size="10.00">MK::Analytics::logEvent</text>
</g>
<!-- Node2 -->
<g id="node2" class="node"><title>Node2</title>
<g id="a_node2"><a xlink:href="namespace_m_k_1_1_analytics.html#a215ed26bf5eec68b43c10f46736dcff5" target="_top" xlink:title="Logs given event without additional attributes. ">
<polygon fill="white" stroke="black" points="157.044,-37.5 157.044,-55.5 283.649,-55.5 283.649,-37.5 157.044,-37.5"/>
<text text-anchor="middle" x="220.347" y="-43.5" font-family="Helvetica,sans-Serif" font-size="10.00">MK::Analytics::_logEvent</text>
</a>
</g>
</g>
<!-- Node1&#45;&gt;Node2 -->
<g id="edge1" class="edge"><title>Node1&#45;&gt;Node2</title>
<path fill="none" stroke="midnightblue" d="M121.189,-34.6831C129.596,-35.6952 138.314,-36.7447 146.927,-37.7817"/>
<polygon fill="midnightblue" stroke="midnightblue" points="146.62,-41.2699 156.967,-38.9903 147.457,-34.32 146.62,-41.2699"/>
</g>
<!-- Node3 -->
<g id="node3" class="node"><title>Node3</title>
<g id="a_node3"><a xlink:href="namespace_m_k_1_1_analytics.html#a06ed59ccf83270d8c89455e41efde314" target="_top" xlink:title="Returns whether Analytics logging in enbled or not. ">
<polygon fill="white" stroke="black" points="161.487,-0.5 161.487,-18.5 279.206,-18.5 279.206,-0.5 161.487,-0.5"/>
<text text-anchor="middle" x="220.347" y="-6.5" font-family="Helvetica,sans-Serif" font-size="10.00">MK::Analytics::enabled</text>
</a>
</g>
</g>
<!-- Node1&#45;&gt;Node3 -->
<g id="edge2" class="edge"><title>Node1&#45;&gt;Node3</title>
<path fill="none" stroke="midnightblue" d="M121.189,-20.695C131.074,-19.5675 141.389,-18.3911 151.46,-17.2425"/>
<polygon fill="midnightblue" stroke="midnightblue" points="151.885,-20.7168 161.424,-16.1061 151.092,-13.7619 151.885,-20.7168"/>
</g>
</g>
</svg>
