<?xml version="1.0" encoding="UTF-8" standalone="no"?>
<!DOCTYPE svg PUBLIC "-//W3C//DTD SVG 1.1//EN"
 "http://www.w3.org/Graphics/SVG/1.1/DTD/svg11.dtd">
<!-- Generated by graphviz version 2.38.0 (20140413.2041)
 -->
<!-- Title: MK::Analytics::logNonReadyVideoRewardDisplay Pages: 1 -->
<svg width="512pt" height="55pt"
 viewBox="0.00 0.00 512.44 55.00" xmlns="http://www.w3.org/2000/svg" xmlns:xlink="http://www.w3.org/1999/xlink">
<g id="graph0" class="graph" transform="scale(1 1) rotate(0) translate(4 51)">
<title>MK::Analytics::logNonReadyVideoRewardDisplay</title>
<polygon fill="white" stroke="none" points="-4,4 -4,-51 508.443,-51 508.443,4 -4,4"/>
<!-- Node1 -->
<g id="node1" class="node"><title>Node1</title>
<polygon fill="#bfbfbf" stroke="black" points="0,-0.5 0,-28.5 142.724,-28.5 142.724,-0.5 0,-0.5"/>
<text text-anchor="start" x="8" y="-16.5" font-family="Helvetica,sans-Serif" font-size="10.00">MK::Analytics::logNonReady</text>
<text text-anchor="middle" x="71.3618" y="-6.5" font-family="Helvetica,sans-Serif" font-size="10.00">VideoRewardDisplay</text>
</g>
<!-- Node2 -->
<g id="node2" class="node"><title>Node2</title>
<g id="a_node2"><a xlink:href="interface_reward_video_delegate.html#a0bfa3f23795d0ad8cedcb3c7601b9305" target="_top" xlink:title="&#45;[RewardVideoDelegate\l requestNewRewardVideo]">
<polygon fill="white" stroke="black" points="178.724,-0.5 178.724,-28.5 313.498,-28.5 313.498,-0.5 178.724,-0.5"/>
<text text-anchor="start" x="186.724" y="-16.5" font-family="Helvetica,sans-Serif" font-size="10.00">&#45;[RewardVideoDelegate</text>
<text text-anchor="middle" x="246.111" y="-6.5" font-family="Helvetica,sans-Serif" font-size="10.00"> requestNewRewardVideo]</text>
</a>
</g>
</g>
<!-- Node1&#45;&gt;Node2 -->
<g id="edge1" class="edge"><title>Node1&#45;&gt;Node2</title>
<path fill="none" stroke="midnightblue" d="M153.383,-14.5C161.839,-14.5 170.364,-14.5 178.632,-14.5"/>
<polygon fill="midnightblue" stroke="midnightblue" points="153.124,-11.0001 143.124,-14.5 153.124,-18.0001 153.124,-11.0001"/>
</g>
<!-- Node2&#45;&gt;Node2 -->
<g id="edge3" class="edge"><title>Node2&#45;&gt;Node2</title>
<path fill="none" stroke="midnightblue" d="M214.657,-38.4873C217.997,-43.4413 228.481,-47 246.111,-47 274.318,-47 284.234,-37.8898 275.86,-28.5305"/>
<polygon fill="midnightblue" stroke="midnightblue" points="218.124,-38.9777 216.361,-28.5305 211.224,-37.7965 218.124,-38.9777"/>
</g>
<!-- Node3 -->
<g id="node3" class="node"><title>Node3</title>
<g id="a_node3"><a xlink:href="interface_reward_video_delegate.html#a5d8713e80adf05ec03e68072d573ad06" target="_top" xlink:title="&#45;[RewardVideoDelegate\l initWithAdUnitID:andCallback:]">
<polygon fill="white" stroke="black" points="349.498,-0.5 349.498,-28.5 504.443,-28.5 504.443,-0.5 349.498,-0.5"/>
<text text-anchor="start" x="357.498" y="-16.5" font-family="Helvetica,sans-Serif" font-size="10.00">&#45;[RewardVideoDelegate</text>
<text text-anchor="middle" x="426.971" y="-6.5" font-family="Helvetica,sans-Serif" font-size="10.00"> initWithAdUnitID:andCallback:]</text>
</a>
</g>
</g>
<!-- Node2&#45;&gt;Node3 -->
<g id="edge2" class="edge"><title>Node2&#45;&gt;Node3</title>
<path fill="none" stroke="midnightblue" d="M323.906,-14.5C332.343,-14.5 340.933,-14.5 349.368,-14.5"/>
<polygon fill="midnightblue" stroke="midnightblue" points="323.712,-11.0001 313.712,-14.5 323.712,-18.0001 323.712,-11.0001"/>
</g>
</g>
</svg>
