<?xml version="1.0" encoding="UTF-8" standalone="no"?>
<!DOCTYPE svg PUBLIC "-//W3C//DTD SVG 1.1//EN"
 "http://www.w3.org/Graphics/SVG/1.1/DTD/svg11.dtd">
<!-- Generated by graphviz version 2.38.0 (20140413.2041)
 -->
<!-- Title: MK::AdKit::init Pages: 1 -->
<svg width="597pt" height="85pt"
 viewBox="0.00 0.00 596.68 85.00" xmlns="http://www.w3.org/2000/svg" xmlns:xlink="http://www.w3.org/1999/xlink">
<g id="graph0" class="graph" transform="scale(1 1) rotate(0) translate(4 81)">
<title>MK::AdKit::init</title>
<polygon fill="white" stroke="none" points="-4,4 -4,-81 592.685,-81 592.685,4 -4,4"/>
<!-- Node1 -->
<g id="node1" class="node"><title>Node1</title>
<polygon fill="#bfbfbf" stroke="black" points="0,-39.5 0,-57.5 78.7979,-57.5 78.7979,-39.5 0,-39.5"/>
<text text-anchor="middle" x="39.3989" y="-45.5" font-family="Helvetica,sans-Serif" font-size="10.00">MK::AdKit::init</text>
</g>
<!-- Node2 -->
<g id="node2" class="node"><title>Node2</title>
<g id="a_node2"><a xlink:href="namespace_m_k_1_1_ad_kit.html#a39e1599ce157acc2dcbcd8747f870a2b" target="_top" xlink:title="Performs any initialization required by the ads adapter. ">
<polygon fill="white" stroke="black" points="123.421,-58.5 123.421,-76.5 207.78,-76.5 207.78,-58.5 123.421,-58.5"/>
<text text-anchor="middle" x="165.601" y="-64.5" font-family="Helvetica,sans-Serif" font-size="10.00">MK::AdKit::_init</text>
</a>
</g>
</g>
<!-- Node1&#45;&gt;Node2 -->
<g id="edge1" class="edge"><title>Node1&#45;&gt;Node2</title>
<path fill="none" stroke="midnightblue" d="M79.0163,-54.4076C89.7023,-56.0423 101.476,-57.8434 112.782,-59.573"/>
<polygon fill="midnightblue" stroke="midnightblue" points="112.575,-63.082 122.99,-61.1345 113.634,-56.1625 112.575,-63.082"/>
</g>
<!-- Node3 -->
<g id="node3" class="node"><title>Node3</title>
<g id="a_node3"><a xlink:href="namespace_m_k_1_1_ad_kit.html#a1abd645a384f31dc1421e82772cfb472" target="_top" xlink:title="Returns whether ads are enabled for this user or not. ">
<polygon fill="white" stroke="black" points="114.798,-21.5 114.798,-39.5 216.403,-39.5 216.403,-21.5 114.798,-21.5"/>
<text text-anchor="middle" x="165.601" y="-27.5" font-family="Helvetica,sans-Serif" font-size="10.00">MK::AdKit::enabled</text>
</a>
</g>
</g>
<!-- Node1&#45;&gt;Node3 -->
<g id="edge2" class="edge"><title>Node1&#45;&gt;Node3</title>
<path fill="none" stroke="midnightblue" d="M79.0163,-42.9034C87.1031,-41.7314 95.813,-40.4691 104.472,-39.2142"/>
<polygon fill="midnightblue" stroke="midnightblue" points="105.178,-42.6485 114.572,-37.7504 104.174,-35.7209 105.178,-42.6485"/>
</g>
<!-- Node4 -->
<g id="node4" class="node"><title>Node4</title>
<g id="a_node4"><a xlink:href="namespace_m_k_1_1_k_v_database.html#a767b41659c2ee79a635285b4ae078aa7" target="_top" xlink:title="Returns long value associated with given key. ">
<polygon fill="white" stroke="black" points="252.403,-37.5 252.403,-65.5 411.65,-65.5 411.65,-37.5 252.403,-37.5"/>
<text text-anchor="start" x="260.403" y="-53.5" font-family="Helvetica,sans-Serif" font-size="10.00">MK::KVDatabase::getLongValue</text>
<text text-anchor="middle" x="332.027" y="-43.5" font-family="Helvetica,sans-Serif" font-size="10.00">ForKey</text>
</a>
</g>
</g>
<!-- Node3&#45;&gt;Node4 -->
<g id="edge3" class="edge"><title>Node3&#45;&gt;Node4</title>
<path fill="none" stroke="midnightblue" d="M216.827,-36.9148C224.905,-37.9465 233.471,-39.0405 242.137,-40.1472"/>
<polygon fill="midnightblue" stroke="midnightblue" points="241.969,-43.6541 252.332,-41.4493 242.856,-36.7105 241.969,-43.6541"/>
</g>
<!-- Node5 -->
<g id="node5" class="node"><title>Node5</title>
<g id="a_node5"><a xlink:href="namespace_m_k_1_1_device.html#a983d07fad256fb9e289b985cb4237efa" target="_top" xlink:title="Returns whether this device is running OS X or not. ">
<polygon fill="white" stroke="black" points="281.517,-0.5 281.517,-18.5 382.537,-18.5 382.537,-0.5 281.517,-0.5"/>
<text text-anchor="middle" x="332.027" y="-6.5" font-family="Helvetica,sans-Serif" font-size="10.00">MK::Device::isOSX</text>
</a>
</g>
</g>
<!-- Node3&#45;&gt;Node5 -->
<g id="edge4" class="edge"><title>Node3&#45;&gt;Node5</title>
<path fill="none" stroke="midnightblue" d="M216.827,-24.0852C233.959,-21.8972 253.286,-19.4288 271.103,-17.1533"/>
<polygon fill="midnightblue" stroke="midnightblue" points="271.914,-20.5782 281.39,-15.8394 271.028,-13.6346 271.914,-20.5782"/>
</g>
<!-- Node6 -->
<g id="node6" class="node"><title>Node6</title>
<g id="a_node6"><a xlink:href="namespace_m_k_1_1_device.html#a7c83a89bef610abaa7ada09d38c2f3fb" target="_top" xlink:title="Returns current platform. ">
<polygon fill="white" stroke="black" points="447.65,-0.5 447.65,-18.5 588.685,-18.5 588.685,-0.5 447.65,-0.5"/>
<text text-anchor="middle" x="518.167" y="-6.5" font-family="Helvetica,sans-Serif" font-size="10.00">MK::Device::currentPlatform</text>
</a>
</g>
</g>
<!-- Node5&#45;&gt;Node6 -->
<g id="edge5" class="edge"><title>Node5&#45;&gt;Node6</title>
<path fill="none" stroke="midnightblue" d="M382.858,-9.5C399.664,-9.5 418.866,-9.5 437.393,-9.5"/>
<polygon fill="midnightblue" stroke="midnightblue" points="437.596,-13.0001 447.596,-9.5 437.596,-6.0001 437.596,-13.0001"/>
</g>
</g>
</svg>
