<?xml version="1.0" encoding="UTF-8" standalone="no"?>
<!DOCTYPE svg PUBLIC "-//W3C//DTD SVG 1.1//EN"
 "http://www.w3.org/Graphics/SVG/1.1/DTD/svg11.dtd">
<!-- Generated by graphviz version 2.38.0 (20140413.2041)
 -->
<!-- Title: MK::AdKit::enabled Pages: 1 -->
<svg width="482pt" height="74pt"
 viewBox="0.00 0.00 481.89 74.00" xmlns="http://www.w3.org/2000/svg" xmlns:xlink="http://www.w3.org/1999/xlink">
<g id="graph0" class="graph" transform="scale(1 1) rotate(0) translate(4 70)">
<title>MK::AdKit::enabled</title>
<polygon fill="white" stroke="none" points="-4,4 -4,-70 477.887,-70 477.887,4 -4,4"/>
<!-- Node1 -->
<g id="node1" class="node"><title>Node1</title>
<polygon fill="#bfbfbf" stroke="black" points="0,-21.5 0,-39.5 101.605,-39.5 101.605,-21.5 0,-21.5"/>
<text text-anchor="middle" x="50.8027" y="-27.5" font-family="Helvetica,sans-Serif" font-size="10.00">MK::AdKit::enabled</text>
</g>
<!-- Node2 -->
<g id="node2" class="node"><title>Node2</title>
<g id="a_node2"><a xlink:href="namespace_m_k_1_1_k_v_database.html#a767b41659c2ee79a635285b4ae078aa7" target="_top" xlink:title="Returns long value associated with given key. ">
<polygon fill="white" stroke="black" points="137.605,-37.5 137.605,-65.5 296.853,-65.5 296.853,-37.5 137.605,-37.5"/>
<text text-anchor="start" x="145.605" y="-53.5" font-family="Helvetica,sans-Serif" font-size="10.00">MK::KVDatabase::getLongValue</text>
<text text-anchor="middle" x="217.229" y="-43.5" font-family="Helvetica,sans-Serif" font-size="10.00">ForKey</text>
</a>
</g>
</g>
<!-- Node1&#45;&gt;Node2 -->
<g id="edge1" class="edge"><title>Node1&#45;&gt;Node2</title>
<path fill="none" stroke="midnightblue" d="M102.029,-36.9148C110.107,-37.9465 118.673,-39.0405 127.339,-40.1472"/>
<polygon fill="midnightblue" stroke="midnightblue" points="127.171,-43.6541 137.534,-41.4493 128.058,-36.7105 127.171,-43.6541"/>
</g>
<!-- Node3 -->
<g id="node3" class="node"><title>Node3</title>
<g id="a_node3"><a xlink:href="namespace_m_k_1_1_device.html#a983d07fad256fb9e289b985cb4237efa" target="_top" xlink:title="Returns whether this device is running OS X or not. ">
<polygon fill="white" stroke="black" points="166.719,-0.5 166.719,-18.5 267.739,-18.5 267.739,-0.5 166.719,-0.5"/>
<text text-anchor="middle" x="217.229" y="-6.5" font-family="Helvetica,sans-Serif" font-size="10.00">MK::Device::isOSX</text>
</a>
</g>
</g>
<!-- Node1&#45;&gt;Node3 -->
<g id="edge2" class="edge"><title>Node1&#45;&gt;Node3</title>
<path fill="none" stroke="midnightblue" d="M102.029,-24.0852C119.161,-21.8972 138.488,-19.4288 156.305,-17.1533"/>
<polygon fill="midnightblue" stroke="midnightblue" points="157.117,-20.5782 166.593,-15.8394 156.23,-13.6346 157.117,-20.5782"/>
</g>
<!-- Node4 -->
<g id="node4" class="node"><title>Node4</title>
<g id="a_node4"><a xlink:href="namespace_m_k_1_1_device.html#a7c83a89bef610abaa7ada09d38c2f3fb" target="_top" xlink:title="Returns current platform. ">
<polygon fill="white" stroke="black" points="332.853,-0.5 332.853,-18.5 473.887,-18.5 473.887,-0.5 332.853,-0.5"/>
<text text-anchor="middle" x="403.37" y="-6.5" font-family="Helvetica,sans-Serif" font-size="10.00">MK::Device::currentPlatform</text>
</a>
</g>
</g>
<!-- Node3&#45;&gt;Node4 -->
<g id="edge3" class="edge"><title>Node3&#45;&gt;Node4</title>
<path fill="none" stroke="midnightblue" d="M268.06,-9.5C284.866,-9.5 304.068,-9.5 322.595,-9.5"/>
<polygon fill="midnightblue" stroke="midnightblue" points="322.798,-13.0001 332.798,-9.5 322.798,-6.0001 322.798,-13.0001"/>
</g>
</g>
</svg>
