<?xml version="1.0" encoding="UTF-8" standalone="no"?>
<!DOCTYPE svg PUBLIC "-//W3C//DTD SVG 1.1//EN"
 "http://www.w3.org/Graphics/SVG/1.1/DTD/svg11.dtd">
<!-- Generated by graphviz version 2.38.0 (20140413.2041)
 -->
<!-- Title: MK::AdKit::_showInterstitial Pages: 1 -->
<!--zoomable 92 -->
<svg id="main" version="1.1" xmlns="http://www.w3.org/2000/svg" xmlns:xlink="http://www.w3.org/1999/xlink" xml:space="preserve" onload="init(evt)">
<style type="text/css"><![CDATA[
.edge:hover path { stroke: red; }
.edge:hover polygon { stroke: red; fill: red; }
]]></style>
<script type="text/javascript"><![CDATA[
var edges = document.getElementsByTagName('g');
if (edges && edges.length) {
  for (var i=0;i<edges.length;i++) {
    if (edges[i].id.substr(0,4)=='edge') {
      edges[i].setAttribute('class','edge');
    }
  }
}
]]></script>
        <defs>
                <circle id="rim" cx="0" cy="0" r="7"/>
                <circle id="rim2" cx="0" cy="0" r="3.5"/>
                <g id="zoomPlus">
                        <use xlink:href="#rim" fill="#404040">
                                <set attributeName="fill" to="#808080" begin="zoomplus.mouseover" end="zoomplus.mouseout"/>
                        </use>
                        <path d="M-4,0h8M0,-4v8" fill="none" stroke="white" stroke-width="1.5" pointer-events="none"/>
                </g>
                <g id="zoomMin">
                        <use xlink:href="#rim" fill="#404040">
                                <set attributeName="fill" to="#808080" begin="zoomminus.mouseover" end="zoomminus.mouseout"/>
                        </use>
                        <path d="M-4,0h8" fill="none" stroke="white" stroke-width="1.5" pointer-events="none"/>
                </g>
                <g id="dirArrow">
                        <path fill="none" stroke="white" stroke-width="1.5" d="M0,-3.0v7 M-2.5,-0.5L0,-3.0L2.5,-0.5"/>
                </g>
               <g id="resetDef">
                       <use xlink:href="#rim2" fill="#404040">
                               <set attributeName="fill" to="#808080" begin="reset.mouseover" end="reset.mouseout"/>
                       </use>
               </g>
        </defs>

<script type="text/javascript">
var viewWidth = 507;
var viewHeight = 92;
var sectionId = 'dynsection-2';
</script>
<script xlink:href="svgpan.js"/>
<svg id="graph" class="graph">
<g id="viewport">
<title>MK::AdKit::_showInterstitial</title>
<polygon fill="white" stroke="none" points="-4,4 -4,-88 503.434,-88 503.434,4 -4,4"/>
<!-- Node1 -->
<g id="node1" class="node"><title>Node1</title>
<polygon fill="#bfbfbf" stroke="black" points="0,-21.5 0,-39.5 137.714,-39.5 137.714,-21.5 0,-21.5"/>
<text text-anchor="middle" x="68.8569" y="-27.5" font-family="Helvetica,sans-Serif" font-size="10.00">MK::AdKit::_showInterstitial</text>
</g>
<!-- Node2 -->
<g id="node2" class="node"><title>Node2</title>
<g id="a_node2"><a xlink:href="interface_reward_video_delegate.html#a0bfa3f23795d0ad8cedcb3c7601b9305" target="_top" xlink:title="&#45;[RewardVideoDelegate\l requestNewRewardVideo]">
<polygon fill="white" stroke="black" points="173.714,-37.5 173.714,-65.5 308.488,-65.5 308.488,-37.5 173.714,-37.5"/>
<text text-anchor="start" x="181.714" y="-53.5" font-family="Helvetica,sans-Serif" font-size="10.00">&#45;[RewardVideoDelegate</text>
<text text-anchor="middle" x="241.101" y="-43.5" font-family="Helvetica,sans-Serif" font-size="10.00"> requestNewRewardVideo]</text>
</a>
</g>
</g>
<!-- Node1&#45;&gt;Node2 -->
<g id="edge1" class="edge"><title>Node1&#45;&gt;Node2</title>
<path fill="none" stroke="midnightblue" d="M148.316,-40.1782C156.729,-41.2158 165.228,-42.2643 173.484,-43.2826"/>
<polygon fill="midnightblue" stroke="midnightblue" points="148.474,-36.6712 138.121,-38.9205 147.617,-43.6185 148.474,-36.6712"/>
</g>
<!-- Node4 -->
<g id="node4" class="node"><title>Node4</title>
<g id="a_node4"><a xlink:href="namespace_m_k_1_1_ad_kit.html#a413ead0cc048a5cb2becc3a6e50ad59b" target="_top" xlink:title="Shows an interstitial ad. ">
<polygon fill="white" stroke="black" points="175.025,-0.5 175.025,-18.5 307.177,-18.5 307.177,-0.5 175.025,-0.5"/>
<text text-anchor="middle" x="241.101" y="-6.5" font-family="Helvetica,sans-Serif" font-size="10.00">MK::AdKit::showInterstitial</text>
</a>
</g>
</g>
<!-- Node1&#45;&gt;Node4 -->
<g id="edge4" class="edge"><title>Node1&#45;&gt;Node4</title>
<path fill="none" stroke="midnightblue" d="M148.147,-20.8428C157.084,-19.7403 166.122,-18.6255 174.864,-17.5471"/>
<polygon fill="midnightblue" stroke="midnightblue" points="147.617,-17.3815 138.121,-22.0795 148.474,-24.3288 147.617,-17.3815"/>
</g>
<!-- Node2&#45;&gt;Node2 -->
<g id="edge3" class="edge"><title>Node2&#45;&gt;Node2</title>
<path fill="none" stroke="midnightblue" d="M210.009,-75.4873C213.31,-80.4413 223.674,-84 241.101,-84 268.984,-84 278.786,-74.8898 270.509,-65.5305"/>
<polygon fill="midnightblue" stroke="midnightblue" points="213.476,-75.9743 211.693,-65.5305 206.574,-74.8063 213.476,-75.9743"/>
</g>
<!-- Node3 -->
<g id="node3" class="node"><title>Node3</title>
<g id="a_node3"><a xlink:href="interface_reward_video_delegate.html#a5d8713e80adf05ec03e68072d573ad06" target="_top" xlink:title="&#45;[RewardVideoDelegate\l initWithAdUnitID:andCallback:]">
<polygon fill="white" stroke="black" points="344.488,-37.5 344.488,-65.5 499.434,-65.5 499.434,-37.5 344.488,-37.5"/>
<text text-anchor="start" x="352.488" y="-53.5" font-family="Helvetica,sans-Serif" font-size="10.00">&#45;[RewardVideoDelegate</text>
<text text-anchor="middle" x="421.961" y="-43.5" font-family="Helvetica,sans-Serif" font-size="10.00"> initWithAdUnitID:andCallback:]</text>
</a>
</g>
</g>
<!-- Node2&#45;&gt;Node3 -->
<g id="edge2" class="edge"><title>Node2&#45;&gt;Node3</title>
<path fill="none" stroke="midnightblue" d="M318.897,-51.5C327.334,-51.5 335.924,-51.5 344.358,-51.5"/>
<polygon fill="midnightblue" stroke="midnightblue" points="318.702,-48.0001 308.702,-51.5 318.702,-55.0001 318.702,-48.0001"/>
</g>
</g>
</svg>
        <g id="navigator" transform="translate(0 0)" fill="#404254">
                <rect fill="#f2f5e9" fill-opacity="0.5" stroke="#606060" stroke-width=".5" x="0" y="0" width="60" height="60"/>
                <use id="zoomplus" xlink:href="#zoomPlus" x="17" y="9" onmousedown="handleZoom(evt,'in')"/>
                <use id="zoomminus" xlink:href="#zoomMin" x="42" y="9" onmousedown="handleZoom(evt,'out')"/>
                <use id="reset" xlink:href="#resetDef" x="30" y="36" onmousedown="handleReset()"/>
                <g id="arrowUp" xlink:href="#dirArrow" transform="translate(30 24)" onmousedown="handlePan(0,-1)">
                  <use xlink:href="#rim" fill="#404040">
                        <set attributeName="fill" to="#808080" begin="arrowUp.mouseover" end="arrowUp.mouseout"/>
                  </use>
                  <path fill="none" stroke="white" stroke-width="1.5" d="M0,-3.0v7 M-2.5,-0.5L0,-3.0L2.5,-0.5"/>
                </g>
                <g id="arrowRight" xlink:href="#dirArrow" transform="rotate(90) translate(36 -43)" onmousedown="handlePan(1,0)">
                  <use xlink:href="#rim" fill="#404040">
                        <set attributeName="fill" to="#808080" begin="arrowRight.mouseover" end="arrowRight.mouseout"/>
                  </use>
                  <path fill="none" stroke="white" stroke-width="1.5" d="M0,-3.0v7 M-2.5,-0.5L0,-3.0L2.5,-0.5"/>
                </g>
                <g id="arrowDown" xlink:href="#dirArrow" transform="rotate(180) translate(-30 -48)" onmousedown="handlePan(0,1)">
                  <use xlink:href="#rim" fill="#404040">
                        <set attributeName="fill" to="#808080" begin="arrowDown.mouseover" end="arrowDown.mouseout"/>
                  </use>
                  <path fill="none" stroke="white" stroke-width="1.5" d="M0,-3.0v7 M-2.5,-0.5L0,-3.0L2.5,-0.5"/>
                </g>
                <g id="arrowLeft" xlink:href="#dirArrow" transform="rotate(270) translate(-36 17)" onmousedown="handlePan(-1,0)">
                  <use xlink:href="#rim" fill="#404040">
                        <set attributeName="fill" to="#808080" begin="arrowLeft.mouseover" end="arrowLeft.mouseout"/>
                  </use>
                  <path fill="none" stroke="white" stroke-width="1.5" d="M0,-3.0v7 M-2.5,-0.5L0,-3.0L2.5,-0.5"/>
                </g>
        </g>
        <svg viewBox="0 0 15 15" width="100%" height="30px" preserveAspectRatio="xMaxYMin meet">
         <g id="arrow_out" transform="scale(0.3 0.3)">
          <a xlink:href="namespace_m_k_1_1_ad_kit_ae4fe5a11d697083b53f50d9abcc3286e_icgraph_org.svg" target="_base">
           <rect id="button" ry="5" rx="5" y="6" x="6" height="38" width="38"
                fill="#f2f5e9" fill-opacity="0.5" stroke="#606060" stroke-width="1.0"/>
           <path id="arrow"
             d="M 11.500037,31.436501 C 11.940474,20.09759 22.043105,11.32322 32.158766,21.979434 L 37.068811,17.246167 C 37.068811,17.246167 37.088388,32 37.088388,32 L 22.160133,31.978069 C 22.160133,31.978069 26.997745,27.140456 26.997745,27.140456 C 18.528582,18.264221 13.291696,25.230495 11.500037,31.436501 z"
             style="fill:#404040;"/>
          </a>
         </g>
        </svg>
</svg>
