<?xml version="1.0" encoding="UTF-8" standalone="no"?>
<!DOCTYPE svg PUBLIC "-//W3C//DTD SVG 1.1//EN"
 "http://www.w3.org/Graphics/SVG/1.1/DTD/svg11.dtd">
<!-- Generated by graphviz version 2.38.0 (20140413.2041)
 -->
<!-- Title: MK::Analytics::_logEvent Pages: 1 -->
<svg width="832pt" height="55pt"
 viewBox="0.00 0.00 832.09 55.00" xmlns="http://www.w3.org/2000/svg" xmlns:xlink="http://www.w3.org/1999/xlink">
<g id="graph0" class="graph" transform="scale(1 1) rotate(0) translate(4 51)">
<title>MK::Analytics::_logEvent</title>
<polygon fill="white" stroke="none" points="-4,4 -4,-51 828.093,-51 828.093,4 -4,4"/>
<!-- Node1 -->
<g id="node1" class="node"><title>Node1</title>
<polygon fill="#bfbfbf" stroke="black" points="0,-5.5 0,-23.5 126.605,-23.5 126.605,-5.5 0,-5.5"/>
<text text-anchor="middle" x="63.3027" y="-11.5" font-family="Helvetica,sans-Serif" font-size="10.00">MK::Analytics::_logEvent</text>
</g>
<!-- Node2 -->
<g id="node2" class="node"><title>Node2</title>
<g id="a_node2"><a xlink:href="namespace_m_k_1_1_analytics.html#a7bb95c80f3280eb2e484571354d8c61e" target="_top" xlink:title="Logs given event without additional attributes. ">
<polygon fill="white" stroke="black" points="162.605,-5.5 162.605,-23.5 283.649,-23.5 283.649,-5.5 162.605,-5.5"/>
<text text-anchor="middle" x="223.127" y="-11.5" font-family="Helvetica,sans-Serif" font-size="10.00">MK::Analytics::logEvent</text>
</a>
</g>
</g>
<!-- Node1&#45;&gt;Node2 -->
<g id="edge1" class="edge"><title>Node1&#45;&gt;Node2</title>
<path fill="none" stroke="midnightblue" d="M136.737,-14.5C145.366,-14.5 154.1,-14.5 162.52,-14.5"/>
<polygon fill="midnightblue" stroke="midnightblue" points="136.679,-11.0001 126.679,-14.5 136.679,-18.0001 136.679,-11.0001"/>
</g>
<!-- Node3 -->
<g id="node3" class="node"><title>Node3</title>
<g id="a_node3"><a xlink:href="namespace_m_k_1_1_analytics.html#a45074f520084ef7dadcf189155705026" target="_top" xlink:title="Logs that app tried to display a video reward ad that was not ready yet. ">
<polygon fill="white" stroke="black" points="319.649,-0.5 319.649,-28.5 462.373,-28.5 462.373,-0.5 319.649,-0.5"/>
<text text-anchor="start" x="327.649" y="-16.5" font-family="Helvetica,sans-Serif" font-size="10.00">MK::Analytics::logNonReady</text>
<text text-anchor="middle" x="391.011" y="-6.5" font-family="Helvetica,sans-Serif" font-size="10.00">VideoRewardDisplay</text>
</a>
</g>
</g>
<!-- Node2&#45;&gt;Node3 -->
<g id="edge2" class="edge"><title>Node2&#45;&gt;Node3</title>
<path fill="none" stroke="midnightblue" d="M294.132,-14.5C302.519,-14.5 311.087,-14.5 319.481,-14.5"/>
<polygon fill="midnightblue" stroke="midnightblue" points="294.015,-11.0001 284.015,-14.5 294.015,-18.0001 294.015,-11.0001"/>
</g>
<!-- Node4 -->
<g id="node4" class="node"><title>Node4</title>
<g id="a_node4"><a xlink:href="interface_reward_video_delegate.html#a0bfa3f23795d0ad8cedcb3c7601b9305" target="_top" xlink:title="&#45;[RewardVideoDelegate\l requestNewRewardVideo]">
<polygon fill="white" stroke="black" points="498.373,-0.5 498.373,-28.5 633.147,-28.5 633.147,-0.5 498.373,-0.5"/>
<text text-anchor="start" x="506.373" y="-16.5" font-family="Helvetica,sans-Serif" font-size="10.00">&#45;[RewardVideoDelegate</text>
<text text-anchor="middle" x="565.76" y="-6.5" font-family="Helvetica,sans-Serif" font-size="10.00"> requestNewRewardVideo]</text>
</a>
</g>
</g>
<!-- Node3&#45;&gt;Node4 -->
<g id="edge3" class="edge"><title>Node3&#45;&gt;Node4</title>
<path fill="none" stroke="midnightblue" d="M473.032,-14.5C481.489,-14.5 490.014,-14.5 498.282,-14.5"/>
<polygon fill="midnightblue" stroke="midnightblue" points="472.773,-11.0001 462.773,-14.5 472.773,-18.0001 472.773,-11.0001"/>
</g>
<!-- Node4&#45;&gt;Node4 -->
<g id="edge5" class="edge"><title>Node4&#45;&gt;Node4</title>
<path fill="none" stroke="midnightblue" d="M534.306,-38.4873C537.646,-43.4413 548.131,-47 565.76,-47 593.967,-47 603.884,-37.8898 595.51,-28.5305"/>
<polygon fill="midnightblue" stroke="midnightblue" points="537.773,-38.9777 536.011,-28.5305 530.873,-37.7965 537.773,-38.9777"/>
</g>
<!-- Node5 -->
<g id="node5" class="node"><title>Node5</title>
<g id="a_node5"><a xlink:href="interface_reward_video_delegate.html#a5d8713e80adf05ec03e68072d573ad06" target="_top" xlink:title="&#45;[RewardVideoDelegate\l initWithAdUnitID:andCallback:]">
<polygon fill="white" stroke="black" points="669.147,-0.5 669.147,-28.5 824.093,-28.5 824.093,-0.5 669.147,-0.5"/>
<text text-anchor="start" x="677.147" y="-16.5" font-family="Helvetica,sans-Serif" font-size="10.00">&#45;[RewardVideoDelegate</text>
<text text-anchor="middle" x="746.62" y="-6.5" font-family="Helvetica,sans-Serif" font-size="10.00"> initWithAdUnitID:andCallback:]</text>
</a>
</g>
</g>
<!-- Node4&#45;&gt;Node5 -->
<g id="edge4" class="edge"><title>Node4&#45;&gt;Node5</title>
<path fill="none" stroke="midnightblue" d="M643.556,-14.5C651.993,-14.5 660.583,-14.5 669.017,-14.5"/>
<polygon fill="midnightblue" stroke="midnightblue" points="643.361,-11.0001 633.361,-14.5 643.361,-18.0001 643.361,-11.0001"/>
</g>
</g>
</svg>
