<?xml version="1.0" encoding="UTF-8" standalone="no"?>
<!DOCTYPE svg PUBLIC "-//W3C//DTD SVG 1.1//EN"
 "http://www.w3.org/Graphics/SVG/1.1/DTD/svg11.dtd">
<!-- Generated by graphviz version 2.38.0 (20140413.2041)
 -->
<!-- Title: MK::GameKit::ReplayKit::discardRecording Pages: 1 -->
<svg width="451pt" height="74pt"
 viewBox="0.00 0.00 451.44 74.00" xmlns="http://www.w3.org/2000/svg" xmlns:xlink="http://www.w3.org/1999/xlink">
<g id="graph0" class="graph" transform="scale(1 1) rotate(0) translate(4 70)">
<title>MK::GameKit::ReplayKit::discardRecording</title>
<polygon fill="white" stroke="none" points="-4,4 -4,-70 447.438,-70 447.438,4 -4,4"/>
<!-- Node1 -->
<g id="node1" class="node"><title>Node1</title>
<polygon fill="#bfbfbf" stroke="black" points="0,-21.5 0,-49.5 123.812,-49.5 123.812,-21.5 0,-21.5"/>
<text text-anchor="start" x="8" y="-37.5" font-family="Helvetica,sans-Serif" font-size="10.00">MK::GameKit::ReplayKit</text>
<text text-anchor="middle" x="61.9062" y="-27.5" font-family="Helvetica,sans-Serif" font-size="10.00">::discardRecording</text>
</g>
<!-- Node2 -->
<g id="node2" class="node"><title>Node2</title>
<g id="a_node2"><a xlink:href="namespace_m_k_1_1_log.html#a3e84a309c158873fecff57e1db770c9a" target="_top" xlink:title="Logs a debug message that will not appear also in release builds. ">
<polygon fill="white" stroke="black" points="338.229,-47.5 338.229,-65.5 424.834,-65.5 424.834,-47.5 338.229,-47.5"/>
<text text-anchor="middle" x="381.531" y="-53.5" font-family="Helvetica,sans-Serif" font-size="10.00">MK::Log::debug</text>
</a>
</g>
</g>
<!-- Node1&#45;&gt;Node2 -->
<g id="edge1" class="edge"><title>Node1&#45;&gt;Node2</title>
<path fill="none" stroke="midnightblue" d="M109.795,-49.5451C125.539,-53.6065 143.296,-57.4852 159.812,-59.5 216.985,-66.4744 283.102,-64.2257 327.955,-61.1795"/>
<polygon fill="midnightblue" stroke="midnightblue" points="328.311,-64.6631 338.036,-60.4571 327.811,-57.681 328.311,-64.6631"/>
</g>
<!-- Node3 -->
<g id="node3" class="node"><title>Node3</title>
<g id="a_node3"><a xlink:href="namespace_m_k_1_1_game_kit_1_1_replay_kit.html#a0b99deac41c67fa5ff370911361bf35e" target="_top" xlink:title="Returns whether ReplayKit is available. ">
<polygon fill="white" stroke="black" points="319.625,-0.5 319.625,-28.5 443.438,-28.5 443.438,-0.5 319.625,-0.5"/>
<text text-anchor="start" x="327.625" y="-16.5" font-family="Helvetica,sans-Serif" font-size="10.00">MK::GameKit::ReplayKit</text>
<text text-anchor="middle" x="381.531" y="-6.5" font-family="Helvetica,sans-Serif" font-size="10.00">::isAvailable</text>
</a>
</g>
</g>
<!-- Node1&#45;&gt;Node3 -->
<g id="edge2" class="edge"><title>Node1&#45;&gt;Node3</title>
<path fill="none" stroke="midnightblue" d="M109.795,-21.4549C125.539,-17.3935 143.296,-13.5148 159.812,-11.5 209.469,-5.44248 265.873,-6.34246 309.232,-8.6796"/>
<polygon fill="midnightblue" stroke="midnightblue" points="309.213,-12.1843 319.398,-9.26656 309.617,-5.19589 309.213,-12.1843"/>
</g>
<!-- Node4 -->
<g id="node4" class="node"><title>Node4</title>
<g id="a_node4"><a xlink:href="namespace_m_k_1_1_game_kit_1_1_replay_kit.html#a8f5b1f28bf1af371dcb0ce7ec82afddb" target="_top" xlink:title="Stops recording. ">
<polygon fill="white" stroke="black" points="159.812,-21.5 159.812,-49.5 283.625,-49.5 283.625,-21.5 159.812,-21.5"/>
<text text-anchor="start" x="167.812" y="-37.5" font-family="Helvetica,sans-Serif" font-size="10.00">MK::GameKit::ReplayKit</text>
<text text-anchor="middle" x="221.719" y="-27.5" font-family="Helvetica,sans-Serif" font-size="10.00">::stopRecording</text>
</a>
</g>
</g>
<!-- Node1&#45;&gt;Node4 -->
<g id="edge3" class="edge"><title>Node1&#45;&gt;Node4</title>
<path fill="none" stroke="midnightblue" d="M123.921,-35.5C132.245,-35.5 140.85,-35.5 149.338,-35.5"/>
<polygon fill="midnightblue" stroke="midnightblue" points="149.606,-39.0001 159.606,-35.5 149.606,-32.0001 149.606,-39.0001"/>
</g>
<!-- Node4&#45;&gt;Node2 -->
<g id="edge5" class="edge"><title>Node4&#45;&gt;Node2</title>
<path fill="none" stroke="midnightblue" d="M283.733,-43.6191C298.25,-45.551 313.621,-47.5963 327.735,-49.4744"/>
<polygon fill="midnightblue" stroke="midnightblue" points="327.386,-52.9587 337.76,-50.8084 328.309,-46.0199 327.386,-52.9587"/>
</g>
<!-- Node4&#45;&gt;Node3 -->
<g id="edge4" class="edge"><title>Node4&#45;&gt;Node3</title>
<path fill="none" stroke="midnightblue" d="M283.733,-27.3809C292.149,-26.2609 300.852,-25.1029 309.43,-23.9614"/>
<polygon fill="midnightblue" stroke="midnightblue" points="309.968,-27.4207 319.419,-22.6322 309.045,-20.4819 309.968,-27.4207"/>
</g>
</g>
</svg>
