<?xml version="1.0" encoding="UTF-8" standalone="no"?>
<!DOCTYPE svg PUBLIC "-//W3C//DTD SVG 1.1//EN"
 "http://www.w3.org/Graphics/SVG/1.1/DTD/svg11.dtd">
<!-- Generated by graphviz version 2.38.0 (20140413.2041)
 -->
<!-- Title: MK::KVDatabase::decreaseLongValueForKey Pages: 1 -->
<svg width="764pt" height="84pt"
 viewBox="0.00 0.00 763.86 84.00" xmlns="http://www.w3.org/2000/svg" xmlns:xlink="http://www.w3.org/1999/xlink">
<g id="graph0" class="graph" transform="scale(1 1) rotate(0) translate(4 80)">
<title>MK::KVDatabase::decreaseLongValueForKey</title>
<polygon fill="white" stroke="none" points="-4,4 -4,-80 759.862,-80 759.862,4 -4,4"/>
<!-- Node1 -->
<g id="node1" class="node"><title>Node1</title>
<polygon fill="#bfbfbf" stroke="black" points="0,-23.5 0,-51.5 139.398,-51.5 139.398,-23.5 0,-23.5"/>
<text text-anchor="start" x="8" y="-39.5" font-family="Helvetica,sans-Serif" font-size="10.00">MK::KVDatabase::decrease</text>
<text text-anchor="middle" x="69.6992" y="-29.5" font-family="Helvetica,sans-Serif" font-size="10.00">LongValueForKey</text>
</g>
<!-- Node2 -->
<g id="node2" class="node"><title>Node2</title>
<g id="a_node2"><a xlink:href="namespace_m_k_1_1_k_v_database.html#aa67a4972fe3adb6041b9da4cab53841f" target="_top" xlink:title="Increases long value for given key by given amount. ">
<polygon fill="white" stroke="black" points="175.398,-23.5 175.398,-51.5 311.457,-51.5 311.457,-23.5 175.398,-23.5"/>
<text text-anchor="start" x="183.398" y="-39.5" font-family="Helvetica,sans-Serif" font-size="10.00">MK::KVDatabase::increase</text>
<text text-anchor="middle" x="243.428" y="-29.5" font-family="Helvetica,sans-Serif" font-size="10.00">LongValueForKey</text>
</a>
</g>
</g>
<!-- Node1&#45;&gt;Node2 -->
<g id="edge1" class="edge"><title>Node1&#45;&gt;Node2</title>
<path fill="none" stroke="midnightblue" d="M139.558,-37.5C147.917,-37.5 156.5,-37.5 164.972,-37.5"/>
<polygon fill="midnightblue" stroke="midnightblue" points="165.23,-41.0001 175.23,-37.5 165.23,-34.0001 165.23,-41.0001"/>
</g>
<!-- Node3 -->
<g id="node3" class="node"><title>Node3</title>
<g id="a_node3"><a xlink:href="namespace_m_k_1_1_k_v_database.html#a4058098a441fb6e62605317242ebb54a" target="_top" xlink:title="Sets given key in database to the result of applying given binary operation to previous value (defaul...">
<polygon fill="white" stroke="black" points="347.457,-23.5 347.457,-51.5 560.615,-51.5 560.615,-23.5 347.457,-23.5"/>
<text text-anchor="start" x="355.457" y="-39.5" font-family="Helvetica,sans-Serif" font-size="10.00">MK::KVDatabase::storeApplying</text>
<text text-anchor="middle" x="454.036" y="-29.5" font-family="Helvetica,sans-Serif" font-size="10.00">BinaryOperationAndReturningPreviousValue</text>
</a>
</g>
</g>
<!-- Node2&#45;&gt;Node3 -->
<g id="edge2" class="edge"><title>Node2&#45;&gt;Node3</title>
<path fill="none" stroke="midnightblue" d="M311.581,-37.5C319.799,-37.5 328.372,-37.5 337.053,-37.5"/>
<polygon fill="midnightblue" stroke="midnightblue" points="337.281,-41.0001 347.28,-37.5 337.28,-34.0001 337.281,-41.0001"/>
</g>
<!-- Node4 -->
<g id="node4" class="node"><title>Node4</title>
<g id="a_node4"><a xlink:href="namespace_m_k_1_1_k_v_database.html#a767b41659c2ee79a635285b4ae078aa7" target="_top" xlink:title="Returns long value associated with given key. ">
<polygon fill="white" stroke="black" points="596.615,-47.5 596.615,-75.5 755.862,-75.5 755.862,-47.5 596.615,-47.5"/>
<text text-anchor="start" x="604.615" y="-63.5" font-family="Helvetica,sans-Serif" font-size="10.00">MK::KVDatabase::getLongValue</text>
<text text-anchor="middle" x="676.239" y="-53.5" font-family="Helvetica,sans-Serif" font-size="10.00">ForKey</text>
</a>
</g>
</g>
<!-- Node3&#45;&gt;Node4 -->
<g id="edge3" class="edge"><title>Node3&#45;&gt;Node4</title>
<path fill="none" stroke="midnightblue" d="M560.623,-49.0079C569.176,-49.9402 577.766,-50.8764 586.185,-51.794"/>
<polygon fill="midnightblue" stroke="midnightblue" points="586.036,-55.2984 596.356,-52.9026 586.795,-48.3396 586.036,-55.2984"/>
</g>
<!-- Node5 -->
<g id="node5" class="node"><title>Node5</title>
<g id="a_node5"><a xlink:href="namespace_m_k_1_1_k_v_database.html#a8c40584219ca43eb9a2e65f14e328816" target="_top" xlink:title="Sets long value for given key. ">
<polygon fill="white" stroke="black" points="596.896,-0.5 596.896,-28.5 755.582,-28.5 755.582,-0.5 596.896,-0.5"/>
<text text-anchor="start" x="604.896" y="-16.5" font-family="Helvetica,sans-Serif" font-size="10.00">MK::KVDatabase::setLongValue</text>
<text text-anchor="middle" x="676.239" y="-6.5" font-family="Helvetica,sans-Serif" font-size="10.00">ForKey</text>
</a>
</g>
</g>
<!-- Node3&#45;&gt;Node5 -->
<g id="edge4" class="edge"><title>Node3&#45;&gt;Node5</title>
<path fill="none" stroke="midnightblue" d="M560.623,-26.4716C569.349,-25.5601 578.114,-24.6446 586.697,-23.7481"/>
<polygon fill="midnightblue" stroke="midnightblue" points="587.093,-27.2259 596.676,-22.7059 586.366,-20.2637 587.093,-27.2259"/>
</g>
</g>
</svg>
