<?xml version="1.0" encoding="UTF-8" standalone="no"?>
<!DOCTYPE svg PUBLIC "-//W3C//DTD SVG 1.1//EN"
 "http://www.w3.org/Graphics/SVG/1.1/DTD/svg11.dtd">
<!-- Generated by graphviz version 2.38.0 (20140413.2041)
 -->
<!-- Title: MK::GameKit::Java_org_cocos2dx_cpp_AppActivity_callCppScoreCallback Pages: 1 -->
<!--zoomable 71 -->
<svg id="main" version="1.1" xmlns="http://www.w3.org/2000/svg" xmlns:xlink="http://www.w3.org/1999/xlink" xml:space="preserve" onload="init(evt)">
<style type="text/css"><![CDATA[
.edge:hover path { stroke: red; }
.edge:hover polygon { stroke: red; fill: red; }
]]></style>
<script type="text/javascript"><![CDATA[
var edges = document.getElementsByTagName('g');
if (edges && edges.length) {
  for (var i=0;i<edges.length;i++) {
    if (edges[i].id.substr(0,4)=='edge') {
      edges[i].setAttribute('class','edge');
    }
  }
}
]]></script>
        <defs>
                <circle id="rim" cx="0" cy="0" r="7"/>
                <circle id="rim2" cx="0" cy="0" r="3.5"/>
                <g id="zoomPlus">
                        <use xlink:href="#rim" fill="#404040">
                                <set attributeName="fill" to="#808080" begin="zoomplus.mouseover" end="zoomplus.mouseout"/>
                        </use>
                        <path d="M-4,0h8M0,-4v8" fill="none" stroke="white" stroke-width="1.5" pointer-events="none"/>
                </g>
                <g id="zoomMin">
                        <use xlink:href="#rim" fill="#404040">
                                <set attributeName="fill" to="#808080" begin="zoomminus.mouseover" end="zoomminus.mouseout"/>
                        </use>
                        <path d="M-4,0h8" fill="none" stroke="white" stroke-width="1.5" pointer-events="none"/>
                </g>
                <g id="dirArrow">
                        <path fill="none" stroke="white" stroke-width="1.5" d="M0,-3.0v7 M-2.5,-0.5L0,-3.0L2.5,-0.5"/>
                </g>
               <g id="resetDef">
                       <use xlink:href="#rim2" fill="#404040">
                               <set attributeName="fill" to="#808080" begin="reset.mouseover" end="reset.mouseout"/>
                       </use>
               </g>
        </defs>

<script type="text/javascript">
var viewWidth = 642;
var viewHeight = 71;
var sectionId = 'dynsection-15';
</script>
<script xlink:href="svgpan.js"/>
<svg id="graph" class="graph">
<g id="viewport">
<title>MK::GameKit::Java_org_cocos2dx_cpp_AppActivity_callCppScoreCallback</title>
<polygon fill="white" stroke="none" points="-4,4 -4,-67 637.919,-67 637.919,4 -4,4"/>
<!-- Node1 -->
<g id="node1" class="node"><title>Node1</title>
<polygon fill="#bfbfbf" stroke="black" points="0,-24.5 0,-62.5 140.517,-62.5 140.517,-24.5 0,-24.5"/>
<text text-anchor="start" x="8" y="-50.5" font-family="Helvetica,sans-Serif" font-size="10.00">MK::GameKit::Java_org</text>
<text text-anchor="start" x="8" y="-40.5" font-family="Helvetica,sans-Serif" font-size="10.00">_cocos2dx_cpp_AppActivity</text>
<text text-anchor="middle" x="70.2583" y="-30.5" font-family="Helvetica,sans-Serif" font-size="10.00">_callCppScoreCallback</text>
</g>
<!-- Node2 -->
<g id="node2" class="node"><title>Node2</title>
<g id="a_node2"><a xlink:href="namespace_m_k_1_1_log.html#a3e84a309c158873fecff57e1db770c9a" target="_top" xlink:title="Logs a debug message that will not appear also in release builds. ">
<polygon fill="white" stroke="black" points="547.313,-34.5 547.313,-52.5 633.919,-52.5 633.919,-34.5 547.313,-34.5"/>
<text text-anchor="middle" x="590.616" y="-40.5" font-family="Helvetica,sans-Serif" font-size="10.00">MK::Log::debug</text>
</a>
</g>
</g>
<!-- Node1&#45;&gt;Node2 -->
<g id="edge1" class="edge"><title>Node1&#45;&gt;Node2</title>
<path fill="none" stroke="midnightblue" d="M140.606,-46.5097C152.58,-46.9222 164.906,-47.2795 176.517,-47.5 325.288,-50.3258 362.563,-51.2969 511.313,-47.5 519.536,-47.2901 528.24,-46.9564 536.74,-46.5691"/>
<polygon fill="midnightblue" stroke="midnightblue" points="537.141,-50.0539 546.961,-46.0747 536.803,-43.062 537.141,-50.0539"/>
</g>
<!-- Node3 -->
<g id="node3" class="node"><title>Node3</title>
<g id="a_node3"><a xlink:href="namespace_m_k_1_1_game_kit.html#a148ebf1481b3aa5094f533f07b62395c" target="_top" xlink:title="MK::GameKit::Java_org\l_cocos2dx_cpp_AppActivity\l_callCppFriendScoreCallback">
<polygon fill="white" stroke="black" points="176.517,-0.5 176.517,-38.5 324.245,-38.5 324.245,-0.5 176.517,-0.5"/>
<text text-anchor="start" x="184.517" y="-26.5" font-family="Helvetica,sans-Serif" font-size="10.00">MK::GameKit::Java_org</text>
<text text-anchor="start" x="184.517" y="-16.5" font-family="Helvetica,sans-Serif" font-size="10.00">_cocos2dx_cpp_AppActivity</text>
<text text-anchor="middle" x="250.381" y="-6.5" font-family="Helvetica,sans-Serif" font-size="10.00">_callCppFriendScoreCallback</text>
</a>
</g>
</g>
<!-- Node1&#45;&gt;Node3 -->
<g id="edge2" class="edge"><title>Node1&#45;&gt;Node3</title>
<path fill="none" stroke="midnightblue" d="M140.635,-34.1523C149.06,-33.0171 157.733,-31.8485 166.33,-30.6901"/>
<polygon fill="midnightblue" stroke="midnightblue" points="166.926,-34.1415 176.369,-29.3375 165.992,-27.2042 166.926,-34.1415"/>
</g>
<!-- Node4 -->
<g id="node4" class="node"><title>Node4</title>
<g id="a_node4"><a xlink:href="namespace_m_k_1_1_game_kit.html#aeea3e0c832dd9d93302d16f38b76c64e" target="_top" xlink:title="MK::GameKit::Java_org\l_cocos2dx_cpp_AppActivity\l_callCppAchievementCallback">
<polygon fill="white" stroke="black" points="360.245,-0.5 360.245,-38.5 511.313,-38.5 511.313,-0.5 360.245,-0.5"/>
<text text-anchor="start" x="368.245" y="-26.5" font-family="Helvetica,sans-Serif" font-size="10.00">MK::GameKit::Java_org</text>
<text text-anchor="start" x="368.245" y="-16.5" font-family="Helvetica,sans-Serif" font-size="10.00">_cocos2dx_cpp_AppActivity</text>
<text text-anchor="middle" x="435.779" y="-6.5" font-family="Helvetica,sans-Serif" font-size="10.00">_callCppAchievementCallback</text>
</a>
</g>
</g>
<!-- Node3&#45;&gt;Node4 -->
<g id="edge3" class="edge"><title>Node3&#45;&gt;Node4</title>
<path fill="none" stroke="midnightblue" d="M324.392,-19.5C332.864,-19.5 341.558,-19.5 350.168,-19.5"/>
<polygon fill="midnightblue" stroke="midnightblue" points="350.219,-23.0001 360.219,-19.5 350.219,-16.0001 350.219,-23.0001"/>
</g>
<!-- Node4&#45;&gt;Node2 -->
<g id="edge4" class="edge"><title>Node4&#45;&gt;Node2</title>
<path fill="none" stroke="midnightblue" d="M511.407,-31.2188C520.134,-32.5892 528.892,-33.9645 537.226,-35.2732"/>
<polygon fill="midnightblue" stroke="midnightblue" points="536.729,-38.7379 547.15,-36.8316 537.815,-31.8226 536.729,-38.7379"/>
</g>
</g>
</svg>
        <g id="navigator" transform="translate(0 0)" fill="#404254">
                <rect fill="#f2f5e9" fill-opacity="0.5" stroke="#606060" stroke-width=".5" x="0" y="0" width="60" height="60"/>
                <use id="zoomplus" xlink:href="#zoomPlus" x="17" y="9" onmousedown="handleZoom(evt,'in')"/>
                <use id="zoomminus" xlink:href="#zoomMin" x="42" y="9" onmousedown="handleZoom(evt,'out')"/>
                <use id="reset" xlink:href="#resetDef" x="30" y="36" onmousedown="handleReset()"/>
                <g id="arrowUp" xlink:href="#dirArrow" transform="translate(30 24)" onmousedown="handlePan(0,-1)">
                  <use xlink:href="#rim" fill="#404040">
                        <set attributeName="fill" to="#808080" begin="arrowUp.mouseover" end="arrowUp.mouseout"/>
                  </use>
                  <path fill="none" stroke="white" stroke-width="1.5" d="M0,-3.0v7 M-2.5,-0.5L0,-3.0L2.5,-0.5"/>
                </g>
                <g id="arrowRight" xlink:href="#dirArrow" transform="rotate(90) translate(36 -43)" onmousedown="handlePan(1,0)">
                  <use xlink:href="#rim" fill="#404040">
                        <set attributeName="fill" to="#808080" begin="arrowRight.mouseover" end="arrowRight.mouseout"/>
                  </use>
                  <path fill="none" stroke="white" stroke-width="1.5" d="M0,-3.0v7 M-2.5,-0.5L0,-3.0L2.5,-0.5"/>
                </g>
                <g id="arrowDown" xlink:href="#dirArrow" transform="rotate(180) translate(-30 -48)" onmousedown="handlePan(0,1)">
                  <use xlink:href="#rim" fill="#404040">
                        <set attributeName="fill" to="#808080" begin="arrowDown.mouseover" end="arrowDown.mouseout"/>
                  </use>
                  <path fill="none" stroke="white" stroke-width="1.5" d="M0,-3.0v7 M-2.5,-0.5L0,-3.0L2.5,-0.5"/>
                </g>
                <g id="arrowLeft" xlink:href="#dirArrow" transform="rotate(270) translate(-36 17)" onmousedown="handlePan(-1,0)">
                  <use xlink:href="#rim" fill="#404040">
                        <set attributeName="fill" to="#808080" begin="arrowLeft.mouseover" end="arrowLeft.mouseout"/>
                  </use>
                  <path fill="none" stroke="white" stroke-width="1.5" d="M0,-3.0v7 M-2.5,-0.5L0,-3.0L2.5,-0.5"/>
                </g>
        </g>
        <svg viewBox="0 0 15 15" width="100%" height="30px" preserveAspectRatio="xMaxYMin meet">
         <g id="arrow_out" transform="scale(0.3 0.3)">
          <a xlink:href="namespace_m_k_1_1_game_kit_abb3b0052dac094d7e492bb0cbb1a1e8b_cgraph_org.svg" target="_base">
           <rect id="button" ry="5" rx="5" y="6" x="6" height="38" width="38"
                fill="#f2f5e9" fill-opacity="0.5" stroke="#606060" stroke-width="1.0"/>
           <path id="arrow"
             d="M 11.500037,31.436501 C 11.940474,20.09759 22.043105,11.32322 32.158766,21.979434 L 37.068811,17.246167 C 37.068811,17.246167 37.088388,32 37.088388,32 L 22.160133,31.978069 C 22.160133,31.978069 26.997745,27.140456 26.997745,27.140456 C 18.528582,18.264221 13.291696,25.230495 11.500037,31.436501 z"
             style="fill:#404040;"/>
          </a>
         </g>
        </svg>
</svg>
