<?xml version="1.0" encoding="UTF-8" standalone="no"?>
<!DOCTYPE svg PUBLIC "-//W3C//DTD SVG 1.1//EN"
 "http://www.w3.org/Graphics/SVG/1.1/DTD/svg11.dtd">
<!-- Generated by graphviz version 2.38.0 (20140413.2041)
 -->
<!-- Title: MK::Device::UUID Pages: 1 -->
<svg width="478pt" height="131pt"
 viewBox="0.00 0.00 477.79 131.00" xmlns="http://www.w3.org/2000/svg" xmlns:xlink="http://www.w3.org/1999/xlink">
<g id="graph0" class="graph" transform="scale(1 1) rotate(0) translate(4 127)">
<title>MK::Device::UUID</title>
<polygon fill="white" stroke="none" points="-4,4 -4,-127 473.79,-127 473.79,4 -4,4"/>
<!-- Node1 -->
<g id="node1" class="node"><title>Node1</title>
<polygon fill="#bfbfbf" stroke="black" points="0,-57.5 0,-75.5 97.123,-75.5 97.123,-57.5 0,-57.5"/>
<text text-anchor="middle" x="48.5615" y="-63.5" font-family="Helvetica,sans-Serif" font-size="10.00">MK::Device::UUID</text>
</g>
<!-- Node2 -->
<g id="node2" class="node"><title>Node2</title>
<g id="a_node2"><a xlink:href="_o_s_01_x_2_device_8mm.html#ae92bd57965d1e7252665aad1916433fd" target="_top" xlink:title="copy_mac_address">
<polygon fill="white" stroke="black" points="159.708,-104.5 159.708,-122.5 262.421,-122.5 262.421,-104.5 159.708,-104.5"/>
<text text-anchor="middle" x="211.064" y="-110.5" font-family="Helvetica,sans-Serif" font-size="10.00">copy_mac_address</text>
</a>
</g>
</g>
<!-- Node1&#45;&gt;Node2 -->
<g id="edge1" class="edge"><title>Node1&#45;&gt;Node2</title>
<path fill="none" stroke="midnightblue" d="M82.9693,-78.9889C98.156,-84.434 116.426,-90.6638 133.123,-95.5 144.323,-98.7441 156.568,-101.818 167.93,-104.478"/>
<polygon fill="midnightblue" stroke="midnightblue" points="84.0763,-75.6673 73.4822,-75.5464 81.6886,-82.2475 84.0763,-75.6673"/>
</g>
<!-- Node3 -->
<g id="node3" class="node"><title>Node3</title>
<g id="a_node3"><a xlink:href="interface_receipt_validator.html#ab2df585c981dfc992ad4fe8fa09de347" target="_top" xlink:title="+[ReceiptValidator\l receiptAtURL:isValidForBundle\lID:andVersion:]">
<polygon fill="white" stroke="black" points="133.123,-47.5 133.123,-85.5 289.006,-85.5 289.006,-47.5 133.123,-47.5"/>
<text text-anchor="start" x="141.123" y="-73.5" font-family="Helvetica,sans-Serif" font-size="10.00">+[ReceiptValidator</text>
<text text-anchor="start" x="141.123" y="-63.5" font-family="Helvetica,sans-Serif" font-size="10.00"> receiptAtURL:isValidForBundle</text>
<text text-anchor="middle" x="211.064" y="-53.5" font-family="Helvetica,sans-Serif" font-size="10.00">ID:andVersion:]</text>
</a>
</g>
</g>
<!-- Node1&#45;&gt;Node3 -->
<g id="edge2" class="edge"><title>Node1&#45;&gt;Node3</title>
<path fill="none" stroke="midnightblue" d="M107.291,-66.5C115.662,-66.5 124.389,-66.5 133.065,-66.5"/>
<polygon fill="midnightblue" stroke="midnightblue" points="107.283,-63.0001 97.2831,-66.5 107.283,-70.0001 107.283,-63.0001"/>
</g>
<!-- Node5 -->
<g id="node5" class="node"><title>Node5</title>
<g id="a_node5"><a xlink:href="namespace_m_k_1_1_crypto_kit.html#a5558ed3cf6f0752f849ac7904209467b" target="_top" xlink:title="Returns given content encrypted. ">
<polygon fill="white" stroke="black" points="146.67,-0.5 146.67,-28.5 275.458,-28.5 275.458,-0.5 146.67,-0.5"/>
<text text-anchor="start" x="154.67" y="-16.5" font-family="Helvetica,sans-Serif" font-size="10.00">MK::CryptoKit::symmetric</text>
<text text-anchor="middle" x="211.064" y="-6.5" font-family="Helvetica,sans-Serif" font-size="10.00">Encrypt</text>
</a>
</g>
</g>
<!-- Node1&#45;&gt;Node5 -->
<g id="edge4" class="edge"><title>Node1&#45;&gt;Node5</title>
<path fill="none" stroke="midnightblue" d="M85.9339,-54.1279C100.573,-49.1965 117.629,-43.5119 133.123,-38.5 143.241,-35.2271 154.133,-31.7823 164.447,-28.556"/>
<polygon fill="midnightblue" stroke="midnightblue" points="84.5879,-50.8882 76.2337,-57.4042 86.8279,-57.5202 84.5879,-50.8882"/>
</g>
<!-- Node4 -->
<g id="node4" class="node"><title>Node4</title>
<g id="a_node4"><a xlink:href="interface_receipt_validator.html#a820c68148ab2fedccc43588f8d79dea6" target="_top" xlink:title="+[ReceiptValidator\l appReceiptIsValidForBundle\lID:andVersion:]">
<polygon fill="white" stroke="black" points="325.006,-47.5 325.006,-85.5 469.79,-85.5 469.79,-47.5 325.006,-47.5"/>
<text text-anchor="start" x="333.006" y="-73.5" font-family="Helvetica,sans-Serif" font-size="10.00">+[ReceiptValidator</text>
<text text-anchor="start" x="333.006" y="-63.5" font-family="Helvetica,sans-Serif" font-size="10.00"> appReceiptIsValidForBundle</text>
<text text-anchor="middle" x="397.398" y="-53.5" font-family="Helvetica,sans-Serif" font-size="10.00">ID:andVersion:]</text>
</a>
</g>
</g>
<!-- Node3&#45;&gt;Node4 -->
<g id="edge3" class="edge"><title>Node3&#45;&gt;Node4</title>
<path fill="none" stroke="midnightblue" d="M299.222,-66.5C307.823,-66.5 316.482,-66.5 324.899,-66.5"/>
<polygon fill="midnightblue" stroke="midnightblue" points="299.17,-63.0001 289.17,-66.5 299.17,-70.0001 299.17,-63.0001"/>
</g>
<!-- Node6 -->
<g id="node6" class="node"><title>Node6</title>
<g id="a_node6"><a xlink:href="namespace_m_k_1_1_crypto_kit.html#a203d82d45948bf0ce0371afa7c3c8aa1" target="_top" xlink:title="Returns given encrypted content decrypted. ">
<polygon fill="white" stroke="black" points="333.004,-0.5 333.004,-28.5 461.792,-28.5 461.792,-0.5 333.004,-0.5"/>
<text text-anchor="start" x="341.004" y="-16.5" font-family="Helvetica,sans-Serif" font-size="10.00">MK::CryptoKit::symmetric</text>
<text text-anchor="middle" x="397.398" y="-6.5" font-family="Helvetica,sans-Serif" font-size="10.00">Decrypt</text>
</a>
</g>
</g>
<!-- Node5&#45;&gt;Node6 -->
<g id="edge5" class="edge"><title>Node5&#45;&gt;Node6</title>
<path fill="none" stroke="midnightblue" d="M285.641,-14.5C301.265,-14.5 317.631,-14.5 332.844,-14.5"/>
<polygon fill="midnightblue" stroke="midnightblue" points="285.502,-11.0001 275.502,-14.5 285.502,-18.0001 285.502,-11.0001"/>
</g>
</g>
</svg>
