<?xml version="1.0" encoding="UTF-8" standalone="no"?>
<!DOCTYPE svg PUBLIC "-//W3C//DTD SVG 1.1//EN"
 "http://www.w3.org/Graphics/SVG/1.1/DTD/svg11.dtd">
<!-- Generated by graphviz version 2.38.0 (20140413.2041)
 -->
<!-- Title: MK::AdKit::_showTopBanner Pages: 1 -->
<svg width="516pt" height="92pt"
 viewBox="0.00 0.00 515.96 92.00" xmlns="http://www.w3.org/2000/svg" xmlns:xlink="http://www.w3.org/1999/xlink">
<g id="graph0" class="graph" transform="scale(1 1) rotate(0) translate(4 88)">
<title>MK::AdKit::_showTopBanner</title>
<polygon fill="white" stroke="none" points="-4,4 -4,-88 511.964,-88 511.964,4 -4,4"/>
<!-- Node1 -->
<g id="node1" class="node"><title>Node1</title>
<polygon fill="#bfbfbf" stroke="black" points="0,-21.5 0,-39.5 143.29,-39.5 143.29,-21.5 0,-21.5"/>
<text text-anchor="middle" x="71.645" y="-27.5" font-family="Helvetica,sans-Serif" font-size="10.00">MK::AdKit::_showTopBanner</text>
</g>
<!-- Node2 -->
<g id="node2" class="node"><title>Node2</title>
<g id="a_node2"><a xlink:href="interface_reward_video_delegate.html#a0bfa3f23795d0ad8cedcb3c7601b9305" target="_top" xlink:title="&#45;[RewardVideoDelegate\l requestNewRewardVideo]">
<polygon fill="white" stroke="black" points="180.767,-37.5 180.767,-65.5 315.542,-65.5 315.542,-37.5 180.767,-37.5"/>
<text text-anchor="start" x="188.767" y="-53.5" font-family="Helvetica,sans-Serif" font-size="10.00">&#45;[RewardVideoDelegate</text>
<text text-anchor="middle" x="248.154" y="-43.5" font-family="Helvetica,sans-Serif" font-size="10.00"> requestNewRewardVideo]</text>
</a>
</g>
</g>
<!-- Node1&#45;&gt;Node2 -->
<g id="edge1" class="edge"><title>Node1&#45;&gt;Node2</title>
<path fill="none" stroke="midnightblue" d="M153.529,-40.2334C162.578,-41.3223 171.718,-42.4222 180.558,-43.486"/>
<polygon fill="midnightblue" stroke="midnightblue" points="153.72,-36.7311 143.373,-39.0112 152.883,-43.681 153.72,-36.7311"/>
</g>
<!-- Node4 -->
<g id="node4" class="node"><title>Node4</title>
<g id="a_node4"><a xlink:href="namespace_m_k_1_1_ad_kit.html#a339aea64224b42fd0db628bb1ee87b94" target="_top" xlink:title="Shows a top banner ad. ">
<polygon fill="white" stroke="black" points="179.29,-0.5 179.29,-18.5 317.019,-18.5 317.019,-0.5 179.29,-0.5"/>
<text text-anchor="middle" x="248.154" y="-6.5" font-family="Helvetica,sans-Serif" font-size="10.00">MK::AdKit::showTopBanner</text>
</a>
</g>
</g>
<!-- Node1&#45;&gt;Node4 -->
<g id="edge4" class="edge"><title>Node1&#45;&gt;Node4</title>
<path fill="none" stroke="midnightblue" d="M153.417,-20.7801C162.023,-19.7445 170.714,-18.6986 179.152,-17.6832"/>
<polygon fill="midnightblue" stroke="midnightblue" points="152.883,-17.319 143.373,-21.9888 153.72,-24.2689 152.883,-17.319"/>
</g>
<!-- Node2&#45;&gt;Node2 -->
<g id="edge3" class="edge"><title>Node2&#45;&gt;Node2</title>
<path fill="none" stroke="midnightblue" d="M216.339,-75.4873C219.717,-80.4413 230.322,-84 248.154,-84 276.686,-84 286.716,-74.8898 278.246,-65.5305"/>
<polygon fill="midnightblue" stroke="midnightblue" points="219.805,-75.981 218.063,-65.5305 212.908,-74.7867 219.805,-75.981"/>
</g>
<!-- Node3 -->
<g id="node3" class="node"><title>Node3</title>
<g id="a_node3"><a xlink:href="interface_reward_video_delegate.html#a5d8713e80adf05ec03e68072d573ad06" target="_top" xlink:title="&#45;[RewardVideoDelegate\l initWithAdUnitID:andCallback:]">
<polygon fill="white" stroke="black" points="353.019,-37.5 353.019,-65.5 507.964,-65.5 507.964,-37.5 353.019,-37.5"/>
<text text-anchor="start" x="361.019" y="-53.5" font-family="Helvetica,sans-Serif" font-size="10.00">&#45;[RewardVideoDelegate</text>
<text text-anchor="middle" x="430.491" y="-43.5" font-family="Helvetica,sans-Serif" font-size="10.00"> initWithAdUnitID:andCallback:]</text>
</a>
</g>
</g>
<!-- Node2&#45;&gt;Node3 -->
<g id="edge2" class="edge"><title>Node2&#45;&gt;Node3</title>
<path fill="none" stroke="midnightblue" d="M326.073,-51.5C334.917,-51.5 343.934,-51.5 352.775,-51.5"/>
<polygon fill="midnightblue" stroke="midnightblue" points="325.793,-48.0001 315.793,-51.5 325.793,-55.0001 325.793,-48.0001"/>
</g>
</g>
</svg>
