<?xml version="1.0" encoding="UTF-8" standalone="no"?>
<!DOCTYPE svg PUBLIC "-//W3C//DTD SVG 1.1//EN"
 "http://www.w3.org/Graphics/SVG/1.1/DTD/svg11.dtd">
<!-- Generated by graphviz version 2.38.0 (20140413.2041)
 -->
<!-- Title: MK::IAPKit::unlockProduct Pages: 1 -->
<svg width="334pt" height="47pt"
 viewBox="0.00 0.00 334.45 47.00" xmlns="http://www.w3.org/2000/svg" xmlns:xlink="http://www.w3.org/1999/xlink">
<g id="graph0" class="graph" transform="scale(1 1) rotate(0) translate(4 43)">
<title>MK::IAPKit::unlockProduct</title>
<polygon fill="white" stroke="none" points="-4,4 -4,-43 330.452,-43 330.452,4 -4,4"/>
<!-- Node1 -->
<g id="node1" class="node"><title>Node1</title>
<polygon fill="#bfbfbf" stroke="black" points="0,-10.5 0,-28.5 133.271,-28.5 133.271,-10.5 0,-10.5"/>
<text text-anchor="middle" x="66.6353" y="-16.5" font-family="Helvetica,sans-Serif" font-size="10.00">MK::IAPKit::unlockProduct</text>
</g>
<!-- Node2 -->
<g id="node2" class="node"><title>Node2</title>
<g id="a_node2"><a xlink:href="___i_a_p_kit_8cpp.html#a7f86d0f13644c98e90ec2118aa3ddf56" target="_top" xlink:title="Java_org_cocos2dx_cpp\l_AppActivity_callCppPurchases\lCallback">
<polygon fill="white" stroke="black" points="169.271,-0.5 169.271,-38.5 326.452,-38.5 326.452,-0.5 169.271,-0.5"/>
<text text-anchor="start" x="177.271" y="-26.5" font-family="Helvetica,sans-Serif" font-size="10.00">Java_org_cocos2dx_cpp</text>
<text text-anchor="start" x="177.271" y="-16.5" font-family="Helvetica,sans-Serif" font-size="10.00">_AppActivity_callCppPurchases</text>
<text text-anchor="middle" x="247.861" y="-6.5" font-family="Helvetica,sans-Serif" font-size="10.00">Callback</text>
</a>
</g>
</g>
<!-- Node1&#45;&gt;Node2 -->
<g id="edge1" class="edge"><title>Node1&#45;&gt;Node2</title>
<path fill="none" stroke="midnightblue" d="M143.528,-19.5C151.953,-19.5 160.543,-19.5 168.991,-19.5"/>
<polygon fill="midnightblue" stroke="midnightblue" points="143.355,-16.0001 133.355,-19.5 143.355,-23.0001 143.355,-16.0001"/>
</g>
</g>
</svg>
