<?xml version="1.0" encoding="UTF-8" standalone="no"?>
<!DOCTYPE svg PUBLIC "-//W3C//DTD SVG 1.1//EN"
 "http://www.w3.org/Graphics/SVG/1.1/DTD/svg11.dtd">
<!-- Generated by graphviz version 2.38.0 (20140413.2041)
 -->
<!-- Title: MK::GameKit::_signInPlayer Pages: 1 -->
<svg width="449pt" height="27pt"
 viewBox="0.00 0.00 449.24 27.00" xmlns="http://www.w3.org/2000/svg" xmlns:xlink="http://www.w3.org/1999/xlink">
<g id="graph0" class="graph" transform="scale(1 1) rotate(0) translate(4 23)">
<title>MK::GameKit::_signInPlayer</title>
<polygon fill="white" stroke="none" points="-4,4 -4,-23 445.24,-23 445.24,4 -4,4"/>
<!-- Node1 -->
<g id="node1" class="node"><title>Node1</title>
<polygon fill="#bfbfbf" stroke="black" points="0,-0.5 0,-18.5 141.605,-18.5 141.605,-0.5 0,-0.5"/>
<text text-anchor="middle" x="70.8027" y="-6.5" font-family="Helvetica,sans-Serif" font-size="10.00">MK::GameKit::_signInPlayer</text>
</g>
<!-- Node2 -->
<g id="node2" class="node"><title>Node2</title>
<g id="a_node2"><a xlink:href="namespace_m_k_1_1_log.html#aaad0a85a2c31c679940f009469a1cabc" target="_top" xlink:title="Logs a non critical message that will appear also in release builds and will also be logged to Fabric...">
<polygon fill="white" stroke="black" points="177.605,-0.5 177.605,-18.5 310.319,-18.5 310.319,-0.5 177.605,-0.5"/>
<text text-anchor="middle" x="243.962" y="-6.5" font-family="Helvetica,sans-Serif" font-size="10.00">MK::Log::nonCriticalCrash</text>
</a>
</g>
</g>
<!-- Node1&#45;&gt;Node2 -->
<g id="edge1" class="edge"><title>Node1&#45;&gt;Node2</title>
<path fill="none" stroke="midnightblue" d="M141.914,-9.5C150.249,-9.5 158.787,-9.5 167.197,-9.5"/>
<polygon fill="midnightblue" stroke="midnightblue" points="167.37,-13.0001 177.37,-9.5 167.37,-6.0001 167.37,-13.0001"/>
</g>
<!-- Node3 -->
<g id="node3" class="node"><title>Node3</title>
<g id="a_node3"><a xlink:href="namespace_m_k_1_1_log.html#a6d2108eb7cc881d7303292faba6cec84" target="_top" xlink:title="Logs message with given format and additional data to Fabric&#39;s Crashlytics service. ">
<polygon fill="white" stroke="black" points="346.319,-0.5 346.319,-18.5 441.24,-18.5 441.24,-0.5 346.319,-0.5"/>
<text text-anchor="middle" x="393.78" y="-6.5" font-family="Helvetica,sans-Serif" font-size="10.00">MK::Log::toFabric</text>
</a>
</g>
</g>
<!-- Node2&#45;&gt;Node3 -->
<g id="edge2" class="edge"><title>Node2&#45;&gt;Node3</title>
<path fill="none" stroke="midnightblue" d="M310.658,-9.5C319.007,-9.5 327.498,-9.5 335.697,-9.5"/>
<polygon fill="midnightblue" stroke="midnightblue" points="335.894,-13.0001 345.894,-9.5 335.894,-6.0001 335.894,-13.0001"/>
</g>
</g>
</svg>
