<?xml version="1.0" encoding="UTF-8" standalone="no"?>
<!DOCTYPE svg PUBLIC "-//W3C//DTD SVG 1.1//EN"
 "http://www.w3.org/Graphics/SVG/1.1/DTD/svg11.dtd">
<!-- Generated by graphviz version 2.38.0 (20140413.2041)
 -->
<!-- Title: MK::AdKit::_init Pages: 1 -->
<svg width="454pt" height="92pt"
 viewBox="0.00 0.00 454.08 92.00" xmlns="http://www.w3.org/2000/svg" xmlns:xlink="http://www.w3.org/1999/xlink">
<g id="graph0" class="graph" transform="scale(1 1) rotate(0) translate(4 88)">
<title>MK::AdKit::_init</title>
<polygon fill="white" stroke="none" points="-4,4 -4,-88 450.079,-88 450.079,4 -4,4"/>
<!-- Node1 -->
<g id="node1" class="node"><title>Node1</title>
<polygon fill="#bfbfbf" stroke="black" points="0,-35.5 0,-53.5 84.3594,-53.5 84.3594,-35.5 0,-35.5"/>
<text text-anchor="middle" x="42.1797" y="-41.5" font-family="Helvetica,sans-Serif" font-size="10.00">MK::AdKit::_init</text>
</g>
<!-- Node2 -->
<g id="node2" class="node"><title>Node2</title>
<g id="a_node2"><a xlink:href="namespace_m_k_1_1_ad_kit.html#aab6fed949fb7e7a9052144367597b9cd" target="_top" xlink:title="Performs any initialization required by the ads adapter. ">
<polygon fill="white" stroke="black" points="148.348,-65.5 148.348,-83.5 227.146,-83.5 227.146,-65.5 148.348,-65.5"/>
<text text-anchor="middle" x="187.747" y="-71.5" font-family="Helvetica,sans-Serif" font-size="10.00">MK::AdKit::init</text>
</a>
</g>
</g>
<!-- Node1&#45;&gt;Node2 -->
<g id="edge1" class="edge"><title>Node1&#45;&gt;Node2</title>
<path fill="none" stroke="midnightblue" d="M94.8443,-55.2959C112.471,-58.9792 131.858,-63.0305 148.264,-66.4587"/>
<polygon fill="midnightblue" stroke="midnightblue" points="95.2097,-51.7968 84.7052,-53.1772 93.7778,-58.6488 95.2097,-51.7968"/>
</g>
<!-- Node3 -->
<g id="node3" class="node"><title>Node3</title>
<g id="a_node3"><a xlink:href="interface_reward_video_delegate.html#a0bfa3f23795d0ad8cedcb3c7601b9305" target="_top" xlink:title="&#45;[RewardVideoDelegate\l requestNewRewardVideo]">
<polygon fill="white" stroke="black" points="120.359,-0.5 120.359,-28.5 255.134,-28.5 255.134,-0.5 120.359,-0.5"/>
<text text-anchor="start" x="128.359" y="-16.5" font-family="Helvetica,sans-Serif" font-size="10.00">&#45;[RewardVideoDelegate</text>
<text text-anchor="middle" x="187.747" y="-6.5" font-family="Helvetica,sans-Serif" font-size="10.00"> requestNewRewardVideo]</text>
</a>
</g>
</g>
<!-- Node1&#45;&gt;Node3 -->
<g id="edge2" class="edge"><title>Node1&#45;&gt;Node3</title>
<path fill="none" stroke="midnightblue" d="M94.5911,-33.757C102.884,-32.0241 111.572,-30.2086 120.161,-28.4139"/>
<polygon fill="midnightblue" stroke="midnightblue" points="93.7778,-30.3512 84.7052,-35.8228 95.2097,-37.2032 93.7778,-30.3512"/>
</g>
<!-- Node3&#45;&gt;Node3 -->
<g id="edge4" class="edge"><title>Node3&#45;&gt;Node3</title>
<path fill="none" stroke="midnightblue" d="M161.716,-38.4873C164.48,-43.4413 173.157,-47 187.747,-47 211.09,-47 219.297,-37.8898 212.367,-28.5305"/>
<polygon fill="midnightblue" stroke="midnightblue" points="165.189,-38.9226 163.126,-28.5305 158.258,-37.9407 165.189,-38.9226"/>
</g>
<!-- Node4 -->
<g id="node4" class="node"><title>Node4</title>
<g id="a_node4"><a xlink:href="interface_reward_video_delegate.html#a5d8713e80adf05ec03e68072d573ad06" target="_top" xlink:title="&#45;[RewardVideoDelegate\l initWithAdUnitID:andCallback:]">
<polygon fill="white" stroke="black" points="291.134,-0.5 291.134,-28.5 446.079,-28.5 446.079,-0.5 291.134,-0.5"/>
<text text-anchor="start" x="299.134" y="-16.5" font-family="Helvetica,sans-Serif" font-size="10.00">&#45;[RewardVideoDelegate</text>
<text text-anchor="middle" x="368.606" y="-6.5" font-family="Helvetica,sans-Serif" font-size="10.00"> initWithAdUnitID:andCallback:]</text>
</a>
</g>
</g>
<!-- Node3&#45;&gt;Node4 -->
<g id="edge3" class="edge"><title>Node3&#45;&gt;Node4</title>
<path fill="none" stroke="midnightblue" d="M265.542,-14.5C273.979,-14.5 282.569,-14.5 291.004,-14.5"/>
<polygon fill="midnightblue" stroke="midnightblue" points="265.347,-11.0001 255.347,-14.5 265.347,-18.0001 265.347,-11.0001"/>
</g>
</g>
</svg>
