<?xml version="1.0" encoding="UTF-8" standalone="no"?>
<!DOCTYPE svg PUBLIC "-//W3C//DTD SVG 1.1//EN"
 "http://www.w3.org/Graphics/SVG/1.1/DTD/svg11.dtd">
<!-- Generated by graphviz version 2.38.0 (20140413.2041)
 -->
<!-- Title: MK::Analytics::logEvent Pages: 1 -->
<svg width="669pt" height="55pt"
 viewBox="0.00 0.00 669.49 55.00" xmlns="http://www.w3.org/2000/svg" xmlns:xlink="http://www.w3.org/1999/xlink">
<g id="graph0" class="graph" transform="scale(1 1) rotate(0) translate(4 51)">
<title>MK::Analytics::logEvent</title>
<polygon fill="white" stroke="none" points="-4,4 -4,-51 665.487,-51 665.487,4 -4,4"/>
<!-- Node1 -->
<g id="node1" class="node"><title>Node1</title>
<polygon fill="#bfbfbf" stroke="black" points="0,-5.5 0,-23.5 121.044,-23.5 121.044,-5.5 0,-5.5"/>
<text text-anchor="middle" x="60.522" y="-11.5" font-family="Helvetica,sans-Serif" font-size="10.00">MK::Analytics::logEvent</text>
</g>
<!-- Node2 -->
<g id="node2" class="node"><title>Node2</title>
<g id="a_node2"><a xlink:href="namespace_m_k_1_1_analytics.html#a45074f520084ef7dadcf189155705026" target="_top" xlink:title="Logs that app tried to display a video reward ad that was not ready yet. ">
<polygon fill="white" stroke="black" points="157.044,-0.5 157.044,-28.5 299.768,-28.5 299.768,-0.5 157.044,-0.5"/>
<text text-anchor="start" x="165.044" y="-16.5" font-family="Helvetica,sans-Serif" font-size="10.00">MK::Analytics::logNonReady</text>
<text text-anchor="middle" x="228.406" y="-6.5" font-family="Helvetica,sans-Serif" font-size="10.00">VideoRewardDisplay</text>
</a>
</g>
</g>
<!-- Node1&#45;&gt;Node2 -->
<g id="edge1" class="edge"><title>Node1&#45;&gt;Node2</title>
<path fill="none" stroke="midnightblue" d="M131.527,-14.5C139.913,-14.5 148.481,-14.5 156.876,-14.5"/>
<polygon fill="midnightblue" stroke="midnightblue" points="131.41,-11.0001 121.41,-14.5 131.41,-18.0001 131.41,-11.0001"/>
</g>
<!-- Node3 -->
<g id="node3" class="node"><title>Node3</title>
<g id="a_node3"><a xlink:href="interface_reward_video_delegate.html#a0bfa3f23795d0ad8cedcb3c7601b9305" target="_top" xlink:title="&#45;[RewardVideoDelegate\l requestNewRewardVideo]">
<polygon fill="white" stroke="black" points="335.768,-0.5 335.768,-28.5 470.542,-28.5 470.542,-0.5 335.768,-0.5"/>
<text text-anchor="start" x="343.768" y="-16.5" font-family="Helvetica,sans-Serif" font-size="10.00">&#45;[RewardVideoDelegate</text>
<text text-anchor="middle" x="403.155" y="-6.5" font-family="Helvetica,sans-Serif" font-size="10.00"> requestNewRewardVideo]</text>
</a>
</g>
</g>
<!-- Node2&#45;&gt;Node3 -->
<g id="edge2" class="edge"><title>Node2&#45;&gt;Node3</title>
<path fill="none" stroke="midnightblue" d="M310.427,-14.5C318.883,-14.5 327.408,-14.5 335.676,-14.5"/>
<polygon fill="midnightblue" stroke="midnightblue" points="310.168,-11.0001 300.168,-14.5 310.168,-18.0001 310.168,-11.0001"/>
</g>
<!-- Node3&#45;&gt;Node3 -->
<g id="edge4" class="edge"><title>Node3&#45;&gt;Node3</title>
<path fill="none" stroke="midnightblue" d="M371.701,-38.4873C375.041,-43.4413 385.525,-47 403.155,-47 431.362,-47 441.278,-37.8898 432.904,-28.5305"/>
<polygon fill="midnightblue" stroke="midnightblue" points="375.168,-38.9777 373.405,-28.5305 368.268,-37.7965 375.168,-38.9777"/>
</g>
<!-- Node4 -->
<g id="node4" class="node"><title>Node4</title>
<g id="a_node4"><a xlink:href="interface_reward_video_delegate.html#a5d8713e80adf05ec03e68072d573ad06" target="_top" xlink:title="&#45;[RewardVideoDelegate\l initWithAdUnitID:andCallback:]">
<polygon fill="white" stroke="black" points="506.542,-0.5 506.542,-28.5 661.487,-28.5 661.487,-0.5 506.542,-0.5"/>
<text text-anchor="start" x="514.542" y="-16.5" font-family="Helvetica,sans-Serif" font-size="10.00">&#45;[RewardVideoDelegate</text>
<text text-anchor="middle" x="584.015" y="-6.5" font-family="Helvetica,sans-Serif" font-size="10.00"> initWithAdUnitID:andCallback:]</text>
</a>
</g>
</g>
<!-- Node3&#45;&gt;Node4 -->
<g id="edge3" class="edge"><title>Node3&#45;&gt;Node4</title>
<path fill="none" stroke="midnightblue" d="M480.95,-14.5C489.387,-14.5 497.977,-14.5 506.412,-14.5"/>
<polygon fill="midnightblue" stroke="midnightblue" points="480.756,-11.0001 470.756,-14.5 480.756,-18.0001 480.756,-11.0001"/>
</g>
</g>
</svg>
