<?xml version="1.0" encoding="UTF-8" standalone="no"?>
<!DOCTYPE svg PUBLIC "-//W3C//DTD SVG 1.1//EN"
 "http://www.w3.org/Graphics/SVG/1.1/DTD/svg11.dtd">
<!-- Generated by graphviz version 2.38.0 (20140413.2041)
 -->
<!-- Title: MK::GameKit::Java_org_cocos2dx_cpp_AppActivity_callCppAchievementCallback Pages: 1 -->
<svg width="282pt" height="47pt"
 viewBox="0.00 0.00 281.67 47.00" xmlns="http://www.w3.org/2000/svg" xmlns:xlink="http://www.w3.org/1999/xlink">
<g id="graph0" class="graph" transform="scale(1 1) rotate(0) translate(4 43)">
<title>MK::GameKit::Java_org_cocos2dx_cpp_AppActivity_callCppAchievementCallback</title>
<polygon fill="white" stroke="none" points="-4,4 -4,-43 277.674,-43 277.674,4 -4,4"/>
<!-- Node1 -->
<g id="node1" class="node"><title>Node1</title>
<polygon fill="#bfbfbf" stroke="black" points="0,-0.5 0,-38.5 151.068,-38.5 151.068,-0.5 0,-0.5"/>
<text text-anchor="start" x="8" y="-26.5" font-family="Helvetica,sans-Serif" font-size="10.00">MK::GameKit::Java_org</text>
<text text-anchor="start" x="8" y="-16.5" font-family="Helvetica,sans-Serif" font-size="10.00">_cocos2dx_cpp_AppActivity</text>
<text text-anchor="middle" x="75.5342" y="-6.5" font-family="Helvetica,sans-Serif" font-size="10.00">_callCppAchievementCallback</text>
</g>
<!-- Node2 -->
<g id="node2" class="node"><title>Node2</title>
<g id="a_node2"><a xlink:href="namespace_m_k_1_1_log.html#a3e84a309c158873fecff57e1db770c9a" target="_top" xlink:title="Logs a debug message that will not appear also in release builds. ">
<polygon fill="white" stroke="black" points="187.068,-10.5 187.068,-28.5 273.674,-28.5 273.674,-10.5 187.068,-10.5"/>
<text text-anchor="middle" x="230.371" y="-16.5" font-family="Helvetica,sans-Serif" font-size="10.00">MK::Log::debug</text>
</a>
</g>
</g>
<!-- Node1&#45;&gt;Node2 -->
<g id="edge1" class="edge"><title>Node1&#45;&gt;Node2</title>
<path fill="none" stroke="midnightblue" d="M151.162,-19.5C159.793,-19.5 168.455,-19.5 176.706,-19.5"/>
<polygon fill="midnightblue" stroke="midnightblue" points="176.905,-23.0001 186.905,-19.5 176.905,-16.0001 176.905,-23.0001"/>
</g>
</g>
</svg>
