<?xml version="1.0" encoding="UTF-8" standalone="no"?>
<!DOCTYPE svg PUBLIC "-//W3C//DTD SVG 1.1//EN"
 "http://www.w3.org/Graphics/SVG/1.1/DTD/svg11.dtd">
<!-- Generated by graphviz version 2.38.0 (20140413.2041)
 -->
<!-- Title: MK::Device::isOSX Pages: 1 -->
<svg width="883pt" height="271pt"
 viewBox="0.00 0.00 882.85 271.00" xmlns="http://www.w3.org/2000/svg" xmlns:xlink="http://www.w3.org/1999/xlink">
<g id="graph0" class="graph" transform="scale(1 1) rotate(0) translate(4 267)">
<title>MK::Device::isOSX</title>
<polygon fill="white" stroke="none" points="-4,4 -4,-267 878.85,-267 878.85,4 -4,4"/>
<!-- Node1 -->
<g id="node1" class="node"><title>Node1</title>
<polygon fill="#bfbfbf" stroke="black" points="0,-140.5 0,-158.5 101.02,-158.5 101.02,-140.5 0,-140.5"/>
<text text-anchor="middle" x="50.5098" y="-146.5" font-family="Helvetica,sans-Serif" font-size="10.00">MK::Device::isOSX</text>
</g>
<!-- Node2 -->
<g id="node2" class="node"><title>Node2</title>
<g id="a_node2"><a xlink:href="interface_receipt_validator.html#a820c68148ab2fedccc43588f8d79dea6" target="_top" xlink:title="+[ReceiptValidator\l appReceiptIsValidForBundle\lID:andVersion:]">
<polygon fill="white" stroke="black" points="341.402,-224.5 341.402,-262.5 486.187,-262.5 486.187,-224.5 341.402,-224.5"/>
<text text-anchor="start" x="349.402" y="-250.5" font-family="Helvetica,sans-Serif" font-size="10.00">+[ReceiptValidator</text>
<text text-anchor="start" x="349.402" y="-240.5" font-family="Helvetica,sans-Serif" font-size="10.00"> appReceiptIsValidForBundle</text>
<text text-anchor="middle" x="413.794" y="-230.5" font-family="Helvetica,sans-Serif" font-size="10.00">ID:andVersion:]</text>
</a>
</g>
</g>
<!-- Node1&#45;&gt;Node2 -->
<g id="edge1" class="edge"><title>Node1&#45;&gt;Node2</title>
<path fill="none" stroke="midnightblue" d="M71.1983,-164.968C87.7934,-177.172 112.666,-193.577 137.02,-202.5 203.602,-226.897 284.292,-236.798 341.138,-240.804"/>
<polygon fill="midnightblue" stroke="midnightblue" points="72.9766,-161.925 62.8864,-158.694 68.7595,-167.512 72.9766,-161.925"/>
</g>
<!-- Node3 -->
<g id="node3" class="node"><title>Node3</title>
<g id="a_node3"><a xlink:href="namespace_m_k_1_1_ad_kit.html#a1abd645a384f31dc1421e82772cfb472" target="_top" xlink:title="Returns whether ads are enabled for this user or not. ">
<polygon fill="white" stroke="black" points="164.158,-115.5 164.158,-133.5 265.764,-133.5 265.764,-115.5 164.158,-115.5"/>
<text text-anchor="middle" x="214.961" y="-121.5" font-family="Helvetica,sans-Serif" font-size="10.00">MK::AdKit::enabled</text>
</a>
</g>
</g>
<!-- Node1&#45;&gt;Node3 -->
<g id="edge2" class="edge"><title>Node1&#45;&gt;Node3</title>
<path fill="none" stroke="midnightblue" d="M111.178,-140.317C128.563,-137.642 147.368,-134.748 164.082,-132.176"/>
<polygon fill="midnightblue" stroke="midnightblue" points="110.484,-136.883 101.133,-141.863 111.549,-143.802 110.484,-136.883"/>
</g>
<!-- Node12 -->
<g id="node12" class="node"><title>Node12</title>
<g id="a_node12"><a xlink:href="interface_receipt_validator.html#ab2df585c981dfc992ad4fe8fa09de347" target="_top" xlink:title="+[ReceiptValidator\l receiptAtURL:isValidForBundle\lID:andVersion:]">
<polygon fill="white" stroke="black" points="137.02,-155.5 137.02,-193.5 292.902,-193.5 292.902,-155.5 137.02,-155.5"/>
<text text-anchor="start" x="145.02" y="-181.5" font-family="Helvetica,sans-Serif" font-size="10.00">+[ReceiptValidator</text>
<text text-anchor="start" x="145.02" y="-171.5" font-family="Helvetica,sans-Serif" font-size="10.00"> receiptAtURL:isValidForBundle</text>
<text text-anchor="middle" x="214.961" y="-161.5" font-family="Helvetica,sans-Serif" font-size="10.00">ID:andVersion:]</text>
</a>
</g>
</g>
<!-- Node1&#45;&gt;Node12 -->
<g id="edge13" class="edge"><title>Node1&#45;&gt;Node12</title>
<path fill="none" stroke="midnightblue" d="M111.14,-158.677C119.499,-159.963 128.186,-161.3 136.813,-162.627"/>
<polygon fill="midnightblue" stroke="midnightblue" points="111.549,-155.198 101.133,-157.137 110.484,-162.117 111.549,-155.198"/>
</g>
<!-- Node13 -->
<g id="node13" class="node"><title>Node13</title>
<g id="a_node13"><a xlink:href="interface_receipt_validator.html#ad0d049250b9d647db64a8eba79683c68" target="_top" xlink:title="+[ReceiptValidator\l validateAppReceiptForBundle\lID:andVersion:]">
<polygon fill="white" stroke="black" points="139.419,-58.5 139.419,-96.5 290.502,-96.5 290.502,-58.5 139.419,-58.5"/>
<text text-anchor="start" x="147.419" y="-84.5" font-family="Helvetica,sans-Serif" font-size="10.00">+[ReceiptValidator</text>
<text text-anchor="start" x="147.419" y="-74.5" font-family="Helvetica,sans-Serif" font-size="10.00"> validateAppReceiptForBundle</text>
<text text-anchor="middle" x="214.961" y="-64.5" font-family="Helvetica,sans-Serif" font-size="10.00">ID:andVersion:]</text>
</a>
</g>
</g>
<!-- Node1&#45;&gt;Node13 -->
<g id="edge15" class="edge"><title>Node1&#45;&gt;Node13</title>
<path fill="none" stroke="midnightblue" d="M76.7625,-135.439C93.576,-126.344 116.303,-114.556 137.02,-105.5 144.053,-102.425 151.543,-99.4019 158.983,-96.545"/>
<polygon fill="midnightblue" stroke="midnightblue" points="74.7036,-132.575 67.6063,-140.441 78.06,-138.718 74.7036,-132.575"/>
</g>
<!-- Node4 -->
<g id="node4" class="node"><title>Node4</title>
<g id="a_node4"><a xlink:href="namespace_m_k_1_1_ad_kit.html#aab6fed949fb7e7a9052144367597b9cd" target="_top" xlink:title="Performs any initialization required by the ads adapter. ">
<polygon fill="white" stroke="black" points="374.396,-187.5 374.396,-205.5 453.193,-205.5 453.193,-187.5 374.396,-187.5"/>
<text text-anchor="middle" x="413.794" y="-193.5" font-family="Helvetica,sans-Serif" font-size="10.00">MK::AdKit::init</text>
</a>
</g>
</g>
<!-- Node3&#45;&gt;Node4 -->
<g id="edge3" class="edge"><title>Node3&#45;&gt;Node4</title>
<path fill="none" stroke="midnightblue" d="M269.776,-136.382C277.713,-138.932 285.651,-141.953 292.902,-145.5 310.868,-154.289 310.991,-163.602 328.902,-172.5 343.012,-179.509 359.503,-184.785 374.112,-188.578"/>
<polygon fill="midnightblue" stroke="midnightblue" points="270.725,-133.013 260.142,-133.502 268.72,-139.72 270.725,-133.013"/>
</g>
<!-- Node5 -->
<g id="node5" class="node"><title>Node5</title>
<g id="a_node5"><a xlink:href="interface_reward_video_delegate.html#a0bfa3f23795d0ad8cedcb3c7601b9305" target="_top" xlink:title="&#45;[RewardVideoDelegate\l requestNewRewardVideo]">
<polygon fill="white" stroke="black" points="541.908,-90.5 541.908,-118.5 676.683,-118.5 676.683,-90.5 541.908,-90.5"/>
<text text-anchor="start" x="549.908" y="-106.5" font-family="Helvetica,sans-Serif" font-size="10.00">&#45;[RewardVideoDelegate</text>
<text text-anchor="middle" x="609.295" y="-96.5" font-family="Helvetica,sans-Serif" font-size="10.00"> requestNewRewardVideo]</text>
</a>
</g>
</g>
<!-- Node3&#45;&gt;Node5 -->
<g id="edge4" class="edge"><title>Node3&#45;&gt;Node5</title>
<path fill="none" stroke="midnightblue" d="M275.802,-134.338C333.268,-142.168 422.367,-150.065 498.687,-138.5 523.901,-134.679 551.303,-126.179 572.402,-118.634"/>
<polygon fill="midnightblue" stroke="midnightblue" points="276.193,-130.858 265.803,-132.932 275.218,-137.79 276.193,-130.858"/>
</g>
<!-- Node7 -->
<g id="node7" class="node"><title>Node7</title>
<g id="a_node7"><a xlink:href="namespace_m_k_1_1_ad_kit.html#add9f76341cdf101a96a3871fa154a2c9" target="_top" xlink:title="Shows a bottom banner ad. ">
<polygon fill="white" stroke="black" points="337.152,-111.5 337.152,-129.5 490.437,-129.5 490.437,-111.5 337.152,-111.5"/>
<text text-anchor="middle" x="413.794" y="-117.5" font-family="Helvetica,sans-Serif" font-size="10.00">MK::AdKit::showBottomBanner</text>
</a>
</g>
</g>
<!-- Node3&#45;&gt;Node7 -->
<g id="edge7" class="edge"><title>Node3&#45;&gt;Node7</title>
<path fill="none" stroke="midnightblue" d="M275.989,-123.28C295.184,-122.89 316.689,-122.453 336.862,-122.043"/>
<polygon fill="midnightblue" stroke="midnightblue" points="275.812,-119.783 265.885,-123.485 275.954,-126.781 275.812,-119.783"/>
</g>
<!-- Node8 -->
<g id="node8" class="node"><title>Node8</title>
<g id="a_node8"><a xlink:href="namespace_m_k_1_1_ad_kit.html#a413ead0cc048a5cb2becc3a6e50ad59b" target="_top" xlink:title="Shows an interstitial ad. ">
<polygon fill="white" stroke="black" points="347.718,-74.5 347.718,-92.5 479.871,-92.5 479.871,-74.5 347.718,-74.5"/>
<text text-anchor="middle" x="413.794" y="-80.5" font-family="Helvetica,sans-Serif" font-size="10.00">MK::AdKit::showInterstitial</text>
</a>
</g>
</g>
<!-- Node3&#45;&gt;Node8 -->
<g id="edge8" class="edge"><title>Node3&#45;&gt;Node8</title>
<path fill="none" stroke="midnightblue" d="M269.551,-113.337C300.969,-106.793 340.137,-98.6343 369.572,-92.5032"/>
<polygon fill="midnightblue" stroke="midnightblue" points="268.721,-109.935 259.645,-115.401 270.148,-116.788 268.721,-109.935"/>
</g>
<!-- Node9 -->
<g id="node9" class="node"><title>Node9</title>
<g id="a_node9"><a xlink:href="namespace_m_k_1_1_ad_kit.html#a339aea64224b42fd0db628bb1ee87b94" target="_top" xlink:title="Shows a top banner ad. ">
<polygon fill="white" stroke="black" points="344.93,-37.5 344.93,-55.5 482.659,-55.5 482.659,-37.5 344.93,-37.5"/>
<text text-anchor="middle" x="413.794" y="-43.5" font-family="Helvetica,sans-Serif" font-size="10.00">MK::AdKit::showTopBanner</text>
</a>
</g>
</g>
<!-- Node3&#45;&gt;Node9 -->
<g id="edge9" class="edge"><title>Node3&#45;&gt;Node9</title>
<path fill="none" stroke="midnightblue" d="M275.711,-113.651C281.731,-111.422 287.578,-108.736 292.902,-105.5 313.624,-92.9042 307.989,-76.7758 328.902,-64.5 335.197,-60.805 342.156,-57.8651 349.293,-55.5265"/>
<polygon fill="midnightblue" stroke="midnightblue" points="274.567,-110.342 266.16,-116.791 276.753,-116.992 274.567,-110.342"/>
</g>
<!-- Node10 -->
<g id="node10" class="node"><title>Node10</title>
<g id="a_node10"><a xlink:href="namespace_m_k_1_1_ad_kit.html#a6bca88e69dd5dc1616d521b88eb953cc" target="_top" xlink:title="Returns whether this user has video rewards available or not. ">
<polygon fill="white" stroke="black" points="328.902,-0.5 328.902,-18.5 498.687,-18.5 498.687,-0.5 328.902,-0.5"/>
<text text-anchor="middle" x="413.794" y="-6.5" font-family="Helvetica,sans-Serif" font-size="10.00">MK::AdKit::videoRewardsAvailable</text>
</a>
</g>
</g>
<!-- Node3&#45;&gt;Node10 -->
<g id="edge10" class="edge"><title>Node3&#45;&gt;Node10</title>
<path fill="none" stroke="midnightblue" d="M275.31,-115.749C281.665,-113.145 287.699,-109.797 292.902,-105.5 322.343,-81.1893 299.091,-51.3553 328.902,-27.5 333.438,-23.8703 338.539,-20.9287 343.928,-18.5499"/>
<polygon fill="midnightblue" stroke="midnightblue" points="274.117,-112.459 265.828,-119.058 276.423,-119.068 274.117,-112.459"/>
</g>
<!-- Node5&#45;&gt;Node5 -->
<g id="edge6" class="edge"><title>Node5&#45;&gt;Node5</title>
<path fill="none" stroke="midnightblue" d="M575.311,-128.487C578.919,-133.441 590.248,-137 609.295,-137 639.772,-137 650.486,-127.89 641.439,-118.53"/>
<polygon fill="midnightblue" stroke="midnightblue" points="578.775,-129 577.152,-118.53 571.892,-127.727 578.775,-129"/>
</g>
<!-- Node6 -->
<g id="node6" class="node"><title>Node6</title>
<g id="a_node6"><a xlink:href="interface_reward_video_delegate.html#a5d8713e80adf05ec03e68072d573ad06" target="_top" xlink:title="&#45;[RewardVideoDelegate\l initWithAdUnitID:andCallback:]">
<polygon fill="white" stroke="black" points="719.904,-90.5 719.904,-118.5 874.85,-118.5 874.85,-90.5 719.904,-90.5"/>
<text text-anchor="start" x="727.904" y="-106.5" font-family="Helvetica,sans-Serif" font-size="10.00">&#45;[RewardVideoDelegate</text>
<text text-anchor="middle" x="797.377" y="-96.5" font-family="Helvetica,sans-Serif" font-size="10.00"> initWithAdUnitID:andCallback:]</text>
</a>
</g>
</g>
<!-- Node5&#45;&gt;Node6 -->
<g id="edge5" class="edge"><title>Node5&#45;&gt;Node6</title>
<path fill="none" stroke="midnightblue" d="M686.983,-104.5C697.841,-104.5 709.006,-104.5 719.861,-104.5"/>
<polygon fill="midnightblue" stroke="midnightblue" points="686.687,-101 676.687,-104.5 686.687,-108 686.687,-101"/>
</g>
<!-- Node10&#45;&gt;Node5 -->
<g id="edge11" class="edge"><title>Node10&#45;&gt;Node5</title>
<path fill="none" stroke="midnightblue" d="M481.929,-21.3501C487.692,-23.1313 493.352,-25.1696 498.687,-27.5 535.341,-43.5131 572.22,-72.7676 592.476,-90.2418"/>
<polygon fill="midnightblue" stroke="midnightblue" points="482.748,-17.9446 472.173,-18.5892 480.842,-24.6801 482.748,-17.9446"/>
</g>
<!-- Node11 -->
<g id="node11" class="node"><title>Node11</title>
<g id="a_node11"><a xlink:href="namespace_m_k_1_1_ad_kit.html#acafca58cb7a9d2d72bb1990586e506af" target="_top" xlink:title="Shows video reward ad. ">
<polygon fill="white" stroke="black" points="534.687,-0.5 534.687,-18.5 683.904,-18.5 683.904,-0.5 534.687,-0.5"/>
<text text-anchor="middle" x="609.295" y="-6.5" font-family="Helvetica,sans-Serif" font-size="10.00">MK::AdKit::showVideoReward</text>
</a>
</g>
</g>
<!-- Node10&#45;&gt;Node11 -->
<g id="edge12" class="edge"><title>Node10&#45;&gt;Node11</title>
<path fill="none" stroke="midnightblue" d="M508.937,-9.5C517.578,-9.5 526.247,-9.5 534.667,-9.5"/>
<polygon fill="midnightblue" stroke="midnightblue" points="508.823,-6.0001 498.823,-9.5 508.823,-13.0001 508.823,-6.0001"/>
</g>
<!-- Node12&#45;&gt;Node2 -->
<g id="edge14" class="edge"><title>Node12&#45;&gt;Node2</title>
<path fill="none" stroke="midnightblue" d="M278.801,-196.851C295.108,-202.624 312.654,-208.814 328.902,-214.5 338.066,-217.707 347.8,-221.091 357.269,-224.372"/>
<polygon fill="midnightblue" stroke="midnightblue" points="279.957,-193.547 269.362,-193.506 277.619,-200.145 279.957,-193.547"/>
</g>
</g>
</svg>
