<?xml version="1.0" encoding="UTF-8" standalone="no"?>
<!DOCTYPE svg PUBLIC "-//W3C//DTD SVG 1.1//EN"
 "http://www.w3.org/Graphics/SVG/1.1/DTD/svg11.dtd">
<!-- Generated by graphviz version 2.38.0 (20140413.2041)
 -->
<!-- Title: MK::KVDatabase::storeApplyingBinaryOperationAndReturningPreviousValue Pages: 1 -->
<svg width="594pt" height="131pt"
 viewBox="0.00 0.00 593.64 131.00" xmlns="http://www.w3.org/2000/svg" xmlns:xlink="http://www.w3.org/1999/xlink">
<g id="graph0" class="graph" transform="scale(1 1) rotate(0) translate(4 127)">
<title>MK::KVDatabase::storeApplyingBinaryOperationAndReturningPreviousValue</title>
<polygon fill="white" stroke="none" points="-4,4 -4,-127 589.64,-127 589.64,4 -4,4"/>
<!-- Node1 -->
<g id="node1" class="node"><title>Node1</title>
<polygon fill="#bfbfbf" stroke="black" points="0,-47.5 0,-75.5 213.158,-75.5 213.158,-47.5 0,-47.5"/>
<text text-anchor="start" x="8" y="-63.5" font-family="Helvetica,sans-Serif" font-size="10.00">MK::KVDatabase::storeApplying</text>
<text text-anchor="middle" x="106.579" y="-53.5" font-family="Helvetica,sans-Serif" font-size="10.00">BinaryOperationAndReturningPreviousValue</text>
</g>
<!-- Node2 -->
<g id="node2" class="node"><title>Node2</title>
<g id="a_node2"><a xlink:href="namespace_m_k_1_1_k_v_database.html#aa67a4972fe3adb6041b9da4cab53841f" target="_top" xlink:title="Increases long value for given key by given amount. ">
<polygon fill="white" stroke="black" points="261.67,-94.5 261.67,-122.5 397.729,-122.5 397.729,-94.5 261.67,-94.5"/>
<text text-anchor="start" x="269.67" y="-110.5" font-family="Helvetica,sans-Serif" font-size="10.00">MK::KVDatabase::increase</text>
<text text-anchor="middle" x="329.7" y="-100.5" font-family="Helvetica,sans-Serif" font-size="10.00">LongValueForKey</text>
</a>
</g>
</g>
<!-- Node1&#45;&gt;Node2 -->
<g id="edge1" class="edge"><title>Node1&#45;&gt;Node2</title>
<path fill="none" stroke="midnightblue" d="M183.686,-77.6767C209.357,-83.1333 237.782,-89.175 262.614,-94.4533"/>
<polygon fill="midnightblue" stroke="midnightblue" points="184.132,-74.1935 173.623,-75.5379 182.677,-81.0406 184.132,-74.1935"/>
</g>
<!-- Node4 -->
<g id="node4" class="node"><title>Node4</title>
<g id="a_node4"><a xlink:href="namespace_m_k_1_1_k_v_database.html#aa3230cc40fb3f67eeebc7c388825ee81" target="_top" xlink:title="Keeps maximum long value between current long value and given value. ">
<polygon fill="white" stroke="black" points="249.158,-47.5 249.158,-75.5 410.241,-75.5 410.241,-47.5 249.158,-47.5"/>
<text text-anchor="start" x="257.158" y="-63.5" font-family="Helvetica,sans-Serif" font-size="10.00">MK::KVDatabase::keepMaxLong</text>
<text text-anchor="middle" x="329.7" y="-53.5" font-family="Helvetica,sans-Serif" font-size="10.00">ValueForKey</text>
</a>
</g>
</g>
<!-- Node1&#45;&gt;Node4 -->
<g id="edge3" class="edge"><title>Node1&#45;&gt;Node4</title>
<path fill="none" stroke="midnightblue" d="M223.406,-61.5C232.024,-61.5 240.599,-61.5 248.921,-61.5"/>
<polygon fill="midnightblue" stroke="midnightblue" points="223.282,-58.0001 213.282,-61.5 223.282,-65.0001 223.282,-58.0001"/>
</g>
<!-- Node5 -->
<g id="node5" class="node"><title>Node5</title>
<g id="a_node5"><a xlink:href="namespace_m_k_1_1_k_v_database.html#ae2bf5047196dcd947b56e680bbe53a1b" target="_top" xlink:title="Keeps minimum long value between current long value and given value. ">
<polygon fill="white" stroke="black" points="250.547,-0.5 250.547,-28.5 408.852,-28.5 408.852,-0.5 250.547,-0.5"/>
<text text-anchor="start" x="258.547" y="-16.5" font-family="Helvetica,sans-Serif" font-size="10.00">MK::KVDatabase::keepMinLong</text>
<text text-anchor="middle" x="329.7" y="-6.5" font-family="Helvetica,sans-Serif" font-size="10.00">ValueForKey</text>
</a>
</g>
</g>
<!-- Node1&#45;&gt;Node5 -->
<g id="edge4" class="edge"><title>Node1&#45;&gt;Node5</title>
<path fill="none" stroke="midnightblue" d="M183.686,-45.3233C209.357,-39.8667 237.782,-33.825 262.614,-28.5467"/>
<polygon fill="midnightblue" stroke="midnightblue" points="182.677,-41.9594 173.623,-47.4621 184.132,-48.8065 182.677,-41.9594"/>
</g>
<!-- Node3 -->
<g id="node3" class="node"><title>Node3</title>
<g id="a_node3"><a xlink:href="namespace_m_k_1_1_k_v_database.html#ad79c7c1255ddfb778041afba1f47e903" target="_top" xlink:title="Decreases long value for given key by given amount. ">
<polygon fill="white" stroke="black" points="446.241,-94.5 446.241,-122.5 585.64,-122.5 585.64,-94.5 446.241,-94.5"/>
<text text-anchor="start" x="454.241" y="-110.5" font-family="Helvetica,sans-Serif" font-size="10.00">MK::KVDatabase::decrease</text>
<text text-anchor="middle" x="515.94" y="-100.5" font-family="Helvetica,sans-Serif" font-size="10.00">LongValueForKey</text>
</a>
</g>
</g>
<!-- Node2&#45;&gt;Node3 -->
<g id="edge2" class="edge"><title>Node2&#45;&gt;Node3</title>
<path fill="none" stroke="midnightblue" d="M407.82,-108.5C420.522,-108.5 433.615,-108.5 446.098,-108.5"/>
<polygon fill="midnightblue" stroke="midnightblue" points="407.736,-105 397.736,-108.5 407.736,-112 407.736,-105"/>
</g>
</g>
</svg>
