<?xml version="1.0" encoding="UTF-8" standalone="no"?>
<!DOCTYPE svg PUBLIC "-//W3C//DTD SVG 1.1//EN"
 "http://www.w3.org/Graphics/SVG/1.1/DTD/svg11.dtd">
<!-- Generated by graphviz version 2.38.0 (20140413.2041)
 -->
<!-- Title: MK::IAPKit::_init Pages: 1 -->
<svg width="289pt" height="84pt"
 viewBox="0.00 0.00 289.43 84.00" xmlns="http://www.w3.org/2000/svg" xmlns:xlink="http://www.w3.org/1999/xlink">
<g id="graph0" class="graph" transform="scale(1 1) rotate(0) translate(4 80)">
<title>MK::IAPKit::_init</title>
<polygon fill="white" stroke="none" points="-4,4 -4,-80 285.428,-80 285.428,4 -4,4"/>
<!-- Node1 -->
<g id="node1" class="node"><title>Node1</title>
<polygon fill="#bfbfbf" stroke="black" points="0,-33.5 0,-51.5 88.2461,-51.5 88.2461,-33.5 0,-33.5"/>
<text text-anchor="middle" x="44.123" y="-39.5" font-family="Helvetica,sans-Serif" font-size="10.00">MK::IAPKit::_init</text>
</g>
<!-- Node2 -->
<g id="node2" class="node"><title>Node2</title>
<g id="a_node2"><a xlink:href="namespace_m_k_1_1_i_a_p_kit.html#af53bbaf9538db755f6028fe26232cdd2" target="_top" xlink:title="Inits In&#45;App Purchase system, calling given callback on end. ">
<polygon fill="white" stroke="black" points="161.495,-57.5 161.495,-75.5 244.179,-75.5 244.179,-57.5 161.495,-57.5"/>
<text text-anchor="middle" x="202.837" y="-63.5" font-family="Helvetica,sans-Serif" font-size="10.00">MK::IAPKit::init</text>
</a>
</g>
</g>
<!-- Node1&#45;&gt;Node2 -->
<g id="edge1" class="edge"><title>Node1&#45;&gt;Node2</title>
<path fill="none" stroke="midnightblue" d="M98.2608,-50.6378C118.915,-53.8009 142.187,-57.3649 161.431,-60.3121"/>
<polygon fill="midnightblue" stroke="midnightblue" points="98.7753,-47.1759 88.3606,-49.1216 97.7155,-54.0952 98.7753,-47.1759"/>
</g>
<!-- Node3 -->
<g id="node3" class="node"><title>Node3</title>
<g id="a_node3"><a xlink:href="___i_a_p_kit_8cpp.html#a7f86d0f13644c98e90ec2118aa3ddf56" target="_top" xlink:title="Java_org_cocos2dx_cpp\l_AppActivity_callCppPurchases\lCallback">
<polygon fill="white" stroke="black" points="124.246,-0.5 124.246,-38.5 281.428,-38.5 281.428,-0.5 124.246,-0.5"/>
<text text-anchor="start" x="132.246" y="-26.5" font-family="Helvetica,sans-Serif" font-size="10.00">Java_org_cocos2dx_cpp</text>
<text text-anchor="start" x="132.246" y="-16.5" font-family="Helvetica,sans-Serif" font-size="10.00">_AppActivity_callCppPurchases</text>
<text text-anchor="middle" x="202.837" y="-6.5" font-family="Helvetica,sans-Serif" font-size="10.00">Callback</text>
</a>
</g>
</g>
<!-- Node1&#45;&gt;Node3 -->
<g id="edge2" class="edge"><title>Node1&#45;&gt;Node3</title>
<path fill="none" stroke="midnightblue" d="M98.2944,-34.6964C106.636,-33.4722 115.403,-32.1854 124.159,-30.9004"/>
<polygon fill="midnightblue" stroke="midnightblue" points="97.7464,-31.2392 88.3606,-36.1543 98.7629,-38.165 97.7464,-31.2392"/>
</g>
</g>
</svg>
