<?xml version="1.0" encoding="UTF-8" standalone="no"?>
<!DOCTYPE svg PUBLIC "-//W3C//DTD SVG 1.1//EN"
 "http://www.w3.org/Graphics/SVG/1.1/DTD/svg11.dtd">
<!-- Generated by graphviz version 2.38.0 (20140413.2041)
 -->
<!-- Title: MK::IAPKit::_restorePurchases Pages: 1 -->
<svg width="355pt" height="84pt"
 viewBox="0.00 0.00 355.01 84.00" xmlns="http://www.w3.org/2000/svg" xmlns:xlink="http://www.w3.org/1999/xlink">
<g id="graph0" class="graph" transform="scale(1 1) rotate(0) translate(4 80)">
<title>MK::IAPKit::_restorePurchases</title>
<polygon fill="white" stroke="none" points="-4,4 -4,-80 351.014,-80 351.014,4 -4,4"/>
<!-- Node1 -->
<g id="node1" class="node"><title>Node1</title>
<polygon fill="#bfbfbf" stroke="black" points="0,-23.5 0,-41.5 153.832,-41.5 153.832,-23.5 0,-23.5"/>
<text text-anchor="middle" x="76.916" y="-29.5" font-family="Helvetica,sans-Serif" font-size="10.00">MK::IAPKit::_restorePurchases</text>
</g>
<!-- Node2 -->
<g id="node2" class="node"><title>Node2</title>
<g id="a_node2"><a xlink:href="___i_a_p_kit_8cpp.html#a7f86d0f13644c98e90ec2118aa3ddf56" target="_top" xlink:title="Java_org_cocos2dx_cpp\l_AppActivity_callCppPurchases\lCallback">
<polygon fill="white" stroke="black" points="189.832,-37.5 189.832,-75.5 347.014,-75.5 347.014,-37.5 189.832,-37.5"/>
<text text-anchor="start" x="197.832" y="-63.5" font-family="Helvetica,sans-Serif" font-size="10.00">Java_org_cocos2dx_cpp</text>
<text text-anchor="start" x="197.832" y="-53.5" font-family="Helvetica,sans-Serif" font-size="10.00">_AppActivity_callCppPurchases</text>
<text text-anchor="middle" x="268.423" y="-43.5" font-family="Helvetica,sans-Serif" font-size="10.00">Callback</text>
</a>
</g>
</g>
<!-- Node1&#45;&gt;Node2 -->
<g id="edge1" class="edge"><title>Node1&#45;&gt;Node2</title>
<path fill="none" stroke="midnightblue" d="M159.051,-42.7753C169.17,-44.0568 179.5,-45.3651 189.568,-46.6401"/>
<polygon fill="midnightblue" stroke="midnightblue" points="159.381,-39.2892 149.021,-41.505 158.502,-46.2338 159.381,-39.2892"/>
</g>
<!-- Node3 -->
<g id="node3" class="node"><title>Node3</title>
<g id="a_node3"><a xlink:href="namespace_m_k_1_1_i_a_p_kit.html#acd01af28d13abce09a6591b16733d419" target="_top" xlink:title="Restores any previously purchased item, calling given callback on end. ">
<polygon fill="white" stroke="black" points="194.288,-0.5 194.288,-18.5 342.558,-18.5 342.558,-0.5 194.288,-0.5"/>
<text text-anchor="middle" x="268.423" y="-6.5" font-family="Helvetica,sans-Serif" font-size="10.00">MK::IAPKit::restorePurchases</text>
</a>
</g>
</g>
<!-- Node1&#45;&gt;Node3 -->
<g id="edge2" class="edge"><title>Node1&#45;&gt;Node3</title>
<path fill="none" stroke="midnightblue" d="M162.379,-22.2489C172.997,-20.9602 183.79,-19.6503 194.215,-18.3851"/>
<polygon fill="midnightblue" stroke="midnightblue" points="161.776,-18.7964 152.27,-23.4758 162.619,-25.7454 161.776,-18.7964"/>
</g>
</g>
</svg>
