<?xml version="1.0" encoding="UTF-8" standalone="no"?>
<!DOCTYPE svg PUBLIC "-//W3C//DTD SVG 1.1//EN"
 "http://www.w3.org/Graphics/SVG/1.1/DTD/svg11.dtd">
<!-- Generated by graphviz version 2.38.0 (20140413.2041)
 -->
<!-- Title: MK::GameKit::ReplayKit::showLastRecordedReplayEditor Pages: 1 -->
<svg width="332pt" height="37pt"
 viewBox="0.00 0.00 332.23 37.00" xmlns="http://www.w3.org/2000/svg" xmlns:xlink="http://www.w3.org/1999/xlink">
<g id="graph0" class="graph" transform="scale(1 1) rotate(0) translate(4 33)">
<title>MK::GameKit::ReplayKit::showLastRecordedReplayEditor</title>
<polygon fill="white" stroke="none" points="-4,4 -4,-33 328.226,-33 328.226,4 -4,4"/>
<!-- Node1 -->
<g id="node1" class="node"><title>Node1</title>
<polygon fill="#bfbfbf" stroke="black" points="0,-0.5 0,-28.5 164.413,-28.5 164.413,-0.5 0,-0.5"/>
<text text-anchor="start" x="8" y="-16.5" font-family="Helvetica,sans-Serif" font-size="10.00">MK::GameKit::ReplayKit</text>
<text text-anchor="middle" x="82.2065" y="-6.5" font-family="Helvetica,sans-Serif" font-size="10.00">::showLastRecordedReplayEditor</text>
</g>
<!-- Node2 -->
<g id="node2" class="node"><title>Node2</title>
<g id="a_node2"><a xlink:href="namespace_m_k_1_1_game_kit_1_1_replay_kit.html#a10cfe17f9771c7dc51bb784491d8d7ff" target="_top" xlink:title="Returns whether this is a replay recorded or not. ">
<polygon fill="white" stroke="black" points="200.413,-0.5 200.413,-28.5 324.226,-28.5 324.226,-0.5 200.413,-0.5"/>
<text text-anchor="start" x="208.413" y="-16.5" font-family="Helvetica,sans-Serif" font-size="10.00">MK::GameKit::ReplayKit</text>
<text text-anchor="middle" x="262.319" y="-6.5" font-family="Helvetica,sans-Serif" font-size="10.00">::hasRecordedReplay</text>
</a>
</g>
</g>
<!-- Node1&#45;&gt;Node2 -->
<g id="edge1" class="edge"><title>Node1&#45;&gt;Node2</title>
<path fill="none" stroke="midnightblue" d="M164.445,-14.5C172.99,-14.5 181.631,-14.5 190.051,-14.5"/>
<polygon fill="midnightblue" stroke="midnightblue" points="190.191,-18.0001 200.191,-14.5 190.191,-11.0001 190.191,-18.0001"/>
</g>
</g>
</svg>
