<?xml version="1.0" encoding="UTF-8" standalone="no"?>
<!DOCTYPE svg PUBLIC "-//W3C//DTD SVG 1.1//EN"
 "http://www.w3.org/Graphics/SVG/1.1/DTD/svg11.dtd">
<!-- Generated by graphviz version 2.38.0 (20140413.2041)
 -->
<!-- Title: MK::Analytics::logLevelEnd Pages: 1 -->
<svg width="324pt" height="64pt"
 viewBox="0.00 0.00 323.91 64.00" xmlns="http://www.w3.org/2000/svg" xmlns:xlink="http://www.w3.org/1999/xlink">
<g id="graph0" class="graph" transform="scale(1 1) rotate(0) translate(4 60)">
<title>MK::Analytics::logLevelEnd</title>
<polygon fill="white" stroke="none" points="-4,4 -4,-60 319.905,-60 319.905,4 -4,4"/>
<!-- Node1 -->
<g id="node1" class="node"><title>Node1</title>
<polygon fill="#bfbfbf" stroke="black" points="0,-18.5 0,-36.5 137.172,-36.5 137.172,-18.5 0,-18.5"/>
<text text-anchor="middle" x="68.5859" y="-24.5" font-family="Helvetica,sans-Serif" font-size="10.00">MK::Analytics::logLevelEnd</text>
</g>
<!-- Node2 -->
<g id="node2" class="node"><title>Node2</title>
<g id="a_node2"><a xlink:href="namespace_m_k_1_1_analytics.html#a128674e7c2ff4904a91e3a7cac8c9a9a" target="_top" xlink:title="Logs end of level with given name/identifier, given score, whether user succeeded or not in the level...">
<polygon fill="white" stroke="black" points="173.172,-37.5 173.172,-55.5 315.905,-55.5 315.905,-37.5 173.172,-37.5"/>
<text text-anchor="middle" x="244.539" y="-43.5" font-family="Helvetica,sans-Serif" font-size="10.00">MK::Analytics::_logLevelEnd</text>
</a>
</g>
</g>
<!-- Node1&#45;&gt;Node2 -->
<g id="edge1" class="edge"><title>Node1&#45;&gt;Node2</title>
<path fill="none" stroke="midnightblue" d="M137.339,-34.9003C145.772,-35.8215 154.46,-36.7704 163.062,-37.7099"/>
<polygon fill="midnightblue" stroke="midnightblue" points="162.78,-41.1998 173.101,-38.8064 163.54,-34.2412 162.78,-41.1998"/>
</g>
<!-- Node3 -->
<g id="node3" class="node"><title>Node3</title>
<g id="a_node3"><a xlink:href="namespace_m_k_1_1_analytics.html#a06ed59ccf83270d8c89455e41efde314" target="_top" xlink:title="Returns whether Analytics logging in enbled or not. ">
<polygon fill="white" stroke="black" points="185.679,-0.5 185.679,-18.5 303.398,-18.5 303.398,-0.5 185.679,-0.5"/>
<text text-anchor="middle" x="244.539" y="-6.5" font-family="Helvetica,sans-Serif" font-size="10.00">MK::Analytics::enabled</text>
</a>
</g>
</g>
<!-- Node1&#45;&gt;Node3 -->
<g id="edge2" class="edge"><title>Node1&#45;&gt;Node3</title>
<path fill="none" stroke="midnightblue" d="M137.339,-20.4892C149.785,-19.2013 162.784,-17.8562 175.246,-16.5667"/>
<polygon fill="midnightblue" stroke="midnightblue" points="175.977,-20.0098 185.564,-15.499 175.257,-13.047 175.977,-20.0098"/>
</g>
</g>
</svg>
