<?xml version="1.0" encoding="UTF-8" standalone="no"?>
<!DOCTYPE svg PUBLIC "-//W3C//DTD SVG 1.1//EN"
 "http://www.w3.org/Graphics/SVG/1.1/DTD/svg11.dtd">
<!-- Generated by graphviz version 2.38.0 (20140413.2041)
 -->
<!-- Title: MK::AdKit::showBottomBanner Pages: 1 -->
<!--zoomable 85 -->
<svg id="main" version="1.1" xmlns="http://www.w3.org/2000/svg" xmlns:xlink="http://www.w3.org/1999/xlink" xml:space="preserve" onload="init(evt)">
<style type="text/css"><![CDATA[
.edge:hover path { stroke: red; }
.edge:hover polygon { stroke: red; fill: red; }
]]></style>
<script type="text/javascript"><![CDATA[
var edges = document.getElementsByTagName('g');
if (edges && edges.length) {
  for (var i=0;i<edges.length;i++) {
    if (edges[i].id.substr(0,4)=='edge') {
      edges[i].setAttribute('class','edge');
    }
  }
}
]]></script>
        <defs>
                <circle id="rim" cx="0" cy="0" r="7"/>
                <circle id="rim2" cx="0" cy="0" r="3.5"/>
                <g id="zoomPlus">
                        <use xlink:href="#rim" fill="#404040">
                                <set attributeName="fill" to="#808080" begin="zoomplus.mouseover" end="zoomplus.mouseout"/>
                        </use>
                        <path d="M-4,0h8M0,-4v8" fill="none" stroke="white" stroke-width="1.5" pointer-events="none"/>
                </g>
                <g id="zoomMin">
                        <use xlink:href="#rim" fill="#404040">
                                <set attributeName="fill" to="#808080" begin="zoomminus.mouseover" end="zoomminus.mouseout"/>
                        </use>
                        <path d="M-4,0h8" fill="none" stroke="white" stroke-width="1.5" pointer-events="none"/>
                </g>
                <g id="dirArrow">
                        <path fill="none" stroke="white" stroke-width="1.5" d="M0,-3.0v7 M-2.5,-0.5L0,-3.0L2.5,-0.5"/>
                </g>
               <g id="resetDef">
                       <use xlink:href="#rim2" fill="#404040">
                               <set attributeName="fill" to="#808080" begin="reset.mouseover" end="reset.mouseout"/>
                       </use>
               </g>
        </defs>

<script type="text/javascript">
var viewWidth = 728;
var viewHeight = 85;
var sectionId = 'dynsection-9';
</script>
<script xlink:href="svgpan.js"/>
<svg id="graph" class="graph">
<g id="viewport">
<title>MK::AdKit::showBottomBanner</title>
<polygon fill="white" stroke="none" points="-4,4 -4,-81 724.413,-81 724.413,4 -4,4"/>
<!-- Node1 -->
<g id="node1" class="node"><title>Node1</title>
<polygon fill="#bfbfbf" stroke="black" points="0,-39.5 0,-57.5 153.285,-57.5 153.285,-39.5 0,-39.5"/>
<text text-anchor="middle" x="76.6426" y="-45.5" font-family="Helvetica,sans-Serif" font-size="10.00">MK::AdKit::showBottomBanner</text>
</g>
<!-- Node2 -->
<g id="node2" class="node"><title>Node2</title>
<g id="a_node2"><a xlink:href="namespace_m_k_1_1_ad_kit.html#a526610f0f5a5595280154895818c48de" target="_top" xlink:title="Shows a bottom banner ad. ">
<polygon fill="white" stroke="black" points="189.285,-58.5 189.285,-76.5 348.132,-76.5 348.132,-58.5 189.285,-58.5"/>
<text text-anchor="middle" x="268.708" y="-64.5" font-family="Helvetica,sans-Serif" font-size="10.00">MK::AdKit::_showBottomBanner</text>
</a>
</g>
</g>
<!-- Node1&#45;&gt;Node2 -->
<g id="edge1" class="edge"><title>Node1&#45;&gt;Node2</title>
<path fill="none" stroke="midnightblue" d="M153.308,-56.0639C161.79,-56.9118 170.487,-57.7813 179.114,-58.6436"/>
<polygon fill="midnightblue" stroke="midnightblue" points="178.892,-62.1388 189.19,-59.6509 179.588,-55.1735 178.892,-62.1388"/>
</g>
<!-- Node3 -->
<g id="node3" class="node"><title>Node3</title>
<g id="a_node3"><a xlink:href="namespace_m_k_1_1_ad_kit.html#a1abd645a384f31dc1421e82772cfb472" target="_top" xlink:title="Returns whether ads are enabled for this user or not. ">
<polygon fill="white" stroke="black" points="217.906,-21.5 217.906,-39.5 319.511,-39.5 319.511,-21.5 217.906,-21.5"/>
<text text-anchor="middle" x="268.708" y="-27.5" font-family="Helvetica,sans-Serif" font-size="10.00">MK::AdKit::enabled</text>
</a>
</g>
</g>
<!-- Node1&#45;&gt;Node3 -->
<g id="edge2" class="edge"><title>Node1&#45;&gt;Node3</title>
<path fill="none" stroke="midnightblue" d="M153.308,-41.3342C171.225,-39.6374 190.102,-37.8497 207.242,-36.2265"/>
<polygon fill="midnightblue" stroke="midnightblue" points="208.04,-39.6666 217.665,-35.2393 207.38,-32.6978 208.04,-39.6666"/>
</g>
<!-- Node4 -->
<g id="node4" class="node"><title>Node4</title>
<g id="a_node4"><a xlink:href="namespace_m_k_1_1_k_v_database.html#a767b41659c2ee79a635285b4ae078aa7" target="_top" xlink:title="Returns long value associated with given key. ">
<polygon fill="white" stroke="black" points="384.132,-37.5 384.132,-65.5 543.379,-65.5 543.379,-37.5 384.132,-37.5"/>
<text text-anchor="start" x="392.132" y="-53.5" font-family="Helvetica,sans-Serif" font-size="10.00">MK::KVDatabase::getLongValue</text>
<text text-anchor="middle" x="463.755" y="-43.5" font-family="Helvetica,sans-Serif" font-size="10.00">ForKey</text>
</a>
</g>
</g>
<!-- Node3&#45;&gt;Node4 -->
<g id="edge3" class="edge"><title>Node3&#45;&gt;Node4</title>
<path fill="none" stroke="midnightblue" d="M319.674,-35.9353C336.246,-37.7381 355.226,-39.8027 373.827,-41.8262"/>
<polygon fill="midnightblue" stroke="midnightblue" points="373.484,-45.3094 383.803,-42.9115 374.241,-38.3505 373.484,-45.3094"/>
</g>
<!-- Node5 -->
<g id="node5" class="node"><title>Node5</title>
<g id="a_node5"><a xlink:href="namespace_m_k_1_1_device.html#a983d07fad256fb9e289b985cb4237efa" target="_top" xlink:title="Returns whether this device is running OS X or not. ">
<polygon fill="white" stroke="black" points="413.246,-0.5 413.246,-18.5 514.265,-18.5 514.265,-0.5 413.246,-0.5"/>
<text text-anchor="middle" x="463.755" y="-6.5" font-family="Helvetica,sans-Serif" font-size="10.00">MK::Device::isOSX</text>
</a>
</g>
</g>
<!-- Node3&#45;&gt;Node5 -->
<g id="edge4" class="edge"><title>Node3&#45;&gt;Node5</title>
<path fill="none" stroke="midnightblue" d="M319.674,-25.0647C345.133,-22.2952 376.274,-18.9076 402.995,-16.0008"/>
<polygon fill="midnightblue" stroke="midnightblue" points="403.437,-19.4736 412.999,-14.9126 402.679,-12.5146 403.437,-19.4736"/>
</g>
<!-- Node6 -->
<g id="node6" class="node"><title>Node6</title>
<g id="a_node6"><a xlink:href="namespace_m_k_1_1_device.html#a7c83a89bef610abaa7ada09d38c2f3fb" target="_top" xlink:title="Returns current platform. ">
<polygon fill="white" stroke="black" points="579.379,-0.5 579.379,-18.5 720.413,-18.5 720.413,-0.5 579.379,-0.5"/>
<text text-anchor="middle" x="649.896" y="-6.5" font-family="Helvetica,sans-Serif" font-size="10.00">MK::Device::currentPlatform</text>
</a>
</g>
</g>
<!-- Node5&#45;&gt;Node6 -->
<g id="edge5" class="edge"><title>Node5&#45;&gt;Node6</title>
<path fill="none" stroke="midnightblue" d="M514.586,-9.5C531.392,-9.5 550.595,-9.5 569.121,-9.5"/>
<polygon fill="midnightblue" stroke="midnightblue" points="569.324,-13.0001 579.324,-9.5 569.324,-6.0001 569.324,-13.0001"/>
</g>
</g>
</svg>
        <g id="navigator" transform="translate(0 0)" fill="#404254">
                <rect fill="#f2f5e9" fill-opacity="0.5" stroke="#606060" stroke-width=".5" x="0" y="0" width="60" height="60"/>
                <use id="zoomplus" xlink:href="#zoomPlus" x="17" y="9" onmousedown="handleZoom(evt,'in')"/>
                <use id="zoomminus" xlink:href="#zoomMin" x="42" y="9" onmousedown="handleZoom(evt,'out')"/>
                <use id="reset" xlink:href="#resetDef" x="30" y="36" onmousedown="handleReset()"/>
                <g id="arrowUp" xlink:href="#dirArrow" transform="translate(30 24)" onmousedown="handlePan(0,-1)">
                  <use xlink:href="#rim" fill="#404040">
                        <set attributeName="fill" to="#808080" begin="arrowUp.mouseover" end="arrowUp.mouseout"/>
                  </use>
                  <path fill="none" stroke="white" stroke-width="1.5" d="M0,-3.0v7 M-2.5,-0.5L0,-3.0L2.5,-0.5"/>
                </g>
                <g id="arrowRight" xlink:href="#dirArrow" transform="rotate(90) translate(36 -43)" onmousedown="handlePan(1,0)">
                  <use xlink:href="#rim" fill="#404040">
                        <set attributeName="fill" to="#808080" begin="arrowRight.mouseover" end="arrowRight.mouseout"/>
                  </use>
                  <path fill="none" stroke="white" stroke-width="1.5" d="M0,-3.0v7 M-2.5,-0.5L0,-3.0L2.5,-0.5"/>
                </g>
                <g id="arrowDown" xlink:href="#dirArrow" transform="rotate(180) translate(-30 -48)" onmousedown="handlePan(0,1)">
                  <use xlink:href="#rim" fill="#404040">
                        <set attributeName="fill" to="#808080" begin="arrowDown.mouseover" end="arrowDown.mouseout"/>
                  </use>
                  <path fill="none" stroke="white" stroke-width="1.5" d="M0,-3.0v7 M-2.5,-0.5L0,-3.0L2.5,-0.5"/>
                </g>
                <g id="arrowLeft" xlink:href="#dirArrow" transform="rotate(270) translate(-36 17)" onmousedown="handlePan(-1,0)">
                  <use xlink:href="#rim" fill="#404040">
                        <set attributeName="fill" to="#808080" begin="arrowLeft.mouseover" end="arrowLeft.mouseout"/>
                  </use>
                  <path fill="none" stroke="white" stroke-width="1.5" d="M0,-3.0v7 M-2.5,-0.5L0,-3.0L2.5,-0.5"/>
                </g>
        </g>
        <svg viewBox="0 0 15 15" width="100%" height="30px" preserveAspectRatio="xMaxYMin meet">
         <g id="arrow_out" transform="scale(0.3 0.3)">
          <a xlink:href="namespace_m_k_1_1_ad_kit_add9f76341cdf101a96a3871fa154a2c9_cgraph_org.svg" target="_base">
           <rect id="button" ry="5" rx="5" y="6" x="6" height="38" width="38"
                fill="#f2f5e9" fill-opacity="0.5" stroke="#606060" stroke-width="1.0"/>
           <path id="arrow"
             d="M 11.500037,31.436501 C 11.940474,20.09759 22.043105,11.32322 32.158766,21.979434 L 37.068811,17.246167 C 37.068811,17.246167 37.088388,32 37.088388,32 L 22.160133,31.978069 C 22.160133,31.978069 26.997745,27.140456 26.997745,27.140456 C 18.528582,18.264221 13.291696,25.230495 11.500037,31.436501 z"
             style="fill:#404040;"/>
          </a>
         </g>
        </svg>
</svg>
