<?xml version="1.0" encoding="UTF-8" standalone="no"?>
<!DOCTYPE svg PUBLIC "-//W3C//DTD SVG 1.1//EN"
 "http://www.w3.org/Graphics/SVG/1.1/DTD/svg11.dtd">
<!-- Generated by graphviz version 2.38.0 (20140413.2041)
 -->
<!-- Title: MK::AdKit::_showInterstitial Pages: 1 -->
<svg width="507pt" height="92pt"
 viewBox="0.00 0.00 507.43 92.00" xmlns="http://www.w3.org/2000/svg" xmlns:xlink="http://www.w3.org/1999/xlink">
<g id="graph0" class="graph" transform="scale(1 1) rotate(0) translate(4 88)">
<title>MK::AdKit::_showInterstitial</title>
<polygon fill="white" stroke="none" points="-4,4 -4,-88 503.434,-88 503.434,4 -4,4"/>
<!-- Node1 -->
<g id="node1" class="node"><title>Node1</title>
<polygon fill="#bfbfbf" stroke="black" points="0,-21.5 0,-39.5 137.714,-39.5 137.714,-21.5 0,-21.5"/>
<text text-anchor="middle" x="68.8569" y="-27.5" font-family="Helvetica,sans-Serif" font-size="10.00">MK::AdKit::_showInterstitial</text>
</g>
<!-- Node2 -->
<g id="node2" class="node"><title>Node2</title>
<g id="a_node2"><a xlink:href="interface_reward_video_delegate.html#a0bfa3f23795d0ad8cedcb3c7601b9305" target="_top" xlink:title="&#45;[RewardVideoDelegate\l requestNewRewardVideo]">
<polygon fill="white" stroke="black" points="173.714,-37.5 173.714,-65.5 308.488,-65.5 308.488,-37.5 173.714,-37.5"/>
<text text-anchor="start" x="181.714" y="-53.5" font-family="Helvetica,sans-Serif" font-size="10.00">&#45;[RewardVideoDelegate</text>
<text text-anchor="middle" x="241.101" y="-43.5" font-family="Helvetica,sans-Serif" font-size="10.00"> requestNewRewardVideo]</text>
</a>
</g>
</g>
<!-- Node1&#45;&gt;Node2 -->
<g id="edge1" class="edge"><title>Node1&#45;&gt;Node2</title>
<path fill="none" stroke="midnightblue" d="M148.316,-40.1782C156.729,-41.2158 165.228,-42.2643 173.484,-43.2826"/>
<polygon fill="midnightblue" stroke="midnightblue" points="148.474,-36.6712 138.121,-38.9205 147.617,-43.6185 148.474,-36.6712"/>
</g>
<!-- Node4 -->
<g id="node4" class="node"><title>Node4</title>
<g id="a_node4"><a xlink:href="namespace_m_k_1_1_ad_kit.html#a413ead0cc048a5cb2becc3a6e50ad59b" target="_top" xlink:title="Shows an interstitial ad. ">
<polygon fill="white" stroke="black" points="175.025,-0.5 175.025,-18.5 307.177,-18.5 307.177,-0.5 175.025,-0.5"/>
<text text-anchor="middle" x="241.101" y="-6.5" font-family="Helvetica,sans-Serif" font-size="10.00">MK::AdKit::showInterstitial</text>
</a>
</g>
</g>
<!-- Node1&#45;&gt;Node4 -->
<g id="edge4" class="edge"><title>Node1&#45;&gt;Node4</title>
<path fill="none" stroke="midnightblue" d="M148.147,-20.8428C157.084,-19.7403 166.122,-18.6255 174.864,-17.5471"/>
<polygon fill="midnightblue" stroke="midnightblue" points="147.617,-17.3815 138.121,-22.0795 148.474,-24.3288 147.617,-17.3815"/>
</g>
<!-- Node2&#45;&gt;Node2 -->
<g id="edge3" class="edge"><title>Node2&#45;&gt;Node2</title>
<path fill="none" stroke="midnightblue" d="M210.009,-75.4873C213.31,-80.4413 223.674,-84 241.101,-84 268.984,-84 278.786,-74.8898 270.509,-65.5305"/>
<polygon fill="midnightblue" stroke="midnightblue" points="213.476,-75.9743 211.693,-65.5305 206.574,-74.8063 213.476,-75.9743"/>
</g>
<!-- Node3 -->
<g id="node3" class="node"><title>Node3</title>
<g id="a_node3"><a xlink:href="interface_reward_video_delegate.html#a5d8713e80adf05ec03e68072d573ad06" target="_top" xlink:title="&#45;[RewardVideoDelegate\l initWithAdUnitID:andCallback:]">
<polygon fill="white" stroke="black" points="344.488,-37.5 344.488,-65.5 499.434,-65.5 499.434,-37.5 344.488,-37.5"/>
<text text-anchor="start" x="352.488" y="-53.5" font-family="Helvetica,sans-Serif" font-size="10.00">&#45;[RewardVideoDelegate</text>
<text text-anchor="middle" x="421.961" y="-43.5" font-family="Helvetica,sans-Serif" font-size="10.00"> initWithAdUnitID:andCallback:]</text>
</a>
</g>
</g>
<!-- Node2&#45;&gt;Node3 -->
<g id="edge2" class="edge"><title>Node2&#45;&gt;Node3</title>
<path fill="none" stroke="midnightblue" d="M318.897,-51.5C327.334,-51.5 335.924,-51.5 344.358,-51.5"/>
<polygon fill="midnightblue" stroke="midnightblue" points="318.702,-48.0001 308.702,-51.5 318.702,-55.0001 318.702,-48.0001"/>
</g>
</g>
</svg>
