<?xml version="1.0" encoding="UTF-8" standalone="no"?>
<!DOCTYPE svg PUBLIC "-//W3C//DTD SVG 1.1//EN"
 "http://www.w3.org/Graphics/SVG/1.1/DTD/svg11.dtd">
<!-- Generated by graphviz version 2.38.0 (20140413.2041)
 -->
<!-- Title: MK::GameKit::_requestFriendsScores Pages: 1 -->
<svg width="345pt" height="37pt"
 viewBox="0.00 0.00 344.99 37.00" xmlns="http://www.w3.org/2000/svg" xmlns:xlink="http://www.w3.org/1999/xlink">
<g id="graph0" class="graph" transform="scale(1 1) rotate(0) translate(4 33)">
<title>MK::GameKit::_requestFriendsScores</title>
<polygon fill="white" stroke="none" points="-4,4 -4,-33 340.989,-33 340.989,4 -4,4"/>
<!-- Node1 -->
<g id="node1" class="node"><title>Node1</title>
<polygon fill="#bfbfbf" stroke="black" points="0,-0.5 0,-28.5 153.275,-28.5 153.275,-0.5 0,-0.5"/>
<text text-anchor="start" x="8" y="-16.5" font-family="Helvetica,sans-Serif" font-size="10.00">MK::GameKit::_requestFriends</text>
<text text-anchor="middle" x="76.6377" y="-6.5" font-family="Helvetica,sans-Serif" font-size="10.00">Scores</text>
</g>
<!-- Node2 -->
<g id="node2" class="node"><title>Node2</title>
<g id="a_node2"><a xlink:href="namespace_m_k_1_1_game_kit.html#a48ec5944178bf6e347b0d12fe09d848a" target="_top" xlink:title="Requests current scores of current player&#39;s friends in given leaderboard and calls given callback onc...">
<polygon fill="white" stroke="black" points="189.275,-0.5 189.275,-28.5 336.989,-28.5 336.989,-0.5 189.275,-0.5"/>
<text text-anchor="start" x="197.275" y="-16.5" font-family="Helvetica,sans-Serif" font-size="10.00">MK::GameKit::requestFriends</text>
<text text-anchor="middle" x="263.132" y="-6.5" font-family="Helvetica,sans-Serif" font-size="10.00">Scores</text>
</a>
</g>
</g>
<!-- Node1&#45;&gt;Node2 -->
<g id="edge1" class="edge"><title>Node1&#45;&gt;Node2</title>
<path fill="none" stroke="midnightblue" d="M163.527,-14.5C172.132,-14.5 180.811,-14.5 189.262,-14.5"/>
<polygon fill="midnightblue" stroke="midnightblue" points="163.477,-11.0001 153.477,-14.5 163.477,-18.0001 163.477,-11.0001"/>
</g>
</g>
</svg>
