<?xml version="1.0" encoding="UTF-8" standalone="no"?>
<!DOCTYPE svg PUBLIC "-//W3C//DTD SVG 1.1//EN"
 "http://www.w3.org/Graphics/SVG/1.1/DTD/svg11.dtd">
<!-- Generated by graphviz version 2.38.0 (20140413.2041)
 -->
<!-- Title: MK::AdKit::_showBottomBanner Pages: 1 -->
<svg width="547pt" height="92pt"
 viewBox="0.00 0.00 547.08 92.00" xmlns="http://www.w3.org/2000/svg" xmlns:xlink="http://www.w3.org/1999/xlink">
<g id="graph0" class="graph" transform="scale(1 1) rotate(0) translate(4 88)">
<title>MK::AdKit::_showBottomBanner</title>
<polygon fill="white" stroke="none" points="-4,4 -4,-88 543.077,-88 543.077,4 -4,4"/>
<!-- Node1 -->
<g id="node1" class="node"><title>Node1</title>
<polygon fill="#bfbfbf" stroke="black" points="0,-21.5 0,-39.5 158.847,-39.5 158.847,-21.5 0,-21.5"/>
<text text-anchor="middle" x="79.4233" y="-27.5" font-family="Helvetica,sans-Serif" font-size="10.00">MK::AdKit::_showBottomBanner</text>
</g>
<!-- Node2 -->
<g id="node2" class="node"><title>Node2</title>
<g id="a_node2"><a xlink:href="interface_reward_video_delegate.html#a0bfa3f23795d0ad8cedcb3c7601b9305" target="_top" xlink:title="&#45;[RewardVideoDelegate\l requestNewRewardVideo]">
<polygon fill="white" stroke="black" points="204.102,-37.5 204.102,-65.5 338.876,-65.5 338.876,-37.5 204.102,-37.5"/>
<text text-anchor="start" x="212.102" y="-53.5" font-family="Helvetica,sans-Serif" font-size="10.00">&#45;[RewardVideoDelegate</text>
<text text-anchor="middle" x="271.489" y="-43.5" font-family="Helvetica,sans-Serif" font-size="10.00"> requestNewRewardVideo]</text>
</a>
</g>
</g>
<!-- Node1&#45;&gt;Node2 -->
<g id="edge1" class="edge"><title>Node1&#45;&gt;Node2</title>
<path fill="none" stroke="midnightblue" d="M169.304,-40.3203C180.97,-41.6092 192.76,-42.9118 203.966,-44.15"/>
<polygon fill="midnightblue" stroke="midnightblue" points="169.426,-36.8125 159.102,-39.1931 168.658,-43.7702 169.426,-36.8125"/>
</g>
<!-- Node4 -->
<g id="node4" class="node"><title>Node4</title>
<g id="a_node4"><a xlink:href="namespace_m_k_1_1_ad_kit.html#add9f76341cdf101a96a3871fa154a2c9" target="_top" xlink:title="Shows a bottom banner ad. ">
<polygon fill="white" stroke="black" points="194.847,-0.5 194.847,-18.5 348.132,-18.5 348.132,-0.5 194.847,-0.5"/>
<text text-anchor="middle" x="271.489" y="-6.5" font-family="Helvetica,sans-Serif" font-size="10.00">MK::AdKit::showBottomBanner</text>
</a>
</g>
</g>
<!-- Node1&#45;&gt;Node4 -->
<g id="edge4" class="edge"><title>Node1&#45;&gt;Node4</title>
<path fill="none" stroke="midnightblue" d="M169.077,-20.7049C177.614,-19.7615 186.221,-18.8106 194.62,-17.8827"/>
<polygon fill="midnightblue" stroke="midnightblue" points="168.658,-17.2298 159.102,-21.8069 169.426,-24.1875 168.658,-17.2298"/>
</g>
<!-- Node2&#45;&gt;Node2 -->
<g id="edge3" class="edge"><title>Node2&#45;&gt;Node2</title>
<path fill="none" stroke="midnightblue" d="M237.143,-75.4873C240.79,-80.4413 252.239,-84 271.489,-84 302.29,-84 313.118,-74.8898 303.974,-65.5305"/>
<polygon fill="midnightblue" stroke="midnightblue" points="240.607,-76.0033 239.004,-65.5305 233.726,-74.7171 240.607,-76.0033"/>
</g>
<!-- Node3 -->
<g id="node3" class="node"><title>Node3</title>
<g id="a_node3"><a xlink:href="interface_reward_video_delegate.html#a5d8713e80adf05ec03e68072d573ad06" target="_top" xlink:title="&#45;[RewardVideoDelegate\l initWithAdUnitID:andCallback:]">
<polygon fill="white" stroke="black" points="384.132,-37.5 384.132,-65.5 539.077,-65.5 539.077,-37.5 384.132,-37.5"/>
<text text-anchor="start" x="392.132" y="-53.5" font-family="Helvetica,sans-Serif" font-size="10.00">&#45;[RewardVideoDelegate</text>
<text text-anchor="middle" x="461.604" y="-43.5" font-family="Helvetica,sans-Serif" font-size="10.00"> initWithAdUnitID:andCallback:]</text>
</a>
</g>
</g>
<!-- Node2&#45;&gt;Node3 -->
<g id="edge2" class="edge"><title>Node2&#45;&gt;Node3</title>
<path fill="none" stroke="midnightblue" d="M349.395,-51.5C360.758,-51.5 372.466,-51.5 383.826,-51.5"/>
<polygon fill="midnightblue" stroke="midnightblue" points="349.076,-48.0001 339.076,-51.5 349.076,-55.0001 349.076,-48.0001"/>
</g>
</g>
</svg>
