<?xml version="1.0" encoding="UTF-8" standalone="no"?>
<!DOCTYPE svg PUBLIC "-//W3C//DTD SVG 1.1//EN"
 "http://www.w3.org/Graphics/SVG/1.1/DTD/svg11.dtd">
<!-- Generated by graphviz version 2.38.0 (20140413.2041)
 -->
<!-- Title: MK::Device::currentPlatform Pages: 1 -->
<!--zoomable 319 -->
<svg id="main" version="1.1" xmlns="http://www.w3.org/2000/svg" xmlns:xlink="http://www.w3.org/1999/xlink" xml:space="preserve" onload="init(evt)">
<style type="text/css"><![CDATA[
.edge:hover path { stroke: red; }
.edge:hover polygon { stroke: red; fill: red; }
]]></style>
<script type="text/javascript"><![CDATA[
var edges = document.getElementsByTagName('g');
if (edges && edges.length) {
  for (var i=0;i<edges.length;i++) {
    if (edges[i].id.substr(0,4)=='edge') {
      edges[i].setAttribute('class','edge');
    }
  }
}
]]></script>
        <defs>
                <circle id="rim" cx="0" cy="0" r="7"/>
                <circle id="rim2" cx="0" cy="0" r="3.5"/>
                <g id="zoomPlus">
                        <use xlink:href="#rim" fill="#404040">
                                <set attributeName="fill" to="#808080" begin="zoomplus.mouseover" end="zoomplus.mouseout"/>
                        </use>
                        <path d="M-4,0h8M0,-4v8" fill="none" stroke="white" stroke-width="1.5" pointer-events="none"/>
                </g>
                <g id="zoomMin">
                        <use xlink:href="#rim" fill="#404040">
                                <set attributeName="fill" to="#808080" begin="zoomminus.mouseover" end="zoomminus.mouseout"/>
                        </use>
                        <path d="M-4,0h8" fill="none" stroke="white" stroke-width="1.5" pointer-events="none"/>
                </g>
                <g id="dirArrow">
                        <path fill="none" stroke="white" stroke-width="1.5" d="M0,-3.0v7 M-2.5,-0.5L0,-3.0L2.5,-0.5"/>
                </g>
               <g id="resetDef">
                       <use xlink:href="#rim2" fill="#404040">
                               <set attributeName="fill" to="#808080" begin="reset.mouseover" end="reset.mouseout"/>
                       </use>
               </g>
        </defs>

<script type="text/javascript">
var viewWidth = 1073;
var viewHeight = 319;
var sectionId = 'dynsection-0';
</script>
<script xlink:href="svgpan.js"/>
<svg id="graph" class="graph">
<g id="viewport">
<title>MK::Device::currentPlatform</title>
<polygon fill="white" stroke="none" points="-4,4 -4,-315 1069.23,-315 1069.23,4 -4,4"/>
<!-- Node1 -->
<g id="node1" class="node"><title>Node1</title>
<polygon fill="#bfbfbf" stroke="black" points="0,-137.5 0,-155.5 141.034,-155.5 141.034,-137.5 0,-137.5"/>
<text text-anchor="middle" x="70.5171" y="-143.5" font-family="Helvetica,sans-Serif" font-size="10.00">MK::Device::currentPlatform</text>
</g>
<!-- Node2 -->
<g id="node2" class="node"><title>Node2</title>
<g id="a_node2"><a xlink:href="_o_s_01_x_2_device_8mm.html#ae92bd57965d1e7252665aad1916433fd" target="_top" xlink:title="copy_mac_address">
<polygon fill="white" stroke="black" points="182.862,-193.5 182.862,-211.5 285.576,-211.5 285.576,-193.5 182.862,-193.5"/>
<text text-anchor="middle" x="234.219" y="-199.5" font-family="Helvetica,sans-Serif" font-size="10.00">copy_mac_address</text>
</a>
</g>
</g>
<!-- Node1&#45;&gt;Node2 -->
<g id="edge1" class="edge"><title>Node1&#45;&gt;Node2</title>
<path fill="none" stroke="midnightblue" d="M105.327,-159.022C125.977,-166.584 152.955,-176.31 177.034,-184.5 185.858,-187.501 195.509,-190.643 204.282,-193.447"/>
<polygon fill="midnightblue" stroke="midnightblue" points="106.332,-155.663 95.7385,-155.5 103.918,-162.234 106.332,-155.663"/>
</g>
<!-- Node3 -->
<g id="node3" class="node"><title>Node3</title>
<g id="a_node3"><a xlink:href="namespace_m_k_1_1_device.html#a2ca977d6dbd8da9b026e083bbb99f60f" target="_top" xlink:title="Returns whether this device is running Android or not. ">
<polygon fill="white" stroke="black" points="177.034,-156.5 177.034,-174.5 291.403,-174.5 291.403,-156.5 177.034,-156.5"/>
<text text-anchor="middle" x="234.219" y="-162.5" font-family="Helvetica,sans-Serif" font-size="10.00">MK::Device::isAndroid</text>
</a>
</g>
</g>
<!-- Node1&#45;&gt;Node3 -->
<g id="edge2" class="edge"><title>Node1&#45;&gt;Node3</title>
<path fill="none" stroke="midnightblue" d="M151.491,-155.897C160.026,-156.9 168.574,-157.904 176.754,-158.865"/>
<polygon fill="midnightblue" stroke="midnightblue" points="151.841,-152.414 141.501,-154.723 151.025,-159.366 151.841,-152.414"/>
</g>
<!-- Node4 -->
<g id="node4" class="node"><title>Node4</title>
<g id="a_node4"><a xlink:href="namespace_m_k_1_1_device.html#ab96584a6fbd06cbfea91ac7f11722682" target="_top" xlink:title="Returns whether this device is running iOS or not. ">
<polygon fill="white" stroke="black" points="185.933,-119.5 185.933,-137.5 282.504,-137.5 282.504,-119.5 185.933,-119.5"/>
<text text-anchor="middle" x="234.219" y="-125.5" font-family="Helvetica,sans-Serif" font-size="10.00">MK::Device::isiOS</text>
</a>
</g>
</g>
<!-- Node1&#45;&gt;Node4 -->
<g id="edge3" class="edge"><title>Node1&#45;&gt;Node4</title>
<path fill="none" stroke="midnightblue" d="M151.649,-137.58C163.229,-136.291 174.828,-135 185.497,-133.812"/>
<polygon fill="midnightblue" stroke="midnightblue" points="151.053,-134.125 141.501,-138.71 151.827,-141.082 151.053,-134.125"/>
</g>
<!-- Node5 -->
<g id="node5" class="node"><title>Node5</title>
<g id="a_node5"><a xlink:href="namespace_m_k_1_1_device.html#a983d07fad256fb9e289b985cb4237efa" target="_top" xlink:title="Returns whether this device is running OS X or not. ">
<polygon fill="white" stroke="black" points="183.709,-82.5 183.709,-100.5 284.729,-100.5 284.729,-82.5 183.709,-82.5"/>
<text text-anchor="middle" x="234.219" y="-88.5" font-family="Helvetica,sans-Serif" font-size="10.00">MK::Device::isOSX</text>
</a>
</g>
</g>
<!-- Node1&#45;&gt;Node5 -->
<g id="edge4" class="edge"><title>Node1&#45;&gt;Node5</title>
<path fill="none" stroke="midnightblue" d="M106.173,-134.081C126.723,-126.783 153.309,-117.458 177.034,-109.5 185.968,-106.503 195.737,-103.336 204.587,-100.507"/>
<polygon fill="midnightblue" stroke="midnightblue" points="104.855,-130.835 96.6083,-137.486 107.203,-137.429 104.855,-130.835"/>
</g>
<!-- Node6 -->
<g id="node6" class="node"><title>Node6</title>
<g id="a_node6"><a xlink:href="namespace_m_k_1_1_ad_kit.html#a1abd645a384f31dc1421e82772cfb472" target="_top" xlink:title="Returns whether ads are enabled for this user or not. ">
<polygon fill="white" stroke="black" points="354.542,-179.5 354.542,-197.5 456.147,-197.5 456.147,-179.5 354.542,-179.5"/>
<text text-anchor="middle" x="405.345" y="-185.5" font-family="Helvetica,sans-Serif" font-size="10.00">MK::AdKit::enabled</text>
</a>
</g>
</g>
<!-- Node5&#45;&gt;Node6 -->
<g id="edge5" class="edge"><title>Node5&#45;&gt;Node6</title>
<path fill="none" stroke="midnightblue" d="M281.157,-104.294C284.711,-105.859 288.17,-107.591 291.403,-109.5 310.353,-120.691 309.791,-130.304 327.403,-143.5 346.351,-157.697 370.133,-170.998 386.203,-179.403"/>
<polygon fill="midnightblue" stroke="midnightblue" points="282.204,-100.944 271.617,-100.529 279.635,-107.456 282.204,-100.944"/>
</g>
<!-- Node15 -->
<g id="node15" class="node"><title>Node15</title>
<g id="a_node15"><a xlink:href="interface_receipt_validator.html#ab2df585c981dfc992ad4fe8fa09de347" target="_top" xlink:title="+[ReceiptValidator\l receiptAtURL:isValidForBundle\lID:andVersion:]">
<polygon fill="white" stroke="black" points="327.403,-96.5 327.403,-134.5 483.286,-134.5 483.286,-96.5 327.403,-96.5"/>
<text text-anchor="start" x="335.403" y="-122.5" font-family="Helvetica,sans-Serif" font-size="10.00">+[ReceiptValidator</text>
<text text-anchor="start" x="335.403" y="-112.5" font-family="Helvetica,sans-Serif" font-size="10.00"> receiptAtURL:isValidForBundle</text>
<text text-anchor="middle" x="405.345" y="-102.5" font-family="Helvetica,sans-Serif" font-size="10.00">ID:andVersion:]</text>
</a>
</g>
</g>
<!-- Node5&#45;&gt;Node15 -->
<g id="edge16" class="edge"><title>Node5&#45;&gt;Node15</title>
<path fill="none" stroke="midnightblue" d="M295.218,-100.014C305.595,-101.487 316.513,-103.036 327.267,-104.562"/>
<polygon fill="midnightblue" stroke="midnightblue" points="295.44,-96.5108 285.047,-98.571 294.456,-103.441 295.44,-96.5108"/>
</g>
<!-- Node16 -->
<g id="node16" class="node"><title>Node16</title>
<g id="a_node16"><a xlink:href="interface_receipt_validator.html#a820c68148ab2fedccc43588f8d79dea6" target="_top" xlink:title="+[ReceiptValidator\l appReceiptIsValidForBundle\lID:andVersion:]">
<polygon fill="white" stroke="black" points="531.786,-48.5 531.786,-86.5 676.57,-86.5 676.57,-48.5 531.786,-48.5"/>
<text text-anchor="start" x="539.786" y="-74.5" font-family="Helvetica,sans-Serif" font-size="10.00">+[ReceiptValidator</text>
<text text-anchor="start" x="539.786" y="-64.5" font-family="Helvetica,sans-Serif" font-size="10.00"> appReceiptIsValidForBundle</text>
<text text-anchor="middle" x="604.178" y="-54.5" font-family="Helvetica,sans-Serif" font-size="10.00">ID:andVersion:]</text>
</a>
</g>
</g>
<!-- Node5&#45;&gt;Node16 -->
<g id="edge18" class="edge"><title>Node5&#45;&gt;Node16</title>
<path fill="none" stroke="midnightblue" d="M294.879,-87.6087C359.536,-83.3915 462.686,-76.6636 531.645,-72.1657"/>
<polygon fill="midnightblue" stroke="midnightblue" points="294.594,-84.1197 284.843,-88.2633 295.05,-91.1049 294.594,-84.1197"/>
</g>
<!-- Node17 -->
<g id="node17" class="node"><title>Node17</title>
<g id="a_node17"><a xlink:href="interface_receipt_validator.html#ad0d049250b9d647db64a8eba79683c68" target="_top" xlink:title="+[ReceiptValidator\l validateAppReceiptForBundle\lID:andVersion:]">
<polygon fill="white" stroke="black" points="329.803,-0.5 329.803,-38.5 480.886,-38.5 480.886,-0.5 329.803,-0.5"/>
<text text-anchor="start" x="337.803" y="-26.5" font-family="Helvetica,sans-Serif" font-size="10.00">+[ReceiptValidator</text>
<text text-anchor="start" x="337.803" y="-16.5" font-family="Helvetica,sans-Serif" font-size="10.00"> validateAppReceiptForBundle</text>
<text text-anchor="middle" x="405.345" y="-6.5" font-family="Helvetica,sans-Serif" font-size="10.00">ID:andVersion:]</text>
</a>
</g>
</g>
<!-- Node5&#45;&gt;Node17 -->
<g id="edge19" class="edge"><title>Node5&#45;&gt;Node17</title>
<path fill="none" stroke="midnightblue" d="M266.057,-78.3716C292.239,-67.2256 330.148,-51.0868 359.657,-38.5246"/>
<polygon fill="midnightblue" stroke="midnightblue" points="264.469,-75.2438 256.639,-82.3812 267.211,-81.6844 264.469,-75.2438"/>
</g>
<!-- Node7 -->
<g id="node7" class="node"><title>Node7</title>
<g id="a_node7"><a xlink:href="namespace_m_k_1_1_ad_kit.html#aab6fed949fb7e7a9052144367597b9cd" target="_top" xlink:title="Performs any initialization required by the ads adapter. ">
<polygon fill="white" stroke="black" points="564.779,-292.5 564.779,-310.5 643.577,-310.5 643.577,-292.5 564.779,-292.5"/>
<text text-anchor="middle" x="604.178" y="-298.5" font-family="Helvetica,sans-Serif" font-size="10.00">MK::AdKit::init</text>
</a>
</g>
</g>
<!-- Node6&#45;&gt;Node7 -->
<g id="edge6" class="edge"><title>Node6&#45;&gt;Node7</title>
<path fill="none" stroke="midnightblue" d="M422.765,-204.895C443.541,-224.772 481.226,-258.022 519.286,-277.5 533.311,-284.677 549.786,-289.984 564.406,-293.756"/>
<polygon fill="midnightblue" stroke="midnightblue" points="425.031,-202.216 415.423,-197.75 420.148,-207.233 425.031,-202.216"/>
</g>
<!-- Node8 -->
<g id="node8" class="node"><title>Node8</title>
<g id="a_node8"><a xlink:href="interface_reward_video_delegate.html#a0bfa3f23795d0ad8cedcb3c7601b9305" target="_top" xlink:title="&#45;[RewardVideoDelegate\l requestNewRewardVideo]">
<polygon fill="white" stroke="black" points="732.292,-195.5 732.292,-223.5 867.066,-223.5 867.066,-195.5 732.292,-195.5"/>
<text text-anchor="start" x="740.292" y="-211.5" font-family="Helvetica,sans-Serif" font-size="10.00">&#45;[RewardVideoDelegate</text>
<text text-anchor="middle" x="799.679" y="-201.5" font-family="Helvetica,sans-Serif" font-size="10.00"> requestNewRewardVideo]</text>
</a>
</g>
</g>
<!-- Node6&#45;&gt;Node8 -->
<g id="edge7" class="edge"><title>Node6&#45;&gt;Node8</title>
<path fill="none" stroke="midnightblue" d="M428.006,-203.043C449.932,-216.82 485.352,-236.549 519.286,-244.5 592.756,-261.714 614.51,-256.115 689.07,-244.5 714.927,-240.472 743.023,-231.401 764.295,-223.504"/>
<polygon fill="midnightblue" stroke="midnightblue" points="429.782,-200.024 419.479,-197.555 425.993,-205.91 429.782,-200.024"/>
</g>
<!-- Node10 -->
<g id="node10" class="node"><title>Node10</title>
<g id="a_node10"><a xlink:href="namespace_m_k_1_1_ad_kit.html#add9f76341cdf101a96a3871fa154a2c9" target="_top" xlink:title="Shows a bottom banner ad. ">
<polygon fill="white" stroke="black" points="527.536,-216.5 527.536,-234.5 680.821,-234.5 680.821,-216.5 527.536,-216.5"/>
<text text-anchor="middle" x="604.178" y="-222.5" font-family="Helvetica,sans-Serif" font-size="10.00">MK::AdKit::showBottomBanner</text>
</a>
</g>
</g>
<!-- Node6&#45;&gt;Node10 -->
<g id="edge10" class="edge"><title>Node6&#45;&gt;Node10</title>
<path fill="none" stroke="midnightblue" d="M464.207,-199.377C493.1,-204.808 527.644,-211.301 555.064,-216.456"/>
<polygon fill="midnightblue" stroke="midnightblue" points="464.718,-195.912 454.244,-197.504 463.425,-202.791 464.718,-195.912"/>
</g>
<!-- Node11 -->
<g id="node11" class="node"><title>Node11</title>
<g id="a_node11"><a xlink:href="namespace_m_k_1_1_ad_kit.html#a413ead0cc048a5cb2becc3a6e50ad59b" target="_top" xlink:title="Shows an interstitial ad. ">
<polygon fill="white" stroke="black" points="538.102,-179.5 538.102,-197.5 670.254,-197.5 670.254,-179.5 538.102,-179.5"/>
<text text-anchor="middle" x="604.178" y="-185.5" font-family="Helvetica,sans-Serif" font-size="10.00">MK::AdKit::showInterstitial</text>
</a>
</g>
</g>
<!-- Node6&#45;&gt;Node11 -->
<g id="edge11" class="edge"><title>Node6&#45;&gt;Node11</title>
<path fill="none" stroke="midnightblue" d="M466.43,-188.5C489.086,-188.5 514.953,-188.5 538.049,-188.5"/>
<polygon fill="midnightblue" stroke="midnightblue" points="466.269,-185 456.269,-188.5 466.269,-192 466.269,-185"/>
</g>
<!-- Node12 -->
<g id="node12" class="node"><title>Node12</title>
<g id="a_node12"><a xlink:href="namespace_m_k_1_1_ad_kit.html#a339aea64224b42fd0db628bb1ee87b94" target="_top" xlink:title="Shows a top banner ad. ">
<polygon fill="white" stroke="black" points="535.314,-142.5 535.314,-160.5 673.042,-160.5 673.042,-142.5 535.314,-142.5"/>
<text text-anchor="middle" x="604.178" y="-148.5" font-family="Helvetica,sans-Serif" font-size="10.00">MK::AdKit::showTopBanner</text>
</a>
</g>
</g>
<!-- Node6&#45;&gt;Node12 -->
<g id="edge12" class="edge"><title>Node6&#45;&gt;Node12</title>
<path fill="none" stroke="midnightblue" d="M464.207,-177.623C493.1,-172.192 527.644,-165.699 555.064,-160.544"/>
<polygon fill="midnightblue" stroke="midnightblue" points="463.425,-174.209 454.244,-179.496 464.718,-181.088 463.425,-174.209"/>
</g>
<!-- Node13 -->
<g id="node13" class="node"><title>Node13</title>
<g id="a_node13"><a xlink:href="namespace_m_k_1_1_ad_kit.html#a6bca88e69dd5dc1616d521b88eb953cc" target="_top" xlink:title="Returns whether this user has video rewards available or not. ">
<polygon fill="white" stroke="black" points="519.286,-105.5 519.286,-123.5 689.07,-123.5 689.07,-105.5 519.286,-105.5"/>
<text text-anchor="middle" x="604.178" y="-111.5" font-family="Helvetica,sans-Serif" font-size="10.00">MK::AdKit::videoRewardsAvailable</text>
</a>
</g>
</g>
<!-- Node6&#45;&gt;Node13 -->
<g id="edge13" class="edge"><title>Node6&#45;&gt;Node13</title>
<path fill="none" stroke="midnightblue" d="M430.311,-174.418C452.666,-161.821 487.284,-143.671 519.286,-132.5 529.412,-128.965 540.478,-125.995 551.155,-123.552"/>
<polygon fill="midnightblue" stroke="midnightblue" points="428.469,-171.439 421.524,-179.44 431.943,-177.517 428.469,-171.439"/>
</g>
<!-- Node8&#45;&gt;Node8 -->
<g id="edge9" class="edge"><title>Node8&#45;&gt;Node8</title>
<path fill="none" stroke="midnightblue" d="M765.694,-233.487C769.303,-238.441 780.631,-242 799.679,-242 830.156,-242 840.87,-232.89 831.822,-223.53"/>
<polygon fill="midnightblue" stroke="midnightblue" points="769.159,-234 767.536,-223.53 762.276,-232.727 769.159,-234"/>
</g>
<!-- Node9 -->
<g id="node9" class="node"><title>Node9</title>
<g id="a_node9"><a xlink:href="interface_reward_video_delegate.html#a5d8713e80adf05ec03e68072d573ad06" target="_top" xlink:title="&#45;[RewardVideoDelegate\l initWithAdUnitID:andCallback:]">
<polygon fill="white" stroke="black" points="910.288,-195.5 910.288,-223.5 1065.23,-223.5 1065.23,-195.5 910.288,-195.5"/>
<text text-anchor="start" x="918.288" y="-211.5" font-family="Helvetica,sans-Serif" font-size="10.00">&#45;[RewardVideoDelegate</text>
<text text-anchor="middle" x="987.761" y="-201.5" font-family="Helvetica,sans-Serif" font-size="10.00"> initWithAdUnitID:andCallback:]</text>
</a>
</g>
</g>
<!-- Node8&#45;&gt;Node9 -->
<g id="edge8" class="edge"><title>Node8&#45;&gt;Node9</title>
<path fill="none" stroke="midnightblue" d="M877.367,-209.5C888.225,-209.5 899.39,-209.5 910.245,-209.5"/>
<polygon fill="midnightblue" stroke="midnightblue" points="877.071,-206 867.071,-209.5 877.071,-213 877.071,-206"/>
</g>
<!-- Node13&#45;&gt;Node8 -->
<g id="edge14" class="edge"><title>Node13&#45;&gt;Node8</title>
<path fill="none" stroke="midnightblue" d="M672.313,-126.35C678.075,-128.131 683.736,-130.17 689.07,-132.5 725.725,-148.513 762.604,-177.768 782.86,-195.242"/>
<polygon fill="midnightblue" stroke="midnightblue" points="673.132,-122.945 662.557,-123.589 671.226,-129.68 673.132,-122.945"/>
</g>
<!-- Node14 -->
<g id="node14" class="node"><title>Node14</title>
<g id="a_node14"><a xlink:href="namespace_m_k_1_1_ad_kit.html#acafca58cb7a9d2d72bb1990586e506af" target="_top" xlink:title="Shows video reward ad. ">
<polygon fill="white" stroke="black" points="725.07,-105.5 725.07,-123.5 874.288,-123.5 874.288,-105.5 725.07,-105.5"/>
<text text-anchor="middle" x="799.679" y="-111.5" font-family="Helvetica,sans-Serif" font-size="10.00">MK::AdKit::showVideoReward</text>
</a>
</g>
</g>
<!-- Node13&#45;&gt;Node14 -->
<g id="edge15" class="edge"><title>Node13&#45;&gt;Node14</title>
<path fill="none" stroke="midnightblue" d="M699.321,-114.5C707.962,-114.5 716.63,-114.5 725.051,-114.5"/>
<polygon fill="midnightblue" stroke="midnightblue" points="699.206,-111 689.206,-114.5 699.206,-118 699.206,-111"/>
</g>
<!-- Node15&#45;&gt;Node16 -->
<g id="edge17" class="edge"><title>Node15&#45;&gt;Node16</title>
<path fill="none" stroke="midnightblue" d="M493.099,-94.3441C506.013,-91.1949 519.198,-87.9794 531.749,-84.9187"/>
<polygon fill="midnightblue" stroke="midnightblue" points="492.177,-90.9661 483.291,-96.7357 493.836,-97.7668 492.177,-90.9661"/>
</g>
</g>
</svg>
        <g id="navigator" transform="translate(0 0)" fill="#404254">
                <rect fill="#f2f5e9" fill-opacity="0.5" stroke="#606060" stroke-width=".5" x="0" y="0" width="60" height="60"/>
                <use id="zoomplus" xlink:href="#zoomPlus" x="17" y="9" onmousedown="handleZoom(evt,'in')"/>
                <use id="zoomminus" xlink:href="#zoomMin" x="42" y="9" onmousedown="handleZoom(evt,'out')"/>
                <use id="reset" xlink:href="#resetDef" x="30" y="36" onmousedown="handleReset()"/>
                <g id="arrowUp" xlink:href="#dirArrow" transform="translate(30 24)" onmousedown="handlePan(0,-1)">
                  <use xlink:href="#rim" fill="#404040">
                        <set attributeName="fill" to="#808080" begin="arrowUp.mouseover" end="arrowUp.mouseout"/>
                  </use>
                  <path fill="none" stroke="white" stroke-width="1.5" d="M0,-3.0v7 M-2.5,-0.5L0,-3.0L2.5,-0.5"/>
                </g>
                <g id="arrowRight" xlink:href="#dirArrow" transform="rotate(90) translate(36 -43)" onmousedown="handlePan(1,0)">
                  <use xlink:href="#rim" fill="#404040">
                        <set attributeName="fill" to="#808080" begin="arrowRight.mouseover" end="arrowRight.mouseout"/>
                  </use>
                  <path fill="none" stroke="white" stroke-width="1.5" d="M0,-3.0v7 M-2.5,-0.5L0,-3.0L2.5,-0.5"/>
                </g>
                <g id="arrowDown" xlink:href="#dirArrow" transform="rotate(180) translate(-30 -48)" onmousedown="handlePan(0,1)">
                  <use xlink:href="#rim" fill="#404040">
                        <set attributeName="fill" to="#808080" begin="arrowDown.mouseover" end="arrowDown.mouseout"/>
                  </use>
                  <path fill="none" stroke="white" stroke-width="1.5" d="M0,-3.0v7 M-2.5,-0.5L0,-3.0L2.5,-0.5"/>
                </g>
                <g id="arrowLeft" xlink:href="#dirArrow" transform="rotate(270) translate(-36 17)" onmousedown="handlePan(-1,0)">
                  <use xlink:href="#rim" fill="#404040">
                        <set attributeName="fill" to="#808080" begin="arrowLeft.mouseover" end="arrowLeft.mouseout"/>
                  </use>
                  <path fill="none" stroke="white" stroke-width="1.5" d="M0,-3.0v7 M-2.5,-0.5L0,-3.0L2.5,-0.5"/>
                </g>
        </g>
        <svg viewBox="0 0 15 15" width="100%" height="30px" preserveAspectRatio="xMaxYMin meet">
         <g id="arrow_out" transform="scale(0.3 0.3)">
          <a xlink:href="namespace_m_k_1_1_device_a7c83a89bef610abaa7ada09d38c2f3fb_icgraph_org.svg" target="_base">
           <rect id="button" ry="5" rx="5" y="6" x="6" height="38" width="38"
                fill="#f2f5e9" fill-opacity="0.5" stroke="#606060" stroke-width="1.0"/>
           <path id="arrow"
             d="M 11.500037,31.436501 C 11.940474,20.09759 22.043105,11.32322 32.158766,21.979434 L 37.068811,17.246167 C 37.068811,17.246167 37.088388,32 37.088388,32 L 22.160133,31.978069 C 22.160133,31.978069 26.997745,27.140456 26.997745,27.140456 C 18.528582,18.264221 13.291696,25.230495 11.500037,31.436501 z"
             style="fill:#404040;"/>
          </a>
         </g>
        </svg>
</svg>
