<?xml version="1.0" encoding="UTF-8" standalone="no"?>
<!DOCTYPE svg PUBLIC "-//W3C//DTD SVG 1.1//EN"
 "http://www.w3.org/Graphics/SVG/1.1/DTD/svg11.dtd">
<!-- Generated by graphviz version 2.38.0 (20140413.2041)
 -->
<!-- Title: MK::KVDatabase::increaseLongValueForKey Pages: 1 -->
<svg width="319pt" height="37pt"
 viewBox="0.00 0.00 319.46 37.00" xmlns="http://www.w3.org/2000/svg" xmlns:xlink="http://www.w3.org/1999/xlink">
<g id="graph0" class="graph" transform="scale(1 1) rotate(0) translate(4 33)">
<title>MK::KVDatabase::increaseLongValueForKey</title>
<polygon fill="white" stroke="none" points="-4,4 -4,-33 315.457,-33 315.457,4 -4,4"/>
<!-- Node1 -->
<g id="node1" class="node"><title>Node1</title>
<polygon fill="#bfbfbf" stroke="black" points="0,-0.5 0,-28.5 136.059,-28.5 136.059,-0.5 0,-0.5"/>
<text text-anchor="start" x="8" y="-16.5" font-family="Helvetica,sans-Serif" font-size="10.00">MK::KVDatabase::increase</text>
<text text-anchor="middle" x="68.0293" y="-6.5" font-family="Helvetica,sans-Serif" font-size="10.00">LongValueForKey</text>
</g>
<!-- Node2 -->
<g id="node2" class="node"><title>Node2</title>
<g id="a_node2"><a xlink:href="namespace_m_k_1_1_k_v_database.html#ad79c7c1255ddfb778041afba1f47e903" target="_top" xlink:title="Decreases long value for given key by given amount. ">
<polygon fill="white" stroke="black" points="172.059,-0.5 172.059,-28.5 311.457,-28.5 311.457,-0.5 172.059,-0.5"/>
<text text-anchor="start" x="180.059" y="-16.5" font-family="Helvetica,sans-Serif" font-size="10.00">MK::KVDatabase::decrease</text>
<text text-anchor="middle" x="241.758" y="-6.5" font-family="Helvetica,sans-Serif" font-size="10.00">LongValueForKey</text>
</a>
</g>
</g>
<!-- Node1&#45;&gt;Node2 -->
<g id="edge1" class="edge"><title>Node1&#45;&gt;Node2</title>
<path fill="none" stroke="midnightblue" d="M146.61,-14.5C155.035,-14.5 163.568,-14.5 171.879,-14.5"/>
<polygon fill="midnightblue" stroke="midnightblue" points="146.408,-11.0001 136.408,-14.5 146.408,-18.0001 146.408,-11.0001"/>
</g>
</g>
</svg>
