<?xml version="1.0" encoding="UTF-8" standalone="no"?>
<!DOCTYPE svg PUBLIC "-//W3C//DTD SVG 1.1//EN"
 "http://www.w3.org/Graphics/SVG/1.1/DTD/svg11.dtd">
<!-- Generated by graphviz version 2.38.0 (20140413.2041)
 -->
<!-- Title: MK::AdKit::videoRewardsAvailable Pages: 1 -->
<svg width="554pt" height="92pt"
 viewBox="0.00 0.00 553.95 92.00" xmlns="http://www.w3.org/2000/svg" xmlns:xlink="http://www.w3.org/1999/xlink">
<g id="graph0" class="graph" transform="scale(1 1) rotate(0) translate(4 88)">
<title>MK::AdKit::videoRewardsAvailable</title>
<polygon fill="white" stroke="none" points="-4,4 -4,-88 549.947,-88 549.947,4 -4,4"/>
<!-- Node1 -->
<g id="node1" class="node"><title>Node1</title>
<polygon fill="#bfbfbf" stroke="black" points="0,-21.5 0,-39.5 169.784,-39.5 169.784,-21.5 0,-21.5"/>
<text text-anchor="middle" x="84.8921" y="-27.5" font-family="Helvetica,sans-Serif" font-size="10.00">MK::AdKit::videoRewardsAvailable</text>
</g>
<!-- Node2 -->
<g id="node2" class="node"><title>Node2</title>
<g id="a_node2"><a xlink:href="interface_reward_video_delegate.html#a0bfa3f23795d0ad8cedcb3c7601b9305" target="_top" xlink:title="&#45;[RewardVideoDelegate\l requestNewRewardVideo]">
<polygon fill="white" stroke="black" points="213.006,-37.5 213.006,-65.5 347.78,-65.5 347.78,-37.5 213.006,-37.5"/>
<text text-anchor="start" x="221.006" y="-53.5" font-family="Helvetica,sans-Serif" font-size="10.00">&#45;[RewardVideoDelegate</text>
<text text-anchor="middle" x="280.393" y="-43.5" font-family="Helvetica,sans-Serif" font-size="10.00"> requestNewRewardVideo]</text>
</a>
</g>
</g>
<!-- Node1&#45;&gt;Node2 -->
<g id="edge1" class="edge"><title>Node1&#45;&gt;Node2</title>
<path fill="none" stroke="midnightblue" d="M179.082,-40.6136C190.505,-41.8533 201.994,-43.1001 212.911,-44.2849"/>
<polygon fill="midnightblue" stroke="midnightblue" points="179.396,-37.1272 169.077,-39.5278 178.641,-44.0864 179.396,-37.1272"/>
</g>
<!-- Node4 -->
<g id="node4" class="node"><title>Node4</title>
<g id="a_node4"><a xlink:href="namespace_m_k_1_1_ad_kit.html#acafca58cb7a9d2d72bb1990586e506af" target="_top" xlink:title="Shows video reward ad. ">
<polygon fill="white" stroke="black" points="205.784,-0.5 205.784,-18.5 355.002,-18.5 355.002,-0.5 205.784,-0.5"/>
<text text-anchor="middle" x="280.393" y="-6.5" font-family="Helvetica,sans-Serif" font-size="10.00">MK::AdKit::showVideoReward</text>
</a>
</g>
</g>
<!-- Node1&#45;&gt;Node4 -->
<g id="edge4" class="edge"><title>Node1&#45;&gt;Node4</title>
<path fill="none" stroke="midnightblue" d="M179.126,-20.3817C188.055,-19.4126 197.025,-18.4391 205.73,-17.4944"/>
<polygon fill="midnightblue" stroke="midnightblue" points="178.641,-16.9136 169.077,-21.4722 179.396,-23.8728 178.641,-16.9136"/>
</g>
<!-- Node2&#45;&gt;Node2 -->
<g id="edge3" class="edge"><title>Node2&#45;&gt;Node2</title>
<path fill="none" stroke="midnightblue" d="M246.408,-75.4873C250.017,-80.4413 261.345,-84 280.393,-84 310.87,-84 321.584,-74.8898 312.536,-65.5305"/>
<polygon fill="midnightblue" stroke="midnightblue" points="249.873,-76.0003 248.25,-65.5305 242.989,-74.7271 249.873,-76.0003"/>
</g>
<!-- Node3 -->
<g id="node3" class="node"><title>Node3</title>
<g id="a_node3"><a xlink:href="interface_reward_video_delegate.html#a5d8713e80adf05ec03e68072d573ad06" target="_top" xlink:title="&#45;[RewardVideoDelegate\l initWithAdUnitID:andCallback:]">
<polygon fill="white" stroke="black" points="391.002,-37.5 391.002,-65.5 545.947,-65.5 545.947,-37.5 391.002,-37.5"/>
<text text-anchor="start" x="399.002" y="-53.5" font-family="Helvetica,sans-Serif" font-size="10.00">&#45;[RewardVideoDelegate</text>
<text text-anchor="middle" x="468.475" y="-43.5" font-family="Helvetica,sans-Serif" font-size="10.00"> initWithAdUnitID:andCallback:]</text>
</a>
</g>
</g>
<!-- Node2&#45;&gt;Node3 -->
<g id="edge2" class="edge"><title>Node2&#45;&gt;Node3</title>
<path fill="none" stroke="midnightblue" d="M358.081,-51.5C368.939,-51.5 380.104,-51.5 390.958,-51.5"/>
<polygon fill="midnightblue" stroke="midnightblue" points="357.785,-48.0001 347.785,-51.5 357.785,-55.0001 357.785,-48.0001"/>
</g>
</g>
</svg>
