<?xml version="1.0" encoding="UTF-8" standalone="no"?>
<!DOCTYPE svg PUBLIC "-//W3C//DTD SVG 1.1//EN"
 "http://www.w3.org/Graphics/SVG/1.1/DTD/svg11.dtd">
<!-- Generated by graphviz version 2.38.0 (20140413.2041)
 -->
<!-- Title: MK::GameKit::isAvailable Pages: 1 -->
<svg width="807pt" height="71pt"
 viewBox="0.00 0.00 806.56 71.00" xmlns="http://www.w3.org/2000/svg" xmlns:xlink="http://www.w3.org/1999/xlink">
<g id="graph0" class="graph" transform="scale(1 1) rotate(0) translate(4 67)">
<title>MK::GameKit::isAvailable</title>
<polygon fill="white" stroke="none" points="-4,4 -4,-67 802.561,-67 802.561,4 -4,4"/>
<!-- Node1 -->
<g id="node1" class="node"><title>Node1</title>
<polygon fill="#bfbfbf" stroke="black" points="0,-34.5 0,-52.5 128.642,-52.5 128.642,-34.5 0,-34.5"/>
<text text-anchor="middle" x="64.3208" y="-40.5" font-family="Helvetica,sans-Serif" font-size="10.00">MK::GameKit::isAvailable</text>
</g>
<!-- Node2 -->
<g id="node2" class="node"><title>Node2</title>
<g id="a_node2"><a xlink:href="namespace_m_k_1_1_game_kit.html#abb3b0052dac094d7e492bb0cbb1a1e8b" target="_top" xlink:title="MK::GameKit::Java_org\l_cocos2dx_cpp_AppActivity\l_callCppScoreCallback">
<polygon fill="white" stroke="black" points="164.642,-24.5 164.642,-62.5 305.158,-62.5 305.158,-24.5 164.642,-24.5"/>
<text text-anchor="start" x="172.642" y="-50.5" font-family="Helvetica,sans-Serif" font-size="10.00">MK::GameKit::Java_org</text>
<text text-anchor="start" x="172.642" y="-40.5" font-family="Helvetica,sans-Serif" font-size="10.00">_cocos2dx_cpp_AppActivity</text>
<text text-anchor="middle" x="234.9" y="-30.5" font-family="Helvetica,sans-Serif" font-size="10.00">_callCppScoreCallback</text>
</a>
</g>
</g>
<!-- Node1&#45;&gt;Node2 -->
<g id="edge1" class="edge"><title>Node1&#45;&gt;Node2</title>
<path fill="none" stroke="midnightblue" d="M129.053,-43.5C137.273,-43.5 145.77,-43.5 154.206,-43.5"/>
<polygon fill="midnightblue" stroke="midnightblue" points="154.443,-47.0001 164.443,-43.5 154.443,-40.0001 154.443,-47.0001"/>
</g>
<!-- Node3 -->
<g id="node3" class="node"><title>Node3</title>
<g id="a_node3"><a xlink:href="namespace_m_k_1_1_log.html#a3e84a309c158873fecff57e1db770c9a" target="_top" xlink:title="Logs a debug message that will not appear also in release builds. ">
<polygon fill="white" stroke="black" points="711.955,-34.5 711.955,-52.5 798.561,-52.5 798.561,-34.5 711.955,-34.5"/>
<text text-anchor="middle" x="755.258" y="-40.5" font-family="Helvetica,sans-Serif" font-size="10.00">MK::Log::debug</text>
</a>
</g>
</g>
<!-- Node2&#45;&gt;Node3 -->
<g id="edge2" class="edge"><title>Node2&#45;&gt;Node3</title>
<path fill="none" stroke="midnightblue" d="M305.248,-46.5097C317.221,-46.9222 329.548,-47.2795 341.158,-47.5 489.93,-50.3258 527.205,-51.2969 675.955,-47.5 684.178,-47.2901 692.882,-46.9564 701.382,-46.5691"/>
<polygon fill="midnightblue" stroke="midnightblue" points="701.783,-50.0539 711.602,-46.0747 701.445,-43.062 701.783,-50.0539"/>
</g>
<!-- Node4 -->
<g id="node4" class="node"><title>Node4</title>
<g id="a_node4"><a xlink:href="namespace_m_k_1_1_game_kit.html#a148ebf1481b3aa5094f533f07b62395c" target="_top" xlink:title="MK::GameKit::Java_org\l_cocos2dx_cpp_AppActivity\l_callCppFriendScoreCallback">
<polygon fill="white" stroke="black" points="341.158,-0.5 341.158,-38.5 488.887,-38.5 488.887,-0.5 341.158,-0.5"/>
<text text-anchor="start" x="349.158" y="-26.5" font-family="Helvetica,sans-Serif" font-size="10.00">MK::GameKit::Java_org</text>
<text text-anchor="start" x="349.158" y="-16.5" font-family="Helvetica,sans-Serif" font-size="10.00">_cocos2dx_cpp_AppActivity</text>
<text text-anchor="middle" x="415.022" y="-6.5" font-family="Helvetica,sans-Serif" font-size="10.00">_callCppFriendScoreCallback</text>
</a>
</g>
</g>
<!-- Node2&#45;&gt;Node4 -->
<g id="edge3" class="edge"><title>Node2&#45;&gt;Node4</title>
<path fill="none" stroke="midnightblue" d="M305.277,-34.1523C313.702,-33.0171 322.375,-31.8485 330.972,-30.6901"/>
<polygon fill="midnightblue" stroke="midnightblue" points="331.568,-34.1415 341.011,-29.3375 330.633,-27.2042 331.568,-34.1415"/>
</g>
<!-- Node5 -->
<g id="node5" class="node"><title>Node5</title>
<g id="a_node5"><a xlink:href="namespace_m_k_1_1_game_kit.html#aeea3e0c832dd9d93302d16f38b76c64e" target="_top" xlink:title="MK::GameKit::Java_org\l_cocos2dx_cpp_AppActivity\l_callCppAchievementCallback">
<polygon fill="white" stroke="black" points="524.887,-0.5 524.887,-38.5 675.955,-38.5 675.955,-0.5 524.887,-0.5"/>
<text text-anchor="start" x="532.887" y="-26.5" font-family="Helvetica,sans-Serif" font-size="10.00">MK::GameKit::Java_org</text>
<text text-anchor="start" x="532.887" y="-16.5" font-family="Helvetica,sans-Serif" font-size="10.00">_cocos2dx_cpp_AppActivity</text>
<text text-anchor="middle" x="600.421" y="-6.5" font-family="Helvetica,sans-Serif" font-size="10.00">_callCppAchievementCallback</text>
</a>
</g>
</g>
<!-- Node4&#45;&gt;Node5 -->
<g id="edge4" class="edge"><title>Node4&#45;&gt;Node5</title>
<path fill="none" stroke="midnightblue" d="M489.033,-19.5C497.505,-19.5 506.2,-19.5 514.81,-19.5"/>
<polygon fill="midnightblue" stroke="midnightblue" points="514.861,-23.0001 524.861,-19.5 514.861,-16.0001 514.861,-23.0001"/>
</g>
<!-- Node5&#45;&gt;Node3 -->
<g id="edge5" class="edge"><title>Node5&#45;&gt;Node3</title>
<path fill="none" stroke="midnightblue" d="M676.048,-31.2188C684.776,-32.5892 693.534,-33.9645 701.868,-35.2732"/>
<polygon fill="midnightblue" stroke="midnightblue" points="701.37,-38.7379 711.792,-36.8316 702.456,-31.8226 701.37,-38.7379"/>
</g>
</g>
</svg>
