<?xml version="1.0" encoding="UTF-8" standalone="no"?>
<!DOCTYPE svg PUBLIC "-//W3C//DTD SVG 1.1//EN"
 "http://www.w3.org/Graphics/SVG/1.1/DTD/svg11.dtd">
<!-- Generated by graphviz version 2.38.0 (20140413.2041)
 -->
<!-- Title: MK::Log::nonCriticalCrash Pages: 1 -->
<svg width="509pt" height="92pt"
 viewBox="0.00 0.00 509.26 92.00" xmlns="http://www.w3.org/2000/svg" xmlns:xlink="http://www.w3.org/1999/xlink">
<g id="graph0" class="graph" transform="scale(1 1) rotate(0) translate(4 88)">
<title>MK::Log::nonCriticalCrash</title>
<polygon fill="white" stroke="none" points="-4,4 -4,-88 505.265,-88 505.265,4 -4,4"/>
<!-- Node1 -->
<g id="node1" class="node"><title>Node1</title>
<polygon fill="#bfbfbf" stroke="black" points="0,-35.5 0,-53.5 132.714,-53.5 132.714,-35.5 0,-35.5"/>
<text text-anchor="middle" x="66.3569" y="-41.5" font-family="Helvetica,sans-Serif" font-size="10.00">MK::Log::nonCriticalCrash</text>
</g>
<!-- Node2 -->
<g id="node2" class="node"><title>Node2</title>
<g id="a_node2"><a xlink:href="namespace_m_k_1_1_game_kit.html#a5da107e47390d3e64f88e82d7d994d4e" target="_top" xlink:title="Signs in player in Game Center. ">
<polygon fill="white" stroke="black" points="168.714,-65.5 168.714,-83.5 310.319,-83.5 310.319,-65.5 168.714,-65.5"/>
<text text-anchor="middle" x="239.517" y="-71.5" font-family="Helvetica,sans-Serif" font-size="10.00">MK::GameKit::_signInPlayer</text>
</a>
</g>
</g>
<!-- Node1&#45;&gt;Node2 -->
<g id="edge1" class="edge"><title>Node1&#45;&gt;Node2</title>
<path fill="none" stroke="midnightblue" d="M128.783,-55.2665C147.823,-58.6038 168.601,-62.2455 186.904,-65.4536"/>
<polygon fill="midnightblue" stroke="midnightblue" points="129.165,-51.7801 118.71,-53.501 127.956,-58.6749 129.165,-51.7801"/>
</g>
<!-- Node3 -->
<g id="node3" class="node"><title>Node3</title>
<g id="a_node3"><a xlink:href="interface_reward_video_delegate.html#a0bfa3f23795d0ad8cedcb3c7601b9305" target="_top" xlink:title="&#45;[RewardVideoDelegate\l requestNewRewardVideo]">
<polygon fill="white" stroke="black" points="172.129,-0.5 172.129,-28.5 306.904,-28.5 306.904,-0.5 172.129,-0.5"/>
<text text-anchor="start" x="180.129" y="-16.5" font-family="Helvetica,sans-Serif" font-size="10.00">&#45;[RewardVideoDelegate</text>
<text text-anchor="middle" x="239.517" y="-6.5" font-family="Helvetica,sans-Serif" font-size="10.00"> requestNewRewardVideo]</text>
</a>
</g>
</g>
<!-- Node1&#45;&gt;Node3 -->
<g id="edge2" class="edge"><title>Node1&#45;&gt;Node3</title>
<path fill="none" stroke="midnightblue" d="M128.734,-33.7421C142.763,-31.2833 157.737,-28.6587 171.97,-26.1639"/>
<polygon fill="midnightblue" stroke="midnightblue" points="127.956,-30.3251 118.71,-35.499 129.165,-37.2199 127.956,-30.3251"/>
</g>
<!-- Node3&#45;&gt;Node3 -->
<g id="edge4" class="edge"><title>Node3&#45;&gt;Node3</title>
<path fill="none" stroke="midnightblue" d="M208.424,-38.4873C211.726,-43.4413 222.09,-47 239.517,-47 267.399,-47 277.202,-37.8898 268.924,-28.5305"/>
<polygon fill="midnightblue" stroke="midnightblue" points="211.891,-38.9743 210.109,-28.5305 204.99,-37.8063 211.891,-38.9743"/>
</g>
<!-- Node4 -->
<g id="node4" class="node"><title>Node4</title>
<g id="a_node4"><a xlink:href="interface_reward_video_delegate.html#a5d8713e80adf05ec03e68072d573ad06" target="_top" xlink:title="&#45;[RewardVideoDelegate\l initWithAdUnitID:andCallback:]">
<polygon fill="white" stroke="black" points="346.319,-0.5 346.319,-28.5 501.265,-28.5 501.265,-0.5 346.319,-0.5"/>
<text text-anchor="start" x="354.319" y="-16.5" font-family="Helvetica,sans-Serif" font-size="10.00">&#45;[RewardVideoDelegate</text>
<text text-anchor="middle" x="423.792" y="-6.5" font-family="Helvetica,sans-Serif" font-size="10.00"> initWithAdUnitID:andCallback:]</text>
</a>
</g>
</g>
<!-- Node3&#45;&gt;Node4 -->
<g id="edge3" class="edge"><title>Node3&#45;&gt;Node4</title>
<path fill="none" stroke="midnightblue" d="M317.351,-14.5C326.899,-14.5 336.661,-14.5 346.205,-14.5"/>
<polygon fill="midnightblue" stroke="midnightblue" points="317.096,-11.0001 307.096,-14.5 317.096,-18.0001 317.096,-11.0001"/>
</g>
</g>
</svg>
