<?xml version="1.0" encoding="UTF-8" standalone="no"?>
<!DOCTYPE svg PUBLIC "-//W3C//DTD SVG 1.1//EN"
 "http://www.w3.org/Graphics/SVG/1.1/DTD/svg11.dtd">
<!-- Generated by graphviz version 2.38.0 (20140413.2041)
 -->
<!-- Title: MK::KVDatabase::increaseLongValueForKey Pages: 1 -->
<svg width="588pt" height="84pt"
 viewBox="0.00 0.00 588.46 84.00" xmlns="http://www.w3.org/2000/svg" xmlns:xlink="http://www.w3.org/1999/xlink">
<g id="graph0" class="graph" transform="scale(1 1) rotate(0) translate(4 80)">
<title>MK::KVDatabase::increaseLongValueForKey</title>
<polygon fill="white" stroke="none" points="-4,4 -4,-80 584.464,-80 584.464,4 -4,4"/>
<!-- Node1 -->
<g id="node1" class="node"><title>Node1</title>
<polygon fill="#bfbfbf" stroke="black" points="0,-23.5 0,-51.5 136.059,-51.5 136.059,-23.5 0,-23.5"/>
<text text-anchor="start" x="8" y="-39.5" font-family="Helvetica,sans-Serif" font-size="10.00">MK::KVDatabase::increase</text>
<text text-anchor="middle" x="68.0293" y="-29.5" font-family="Helvetica,sans-Serif" font-size="10.00">LongValueForKey</text>
</g>
<!-- Node2 -->
<g id="node2" class="node"><title>Node2</title>
<g id="a_node2"><a xlink:href="namespace_m_k_1_1_k_v_database.html#a4058098a441fb6e62605317242ebb54a" target="_top" xlink:title="Sets given key in database to the result of applying given binary operation to previous value (defaul...">
<polygon fill="white" stroke="black" points="172.059,-23.5 172.059,-51.5 385.217,-51.5 385.217,-23.5 172.059,-23.5"/>
<text text-anchor="start" x="180.059" y="-39.5" font-family="Helvetica,sans-Serif" font-size="10.00">MK::KVDatabase::storeApplying</text>
<text text-anchor="middle" x="278.638" y="-29.5" font-family="Helvetica,sans-Serif" font-size="10.00">BinaryOperationAndReturningPreviousValue</text>
</a>
</g>
</g>
<!-- Node1&#45;&gt;Node2 -->
<g id="edge1" class="edge"><title>Node1&#45;&gt;Node2</title>
<path fill="none" stroke="midnightblue" d="M136.183,-37.5C144.401,-37.5 152.973,-37.5 161.655,-37.5"/>
<polygon fill="midnightblue" stroke="midnightblue" points="161.882,-41.0001 171.882,-37.5 161.882,-34.0001 161.882,-41.0001"/>
</g>
<!-- Node3 -->
<g id="node3" class="node"><title>Node3</title>
<g id="a_node3"><a xlink:href="namespace_m_k_1_1_k_v_database.html#a767b41659c2ee79a635285b4ae078aa7" target="_top" xlink:title="Returns long value associated with given key. ">
<polygon fill="white" stroke="black" points="421.217,-47.5 421.217,-75.5 580.464,-75.5 580.464,-47.5 421.217,-47.5"/>
<text text-anchor="start" x="429.217" y="-63.5" font-family="Helvetica,sans-Serif" font-size="10.00">MK::KVDatabase::getLongValue</text>
<text text-anchor="middle" x="500.84" y="-53.5" font-family="Helvetica,sans-Serif" font-size="10.00">ForKey</text>
</a>
</g>
</g>
<!-- Node2&#45;&gt;Node3 -->
<g id="edge2" class="edge"><title>Node2&#45;&gt;Node3</title>
<path fill="none" stroke="midnightblue" d="M385.224,-49.0079C393.778,-49.9402 402.368,-50.8764 410.787,-51.794"/>
<polygon fill="midnightblue" stroke="midnightblue" points="410.638,-55.2984 420.958,-52.9026 411.396,-48.3396 410.638,-55.2984"/>
</g>
<!-- Node4 -->
<g id="node4" class="node"><title>Node4</title>
<g id="a_node4"><a xlink:href="namespace_m_k_1_1_k_v_database.html#a8c40584219ca43eb9a2e65f14e328816" target="_top" xlink:title="Sets long value for given key. ">
<polygon fill="white" stroke="black" points="421.498,-0.5 421.498,-28.5 580.183,-28.5 580.183,-0.5 421.498,-0.5"/>
<text text-anchor="start" x="429.498" y="-16.5" font-family="Helvetica,sans-Serif" font-size="10.00">MK::KVDatabase::setLongValue</text>
<text text-anchor="middle" x="500.84" y="-6.5" font-family="Helvetica,sans-Serif" font-size="10.00">ForKey</text>
</a>
</g>
</g>
<!-- Node2&#45;&gt;Node4 -->
<g id="edge3" class="edge"><title>Node2&#45;&gt;Node4</title>
<path fill="none" stroke="midnightblue" d="M385.224,-26.4716C393.951,-25.5601 402.716,-24.6446 411.298,-23.7481"/>
<polygon fill="midnightblue" stroke="midnightblue" points="411.695,-27.2259 421.277,-22.7059 410.968,-20.2637 411.695,-27.2259"/>
</g>
</g>
</svg>
