<?xml version="1.0" encoding="UTF-8" standalone="no"?>
<!DOCTYPE svg PUBLIC "-//W3C//DTD SVG 1.1//EN"
 "http://www.w3.org/Graphics/SVG/1.1/DTD/svg11.dtd">
<!-- Generated by graphviz version 2.38.0 (20140413.2041)
 -->
<!-- Title: MK::Log::debug Pages: 1 -->
<!--zoomable 194 -->
<svg id="main" version="1.1" xmlns="http://www.w3.org/2000/svg" xmlns:xlink="http://www.w3.org/1999/xlink" xml:space="preserve" onload="init(evt)">
<style type="text/css"><![CDATA[
.edge:hover path { stroke: red; }
.edge:hover polygon { stroke: red; fill: red; }
]]></style>
<script type="text/javascript"><![CDATA[
var edges = document.getElementsByTagName('g');
if (edges && edges.length) {
  for (var i=0;i<edges.length;i++) {
    if (edges[i].id.substr(0,4)=='edge') {
      edges[i].setAttribute('class','edge');
    }
  }
}
]]></script>
        <defs>
                <circle id="rim" cx="0" cy="0" r="7"/>
                <circle id="rim2" cx="0" cy="0" r="3.5"/>
                <g id="zoomPlus">
                        <use xlink:href="#rim" fill="#404040">
                                <set attributeName="fill" to="#808080" begin="zoomplus.mouseover" end="zoomplus.mouseout"/>
                        </use>
                        <path d="M-4,0h8M0,-4v8" fill="none" stroke="white" stroke-width="1.5" pointer-events="none"/>
                </g>
                <g id="zoomMin">
                        <use xlink:href="#rim" fill="#404040">
                                <set attributeName="fill" to="#808080" begin="zoomminus.mouseover" end="zoomminus.mouseout"/>
                        </use>
                        <path d="M-4,0h8" fill="none" stroke="white" stroke-width="1.5" pointer-events="none"/>
                </g>
                <g id="dirArrow">
                        <path fill="none" stroke="white" stroke-width="1.5" d="M0,-3.0v7 M-2.5,-0.5L0,-3.0L2.5,-0.5"/>
                </g>
               <g id="resetDef">
                       <use xlink:href="#rim2" fill="#404040">
                               <set attributeName="fill" to="#808080" begin="reset.mouseover" end="reset.mouseout"/>
                       </use>
               </g>
        </defs>

<script type="text/javascript">
var viewWidth = 1398;
var viewHeight = 194;
var sectionId = 'dynsection-0';
</script>
<script xlink:href="svgpan.js"/>
<svg id="graph" class="graph">
<g id="viewport">
<title>MK::Log::debug</title>
<polygon fill="white" stroke="none" points="-4,4 -4,-190.172 1393.96,-190.172 1393.96,4 -4,4"/>
<!-- Node1 -->
<g id="node1" class="node"><title>Node1</title>
<polygon fill="#bfbfbf" stroke="black" points="0,-71.6722 0,-89.6722 86.6055,-89.6722 86.6055,-71.6722 0,-71.6722"/>
<text text-anchor="middle" x="43.3027" y="-77.6722" font-family="Helvetica,sans-Serif" font-size="10.00">MK::Log::debug</text>
</g>
<!-- Node2 -->
<g id="node2" class="node"><title>Node2</title>
<g id="a_node2"><a xlink:href="namespace_m_k_1_1_i_a_p_kit.html#ad4cf30908b63ff36cf48fb6b44c45007" target="_top" xlink:title="Tries to buy given item, calling callback on finished. ">
<polygon fill="white" stroke="black" points="130.669,-139.672 130.669,-157.672 265.61,-157.672 265.61,-139.672 130.669,-139.672"/>
<text text-anchor="middle" x="198.14" y="-145.672" font-family="Helvetica,sans-Serif" font-size="10.00">MK::IAPKit::_buyIfPossible</text>
</a>
</g>
</g>
<!-- Node1&#45;&gt;Node2 -->
<g id="edge1" class="edge"><title>Node1&#45;&gt;Node2</title>
<path fill="none" stroke="midnightblue" d="M64.2978,-95.6237C79.5776,-106.428 101.531,-120.653 122.605,-129.672 131.936,-133.665 142.295,-136.962 152.251,-139.624"/>
<polygon fill="midnightblue" stroke="midnightblue" points="66.2851,-92.7416 56.1296,-89.7225 62.1858,-98.4158 66.2851,-92.7416"/>
</g>
<!-- Node5 -->
<g id="node5" class="node"><title>Node5</title>
<g id="a_node5"><a xlink:href="interface_store_manager.html#ae29fb430ba1264c7f344fe9382eda397" target="_top" xlink:title="Tries to buy product with given identifier, calling given callback on end. ">
<polygon fill="white" stroke="black" points="127.054,-92.6722 127.054,-120.672 269.226,-120.672 269.226,-92.6722 127.054,-92.6722"/>
<text text-anchor="start" x="135.054" y="-108.672" font-family="Helvetica,sans-Serif" font-size="10.00">&#45;[StoreManager buyProduct</text>
<text text-anchor="middle" x="198.14" y="-98.6722" font-family="Helvetica,sans-Serif" font-size="10.00">WithIdentifier:callingOnEnd:]</text>
</a>
</g>
</g>
<!-- Node1&#45;&gt;Node5 -->
<g id="edge4" class="edge"><title>Node1&#45;&gt;Node5</title>
<path fill="none" stroke="midnightblue" d="M96.7781,-89.5991C106.509,-91.2545 116.816,-93.0079 126.975,-94.736"/>
<polygon fill="midnightblue" stroke="midnightblue" points="97.3217,-86.1413 86.8763,-87.9146 96.1477,-93.0422 97.3217,-86.1413"/>
</g>
<!-- Node6 -->
<g id="node6" class="node"><title>Node6</title>
<g id="a_node6"><a xlink:href="namespace_m_k_1_1_game_kit.html#aeea3e0c832dd9d93302d16f38b76c64e" target="_top" xlink:title="MK::GameKit::Java_org\l_cocos2dx_cpp_AppActivity\l_callCppAchievementCallback">
<polygon fill="white" stroke="black" points="122.605,-35.6722 122.605,-73.6722 273.674,-73.6722 273.674,-35.6722 122.605,-35.6722"/>
<text text-anchor="start" x="130.605" y="-61.6722" font-family="Helvetica,sans-Serif" font-size="10.00">MK::GameKit::Java_org</text>
<text text-anchor="start" x="130.605" y="-51.6722" font-family="Helvetica,sans-Serif" font-size="10.00">_cocos2dx_cpp_AppActivity</text>
<text text-anchor="middle" x="198.14" y="-41.6722" font-family="Helvetica,sans-Serif" font-size="10.00">_callCppAchievementCallback</text>
</a>
</g>
</g>
<!-- Node1&#45;&gt;Node6 -->
<g id="edge5" class="edge"><title>Node1&#45;&gt;Node6</title>
<path fill="none" stroke="midnightblue" d="M96.7977,-71.7419C105.128,-70.3248 113.88,-68.836 122.6,-67.3526"/>
<polygon fill="midnightblue" stroke="midnightblue" points="96.1477,-68.3021 86.8763,-73.4297 97.3217,-75.203 96.1477,-68.3021"/>
</g>
<!-- Node8 -->
<g id="node8" class="node"><title>Node8</title>
<g id="a_node8"><a xlink:href="namespace_m_k_1_1_game_kit.html#abb3b0052dac094d7e492bb0cbb1a1e8b" target="_top" xlink:title="MK::GameKit::Java_org\l_cocos2dx_cpp_AppActivity\l_callCppScoreCallback">
<polygon fill="white" stroke="black" points="502.855,-11.6722 502.855,-49.6722 643.372,-49.6722 643.372,-11.6722 502.855,-11.6722"/>
<text text-anchor="start" x="510.855" y="-37.6722" font-family="Helvetica,sans-Serif" font-size="10.00">MK::GameKit::Java_org</text>
<text text-anchor="start" x="510.855" y="-27.6722" font-family="Helvetica,sans-Serif" font-size="10.00">_cocos2dx_cpp_AppActivity</text>
<text text-anchor="middle" x="573.114" y="-17.6722" font-family="Helvetica,sans-Serif" font-size="10.00">_callCppScoreCallback</text>
</a>
</g>
</g>
<!-- Node1&#45;&gt;Node8 -->
<g id="edge14" class="edge"><title>Node1&#45;&gt;Node8</title>
<path fill="none" stroke="midnightblue" d="M60.6874,-64.5513C75.4762,-51.2161 98.5484,-33.2768 122.605,-25.6722 251.902,15.1993 412.754,-1.71229 502.767,-16.7983"/>
<polygon fill="midnightblue" stroke="midnightblue" points="58.2854,-62.0055 53.37,-71.3911 63.0655,-67.1194 58.2854,-62.0055"/>
</g>
<!-- Node3 -->
<g id="node3" class="node"><title>Node3</title>
<g id="a_node3"><a xlink:href="namespace_m_k_1_1_i_a_p_kit.html#a244b106e812be9028b3c9c23f9f51752" target="_top" xlink:title="Tries to buy given item, calling callback on finished. ">
<polygon fill="white" stroke="black" points="323.575,-167.672 323.575,-185.672 452.954,-185.672 452.954,-167.672 323.575,-167.672"/>
<text text-anchor="middle" x="388.265" y="-173.672" font-family="Helvetica,sans-Serif" font-size="10.00">MK::IAPKit::buyIfPossible</text>
</a>
</g>
</g>
<!-- Node2&#45;&gt;Node3 -->
<g id="edge2" class="edge"><title>Node2&#45;&gt;Node3</title>
<path fill="none" stroke="midnightblue" d="M269.634,-159.164C288.335,-161.948 308.363,-164.929 326.496,-167.628"/>
<polygon fill="midnightblue" stroke="midnightblue" points="270.105,-155.696 259.699,-157.686 269.075,-162.62 270.105,-155.696"/>
</g>
<!-- Node4 -->
<g id="node4" class="node"><title>Node4</title>
<g id="a_node4"><a xlink:href="___i_a_p_kit_8cpp.html#a7f86d0f13644c98e90ec2118aa3ddf56" target="_top" xlink:title="Java_org_cocos2dx_cpp\l_AppActivity_callCppPurchases\lCallback">
<polygon fill="white" stroke="black" points="309.674,-110.672 309.674,-148.672 466.855,-148.672 466.855,-110.672 309.674,-110.672"/>
<text text-anchor="start" x="317.674" y="-136.672" font-family="Helvetica,sans-Serif" font-size="10.00">Java_org_cocos2dx_cpp</text>
<text text-anchor="start" x="317.674" y="-126.672" font-family="Helvetica,sans-Serif" font-size="10.00">_AppActivity_callCppPurchases</text>
<text text-anchor="middle" x="388.265" y="-116.672" font-family="Helvetica,sans-Serif" font-size="10.00">Callback</text>
</a>
</g>
</g>
<!-- Node2&#45;&gt;Node4 -->
<g id="edge3" class="edge"><title>Node2&#45;&gt;Node4</title>
<path fill="none" stroke="midnightblue" d="M275.821,-140.928C286.931,-139.806 298.376,-138.65 309.507,-137.525"/>
<polygon fill="midnightblue" stroke="midnightblue" points="275.328,-137.46 265.73,-141.947 276.031,-144.424 275.328,-137.46"/>
</g>
<!-- Node7 -->
<g id="node7" class="node"><title>Node7</title>
<g id="a_node7"><a xlink:href="namespace_m_k_1_1_game_kit.html#a148ebf1481b3aa5094f533f07b62395c" target="_top" xlink:title="MK::GameKit::Java_org\l_cocos2dx_cpp_AppActivity\l_callCppFriendScoreCallback">
<polygon fill="white" stroke="black" points="314.4,-35.6722 314.4,-73.6722 462.129,-73.6722 462.129,-35.6722 314.4,-35.6722"/>
<text text-anchor="start" x="322.4" y="-61.6722" font-family="Helvetica,sans-Serif" font-size="10.00">MK::GameKit::Java_org</text>
<text text-anchor="start" x="322.4" y="-51.6722" font-family="Helvetica,sans-Serif" font-size="10.00">_cocos2dx_cpp_AppActivity</text>
<text text-anchor="middle" x="388.265" y="-41.6722" font-family="Helvetica,sans-Serif" font-size="10.00">_callCppFriendScoreCallback</text>
</a>
</g>
</g>
<!-- Node6&#45;&gt;Node7 -->
<g id="edge6" class="edge"><title>Node6&#45;&gt;Node7</title>
<path fill="none" stroke="midnightblue" d="M283.848,-54.6722C294.001,-54.6722 304.301,-54.6722 314.269,-54.6722"/>
<polygon fill="midnightblue" stroke="midnightblue" points="283.762,-51.1723 273.762,-54.6722 283.762,-58.1723 283.762,-51.1723"/>
</g>
<!-- Node7&#45;&gt;Node8 -->
<g id="edge7" class="edge"><title>Node7&#45;&gt;Node8</title>
<path fill="none" stroke="midnightblue" d="M472.4,-43.7602C482.545,-42.4286 492.827,-41.079 502.741,-39.7778"/>
<polygon fill="midnightblue" stroke="midnightblue" points="471.779,-40.3116 462.32,-45.0833 472.69,-47.252 471.779,-40.3116"/>
</g>
<!-- Node9 -->
<g id="node9" class="node"><title>Node9</title>
<g id="a_node9"><a xlink:href="namespace_m_k_1_1_game_kit.html#ad65cc8a24b47cbb094481c7d0e50d505" target="_top" xlink:title="On Android returns whether Google Play Games is available (true) or not. ">
<polygon fill="white" stroke="black" points="679.372,-21.6722 679.372,-39.6722 808.014,-39.6722 808.014,-21.6722 679.372,-21.6722"/>
<text text-anchor="middle" x="743.693" y="-27.6722" font-family="Helvetica,sans-Serif" font-size="10.00">MK::GameKit::isAvailable</text>
</a>
</g>
</g>
<!-- Node8&#45;&gt;Node9 -->
<g id="edge8" class="edge"><title>Node8&#45;&gt;Node9</title>
<path fill="none" stroke="midnightblue" d="M653.676,-30.6722C662.256,-30.6722 670.902,-30.6722 679.257,-30.6722"/>
<polygon fill="midnightblue" stroke="midnightblue" points="653.655,-27.1723 643.655,-30.6722 653.655,-34.1723 653.655,-27.1723"/>
</g>
<!-- Node10 -->
<g id="node10" class="node"><title>Node10</title>
<g id="a_node10"><a xlink:href="namespace_m_k_1_1_ad_kit.html#a6bca88e69dd5dc1616d521b88eb953cc" target="_top" xlink:title="Returns whether this user has video rewards available or not. ">
<polygon fill="white" stroke="black" points="844.014,-21.6722 844.014,-39.6722 1013.8,-39.6722 1013.8,-21.6722 844.014,-21.6722"/>
<text text-anchor="middle" x="928.906" y="-27.6722" font-family="Helvetica,sans-Serif" font-size="10.00">MK::AdKit::videoRewardsAvailable</text>
</a>
</g>
</g>
<!-- Node9&#45;&gt;Node10 -->
<g id="edge9" class="edge"><title>Node9&#45;&gt;Node10</title>
<path fill="none" stroke="midnightblue" d="M818.349,-30.6722C826.723,-30.6722 835.305,-30.6722 843.801,-30.6722"/>
<polygon fill="midnightblue" stroke="midnightblue" points="818.258,-27.1723 808.258,-30.6722 818.258,-34.1723 818.258,-27.1723"/>
</g>
<!-- Node11 -->
<g id="node11" class="node"><title>Node11</title>
<g id="a_node11"><a xlink:href="interface_reward_video_delegate.html#a0bfa3f23795d0ad8cedcb3c7601b9305" target="_top" xlink:title="&#45;[RewardVideoDelegate\l requestNewRewardVideo]">
<polygon fill="white" stroke="black" points="1057.02,-37.6722 1057.02,-65.6722 1191.79,-65.6722 1191.79,-37.6722 1057.02,-37.6722"/>
<text text-anchor="start" x="1065.02" y="-53.6722" font-family="Helvetica,sans-Serif" font-size="10.00">&#45;[RewardVideoDelegate</text>
<text text-anchor="middle" x="1124.41" y="-43.6722" font-family="Helvetica,sans-Serif" font-size="10.00"> requestNewRewardVideo]</text>
</a>
</g>
</g>
<!-- Node10&#45;&gt;Node11 -->
<g id="edge10" class="edge"><title>Node10&#45;&gt;Node11</title>
<path fill="none" stroke="midnightblue" d="M1023.1,-40.7858C1034.52,-42.0254 1046.01,-43.2723 1056.92,-44.4571"/>
<polygon fill="midnightblue" stroke="midnightblue" points="1023.41,-37.2994 1013.09,-39.6999 1022.65,-44.2585 1023.41,-37.2994"/>
</g>
<!-- Node13 -->
<g id="node13" class="node"><title>Node13</title>
<g id="a_node13"><a xlink:href="namespace_m_k_1_1_ad_kit.html#acafca58cb7a9d2d72bb1990586e506af" target="_top" xlink:title="Shows video reward ad. ">
<polygon fill="white" stroke="black" points="1049.8,-0.672176 1049.8,-18.6722 1199.02,-18.6722 1199.02,-0.672176 1049.8,-0.672176"/>
<text text-anchor="middle" x="1124.41" y="-6.67218" font-family="Helvetica,sans-Serif" font-size="10.00">MK::AdKit::showVideoReward</text>
</a>
</g>
</g>
<!-- Node10&#45;&gt;Node13 -->
<g id="edge13" class="edge"><title>Node10&#45;&gt;Node13</title>
<path fill="none" stroke="midnightblue" d="M1023.14,-20.5539C1032.07,-19.5848 1041.04,-18.6113 1049.74,-17.6666"/>
<polygon fill="midnightblue" stroke="midnightblue" points="1022.65,-17.0858 1013.09,-21.6444 1023.41,-24.045 1022.65,-17.0858"/>
</g>
<!-- Node11&#45;&gt;Node11 -->
<g id="edge12" class="edge"><title>Node11&#45;&gt;Node11</title>
<path fill="none" stroke="midnightblue" d="M1090.42,-75.6595C1094.03,-80.6135 1105.36,-84.1722 1124.41,-84.1722 1154.88,-84.1722 1165.6,-75.062 1156.55,-65.7027"/>
<polygon fill="midnightblue" stroke="midnightblue" points="1093.89,-76.1724 1092.26,-65.7027 1087,-74.8993 1093.89,-76.1724"/>
</g>
<!-- Node12 -->
<g id="node12" class="node"><title>Node12</title>
<g id="a_node12"><a xlink:href="interface_reward_video_delegate.html#a5d8713e80adf05ec03e68072d573ad06" target="_top" xlink:title="&#45;[RewardVideoDelegate\l initWithAdUnitID:andCallback:]">
<polygon fill="white" stroke="black" points="1235.02,-37.6722 1235.02,-65.6722 1389.96,-65.6722 1389.96,-37.6722 1235.02,-37.6722"/>
<text text-anchor="start" x="1243.02" y="-53.6722" font-family="Helvetica,sans-Serif" font-size="10.00">&#45;[RewardVideoDelegate</text>
<text text-anchor="middle" x="1312.49" y="-43.6722" font-family="Helvetica,sans-Serif" font-size="10.00"> initWithAdUnitID:andCallback:]</text>
</a>
</g>
</g>
<!-- Node11&#45;&gt;Node12 -->
<g id="edge11" class="edge"><title>Node11&#45;&gt;Node12</title>
<path fill="none" stroke="midnightblue" d="M1202.09,-51.6722C1212.95,-51.6722 1224.12,-51.6722 1234.97,-51.6722"/>
<polygon fill="midnightblue" stroke="midnightblue" points="1201.8,-48.1723 1191.8,-51.6722 1201.8,-55.1723 1201.8,-48.1723"/>
</g>
</g>
</svg>
        <g id="navigator" transform="translate(0 0)" fill="#404254">
                <rect fill="#f2f5e9" fill-opacity="0.5" stroke="#606060" stroke-width=".5" x="0" y="0" width="60" height="60"/>
                <use id="zoomplus" xlink:href="#zoomPlus" x="17" y="9" onmousedown="handleZoom(evt,'in')"/>
                <use id="zoomminus" xlink:href="#zoomMin" x="42" y="9" onmousedown="handleZoom(evt,'out')"/>
                <use id="reset" xlink:href="#resetDef" x="30" y="36" onmousedown="handleReset()"/>
                <g id="arrowUp" xlink:href="#dirArrow" transform="translate(30 24)" onmousedown="handlePan(0,-1)">
                  <use xlink:href="#rim" fill="#404040">
                        <set attributeName="fill" to="#808080" begin="arrowUp.mouseover" end="arrowUp.mouseout"/>
                  </use>
                  <path fill="none" stroke="white" stroke-width="1.5" d="M0,-3.0v7 M-2.5,-0.5L0,-3.0L2.5,-0.5"/>
                </g>
                <g id="arrowRight" xlink:href="#dirArrow" transform="rotate(90) translate(36 -43)" onmousedown="handlePan(1,0)">
                  <use xlink:href="#rim" fill="#404040">
                        <set attributeName="fill" to="#808080" begin="arrowRight.mouseover" end="arrowRight.mouseout"/>
                  </use>
                  <path fill="none" stroke="white" stroke-width="1.5" d="M0,-3.0v7 M-2.5,-0.5L0,-3.0L2.5,-0.5"/>
                </g>
                <g id="arrowDown" xlink:href="#dirArrow" transform="rotate(180) translate(-30 -48)" onmousedown="handlePan(0,1)">
                  <use xlink:href="#rim" fill="#404040">
                        <set attributeName="fill" to="#808080" begin="arrowDown.mouseover" end="arrowDown.mouseout"/>
                  </use>
                  <path fill="none" stroke="white" stroke-width="1.5" d="M0,-3.0v7 M-2.5,-0.5L0,-3.0L2.5,-0.5"/>
                </g>
                <g id="arrowLeft" xlink:href="#dirArrow" transform="rotate(270) translate(-36 17)" onmousedown="handlePan(-1,0)">
                  <use xlink:href="#rim" fill="#404040">
                        <set attributeName="fill" to="#808080" begin="arrowLeft.mouseover" end="arrowLeft.mouseout"/>
                  </use>
                  <path fill="none" stroke="white" stroke-width="1.5" d="M0,-3.0v7 M-2.5,-0.5L0,-3.0L2.5,-0.5"/>
                </g>
        </g>
        <svg viewBox="0 0 15 15" width="100%" height="30px" preserveAspectRatio="xMaxYMin meet">
         <g id="arrow_out" transform="scale(0.3 0.3)">
          <a xlink:href="namespace_m_k_1_1_log_a3e84a309c158873fecff57e1db770c9a_icgraph_org.svg" target="_base">
           <rect id="button" ry="5" rx="5" y="6" x="6" height="38" width="38"
                fill="#f2f5e9" fill-opacity="0.5" stroke="#606060" stroke-width="1.0"/>
           <path id="arrow"
             d="M 11.500037,31.436501 C 11.940474,20.09759 22.043105,11.32322 32.158766,21.979434 L 37.068811,17.246167 C 37.068811,17.246167 37.088388,32 37.088388,32 L 22.160133,31.978069 C 22.160133,31.978069 26.997745,27.140456 26.997745,27.140456 C 18.528582,18.264221 13.291696,25.230495 11.500037,31.436501 z"
             style="fill:#404040;"/>
          </a>
         </g>
        </svg>
</svg>
