<?xml version="1.0" encoding="UTF-8" standalone="no"?>
<!DOCTYPE svg PUBLIC "-//W3C//DTD SVG 1.1//EN"
 "http://www.w3.org/Graphics/SVG/1.1/DTD/svg11.dtd">
<!-- Generated by graphviz version 2.38.0 (20140413.2041)
 -->
<!-- Title: MK::IAPKit::_buyButtonTitleForProduct Pages: 1 -->
<svg width="340pt" height="94pt"
 viewBox="0.00 0.00 340.20 94.00" xmlns="http://www.w3.org/2000/svg" xmlns:xlink="http://www.w3.org/1999/xlink">
<g id="graph0" class="graph" transform="scale(1 1) rotate(0) translate(4 90)">
<title>MK::IAPKit::_buyButtonTitleForProduct</title>
<polygon fill="white" stroke="none" points="-4,4 -4,-90 336.204,-90 336.204,4 -4,4"/>
<!-- Node1 -->
<g id="node1" class="node"><title>Node1</title>
<polygon fill="#bfbfbf" stroke="black" points="0,-31.5 0,-59.5 139.022,-59.5 139.022,-31.5 0,-31.5"/>
<text text-anchor="start" x="8" y="-47.5" font-family="Helvetica,sans-Serif" font-size="10.00">MK::IAPKit::_buyButtonTitle</text>
<text text-anchor="middle" x="69.5112" y="-37.5" font-family="Helvetica,sans-Serif" font-size="10.00">ForProduct</text>
</g>
<!-- Node2 -->
<g id="node2" class="node"><title>Node2</title>
<g id="a_node2"><a xlink:href="namespace_m_k_1_1_i_a_p_kit.html#a1f52a6b60dd3e544ea0ef1d7a75625cb" target="_top" xlink:title="Returns title of buy button for product with given identifier. ">
<polygon fill="white" stroke="black" points="186.883,-57.5 186.883,-85.5 320.344,-85.5 320.344,-57.5 186.883,-57.5"/>
<text text-anchor="start" x="194.883" y="-73.5" font-family="Helvetica,sans-Serif" font-size="10.00">MK::IAPKit::buyButtonTitle</text>
<text text-anchor="middle" x="253.613" y="-63.5" font-family="Helvetica,sans-Serif" font-size="10.00">ForProduct</text>
</a>
</g>
</g>
<!-- Node1&#45;&gt;Node2 -->
<g id="edge1" class="edge"><title>Node1&#45;&gt;Node2</title>
<path fill="none" stroke="midnightblue" d="M149.093,-56.7196C161.667,-58.5149 174.564,-60.3564 186.801,-62.1036"/>
<polygon fill="midnightblue" stroke="midnightblue" points="149.491,-53.2411 139.097,-55.2924 148.502,-60.1708 149.491,-53.2411"/>
</g>
<!-- Node3 -->
<g id="node3" class="node"><title>Node3</title>
<g id="a_node3"><a xlink:href="___i_a_p_kit_8cpp.html#a7f86d0f13644c98e90ec2118aa3ddf56" target="_top" xlink:title="Java_org_cocos2dx_cpp\l_AppActivity_callCppPurchases\lCallback">
<polygon fill="white" stroke="black" points="175.022,-0.5 175.022,-38.5 332.204,-38.5 332.204,-0.5 175.022,-0.5"/>
<text text-anchor="start" x="183.022" y="-26.5" font-family="Helvetica,sans-Serif" font-size="10.00">Java_org_cocos2dx_cpp</text>
<text text-anchor="start" x="183.022" y="-16.5" font-family="Helvetica,sans-Serif" font-size="10.00">_AppActivity_callCppPurchases</text>
<text text-anchor="middle" x="253.613" y="-6.5" font-family="Helvetica,sans-Serif" font-size="10.00">Callback</text>
</a>
</g>
</g>
<!-- Node1&#45;&gt;Node3 -->
<g id="edge2" class="edge"><title>Node1&#45;&gt;Node3</title>
<path fill="none" stroke="midnightblue" d="M149.071,-34.2835C157.643,-33.0596 166.365,-31.8143 174.926,-30.592"/>
<polygon fill="midnightblue" stroke="midnightblue" points="148.502,-30.8292 139.097,-35.7076 149.491,-37.7589 148.502,-30.8292"/>
</g>
</g>
</svg>
