<?xml version="1.0" encoding="UTF-8" standalone="no"?>
<!DOCTYPE svg PUBLIC "-//W3C//DTD SVG 1.1//EN"
 "http://www.w3.org/Graphics/SVG/1.1/DTD/svg11.dtd">
<!-- Generated by graphviz version 2.38.0 (20140413.2041)
 -->
<!-- Title: MK::IAPKit::productGlobalIDForProductLocalID Pages: 1 -->
<svg width="333pt" height="47pt"
 viewBox="0.00 0.00 333.34 47.00" xmlns="http://www.w3.org/2000/svg" xmlns:xlink="http://www.w3.org/1999/xlink">
<g id="graph0" class="graph" transform="scale(1 1) rotate(0) translate(4 43)">
<title>MK::IAPKit::productGlobalIDForProductLocalID</title>
<polygon fill="white" stroke="none" points="-4,4 -4,-43 329.344,-43 329.344,4 -4,4"/>
<!-- Node1 -->
<g id="node1" class="node"><title>Node1</title>
<polygon fill="#bfbfbf" stroke="black" points="0,-5.5 0,-33.5 132.162,-33.5 132.162,-5.5 0,-5.5"/>
<text text-anchor="start" x="8" y="-21.5" font-family="Helvetica,sans-Serif" font-size="10.00">MK::IAPKit::productGlobal</text>
<text text-anchor="middle" x="66.0811" y="-11.5" font-family="Helvetica,sans-Serif" font-size="10.00">IDForProductLocalID</text>
</g>
<!-- Node2 -->
<g id="node2" class="node"><title>Node2</title>
<g id="a_node2"><a xlink:href="___i_a_p_kit_8cpp.html#a7f86d0f13644c98e90ec2118aa3ddf56" target="_top" xlink:title="Java_org_cocos2dx_cpp\l_AppActivity_callCppPurchases\lCallback">
<polygon fill="white" stroke="black" points="168.162,-0.5 168.162,-38.5 325.344,-38.5 325.344,-0.5 168.162,-0.5"/>
<text text-anchor="start" x="176.162" y="-26.5" font-family="Helvetica,sans-Serif" font-size="10.00">Java_org_cocos2dx_cpp</text>
<text text-anchor="start" x="176.162" y="-16.5" font-family="Helvetica,sans-Serif" font-size="10.00">_AppActivity_callCppPurchases</text>
<text text-anchor="middle" x="246.753" y="-6.5" font-family="Helvetica,sans-Serif" font-size="10.00">Callback</text>
</a>
</g>
</g>
<!-- Node1&#45;&gt;Node2 -->
<g id="edge1" class="edge"><title>Node1&#45;&gt;Node2</title>
<path fill="none" stroke="midnightblue" d="M142.497,-19.5C150.906,-19.5 159.484,-19.5 167.923,-19.5"/>
<polygon fill="midnightblue" stroke="midnightblue" points="142.344,-16.0001 132.344,-19.5 142.344,-23.0001 142.344,-16.0001"/>
</g>
</g>
</svg>
