<?xml version="1.0" encoding="UTF-8" standalone="no"?>
<!DOCTYPE svg PUBLIC "-//W3C//DTD SVG 1.1//EN"
 "http://www.w3.org/Graphics/SVG/1.1/DTD/svg11.dtd">
<!-- Generated by graphviz version 2.38.0 (20140413.2041)
 -->
<!-- Title: MK::KVDatabase::keepMaxLongValueForKey Pages: 1 -->
<svg width="613pt" height="84pt"
 viewBox="0.00 0.00 613.49 84.00" xmlns="http://www.w3.org/2000/svg" xmlns:xlink="http://www.w3.org/1999/xlink">
<g id="graph0" class="graph" transform="scale(1 1) rotate(0) translate(4 80)">
<title>MK::KVDatabase::keepMaxLongValueForKey</title>
<polygon fill="white" stroke="none" points="-4,4 -4,-80 609.488,-80 609.488,4 -4,4"/>
<!-- Node1 -->
<g id="node1" class="node"><title>Node1</title>
<polygon fill="#bfbfbf" stroke="black" points="0,-23.5 0,-51.5 161.083,-51.5 161.083,-23.5 0,-23.5"/>
<text text-anchor="start" x="8" y="-39.5" font-family="Helvetica,sans-Serif" font-size="10.00">MK::KVDatabase::keepMaxLong</text>
<text text-anchor="middle" x="80.5415" y="-29.5" font-family="Helvetica,sans-Serif" font-size="10.00">ValueForKey</text>
</g>
<!-- Node2 -->
<g id="node2" class="node"><title>Node2</title>
<g id="a_node2"><a xlink:href="namespace_m_k_1_1_k_v_database.html#a4058098a441fb6e62605317242ebb54a" target="_top" xlink:title="Sets given key in database to the result of applying given binary operation to previous value (defaul...">
<polygon fill="white" stroke="black" points="197.083,-23.5 197.083,-51.5 410.241,-51.5 410.241,-23.5 197.083,-23.5"/>
<text text-anchor="start" x="205.083" y="-39.5" font-family="Helvetica,sans-Serif" font-size="10.00">MK::KVDatabase::storeApplying</text>
<text text-anchor="middle" x="303.662" y="-29.5" font-family="Helvetica,sans-Serif" font-size="10.00">BinaryOperationAndReturningPreviousValue</text>
</a>
</g>
</g>
<!-- Node1&#45;&gt;Node2 -->
<g id="edge1" class="edge"><title>Node1&#45;&gt;Node2</title>
<path fill="none" stroke="midnightblue" d="M161.371,-37.5C169.64,-37.5 178.158,-37.5 186.719,-37.5"/>
<polygon fill="midnightblue" stroke="midnightblue" points="186.777,-41.0001 196.777,-37.5 186.777,-34.0001 186.777,-41.0001"/>
</g>
<!-- Node3 -->
<g id="node3" class="node"><title>Node3</title>
<g id="a_node3"><a xlink:href="namespace_m_k_1_1_k_v_database.html#a767b41659c2ee79a635285b4ae078aa7" target="_top" xlink:title="Returns long value associated with given key. ">
<polygon fill="white" stroke="black" points="446.241,-47.5 446.241,-75.5 605.488,-75.5 605.488,-47.5 446.241,-47.5"/>
<text text-anchor="start" x="454.241" y="-63.5" font-family="Helvetica,sans-Serif" font-size="10.00">MK::KVDatabase::getLongValue</text>
<text text-anchor="middle" x="525.865" y="-53.5" font-family="Helvetica,sans-Serif" font-size="10.00">ForKey</text>
</a>
</g>
</g>
<!-- Node2&#45;&gt;Node3 -->
<g id="edge2" class="edge"><title>Node2&#45;&gt;Node3</title>
<path fill="none" stroke="midnightblue" d="M410.249,-49.0079C418.802,-49.9402 427.392,-50.8764 435.811,-51.794"/>
<polygon fill="midnightblue" stroke="midnightblue" points="435.662,-55.2984 445.982,-52.9026 436.421,-48.3396 435.662,-55.2984"/>
</g>
<!-- Node4 -->
<g id="node4" class="node"><title>Node4</title>
<g id="a_node4"><a xlink:href="namespace_m_k_1_1_k_v_database.html#a8c40584219ca43eb9a2e65f14e328816" target="_top" xlink:title="Sets long value for given key. ">
<polygon fill="white" stroke="black" points="446.522,-0.5 446.522,-28.5 605.208,-28.5 605.208,-0.5 446.522,-0.5"/>
<text text-anchor="start" x="454.522" y="-16.5" font-family="Helvetica,sans-Serif" font-size="10.00">MK::KVDatabase::setLongValue</text>
<text text-anchor="middle" x="525.865" y="-6.5" font-family="Helvetica,sans-Serif" font-size="10.00">ForKey</text>
</a>
</g>
</g>
<!-- Node2&#45;&gt;Node4 -->
<g id="edge3" class="edge"><title>Node2&#45;&gt;Node4</title>
<path fill="none" stroke="midnightblue" d="M410.249,-26.4716C418.975,-25.5601 427.74,-24.6446 436.323,-23.7481"/>
<polygon fill="midnightblue" stroke="midnightblue" points="436.719,-27.2259 446.302,-22.7059 435.992,-20.2637 436.719,-27.2259"/>
</g>
</g>
</svg>
