<?xml version="1.0" encoding="UTF-8" standalone="no"?>
<!DOCTYPE svg PUBLIC "-//W3C//DTD SVG 1.1//EN"
 "http://www.w3.org/Graphics/SVG/1.1/DTD/svg11.dtd">
<!-- Generated by graphviz version 2.38.0 (20140413.2041)
 -->
<!-- Title: MK::Device::isUsingWifi Pages: 1 -->
<svg width="492pt" height="55pt"
 viewBox="0.00 0.00 491.85 55.00" xmlns="http://www.w3.org/2000/svg" xmlns:xlink="http://www.w3.org/1999/xlink">
<g id="graph0" class="graph" transform="scale(1 1) rotate(0) translate(4 51)">
<title>MK::Device::isUsingWifi</title>
<polygon fill="white" stroke="none" points="-4,4 -4,-51 487.848,-51 487.848,4 -4,4"/>
<!-- Node1 -->
<g id="node1" class="node"><title>Node1</title>
<polygon fill="#bfbfbf" stroke="black" points="0,-5.5 0,-23.5 122.128,-23.5 122.128,-5.5 0,-5.5"/>
<text text-anchor="middle" x="61.064" y="-11.5" font-family="Helvetica,sans-Serif" font-size="10.00">MK::Device::isUsingWifi</text>
</g>
<!-- Node2 -->
<g id="node2" class="node"><title>Node2</title>
<g id="a_node2"><a xlink:href="interface_reward_video_delegate.html#a0bfa3f23795d0ad8cedcb3c7601b9305" target="_top" xlink:title="&#45;[RewardVideoDelegate\l requestNewRewardVideo]">
<polygon fill="white" stroke="black" points="158.128,-0.5 158.128,-28.5 292.902,-28.5 292.902,-0.5 158.128,-0.5"/>
<text text-anchor="start" x="166.128" y="-16.5" font-family="Helvetica,sans-Serif" font-size="10.00">&#45;[RewardVideoDelegate</text>
<text text-anchor="middle" x="225.515" y="-6.5" font-family="Helvetica,sans-Serif" font-size="10.00"> requestNewRewardVideo]</text>
</a>
</g>
</g>
<!-- Node1&#45;&gt;Node2 -->
<g id="edge1" class="edge"><title>Node1&#45;&gt;Node2</title>
<path fill="none" stroke="midnightblue" d="M132.694,-14.5C141.088,-14.5 149.636,-14.5 157.971,-14.5"/>
<polygon fill="midnightblue" stroke="midnightblue" points="132.555,-11.0001 122.555,-14.5 132.555,-18.0001 132.555,-11.0001"/>
</g>
<!-- Node2&#45;&gt;Node2 -->
<g id="edge3" class="edge"><title>Node2&#45;&gt;Node2</title>
<path fill="none" stroke="midnightblue" d="M195.869,-38.4873C199.017,-43.4413 208.899,-47 225.515,-47 252.101,-47 261.448,-37.8898 253.555,-28.5305"/>
<polygon fill="midnightblue" stroke="midnightblue" points="199.338,-38.9603 197.475,-28.5305 192.427,-37.8453 199.338,-38.9603"/>
</g>
<!-- Node3 -->
<g id="node3" class="node"><title>Node3</title>
<g id="a_node3"><a xlink:href="interface_reward_video_delegate.html#a5d8713e80adf05ec03e68072d573ad06" target="_top" xlink:title="&#45;[RewardVideoDelegate\l initWithAdUnitID:andCallback:]">
<polygon fill="white" stroke="black" points="328.902,-0.5 328.902,-28.5 483.848,-28.5 483.848,-0.5 328.902,-0.5"/>
<text text-anchor="start" x="336.902" y="-16.5" font-family="Helvetica,sans-Serif" font-size="10.00">&#45;[RewardVideoDelegate</text>
<text text-anchor="middle" x="406.375" y="-6.5" font-family="Helvetica,sans-Serif" font-size="10.00"> initWithAdUnitID:andCallback:]</text>
</a>
</g>
</g>
<!-- Node2&#45;&gt;Node3 -->
<g id="edge2" class="edge"><title>Node2&#45;&gt;Node3</title>
<path fill="none" stroke="midnightblue" d="M303.311,-14.5C311.748,-14.5 320.338,-14.5 328.772,-14.5"/>
<polygon fill="midnightblue" stroke="midnightblue" points="303.116,-11.0001 293.116,-14.5 303.116,-18.0001 303.116,-11.0001"/>
</g>
</g>
</svg>
