<?xml version="1.0" encoding="UTF-8" standalone="no"?>
<!DOCTYPE svg PUBLIC "-//W3C//DTD SVG 1.1//EN"
 "http://www.w3.org/Graphics/SVG/1.1/DTD/svg11.dtd">
<!-- Generated by graphviz version 2.38.0 (20140413.2041)
 -->
<!-- Title: MK::ABDatabase::init Pages: 1 -->
<svg width="607pt" height="47pt"
 viewBox="0.00 0.00 607.07 47.00" xmlns="http://www.w3.org/2000/svg" xmlns:xlink="http://www.w3.org/1999/xlink">
<g id="graph0" class="graph" transform="scale(1 1) rotate(0) translate(4 43)">
<title>MK::ABDatabase::init</title>
<polygon fill="white" stroke="none" points="-4,4 -4,-43 603.07,-43 603.07,4 -4,4"/>
<!-- Node1 -->
<g id="node1" class="node"><title>Node1</title>
<polygon fill="#bfbfbf" stroke="black" points="0,-10.5 0,-28.5 111.044,-28.5 111.044,-10.5 0,-10.5"/>
<text text-anchor="middle" x="55.522" y="-16.5" font-family="Helvetica,sans-Serif" font-size="10.00">MK::ABDatabase::init</text>
</g>
<!-- Node2 -->
<g id="node2" class="node"><title>Node2</title>
<g id="a_node2"><a xlink:href="_c_p_p_utils_8mm.html#a454603a4e70231351c60f4c95b2107d1" target="_top" xlink:title="Returns NSData with bytes represented by given hexadecimal NSString. ">
<polygon fill="white" stroke="black" points="147.044,-10.5 147.044,-28.5 226.403,-28.5 226.403,-10.5 147.044,-10.5"/>
<text text-anchor="middle" x="186.724" y="-16.5" font-family="Helvetica,sans-Serif" font-size="10.00">HexToNSData</text>
</a>
</g>
</g>
<!-- Node1&#45;&gt;Node2 -->
<g id="edge1" class="edge"><title>Node1&#45;&gt;Node2</title>
<path fill="none" stroke="midnightblue" d="M121.484,-19.5C130.175,-19.5 138.857,-19.5 146.901,-19.5"/>
<polygon fill="midnightblue" stroke="midnightblue" points="121.315,-16.0001 111.315,-19.5 121.315,-23.0001 121.315,-16.0001"/>
</g>
<!-- Node3 -->
<g id="node3" class="node"><title>Node3</title>
<g id="a_node3"><a xlink:href="interface_receipt_validator.html#ab2df585c981dfc992ad4fe8fa09de347" target="_top" xlink:title="+[ReceiptValidator\l receiptAtURL:isValidForBundle\lID:andVersion:]">
<polygon fill="white" stroke="black" points="262.403,-0.5 262.403,-38.5 418.286,-38.5 418.286,-0.5 262.403,-0.5"/>
<text text-anchor="start" x="270.403" y="-26.5" font-family="Helvetica,sans-Serif" font-size="10.00">+[ReceiptValidator</text>
<text text-anchor="start" x="270.403" y="-16.5" font-family="Helvetica,sans-Serif" font-size="10.00"> receiptAtURL:isValidForBundle</text>
<text text-anchor="middle" x="340.345" y="-6.5" font-family="Helvetica,sans-Serif" font-size="10.00">ID:andVersion:]</text>
</a>
</g>
</g>
<!-- Node2&#45;&gt;Node3 -->
<g id="edge2" class="edge"><title>Node2&#45;&gt;Node3</title>
<path fill="none" stroke="midnightblue" d="M236.779,-19.5C244.906,-19.5 253.503,-19.5 262.125,-19.5"/>
<polygon fill="midnightblue" stroke="midnightblue" points="236.77,-16.0001 226.77,-19.5 236.77,-23.0001 236.77,-16.0001"/>
</g>
<!-- Node4 -->
<g id="node4" class="node"><title>Node4</title>
<g id="a_node4"><a xlink:href="interface_receipt_validator.html#a820c68148ab2fedccc43588f8d79dea6" target="_top" xlink:title="+[ReceiptValidator\l appReceiptIsValidForBundle\lID:andVersion:]">
<polygon fill="white" stroke="black" points="454.286,-0.5 454.286,-38.5 599.07,-38.5 599.07,-0.5 454.286,-0.5"/>
<text text-anchor="start" x="462.286" y="-26.5" font-family="Helvetica,sans-Serif" font-size="10.00">+[ReceiptValidator</text>
<text text-anchor="start" x="462.286" y="-16.5" font-family="Helvetica,sans-Serif" font-size="10.00"> appReceiptIsValidForBundle</text>
<text text-anchor="middle" x="526.678" y="-6.5" font-family="Helvetica,sans-Serif" font-size="10.00">ID:andVersion:]</text>
</a>
</g>
</g>
<!-- Node3&#45;&gt;Node4 -->
<g id="edge3" class="edge"><title>Node3&#45;&gt;Node4</title>
<path fill="none" stroke="midnightblue" d="M428.502,-19.5C437.103,-19.5 445.762,-19.5 454.179,-19.5"/>
<polygon fill="midnightblue" stroke="midnightblue" points="428.451,-16.0001 418.451,-19.5 428.451,-23.0001 428.451,-16.0001"/>
</g>
</g>
</svg>
